<?xml version="1.0" encoding="UTF-8" standalone="no"?>
<!-- Created with Inkscape (http://www.inkscape.org/) -->

<svg
   version="1.1"
   id="svg1"
   width="421.29868"
   height="25.857332"
   viewBox="0 0 421.29868 25.857332"
   xmlns="http://www.w3.org/2000/svg"
   xmlns:svg="http://www.w3.org/2000/svg">
  <defs
     id="defs1" />
  <g
     id="g1">
    <g
       id="g2"
       aria-label="C[[t]]"
       transform="matrix(1.3333333,0,0,1.3333333,4.428,17.445333)">
      <path
         id="path2"
         d="m 7.8528281,-8.0156406 c 0,-0.2109375 0,-0.3984375 -0.1992187,-0.3984375 -0.011719,0 -0.1992188,0 -0.2226563,0.2109375 -0.035156,0.3398437 -0.3046875,0.3398437 -0.3867187,0.3398437 -0.421875,0 -0.84375,-0.1757812 -1.078125,-0.2929687 -0.609375,-0.2578125 -1.125,-0.2578125 -1.3125,-0.2578125 -2.0039063,0 -4.20703128,1.2539062 -4.20703128,4.3125 0,3.046875 2.15624998,4.32421872 4.23046878,4.32421872 0.6328125,0 1.4765625,-0.12890625 2.3554687,-0.65625 0.5507813,-0.33984375 1.1601563,-0.93750002 1.1601563,-1.11328122 0,-0.1640625 -0.1875,-0.234375 -0.2578125,-0.234375 -0.082031,0 -0.1289063,0.035156 -0.2460938,0.1640625 -0.6914062,0.79687497 -1.7578125,1.26562497 -2.8242187,1.26562497 -1.8515625,0 -2.3203125,-1.87499997 -2.3203125,-3.72656247 0,-2.3554688 0.8671875,-3.9140625 2.1445312,-3.9140625 0.890625,0 2.3320313,0.8671875 2.7304688,2.1328125 0.035156,0.1054687 0.082031,0.234375 0.234375,0.234375 0.1992187,0 0.1992187,-0.1992188 0.1992187,-0.3984375 z m -0.421875,1.2304687 c -0.140625,-0.2109375 -0.2929687,-0.3632812 -0.5976562,-0.6679687 0.070312,0.011719 0.1640625,0.011719 0.2226562,0.011719 0.1289063,0 0.28125,-0.035156 0.375,-0.09375 z m -4.2421875,-0.9375 c -0.2695312,0.28125 -1.0546875,1.3007813 -1.0546875,3.6445313 0,1.1835937 0.1757813,2.8359375 1.2539063,3.69140622 -1.96875,-0.63281252 -2.53125003,-2.23828122 -2.53125003,-3.70312502 0,-2.203125 1.20703123,-3.2578125 2.33203123,-3.6445312 z m 0,0"
         style="fill:#ffffff;fill-opacity:1;fill-rule:nonzero;stroke:none" />
      <path
         id="path3"
         d="M 11.623336,2.9882656 V 2.5429531 H 10.46318 v -11.0625 h 1.160156 v -0.4453125 h -1.605469 v 11.953125 z m 3.251953,0 V 2.5429531 h -1.160156 v -11.0625 h 1.160156 V -8.9648594 H 13.26982 v 11.953125 z m 0,0"
         style="fill:#ffffff;fill-opacity:1;fill-rule:nonzero;stroke:none" />
      <path
         id="path4"
         d="m 17.538375,-4.8047031 h 1.101562 c 0.222657,0 0.339844,0 0.339844,-0.2109375 0,-0.140625 -0.07031,-0.140625 -0.304687,-0.140625 h -1.054688 l 0.445313,-1.7460938 c 0.04687,-0.1640625 0.04687,-0.1875 0.04687,-0.2695312 0,-0.1875 -0.152344,-0.3046875 -0.316407,-0.3046875 -0.09375,0 -0.363281,0.046875 -0.457031,0.421875 l -0.46875,1.8984375 h -1.125 c -0.234375,0 -0.351562,0 -0.351562,0.234375 0,0.1171875 0.09375,0.1171875 0.316406,0.1171875 h 1.066406 l -0.796875,3.1523437 c -0.09375,0.421875 -0.128906,0.5390625 -0.128906,0.69140627 0,0.5625 0.398437,1.078125 1.066406,1.078125 1.207031,0 1.851563,-1.74609377 1.851563,-1.82812497 0,-0.070312 -0.04687,-0.1054688 -0.117188,-0.1054688 -0.02344,0 -0.07031,0 -0.09375,0.046875 -0.01172,0.011719 -0.02344,0.023437 -0.105469,0.2109375 -0.257812,0.59765627 -0.808593,1.44140627 -1.5,1.44140627 -0.363281,0 -0.386718,-0.3046875 -0.386718,-0.5625 0,-0.0117188 0,-0.24609375 0.03516,-0.38671877 z m 0,0"
         style="fill:#ffffff;fill-opacity:1;fill-rule:nonzero;stroke:none" />
      <path
         id="path5"
         d="m 21.215133,-8.9648594 h -1.605469 v 0.4453125 h 1.160156 v 11.0625 h -1.160156 v 0.4453125 h 1.605469 z m 3.251953,0 h -1.605469 v 0.4453125 h 1.160156 v 11.0625 h -1.160156 v 0.4453125 h 1.605469 z m 0,0"
         style="fill:#ffffff;fill-opacity:1;fill-rule:nonzero;stroke:none" />
    </g>
    <g
       id="g5"
       aria-label="C[[t]]"
       transform="matrix(1.3333333,0,0,1.3333333,80.017333,17.445333)">
      <path
         id="path6"
         d="m 7.8502812,-8.0156406 c 0,-0.2109375 0,-0.3984375 -0.1992187,-0.3984375 -0.011719,0 -0.1992188,0 -0.2226563,0.2109375 -0.035156,0.3398437 -0.3046875,0.3398437 -0.3867187,0.3398437 -0.421875,0 -0.84375,-0.1757812 -1.078125,-0.2929687 -0.609375,-0.2578125 -1.125,-0.2578125 -1.3125,-0.2578125 -2.0039063,0 -4.20703125,1.2539062 -4.20703125,4.3125 0,3.046875 2.15624995,4.32421872 4.23046875,4.32421872 0.6328125,0 1.4765625,-0.12890625 2.3554687,-0.65625 C 7.58075,-0.77345313 8.190125,-1.3711094 8.190125,-1.5468906 c 0,-0.1640625 -0.1875,-0.234375 -0.2578125,-0.234375 -0.082031,0 -0.1289063,0.035156 -0.2460938,0.1640625 -0.6914062,0.79687497 -1.7578125,1.26562497 -2.8242187,1.26562497 -1.8515625,0 -2.3203125,-1.87499997 -2.3203125,-3.72656247 0,-2.3554688 0.8671875,-3.9140625 2.1445312,-3.9140625 0.890625,0 2.3320313,0.8671875 2.7304688,2.1328125 0.035156,0.1054687 0.082031,0.234375 0.234375,0.234375 0.1992187,0 0.1992187,-0.1992188 0.1992187,-0.3984375 z m -0.421875,1.2304687 C 7.2877812,-6.9961094 7.1354375,-7.1484531 6.83075,-7.4531406 c 0.070312,0.011719 0.1640625,0.011719 0.2226562,0.011719 0.1289063,0 0.28125,-0.035156 0.375,-0.09375 z m -4.2421875,-0.9375 c -0.2695312,0.28125 -1.0546875,1.3007813 -1.0546875,3.6445313 0,1.1835937 0.1757813,2.8359375 1.2539063,3.69140622 -1.96875,-0.63281252 -2.53125,-2.23828122 -2.53125,-3.70312502 0,-2.203125 1.2070312,-3.2578125 2.3320312,-3.6445312 z m 0,0"
         style="fill:#ffffff;fill-opacity:1;fill-rule:nonzero;stroke:none" />
      <path
         id="path7"
         d="M 11.623719,2.9882656 V 2.5429531 h -1.160157 v -11.0625 h 1.160157 V -8.9648594 H 10.01825 v 11.953125 z m 3.251953,0 V 2.5429531 h -1.160156 v -11.0625 h 1.160156 v -0.4453125 h -1.605469 v 11.953125 z m 0,0"
         style="fill:#ffffff;fill-opacity:1;fill-rule:nonzero;stroke:none" />
      <path
         id="path8"
         d="m 17.541687,-4.8047031 h 1.101563 c 0.222656,0 0.339844,0 0.339844,-0.2109375 0,-0.140625 -0.07031,-0.140625 -0.304688,-0.140625 h -1.054687 l 0.445312,-1.7460938 c 0.04687,-0.1640625 0.04687,-0.1875 0.04687,-0.2695312 0,-0.1875 -0.152344,-0.3046875 -0.316406,-0.3046875 -0.09375,0 -0.363281,0.046875 -0.457031,0.421875 l -0.46875,1.8984375 h -1.125 c -0.234375,0 -0.351563,0 -0.351563,0.234375 0,0.1171875 0.09375,0.1171875 0.316406,0.1171875 h 1.066407 l -0.796875,3.1523437 c -0.09375,0.421875 -0.128907,0.5390625 -0.128907,0.69140627 0,0.5625 0.398438,1.078125 1.066407,1.078125 1.207031,0 1.851562,-1.74609377 1.851562,-1.82812497 0,-0.070312 -0.04687,-0.1054688 -0.117187,-0.1054688 -0.02344,0 -0.07031,0 -0.09375,0.046875 -0.01172,0.011719 -0.02344,0.023437 -0.105469,0.2109375 -0.257813,0.59765627 -0.808594,1.44140627 -1.5,1.44140627 -0.363281,0 -0.386719,-0.3046875 -0.386719,-0.5625 0,-0.0117188 0,-0.24609375 0.03516,-0.38671877 z m 0,0"
         style="fill:#ffffff;fill-opacity:1;fill-rule:nonzero;stroke:none" />
      <path
         id="path9"
         d="m 21.215516,-8.9648594 h -1.605469 v 0.4453125 h 1.160156 v 11.0625 h -1.160156 v 0.4453125 h 1.605469 z m 3.251953,0 H 22.862 v 0.4453125 h 1.160156 v 11.0625 H 22.862 v 0.4453125 h 1.605469 z m 0,0"
         style="fill:#ffffff;fill-opacity:1;fill-rule:nonzero;stroke:none" />
    </g>
    <g
       id="g9"
       aria-label="C[[t]]"
       transform="matrix(1.3333333,0,0,1.3333333,155.608,17.445333)">
      <path
         id="path10"
         d="m 7.8525937,-8.0156406 c 0,-0.2109375 0,-0.3984375 -0.1992187,-0.3984375 -0.011719,0 -0.1992188,0 -0.2226563,0.2109375 -0.035156,0.3398437 -0.3046875,0.3398437 -0.3867187,0.3398437 -0.421875,0 -0.84375,-0.1757812 -1.078125,-0.2929687 -0.609375,-0.2578125 -1.125,-0.2578125 -1.3125,-0.2578125 -2.0039063,0 -4.20703125,1.2539062 -4.20703125,4.3125 0,3.046875 2.15624995,4.32421872 4.23046875,4.32421872 0.6328125,0 1.4765625,-0.12890625 2.3554687,-0.65625 0.5507813,-0.33984375 1.1601563,-0.93750002 1.1601563,-1.11328122 0,-0.1640625 -0.1875,-0.234375 -0.2578125,-0.234375 -0.082031,0 -0.1289063,0.035156 -0.2460938,0.1640625 C 6.997125,-0.82032813 5.9307187,-0.35157813 4.8643125,-0.35157813 3.01275,-0.35157813 2.544,-2.2265781 2.544,-4.0781406 c 0,-2.3554688 0.8671875,-3.9140625 2.1445312,-3.9140625 0.890625,0 2.3320313,0.8671875 2.7304688,2.1328125 0.035156,0.1054687 0.082031,0.234375 0.234375,0.234375 0.1992187,0 0.1992187,-0.1992188 0.1992187,-0.3984375 z m -0.421875,1.2304687 C 7.2900937,-6.9961094 7.13775,-7.1484531 6.8330625,-7.4531406 c 0.070312,0.011719 0.1640625,0.011719 0.2226562,0.011719 0.1289063,0 0.28125,-0.035156 0.375,-0.09375 z m -4.2421875,-0.9375 c -0.2695312,0.28125 -1.0546875,1.3007813 -1.0546875,3.6445313 0,1.1835937 0.1757813,2.8359375 1.2539063,3.69140622 C 1.419,-1.0195469 0.8565,-2.6250156 0.8565,-4.0898594 c 0,-2.203125 1.2070312,-3.2578125 2.3320312,-3.6445312 z m 0,0"
         style="fill:#ffffff;fill-opacity:1;fill-rule:nonzero;stroke:none" />
      <path
         id="path11"
         d="M 11.623102,2.9882656 V 2.5429531 h -1.160157 v -11.0625 h 1.160157 v -0.4453125 h -1.605469 v 11.953125 z m 3.251953,0 V 2.5429531 h -1.160157 v -11.0625 h 1.160157 v -0.4453125 h -1.605469 v 11.953125 z m 0,0"
         style="fill:#ffffff;fill-opacity:1;fill-rule:nonzero;stroke:none" />
      <path
         id="path12"
         d="m 17.54107,-4.8047031 h 1.101563 c 0.222656,0 0.339844,0 0.339844,-0.2109375 0,-0.140625 -0.07031,-0.140625 -0.304688,-0.140625 h -1.054687 l 0.445312,-1.7460938 c 0.04687,-0.1640625 0.04687,-0.1875 0.04687,-0.2695312 0,-0.1875 -0.152344,-0.3046875 -0.316406,-0.3046875 -0.09375,0 -0.363281,0.046875 -0.457031,0.421875 l -0.46875,1.8984375 h -1.125 c -0.234375,0 -0.351563,0 -0.351563,0.234375 0,0.1171875 0.09375,0.1171875 0.316406,0.1171875 h 1.066407 l -0.796875,3.1523437 c -0.09375,0.421875 -0.128907,0.5390625 -0.128907,0.69140627 0,0.5625 0.398438,1.078125 1.066407,1.078125 1.207031,0 1.851562,-1.74609377 1.851562,-1.82812497 0,-0.070312 -0.04687,-0.1054688 -0.117187,-0.1054688 -0.02344,0 -0.07031,0 -0.09375,0.046875 -0.01172,0.011719 -0.02344,0.023437 -0.105469,0.2109375 -0.257813,0.59765627 -0.808594,1.44140627 -1.5,1.44140627 -0.363281,0 -0.386719,-0.3046875 -0.386719,-0.5625 0,-0.0117188 0,-0.24609375 0.03516,-0.38671877 z m 0,0"
         style="fill:#ffffff;fill-opacity:1;fill-rule:nonzero;stroke:none" />
      <path
         id="path13"
         d="m 21.217828,-8.9648594 h -1.605469 v 0.4453125 h 1.160157 v 11.0625 h -1.160157 v 0.4453125 h 1.605469 z m 3.251953,0 h -1.605469 v 0.4453125 h 1.160157 v 11.0625 h -1.160157 v 0.4453125 h 1.605469 z m 0,0"
         style="fill:#ffffff;fill-opacity:1;fill-rule:nonzero;stroke:none" />
    </g>
    <g
       id="g13"
       aria-label="C[[t]]"
       transform="matrix(1.3333333,0,0,1.3333333,231.19867,17.445333)">
      <path
         id="path14"
         d="m 7.8519766,-8.0156406 c 0,-0.2109375 0,-0.3984375 -0.1992188,-0.3984375 -0.011719,0 -0.1992187,0 -0.2226562,0.2109375 -0.035156,0.3398437 -0.3046875,0.3398437 -0.3867188,0.3398437 -0.421875,0 -0.84375,-0.1757812 -1.078125,-0.2929687 -0.609375,-0.2578125 -1.125,-0.2578125 -1.3125,-0.2578125 -2.0039062,0 -4.20703124,1.2539062 -4.20703124,4.3125 0,3.046875 2.15625004,4.32421872 4.23046874,4.32421872 0.6328125,0 1.4765625,-0.12890625 2.3554688,-0.65625 0.5507812,-0.33984375 1.1601562,-0.93750002 1.1601562,-1.11328122 0,-0.1640625 -0.1875,-0.234375 -0.2578125,-0.234375 -0.082031,0 -0.1289062,0.035156 -0.2460937,0.1640625 -0.6914063,0.79687497 -1.7578125,1.26562497 -2.8242188,1.26562497 -1.8515625,0 -2.3203125,-1.87499997 -2.3203125,-3.72656247 0,-2.3554688 0.8671875,-3.9140625 2.1445313,-3.9140625 0.890625,0 2.3320312,0.8671875 2.7304687,2.1328125 0.035156,0.1054687 0.082031,0.234375 0.234375,0.234375 0.1992188,0 0.1992188,-0.1992188 0.1992188,-0.3984375 z m -0.421875,1.2304687 c -0.140625,-0.2109375 -0.2929688,-0.3632812 -0.5976563,-0.6679687 0.070312,0.011719 0.1640625,0.011719 0.2226563,0.011719 0.1289062,0 0.28125,-0.035156 0.375,-0.09375 z m -4.2421875,-0.9375 c -0.2695313,0.28125 -1.0546875,1.3007813 -1.0546875,3.6445313 0,1.1835937 0.1757812,2.8359375 1.2539062,3.69140622 -1.96875,-0.63281252 -2.53124999,-2.23828122 -2.53124999,-3.70312502 0,-2.203125 1.20703129,-3.2578125 2.33203129,-3.6445312 z m 0,0"
         style="fill:#ffffff;fill-opacity:1;fill-rule:nonzero;stroke:none" />
      <path
         id="path15"
         d="M 11.622484,2.9882656 V 2.5429531 h -1.160156 v -11.0625 h 1.160156 v -0.4453125 h -1.605468 v 11.953125 z m 3.251954,0 V 2.5429531 h -1.160157 v -11.0625 h 1.160157 v -0.4453125 h -1.605469 v 11.953125 z m 0,0"
         style="fill:#ffffff;fill-opacity:1;fill-rule:nonzero;stroke:none" />
      <path
         id="path16"
         d="m 17.540453,-4.8047031 h 1.101563 c 0.222656,0 0.339843,0 0.339843,-0.2109375 0,-0.140625 -0.07031,-0.140625 -0.304687,-0.140625 h -1.054688 l 0.445313,-1.7460938 c 0.04687,-0.1640625 0.04687,-0.1875 0.04687,-0.2695312 0,-0.1875 -0.152344,-0.3046875 -0.316406,-0.3046875 -0.09375,0 -0.363282,0.046875 -0.457032,0.421875 l -0.46875,1.8984375 h -1.125 c -0.234375,0 -0.351562,0 -0.351562,0.234375 0,0.1171875 0.09375,0.1171875 0.316406,0.1171875 h 1.066406 l -0.796875,3.1523437 c -0.09375,0.421875 -0.128906,0.5390625 -0.128906,0.69140627 0,0.5625 0.398438,1.078125 1.066406,1.078125 1.207032,0 1.851563,-1.74609377 1.851563,-1.82812497 0,-0.070312 -0.04687,-0.1054688 -0.117188,-0.1054688 -0.02344,0 -0.07031,0 -0.09375,0.046875 -0.01172,0.011719 -0.02344,0.023437 -0.105468,0.2109375 -0.257813,0.59765627 -0.808594,1.44140627 -1.5,1.44140627 -0.363282,0 -0.386719,-0.3046875 -0.386719,-0.5625 0,-0.0117188 0,-0.24609375 0.03516,-0.38671877 z m 0,0"
         style="fill:#ffffff;fill-opacity:1;fill-rule:nonzero;stroke:none" />
      <path
         id="path17"
         d="m 21.217211,-8.9648594 h -1.605469 v 0.4453125 h 1.160156 v 11.0625 h -1.160156 v 0.4453125 h 1.605469 z m 3.251953,0 h -1.605469 v 0.4453125 h 1.160157 v 11.0625 h -1.160157 v 0.4453125 h 1.605469 z m 0,0"
         style="fill:#ffffff;fill-opacity:1;fill-rule:nonzero;stroke:none" />
    </g>
    <g
       id="g17"
       aria-label="C[[t]]"
       transform="matrix(1.3333333,0,0,1.3333333,306.78933,17.445333)">
      <path
         id="path18"
         d="m 7.8513594,-8.0156406 c 0,-0.2109375 0,-0.3984375 -0.1992188,-0.3984375 -0.011719,0 -0.1992187,0 -0.2226562,0.2109375 -0.035156,0.3398437 -0.3046875,0.3398437 -0.3867188,0.3398437 -0.421875,0 -0.84375,-0.1757812 -1.078125,-0.2929687 -0.609375,-0.2578125 -1.125,-0.2578125 -1.3125,-0.2578125 -2.0039062,0 -4.20703122,1.2539062 -4.20703122,4.3125 0,3.046875 2.15625002,4.32421872 4.23046872,4.32421872 0.6328125,0 1.4765625,-0.12890625 2.3554688,-0.65625 0.5507812,-0.33984375 1.1601562,-0.93750002 1.1601562,-1.11328122 0,-0.1640625 -0.1875,-0.234375 -0.2578125,-0.234375 -0.082031,0 -0.1289062,0.035156 -0.2460937,0.1640625 -0.6914063,0.79687497 -1.7578125,1.26562497 -2.8242188,1.26562497 -1.8515625,0 -2.3203125,-1.87499997 -2.3203125,-3.72656247 0,-2.3554688 0.8671875,-3.9140625 2.1445313,-3.9140625 0.890625,0 2.3320312,0.8671875 2.7304687,2.1328125 0.035156,0.1054687 0.082031,0.234375 0.234375,0.234375 0.1992188,0 0.1992188,-0.1992188 0.1992188,-0.3984375 z m -0.421875,1.2304687 c -0.140625,-0.2109375 -0.2929688,-0.3632812 -0.5976563,-0.6679687 0.070312,0.011719 0.1640625,0.011719 0.2226563,0.011719 0.1289062,0 0.28125,-0.035156 0.375,-0.09375 z m -4.2421875,-0.9375 c -0.2695313,0.28125 -1.0546875,1.3007813 -1.0546875,3.6445313 0,1.1835937 0.1757812,2.8359375 1.2539062,3.69140622 -1.96875,-0.63281252 -2.53124997,-2.23828122 -2.53124997,-3.70312502 0,-2.203125 1.20703127,-3.2578125 2.33203127,-3.6445312 z m 0,0"
         style="fill:#ffffff;fill-opacity:1;fill-rule:nonzero;stroke:none" />
      <path
         id="path19"
         d="M 11.621867,2.9882656 V 2.5429531 h -1.160156 v -11.0625 h 1.160156 v -0.4453125 h -1.605469 v 11.953125 z m 3.251953,0 V 2.5429531 h -1.160156 v -11.0625 h 1.160156 v -0.4453125 h -1.605468 v 11.953125 z m 0,0"
         style="fill:#ffffff;fill-opacity:1;fill-rule:nonzero;stroke:none" />
      <path
         id="path20"
         d="m 17.539836,-4.8047031 h 1.101562 c 0.222657,0 0.339844,0 0.339844,-0.2109375 0,-0.140625 -0.07031,-0.140625 -0.304687,-0.140625 h -1.054688 l 0.445313,-1.7460938 c 0.04687,-0.1640625 0.04687,-0.1875 0.04687,-0.2695312 0,-0.1875 -0.152344,-0.3046875 -0.316407,-0.3046875 -0.09375,0 -0.363281,0.046875 -0.457031,0.421875 l -0.46875,1.8984375 h -1.125 c -0.234375,0 -0.351562,0 -0.351562,0.234375 0,0.1171875 0.09375,0.1171875 0.316406,0.1171875 h 1.066406 l -0.796875,3.1523437 c -0.09375,0.421875 -0.128906,0.5390625 -0.128906,0.69140627 0,0.5625 0.398437,1.078125 1.066406,1.078125 1.207031,0 1.851563,-1.74609377 1.851563,-1.82812497 0,-0.070312 -0.04687,-0.1054688 -0.117188,-0.1054688 -0.02344,0 -0.07031,0 -0.09375,0.046875 -0.01172,0.011719 -0.02344,0.023437 -0.105469,0.2109375 -0.257812,0.59765627 -0.808593,1.44140627 -1.5,1.44140627 -0.363281,0 -0.386718,-0.3046875 -0.386718,-0.5625 0,-0.0117188 0,-0.24609375 0.03516,-0.38671877 z m 0,0"
         style="fill:#ffffff;fill-opacity:1;fill-rule:nonzero;stroke:none" />
      <path
         id="path21"
         d="m 21.216594,-8.9648594 h -1.605469 v 0.4453125 h 1.160156 v 11.0625 h -1.160156 v 0.4453125 h 1.605469 z m 3.251953,0 h -1.605469 v 0.4453125 h 1.160156 v 11.0625 h -1.160156 v 0.4453125 h 1.605469 z m 0,0"
         style="fill:#ffffff;fill-opacity:1;fill-rule:nonzero;stroke:none" />
    </g>
    <g
       id="g21"
       aria-label="C[[t]]"
       transform="matrix(1.3333333,0,0,1.3333333,382.38,17.445333)">
      <path
         id="path22"
         d="m 7.8507422,-8.0156406 c 0,-0.2109375 0,-0.3984375 -0.1992188,-0.3984375 -0.011719,0 -0.1992187,0 -0.2226562,0.2109375 -0.035156,0.3398437 -0.3046875,0.3398437 -0.3867188,0.3398437 -0.421875,0 -0.84375,-0.1757812 -1.078125,-0.2929687 -0.609375,-0.2578125 -1.125,-0.2578125 -1.3125,-0.2578125 -2.0039062,0 -4.20703121,1.2539062 -4.20703121,4.3125 0,3.046875 2.15625001,4.32421872 4.23046871,4.32421872 0.6328125,0 1.4765625,-0.12890625 2.3554688,-0.65625 0.5507812,-0.33984375 1.1601562,-0.93750002 1.1601562,-1.11328122 0,-0.1640625 -0.1875,-0.234375 -0.2578125,-0.234375 -0.082031,0 -0.1289062,0.035156 -0.2460937,0.1640625 -0.6914063,0.79687497 -1.7578125,1.26562497 -2.8242188,1.26562497 -1.8515625,0 -2.3203125,-1.87499997 -2.3203125,-3.72656247 0,-2.3554688 0.8671875,-3.9140625 2.1445313,-3.9140625 0.890625,0 2.3320312,0.8671875 2.7304687,2.1328125 0.035156,0.1054687 0.082031,0.234375 0.234375,0.234375 0.1992188,0 0.1992188,-0.1992188 0.1992188,-0.3984375 z m -0.421875,1.2304687 c -0.140625,-0.2109375 -0.2929688,-0.3632812 -0.5976563,-0.6679687 0.070312,0.011719 0.1640625,0.011719 0.2226563,0.011719 0.1289062,0 0.28125,-0.035156 0.375,-0.09375 z m -4.2421875,-0.9375 c -0.2695313,0.28125 -1.0546875,1.3007813 -1.0546875,3.6445313 0,1.1835937 0.1757812,2.8359375 1.2539062,3.69140622 -1.96875,-0.63281252 -2.53124996,-2.23828122 -2.53124996,-3.70312502 0,-2.203125 1.20703126,-3.2578125 2.33203126,-3.6445312 z m 0,0"
         style="fill:#ffffff;fill-opacity:1;fill-rule:nonzero;stroke:none" />
      <path
         id="path23"
         d="M 11.62125,2.9882656 V 2.5429531 h -1.160156 v -11.0625 h 1.160156 v -0.4453125 h -1.605469 v 11.953125 z m 3.251953,0 V 2.5429531 h -1.160156 v -11.0625 h 1.160156 v -0.4453125 h -1.605469 v 11.953125 z m 0,0"
         style="fill:#ffffff;fill-opacity:1;fill-rule:nonzero;stroke:none" />
      <path
         id="path24"
         d="m 17.539219,-4.8047031 h 1.101562 c 0.222657,0 0.339844,0 0.339844,-0.2109375 0,-0.140625 -0.07031,-0.140625 -0.304687,-0.140625 H 17.62125 l 0.445313,-1.7460938 c 0.04687,-0.1640625 0.04687,-0.1875 0.04687,-0.2695312 0,-0.1875 -0.152344,-0.3046875 -0.316407,-0.3046875 -0.09375,0 -0.363281,0.046875 -0.457031,0.421875 l -0.46875,1.8984375 h -1.125 c -0.234375,0 -0.351562,0 -0.351562,0.234375 0,0.1171875 0.09375,0.1171875 0.316406,0.1171875 H 16.7775 l -0.796875,3.1523437 c -0.09375,0.421875 -0.128906,0.5390625 -0.128906,0.69140627 0,0.5625 0.398437,1.078125 1.066406,1.078125 1.207031,0 1.851563,-1.74609377 1.851563,-1.82812497 0,-0.070312 -0.04687,-0.1054688 -0.117188,-0.1054688 -0.02344,0 -0.07031,0 -0.09375,0.046875 -0.01172,0.011719 -0.02344,0.023437 -0.105469,0.2109375 -0.257812,0.59765627 -0.808593,1.44140627 -1.5,1.44140627 -0.363281,0 -0.386718,-0.3046875 -0.386718,-0.5625 0,-0.0117188 0,-0.24609375 0.03516,-0.38671877 z m 0,0"
         style="fill:#ffffff;fill-opacity:1;fill-rule:nonzero;stroke:none" />
      <path
         id="path25"
         d="m 21.215977,-8.9648594 h -1.605469 v 0.4453125 h 1.160156 v 11.0625 h -1.160156 v 0.4453125 h 1.605469 z m 3.251953,0 h -1.605469 v 0.4453125 h 1.160156 v 11.0625 h -1.160156 v 0.4453125 h 1.605469 z m 0,0"
         style="fill:#ffffff;fill-opacity:1;fill-rule:nonzero;stroke:none" />
    </g>
    <path
       id="path26"
       d="M 0,0 C 0,0 0,0 0,0.797"
       style="fill:none;stroke:#ffffff;stroke-width:0.79701;stroke-linecap:butt;stroke-linejoin:miter;stroke-miterlimit:10;stroke-dasharray:none;stroke-opacity:1"
       transform="matrix(1.3333333,0,0,-1.3333333,21.673333,13.46)" />
    <path
       id="path27"
       d="M -2.55046,3.11095 C -2.0845,1.24435 -1.04614,0.36295 0,0 -1.04614,-0.36295 -2.0845,-1.24435 -2.55046,-3.11095"
       style="fill:none;stroke:#ffffff;stroke-width:0.79701;stroke-linecap:round;stroke-linejoin:round;stroke-miterlimit:10;stroke-dasharray:none;stroke-opacity:1"
       transform="matrix(0,-1.3333333,-1.3333333,0,21.673333,13.991333)" />
    <path
       id="path28"
       d="M 1.73422,0 C 1.11874,3.90208 1.92809,6.71703 3.9984,9.09557"
       style="fill:none;stroke:#ffffff;stroke-width:0.79701;stroke-linecap:butt;stroke-linejoin:miter;stroke-miterlimit:10;stroke-dasharray:none;stroke-opacity:1"
       transform="matrix(1.3333333,0,0,-1.3333333,21.673333,13.46)" />
    <path
       id="path29"
       d="M -2.55046,3.11095 C -2.0845,1.24435 -1.04614,0.36295 0,0 -1.04614,-0.36295 -2.0845,-1.24435 -2.55046,-3.11095"
       style="fill:none;stroke:#ffffff;stroke-width:0.79701;stroke-linecap:round;stroke-linejoin:round;stroke-miterlimit:10;stroke-dasharray:none;stroke-opacity:1"
       transform="matrix(0.87536,-1.00572,-1.00572,-0.87536,27.353373,0.93182667)" />
    <path
       id="path30"
       d="M 1.73422,0 C 1.1213,-0.2858 0.6129,-0.2858 0.72232,-0.3368"
       style="fill:none;stroke:#ffffff;stroke-width:0.79701;stroke-linecap:butt;stroke-linejoin:miter;stroke-miterlimit:10;stroke-dasharray:none;stroke-opacity:1"
       transform="matrix(1.3333333,0,0,-1.3333333,21.673333,13.46)" />
    <path
       id="path31"
       d="M -2.55046,3.11095 C -2.0845,1.24435 -1.04614,0.36295 0,0 -1.04614,-0.36295 -2.0845,-1.24435 -2.55046,-3.11095"
       style="fill:none;stroke:#ffffff;stroke-width:0.79701;stroke-linecap:round;stroke-linejoin:round;stroke-miterlimit:10;stroke-dasharray:none;stroke-opacity:1"
       transform="matrix(-1.2084,-0.56346667,-0.56346667,1.2084,22.15488,13.684547)" />
    <path
       id="path32"
       d="M -2.85197,2.77408 C -0.188,3.13126 1.73308,2.53047 3.13019,1.25635"
       style="fill:none;stroke:#ffffff;stroke-width:0.79701;stroke-linecap:butt;stroke-linejoin:miter;stroke-miterlimit:10;stroke-dasharray:none;stroke-opacity:1"
       transform="matrix(1.3333333,0,0,-1.3333333,21.673333,13.46)" />
    <path
       id="path33"
       d="M -2.55046,3.11095 C -2.0845,1.24435 -1.04614,0.36295 0,0 -1.04614,-0.36295 -2.0845,-1.24435 -2.55046,-3.11095"
       style="fill:none;stroke:#ffffff;stroke-width:0.79701;stroke-linecap:round;stroke-linejoin:round;stroke-miterlimit:10;stroke-dasharray:none;stroke-opacity:1"
       transform="matrix(0.98514667,0.89836,0.89836,-0.98514667,26.239493,12.142867)" />
    <path
       id="path34"
       d="M 1.59691,-0.21434 C 0.99557,-0.4023 0.53053,-0.33981 0.67107,-0.42986"
       style="fill:none;stroke:#ffffff;stroke-width:0.79701;stroke-linecap:butt;stroke-linejoin:miter;stroke-miterlimit:10;stroke-dasharray:none;stroke-opacity:1"
       transform="matrix(1.3333333,0,0,-1.3333333,21.673333,13.46)" />
    <path
       id="path35"
       d="M -2.55046,3.11095 C -2.0845,1.24435 -1.04614,0.36295 0,0 -1.04614,-0.36295 -2.0845,-1.24435 -2.55046,-3.11095"
       style="fill:none;stroke:#ffffff;stroke-width:0.79701;stroke-linecap:round;stroke-linejoin:round;stroke-miterlimit:10;stroke-dasharray:none;stroke-opacity:1"
       transform="matrix(-1.12268,-0.71913333,-0.71913333,1.12268,22.120707,13.746587)" />
    <path
       id="path36"
       d="M 2.22786,7.13307 C 1.2352,4.56648 -0.24779,3.14137 -2.09776,2.50961"
       style="fill:none;stroke:#ffffff;stroke-width:0.79701;stroke-linecap:butt;stroke-linejoin:miter;stroke-miterlimit:10;stroke-dasharray:none;stroke-opacity:1"
       transform="matrix(1.3333333,0,0,-1.3333333,21.673333,13.46)" />
    <path
       id="path37"
       d="M -2.55046,3.11095 C -2.0845,1.24435 -1.04614,0.36295 0,0 -1.04614,-0.36295 -2.0845,-1.24435 -2.55046,-3.11095"
       style="fill:none;stroke:#ffffff;stroke-width:0.79701;stroke-linecap:round;stroke-linejoin:round;stroke-miterlimit:10;stroke-dasharray:none;stroke-opacity:1"
       transform="matrix(-1.26176,0.43086667,0.43086667,1.26176,18.373533,10.28556)" />
    <path
       id="path38"
       d="M 1.58003,-0.30507 C 0.97055,-0.45784 0.5088,-0.36867 0.64534,-0.46762"
       style="fill:none;stroke:#ffffff;stroke-width:0.79701;stroke-linecap:butt;stroke-linejoin:miter;stroke-miterlimit:10;stroke-dasharray:none;stroke-opacity:1"
       transform="matrix(1.3333333,0,0,-1.3333333,21.673333,13.46)" />
    <path
       id="path39"
       d="M -2.55046,3.11095 C -2.0845,1.24435 -1.04614,0.36295 0,0 -1.04614,-0.36295 -2.0845,-1.24435 -2.55046,-3.11095"
       style="fill:none;stroke:#ffffff;stroke-width:0.79701;stroke-linecap:round;stroke-linejoin:round;stroke-miterlimit:10;stroke-dasharray:none;stroke-opacity:1"
       transform="matrix(-1.0796267,-0.78233333,-0.78233333,1.0796267,22.103547,13.771747)" />
    <path
       id="path40"
       d="M 0.72353,7.09007 C 0.55551,4.05511 -0.5143,2.0576 -2.30928,0.71321"
       style="fill:none;stroke:#ffffff;stroke-width:0.79701;stroke-linecap:butt;stroke-linejoin:miter;stroke-miterlimit:10;stroke-dasharray:none;stroke-opacity:1"
       transform="matrix(1.3333333,0,0,-1.3333333,21.673333,13.46)" />
    <path
       id="path41"
       d="M -2.55046,3.11095 C -2.0845,1.24435 -1.04614,0.36295 0,0 -1.04614,-0.36295 -2.0845,-1.24435 -2.55046,-3.11095"
       style="fill:none;stroke:#ffffff;stroke-width:0.79701;stroke-linecap:round;stroke-linejoin:round;stroke-miterlimit:10;stroke-dasharray:none;stroke-opacity:1"
       transform="matrix(-1.0671733,0.79925333,0.79925333,1.0671733,18.169027,12.82756)" />
    <path
       id="path42"
       d="M 1.57133,-0.34805 C 0.95647,-0.48451 0.49974,-0.3833 0.63235,-0.48503"
       style="fill:none;stroke:#ffffff;stroke-width:0.79701;stroke-linecap:butt;stroke-linejoin:miter;stroke-miterlimit:10;stroke-dasharray:none;stroke-opacity:1"
       transform="matrix(1.3333333,0,0,-1.3333333,21.673333,13.46)" />
    <path
       id="path43"
       d="M -2.55046,3.11095 C -2.0845,1.24435 -1.04614,0.36295 0,0 -1.04614,-0.36295 -2.0845,-1.24435 -2.55046,-3.11095"
       style="fill:none;stroke:#ffffff;stroke-width:0.79701;stroke-linecap:round;stroke-linejoin:round;stroke-miterlimit:10;stroke-dasharray:none;stroke-opacity:1"
       transform="matrix(-1.0579067,-0.81144,-0.81144,1.0579067,22.094907,13.783347)" />
    <path
       id="path44"
       d="M 4.46156,3.35014 C 3.75623,1.42125 2.68321,0.35149 1.50159,-0.07666"
       style="fill:none;stroke:#ffffff;stroke-width:0.79701;stroke-linecap:butt;stroke-linejoin:miter;stroke-miterlimit:10;stroke-dasharray:none;stroke-opacity:1"
       transform="matrix(1.3333333,0,0,-1.3333333,21.673333,13.46)" />
    <path
       id="path45"
       d="M -2.55046,3.11095 C -2.0845,1.24435 -1.04614,0.36295 0,0 -1.04614,-0.36295 -2.0845,-1.24435 -2.55046,-3.11095"
       style="fill:none;stroke:#ffffff;stroke-width:0.79701;stroke-linecap:round;stroke-linejoin:round;stroke-miterlimit:10;stroke-dasharray:none;stroke-opacity:1"
       transform="matrix(-1.2536267,0.45404,0.45404,1.2536267,23.175893,13.743147)" />
  </g>
</svg>
