<?xml version="1.0" encoding="UTF-8" standalone="no"?>
<!-- Created with Inkscape (http://www.inkscape.org/) -->

<svg
   version="1.1"
   id="svg1"
   width="65.862663"
   height="20.662666"
   viewBox="0 0 65.862663 20.662666"
   xmlns="http://www.w3.org/2000/svg"
   xmlns:svg="http://www.w3.org/2000/svg">
  <defs
     id="defs1" />
  <g
     id="g1">
    <path
       id="path1"
       d="m 0.35038281,-6.8083359 v 0.3164062 h 0.234375 c 0.77343749,0 0.78515629,0.1054688 0.78515629,0.46875 v 5.25000001 c 0,0.3515625 -0.011719,0.46875 -0.78515629,0.46875 h -0.234375 V 2.578125e-4 H 3.9949141 c 1.6757812,0 3.046875,-1.4765625125 3.046875,-3.3515625125 0,-1.8867187 -1.3476563,-3.4570312 -3.046875,-3.4570312 z m 2.36718749,6.50390621 c -0.46875,0 -0.4921875,-0.0703125 -0.4921875,-0.3984375 V -6.0934922 c 0,-0.328125 0.023437,-0.3984375 0.4921875,-0.3984375 h 0.9960938 c 0.6210937,0 1.3007812,0.2109375 1.8164062,0.9257813 0.421875,0.5859375 0.515625,1.4414062 0.515625,2.2148437 0,1.1132813 -0.1875,1.7109375 -0.5507812,2.1914063 -0.1992188,0.26953121 -0.7617188,0.85546871 -1.7695313,0.85546871 z M 11.746867,-3.3513047 c 0.257813,-0.6210937 0.761719,-0.6328125 0.925781,-0.6328125 v -0.3046875 c -0.234375,0.011719 -0.515625,0.023437 -0.75,0.023437 -0.175781,0 -0.644531,-0.023437 -0.867187,-0.023437 v 0.3046875 c 0.304687,0.011719 0.46875,0.1757813 0.46875,0.4335938 0,0.09375 -0.01172,0.1171875 -0.05859,0.234375 L 10.457805,-0.86692969 9.3562422,-3.5505234 c -0.046875,-0.09375 -0.058594,-0.140625 -0.058594,-0.1757813 0,-0.2578125 0.3632813,-0.2578125 0.5507813,-0.2578125 v -0.3046875 c -0.2578125,0 -0.9140625,0.023437 -1.078125,0.023437 -0.2695313,0 -0.6679688,-0.011719 -0.9726563,-0.023437 v 0.3046875 c 0.4804688,0 0.6679688,0 0.8085938,0.3515625 l 1.5,3.6328125125 C 10.047648,0.12916406 9.9070234,0.45728906 9.8484297,0.58619531 9.6374922,1.1369766 9.3562422,1.8283828 8.7117109,1.8283828 c -0.046875,0 -0.2695312,0 -0.46875,-0.1875 0.3164063,-0.035156 0.3984375,-0.2578125 0.3984375,-0.4101562 0,-0.26953129 -0.1992187,-0.42187504 -0.421875,-0.42187504 -0.1992187,0 -0.421875,0.12890625 -0.421875,0.42187504 0,0.4570312 0.421875,0.8085937 0.9140625,0.8085937 0.6328125,0 1.0429688,-0.5625 1.2773438,-1.13671874 z m 2.223633,-0.070312 v 2.66015626 c 0,0.45703125 -0.117188,0.45703125 -0.785156,0.45703125 V 2.578125e-4 c 0.351562,-0.0117187525 0.855468,-0.0351562525 1.125,-0.0351562525 0.257812,0 0.785156,0.0234375 1.113281,0.0351562525 V -0.30442969 c -0.65625,0 -0.773438,0 -0.773438,-0.45703125 V -2.5895859 c 0,-1.03125 0.714844,-1.59375 1.347657,-1.59375 0.621093,0 0.738281,0.5390625 0.738281,1.1015625 v 2.32031246 c 0,0.45703125 -0.117188,0.45703125 -0.773438,0.45703125 V 2.578125e-4 c 0.339844,-0.0117187525 0.855469,-0.0351562525 1.125,-0.0351562525 0.257813,0 0.773438,0.0234375 1.113282,0.0351562525 V -0.30442969 c -0.515625,0 -0.773438,0 -0.785157,-0.3046875 V -2.5075547 c 0,-0.8554687 0,-1.171875 -0.304687,-1.5234375 -0.140625,-0.1757812 -0.46875,-0.375 -1.042969,-0.375 -0.726562,0 -1.195312,0.4335938 -1.476562,1.0546875 v -1.0546875 l -1.40625,0.1171875 v 0.3046875 c 0.703125,0 0.785156,0.070312 0.785156,0.5625005 z m 5.487305,2.66015626 c 0,0.45703125 -0.105469,0.45703125 -0.773438,0.45703125 V 2.578125e-4 C 19.012492,-0.01146094 19.481242,-0.03489844 19.762492,-0.03489844 c 0.304688,0 0.703125,0.01171875 1.101563,0.0351562525 V -0.30442969 c -0.667969,0 -0.773438,0 -0.773438,-0.45703125 V -1.7809922 l 0.632813,-0.5507812 c 0.773437,1.0546875 1.183593,1.61718746 1.183593,1.79296871 0,0.1875 -0.164062,0.234375 -0.351562,0.234375 V 2.578125e-4 C 21.824992,-0.01146094 22.422648,-0.03489844 22.621867,-0.03489844 c 0.292969,0 0.585938,0.01171875 0.867188,0.0351562525 V -0.30442969 c -0.363282,0 -0.585938,0 -0.960938,-0.52734375 L 21.262492,-2.6247422 c -0.01172,-0.011719 -0.05859,-0.070312 -0.05859,-0.1054687 0,-0.035156 0.703125,-0.6328125 0.808594,-0.7148438 0.621094,-0.5039062 1.042969,-0.5273437 1.253906,-0.5390625 v -0.3046875 c -0.292968,0.023437 -0.421875,0.023437 -0.703125,0.023437 -0.351562,0 -0.972656,-0.023437 -1.113281,-0.023437 v 0.3046875 c 0.1875,0.011719 0.292969,0.1171875 0.292969,0.2460938 0,0.1992187 -0.140625,0.3164062 -0.222656,0.3867187 l -1.40625,1.21875 v -4.78125 l -1.429688,0.1054688 v 0.3164062 c 0.691406,0 0.773438,0.070312 0.773438,0.5507813 z m 5.961914,-3.64453126 -1.394532,0.1171875 v 0.3046875 c 0.65625,0 0.738282,0.058594 0.738282,0.5507813 v 2.67187496 c 0,0.45703125 -0.105469,0.45703125 -0.773438,0.45703125 V 2.578125e-4 C 24.306437,-0.01146094 24.8455,-0.03489844 25.091594,-0.03489844 c 0.339843,0 0.691406,0.0234375 1.03125,0.0351562525 V -0.30442969 c -0.65625,0 -0.703125,-0.0585938 -0.703125,-0.4453125 z m 0.04687,-1.734375 c 0,-0.3164062 -0.246094,-0.5273437 -0.527344,-0.5273437 -0.316406,0 -0.527344,0.2695312 -0.527344,0.5273437 0,0.2695313 0.210938,0.5273438 0.527344,0.5273438 0.28125,0 0.527344,-0.1992188 0.527344,-0.5273438 z m 2.065429,2.71875 v 2.66015626 c 0,0.45703125 -0.117187,0.45703125 -0.785156,0.45703125 V 2.578125e-4 c 0.351563,-0.0117187525 0.855469,-0.0351562525 1.125,-0.0351562525 0.257813,0 0.785156,0.0234375 1.113281,0.0351562525 V -0.30442969 c -0.65625,0 -0.773437,0 -0.773437,-0.45703125 V -2.5895859 c 0,-1.03125 0.714844,-1.59375 1.347656,-1.59375 0.621094,0 0.738281,0.5390625 0.738281,1.1015625 v 2.32031246 c 0,0.45703125 -0.117187,0.45703125 -0.773437,0.45703125 V 2.578125e-4 c 0.339844,-0.0117187525 0.855469,-0.0351562525 1.125,-0.0351562525 0.257812,0 0.773437,0.0234375 1.113281,0.0351562525 V -0.30442969 c -0.515625,0 -0.773437,0 -0.785156,-0.3046875 V -2.5075547 c 0,-0.8554687 0,-1.171875 -0.304688,-1.5234375 -0.140625,-0.1757812 -0.46875,-0.375 -1.042968,-0.375 -0.726563,0 -1.195313,0.4335938 -1.476563,1.0546875 v -1.0546875 l -1.40625,0.1171875 v 0.3046875 c 0.703125,0 0.785156,0.070312 0.785156,0.5625005 z m 0,0"
       style="fill:#ffffff;fill-opacity:1;fill-rule:nonzero;stroke:none"
       aria-label="Dynkin"
       transform="matrix(1.3333333,0,0,1.3333333,11.622667,13.652)" />
    <path
       id="path2"
       d="m 1.3606406,-0.77245312 c 0,0.3515625 -0.023437,0.46875 -0.79687498,0.46875 h -0.234375 V 9.84375e-4 H 6.0832969 L 6.4934531,-2.5654219 H 6.2473594 C 6.0012656,-1.0302656 5.7668906,-0.30370312 4.0559531,-0.30370312 H 2.7317344 c -0.46875,0 -0.4921875,-0.0703125 -0.4921875,-0.3984375 V -3.3622969 h 0.9023437 c 0.9609375,0 1.078125,0.3164063 1.078125,1.1601563 H 4.4661094 V -4.8388594 H 4.2200156 c 0,0.8554688 -0.1171875,1.1601563 -1.078125,1.1601563 H 2.2395469 v -2.390625 c 0,-0.328125 0.023437,-0.3984375 0.4921875,-0.3984375 h 1.2890625 c 1.5234375,0 1.7929687,0.5507812 1.9453125,1.9335937 H 6.2122031 L 5.9426719,-6.7724531 H 0.32939062 v 0.3046875 h 0.234375 c 0.77343748,0 0.79687498,0.1171875 0.79687498,0.46875 z m 9.3105464,-0.0117188 v 0.890625 L 12.112594,9.84375e-4 V -0.30370312 c -0.703125,0 -0.785157,-0.0703125 -0.785157,-0.5625 V -4.4052656 l -1.4531245,0.1171875 v 0.3046875 c 0.6914065,0 0.7734375,0.070312 0.7734375,0.5625 v 1.7695312 c 0,0.86718753 -0.480469,1.54687503 -1.2070313,1.54687503 -0.8320312,0 -0.8789062,-0.46875 -0.8789062,-0.99609373 v -3.3046875 l -1.4648438,0.1171875 v 0.3046875 c 0.7851563,0 0.7851563,0.035156 0.7851563,0.9140625 v 1.5 c 0,0.77343748 0,1.67578123 1.5117187,1.67578123 0.5507813,0 0.9960933,-0.26953125 1.2773433,-0.89062505 z m 2.803711,-1.38281258 c 0,-1.6289062 0.820313,-2.0507812 1.347657,-2.0507812 0.09375,0 0.714843,0.011719 1.066406,0.375 -0.410156,0.023437 -0.46875,0.328125 -0.46875,0.4570312 0,0.2578125 0.1875,0.4570313 0.457031,0.4570313 0.257813,0 0.457031,-0.1640625 0.457031,-0.46875 0,-0.6796875 -0.75,-1.0664062 -1.523437,-1.0664062 -1.242188,0 -2.15625,1.0781249 -2.15625,2.3085937 0,1.27734378 0.984375,2.26171878 2.144531,2.26171878 1.335938,0 1.652344,-1.19531248 1.652344,-1.28906248 0,-0.1054687 -0.105469,-0.1054687 -0.128906,-0.1054687 -0.09375,0 -0.117188,0.046875 -0.128907,0.1054687 -0.292968,0.92578123 -0.9375,1.04296873 -1.3125,1.04296873 -0.527343,0 -1.40625,-0.421875 -1.40625,-2.02734383 z m 5.027344,-4.7460937 -1.429687,0.1054688 v 0.3164062 c 0.703125,0 0.773437,0.070312 0.773437,0.5507813 v 5.17968748 c 0,0.45703125 -0.105469,0.45703125 -0.773437,0.45703125 V 9.84375e-4 c 0.328125,-0.011718745 0.855468,-0.035156245 1.101562,-0.035156245 0.257813,0 0.738281,0.0234375 1.113281,0.035156245 V -0.30370312 c -0.667968,0 -0.785156,0 -0.785156,-0.45703125 z m 2.765625,2.5078125 -1.394531,0.1171875 v 0.3046875 c 0.65625,0 0.738281,0.058594 0.738281,0.5507812 v 2.67187508 c 0,0.45703125 -0.105469,0.45703125 -0.773437,0.45703125 V 9.84375e-4 c 0.316406,-0.011718745 0.855468,-0.035156245 1.101562,-0.035156245 0.339844,0 0.691406,0.0234375 1.03125,0.035156245 V -0.30370312 c -0.65625,0 -0.703125,-0.0585938 -0.703125,-0.4453125 z m 0.04687,-1.734375 c 0,-0.3164062 -0.246094,-0.5273437 -0.527344,-0.5273437 -0.316406,0 -0.527343,0.2695312 -0.527343,0.5273437 0,0.2695313 0.210937,0.5273438 0.527343,0.5273438 0.28125,0 0.527344,-0.1992188 0.527344,-0.5273438 z m 4.749024,5.58984378 v 0.65625 L 27.528609,9.84375e-4 V -0.30370312 c -0.703125,0 -0.773437,-0.0703125 -0.773437,-0.5625 V -6.9130781 l -1.441406,0.1054687 v 0.3164063 c 0.703125,0 0.785156,0.070312 0.785156,0.5507812 v 2.15625 c -0.292969,-0.3632812 -0.726563,-0.6210937 -1.265625,-0.6210937 -1.171875,0 -2.214844,0.984375 -2.214844,2.2617187 0,1.26562503 0.972656,2.25000003 2.109375,2.25000003 0.644531,0 1.089844,-0.33984375 1.335938,-0.65625 z m 0,-2.67187508 v 2.0507814 c 0,0.17578118 0,0.19921868 -0.105469,0.36328118 -0.304688,0.48046875 -0.75,0.703125 -1.183594,0.703125 -0.445312,0 -0.796875,-0.2578125 -1.042969,-0.64453125 -0.257812,-0.41015623 -0.292968,-0.97265633 -0.292968,-1.38281253 0,-0.3632813 0.02344,-0.9609375 0.316406,-1.4179688 0.210937,-0.3046875 0.585937,-0.6328124 1.125,-0.6328124 0.351562,0 0.761719,0.1523437 1.078125,0.5976562 0.105469,0.1640625 0.105469,0.1875 0.105469,0.3632812 z m 2.862304,0.7148438 c 0.05859,-1.4882813 0.902344,-1.734375 1.242188,-1.734375 1.019531,0 1.125,1.3476562 1.125,1.734375 z m -0.01172,0.2109375 h 2.789062 c 0.210938,0 0.246094,0 0.246094,-0.2109375 0,-0.984375 -0.539063,-1.9570312 -1.78125,-1.9570312 -1.160156,0 -2.074219,1.0312499 -2.074219,2.2734374 0,1.33593758 1.042969,2.29687508 2.191406,2.29687508 1.21875,0 1.664063,-1.1015625 1.664063,-1.28906258 0,-0.1054687 -0.08203,-0.1171875 -0.128906,-0.1171875 -0.09375,0 -0.117188,0.058594 -0.128907,0.140625 -0.351562,1.01953133 -1.253906,1.01953133 -1.347656,1.01953133 -0.503906,0 -0.902344,-0.29296875 -1.125,-0.66796875 -0.30468,-0.48046868 -0.30468,-1.13671868 -0.30468,-1.48828118 z m 6.641601,1.53515628 c 0.03516,0.3984375 0.304688,0.8203125 0.773438,0.8203125 0.210937,0 0.820312,-0.140625 0.820312,-0.94921875 V -1.4404219 h -0.246094 v 0.55078128 c 0,0.5859375 -0.246093,0.64453125 -0.363281,0.64453125 -0.328125,0 -0.363281,-0.45703125 -0.363281,-0.50390625 V -2.7412031 c 0,-0.4101563 0,-0.8085938 -0.363281,-1.171875 -0.386719,-0.3867188 -0.878907,-0.5507813 -1.359375,-0.5507813 -0.820313,0 -1.511719,0.46875 -1.511719,1.125 0,0.3046875 0.199219,0.46875 0.457031,0.46875 0.28125,0 0.46875,-0.1992187 0.46875,-0.4570312 0,-0.1171875 -0.05859,-0.4453125 -0.515625,-0.4570313 0.269531,-0.3515625 0.761719,-0.4570312 1.078125,-0.4570312 0.492188,0 1.054688,0.3867187 1.054688,1.2773437 v 0.3632813 c -0.503907,0.035156 -1.207032,0.058594 -1.828125,0.3632812 -0.75,0.3398438 -0.996094,0.8554688 -0.996094,1.28906253 0,0.80859375 0.960937,1.0546875 1.59375,1.0546875 0.65625,0 1.113281,-0.3984375 1.300781,-0.86718755 z m -0.07031,-1.62890628 v 0.9960937 c 0,0.94921883 -0.714844,1.28906258 -1.160157,1.28906258 -0.492187,0 -0.902343,-0.3515625 -0.902343,-0.85546875 0,-0.53906243 0.421875,-1.37109383 2.0625,-1.42968753 z m 2.838867,-1.03125 v 2.66015628 c 0,0.45703125 -0.117188,0.45703125 -0.785156,0.45703125 V 9.84375e-4 c 0.351562,-0.011718745 0.855468,-0.035156245 1.125,-0.035156245 0.257812,0 0.785156,0.0234375 1.113281,0.035156245 V -0.30370312 c -0.65625,0 -0.773438,0 -0.773438,-0.45703125 V -2.5888594 c 0,-1.03125 0.714844,-1.59375 1.347657,-1.59375 0.621093,0 0.738281,0.5390625 0.738281,1.1015625 v 2.32031253 c 0,0.45703125 -0.117188,0.45703125 -0.773438,0.45703125 V 9.84375e-4 c 0.339844,-0.011718745 0.855469,-0.035156245 1.125,-0.035156245 0.257813,0 0.773438,0.0234375 1.113282,0.035156245 V -0.30370312 c -0.515625,0 -0.773438,0 -0.785157,-0.3046875 V -2.5068281 c 0,-0.8554688 0,-1.171875 -0.304687,-1.5234375 -0.140625,-0.1757813 -0.46875,-0.375 -1.042969,-0.375 -0.726562,0 -1.195312,0.4335937 -1.476562,1.0546875 v -1.0546875 l -1.40625,0.1171875 v 0.3046875 c 0.703125,0 0.785156,0.070312 0.785156,0.5624999 z m 0,0"
       style="fill:#000000;fill-opacity:1;fill-rule:nonzero;stroke:none"
       aria-label="Euclidean"
       transform="matrix(1.3333333,0,0,1.3333333,4.428,14.944)" />
  </g>
</svg>
