<?xml version="1.0" encoding="UTF-8" standalone="no"?>
<!-- Created with Inkscape (http://www.inkscape.org/) -->

<svg
   version="1.1"
   id="svg1"
   width="102.42"
   height="102.02267"
   viewBox="0 0 102.42 102.02267"
   xmlns="http://www.w3.org/2000/svg"
   xmlns:svg="http://www.w3.org/2000/svg">
  <defs
     id="defs1" />
  <g
     id="g1">
    <path
       id="path1"
       d="m 2.7300078,-5.7298594 c 0,-0.2226562 -0.011719,-0.234375 -0.234375,-0.234375 -0.5625,0.5625 -1.3828125,0.5625 -1.66406249,0.5625 v 0.28125 c 0.17578129,0 0.71484379,0 1.20703129,-0.234375 v 4.64062502 c 0,0.328125 -0.035156,0.43359375 -0.8671875,0.43359375 H 0.89016406 V 6.09375e-4 C 1.2065703,-0.02282813 2.0034453,-0.02282813 2.3784453,-0.02282813 c 0.3632813,0 1.171875,0 1.4882813,0.023437505 V -0.28064063 h -0.28125 c -0.8320313,0 -0.8554688,-0.10546875 -0.8554688,-0.43359375 z m 0,0"
       style="fill:#ffffff;fill-opacity:1;fill-rule:nonzero;stroke:none"
       aria-label="1"
       transform="matrix(1.3333333,0,0,1.3333333,48.137333,12.132)" />
    <path
       id="path2"
       d="m 0.93683594,-3.0950234 c 0,0.1640625 0,0.2578125 0.11718746,0.2578125 0.070312,0 0.1054688,-0.035156 0.1523438,-0.1171875 0.2695312,-0.375 0.703125,-0.5859375 1.171875,-0.5859375 0.9609375,0 0.9609375,1.3828125 0.9609375,1.6992187 0,0.28125 0,0.8320313 -0.2578125,1.24218751 -0.234375,0.375 -0.6210938,0.5390625 -0.9609375,0.5390625 -0.5390625,0 -1.13671876,-0.328125 -1.34765626,-0.99609371 0.0117188,0 0.0585938,0.023437 0.1171875,0.023437 0.18749996,0 0.44531246,-0.1171875 0.44531246,-0.4335938 0,-0.28125 -0.1992187,-0.4453125 -0.44531246,-0.4453125 -0.1875,0 -0.43359375,0.1054688 -0.43359375,0.46875 0,0.80859376 0.67968751,1.64062501 1.67578121,1.64062501 1.0898438,0 2.0039063,-0.87890625 2.0039063,-1.99218751 0,-1.0898437 -0.7617188,-1.96875 -1.7460938,-1.96875 -0.421875,0 -0.8671875,0.140625 -1.1835937,0.4570313 v -1.7578125 c 0.2695312,0.082031 0.5507812,0.1171875 0.8320312,0.1171875 1.1015625,0 1.7460938,-0.796875 1.7460938,-0.9140625 0,-0.070312 -0.058594,-0.1054688 -0.1054688,-0.1054688 -0.011719,0 -0.035156,0 -0.1171875,0.035156 -0.4101562,0.1757812 -0.8320312,0.2460937 -1.2070312,0.2460937 -0.3867188,0 -0.7851563,-0.070312 -1.1953125,-0.2460937 -0.09375,-0.035156 -0.1054688,-0.035156 -0.1171875,-0.035156 -0.10546876,0 -0.10546876,0.082031 -0.10546876,0.234375 z m 0,0"
       style="fill:#ffffff;fill-opacity:1;fill-rule:nonzero;stroke:none"
       aria-label="5"
       transform="matrix(1.3333333,0,0,1.3333333,4.4266667,46.794667)" />
    <path
       id="path3"
       d="m 0.257,-1.7565703 v 0.28125 h 2.4492187 v 0.77343749 c 0,0.328125 -0.023437,0.421875 -0.703125,0.421875 h -0.1875 v 0.28125 c 0.5625,-0.0234375 1.1835938,-0.0234375 1.2539063,-0.0234375 0.035156,0 0.6914062,0 1.2539062,0.0234375 v -0.28125 H 4.1241875 c -0.6679688,0 -0.703125,-0.09375 -0.703125,-0.421875 V -1.4753203 H 4.335125 v -0.28125 H 3.4210625 v -4.0664063 c 0,-0.1875 0,-0.2460937 -0.1640625,-0.2460937 -0.1054688,0 -0.1171875,0.011719 -0.1992188,0.140625 z m 0.29296875,0 2.21484375,-3.3164063 v 3.3164063 z m 0,0"
       style="fill:#ffffff;fill-opacity:1;fill-rule:nonzero;stroke:none"
       aria-label="4"
       transform="matrix(1.3333333,0,0,1.3333333,18.157333,97.596)" />
    <path
       id="path4"
       d="m 2.7293594,-3.1511016 c 0.8320312,-0.3164062 1.2304687,-0.9726562 1.2304687,-1.59375 0,-0.6914062 -0.7617187,-1.21875 -1.6875,-1.21875 -0.9375,0 -1.64062497,0.5273438 -1.64062497,1.2070313 0,0.2929687 0.19921875,0.46875 0.45703127,0.46875 0.2695312,0 0.4570312,-0.1875 0.4570312,-0.4570313 0,-0.3046875 -0.2226562,-0.4453125 -0.5273437,-0.4453125 0.234375,-0.375 0.7851562,-0.5507812 1.21875,-0.5507812 0.75,0 0.890625,0.5859375 0.890625,1.0078125 0,0.2695312 -0.058594,0.703125 -0.28125,1.0429687 -0.2695313,0.3984375 -0.5859375,0.421875 -0.84375,0.4335938 -0.234375,0.023437 -0.2460938,0.023437 -0.3164063,0.023437 -0.082031,0.011719 -0.1523437,0.011719 -0.1523437,0.1171875 0,0.1171875 0.070312,0.1171875 0.2226562,0.1171875 h 0.421875 c 0.7734375,0 1.125,0.6210937 1.125,1.4765625 0,1.14843749 -0.6210937,1.46484374 -1.078125,1.46484374 -0.1640625,0 -1.03125,-0.03515625 -1.44140622,-0.703125 0.32812502,0.046875 0.57421872,-0.17578125 0.57421872,-0.48046874 0,-0.3046875 -0.2226562,-0.4921875 -0.48046872,-0.4921875 -0.22265625,0 -0.4921875,0.140625 -0.4921875,0.515625 0,0.79687499 0.83203122,1.41796874 1.87500002,1.41796874 1.1132812,0 1.9570312,-0.80859375 1.9570312,-1.72265624 0,-0.7851563 -0.6210937,-1.4414063 -1.4882812,-1.6289058 z m 0,0"
       style="fill:#ffffff;fill-opacity:1;fill-rule:nonzero;stroke:none"
       aria-label="3"
       transform="matrix(1.3333333,0,0,1.3333333,78.118667,97.596)" />
    <path
       id="path5"
       d="M 4.1364609,-1.5833047 H 3.8903672 c -0.023437,0.1171875 -0.09375,0.64453126 -0.2109375,0.78515626 -0.046875,0.0820313 -0.6679688,0.0820313 -0.84375,0.0820313 h -1.59375 L 2.1208359,-1.5598672 c 1.4765625,-1.2773437 2.015625,-1.7460937 2.015625,-2.6601562 0,-1.03125 -0.84375,-1.7460938 -1.9453125,-1.7460938 -1.03125,0 -1.73437496,0.8085938 -1.73437496,1.6289063 0,0.4453125 0.38671875,0.4921875 0.46875,0.4921875 0.19921876,0 0.46874996,-0.140625 0.46874996,-0.46875 0,-0.2695313 -0.1875,-0.46875 -0.46874996,-0.46875 -0.046875,0 -0.0703125,0 -0.10546875,0.011719 0.21093751,-0.6328125 0.78515621,-0.9257812 1.26562501,-0.9257812 0.9140625,0 1.2304687,0.8554687 1.2304687,1.4765625 0,0.9140625 -0.6914062,1.6523437 -1.125,2.1210937 l -1.64062496,1.76953126 c -0.09375,0.10546875 -0.09375,0.1171875 -0.09375,0.328125 H 3.8903672 Z m 0,0"
       style="fill:#ffffff;fill-opacity:1;fill-rule:nonzero;stroke:none"
       aria-label="2"
       transform="matrix(1.3333333,0,0,1.3333333,91.848,46.794667)" />
    <path
       id="path6"
       d="M 0,28.3468 26.95966,8.75974 16.66179,-22.93315 H -16.66179 L -26.95966,8.75974 Z"
       style="fill:none;stroke:#ffffff;stroke-width:0.3985;stroke-linecap:butt;stroke-linejoin:miter;stroke-miterlimit:10;stroke-dasharray:none;stroke-opacity:1"
       transform="matrix(1.3333333,0,0,-1.3333333,51.209333,54.621333)" />
    <path
       id="path7"
       d="M 0,28.3468 16.66179,-22.93315"
       style="fill:none;stroke:#ffffff;stroke-width:0.3985;stroke-linecap:butt;stroke-linejoin:miter;stroke-miterlimit:10;stroke-dasharray:none;stroke-opacity:1"
       transform="matrix(1.3333333,0,0,-1.3333333,51.209333,54.621333)" />
    <g
       id="g7"
       aria-label="∆&#10;13"
       transform="matrix(1.3333333,0,0,1.3333333,67.010667,44.992)">
      <path
         id="path8"
         d="m 4.1023516,-6.2107969 c -0.082031,-0.1640625 -0.1289063,-0.2109375 -0.2695313,-0.2109375 -0.1289062,0 -0.1875,0.046875 -0.2460937,0.1757813 l -3.09375004,6.03515622 c -0.0351563,0.0703125 -0.0585938,0.1171875 -0.0585938,0.12890625 0,0.082031255 0.0703125,0.082031255 0.2109375,0.082031255 H 7.0203203 c 0.140625,0 0.2109375,0 0.2109375,-0.082031255 0,-0.01171875 0,-0.0234375 -0.046875,-0.1171875 z m -0.5742188,0.6796875 2.4960938,4.83984377 h -4.96875 z m 0,0"
         style="fill:#ffffff;fill-opacity:1;fill-rule:nonzero;stroke:none" />
      <path
         id="path9"
         d="m 9.8240313,-2.8006406 c 0,-0.1757813 -0.023437,-0.1757813 -0.1992188,-0.1757813 -0.3984375,0.375 -1.0078125,0.375 -1.21875,0.375 v 0.234375 c 0.1523438,0 0.5507813,0 0.9023438,-0.1640625 v 3.02343752 c 0,0.1875 0,0.26953125 -0.609375,0.26953125 H 8.4412188 v 0.234375 c 0.328125,-0.0234375 0.796875,-0.0234375 1.125,-0.0234375 0.3398437,0 0.7968752,0 1.1367192,0.0234375 v -0.234375 h -0.257813 c -0.6210937,0 -0.6210937,-0.0820313 -0.6210937,-0.26953125 z m 3.2666017,1.81640622 c 0.503906,0 0.84375,0.33984375 0.84375,0.94921875 0,0.65625 -0.386719,0.9375 -0.832031,0.9375 -0.152344,0 -0.773438,-0.0351563 -1.042969,-0.375 0.234375,-0.0234375 0.328125,-0.1875 0.328125,-0.33984375 0,-0.2109375 -0.140625,-0.33984375 -0.339844,-0.33984375 -0.164062,0 -0.339844,0.09375 -0.339844,0.3515625 0,0.5859375 0.65625,0.92578123 1.417969,0.92578123 0.878906,0 1.476563,-0.57421873 1.476563,-1.16015623 0,-0.43359375 -0.339844,-0.90234375 -1.042969,-1.07812497 0.46875,-0.1523438 0.855469,-0.5390625 0.855469,-1.03125 0,-0.4804688 -0.5625,-0.8320313 -1.277344,-0.8320313 -0.703125,0 -1.242188,0.3164063 -1.242188,0.8085938 0,0.2578125 0.199219,0.328125 0.316407,0.328125 0.164062,0 0.328125,-0.1054688 0.328125,-0.3164063 0,-0.1875 -0.140625,-0.2929687 -0.292969,-0.3164062 0.269531,-0.3046875 0.820312,-0.3046875 0.867187,-0.3046875 0.304688,0 0.691407,0.140625 0.691407,0.6328125 0,0.328125 -0.1875,0.9023437 -0.785157,0.9375 -0.105468,0.011719 -0.269531,0.023437 -0.316406,0.023437 -0.05859,0 -0.128906,0.011719 -0.128906,0.1054687 0,0.09375 0.07031,0.09375 0.164062,0.09375 z m 0,0"
         style="fill:#ffffff;fill-opacity:1;fill-rule:nonzero;stroke:none" />
    </g>
    <path
       id="path10"
       d="M 0,28.3468 -16.66179,-22.93315"
       style="fill:none;stroke:#ffffff;stroke-width:0.3985;stroke-linecap:butt;stroke-linejoin:miter;stroke-miterlimit:10;stroke-dasharray:none;stroke-opacity:1"
       transform="matrix(1.3333333,0,0,-1.3333333,51.209333,54.621333)" />
  </g>
</svg>
