<?xml version="1.0" encoding="UTF-8" standalone="no"?>
<!-- Created with Inkscape (http://www.inkscape.org/) -->

<svg
   version="1.1"
   id="svg1"
   width="227.35068"
   height="22.138666"
   viewBox="0 0 227.35068 22.138666"
   xmlns="http://www.w3.org/2000/svg"
   xmlns:svg="http://www.w3.org/2000/svg">
  <defs
     id="defs1" />
  <g
     id="g1">
    <path
       id="path1"
       d="m 0.56376562,-3.4101875 c 0,2.0625 1.60546878,3.6328125 3.45703128,3.6328125 1.6289062,0 2.6015625,-1.3828125 2.6015625,-2.5429687 0,-0.1054688 0,-0.1757813 -0.1289063,-0.1757813 -0.1054687,0 -0.1054687,0.070312 -0.1171875,0.1640625 -0.082031,1.4296875 -1.1484375,2.23828125 -2.2265625,2.23828125 -0.609375,0 -2.5664062,-0.33984375 -2.5664062,-3.30468745 0,-2.9765625 1.9453125,-3.3164063 2.5546875,-3.3164063 1.078125,0 1.96875,0.9023438 2.1679687,2.3671875 0.023437,0.1289063 0.023437,0.1640625 0.1640625,0.1640625 0.1523438,0 0.1523438,-0.035156 0.1523438,-0.234375 v -2.3671875 c 0,-0.1640625 0,-0.234375 -0.1054688,-0.234375 -0.035156,0 -0.082031,0 -0.1640625,0.1171875 l -0.4921875,0.7382813 c -0.375,-0.3632813 -0.8789062,-0.8554688 -1.8398437,-0.8554688 -1.8632813,0 -3.45703128,1.5820313 -3.45703128,3.609375 z m 9.17285158,5.90625 V 2.097625 H 8.7639609 V -7.0781562 H 9.7366172 V -7.4765937 H 8.3655234 v 9.9726562 z m 2.7685548,0 V 2.097625 h -0.972656 v -9.1757812 h 0.972656 v -0.3984375 h -1.371094 v 9.9726562 z m 1.948242,-6.4804687 h 1.429688 V -4.2890937 H 14.453414 V -6.1289375 H 14.20732 c -0.01172,0.8203125 -0.316406,1.8867188 -1.289062,1.921875 v 0.2226563 h 0.84375 V -1.2305 c 0,1.21875 0.925781,1.3359375 1.289062,1.3359375 0.703125,0 0.984375,-0.703125 0.984375,-1.3359375 v -0.5742187 h -0.246093 v 0.5507812 c 0,0.73828125 -0.304688,1.11328125 -0.667969,1.11328125 -0.667969,0 -0.667969,-0.90234375 -0.667969,-1.07812495 z m 3.732422,-3.4921875 h -1.359375 v 0.3984375 h 0.960937 V 2.097625 h -0.960937 v 0.3984375 h 1.359375 z m 2.768555,0 h -1.359375 v 0.3984375 h 0.960937 V 2.097625 h -0.960937 v 0.3984375 h 1.359375 z m 0,0"
       style="fill:#ffffff;fill-opacity:1;fill-rule:nonzero;stroke:none"
       aria-label="C[[t]]"
       transform="matrix(1.3333333,0,0,1.3333333,4.428,14.390667)" />
    <path
       id="path2"
       d="m 0.56249219,-3.4101875 c 0,2.0625 1.60546871,3.6328125 3.45703121,3.6328125 1.6289063,0 2.6015625,-1.3828125 2.6015625,-2.5429687 0,-0.1054688 0,-0.1757813 -0.1289062,-0.1757813 -0.1054688,0 -0.1054688,0.070312 -0.1171875,0.1640625 -0.082031,1.4296875 -1.1484375,2.23828125 -2.2265625,2.23828125 -0.609375,0 -2.5664063,-0.33984375 -2.5664063,-3.30468745 0,-2.9765625 1.9453125,-3.3164063 2.5546875,-3.3164063 1.078125,0 1.96875,0.9023438 2.1679688,2.3671875 0.023437,0.1289063 0.023437,0.1640625 0.1640625,0.1640625 0.1523437,0 0.1523437,-0.035156 0.1523437,-0.234375 v -2.3671875 c 0,-0.1640625 0,-0.234375 -0.1054687,-0.234375 -0.035156,0 -0.082031,0 -0.1640625,0.1171875 l -0.4921875,0.7382813 c -0.375,-0.3632813 -0.8789063,-0.8554688 -1.8398438,-0.8554688 -1.8632812,0 -3.45703121,1.5820313 -3.45703121,3.609375 z m 9.17578121,5.90625 V 2.097625 H 8.7656172 V -7.0781562 H 9.7382734 V -7.4765937 H 8.3671797 v 9.9726562 z m 2.7685546,0 V 2.097625 h -0.972656 v -9.1757812 h 0.972656 v -0.3984375 h -1.371094 v 9.9726562 z m 1.945313,-6.4804687 h 1.429687 v -0.3046875 h -1.429687 v -1.8398438 h -0.246094 c -0.01172,0.8203125 -0.316406,1.8867188 -1.289063,1.921875 v 0.2226563 h 0.84375 V -1.2305 c 0,1.21875 0.925782,1.3359375 1.289063,1.3359375 0.703125,0 0.984375,-0.703125 0.984375,-1.3359375 v -0.5742187 h -0.246094 v 0.5507812 c 0,0.73828125 -0.304687,1.11328125 -0.667969,1.11328125 -0.667968,0 -0.667968,-0.90234375 -0.667968,-1.07812495 z m 3.735351,-3.4921875 h -1.359375 v 0.3984375 h 0.960938 V 2.097625 h -0.960938 v 0.3984375 h 1.359375 z m 2.765625,0 h -1.359375 v 0.3984375 H 20.55468 V 2.097625 h -0.960938 v 0.3984375 h 1.359375 z m 0,0"
       style="fill:#ffffff;fill-opacity:1;fill-rule:nonzero;stroke:none"
       aria-label="C[[t]]"
       transform="matrix(1.3333333,0,0,1.3333333,42.222667,14.390667)" />
    <path
       id="path3"
       d="m 0.56121875,-3.4101875 c 0,2.0625 1.60546875,3.6328125 3.45703125,3.6328125 1.6289062,0 2.6015625,-1.3828125 2.6015625,-2.5429687 0,-0.1054688 0,-0.1757813 -0.1289063,-0.1757813 -0.1054687,0 -0.1054687,0.070312 -0.1171875,0.1640625 -0.082031,1.4296875 -1.1484375,2.23828125 -2.2265625,2.23828125 -0.609375,0 -2.5664062,-0.33984375 -2.5664062,-3.30468745 0,-2.9765625 1.9453125,-3.3164063 2.5546875,-3.3164063 1.078125,0 1.96875,0.9023438 2.1679687,2.3671875 0.023437,0.1289063 0.023437,0.1640625 0.1640625,0.1640625 0.1523438,0 0.1523438,-0.035156 0.1523438,-0.234375 v -2.3671875 c 0,-0.1640625 0,-0.234375 -0.1054688,-0.234375 -0.035156,0 -0.082031,0 -0.1640625,0.1171875 l -0.4921875,0.7382813 c -0.375,-0.3632813 -0.8789062,-0.8554688 -1.8398437,-0.8554688 -1.8632813,0 -3.45703125,1.5820313 -3.45703125,3.609375 z M 9.737,2.4960625 V 2.097625 H 8.7643437 V -7.0781562 H 9.737 V -7.4765937 H 8.3659062 v 9.9726562 z m 2.768555,0 V 2.097625 h -0.972657 v -9.1757812 h 0.972657 v -0.3984375 h -1.371094 v 9.9726562 z m 1.948242,-6.4804687 h 1.429687 v -0.3046875 h -1.429687 v -1.8398438 h -0.246094 c -0.01172,0.8203125 -0.316406,1.8867188 -1.289062,1.921875 v 0.2226563 h 0.84375 V -1.2305 c 0,1.21875 0.925781,1.3359375 1.289062,1.3359375 0.703125,0 0.984375,-0.703125 0.984375,-1.3359375 v -0.5742187 h -0.246094 v 0.5507812 c 0,0.73828125 -0.304687,1.11328125 -0.667968,1.11328125 -0.667969,0 -0.667969,-0.90234375 -0.667969,-1.07812495 z m 3.732422,-3.4921875 h -1.359375 v 0.3984375 h 0.960937 V 2.097625 h -0.960937 v 0.3984375 h 1.359375 z m 2.768554,0 h -1.359375 v 0.3984375 h 0.960938 V 2.097625 h -0.960938 v 0.3984375 h 1.359375 z m 0,0"
       style="fill:#ffffff;fill-opacity:1;fill-rule:nonzero;stroke:none"
       aria-label="C[[t]]"
       transform="matrix(1.3333333,0,0,1.3333333,80.017333,14.390667)" />
    <path
       id="path4"
       d="m 0.561875,-3.4101875 c 0,2.0625 1.6054688,3.6328125 3.4570313,3.6328125 1.6289062,0 2.6015625,-1.3828125 2.6015625,-2.5429687 0,-0.1054688 0,-0.1757813 -0.1289063,-0.1757813 -0.1054687,0 -0.1054687,0.070312 -0.1171875,0.1640625 -0.082031,1.4296875 -1.1484375,2.23828125 -2.2265625,2.23828125 -0.609375,0 -2.5664062,-0.33984375 -2.5664062,-3.30468745 0,-2.9765625 1.9453125,-3.3164063 2.5546875,-3.3164063 1.078125,0 1.96875,0.9023438 2.1679687,2.3671875 0.023437,0.1289063 0.023437,0.1640625 0.1640625,0.1640625 0.1523438,0 0.1523438,-0.035156 0.1523438,-0.234375 v -2.3671875 c 0,-0.1640625 0,-0.234375 -0.1054688,-0.234375 -0.035156,0 -0.082031,0 -0.1640625,0.1171875 L 5.85875,-6.1640937 c -0.375,-0.3632813 -0.8789062,-0.8554688 -1.8398437,-0.8554688 -1.8632813,0 -3.4570313,1.5820313 -3.4570313,3.609375 z m 9.1757813,5.90625 V 2.097625 H 8.765 V -7.0781562 H 9.7376563 V -7.4765937 H 8.3665625 v 9.9726562 z m 2.7685547,0 V 2.097625 h -0.972656 v -9.1757812 h 0.972656 v -0.3984375 h -1.371094 v 9.9726562 z m 1.945312,-6.4804687 h 1.429688 V -4.2890937 H 14.451523 V -6.1289375 H 14.20543 c -0.01172,0.8203125 -0.316407,1.8867188 -1.289063,1.921875 v 0.2226563 h 0.84375 V -1.2305 c 0,1.21875 0.925781,1.3359375 1.289063,1.3359375 0.703125,0 0.984375,-0.703125 0.984375,-1.3359375 v -0.5742187 h -0.246094 v 0.5507812 c 0,0.73828125 -0.304688,1.11328125 -0.667969,1.11328125 -0.667969,0 -0.667969,-0.90234375 -0.667969,-1.07812495 z m 3.735352,-3.4921875 H 16.8275 v 0.3984375 h 0.960937 V 2.097625 H 16.8275 v 0.3984375 h 1.359375 z m 2.768555,0 h -1.359375 v 0.3984375 h 0.960937 V 2.097625 h -0.960937 v 0.3984375 h 1.359375 z m 0,0"
       style="fill:#ffffff;fill-opacity:1;fill-rule:nonzero;stroke:none"
       aria-label="C[[t]]"
       transform="matrix(1.3333333,0,0,1.3333333,117.81333,14.390667)" />
    <path
       id="path5"
       d="m 0.56353125,-3.4101875 c 0,2.0625 1.60546875,3.6328125 3.45703125,3.6328125 1.6289062,0 2.6015625,-1.3828125 2.6015625,-2.5429687 0,-0.1054688 0,-0.1757813 -0.1289063,-0.1757813 -0.1054687,0 -0.1054687,0.070312 -0.1171875,0.1640625 -0.082031,1.4296875 -1.1484375,2.23828125 -2.2265625,2.23828125 -0.609375,0 -2.5664062,-0.33984375 -2.5664062,-3.30468745 0,-2.9765625 1.9453125,-3.3164063 2.5546875,-3.3164063 1.078125,0 1.96875,0.9023438 2.1679687,2.3671875 0.023437,0.1289063 0.023437,0.1640625 0.1640625,0.1640625 0.1523438,0 0.1523438,-0.035156 0.1523438,-0.234375 v -2.3671875 c 0,-0.1640625 0,-0.234375 -0.1054688,-0.234375 -0.035156,0 -0.082031,0 -0.1640625,0.1171875 L 5.8604062,-6.1640937 C 5.4854062,-6.527375 4.9815,-7.0195625 4.0205625,-7.0195625 c -1.8632813,0 -3.45703125,1.5820313 -3.45703125,3.609375 z m 9.17578125,5.90625 V 2.097625 H 8.7666562 V -7.0781562 H 9.7393125 V -7.4765937 H 8.3682187 v 9.9726562 z m 2.7656245,0 V 2.097625 h -0.972656 v -9.1757812 h 0.972656 v -0.3984375 h -1.371093 v 9.9726562 z m 1.948243,-6.4804687 h 1.429687 V -4.2890937 H 14.45318 v -1.8398438 h -0.246094 c -0.01172,0.8203125 -0.316406,1.8867188 -1.289063,1.921875 v 0.2226563 h 0.84375 V -1.2305 c 0,1.21875 0.925782,1.3359375 1.289063,1.3359375 0.703125,0 0.984375,-0.703125 0.984375,-1.3359375 v -0.5742187 h -0.246094 v 0.5507812 c 0,0.73828125 -0.304687,1.11328125 -0.667969,1.11328125 -0.667968,0 -0.667968,-0.90234375 -0.667968,-1.07812495 z m 3.732422,-3.4921875 h -1.359375 v 0.3984375 h 0.960937 V 2.097625 h -0.960937 v 0.3984375 h 1.359375 z m 2.768554,0 h -1.359375 v 0.3984375 h 0.960938 V 2.097625 h -0.960938 v 0.3984375 h 1.359375 z m 0,0"
       style="fill:#ffffff;fill-opacity:1;fill-rule:nonzero;stroke:none"
       aria-label="C[[t]]"
       transform="matrix(1.3333333,0,0,1.3333333,155.608,14.390667)" />
    <path
       id="path6"
       d="m 0.56125781,-3.4101875 c 0,2.0625 1.60546879,3.6328125 3.45703129,3.6328125 1.6289062,0 2.6015625,-1.3828125 2.6015625,-2.5429687 0,-0.1054688 0,-0.1757813 -0.1289063,-0.1757813 -0.1054687,0 -0.1054687,0.070312 -0.1171875,0.1640625 -0.082031,1.4296875 -1.1484375,2.23828125 -2.2265625,2.23828125 -0.609375,0 -2.5664062,-0.33984375 -2.5664062,-3.30468745 0,-2.9765625 1.9453125,-3.3164063 2.5546875,-3.3164063 1.078125,0 1.96875,0.9023438 2.1679687,2.3671875 0.023437,0.1289063 0.023437,0.1640625 0.1640625,0.1640625 0.1523438,0 0.1523438,-0.035156 0.1523438,-0.234375 v -2.3671875 c 0,-0.1640625 0,-0.234375 -0.1054688,-0.234375 -0.035156,0 -0.082031,0 -0.1640625,0.1171875 l -0.4921875,0.7382813 c -0.375,-0.3632813 -0.8789062,-0.8554688 -1.8398437,-0.8554688 -1.8632813,0 -3.45703129,1.5820313 -3.45703129,3.609375 z m 9.17578129,5.90625 V 2.097625 H 8.7643828 V -7.0781562 H 9.7370391 V -7.4765937 H 8.3659453 v 9.9726562 z m 2.7685549,0 V 2.097625 h -0.972656 v -9.1757812 h 0.972656 V -7.4765937 H 11.1345 v 9.9726562 z m 1.948242,-6.4804687 h 1.429687 v -0.3046875 h -1.429687 v -1.8398438 h -0.246094 c -0.01172,0.8203125 -0.316406,1.8867188 -1.289062,1.921875 v 0.2226563 h 0.84375 V -1.2305 c 0,1.21875 0.925781,1.3359375 1.289062,1.3359375 0.703125,0 0.984375,-0.703125 0.984375,-1.3359375 v -0.5742187 h -0.246094 v 0.5507812 c 0,0.73828125 -0.304687,1.11328125 -0.667968,1.11328125 -0.667969,0 -0.667969,-0.90234375 -0.667969,-1.07812495 z m 3.732422,-3.4921875 h -1.359375 v 0.3984375 H 17.78782 V 2.097625 h -0.960937 v 0.3984375 h 1.359375 z m 2.768555,0 h -1.359375 v 0.3984375 h 0.960937 V 2.097625 h -0.960937 v 0.3984375 h 1.359375 z m 0,0"
       style="fill:#ffffff;fill-opacity:1;fill-rule:nonzero;stroke:none"
       aria-label="C[[t]]"
       transform="matrix(1.3333333,0,0,1.3333333,193.404,14.390667)" />
    <path
       id="path7"
       d="M 14.58957,6.8019 C 14.29546,6.66475 14.05133,6.66475 14.17255,6.60823"
       style="fill:none;stroke:#ffffff;stroke-width:0.3985;stroke-linecap:butt;stroke-linejoin:miter;stroke-miterlimit:10;stroke-dasharray:none;stroke-opacity:1"
       transform="matrix(1.3333333,0,0,-1.3333333,19.186667,11.069333)" />
    <path
       id="path8"
       d="M -1.19551,1.59401 C -1.09587,0.99626 0,0.09961 0.29886,0 0,-0.09961 -1.09587,-0.99626 -1.19551,-1.59401"
       style="fill:none;stroke:#ffffff;stroke-width:0.31879;stroke-linecap:round;stroke-linejoin:round;stroke-miterlimit:10;stroke-dasharray:none;stroke-opacity:1"
       transform="matrix(-1.2084133,-0.56345333,-0.56345333,1.2084133,38.083413,2.2583733)" />
    <path
       id="path9"
       d="m 13.75722,-6.8019 c 0.29411,0.13715 0.53824,0.13715 0.41702,0.19367"
       style="fill:none;stroke:#ffffff;stroke-width:0.3985;stroke-linecap:butt;stroke-linejoin:miter;stroke-miterlimit:10;stroke-dasharray:none;stroke-opacity:1"
       transform="matrix(1.3333333,0,0,-1.3333333,19.186667,11.069333)" />
    <path
       id="path10"
       d="M -1.19551,1.59401 C -1.09587,0.99626 0,0.09961 0.29886,0 0,-0.09961 -1.09587,-0.99626 -1.19551,-1.59401"
       style="fill:none;stroke:#ffffff;stroke-width:0.31879;stroke-linecap:round;stroke-linejoin:round;stroke-miterlimit:10;stroke-dasharray:none;stroke-opacity:1"
       transform="matrix(1.2084133,0.56345333,0.56345333,-1.2084133,38.085627,19.880293)" />
    <path
       id="path11"
       d="M 42.93639,6.8019 C 42.64227,6.66475 42.39815,6.66475 42.51936,6.60823"
       style="fill:none;stroke:#ffffff;stroke-width:0.3985;stroke-linecap:butt;stroke-linejoin:miter;stroke-miterlimit:10;stroke-dasharray:none;stroke-opacity:1"
       transform="matrix(1.3333333,0,0,-1.3333333,19.186667,11.069333)" />
    <path
       id="path12"
       d="M -1.19551,1.59401 C -1.09587,0.99626 0,0.09961 0.29886,0 0,-0.09961 -1.09587,-0.99626 -1.19551,-1.59401"
       style="fill:none;stroke:#ffffff;stroke-width:0.31879;stroke-linecap:round;stroke-linejoin:round;stroke-miterlimit:10;stroke-dasharray:none;stroke-opacity:1"
       transform="matrix(-1.2084133,-0.56345333,-0.56345333,1.2084133,75.879173,2.2583733)" />
    <path
       id="path13"
       d="m 42.10403,-6.8019 c 0.29412,0.13715 0.53824,0.13715 0.41703,0.19367"
       style="fill:none;stroke:#ffffff;stroke-width:0.3985;stroke-linecap:butt;stroke-linejoin:miter;stroke-miterlimit:10;stroke-dasharray:none;stroke-opacity:1"
       transform="matrix(1.3333333,0,0,-1.3333333,19.186667,11.069333)" />
    <path
       id="path14"
       d="M -1.19551,1.59401 C -1.09587,0.99626 0,0.09961 0.29886,0 0,-0.09961 -1.09587,-0.99626 -1.19551,-1.59401"
       style="fill:none;stroke:#ffffff;stroke-width:0.31879;stroke-linecap:round;stroke-linejoin:round;stroke-miterlimit:10;stroke-dasharray:none;stroke-opacity:1"
       transform="matrix(1.2084133,0.56345333,0.56345333,-1.2084133,75.881387,19.880293)" />
    <path
       id="path15"
       d="M 71.28319,6.8019 C 70.98907,6.66475 70.74495,6.66475 70.86618,6.60823"
       style="fill:none;stroke:#ffffff;stroke-width:0.3985;stroke-linecap:butt;stroke-linejoin:miter;stroke-miterlimit:10;stroke-dasharray:none;stroke-opacity:1"
       transform="matrix(1.3333333,0,0,-1.3333333,19.186667,11.069333)" />
    <path
       id="path16"
       d="M -1.19551,1.59401 C -1.09587,0.99626 0,0.09961 0.29886,0 0,-0.09961 -1.09587,-0.99626 -1.19551,-1.59401"
       style="fill:none;stroke:#ffffff;stroke-width:0.31879;stroke-linecap:round;stroke-linejoin:round;stroke-miterlimit:10;stroke-dasharray:none;stroke-opacity:1"
       transform="matrix(-1.2084133,-0.56345333,-0.56345333,1.2084133,113.67493,2.2583733)" />
    <path
       id="path17"
       d="m 70.45084,-6.8019 c 0.29411,0.13715 0.53823,0.13715 0.41702,0.19367"
       style="fill:none;stroke:#ffffff;stroke-width:0.3985;stroke-linecap:butt;stroke-linejoin:miter;stroke-miterlimit:10;stroke-dasharray:none;stroke-opacity:1"
       transform="matrix(1.3333333,0,0,-1.3333333,19.186667,11.069333)" />
    <path
       id="path18"
       d="M -1.19551,1.59401 C -1.09587,0.99626 0,0.09961 0.29886,0 0,-0.09961 -1.09587,-0.99626 -1.19551,-1.59401"
       style="fill:none;stroke:#ffffff;stroke-width:0.31879;stroke-linecap:round;stroke-linejoin:round;stroke-miterlimit:10;stroke-dasharray:none;stroke-opacity:1"
       transform="matrix(1.2084133,0.56345333,0.56345333,-1.2084133,113.67712,19.880293)" />
    <path
       id="path19"
       d="M 99.63,6.8019 C 99.33589,6.66475 99.09177,6.66475 99.21298,6.60823"
       style="fill:none;stroke:#ffffff;stroke-width:0.3985;stroke-linecap:butt;stroke-linejoin:miter;stroke-miterlimit:10;stroke-dasharray:none;stroke-opacity:1"
       transform="matrix(1.3333333,0,0,-1.3333333,19.186667,11.069333)" />
    <path
       id="path20"
       d="M -1.19551,1.59401 C -1.09587,0.99626 0,0.09961 0.29886,0 0,-0.09961 -1.09587,-0.99626 -1.19551,-1.59401"
       style="fill:none;stroke:#ffffff;stroke-width:0.31879;stroke-linecap:round;stroke-linejoin:round;stroke-miterlimit:10;stroke-dasharray:none;stroke-opacity:1"
       transform="matrix(-1.2084133,-0.56345333,-0.56345333,1.2084133,151.47067,2.2583733)" />
    <path
       id="path21"
       d="m 98.79765,-6.8019 c 0.29412,0.13715 0.53824,0.13715 0.41703,0.19367"
       style="fill:none;stroke:#ffffff;stroke-width:0.3985;stroke-linecap:butt;stroke-linejoin:miter;stroke-miterlimit:10;stroke-dasharray:none;stroke-opacity:1"
       transform="matrix(1.3333333,0,0,-1.3333333,19.186667,11.069333)" />
    <path
       id="path22"
       d="M -1.19551,1.59401 C -1.09587,0.99626 0,0.09961 0.29886,0 0,-0.09961 -1.09587,-0.99626 -1.19551,-1.59401"
       style="fill:none;stroke:#ffffff;stroke-width:0.31879;stroke-linecap:round;stroke-linejoin:round;stroke-miterlimit:10;stroke-dasharray:none;stroke-opacity:1"
       transform="matrix(1.2084133,0.56345333,0.56345333,-1.2084133,151.47288,19.880293)" />
    <path
       id="path23"
       d="m 127.9768,6.8019 c -0.2941,-0.13715 -0.53823,-0.13715 -0.417,-0.19367"
       style="fill:none;stroke:#ffffff;stroke-width:0.3985;stroke-linecap:butt;stroke-linejoin:miter;stroke-miterlimit:10;stroke-dasharray:none;stroke-opacity:1"
       transform="matrix(1.3333333,0,0,-1.3333333,19.186667,11.069333)" />
    <path
       id="path24"
       d="M -1.19551,1.59401 C -1.09587,0.99626 0,0.09961 0.29886,0 0,-0.09961 -1.09587,-0.99626 -1.19551,-1.59401"
       style="fill:none;stroke:#ffffff;stroke-width:0.31879;stroke-linecap:round;stroke-linejoin:round;stroke-miterlimit:10;stroke-dasharray:none;stroke-opacity:1"
       transform="matrix(-1.2084133,-0.56345333,-0.56345333,1.2084133,189.26641,2.2583733)" />
    <path
       id="path25"
       d="m 127.14445,-6.8019 c 0.29412,0.13715 0.53825,0.13715 0.41703,0.19367"
       style="fill:none;stroke:#ffffff;stroke-width:0.3985;stroke-linecap:butt;stroke-linejoin:miter;stroke-miterlimit:10;stroke-dasharray:none;stroke-opacity:1"
       transform="matrix(1.3333333,0,0,-1.3333333,19.186667,11.069333)" />
    <path
       id="path26"
       d="M -1.19551,1.59401 C -1.09587,0.99626 0,0.09961 0.29886,0 0,-0.09961 -1.09587,-0.99626 -1.19551,-1.59401"
       style="fill:none;stroke:#ffffff;stroke-width:0.31879;stroke-linecap:round;stroke-linejoin:round;stroke-miterlimit:10;stroke-dasharray:none;stroke-opacity:1"
       transform="matrix(1.2084133,0.56345333,0.56345333,-1.2084133,189.26861,19.880293)" />
  </g>
</svg>
