<?xml version="1.0" encoding="UTF-8" standalone="no"?>
<!-- Created with Inkscape (http://www.inkscape.org/) -->

<svg
   version="1.1"
   id="svg1"
   width="99.171997"
   height="95.173332"
   viewBox="0 0 99.171997 95.173332"
   xmlns="http://www.w3.org/2000/svg"
   xmlns:svg="http://www.w3.org/2000/svg">
  <defs
     id="defs1" />
  <g
     id="g1">
    <path
       id="path1"
       d="m 1.9815625,-3.1637891 c 0,-0.1523437 -0.011719,-0.1523437 -0.1757813,-0.1523437 -0.3515625,0.3164062 -0.9023437,0.3164062 -1.00781245,0.3164062 H 0.7159375 v 0.2226563 h 0.0820313 c 0.1171875,0 0.4335937,-0.011719 0.7265624,-0.140625 v 2.48437499 c 0,0.1640625 0,0.2109375 -0.52734365,0.2109375 H 0.75109375 V 2.734375e-4 C 1.020625,-0.02316406 1.4659375,-0.02316406 1.7589062,-0.02316406 c 0.28125,0 0.7265625,0 0.9960938,0.0234374975 V -0.22238281 H 2.5089062 c -0.5273437,0 -0.5273437,-0.046875 -0.5273437,-0.2109375 z m 0,0"
       style="fill:#ffffff;fill-opacity:1;fill-rule:nonzero;stroke:none"
       aria-label="1"
       transform="matrix(1.3333333,0,0,1.3333333,47.326667,8.7066667)" />
    <path
       id="path2"
       d="m 0.97392187,-2.742 c 0.26953123,0.058594 0.49218753,0.058594 0.55078123,0.058594 0.3398438,0 0.5859375,-0.09375 0.7148438,-0.1640625 0.1171875,-0.058594 0.4570312,-0.2695313 0.4570312,-0.3867188 0,-0.070312 -0.058594,-0.082031 -0.070312,-0.082031 -0.011719,0 -0.023437,0 -0.070312,0.023437 -0.1992187,0.070312 -0.5039062,0.140625 -0.8320312,0.140625 -0.28125,0 -0.5625,-0.058594 -0.82031253,-0.140625 -0.0585938,-0.023437 -0.0703125,-0.023437 -0.0703125,-0.023437 -0.0703125,0 -0.0703125,0.058594 -0.0703125,0.140625 v 1.4882812 c 0,0.09375 0,0.1523438 0.09375,0.1523438 0.046875,0 0.0585938,-0.011719 0.10546875,-0.058594 0.18749998,-0.2226562 0.44531248,-0.328125 0.78515628,-0.328125 0.2929687,0 0.4453125,0.1640625 0.515625,0.2695313 0.1171875,0.1640625 0.140625,0.3867187 0.140625,0.6328125 0,0.21093745 -0.011719,0.49218745 -0.2109375,0.67968745 -0.2226563,0.234375 -0.5039063,0.24609375 -0.6210938,0.24609375 -0.3164062,0 -0.67968748,-0.140625 -0.84374998,-0.43359375 0.2109375,-0.0117188 0.28124998,-0.1640625 0.28124998,-0.28125 0,-0.15234375 -0.11718748,-0.28124995 -0.28124998,-0.28124995 -0.10546875,0 -0.26953125,0.070312 -0.26953125,0.2929687 0,0.4921875 0.46875,0.90234375 1.12500003,0.90234375 0.7382812,0 1.3476562,-0.4921875 1.3476562,-1.11328125 0,-0.5625 -0.4804687,-1.0898437 -1.171875,-1.0898437 -0.3164062,0 -0.5625,0.082031 -0.78515623,0.2460937 z m 0,0"
       style="fill:#ffffff;fill-opacity:1;fill-rule:nonzero;stroke:none"
       aria-label="5"
       transform="matrix(1.3333333,0,0,1.3333333,4.428,41.656)" />
    <path
       id="path3"
       d="M 3.0695,-0.80802344 V -1.0306797 H 2.4484062 v -2.1914062 c 0,-0.1171875 0,-0.1523438 -0.1289062,-0.1523438 -0.1054688,0 -0.1054688,0.011719 -0.1640625,0.082031 L 0.31559375,-1.03068 v 0.22265626 H 1.9679375 v 0.38671875 c 0,0.15234375 0,0.19921875 -0.4335938,0.19921875 H 1.3585625 V 5.703125e-4 c 0.234375,-0.0117187525 0.5625,-0.0234375025 0.8554687,-0.0234375025 0.28125,0 0.609375,0.01171875 0.84375,0.0234375025 V -0.22208594 H 2.882 c -0.4335938,0 -0.4335938,-0.046875 -0.4335938,-0.19921875 V -0.80802344 Z M 2.0148125,-2.8353672 v 1.8046875 H 0.54996875 Z m 0,0"
       style="fill:#ffffff;fill-opacity:1;fill-rule:nonzero;stroke:none"
       aria-label="4"
       transform="matrix(1.3333333,0,0,1.3333333,18.157333,90.745333)" />
    <path
       id="path4"
       d="m 1.6416953,-1.6517734 c 0.4570313,0 0.7617188,0.2929687 0.7617188,0.78515621 0,0.50390625 -0.3046875,0.7734375 -0.75,0.7734375 -0.058594,0 -0.65625004,0 -0.90234379,-0.2578125 0.19921875,-0.0351563 0.25781249,-0.1875 0.25781249,-0.3046875 0,-0.1875 -0.14062499,-0.3046875 -0.30468749,-0.3046875 -0.15234375,0 -0.3046875,0.10546875 -0.3046875,0.31640625 0,0.515625 0.5859375,0.75 1.26562499,0.75 0.8203125,0 1.3242188,-0.4921875 1.3242188,-0.97265625 0,-0.41015621 -0.3632813,-0.76171871 -0.9257813,-0.89062501 0.5976563,-0.1875 0.75,-0.5625 0.75,-0.84375 0,-0.4101562 -0.5039062,-0.7148437 -1.1367187,-0.7148437 -0.609375,0 -1.10156254,0.2578125 -1.10156254,0.703125 0,0.234375 0.1875,0.2929687 0.28125,0.2929687 0.140625,0 0.28125004,-0.1054687 0.28125004,-0.28125 0,-0.1171875 -0.058594,-0.2578125 -0.23437504,-0.28125 0.21093754,-0.234375 0.65625004,-0.2460937 0.76171874,-0.2460937 0.3632813,0 0.6210938,0.1875 0.6210938,0.5273437 0,0.28125 -0.1875,0.7382813 -0.7148438,0.7734375 -0.140625,0 -0.1523437,0 -0.28125,0.011719 -0.058594,0 -0.1171875,0.011719 -0.1171875,0.082031 0,0.082031 0.058594,0.082031 0.140625,0.082031 z m 0,0"
       style="fill:#ffffff;fill-opacity:1;fill-rule:nonzero;stroke:none"
       aria-label="3"
       transform="matrix(1.3333333,0,0,1.3333333,76.494667,90.745333)" />
    <path
       id="path5"
       d="M 2.9306094,-0.96075 H 2.7196719 c -0.011719,0.09375 -0.058594,0.3984375 -0.140625,0.45703125 -0.035156,0.0234375 -0.4570313,0.0234375 -0.5273438,0.0234375 h -0.984375 c 0.328125,-0.24609375 0.703125,-0.515625 0.9960938,-0.71484375 0.4570312,-0.3164062 0.8671875,-0.5976562 0.8671875,-1.125 0,-0.6445312 -0.5976563,-0.9960937 -1.3125,-0.9960937 -0.66796878,0 -1.16015628,0.3867187 -1.16015628,0.8789062 0,0.2578125 0.2109375,0.3046875 0.28125,0.3046875 0.140625,0 0.29296878,-0.09375 0.29296878,-0.2929687 0,-0.1875 -0.12890628,-0.28125 -0.28125003,-0.2929688 0.140625,-0.234375 0.43359373,-0.375 0.76171873,-0.375 0.4804688,0 0.890625,0.28125 0.890625,0.7734375 0,0.421875 -0.2929687,0.7382813 -0.6796875,1.0546875 l -1.20703123,1.03125 c -0.046875,0.046875 -0.0585938,0.046875 -0.0585938,0.0820313 V 1.875e-4 H 2.7665469 Z m 0,0"
       style="fill:#ffffff;fill-opacity:1;fill-rule:nonzero;stroke:none"
       aria-label="2"
       transform="matrix(1.3333333,0,0,1.3333333,90.225333,41.656)" />
    <path
       id="path6"
       d="M 0,28.3468 26.95966,8.75974 16.66179,-22.93315 H -16.66179 L -26.95966,8.75974 Z"
       style="fill:none;stroke:#ffffff;stroke-width:0.3985;stroke-linecap:butt;stroke-linejoin:miter;stroke-miterlimit:10;stroke-dasharray:none;stroke-opacity:1"
       transform="matrix(1.3333333,0,0,-1.3333333,49.586667,51.196)" />
    <path
       id="path7"
       d="M 0,28.3468 16.66179,-22.93315"
       style="fill:none;stroke:#ffffff;stroke-width:0.3985;stroke-linecap:butt;stroke-linejoin:miter;stroke-miterlimit:10;stroke-dasharray:none;stroke-opacity:1"
       transform="matrix(1.3333333,0,0,-1.3333333,49.586667,51.196)" />
    <path
       id="path8"
       d="M 2.9304844,-3.4570312 C 2.8718906,-3.5390625 2.8367344,-3.5625 2.7312656,-3.5625 c -0.1054687,0 -0.140625,0.023437 -0.1992187,0.1054688 L 0.48126562,-0.12890625 C 0.44610937,-0.0703125 0.44610937,-0.0703125 0.44610937,-0.05859375 0.44610937,0 0.49298437,0 0.56329687,0 H 4.8875156 c 0.082031,0 0.1289063,0 0.1289063,-0.05859375 0,-0.01171875 0,-0.01171875 -0.035156,-0.0703125 z m -0.375,0.3984375 1.6054687,2.60156245 H 0.93829687 Z m 4.8896484,1.3886718 c 0,-0.1523437 -0.011719,-0.1523437 -0.1757812,-0.1523437 -0.3515625,0.3164062 -0.9023438,0.3164062 -1.0078125,0.3164062 h -0.082031 v 0.2226563 h 0.082031 c 0.1171875,0 0.4335937,-0.011719 0.7265625,-0.140625 v 2.484375 c 0,0.1640625 0,0.2109375 -0.5273438,0.2109375 H 6.2146641 v 0.2226562 c 0.2695312,-0.023437 0.7148437,-0.023437 1.0078125,-0.023437 0.28125,0 0.7265625,0 0.9960937,0.023437 V 1.2714844 H 7.9724766 c -0.5273438,0 -0.5273438,-0.046875 -0.5273438,-0.2109375 z m 3.0527342,1.51171878 c 0.457031,0 0.761719,0.29296875 0.761719,0.78515625 0,0.50390627 -0.304688,0.77343747 -0.75,0.77343747 -0.05859,0 -0.6562501,0 -0.9023438,-0.2578125 0.1992187,-0.035156 0.2578125,-0.18749997 0.2578125,-0.30468747 0,-0.1875 -0.140625,-0.3046875 -0.3046875,-0.3046875 -0.1523438,0 -0.3046875,0.10546875 -0.3046875,0.31640625 0,0.51562502 0.5859375,0.75000002 1.2656253,0.75000002 0.820312,0 1.324218,-0.4921875 1.324218,-0.97265627 0,-0.41015625 -0.363281,-0.76171875 -0.925781,-0.890625 0.597656,-0.1875 0.75,-0.5625 0.75,-0.84375003 0,-0.4101562 -0.503906,-0.7148437 -1.136719,-0.7148437 -0.6093746,0 -1.1015621,0.2578125 -1.1015621,0.703125 0,0.23437498 0.1875,0.29296873 0.28125,0.29296873 0.140625,0 0.28125,-0.10546875 0.28125,-0.28125003 0,-0.1171875 -0.058594,-0.2578125 -0.234375,-0.28125 0.2109375,-0.234375 0.6562501,-0.2460937 0.7617191,-0.2460937 0.363281,0 0.621093,0.1875 0.621093,0.5273437 0,0.28125003 -0.1875,0.73828128 -0.714843,0.77343753 -0.140625,0 -0.152344,0 -0.28125,0.0117188 -0.05859,0 -0.117188,0.0117188 -0.117188,0.0820312 0,0.0820313 0.05859,0.0820313 0.140625,0.0820313 z m 0,0"
       style="fill:#ffffff;fill-opacity:1;fill-rule:nonzero;stroke:none"
       aria-label="∆&#10;13"
       transform="matrix(1.3333333,0,0,1.3333333,62.288,44)" />
    <path
       id="path9"
       d="M 0,28.3468 -16.66179,-22.93315"
       style="fill:none;stroke:#ffffff;stroke-width:0.3985;stroke-linecap:butt;stroke-linejoin:miter;stroke-miterlimit:10;stroke-dasharray:none;stroke-opacity:1"
       transform="matrix(1.3333333,0,0,-1.3333333,49.586667,51.196)" />
  </g>
</svg>
