<?xml version="1.0" encoding="UTF-8" standalone="no"?>
<!-- Created with Inkscape (http://www.inkscape.org/) -->

<svg
   version="1.1"
   id="svg1"
   width="90.846664"
   height="88.571999"
   viewBox="0 0 90.846664 88.571999"
   xmlns="http://www.w3.org/2000/svg"
   xmlns:svg="http://www.w3.org/2000/svg">
  <defs
     id="defs1" />
  <g
     id="g1">
    <path
       id="path1"
       d="m 2.81807,28.3468 c 0,1.5564 -1.26169,2.81809 -2.81807,2.81809 -1.55638,0 -2.81807,-1.26169 -2.81807,-2.81809 0,-1.5564 1.26169,-2.81808 2.81807,-2.81808 1.55638,0 2.81807,1.26168 2.81807,2.81808 z"
       style="fill:#ffffff;fill-opacity:1;fill-rule:nonzero;stroke:#ffffff;stroke-width:0.3985;stroke-linecap:butt;stroke-linejoin:miter;stroke-miterlimit:10;stroke-dasharray:none;stroke-opacity:1"
       transform="matrix(1.3333333,0,0,-1.3333333,45.105333,41.818667)" />
    <path
       id="path2"
       d="m -24.14157,8.75974 c 0,1.55639 -1.26169,2.81808 -2.81809,2.81808 -1.55639,0 -2.81808,-1.26169 -2.81808,-2.81808 0,-1.5564 1.26169,-2.81809 2.81808,-2.81809 1.5564,0 2.81809,1.26169 2.81809,2.81809 z"
       style="fill:#ffffff;fill-opacity:1;fill-rule:nonzero;stroke:#ffffff;stroke-width:0.3985;stroke-linecap:butt;stroke-linejoin:miter;stroke-miterlimit:10;stroke-dasharray:none;stroke-opacity:1"
       transform="matrix(1.3333333,0,0,-1.3333333,45.105333,41.818667)" />
    <path
       id="path3"
       d="m -13.8437,-22.93315 c 0,1.5564 -1.2617,2.81808 -2.81809,2.81808 -1.5564,0 -2.81808,-1.26168 -2.81808,-2.81808 0,-1.5564 1.26168,-2.81809 2.81808,-2.81809 1.55639,0 2.81809,1.26169 2.81809,2.81809 z"
       style="fill:#ffffff;fill-opacity:1;fill-rule:nonzero;stroke:#ffffff;stroke-width:0.3985;stroke-linecap:butt;stroke-linejoin:miter;stroke-miterlimit:10;stroke-dasharray:none;stroke-opacity:1"
       transform="matrix(1.3333333,0,0,-1.3333333,45.105333,41.818667)" />
    <path
       id="path4"
       d="m 19.47987,-22.93315 c 0,1.5564 -1.26168,2.81808 -2.81808,2.81808 -1.55639,0 -2.81809,-1.26168 -2.81809,-2.81808 0,-1.5564 1.2617,-2.81809 2.81809,-2.81809 1.5564,0 2.81808,1.26169 2.81808,2.81809 z"
       style="fill:#ffffff;fill-opacity:1;fill-rule:nonzero;stroke:#ffffff;stroke-width:0.3985;stroke-linecap:butt;stroke-linejoin:miter;stroke-miterlimit:10;stroke-dasharray:none;stroke-opacity:1"
       transform="matrix(1.3333333,0,0,-1.3333333,45.105333,41.818667)" />
    <path
       id="path5"
       d="m 29.77774,8.75974 c 0,1.55639 -1.26169,2.81808 -2.81808,2.81808 -1.5564,0 -2.81809,-1.26169 -2.81809,-2.81808 0,-1.5564 1.26169,-2.81809 2.81809,-2.81809 1.55639,0 2.81808,1.26169 2.81808,2.81809 z"
       style="fill:#ffffff;fill-opacity:1;fill-rule:nonzero;stroke:#ffffff;stroke-width:0.3985;stroke-linecap:butt;stroke-linejoin:miter;stroke-miterlimit:10;stroke-dasharray:none;stroke-opacity:1"
       transform="matrix(1.3333333,0,0,-1.3333333,45.105333,41.818667)" />
    <path
       id="path6"
       d="M -2.44107,26.5733 -24.51859,10.53323"
       style="fill:none;stroke:#ffffff;stroke-width:0.3985;stroke-linecap:butt;stroke-linejoin:miter;stroke-miterlimit:10;stroke-dasharray:none;stroke-opacity:1"
       transform="matrix(1.3333333,0,0,-1.3333333,45.105333,41.818667)" />
    <path
       id="path7"
       d="m -11.80484,23.07803 c 0,3.42406 -2.7757,6.19974 -6.19974,6.19974 -3.42404,0 -6.19974,-2.77568 -6.19974,-6.19974 0,-3.42404 2.7757,-6.19972 6.19974,-6.19972 3.42404,0 6.19974,2.77568 6.19974,6.19972 z"
       style="fill:#ffffff;fill-opacity:1;fill-rule:nonzero;stroke:#ffffff;stroke-width:0.3985;stroke-linecap:butt;stroke-linejoin:miter;stroke-miterlimit:10;stroke-dasharray:none;stroke-opacity:1"
       transform="matrix(1.3333333,0,0,-1.3333333,45.105333,41.818667)" />
    <path
       id="path8"
       d="m 3.7152266,-3.7630313 c -0.1757813,-0.375 -0.46875,-0.6445312 -0.9140625,-0.6445312 -1.171875,0 -2.40234379,1.4648437 -2.40234379,2.9179687 0,0.93750005 0.55078125,1.59375005 1.32421879,1.59375005 0.1992187,0 0.703125,-0.03515625 1.3007812,-0.73828125 0.070312,0.41015625 0.421875,0.73828125 0.9023438,0.73828125 0.3515625,0 0.5742187,-0.22265625 0.7382812,-0.5390625 C 4.8285078,-0.7981875 4.9574141,-1.4075625 4.9574141,-1.431 c 0,-0.09375 -0.082031,-0.09375 -0.1171875,-0.09375 -0.09375,0 -0.1054688,0.035156 -0.140625,0.1757812 -0.1640625,0.6445313 -0.3515625,1.24218755 -0.75,1.24218755 -0.2695313,0 -0.3046875,-0.2578125 -0.3046875,-0.45703125 0,-0.22265625 0.023437,-0.3046875 0.1289062,-0.7382813 0.1171875,-0.421875 0.1289063,-0.5273437 0.2226563,-0.9023437 l 0.3515625,-1.3945313 c 0.070312,-0.28125 0.070312,-0.2929687 0.070312,-0.3398437 0,-0.1640625 -0.1171875,-0.2695313 -0.28125,-0.2695313 -0.2460938,0 -0.3867188,0.2226563 -0.4218745,0.4453125 z m -0.6445313,2.578125 c -0.046875,0.1757813 -0.046875,0.1992188 -0.1992187,0.3632813 -0.4453125,0.55078125 -0.84375,0.71484375 -1.125,0.71484375 -0.5039063,0 -0.6445313,-0.55078125 -0.6445313,-0.93750005 0,-0.5039062 0.328125,-1.7226562 0.5507813,-2.1796875 0.3046875,-0.5976562 0.7617187,-0.9609375 1.1601562,-0.9609375 0.6445313,0 0.7851563,0.8203125 0.7851563,0.8789063 0,0.058594 -0.023437,0.1171875 -0.035156,0.1640625 z m 0,0"
       style="fill:#ffffff;fill-opacity:1;fill-rule:nonzero;stroke:none"
       aria-label="a"
       transform="matrix(1.3333333,0,0,1.3333333,17.589333,13.908)" />
    <path
       id="path9"
       d="m -26.02728,5.8901 8.43313,-25.95362"
       style="fill:none;stroke:#ffffff;stroke-width:0.3985;stroke-linecap:butt;stroke-linejoin:miter;stroke-miterlimit:10;stroke-dasharray:none;stroke-opacity:1"
       transform="matrix(1.3333333,0,0,-1.3333333,45.105333,41.818667)" />
    <path
       id="path10"
       d="m -19.94783,-12.06519 c 0,3.77845 -3.06294,6.84139 -6.84139,6.84139 -3.77842,0 -6.84136,-3.06294 -6.84136,-6.84139 0,-3.77842 3.06294,-6.84137 6.84136,-6.84137 3.77845,0 6.84139,3.06295 6.84139,6.84137 z"
       style="fill:#ffffff;fill-opacity:1;fill-rule:nonzero;stroke:#ffffff;stroke-width:0.3985;stroke-linecap:butt;stroke-linejoin:miter;stroke-miterlimit:10;stroke-dasharray:none;stroke-opacity:1"
       transform="matrix(1.3333333,0,0,-1.3333333,45.105333,41.818667)" />
    <path
       id="path11"
       d="m 2.3802031,-6.809875 c 0,0 0,-0.1054687 -0.1289062,-0.1054687 -0.2226563,0 -0.9492188,0.082031 -1.21875,0.1054687 -0.0703125,0 -0.18750003,0.011719 -0.18750003,0.1992188 0,0.1171875 0.09375,0.1171875 0.24609373,0.1171875 0.46875,0 0.4921875,0.070312 0.4921875,0.1640625 0,0.070312 -0.082031,0.4101562 -0.140625,0.6210937 l -0.80859373,3.2460938 c -0.12890625,0.5039062 -0.1640625,0.65625 -0.1640625,1.0078125 0,0.9492187 0.52734375,1.5585937 1.26562503,1.5585937 1.171875,0 2.4023437,-1.4765625 2.4023437,-2.9179687 0,-0.9023438 -0.5273437,-1.59375 -1.3242187,-1.59375 -0.4570313,0 -0.8671875,0.2929687 -1.171875,0.5976562 z m -0.9375,3.7734375 c 0.058594,-0.2226562 0.058594,-0.2460937 0.1523438,-0.3515625 0.4921875,-0.6445312 0.9375,-0.796875 1.1953125,-0.796875 0.3632812,0 0.6328125,0.2929688 0.6328125,0.9375 0,0.5859375 -0.328125,1.734375 -0.515625,2.109375 -0.328125,0.66796875 -0.7851563,1.03125 -1.171875,1.03125 -0.3398438,0 -0.6679688,-0.26953125 -0.6679688,-1.0078125 0,-0.1875 0,-0.3867187 0.1640625,-1.0078125 z m 0,0"
       style="fill:#ffffff;fill-opacity:1;fill-rule:nonzero;stroke:none"
       aria-label="b"
       transform="matrix(1.3333333,0,0,1.3333333,6.5373333,62.517333)" />
    <path
       id="path12"
       d="m -13.64445,-22.93315 h 27.2889"
       style="fill:none;stroke:#ffffff;stroke-width:0.3985;stroke-linecap:butt;stroke-linejoin:miter;stroke-miterlimit:10;stroke-dasharray:none;stroke-opacity:1"
       transform="matrix(1.3333333,0,0,-1.3333333,45.105333,41.818667)" />
    <path
       id="path13"
       d="m 5.86699,-28.99939 c 0,3.24028 -2.62671,5.86699 -5.86699,5.86699 -3.24028,0 -5.86699,-2.62671 -5.86699,-5.86699 0,-3.2403 2.62671,-5.86699 5.86699,-5.86699 3.24028,0 5.86699,2.62669 5.86699,5.86699 z"
       style="fill:#ffffff;fill-opacity:1;fill-rule:nonzero;stroke:#ffffff;stroke-width:0.3985;stroke-linecap:butt;stroke-linejoin:miter;stroke-miterlimit:10;stroke-dasharray:none;stroke-opacity:1"
       transform="matrix(1.3333333,0,0,-1.3333333,45.105333,41.818667)" />
    <path
       id="path14"
       d="m 3.9480703,-3.7853437 c -0.1640625,0 -0.3046875,0 -0.4453125,0.140625 C 3.3504141,-3.492375 3.3269766,-3.3283125 3.3269766,-3.258 c 0,0.234375 0.1757812,0.3515625 0.3632812,0.3515625 0.2929688,0 0.5625,-0.2460937 0.5625,-0.6445312 0,-0.4804688 -0.46875,-0.8554688 -1.171875,-0.8554688 -1.3476562,0 -2.67187499,1.4296875 -2.67187499,2.8359375 0,0.890625 0.57421875,1.67578125 1.61718749,1.67578125 1.4179688,0 2.2617188,-1.0546875 2.2617188,-1.17187495 0,-0.058594 -0.070312,-0.1289063 -0.1289063,-0.1289063 -0.046875,0 -0.070312,0.023437 -0.1289062,0.09375 -0.7851563,0.99609375 -1.875,0.99609375 -1.9921875,0.99609375 -0.6210938,0 -0.890625,-0.4921875 -0.890625,-1.08984375 0,-0.4101562 0.1992187,-1.3710937 0.5390625,-1.9921875 0.3046875,-0.5625 0.8554687,-0.9960937 1.40625,-0.9960937 0.328125,0 0.7148437,0.1289062 0.8554687,0.3984375 z m 0,0"
       style="fill:#ffffff;fill-opacity:1;fill-rule:nonzero;stroke:none"
       aria-label="c"
       transform="matrix(1.3333333,0,0,1.3333333,42.232,83.344)" />
    <path
       id="path15"
       d="M 17.59415,-20.06352 26.02728,5.8901"
       style="fill:none;stroke:#ffffff;stroke-width:0.3985;stroke-linecap:butt;stroke-linejoin:miter;stroke-miterlimit:10;stroke-dasharray:none;stroke-opacity:1"
       transform="matrix(1.3333333,0,0,-1.3333333,45.105333,41.818667)" />
    <path
       id="path16"
       d="m 34.10724,-12.26262 c 0,3.93265 -3.18796,7.12061 -7.12061,7.12061 -3.93264,0 -7.1206,-3.18796 -7.1206,-7.12061 0,-3.93265 3.18796,-7.1206 7.1206,-7.1206 3.93265,0 7.12061,3.18795 7.12061,7.1206 z"
       style="fill:#ffffff;fill-opacity:1;fill-rule:nonzero;stroke:#ffffff;stroke-width:0.3985;stroke-linecap:butt;stroke-linejoin:miter;stroke-miterlimit:10;stroke-dasharray:none;stroke-opacity:1"
       transform="matrix(1.3333333,0,0,-1.3333333,45.105333,41.818667)" />
    <path
       id="path17"
       d="m 5.1432109,-6.8086562 c 0,0 0,-0.1054688 -0.1289062,-0.1054688 -0.1523438,0 -1.1015625,0.09375 -1.265625,0.1054688 -0.082031,0.011719 -0.140625,0.070312 -0.140625,0.1992187 0,0.1171875 0.082031,0.1171875 0.234375,0.1171875 0.4804687,0 0.5039062,0.070312 0.5039062,0.1640625 l -0.035156,0.1992188 -0.5976563,2.3671875 c -0.1757812,-0.375 -0.46875,-0.6445313 -0.9140625,-0.6445313 -1.171875,0 -2.40234371,1.4648438 -2.40234371,2.9179688 0,0.93749995 0.55078125,1.59374995 1.32421871,1.59374995 0.1992188,0 0.703125,-0.03515625 1.3007813,-0.73828125 0.070312,0.41015625 0.421875,0.73828125 0.9023437,0.73828125 0.3515625,0 0.5742188,-0.22265625 0.7382813,-0.5390625 C 4.8268047,-0.7969375 4.9557109,-1.4063125 4.9557109,-1.42975 c 0,-0.09375 -0.082031,-0.09375 -0.1171875,-0.09375 -0.09375,0 -0.1054687,0.035156 -0.140625,0.1757813 -0.1640625,0.6445312 -0.3515625,1.24218745 -0.75,1.24218745 -0.2695312,0 -0.3046875,-0.2578125 -0.3046875,-0.45703125 0,-0.24609375 0.023437,-0.31640625 0.058594,-0.4804687 z m -2.0742187,5.625 c -0.046875,0.1757812 -0.046875,0.1992187 -0.1992188,0.3632812 -0.4453125,0.55078125 -0.84375,0.71484375 -1.125,0.71484375 -0.5039062,0 -0.6445312,-0.55078125 -0.6445312,-0.93749995 0,-0.5039063 0.328125,-1.7226563 0.5507812,-2.1796875 0.3046875,-0.5976563 0.7617188,-0.9609375 1.1601563,-0.9609375 0.6445312,0 0.7851562,0.8203125 0.7851562,0.8789062 0,0.058594 -0.023437,0.1171875 -0.035156,0.1640625 z m 0,0"
       style="fill:#ffffff;fill-opacity:1;fill-rule:nonzero;stroke:none"
       aria-label="d"
       transform="matrix(1.3333333,0,0,1.3333333,77.630667,62.781333)" />
    <path
       id="path18"
       d="M 24.51859,10.53323 2.44107,26.5733"
       style="fill:none;stroke:#ffffff;stroke-width:0.3985;stroke-linecap:butt;stroke-linejoin:miter;stroke-miterlimit:10;stroke-dasharray:none;stroke-opacity:1"
       transform="matrix(1.3333333,0,0,-1.3333333,45.105333,41.818667)" />
    <path
       id="path19"
       d="m 23.80653,22.91325 c 0,3.29537 -2.67135,5.96671 -5.96672,5.96671 -3.29536,0 -5.9667,-2.67134 -5.9667,-5.96671 0,-3.29536 2.67134,-5.96672 5.9667,-5.96672 3.29537,0 5.96672,2.67136 5.96672,5.96672 z"
       style="fill:#ffffff;fill-opacity:1;fill-rule:nonzero;stroke:#ffffff;stroke-width:0.3985;stroke-linecap:butt;stroke-linejoin:miter;stroke-miterlimit:10;stroke-dasharray:none;stroke-opacity:1"
       transform="matrix(1.3333333,0,0,-1.3333333,45.105333,41.818667)" />
    <path
       id="path20"
       d="m 1.8638672,-2.2961953 c 0.2929687,0 1.03125,-0.023437 1.5234375,-0.234375 0.703125,-0.2929688 0.75,-0.890625 0.75,-1.0195313 0,-0.4453125 -0.3867188,-0.8554687 -1.0664063,-0.8554687 -1.1132812,0 -2.61328121,0.9726562 -2.61328121,2.7070312 0,1.01953129 0.58593751,1.80468754 1.57031251,1.80468754 1.4179687,0 2.2617187,-1.0546875 2.2617187,-1.17187504 0,-0.058594 -0.070312,-0.1289062 -0.1289062,-0.1289062 -0.046875,0 -0.070312,0.023437 -0.1289063,0.09375 -0.7851562,0.99609374 -1.875,0.99609374 -1.9921875,0.99609374 -0.7734375,0 -0.8671875,-0.84375 -0.8671875,-1.16015624 0,-0.1171875 0.011719,-0.4335938 0.1640625,-1.03125 z m -0.46875,-0.2226563 c 0.3867187,-1.5117187 1.4179687,-1.6640625 1.6757812,-1.6640625 0.46875,0 0.7382813,0.2929688 0.7382813,0.6328125 0,1.03125 -1.59375,1.03125 -2.0039063,1.03125 z m 0,0"
       style="fill:#ffffff;fill-opacity:1;fill-rule:nonzero;stroke:none"
       aria-label="e"
       transform="matrix(1.3333333,0,0,1.3333333,65.8,14.128)" />
    <path
       id="path21"
       d="M -0.93236,25.47717 -15.72942,-20.06352"
       style="fill:none;stroke:#ffffff;stroke-width:0.3985;stroke-linecap:butt;stroke-linejoin:miter;stroke-miterlimit:10;stroke-dasharray:none;stroke-opacity:1"
       transform="matrix(1.3333333,0,0,-1.3333333,45.105333,41.818667)" />
    <path
       id="path22"
       d="m -8.53014,2.70683 c 0,4.47173 -3.62496,8.0967 -8.09669,8.0967 -4.47174,0 -8.0967,-3.62497 -8.0967,-8.0967 0,-4.47173 3.62496,-8.09668 8.0967,-8.09668 4.47173,0 8.09669,3.62495 8.09669,8.09668 z"
       style="fill:#ffffff;fill-opacity:1;fill-rule:nonzero;stroke:#ffffff;stroke-width:0.3985;stroke-linecap:butt;stroke-linejoin:miter;stroke-miterlimit:10;stroke-dasharray:none;stroke-opacity:1"
       transform="matrix(1.3333333,0,0,-1.3333333,45.105333,41.818667)" />
    <path
       id="path23"
       d="m 3.6548125,-3.9839375 h 0.8554687 c 0.1992188,0 0.3046875,0 0.3046875,-0.1992188 0,-0.1054687 -0.1054687,-0.1054687 -0.2695312,-0.1054687 H 3.7134063 L 3.9243438,-5.4253438 C 3.9595,-5.6362813 4.100125,-6.3394063 4.1587187,-6.4683125 c 0.09375,-0.1875 0.2578125,-0.3398438 0.46875,-0.3398438 0.046875,0 0.3046875,0 0.4921875,0.1875 -0.4335937,0.035156 -0.5390625,0.3867188 -0.5390625,0.5390625 0,0.2226563 0.1757813,0.3398438 0.3632813,0.3398438 0.2695312,0 0.5507812,-0.2109375 0.5507812,-0.5976563 0,-0.4570312 -0.4570312,-0.6796875 -0.8671875,-0.6796875 -0.3398437,0 -0.9609374,0.1757813 -1.2656249,1.1601563 C 3.30325,-5.648 3.2798125,-5.5425313 3.0337188,-4.288625 H 2.3540313 c -0.1992188,0 -0.3046875,0 -0.3046875,0.1875 0,0.1171875 0.09375,0.1171875 0.28125,0.1171875 h 0.65625 l -0.75,3.9375 c -0.1757813,0.9609375 -0.3398438,1.875 -0.8671875,1.875 -0.035156,0 -0.28125,0 -0.46875005,-0.1875 C 1.3579375,1.617625 1.4399688,1.2543437 1.4399688,1.102 c 0,-0.22265625 -0.1757813,-0.33984375 -0.3632813,-0.33984375 -0.2578125,0 -0.55078125,0.2109375 -0.55078125,0.59765625 0,0.4453125 0.43359375,0.6796875 0.84375005,0.6796875 0.5507812,0 0.9492187,-0.5859375 1.125,-0.9609375 0.328125,-0.6328125 0.5507812,-1.83984375 0.5625,-1.91015625 z m 0,0"
       style="fill:#ffffff;fill-opacity:1;fill-rule:nonzero;stroke:none"
       aria-label="f"
       transform="matrix(1.3333333,0,0,1.3333333,18.970667,41.530667)" />
    <path
       id="path24"
       d="M 0.93236,25.47717 15.72942,-20.06352"
       style="fill:none;stroke:#ffffff;stroke-width:0.3985;stroke-linecap:butt;stroke-linejoin:miter;stroke-miterlimit:10;stroke-dasharray:none;stroke-opacity:1"
       transform="matrix(1.3333333,0,0,-1.3333333,45.105333,41.818667)" />
    <path
       id="path25"
       d="m 22.21678,2.70683 c 0,3.7795 -3.06381,6.84333 -6.84332,6.84333 -3.7795,0 -6.84332,-3.06383 -6.84332,-6.84333 0,-3.77949 3.06382,-6.8433 6.84332,-6.8433 3.77951,0 6.84332,3.06381 6.84332,6.8433 z"
       style="fill:#ffffff;fill-opacity:1;fill-rule:nonzero;stroke:#ffffff;stroke-width:0.3985;stroke-linecap:butt;stroke-linejoin:miter;stroke-miterlimit:10;stroke-dasharray:none;stroke-opacity:1"
       transform="matrix(1.3333333,0,0,-1.3333333,45.105333,41.818667)" />
    <path
       id="path26"
       d="m 4.6889141,-3.7499922 c 0.011719,-0.070312 0.035156,-0.1171875 0.035156,-0.1875 0,-0.1640625 -0.1171875,-0.2695312 -0.2929687,-0.2695312 -0.09375,0 -0.3632813,0.070312 -0.4101563,0.4335937 -0.1757812,-0.375 -0.5273437,-0.6328125 -0.9257812,-0.6328125 -1.1367188,0 -2.36718754,1.3945313 -2.36718754,2.8359375 0,0.98437501 0.60937504,1.5703125125 1.32421874,1.5703125125 0.5859375,0 1.0546875,-0.4687500025 1.1601563,-0.5742187525 l 0.011719,0.0117188 c -0.2109375,0.87890625 -0.328125,1.2890625 -0.328125,1.3125 -0.046875,0.0820313 -0.3867187,1.07812504 -1.4414062,1.07812504 -0.1875,0 -0.51562504,-0.011719 -0.79687504,-0.1054687 0.3046875,-0.09375 0.41015624,-0.3515625 0.41015624,-0.515625 0,-0.1640625 -0.10546874,-0.35156259 -0.37499999,-0.35156259 -0.22265625,0 -0.5390625,0.17578129 -0.5390625,0.57421879 0,0.4101563 0.36328125,0.609375 1.32421879,0.609375 1.2421875,0 1.9570312,-0.7734375 2.109375,-1.37109379 z m -1.2890625,2.4726563 c -0.058594,0.2578125 -0.2929688,0.51562496 -0.5039063,0.70312496 -0.2109375,0.17578125 -0.5273437,0.3515625 -0.8085937,0.3515625 -0.5039063,0 -0.65625,-0.515625 -0.65625,-0.91406246 0,-0.4804688 0.2929687,-1.6523438 0.5625,-2.15625 0.2695312,-0.4921875 0.703125,-0.890625 1.1132812,-0.890625 0.65625,0 0.796875,0.8085937 0.796875,0.8554687 0,0.046875 -0.011719,0.1054688 -0.023437,0.1523438 z m 0,0"
       style="fill:#ffffff;fill-opacity:1;fill-rule:nonzero;stroke:none"
       aria-label="g"
       transform="matrix(1.3333333,0,0,1.3333333,62.197333,39.777333)" />
  </g>
</svg>
