<?xml version="1.0" encoding="UTF-8" standalone="no"?>
<!-- Created with Inkscape (http://www.inkscape.org/) -->

<svg
   version="1.1"
   id="svg1"
   width="340.05334"
   height="302.89334"
   viewBox="0 0 340.05334 302.89334"
   xmlns="http://www.w3.org/2000/svg"
   xmlns:svg="http://www.w3.org/2000/svg">
  <defs
     id="defs1" />
  <g
     id="g1">
    <path
       id="path1"
       d="m 0,-85.04042 12.27454,-7.0867 V -106.3005 L 0,-113.38722 l -12.27454,7.08672 v 14.17338 z"
       style="fill:none;stroke:#ffffff;stroke-width:0.3985;stroke-linecap:butt;stroke-linejoin:miter;stroke-miterlimit:10;stroke-dasharray:none;stroke-opacity:1"
       transform="matrix(1.3333333,0,0,-1.3333333,172.24,151.44667)" />
    <path
       id="path2"
       d="M 0,-85.04042 12.27454,-106.3005"
       style="fill:none;stroke:#ffffff;stroke-width:0.3985;stroke-linecap:butt;stroke-linejoin:miter;stroke-miterlimit:10;stroke-dasharray:none;stroke-opacity:1"
       transform="matrix(1.3333333,0,0,-1.3333333,172.24,151.44667)" />
    <path
       id="path3"
       d="M 12.27454,-106.3005 H -12.27454"
       style="fill:none;stroke:#ffffff;stroke-width:0.3985;stroke-linecap:butt;stroke-linejoin:miter;stroke-miterlimit:10;stroke-dasharray:none;stroke-opacity:1"
       transform="matrix(1.3333333,0,0,-1.3333333,172.24,151.44667)" />
    <path
       id="path4"
       d="M 0,-85.04042 -12.27454,-106.3005"
       style="fill:none;stroke:#ffffff;stroke-width:0.3985;stroke-linecap:butt;stroke-linejoin:miter;stroke-miterlimit:10;stroke-dasharray:none;stroke-opacity:1"
       transform="matrix(1.3333333,0,0,-1.3333333,172.24,151.44667)" />
    <path
       id="path5"
       d="m 2.9310937,-6.3742109 c 0,-0.234375 0,-0.2578125 -0.234375,-0.2578125 -0.609375,0.6328125 -1.4882812,0.6328125 -1.80468745,0.6328125 v 0.3164062 c 0.19921875,0 0.78515625,0 1.30078125,-0.2578125 v 5.15625001 c 0,0.3515625 -0.035156,0.48046875 -0.9257813,0.48046875 H 0.950625 V 7.890625e-4 C 1.3021875,-0.03436719 2.1576562,-0.03436719 2.5560937,-0.03436719 c 0.3984375,0 1.265625,0 1.6171875,0.0351562525 V -0.30389844 H 3.856875 c -0.9023438,0 -0.9257813,-0.1171875 -0.9257813,-0.48046875 z m 0,0"
       style="fill:#ffffff;fill-opacity:1;fill-rule:nonzero;stroke:none"
       aria-label="1"
       transform="matrix(1.3333333,0,0,1.3333333,168.92,288.01067)" />
    <path
       id="path6"
       d="m 0,-28.3468 12.27454,-7.0867 V -49.60689 L 0,-56.6936 l -12.27454,7.08671 v 14.17339 z"
       style="fill:none;stroke:#ffffff;stroke-width:0.3985;stroke-linecap:butt;stroke-linejoin:miter;stroke-miterlimit:10;stroke-dasharray:none;stroke-opacity:1"
       transform="matrix(1.3333333,0,0,-1.3333333,172.24,151.44667)" />
    <path
       id="path7"
       d="M 0,-28.3468 12.27454,-49.60689"
       style="fill:none;stroke:#ffffff;stroke-width:0.3985;stroke-linecap:butt;stroke-linejoin:miter;stroke-miterlimit:10;stroke-dasharray:none;stroke-opacity:1"
       transform="matrix(1.3333333,0,0,-1.3333333,172.24,151.44667)" />
    <path
       id="path8"
       d="M 0,-28.3468 V -56.6936"
       style="fill:none;stroke:#ffffff;stroke-width:0.3985;stroke-linecap:butt;stroke-linejoin:miter;stroke-miterlimit:10;stroke-dasharray:none;stroke-opacity:1"
       transform="matrix(1.3333333,0,0,-1.3333333,172.24,151.44667)" />
    <path
       id="path9"
       d="M 0,-28.3468 -12.27454,-49.60689"
       style="fill:none;stroke:#ffffff;stroke-width:0.3985;stroke-linecap:butt;stroke-linejoin:miter;stroke-miterlimit:10;stroke-dasharray:none;stroke-opacity:1"
       transform="matrix(1.3333333,0,0,-1.3333333,172.24,151.44667)" />
    <path
       id="path10"
       d="m 2.9310937,-1.6392187 v 0.86718745 c 0,0.3515625 -0.023437,0.46875 -0.7617187,0.46875 H 1.9584375 v 0.3046875 C 2.3685937,-0.03375 2.8959375,-0.03375 3.3060937,-0.03375 c 0.421875,0 0.9492188,0 1.359375,0.03515625 v -0.3046875 H 4.4545312 c -0.7382812,0 -0.7617187,-0.1171875 -0.7617187,-0.46875 V -1.6392187 H 4.6889062 V -1.955625 H 3.6928125 v -4.5234375 c 0,-0.1992187 0,-0.2578125 -0.1523438,-0.2578125 -0.09375,0 -0.1171875,0 -0.1992187,0.1171875 L 0.28265625,-1.955625 v 0.3164063 z M 2.9896875,-1.955625 H 0.56390625 L 2.9896875,-5.6704687 Z m 0,0"
       style="fill:#ffffff;fill-opacity:1;fill-rule:nonzero;stroke:none"
       aria-label="4"
       transform="matrix(1.3333333,0,0,1.3333333,168.92,212.42)" />
    <path
       id="path11"
       d="m -85.04042,-56.69362 12.27455,-7.0867 V -77.9537 l -12.27455,-7.0867 -12.27455,7.0867 v 14.17338 z"
       style="fill:none;stroke:#ffffff;stroke-width:0.3985;stroke-linecap:butt;stroke-linejoin:miter;stroke-miterlimit:10;stroke-dasharray:none;stroke-opacity:1"
       transform="matrix(1.3333333,0,0,-1.3333333,172.24,151.44667)" />
    <path
       id="path12"
       d="M -85.04042,-56.69362 -97.31497,-77.9537"
       style="fill:none;stroke:#ffffff;stroke-width:0.3985;stroke-linecap:butt;stroke-linejoin:miter;stroke-miterlimit:10;stroke-dasharray:none;stroke-opacity:1"
       transform="matrix(1.3333333,0,0,-1.3333333,172.24,151.44667)" />
    <path
       id="path13"
       d="M -72.76587,-63.78032 -97.31497,-77.9537"
       style="fill:none;stroke:#ffffff;stroke-width:0.3985;stroke-linecap:butt;stroke-linejoin:miter;stroke-miterlimit:10;stroke-dasharray:none;stroke-opacity:1"
       transform="matrix(1.3333333,0,0,-1.3333333,172.24,151.44667)" />
    <path
       id="path14"
       d="m -72.76587,-77.9537 h -24.5491"
       style="fill:none;stroke:#ffffff;stroke-width:0.3985;stroke-linecap:butt;stroke-linejoin:miter;stroke-miterlimit:10;stroke-dasharray:none;stroke-opacity:1"
       transform="matrix(1.3333333,0,0,-1.3333333,172.24,151.44667)" />
    <path
       id="path15"
       d="M 1.2669922,-0.76158594 2.3216797,-1.7928359 c 1.5585937,-1.3710938 2.15625,-1.9101563 2.15625,-2.90625 0,-1.1367188 -0.9023438,-1.9335938 -2.1210938,-1.9335938 -1.125,0 -1.85156246,0.9140625 -1.85156246,1.8046875 0,0.5507813 0.4921875,0.5507813 0.52734376,0.5507813 0.1640625,0 0.515625,-0.1171875 0.515625,-0.5273438 0,-0.2578125 -0.1875,-0.515625 -0.5273438,-0.515625 -0.0820312,0 -0.10546871,0 -0.12890621,0.011719 C 1.1146484,-5.952992 1.6537109,-6.327992 2.2279297,-6.327992 c 0.9140625,0 1.3359375,0.8085938 1.3359375,1.6289063 0,0.796875 -0.4921875,1.5820312 -1.0429688,2.203125 L 0.61074219,-0.36314844 C 0.50527344,-0.25767969 0.50527344,-0.23424219 0.50527344,1.328125e-4 H 4.1966797 L 4.4779297,-1.7342422 H 4.2201172 c -0.046875,0.3046875 -0.1171875,0.73828126 -0.2109375,0.89062501 -0.070312,0.0820313 -0.7265625,0.0820313 -0.9492188,0.0820313 z m 0,0"
       style="fill:#ffffff;fill-opacity:1;fill-rule:nonzero;stroke:none"
       aria-label="2"
       transform="matrix(1.3333333,0,0,1.3333333,55.533333,250.21467)" />
    <path
       id="path16"
       d="m 85.04042,-56.69362 12.27455,-7.0867 V -77.9537 l -12.27455,-7.0867 -12.27455,7.0867 v 14.17338 z"
       style="fill:none;stroke:#ffffff;stroke-width:0.3985;stroke-linecap:butt;stroke-linejoin:miter;stroke-miterlimit:10;stroke-dasharray:none;stroke-opacity:1"
       transform="matrix(1.3333333,0,0,-1.3333333,172.24,151.44667)" />
    <path
       id="path17"
       d="M 85.04042,-56.69362 97.31497,-77.9537"
       style="fill:none;stroke:#ffffff;stroke-width:0.3985;stroke-linecap:butt;stroke-linejoin:miter;stroke-miterlimit:10;stroke-dasharray:none;stroke-opacity:1"
       transform="matrix(1.3333333,0,0,-1.3333333,172.24,151.44667)" />
    <path
       id="path18"
       d="M 97.31497,-77.9537 H 72.76587"
       style="fill:none;stroke:#ffffff;stroke-width:0.3985;stroke-linecap:butt;stroke-linejoin:miter;stroke-miterlimit:10;stroke-dasharray:none;stroke-opacity:1"
       transform="matrix(1.3333333,0,0,-1.3333333,172.24,151.44667)" />
    <path
       id="path19"
       d="m 97.31497,-77.9537 -24.5491,14.17338"
       style="fill:none;stroke:#ffffff;stroke-width:0.3985;stroke-linecap:butt;stroke-linejoin:miter;stroke-miterlimit:10;stroke-dasharray:none;stroke-opacity:1"
       transform="matrix(1.3333333,0,0,-1.3333333,172.24,151.44667)" />
    <path
       id="path20"
       d="m 2.8940469,-3.5037734 c 0.8085937,-0.2695313 1.3945312,-0.9726563 1.3945312,-1.7578125 0,-0.8203125 -0.8789062,-1.3710938 -1.8398437,-1.3710938 -1.0078125,0 -1.75781253,0.5976563 -1.75781253,1.3476563 0,0.3398437 0.2109375,0.5273437 0.50390623,0.5273437 0.3046875,0 0.5039063,-0.2226562 0.5039063,-0.515625 0,-0.4921875 -0.46875,-0.4921875 -0.609375,-0.4921875 0.3046875,-0.4921875 0.9609375,-0.6210937 1.3242187,-0.6210937 0.4101563,0 0.9492188,0.2226562 0.9492188,1.1132812 0,0.1289063 -0.011719,0.703125 -0.2695313,1.1367188 -0.3046875,0.4804687 -0.6445312,0.515625 -0.890625,0.515625 -0.082031,0.011719 -0.3164062,0.035156 -0.3867187,0.035156 -0.082031,0.011719 -0.1523438,0.023437 -0.1523438,0.1171875 0,0.1171875 0.070312,0.1171875 0.234375,0.1171875 h 0.4453125 c 0.8085938,0 1.1835938,0.6679688 1.1835938,1.6523438 0,1.34765621 -0.6914063,1.64062496 -1.125,1.64062496 -0.4335938,0 -1.171875,-0.17578125 -1.52343753,-0.76171875 0.35156253,0.0585938 0.65625003,-0.1640625 0.65625003,-0.53906251 0,-0.3632812 -0.2695313,-0.5625 -0.56250003,-0.5625 -0.234375,0 -0.55078125,0.140625 -0.55078125,0.5742188 0,0.91406246 0.92578128,1.57031246 2.00390628,1.57031246 1.21875,0 2.1210937,-0.9140625 2.1210937,-1.92187496 0,-0.8203125 -0.6210937,-1.59375 -1.6523437,-1.8046873 z m 0,0"
       style="fill:#ffffff;fill-opacity:1;fill-rule:nonzero;stroke:none"
       aria-label="3"
       transform="matrix(1.3333333,0,0,1.3333333,282.30533,250.21467)" />
    <path
       id="path21"
       d="m -113.38724,21.26009 12.27455,-7.08672 V 0 L -113.38724,-7.0867 -125.66177,0 v 14.17337 z"
       style="fill:none;stroke:#ffffff;stroke-width:0.3985;stroke-linecap:butt;stroke-linejoin:miter;stroke-miterlimit:10;stroke-dasharray:none;stroke-opacity:1"
       transform="matrix(1.3333333,0,0,-1.3333333,172.24,151.44667)" />
    <path
       id="path22"
       d="M -113.38724,21.26009 -125.66177,0"
       style="fill:none;stroke:#ffffff;stroke-width:0.3985;stroke-linecap:butt;stroke-linejoin:miter;stroke-miterlimit:10;stroke-dasharray:none;stroke-opacity:1"
       transform="matrix(1.3333333,0,0,-1.3333333,172.24,151.44667)" />
    <path
       id="path23"
       d="M -101.11269,14.17337 -125.66177,0"
       style="fill:none;stroke:#ffffff;stroke-width:0.3985;stroke-linecap:butt;stroke-linejoin:miter;stroke-miterlimit:10;stroke-dasharray:none;stroke-opacity:1"
       transform="matrix(1.3333333,0,0,-1.3333333,172.24,151.44667)" />
    <path
       id="path24"
       d="M -101.11269,14.17337 -113.38724,-7.0867"
       style="fill:none;stroke:#ffffff;stroke-width:0.3985;stroke-linecap:butt;stroke-linejoin:miter;stroke-miterlimit:10;stroke-dasharray:none;stroke-opacity:1"
       transform="matrix(1.3333333,0,0,-1.3333333,172.24,151.44667)" />
    <path
       id="path25"
       d="m 4.4762734,-2.0048984 c 0,-1.1835938 -0.8203125,-2.1796875 -1.8984375,-2.1796875 -0.4804687,0 -0.9023437,0.1640625 -1.265625,0.5039062 v -1.9335937 c 0.1992188,0.058594 0.5273438,0.1289062 0.84375,0.1289062 1.2304688,0 1.9335938,-0.9140625 1.9335938,-1.0429687 0,-0.058594 -0.035156,-0.1054688 -0.1054688,-0.1054688 -0.011719,0 -0.035156,0 -0.082031,0.023437 -0.1992188,0.09375 -0.6796875,0.2929688 -1.3476563,0.2929688 -0.3984375,0 -0.8554687,-0.070312 -1.3242187,-0.28125 -0.082031,-0.023437 -0.1054688,-0.023437 -0.1289063,-0.023437 -0.09375,0 -0.09375,0.082031 -0.09375,0.234375 v 2.953125 c 0,0.1757812 0,0.2578125 0.140625,0.2578125 0.070312,0 0.082031,-0.035156 0.1289063,-0.09375 0.1054687,-0.1523438 0.4804687,-0.6914063 1.2773437,-0.6914063 0.5273438,0 0.7734375,0.4570313 0.8554688,0.6328125 0.1523437,0.375 0.1757812,0.7617188 0.1757812,1.2539063 0,0.3515625 0,0.9492187 -0.234375,1.37109371 -0.2460937,0.38671875 -0.609375,0.64453125 -1.0664062,0.64453125 -0.7265625,0 -1.30078126,-0.52734375 -1.46484376,-1.11328126 0.0234375,0.011719 0.0585938,0.011719 0.1640625,0.011719 0.32812496,0 0.50390626,-0.2460938 0.50390626,-0.4804688 0,-0.2460937 -0.1757813,-0.4921875 -0.50390626,-0.4921875 -0.140625,0 -0.48046875,0.070312 -0.48046875,0.5273438 0,0.85546871 0.67968751,1.82812496 1.79296871,1.82812496 1.1601563,0 2.1796875,-0.9609375 2.1796873,-2.22656266 z m 0,0"
       style="fill:#ffffff;fill-opacity:1;fill-rule:nonzero;stroke:none"
       aria-label="5"
       transform="matrix(1.3333333,0,0,1.3333333,17.738667,146.27867)" />
    <path
       id="path26"
       d="m 113.38724,21.26009 12.27453,-7.08672 V 0 L 113.38724,-7.0867 101.11269,0 v 14.17337 z"
       style="fill:none;stroke:#ffffff;stroke-width:0.3985;stroke-linecap:butt;stroke-linejoin:miter;stroke-miterlimit:10;stroke-dasharray:none;stroke-opacity:1"
       transform="matrix(1.3333333,0,0,-1.3333333,172.24,151.44667)" />
    <path
       id="path27"
       d="M 113.38724,21.26009 125.66177,0"
       style="fill:none;stroke:#ffffff;stroke-width:0.3985;stroke-linecap:butt;stroke-linejoin:miter;stroke-miterlimit:10;stroke-dasharray:none;stroke-opacity:1"
       transform="matrix(1.3333333,0,0,-1.3333333,172.24,151.44667)" />
    <path
       id="path28"
       d="M 125.66177,0 101.11269,14.17337"
       style="fill:none;stroke:#ffffff;stroke-width:0.3985;stroke-linecap:butt;stroke-linejoin:miter;stroke-miterlimit:10;stroke-dasharray:none;stroke-opacity:1"
       transform="matrix(1.3333333,0,0,-1.3333333,172.24,151.44667)" />
    <path
       id="path29"
       d="M 113.38724,-7.0867 101.11269,14.17337"
       style="fill:none;stroke:#ffffff;stroke-width:0.3985;stroke-linecap:butt;stroke-linejoin:miter;stroke-miterlimit:10;stroke-dasharray:none;stroke-opacity:1"
       transform="matrix(1.3333333,0,0,-1.3333333,172.24,151.44667)" />
    <path
       id="path30"
       d="m 2.930625,-6.3759922 c 0,-0.234375 0,-0.2578125 -0.234375,-0.2578125 -0.609375,0.6328125 -1.4882812,0.6328125 -1.8046875,0.6328125 v 0.3164063 c 0.1992188,0 0.7851563,0 1.3007813,-0.2578125 v 5.15624996 c 0,0.3515625 -0.035156,0.48046875 -0.9257813,0.48046875 H 0.95015625 V -9.921875e-4 C 1.3017188,-0.03614844 2.1571875,-0.03614844 2.555625,-0.03614844 c 0.3984375,0 1.265625,0 1.6171875,0.0351562525 V -0.30567969 H 3.8564063 c -0.9023438,0 -0.9257813,-0.1171875 -0.9257813,-0.48046875 z m 6.6328125,3.1875 c 0,-0.796875 -0.046875,-1.59375 -0.3984375,-2.3320312 -0.4570312,-0.9609375 -1.2773437,-1.1132813 -1.6875,-1.1132813 -0.5976562,0 -1.3359375,0.2578125 -1.734375,1.1835938 -0.328125,0.6914062 -0.375,1.4648437 -0.375,2.2617187 0,0.75 0.046875,1.640625 0.4453125,2.40234376 0.4335938,0.80859375 1.1601563,1.0078125 1.6523438,1.0078125 0.5390625,0 1.2890625,-0.2109375 1.734375,-1.16015625 C 9.5165625,-1.6298984 9.5634375,-2.4033359 9.5634375,-3.1884922 Z M 7.4657813,-9.921875e-4 c -0.3867188,0 -0.984375,-0.2460937525 -1.1601563,-1.2070312125 -0.1054687,-0.5976563 -0.1054687,-1.5117188 -0.1054687,-2.0976563 0,-0.6445312 0,-1.3007812 0.082031,-1.8398437 0.1875,-1.1835938 0.9257813,-1.265625 1.1835938,-1.265625 0.328125,0 0.984375,0.1757812 1.171875,1.1601562 0.09375,0.5625 0.09375,1.3125 0.09375,1.9453125 0,0.75 0,1.4179688 -0.1054688,2.0625 -0.1523437,0.93750001 -0.7148437,1.2421875125 -1.160156,1.2421875125 z m 0,0"
       style="fill:#ffffff;fill-opacity:1;fill-rule:nonzero;stroke:none"
       aria-label="10"
       transform="matrix(1.3333333,0,0,1.3333333,316.78,146.27867)" />
    <path
       id="path31"
       d="m -28.3468,14.17339 12.27455,-7.0867 V -7.08669 l -12.27455,-7.0867 -12.27455,7.0867 V 7.08669 Z"
       style="fill:none;stroke:#ffffff;stroke-width:0.3985;stroke-linecap:butt;stroke-linejoin:miter;stroke-miterlimit:10;stroke-dasharray:none;stroke-opacity:1"
       transform="matrix(1.3333333,0,0,-1.3333333,172.24,151.44667)" />
    <path
       id="path32"
       d="m -16.07225,7.08669 h -24.5491"
       style="fill:none;stroke:#ffffff;stroke-width:0.3985;stroke-linecap:butt;stroke-linejoin:miter;stroke-miterlimit:10;stroke-dasharray:none;stroke-opacity:1"
       transform="matrix(1.3333333,0,0,-1.3333333,172.24,151.44667)" />
    <path
       id="path33"
       d="M -16.07225,7.08669 -40.62135,-7.08669"
       style="fill:none;stroke:#ffffff;stroke-width:0.3985;stroke-linecap:butt;stroke-linejoin:miter;stroke-miterlimit:10;stroke-dasharray:none;stroke-opacity:1"
       transform="matrix(1.3333333,0,0,-1.3333333,172.24,151.44667)" />
    <path
       id="path34"
       d="m -16.07225,-7.08669 h -24.5491"
       style="fill:none;stroke:#ffffff;stroke-width:0.3985;stroke-linecap:butt;stroke-linejoin:miter;stroke-miterlimit:10;stroke-dasharray:none;stroke-opacity:1"
       transform="matrix(1.3333333,0,0,-1.3333333,172.24,151.44667)" />
    <path
       id="path35"
       d="m 4.7468437,-6.0703906 c 0.082031,-0.1171875 0.082031,-0.140625 0.082031,-0.3398438 H 2.4148125 c -1.21875,0 -1.2421875,-0.1289062 -1.2773438,-0.328125 H 0.891375 L 0.56325,-4.6875781 h 0.24609375 c 0.0234375,-0.1523438 0.1171875,-0.7851563 0.24609375,-0.9023438 0.070312,-0.058594 0.84375,-0.058594 0.9726562,-0.058594 h 2.0625 c -0.1054687,0.1640625 -0.890625,1.2421875 -1.1132812,1.5703125 -0.890625,1.3476562 -1.21875,2.7304687 -1.21875,3.74999997 0,0.09375 0,0.55078125 0.4570312,0.55078125 0.4570313,0 0.4570313,-0.45703125 0.4570313,-0.55078125 v -0.50390625 c 0,-0.55078122 0.023437,-1.10156252 0.1054687,-1.64062502 0.046875,-0.2226562 0.1757813,-1.078125 0.6210938,-1.6992187 z m 0,0"
       style="fill:#ffffff;fill-opacity:1;fill-rule:nonzero;stroke:none"
       aria-label="7"
       transform="matrix(1.3333333,0,0,1.3333333,131.124,155.72667)" />
    <path
       id="path36"
       d="M 28.3468,14.17339 40.62135,7.08669 V -7.08669 l -12.27455,-7.0867 -12.27455,7.0867 V 7.08669 Z"
       style="fill:none;stroke:#ffffff;stroke-width:0.3985;stroke-linecap:butt;stroke-linejoin:miter;stroke-miterlimit:10;stroke-dasharray:none;stroke-opacity:1"
       transform="matrix(1.3333333,0,0,-1.3333333,172.24,151.44667)" />
    <path
       id="path37"
       d="M 40.62135,7.08669 H 16.07225"
       style="fill:none;stroke:#ffffff;stroke-width:0.3985;stroke-linecap:butt;stroke-linejoin:miter;stroke-miterlimit:10;stroke-dasharray:none;stroke-opacity:1"
       transform="matrix(1.3333333,0,0,-1.3333333,172.24,151.44667)" />
    <path
       id="path38"
       d="M 40.62135,-7.08669 16.07225,7.08669"
       style="fill:none;stroke:#ffffff;stroke-width:0.3985;stroke-linecap:butt;stroke-linejoin:miter;stroke-miterlimit:10;stroke-dasharray:none;stroke-opacity:1"
       transform="matrix(1.3333333,0,0,-1.3333333,172.24,151.44667)" />
    <path
       id="path39"
       d="M 40.62135,-7.08669 H 16.07225"
       style="fill:none;stroke:#ffffff;stroke-width:0.3985;stroke-linecap:butt;stroke-linejoin:miter;stroke-miterlimit:10;stroke-dasharray:none;stroke-opacity:1"
       transform="matrix(1.3333333,0,0,-1.3333333,172.24,151.44667)" />
    <path
       id="path40"
       d="m 1.6290391,-4.5469531 c -0.46875,-0.3046875 -0.5039063,-0.6445313 -0.5039063,-0.8085938 0,-0.609375 0.6445313,-1.03125 1.359375,-1.03125 0.7265625,0 1.359375,0.515625 1.359375,1.2421875 0,0.5625 -0.3867187,1.0429688 -0.984375,1.3945313 z m 1.453125,0.9375 c 0.7148437,-0.3632813 1.2070312,-0.8789063 1.2070312,-1.5351563 0,-0.9257812 -0.890625,-1.4882812 -1.7929687,-1.4882812 -0.9960938,0 -1.80468754,0.7382812 -1.80468754,1.6640625 0,0.1757812 0.0117188,0.6210937 0.43359374,1.0898437 0.1054688,0.1289063 0.4804688,0.375 0.7265625,0.5390625 -0.5742187,0.2929688 -1.42968749,0.84375 -1.42968749,1.8398438 0,1.05468747 1.00781249,1.72265622 2.06249999,1.72265622 1.125,0 2.0625,-0.83203125 2.0625,-1.89843752 0,-0.3515625 -0.1054687,-0.8085937 -0.4804687,-1.21875 -0.1875,-0.2109375 -0.3515625,-0.3164062 -0.984375,-0.7148437 z m -0.9960938,0.421875 1.21875,0.7734375 c 0.28125,0.1875 0.75,0.4921875 0.75,1.1015625 0,0.73828122 -0.75,1.25390622 -1.5585937,1.25390622 -0.8671875,0 -1.58203129,-0.62109375 -1.58203129,-1.44140622 0,-0.5859375 0.31640629,-1.21875 1.17187499,-1.6875 z m 0,0"
       style="fill:#ffffff;fill-opacity:1;fill-rule:nonzero;stroke:none"
       aria-label="8"
       transform="matrix(1.3333333,0,0,1.3333333,206.71467,155.72667)" />
    <path
       id="path41"
       d="m -70.867,14.17339 12.27453,-7.0867 V -7.08669 l -12.27453,-7.0867 -12.27456,7.0867 V 7.08669 Z"
       style="fill:none;stroke:#ffffff;stroke-width:0.3985;stroke-linecap:butt;stroke-linejoin:miter;stroke-miterlimit:10;stroke-dasharray:none;stroke-opacity:1"
       transform="matrix(1.3333333,0,0,-1.3333333,172.24,151.44667)" />
    <path
       id="path42"
       d="M -70.867,14.17339 -83.14156,-7.08669"
       style="fill:none;stroke:#ffffff;stroke-width:0.3985;stroke-linecap:butt;stroke-linejoin:miter;stroke-miterlimit:10;stroke-dasharray:none;stroke-opacity:1"
       transform="matrix(1.3333333,0,0,-1.3333333,172.24,151.44667)" />
    <path
       id="path43"
       d="M -70.867,14.17339 V -14.17339"
       style="fill:none;stroke:#ffffff;stroke-width:0.3985;stroke-linecap:butt;stroke-linejoin:miter;stroke-miterlimit:10;stroke-dasharray:none;stroke-opacity:1"
       transform="matrix(1.3333333,0,0,-1.3333333,172.24,151.44667)" />
    <path
       id="path44"
       d="M -58.59247,7.08669 -70.867,-14.17339"
       style="fill:none;stroke:#ffffff;stroke-width:0.3985;stroke-linecap:butt;stroke-linejoin:miter;stroke-miterlimit:10;stroke-dasharray:none;stroke-opacity:1"
       transform="matrix(1.3333333,0,0,-1.3333333,172.24,151.44667)" />
    <path
       id="path45"
       d="m 1.3117656,-3.2696094 v -0.234375 c 0,-2.5195312 1.2421875,-2.8828125 1.7460938,-2.8828125 0.234375,0 0.65625,0.058594 0.8789062,0.3984375 -0.1523437,0 -0.5507812,0 -0.5507812,0.4453125 0,0.3164063 0.234375,0.4570313 0.4570312,0.4570313 0.1640625,0 0.4570313,-0.082031 0.4570313,-0.46875 0,-0.5976563 -0.4335938,-1.078125 -1.265625,-1.078125 -1.2773438,0 -2.61328128,1.2890625 -2.61328128,3.4804687 0,2.66015627 1.14843748,3.37500002 2.07421878,3.37500002 1.1132812,0 2.0507812,-0.9375 2.0507812,-2.25000002 0,-1.265625 -0.8789062,-2.2265625 -1.9921875,-2.2265625 -0.6679687,0 -1.0429687,0.5039063 -1.2421875,0.984375 z m 1.1835938,3.21093752 c -0.6210938,0 -0.9257813,-0.59765625 -0.984375,-0.75 C 1.3352031,-1.2774219 1.3352031,-2.0742969 1.3352031,-2.2500781 c 0,-0.7734375 0.3164063,-1.7695313 1.21875,-1.7695313 0.1523438,0 0.609375,0 0.9257813,0.609375 0.1757812,0.375 0.1757812,0.8789063 0.1757812,1.3710938 0,0.4804687 0,0.9726562 -0.1640625,1.33593747 -0.3046875,0.59765625 -0.7617187,0.64453125 -0.9960937,0.64453125 z m 0,0"
       style="fill:#ffffff;fill-opacity:1;fill-rule:nonzero;stroke:none"
       aria-label="6"
       transform="matrix(1.3333333,0,0,1.3333333,74.430667,155.72667)" />
    <path
       id="path46"
       d="M 70.867,14.17339 83.14156,7.08669 V -7.08669 L 70.867,-14.17339 58.59247,-7.08669 V 7.08669 Z"
       style="fill:none;stroke:#ffffff;stroke-width:0.3985;stroke-linecap:butt;stroke-linejoin:miter;stroke-miterlimit:10;stroke-dasharray:none;stroke-opacity:1"
       transform="matrix(1.3333333,0,0,-1.3333333,172.24,151.44667)" />
    <path
       id="path47"
       d="M 70.867,14.17339 83.14156,-7.08669"
       style="fill:none;stroke:#ffffff;stroke-width:0.3985;stroke-linecap:butt;stroke-linejoin:miter;stroke-miterlimit:10;stroke-dasharray:none;stroke-opacity:1"
       transform="matrix(1.3333333,0,0,-1.3333333,172.24,151.44667)" />
    <path
       id="path48"
       d="M 70.867,14.17339 V -14.17339"
       style="fill:none;stroke:#ffffff;stroke-width:0.3985;stroke-linecap:butt;stroke-linejoin:miter;stroke-miterlimit:10;stroke-dasharray:none;stroke-opacity:1"
       transform="matrix(1.3333333,0,0,-1.3333333,172.24,151.44667)" />
    <path
       id="path49"
       d="M 70.867,-14.17339 58.59247,7.08669"
       style="fill:none;stroke:#ffffff;stroke-width:0.3985;stroke-linecap:butt;stroke-linejoin:miter;stroke-miterlimit:10;stroke-dasharray:none;stroke-opacity:1"
       transform="matrix(1.3333333,0,0,-1.3333333,172.24,151.44667)" />
    <path
       id="path50"
       d="m 3.6549375,-3.1641406 v 0.3164062 c 0,2.33203127 -1.03125,2.78906252 -1.6171875,2.78906252 -0.1640625,0 -0.703125,-0.0234375 -0.9726563,-0.36328125 0.4335938,0 0.515625,-0.28125 0.515625,-0.45703125 0,-0.30468752 -0.234375,-0.45703122 -0.4570312,-0.45703122 -0.1640625,0 -0.45703125,0.09375 -0.45703125,0.48046872 0,0.66796875 0.53906245,1.078125 1.38281245,1.078125 1.2890625,0 2.4960938,-1.35937502 2.4960938,-3.50390622 0,-2.671875 -1.1367188,-3.3515625 -2.0273438,-3.3515625 -0.5507812,0 -1.03125,0.1757812 -1.4648437,0.6210937 -0.41015625,0.4570313 -0.6328125,0.8671875 -0.6328125,1.6171875 0,1.2421875 0.8789062,2.2265625 1.9921875,2.2265625 0.609375,0 1.0078125,-0.421875 1.2421875,-0.9960937 z m -1.2304688,0.7617187 c -0.1640625,0 -0.6210937,0 -0.9257812,-0.6210937 -0.1875,-0.375 -0.1875,-0.8671875 -0.1875,-1.359375 0,-0.5390625 0,-1.0078125 0.2109375,-1.3710938 0.2695312,-0.5039062 0.6445312,-0.6328125 0.9960937,-0.6328125 0.4570313,0 0.7851563,0.3398438 0.9609375,0.7851563 0.1171875,0.3164062 0.1523438,0.9492187 0.1523438,1.40625 0,0.8320312 -0.3398438,1.7929687 -1.2070313,1.7929687 z m 0,0"
       style="fill:#ffffff;fill-opacity:1;fill-rule:nonzero;stroke:none"
       aria-label="9"
       transform="matrix(1.3333333,0,0,1.3333333,263.408,155.72667)" />
    <path
       id="path51"
       d="m -85.04042,85.0404 12.27455,-7.0867 V 63.78032 l -12.27455,-7.0867 -12.27455,7.0867 V 77.9537 Z"
       style="fill:none;stroke:#ffffff;stroke-width:0.3985;stroke-linecap:butt;stroke-linejoin:miter;stroke-miterlimit:10;stroke-dasharray:none;stroke-opacity:1"
       transform="matrix(1.3333333,0,0,-1.3333333,172.24,151.44667)" />
    <path
       id="path52"
       d="M -85.04042,85.0404 -97.31497,63.78032"
       style="fill:none;stroke:#ffffff;stroke-width:0.3985;stroke-linecap:butt;stroke-linejoin:miter;stroke-miterlimit:10;stroke-dasharray:none;stroke-opacity:1"
       transform="matrix(1.3333333,0,0,-1.3333333,172.24,151.44667)" />
    <path
       id="path53"
       d="M -72.76587,77.9537 -97.31497,63.78032"
       style="fill:none;stroke:#ffffff;stroke-width:0.3985;stroke-linecap:butt;stroke-linejoin:miter;stroke-miterlimit:10;stroke-dasharray:none;stroke-opacity:1"
       transform="matrix(1.3333333,0,0,-1.3333333,172.24,151.44667)" />
    <path
       id="path54"
       d="m -72.76587,63.78032 h -24.5491"
       style="fill:none;stroke:#ffffff;stroke-width:0.3985;stroke-linecap:butt;stroke-linejoin:miter;stroke-miterlimit:10;stroke-dasharray:none;stroke-opacity:1"
       transform="matrix(1.3333333,0,0,-1.3333333,172.24,151.44667)" />
    <path
       id="path55"
       d="m 2.9308203,-6.3752891 c 0,-0.234375 0,-0.2578125 -0.234375,-0.2578125 -0.609375,0.6328125 -1.4882812,0.6328125 -1.80468749,0.6328125 v 0.3164063 c 0.19921879,0 0.78515629,0 1.30078129,-0.2578125 v 5.15624999 c 0,0.3515625 -0.035156,0.48046875 -0.9257813,0.48046875 H 0.95035156 V -2.890625e-4 C 1.3019141,-0.03544531 2.1573828,-0.03544531 2.5558203,-0.03544531 c 0.3984375,0 1.265625,0 1.6171875,0.0351562475 V -0.30497656 H 3.8566016 c -0.9023438,0 -0.9257813,-0.1171875 -0.9257813,-0.48046875 z m 3.3164063,5.61328129 1.0546875,-1.03124999 c 1.5585937,-1.3710938 2.15625,-1.9101563 2.15625,-2.90625 0,-1.1367188 -0.9023438,-1.9335938 -2.1210938,-1.9335938 -1.125,0 -1.8515625,0.9140625 -1.8515625,1.8046875 0,0.5507813 0.4921875,0.5507813 0.5273438,0.5507813 0.1640625,0 0.515625,-0.1171875 0.515625,-0.5273438 0,-0.2578125 -0.1875,-0.515625 -0.5273438,-0.515625 -0.082031,0 -0.1054687,0 -0.1289062,0.011719 0.2226562,-0.6445313 0.7617187,-1.0195313 1.3359375,-1.0195313 0.9140625,0 1.3359375,0.8085938 1.3359375,1.6289063 0,0.796875 -0.4921875,1.5820312 -1.0429688,2.203125 L 5.5909766,-0.36357031 C 5.4855078,-0.25810156 5.4855078,-0.23466406 5.4855078,-2.890625e-4 H 9.1769141 L 9.4581641,-1.7346641 H 9.2003516 c -0.046875,0.3046875 -0.1171875,0.73828129 -0.2109375,0.89062504 -0.070312,0.0820313 -0.7265625,0.0820313 -0.9492188,0.0820313 z m 0,0"
       style="fill:#ffffff;fill-opacity:1;fill-rule:nonzero;stroke:none"
       aria-label="12"
       transform="matrix(1.3333333,0,0,1.3333333,52.213333,61.238667)" />
    <path
       id="path56"
       d="M 85.04042,85.0404 97.31497,77.9537 V 63.78032 l -12.27455,-7.0867 -12.27455,7.0867 V 77.9537 Z"
       style="fill:none;stroke:#ffffff;stroke-width:0.3985;stroke-linecap:butt;stroke-linejoin:miter;stroke-miterlimit:10;stroke-dasharray:none;stroke-opacity:1"
       transform="matrix(1.3333333,0,0,-1.3333333,172.24,151.44667)" />
    <path
       id="path57"
       d="M 85.04042,85.0404 97.31497,63.78032"
       style="fill:none;stroke:#ffffff;stroke-width:0.3985;stroke-linecap:butt;stroke-linejoin:miter;stroke-miterlimit:10;stroke-dasharray:none;stroke-opacity:1"
       transform="matrix(1.3333333,0,0,-1.3333333,172.24,151.44667)" />
    <path
       id="path58"
       d="M 97.31497,63.78032 H 72.76587"
       style="fill:none;stroke:#ffffff;stroke-width:0.3985;stroke-linecap:butt;stroke-linejoin:miter;stroke-miterlimit:10;stroke-dasharray:none;stroke-opacity:1"
       transform="matrix(1.3333333,0,0,-1.3333333,172.24,151.44667)" />
    <path
       id="path59"
       d="M 97.31497,63.78032 72.76587,77.9537"
       style="fill:none;stroke:#ffffff;stroke-width:0.3985;stroke-linecap:butt;stroke-linejoin:miter;stroke-miterlimit:10;stroke-dasharray:none;stroke-opacity:1"
       transform="matrix(1.3333333,0,0,-1.3333333,172.24,151.44667)" />
    <path
       id="path60"
       d="m 2.9299688,-6.3752891 c 0,-0.234375 0,-0.2578125 -0.234375,-0.2578125 -0.609375,0.6328125 -1.4882813,0.6328125 -1.80468755,0.6328125 v 0.3164063 c 0.19921875,0 0.78515625,0 1.30078125,-0.2578125 v 5.15624999 c 0,0.3515625 -0.035156,0.48046875 -0.9257812,0.48046875 H 0.9495 V -2.890625e-4 C 1.3010625,-0.03544531 2.1565313,-0.03544531 2.5549688,-0.03544531 c 0.3984375,0 1.265625,0 1.6171875,0.0351562475 V -0.30497656 H 3.85575 c -0.9023437,0 -0.9257812,-0.1171875 -0.9257812,-0.48046875 z m 4.9453125,2.8710938 c 0.8085937,-0.2695313 1.3945312,-0.9726563 1.3945312,-1.7578125 0,-0.8203125 -0.8789062,-1.3710938 -1.8398437,-1.3710938 -1.0078125,0 -1.7578125,0.5976563 -1.7578125,1.3476563 0,0.3398437 0.2109375,0.5273437 0.5039062,0.5273437 0.3046875,0 0.5039063,-0.2226562 0.5039063,-0.515625 0,-0.4921875 -0.46875,-0.4921875 -0.609375,-0.4921875 0.3046875,-0.4921875 0.9609375,-0.6210937 1.3242187,-0.6210937 0.4101563,0 0.9492188,0.2226562 0.9492188,1.1132812 0,0.1289063 -0.011719,0.703125 -0.2695313,1.1367188 -0.3046875,0.4804687 -0.6445312,0.515625 -0.890625,0.515625 -0.082031,0.011719 -0.3164062,0.035156 -0.3867187,0.035156 -0.082031,0.011719 -0.1523438,0.023437 -0.1523438,0.1171875 0,0.1171875 0.070312,0.1171875 0.234375,0.1171875 H 7.3245 c 0.8085938,0 1.1835938,0.6679688 1.1835938,1.6523438 0,1.34765624 -0.6914063,1.64062499 -1.125,1.64062499 -0.4335938,0 -1.171875,-0.17578125 -1.5234375,-0.76171875 0.3515625,0.0585938 0.65625,-0.1640625 0.65625,-0.53906254 0,-0.3632812 -0.2695313,-0.5625 -0.5625,-0.5625 -0.234375,0 -0.5507813,0.140625 -0.5507813,0.5742188 0,0.91406249 0.9257813,1.57031249 2.0039063,1.57031249 1.21875,0 2.1210937,-0.9140625 2.1210937,-1.92187499 0,-0.8203125 -0.6210937,-1.59375 -1.6523437,-1.8046873 z m 0,0"
       style="fill:#ffffff;fill-opacity:1;fill-rule:nonzero;stroke:none"
       aria-label="13"
       transform="matrix(1.3333333,0,0,1.3333333,278.984,61.238667)" />
    <path
       id="path61"
       d="M 0,56.6936 12.27454,49.60689 V 35.4335 L 0,28.3468 -12.27454,35.4335 v 14.17339 z"
       style="fill:none;stroke:#ffffff;stroke-width:0.3985;stroke-linecap:butt;stroke-linejoin:miter;stroke-miterlimit:10;stroke-dasharray:none;stroke-opacity:1"
       transform="matrix(1.3333333,0,0,-1.3333333,172.24,151.44667)" />
    <path
       id="path62"
       d="M 0,56.6936 12.27454,35.4335"
       style="fill:none;stroke:#ffffff;stroke-width:0.3985;stroke-linecap:butt;stroke-linejoin:miter;stroke-miterlimit:10;stroke-dasharray:none;stroke-opacity:1"
       transform="matrix(1.3333333,0,0,-1.3333333,172.24,151.44667)" />
    <path
       id="path63"
       d="M 0,56.6936 V 28.3468"
       style="fill:none;stroke:#ffffff;stroke-width:0.3985;stroke-linecap:butt;stroke-linejoin:miter;stroke-miterlimit:10;stroke-dasharray:none;stroke-opacity:1"
       transform="matrix(1.3333333,0,0,-1.3333333,172.24,151.44667)" />
    <path
       id="path64"
       d="M 0,56.6936 -12.27454,35.4335"
       style="fill:none;stroke:#ffffff;stroke-width:0.3985;stroke-linecap:butt;stroke-linejoin:miter;stroke-miterlimit:10;stroke-dasharray:none;stroke-opacity:1"
       transform="matrix(1.3333333,0,0,-1.3333333,172.24,151.44667)" />
    <path
       id="path65"
       d="m 2.9289297,-6.3736328 c 0,-0.234375 0,-0.2578125 -0.234375,-0.2578125 -0.609375,0.6328125 -1.4882813,0.6328125 -1.80468751,0.6328125 v 0.3164062 c 0.19921871,0 0.78515621,0 1.30078121,-0.2578125 v 5.15625004 c 0,0.3515625 -0.035156,0.48046875 -0.9257812,0.48046875 H 0.94846094 v 0.3046875 C 1.3000234,-0.03378906 2.1554922,-0.03378906 2.5539297,-0.03378906 c 0.3984375,0 1.265625,0 1.6171875,0.03515625 v -0.3046875 H 3.8547109 c -0.9023437,0 -0.9257812,-0.1171875 -0.9257812,-0.48046875 z m 4.9833984,0 c 0,-0.234375 0,-0.2578125 -0.234375,-0.2578125 -0.609375,0.6328125 -1.4882812,0.6328125 -1.8046875,0.6328125 v 0.3164062 c 0.1992188,0 0.7851563,0 1.3007813,-0.2578125 v 5.15625004 c 0,0.3515625 -0.035156,0.48046875 -0.9257813,0.48046875 H 5.9318594 v 0.3046875 c 0.3515625,-0.03515625 1.2070312,-0.03515625 1.6054687,-0.03515625 0.3984375,0 1.265625,0 1.6171875,0.03515625 v -0.3046875 H 8.8381094 c -0.9023438,0 -0.9257813,-0.1171875 -0.9257813,-0.48046875 z m 0,0"
       style="fill:#ffffff;fill-opacity:1;fill-rule:nonzero;stroke:none"
       aria-label="11"
       transform="matrix(1.3333333,0,0,1.3333333,165.59867,99.033333)" />
    <path
       id="path66"
       d="M 0,113.38722 12.27454,106.3005 V 92.12712 L 0,85.04042 l -12.27454,7.0867 v 14.17338 z"
       style="fill:none;stroke:#ffffff;stroke-width:0.3985;stroke-linecap:butt;stroke-linejoin:miter;stroke-miterlimit:10;stroke-dasharray:none;stroke-opacity:1"
       transform="matrix(1.3333333,0,0,-1.3333333,172.24,151.44667)" />
    <path
       id="path67"
       d="M 0,113.38722 12.27454,92.12712"
       style="fill:none;stroke:#ffffff;stroke-width:0.3985;stroke-linecap:butt;stroke-linejoin:miter;stroke-miterlimit:10;stroke-dasharray:none;stroke-opacity:1"
       transform="matrix(1.3333333,0,0,-1.3333333,172.24,151.44667)" />
    <path
       id="path68"
       d="M 12.27454,92.12712 H -12.27454"
       style="fill:none;stroke:#ffffff;stroke-width:0.3985;stroke-linecap:butt;stroke-linejoin:miter;stroke-miterlimit:10;stroke-dasharray:none;stroke-opacity:1"
       transform="matrix(1.3333333,0,0,-1.3333333,172.24,151.44667)" />
    <path
       id="path69"
       d="M 0,113.38722 -12.27454,92.12712"
       style="fill:none;stroke:#ffffff;stroke-width:0.3985;stroke-linecap:butt;stroke-linejoin:miter;stroke-miterlimit:10;stroke-dasharray:none;stroke-opacity:1"
       transform="matrix(1.3333333,0,0,-1.3333333,172.24,151.44667)" />
    <path
       id="path70"
       d="m 2.9289297,-6.3740156 c 0,-0.234375 0,-0.2578125 -0.234375,-0.2578125 -0.609375,0.6328125 -1.4882813,0.6328125 -1.80468751,0.6328125 v 0.3164062 c 0.19921871,0 0.78515621,0 1.30078121,-0.2578125 v 5.15625002 c 0,0.3515625 -0.035156,0.48046875 -0.9257812,0.48046875 H 0.94846094 V 9.84375e-4 C 1.3000234,-0.03417188 2.1554922,-0.03417188 2.5539297,-0.03417188 c 0.3984375,0 1.265625,0 1.6171875,0.035156255 V -0.30370313 H 3.8547109 c -0.9023437,0 -0.9257812,-0.1171875 -0.9257812,-0.48046875 z m 4.9833984,4.734375 v 0.86718747 c 0,0.3515625 -0.023437,0.46875 -0.7617187,0.46875 H 6.9396719 V 9.84375e-4 c 0.4101562,-0.035156255 0.9375,-0.035156255 1.3476562,-0.035156255 0.421875,0 0.9492188,0 1.359375,0.035156255 V -0.30370313 H 9.4357656 c -0.7382812,0 -0.7617187,-0.1171875 -0.7617187,-0.46875 V -1.6396406 H 9.6701406 V -1.9560469 H 8.6740469 v -4.5234375 c 0,-0.1992187 0,-0.2578125 -0.1523438,-0.2578125 -0.09375,0 -0.1171875,0 -0.1992187,0.1171875 l -3.0585938,4.6640625 v 0.3164063 z m 0.058594,-0.3164063 H 5.5451406 l 2.4257813,-3.7148437 z m 0,0"
       style="fill:#ffffff;fill-opacity:1;fill-rule:nonzero;stroke:none"
       aria-label="14"
       transform="matrix(1.3333333,0,0,1.3333333,165.59867,23.444)" />
    <path
       id="path71"
       d="m 0,17.00826 v 0"
       style="fill:none;stroke:#ffffff;stroke-width:0.3985;stroke-linecap:butt;stroke-linejoin:miter;stroke-miterlimit:10;stroke-dasharray:none;stroke-opacity:1"
       transform="matrix(1.3333333,0,0,-1.3333333,172.24,151.44667)" />
  </g>
</svg>
