<?xml version="1.0" encoding="UTF-8" standalone="no"?>
<!-- Created with Inkscape (http://www.inkscape.org/) -->

<svg
   version="1.1"
   id="svg1"
   width="87.653336"
   height="86.053329"
   viewBox="0 0 87.653336 86.053329"
   xmlns="http://www.w3.org/2000/svg"
   xmlns:svg="http://www.w3.org/2000/svg">
  <defs
     id="defs1" />
  <g
     id="g1">
    <path
       id="path1"
       d="m 2.9316406,-6.3767188 c 0,-0.234375 0,-0.2578125 -0.234375,-0.2578125 -0.609375,0.6328125 -1.5,0.6328125 -1.80468747,0.6328125 v 0.3046875 c 0.18749997,0 0.77343747,0 1.31249997,-0.2578125 v 5.15625005 c 0,0.375 -0.046875,0.4921875 -0.9375,0.4921875 H 0.93945313 v 0.3046875 c 0.35156247,-0.0234375 1.21874997,-0.0234375 1.61718747,-0.0234375 0.3984375,0 1.265625,0 1.6171875,0.0234375 v -0.3046875 h -0.328125 c -0.890625,0 -0.9140625,-0.1171875 -0.9140625,-0.4921875 z m 0,0"
       style="fill:#ffffff;fill-opacity:1;fill-rule:nonzero;stroke:none"
       aria-label="1"
       transform="matrix(0.66666667,0,0,0.66666667,42.166667,6.4933333)" />
    <path
       id="path2"
       d="m 4.4788281,-1.9897031 c 0,-1.1953125 -0.8203125,-2.203125 -1.8984375,-2.203125 -0.46875,0 -0.9140625,0.1640625 -1.265625,0.515625 v -1.9453125 c 0.2109375,0.070312 0.5390625,0.140625 0.84375,0.140625 1.2421875,0 1.921875,-0.9140625 1.921875,-1.03125 0,-0.070312 -0.023437,-0.1171875 -0.09375,-0.1171875 0,0 -0.023437,0 -0.070312,0.023437 -0.2109375,0.09375 -0.703125,0.3046875 -1.359375,0.3046875 -0.3984375,0 -0.8671875,-0.070312 -1.3359375,-0.28125 -0.070312,-0.046875 -0.09375,-0.046875 -0.1171875,-0.046875 -0.09375,0 -0.09375,0.09375 -0.09375,0.2578125 v 2.9296875 c 0,0.1875 0,0.2578125 0.140625,0.2578125 0.070312,0 0.09375,-0.023437 0.1171875,-0.070312 0.1171875,-0.1640625 0.4921875,-0.703125 1.2890625,-0.703125 0.515625,0 0.7734375,0.4453125 0.84375,0.6328125 0.1640625,0.375 0.1875,0.75 0.1875,1.265625 0,0.328125 0,0.9375 -0.234375,1.35937497 -0.234375,0.375 -0.609375,0.6328125 -1.078125,0.6328125 -0.7265625,0 -1.28906247,-0.515625 -1.45312497,-1.10156247 0.0234375,0 0.046875,0.023437 0.1640625,0.023437 0.32812497,0 0.49218747,-0.2578125 0.49218747,-0.4921875 0,-0.234375 -0.1640625,-0.4921875 -0.49218747,-0.4921875 -0.140625,0 -0.4921875,0.070312 -0.4921875,0.5390625 0,0.84374997 0.70312497,1.80468747 1.80468747,1.80468747 1.1484375,0 2.1796875,-0.9375 2.179687,-2.20312447 z m 0,0"
       style="fill:#ffffff;fill-opacity:1;fill-rule:nonzero;stroke:none"
       aria-label="5"
       transform="matrix(0.66666667,0,0,0.66666667,2.2133333,37.096)" />
    <path
       id="path3"
       d="m 2.9316563,-1.6408594 v 0.86718752 c 0,0.3515625 -0.023437,0.46875 -0.75,0.46875 H 1.9707188 V -2.34375e-4 C 2.3691563,-0.02367188 2.8847813,-0.02367188 3.3066563,-0.02367188 c 0.421875,0 0.9375,0 1.359375,0.023437505 V -0.30492188 H 4.4550938 c -0.7265625,0 -0.75,-0.1171875 -0.75,-0.46875 V -1.6408594 h 0.984375 v -0.3046875 h -0.984375 v -4.546875 c 0,-0.1875 0,-0.2578125 -0.1640625,-0.2578125 -0.09375,0 -0.1171875,0 -0.2109375,0.1171875 l -3.04687505,4.6875 v 0.3046875 z m 0.070312,-0.3046875 H 0.56446875 L 3.0019688,-5.6721094 Z m 0,0"
       style="fill:#ffffff;fill-opacity:1;fill-rule:nonzero;stroke:none"
       aria-label="4"
       transform="matrix(0.66666667,0,0,0.66666667,15.944,83.84)" />
    <path
       id="path4"
       d="M 2.88475,-3.5158594 C 3.7050625,-3.7736719 4.291,-4.4767969 4.291,-5.2502344 c 0,-0.8203125 -0.890625,-1.3828125 -1.828125,-1.3828125 -1.0078125,0 -1.78125,0.5859375 -1.78125,1.359375 0,0.328125 0.234375,0.515625 0.515625,0.515625 0.3046875,0 0.515625,-0.234375 0.515625,-0.515625 0,-0.4921875 -0.46875,-0.4921875 -0.6328125,-0.4921875 0.328125,-0.4921875 0.984375,-0.609375 1.3359375,-0.609375 0.3984375,0 0.9609375,0.2109375 0.9609375,1.1015625 0,0.1171875 -0.023437,0.703125 -0.28125,1.1484375 -0.3046875,0.46875 -0.6328125,0.4921875 -0.890625,0.515625 -0.070312,0 -0.328125,0.023437 -0.3984375,0.023437 -0.070312,0 -0.140625,0.023437 -0.140625,0.1171875 0,0.1171875 0.070312,0.1171875 0.234375,0.1171875 h 0.4453125 c 0.8203125,0 1.171875,0.6796875 1.171875,1.640625 0,1.35937502 -0.6796875,1.64062502 -1.125,1.64062502 -0.421875,0 -1.171875,-0.1640625 -1.5234375,-0.75 0.3515625,0.046875 0.65625,-0.1640625 0.65625,-0.53906252 0,-0.375 -0.2578125,-0.5625 -0.5390625,-0.5625 -0.2578125,0 -0.5625,0.140625 -0.5625,0.5859375 0,0.89062502 0.9140625,1.54687502 2.015625,1.54687502 1.21875,0 2.109375,-0.890625 2.109375,-1.92187502 0,-0.8203125 -0.6328125,-1.59375 -1.6640625,-1.804687 z m 0,0"
       style="fill:#ffffff;fill-opacity:1;fill-rule:nonzero;stroke:none"
       aria-label="3"
       transform="matrix(0.66666667,0,0,0.66666667,68.389333,83.84)" />
    <path
       id="path5"
       d="M 1.2634063,-0.77095313 2.3180938,-1.8022031 c 1.546875,-1.359375 2.15625,-1.8984375 2.15625,-2.90625 0,-1.125 -0.890625,-1.921875 -2.109375,-1.921875 -1.125,0 -1.87500005,0.9140625 -1.87500005,1.8046875 0,0.5625 0.51562505,0.5625 0.53906255,0.5625 0.1640625,0 0.515625,-0.1171875 0.515625,-0.5390625 0,-0.2578125 -0.1875,-0.515625 -0.5390625,-0.515625 -0.0703126,0 -0.0937501,0 -0.11718755,0 0.23437505,-0.6328125 0.77343755,-1.0078125 1.33593755,-1.0078125 0.9140625,0 1.3359375,0.8203125 1.3359375,1.6171875 0,0.796875 -0.4921875,1.59375 -1.03125,2.203125 l -1.92187505,2.13281247 c -0.1171875,0.1171875 -0.1171875,0.140625 -0.1171875,0.375 H 4.1930938 l 0.28125,-1.73437497 H 4.2165313 c -0.046875,0.3046875 -0.1171875,0.7265625 -0.2109375,0.89062497 -0.070312,0.0703125 -0.7265625,0.0703125 -0.9609375,0.0703125 z m 0,0"
       style="fill:#ffffff;fill-opacity:1;fill-rule:nonzero;stroke:none"
       aria-label="2"
       transform="matrix(0.66666667,0,0,0.66666667,82.118667,37.096)" />
    <path
       id="path6"
       d="M 0,28.3468 26.95966,8.75974 16.66179,-22.93315 H -16.66179 L -26.95966,8.75974 Z"
       style="fill:none;stroke:#ffffff;stroke-width:0.3985;stroke-linecap:butt;stroke-linejoin:miter;stroke-miterlimit:10;stroke-dasharray:none;stroke-opacity:1"
       transform="matrix(1.3333333,0,0,-1.3333333,43.826667,46.636)" />
    <path
       id="path7"
       d="M 0,28.3468 16.66179,-22.93315"
       style="fill:none;stroke:#ffffff;stroke-width:0.3985;stroke-linecap:butt;stroke-linejoin:miter;stroke-miterlimit:10;stroke-dasharray:none;stroke-opacity:1"
       transform="matrix(1.3333333,0,0,-1.3333333,43.826667,46.636)" />
    <g
       id="g7"
       aria-label="∆&#10;13"
       transform="matrix(0.66666667,0,0,0.66666667,55.732,41.233333)">
      <path
         id="path8"
         d="m 4.4039531,-6.959375 c -0.070312,-0.1171875 -0.09375,-0.1640625 -0.2578125,-0.1640625 -0.1640625,0 -0.1875,0.046875 -0.2578125,0.1640625 l -3.37499997,6.75 c -0.046875,0.09375 -0.046875,0.1171875 -0.046875,0.140625 0,0.0703125 0.0703125,0.0703125 0.2109375,0.0703125 H 7.5914531 c 0.1640625,0 0.234375,0 0.234375,-0.0703125 0,-0.0234375 0,-0.046875 -0.046875,-0.140625 z m -0.5859375,0.8203125 2.6953125,5.390625 h -5.390625 z m 0,0"
         style="fill:#ffffff;fill-opacity:1;fill-rule:nonzero;stroke:none" />
      <path
         id="path9"
         d="m 10.644188,-2.9574219 c 0,-0.1875 -0.02344,-0.1875 -0.210938,-0.1875 -0.4453125,0.4453125 -1.078125,0.4453125 -1.3828125,0.4453125 v 0.2578125 c 0.1875,0 0.6328125,0 1.0312505,-0.1875 v 3.56250002 c 0,0.21093748 0,0.30468748 -0.7031255,0.30468748 H 9.12075 v 0.2578125 c 0.1171875,0 0.984375,-0.023437 1.242188,-0.023437 0.210937,0 1.078125,0.023437 1.242187,0.023437 V 1.2378906 h -0.257812 c -0.703125,0 -0.703125,-0.09375 -0.703125,-0.30468748 z m 3.527343,2.10937502 c 0.5625,0 0.9375,0.3984375 0.9375,1.125 0,0.86718748 -0.492187,1.12499998 -0.890625,1.12499998 -0.28125,0 -0.914062,-0.070312 -1.195312,-0.46874998 0.328125,-0.0234375 0.398437,-0.2578125 0.398437,-0.3984375 0,-0.234375 -0.164062,-0.3984375 -0.375,-0.3984375 -0.210937,0 -0.398437,0.140625 -0.398437,0.421875 0,0.65624998 0.726562,1.07812498 1.570312,1.07812498 0.984375,0 1.640625,-0.65624998 1.640625,-1.35937498 0,-0.5390625 -0.445312,-1.078125 -1.21875,-1.2421875 0.75,-0.25781252 1.007813,-0.79687502 1.007813,-1.21875002 0,-0.5390625 -0.632813,-0.9609375 -1.40625,-0.9609375 -0.773438,0 -1.382813,0.375 -1.382813,0.9375 0,0.234375 0.164063,0.375 0.375,0.375 0.210938,0 0.351563,-0.1640625 0.351563,-0.3515625 0,-0.2109375 -0.140625,-0.3515625 -0.351563,-0.375 0.234375,-0.3046875 0.726563,-0.375 0.984375,-0.375 0.304688,0 0.75,0.140625 0.75,0.75 0,0.3046875 -0.09375,0.609375 -0.28125,0.84375 -0.234375,0.2578125 -0.421875,0.28125 -0.773437,0.3046875 -0.164063,0 -0.1875,0 -0.234375,0 0,0 -0.04687,0.023437 -0.04687,0.09375 0,0.09375 0.04687,0.09375 0.164062,0.09375 z m 0,0"
         style="fill:#ffffff;fill-opacity:1;fill-rule:nonzero;stroke:none" />
    </g>
    <path
       id="path10"
       d="M 0,28.3468 -16.66179,-22.93315"
       style="fill:none;stroke:#ffffff;stroke-width:0.3985;stroke-linecap:butt;stroke-linejoin:miter;stroke-miterlimit:10;stroke-dasharray:none;stroke-opacity:1"
       transform="matrix(1.3333333,0,0,-1.3333333,43.826667,46.636)" />
    <g
       id="g10"
       aria-label="∆&#10;14"
       transform="matrix(0.66666667,0,0,0.66666667,20.76,41.233333)">
      <path
         id="path11"
         d="m 4.4088281,-6.959375 c -0.070312,-0.1171875 -0.09375,-0.1640625 -0.2578125,-0.1640625 -0.1640625,0 -0.1875,0.046875 -0.2578125,0.1640625 l -3.37499997,6.75 c -0.046875,0.09375 -0.046875,0.1171875 -0.046875,0.140625 0,0.0703125 0.0703125,0.0703125 0.2109375,0.0703125 H 7.5963281 c 0.1640625,0 0.234375,0 0.234375,-0.0703125 0,-0.0234375 0,-0.046875 -0.046875,-0.140625 z m -0.5859375,0.8203125 2.6953125,5.390625 h -5.390625 z m 0,0"
         style="fill:#ffffff;fill-opacity:1;fill-rule:nonzero;stroke:none" />
      <path
         id="path12"
         d="m 10.643203,-2.9574219 c 0,-0.1875 -0.02344,-0.1875 -0.210937,-0.1875 -0.4453129,0.4453125 -1.0781254,0.4453125 -1.3828129,0.4453125 v 0.2578125 c 0.1875,0 0.6328125,0 1.0312499,-0.1875 v 3.56250002 c 0,0.21093748 0,0.30468748 -0.7031249,0.30468748 H 9.1197656 v 0.2578125 c 0.1171875,0 0.9843754,-0.023437 1.2421874,-0.023437 0.210938,0 1.078125,0.023437 1.242188,0.023437 V 1.2378906 h -0.257813 c -0.703125,0 -0.703125,-0.09375 -0.703125,-0.30468748 z m 5.332031,3.30468752 V 0.08945312 H 15.201797 V -3.0277344 c 0,-0.140625 0,-0.1875 -0.164063,-0.1875 -0.09375,0 -0.117187,0 -0.1875,0.09375 l -2.296875,3.21093752 v 0.2578125 h 2.039063 v 0.5859375 c 0,0.23437498 0,0.30468748 -0.5625,0.30468748 h -0.1875 v 0.2578125 c 0.351562,-0.023437 0.796875,-0.023437 1.054687,-0.023437 0.257813,0 0.703125,0 1.054688,0.023437 V 1.2378906 h -0.1875 c -0.5625,0 -0.5625,-0.070312 -0.5625,-0.30468748 V 0.34726562 Z M 14.639297,-2.4652344 v 2.55468752 h -1.828125 z m 0,0"
         style="fill:#ffffff;fill-opacity:1;fill-rule:nonzero;stroke:none" />
    </g>
    <path
       id="path13"
       d="M 0,28.3468 -16.66179,-22.93315"
       style="fill:none;stroke:#ffffff;stroke-width:0.3985;stroke-linecap:butt;stroke-linejoin:miter;stroke-miterlimit:10;stroke-dasharray:none;stroke-opacity:1"
       transform="matrix(1.3333333,0,0,-1.3333333,43.826667,46.636)" />
    <path
       id="path14"
       d="M 0,28.3468 26.95966,8.75974"
       style="fill:none;stroke:#ffffff;stroke-width:0.3985;stroke-linecap:butt;stroke-linejoin:miter;stroke-miterlimit:10;stroke-dasharray:none;stroke-opacity:1"
       transform="matrix(1.3333333,0,0,-1.3333333,43.826667,46.636)" />
    <g
       id="g14"
       aria-label="∆&#10;12"
       transform="matrix(0.66666667,0,0,0.66666667,56.218667,23.669333)">
      <path
         id="path15"
         d="m 4.406375,-6.9629844 c -0.070312,-0.1171875 -0.09375,-0.1640625 -0.2578125,-0.1640625 -0.1640625,0 -0.1875,0.046875 -0.2578125,0.1640625 l -3.375,6.75000002 c -0.046875,0.09375 -0.046875,0.1171875 -0.046875,0.140625 0,0.0703125 0.0703125,0.0703125 0.2109375,0.0703125 H 7.593875 c 0.1640625,0 0.234375,0 0.234375,-0.0703125 0,-0.0234375 0,-0.046875 -0.046875,-0.140625 z M 3.8204375,-6.1426719 6.51575,-0.75204688 H 1.125125 Z m 0,0"
         style="fill:#ffffff;fill-opacity:1;fill-rule:nonzero;stroke:none" />
      <path
         id="path16"
         d="m 10.646609,-2.9610313 c 0,-0.1875 -0.02344,-0.1875 -0.210937,-0.1875 -0.4453126,0.4453125 -1.0781251,0.4453125 -1.3828126,0.4453125 v 0.2578125 c 0.1875,0 0.6328125,0 1.0312496,-0.1875 v 3.56250005 c 0,0.21093745 0,0.30468745 -0.7031246,0.30468745 H 9.1231719 v 0.2578125 c 0.1171875,0 0.9843751,-0.023437 1.2421871,-0.023437 0.210938,0 1.078125,0.023437 1.242188,0.023437 V 1.2342812 h -0.257813 c -0.703125,0 -0.703125,-0.09375 -0.703125,-0.30468745 z m 5.144532,3.18750005 h -0.234375 c -0.02344,0.140625 -0.09375,0.5625 -0.164063,0.6328125 -0.07031,0.046875 -0.609375,0.046875 -0.703125,0.046875 h -1.289062 c 0.75,-0.65625 0.984375,-0.84375 1.40625,-1.171875 0.515625,-0.421875 0.984375,-0.84375005 0.984375,-1.52343755 0,-0.84375 -0.726563,-1.359375 -1.617188,-1.359375 -0.867187,0 -1.453125,0.609375 -1.453125,1.2421875 0,0.375 0.304688,0.3984375 0.375,0.3984375 0.164063,0 0.351563,-0.1171875 0.351563,-0.375 0,-0.1171875 -0.04687,-0.3515625 -0.398438,-0.3515625 0.210938,-0.515625 0.679688,-0.65625 1.007813,-0.65625 0.703125,0 1.078125,0.5390625 1.078125,1.1015625 0,0.609375 -0.445313,1.10156255 -0.65625,1.33593755 l -1.6875,1.66406245 c -0.07031,0.070312 -0.07031,0.09375 -0.07031,0.28125 h 2.882813 z m 0,0"
         style="fill:#ffffff;fill-opacity:1;fill-rule:nonzero;stroke:none" />
    </g>
    <path
       id="path17"
       d="M 26.95966,8.75974 16.66179,-22.93315"
       style="fill:none;stroke:#ffffff;stroke-width:0.3985;stroke-linecap:butt;stroke-linejoin:miter;stroke-miterlimit:10;stroke-dasharray:none;stroke-opacity:1"
       transform="matrix(1.3333333,0,0,-1.3333333,43.826667,46.636)" />
    <path
       id="path18"
       d="m 1.7350781,-4.289125 v -1.1484375 c 0,-0.890625 0.4921875,-1.359375 0.9140625,-1.359375 0.046875,0 0.1875,0 0.3515625,0.070312 -0.140625,0.023437 -0.3046875,0.1640625 -0.3046875,0.421875 0,0.2109375 0.1640625,0.421875 0.421875,0.421875 0.28125,0 0.4453125,-0.2109375 0.4453125,-0.4453125 0,-0.375 -0.375,-0.703125 -0.9140625,-0.703125 -0.6796875,0 -1.5234375,0.5390625 -1.5234375,1.59375 v 1.148438 H 0.32882813 v 0.3046875 H 1.1257031 v 3.234375 c 0,0.4453125 -0.1171875,0.4453125 -0.79687497,0.4453125 V -6.25e-5 c 0.3984375,0 0.86718747,-0.0234375 1.14843747,-0.0234375 0.3984375,0 0.8671875,0 1.265625,0.0234375 V -0.30475 H 2.5319531 c -0.7265625,0 -0.75,-0.1171875 -0.75,-0.46875 v -3.2109375 h 1.125 V -4.289125 Z m 5.9941407,2.15625 c 0,-1.265625 -0.984375,-2.3203125 -2.203125,-2.3203125 -1.2421875,0 -2.203125,1.078125 -2.203125,2.3203125 0,1.2890625 1.03125,2.25 2.203125,2.25 1.1953125,0 2.203125,-0.984375 2.203125,-2.25 z m -2.203125,1.9921875 c -0.421875,0 -0.8671875,-0.2109375 -1.125,-0.65625 -0.2578125,-0.4453125 -0.2578125,-1.0546875 -0.2578125,-1.40625 0,-0.3984375 0,-0.9375 0.234375,-1.3828125 0.28125,-0.4453125 0.75,-0.65625 1.1484375,-0.65625 0.4453125,0 0.8671875,0.2109375 1.125,0.65625 0.2578125,0.421875 0.2578125,0.984375 0.2578125,1.3828125 0,0.3515625 0,0.890625 -0.2109375,1.3359375 -0.234375,0.4453125 -0.65625,0.7265625 -1.171875,0.7265625 z M 12.990938,-2.132875 c 0,-1.265625 -0.984375,-2.3203125 -2.203125,-2.3203125 -1.242188,0 -2.2031255,1.078125 -2.2031255,2.3203125 0,1.2890625 1.03125,2.25 2.2031255,2.25 1.195312,0 2.203125,-0.984375 2.203125,-2.25 z m -2.203125,1.9921875 c -0.421875,0 -0.867188,-0.2109375 -1.1250005,-0.65625 C 9.405,-1.24225 9.405,-1.851625 9.405,-2.2031875 c 0,-0.3984375 0,-0.9375 0.234375,-1.3828125 0.28125,-0.4453125 0.75,-0.65625 1.148438,-0.65625 0.445312,0 0.867187,0.2109375 1.125,0.65625 0.257812,0.421875 0.257812,0.984375 0.257812,1.3828125 0,0.3515625 0,0.890625 -0.210937,1.3359375 -0.234375,0.4453125 -0.65625,0.7265625 -1.171875,0.7265625 z m 0,0"
       style="fill:#ffffff;fill-opacity:1;fill-rule:nonzero;stroke:none"
       aria-label="foo"
       transform="matrix(0.66666667,0,0,0.66666667,68.48,58.390667)" />
    <path
       id="path19"
       d="M 16.66179,-22.93315 H -16.66179"
       style="fill:none;stroke:#ffffff;stroke-width:0.3985;stroke-linecap:butt;stroke-linejoin:miter;stroke-miterlimit:10;stroke-dasharray:none;stroke-opacity:1"
       transform="matrix(1.3333333,0,0,-1.3333333,43.826667,46.636)" />
    <path
       id="path20"
       d="m 1.7082344,-3.7487031 v -3.1640625 l -1.42968752,0.1171875 v 0.3046875 c 0.703125,0 0.77343752,0.070312 0.77343752,0.5625 v 5.92968747 h 0.2578125 c 0,0 0.09375,-0.140625 0.3515625,-0.609375 0.140625,0.2109375 0.5625,0.7265625 1.3125,0.7265625 1.171875,0 2.203125,-0.984375 2.203125,-2.27343747 0,-1.265625 -0.9609375,-2.25 -2.109375,-2.25 -0.7734375,0 -1.1953125,0.46875 -1.359375,0.65625 z m 0.023437,2.625 v -2.0625 c 0,-0.1875 0,-0.2109375 0.1171875,-0.3515625 0.3984375,-0.5625 0.9375,-0.65625 1.171875,-0.65625 0.4453125,0 0.8203125,0.28125 1.0546875,0.65625 0.2578125,0.3984375 0.28125,0.9609375 0.28125,1.3828125 0,0.3515625 -0.023437,0.9609375 -0.3046875,1.40624997 -0.2109375,0.3046875 -0.5859375,0.6328125 -1.125,0.6328125 -0.4453125,0 -0.796875,-0.234375 -1.0546875,-0.609375 -0.140625,-0.2109375 -0.140625,-0.234375 -0.140625,-0.39843747 z m 7.1308594,0.37499997 c 0.023437,0.3984375 0.3046875,0.8203125 0.7734375,0.8203125 0.2109375,0 0.8203127,-0.140625 0.8203127,-0.9609375 V -1.4518281 h -0.257812 v 0.56249997 c 0,0.5859375 -0.2578132,0.6328125 -0.3515632,0.6328125 -0.328125,0 -0.375,-0.4453125 -0.375,-0.4921875 V -2.7408906 c 0,-0.421875 0,-0.796875 -0.3515625,-1.171875 -0.3984375,-0.3984375 -0.890625,-0.5390625 -1.3828125,-0.5390625 -0.796875,0 -1.5,0.46875 -1.5,1.125 0,0.28125 0.2109375,0.46875 0.46875,0.46875 0.28125,0 0.4453125,-0.2109375 0.4453125,-0.46875 0,-0.1171875 -0.046875,-0.4453125 -0.4921875,-0.46875 0.2578125,-0.328125 0.75,-0.4453125 1.078125,-0.4453125 0.46875,0 1.0546875,0.3984375 1.0546875,1.265625 v 0.375 c -0.515625,0.023437 -1.21875,0.070312 -1.8515625,0.3515625 -0.75,0.3515625 -0.984375,0.8671875 -0.984375,1.31249997 0,0.796875 0.9609375,1.0546875 1.59375,1.0546875 0.65625,0 1.1015625,-0.3984375 1.3125,-0.8671875 z M 8.7922188,-2.3893281 v 0.984375 c 0,0.96093747 -0.7265625,1.28906247 -1.171875,1.28906247 -0.4921875,0 -0.890625,-0.3515625 -0.890625,-0.84375 0,-0.53906247 0.3984375,-1.35937497 2.0625,-1.42968747 z m 3.3867192,-0.9140625 v -1.1015625 l -1.382813,0.1171875 v 0.3046875 c 0.703125,0 0.773438,0.070312 0.773438,0.5625 v 2.67187497 c 0,0.4453125 -0.117188,0.4453125 -0.773438,0.4453125 v 0.3046875 c 0.375,0 0.84375,-0.0234375 1.125,-0.0234375 0.398438,0 0.867188,0 1.265625,0.0234375 v -0.3046875 h -0.210937 c -0.726563,0 -0.75,-0.1171875 -0.75,-0.46875 V -2.3190156 c 0,-0.984375 0.421875,-1.875 1.171875,-1.875 0.07031,0 0.09375,0 0.117187,0.023437 -0.02344,0 -0.234375,0.1171875 -0.234375,0.375 0,0.28125 0.210938,0.4453125 0.421875,0.4453125 0.1875,0 0.445313,-0.1171875 0.445313,-0.4453125 0,-0.328125 -0.304688,-0.609375 -0.75,-0.609375 -0.726563,0 -1.078125,0.6796875 -1.21875,1.101563 z m 0,0"
       style="fill:#ffffff;fill-opacity:1;fill-rule:nonzero;stroke:none"
       aria-label="bar"
       transform="matrix(0.66666667,0,0,0.66666667,39.021333,79.518667)" />
    <path
       id="path21"
       d="M -16.66179,-22.93315 -26.95966,8.75974"
       style="fill:none;stroke:#ffffff;stroke-width:0.3985;stroke-linecap:butt;stroke-linejoin:miter;stroke-miterlimit:10;stroke-dasharray:none;stroke-opacity:1"
       transform="matrix(1.3333333,0,0,-1.3333333,43.826667,46.636)" />
    <path
       id="path22"
       d="M 1.711375,-3.7500625 V -6.914125 L 0.2816875,-6.7969375 V -6.49225 c 0.703125,0 0.7734375,0.070312 0.7734375,0.5625 V -6.25e-5 h 0.2578125 c 0,0 0.09375,-0.140625 0.3515625,-0.609375 C 1.805125,-0.3985 2.227,0.117125 2.977,0.117125 c 1.171875,0 2.203125,-0.984375 2.203125,-2.2734375 0,-1.265625 -0.9609375,-2.25 -2.109375,-2.25 -0.7734375,0 -1.1953125,0.46875 -1.359375,0.65625 z m 0.023437,2.625 v -2.0625 c 0,-0.1875 0,-0.2109375 0.1171875,-0.3515625 0.3984375,-0.5625 0.9375,-0.65625 1.171875,-0.65625 0.4453125,0 0.8203125,0.28125 1.0546875,0.65625 0.2578125,0.3984375 0.28125,0.9609375 0.28125,1.3828125 0,0.3515625 -0.023437,0.9609375 -0.3046875,1.40625 C 3.844187,-0.445375 3.469187,-0.11725 2.9301245,-0.11725 2.484812,-0.11725 2.1332495,-0.351625 1.875437,-0.726625 1.7348125,-0.9375625 1.7348125,-0.961 1.734812,-1.1250625 Z m 7.1308594,0.375 c 0.023438,0.3984375 0.304688,0.8203125 0.773438,0.8203125 0.2109375,0 0.8203126,-0.140625 0.8203126,-0.9609375 v -0.5625 h -0.257813 v 0.5625 c 0,0.5859375 -0.2578121,0.6328125 -0.3515621,0.6328125 -0.328125,0 -0.375,-0.4453125 -0.375,-0.4921875 V -2.74225 c 0,-0.421875 0,-0.796875 -0.3515625,-1.171875 -0.3984375,-0.3984375 -0.890625,-0.5390625 -1.3828125,-0.5390625 -0.796875,0 -1.5,0.46875 -1.5,1.125 0,0.28125 0.2109375,0.46875 0.46875,0.46875 0.28125,0 0.4453125,-0.2109375 0.4453125,-0.46875 0,-0.1171875 -0.046875,-0.4453125 -0.4921875,-0.46875 0.2578125,-0.328125 0.75,-0.4453125 1.078125,-0.4453125 0.46875,0 1.0546875,0.3984375 1.0546875,1.265625 v 0.375 c -0.515625,0.023437 -1.21875,0.070312 -1.8515625,0.3515625 -0.75,0.3515625 -0.984375,0.8671875 -0.984375,1.3125 0,0.796875 0.9609375,1.0546875 1.59375,1.0546875 0.65625,0 1.1015625,-0.3984375 1.3124995,-0.8671875 z m -0.070312,-1.640625 v 0.984375 c 0,0.9609375 -0.7265625,1.2890625 -1.171875,1.2890625 -0.4921875,0 -0.890625,-0.3515625 -0.890625,-0.84375 0,-0.5390625 0.3984375,-1.359375 2.0625,-1.4296875 z m 5.6132816,-1.59375 c 0.09375,-0.1171875 0.09375,-0.140625 0.09375,-0.1875 0,-0.1171875 -0.09375,-0.1171875 -0.257813,-0.1171875 h -3.1875 l -0.117187,1.59375 h 0.234375 c 0.07031,-1.0078125 0.257812,-1.3828125 1.359375,-1.3828125 h 1.125 l -2.765625,3.75 c -0.09375,0.1171875 -0.09375,0.140625 -0.09375,0.1875 0,0.140625 0.07031,0.140625 0.257812,0.140625 h 3.28125 l 0.164063,-1.8515625 h -0.234375 c -0.09375,1.171875 -0.304688,1.59375 -1.453125,1.59375 h -1.171875 z m 0,0"
       style="fill:#ffffff;fill-opacity:1;fill-rule:nonzero;stroke:none"
       aria-label="baz"
       transform="matrix(0.66666667,0,0,0.66666667,9.7653333,58.390667)" />
    <path
       id="path23"
       d="M -26.95966,8.75974 0,28.3468"
       style="fill:none;stroke:#ffffff;stroke-width:0.3985;stroke-linecap:butt;stroke-linejoin:miter;stroke-miterlimit:10;stroke-dasharray:none;stroke-opacity:1"
       transform="matrix(1.3333333,0,0,-1.3333333,43.826667,46.636)" />
    <path
       id="path24"
       d="M 1.7131719,-3.7513125 V -6.915375 L 0.28348438,-6.7981875 V -6.4935 c 0.703125,0 0.77343752,0.070312 0.77343752,0.5625 v 5.9296875 h 0.2578125 c 0,0 0.09375,-0.140625 0.3515625,-0.609375 0.140625,0.2109375 0.5625,0.7265625 1.3125,0.7265625 1.171875,0 2.203125,-0.984375 2.203125,-2.2734375 0,-1.265625 -0.9609375,-2.25 -2.109375,-2.25 -0.7734375,0 -1.1953125,0.46875 -1.359375,0.65625 z m 0.023437,2.625 v -2.0625 c 0,-0.1875 0,-0.2109375 0.1171875,-0.3515625 0.3984375,-0.5625 0.9375,-0.65625 1.171875,-0.65625 0.4453125,0 0.8203125,0.28125 1.0546875,0.65625 0.2578125,0.3984375 0.28125,0.9609375 0.28125,1.3828125 0,0.3515625 -0.023437,0.9609375 -0.3046875,1.40625 -0.2109375,0.3046875 -0.5859375,0.6328125 -1.125,0.6328125 -0.4453125,0 -0.796875,-0.234375 -1.0546875,-0.609375 -0.140625,-0.2109375 -0.140625,-0.234375 -0.140625,-0.3984375 z M 10.502234,-2.134125 c 0,-1.265625 -0.9843746,-2.3203125 -2.2031246,-2.3203125 -1.2421875,0 -2.203125,1.078125 -2.203125,2.3203125 0,1.2890625 1.03125,2.25 2.203125,2.25 1.1953125,0 2.2031246,-0.984375 2.2031246,-2.25 z m -2.2031246,1.9921875 c -0.421875,0 -0.8671875,-0.2109375 -1.125,-0.65625 C 6.9162969,-1.2435 6.9162969,-1.852875 6.9162969,-2.2044375 c 0,-0.3984375 0,-0.9375 0.234375,-1.3828125 0.28125,-0.4453125 0.75,-0.65625 1.1484375,-0.65625 0.4453125,0 0.8671875,0.2109375 1.125,0.65625 0.2578125,0.421875 0.2578125,0.984375 0.2578125,1.3828125 0,0.3515625 0,0.890625 -0.2109375,1.3359375 -0.234375,0.4453125 -0.65625,0.7265625 -1.171875,0.7265625 z m 3.5976566,-3.28125 v 2.671875 C 11.896766,-0.306 11.779578,-0.306 11.123328,-0.306 v 0.3046875 c 0.328125,0 0.84375,-0.0234375 1.125,-0.0234375 0.257813,0 0.773438,0.0234375 1.101563,0.0234375 V -0.306 c -0.65625,0 -0.773438,0 -0.773438,-0.4453125 V -2.602875 c 0,-1.03125 0.703125,-1.59375 1.335938,-1.59375 0.632812,0 0.75,0.5390625 0.75,1.125 v 2.3203125 C 14.662391,-0.306 14.545203,-0.306 13.888953,-0.306 v 0.3046875 c 0.351563,0 0.84375,-0.0234375 1.125,-0.0234375 0.257813,0 0.773438,0.0234375 1.101563,0.0234375 V -0.306 c -0.515625,0 -0.75,0 -0.773438,-0.3046875 V -2.509125 c 0,-0.8671875 0,-1.171875 -0.304687,-1.5234375 -0.140625,-0.1640625 -0.46875,-0.375 -1.054688,-0.375 -0.726562,0 -1.195312,0.421875 -1.453125,1.0546875 v -1.0546875 l -1.40625,0.1171875 v 0.3046875 c 0.679688,0 0.773438,0.070312 0.773438,0.5625 z M 17.387,-0.7513125 C 17.387,-0.306 17.269813,-0.306 16.613563,-0.306 v 0.3046875 c 0.328125,0 0.796875,-0.0234375 1.078125,-0.0234375 0.304687,0 0.703125,0 1.101562,0.0234375 V -0.306 c -0.65625,0 -0.773437,0 -0.773437,-0.4453125 v -1.03125 l 0.632812,-0.5390625 c 0.773438,1.0546875 1.195313,1.59375 1.195313,1.78125 0,0.1875 -0.1875,0.234375 -0.375,0.234375 v 0.3046875 c 0.28125,0 0.867187,-0.0234375 1.078125,-0.0234375 0.304687,0 0.585937,0 0.867187,0.0234375 V -0.306 c -0.375,0 -0.585937,0 -0.960937,-0.5390625 l -1.265625,-1.78125 c 0,-0.023437 -0.07031,-0.070312 -0.07031,-0.09375 0,-0.046875 0.726563,-0.65625 0.820313,-0.7265625 0.632812,-0.515625 1.03125,-0.5390625 1.242187,-0.5390625 V -4.290375 c -0.28125,0.023437 -0.398437,0.023437 -0.679687,0.023437 -0.375,0 -0.984375,-0.023437 -1.125,-0.023437 v 0.3046875 c 0.1875,0 0.28125,0.1171875 0.28125,0.2578125 0,0.1875 -0.140625,0.3046875 -0.210938,0.375 l -1.40625,1.21875 v -4.78125 l -1.429687,0.1171875 V -6.4935 c 0.703125,0 0.773437,0.070312 0.773437,0.5625 z m 0,0"
       style="fill:#ffffff;fill-opacity:1;fill-rule:nonzero;stroke:none"
       aria-label="bonk"
       transform="matrix(0.66666667,0,0,0.66666667,18.658667,24.204)" />
  </g>
</svg>
