<?xml version="1.0" encoding="UTF-8" standalone="no"?>
<!-- Created with Inkscape (http://www.inkscape.org/) -->

<svg
   version="1.1"
   id="svg1"
   width="60.465332"
   height="83.681335"
   viewBox="0 0 60.465332 83.681335"
   xmlns="http://www.w3.org/2000/svg"
   xmlns:svg="http://www.w3.org/2000/svg">
  <defs
     id="defs1" />
  <g
     id="g1">
    <path
       id="path1"
       d="m 14.17339,28.3468 c 0,1.56566 -6.34555,2.83486 -14.17339,2.83486 -7.82784,0 -14.17339,-1.2692 -14.17339,-2.83486 0,-1.56566 6.34555,-2.83485 14.17339,-2.83485 7.82784,0 14.17339,1.26919 14.17339,2.83485 z"
       style="fill:none;stroke:#ffffff;stroke-width:0.3985;stroke-linecap:butt;stroke-linejoin:miter;stroke-miterlimit:10;stroke-dasharray:none;stroke-opacity:1"
       transform="matrix(1.3333333,0,0,-1.3333333,41.302667,41.84)" />
    <path
       id="path2"
       d="m 14.17339,-28.3468 c 0,-1.56566 -6.34555,-2.83486 -14.17339,-2.83486 -7.82784,0 -14.17339,1.2692 -14.17339,2.83486"
       style="fill:none;stroke:#ffffff;stroke-width:0.3985;stroke-linecap:butt;stroke-linejoin:miter;stroke-miterlimit:10;stroke-dasharray:none;stroke-opacity:1"
       transform="matrix(1.3333333,0,0,-1.3333333,41.302667,41.84)" />
    <path
       id="path3"
       d="M 14.17339,28.3468 V -28.3468"
       style="fill:none;stroke:#ffffff;stroke-width:0.3985;stroke-linecap:butt;stroke-linejoin:miter;stroke-miterlimit:10;stroke-dasharray:none;stroke-opacity:1"
       transform="matrix(1.3333333,0,0,-1.3333333,41.302667,41.84)" />
    <path
       id="path4"
       d="M -14.17339,28.3468 V -28.3468"
       style="fill:none;stroke:#ffffff;stroke-width:0.3985;stroke-linecap:butt;stroke-linejoin:miter;stroke-miterlimit:10;stroke-dasharray:none;stroke-opacity:1"
       transform="matrix(1.3333333,0,0,-1.3333333,41.302667,41.84)" />
    <path
       id="path5"
       d="m -2.83484,22.67752 c 0,0.6261 -1.90359,1.13367 -4.25185,1.13367 -2.34825,0 -4.25184,-0.50757 -4.25184,-1.13367 0,-0.62612 1.90359,-1.13368 4.25184,-1.13368 2.34826,0 4.25185,0.50756 4.25185,1.13368 z"
       style="fill:none;stroke:#ffffff;stroke-width:0.3985;stroke-linecap:butt;stroke-linejoin:miter;stroke-miterlimit:10;stroke-dasharray:none;stroke-opacity:1"
       transform="matrix(1.3333333,0,0,-1.3333333,41.302667,41.84)" />
    <path
       id="path6"
       d="m -2.83484,-22.67752 c 0,-0.6261 -1.90359,-1.13367 -4.25185,-1.13367 -2.34825,0 -4.25184,0.50757 -4.25184,1.13367"
       style="fill:none;stroke:#ffffff;stroke-width:0.3985;stroke-linecap:butt;stroke-linejoin:miter;stroke-miterlimit:10;stroke-dasharray:none;stroke-opacity:1"
       transform="matrix(1.3333333,0,0,-1.3333333,41.302667,41.84)" />
    <path
       id="path7"
       d="M -2.83484,22.67752 V -22.67752"
       style="fill:none;stroke:#ffffff;stroke-width:0.3985;stroke-linecap:butt;stroke-linejoin:miter;stroke-miterlimit:10;stroke-dasharray:none;stroke-opacity:1"
       transform="matrix(1.3333333,0,0,-1.3333333,41.302667,41.84)" />
    <path
       id="path8"
       d="M -11.33853,22.67752 V -22.67752"
       style="fill:none;stroke:#ffffff;stroke-width:0.3985;stroke-linecap:butt;stroke-linejoin:miter;stroke-miterlimit:10;stroke-dasharray:none;stroke-opacity:1"
       transform="matrix(1.3333333,0,0,-1.3333333,41.302667,41.84)" />
    <path
       id="path9"
       d="M 2.12592,22.67752 C 2.12592,23.0688 1.17412,23.386 0,23.386 c -1.17412,0 -2.12592,-0.3172 -2.12592,-0.70848 0,-0.3913 0.9518,-0.7085 2.12592,-0.7085 1.17412,0 2.12592,0.3172 2.12592,0.7085 z"
       style="fill:none;stroke:#ffffff;stroke-width:0.3985;stroke-linecap:butt;stroke-linejoin:miter;stroke-miterlimit:10;stroke-dasharray:none;stroke-opacity:1"
       transform="matrix(1.3333333,0,0,-1.3333333,41.302667,41.84)" />
    <path
       id="path10"
       d="M 2.12592,-22.67752 C 2.12592,-23.0688 1.17412,-23.386 0,-23.386 c -1.17412,0 -2.12592,0.3172 -2.12592,0.70848"
       style="fill:none;stroke:#ffffff;stroke-width:0.3985;stroke-linecap:butt;stroke-linejoin:miter;stroke-miterlimit:10;stroke-dasharray:none;stroke-opacity:1"
       transform="matrix(1.3333333,0,0,-1.3333333,41.302667,41.84)" />
    <path
       id="path11"
       d="M 2.12592,22.67752 V -22.67752"
       style="fill:none;stroke:#ffffff;stroke-width:0.3985;stroke-linecap:butt;stroke-linejoin:miter;stroke-miterlimit:10;stroke-dasharray:none;stroke-opacity:1"
       transform="matrix(1.3333333,0,0,-1.3333333,41.302667,41.84)" />
    <path
       id="path12"
       d="M -2.12592,22.67752 V -22.67752"
       style="fill:none;stroke:#ffffff;stroke-width:0.3985;stroke-linecap:butt;stroke-linejoin:miter;stroke-miterlimit:10;stroke-dasharray:none;stroke-opacity:1"
       transform="matrix(1.3333333,0,0,-1.3333333,41.302667,41.84)" />
    <path
       id="path13"
       d="m 5.66925,22.67752 c 0,0.31317 -0.6346,0.56705 -1.41742,0.56705 -0.78282,0 -1.41742,-0.25388 -1.41742,-0.56705 0,-0.31319 0.6346,-0.56706 1.41742,-0.56706 0.78282,0 1.41742,0.25387 1.41742,0.56706 z"
       style="fill:none;stroke:#ffffff;stroke-width:0.3985;stroke-linecap:butt;stroke-linejoin:miter;stroke-miterlimit:10;stroke-dasharray:none;stroke-opacity:1"
       transform="matrix(1.3333333,0,0,-1.3333333,41.302667,41.84)" />
    <path
       id="path14"
       d="m 5.66925,-22.67752 c 0,-0.31317 -0.6346,-0.56705 -1.41742,-0.56705 -0.78282,0 -1.41742,0.25388 -1.41742,0.56705"
       style="fill:none;stroke:#ffffff;stroke-width:0.3985;stroke-linecap:butt;stroke-linejoin:miter;stroke-miterlimit:10;stroke-dasharray:none;stroke-opacity:1"
       transform="matrix(1.3333333,0,0,-1.3333333,41.302667,41.84)" />
    <path
       id="path15"
       d="M 5.66925,22.67752 V -22.67752"
       style="fill:none;stroke:#ffffff;stroke-width:0.3985;stroke-linecap:butt;stroke-linejoin:miter;stroke-miterlimit:10;stroke-dasharray:none;stroke-opacity:1"
       transform="matrix(1.3333333,0,0,-1.3333333,41.302667,41.84)" />
    <path
       id="path16"
       d="M 2.83441,22.67752 V -22.67752"
       style="fill:none;stroke:#ffffff;stroke-width:0.3985;stroke-linecap:butt;stroke-linejoin:miter;stroke-miterlimit:10;stroke-dasharray:none;stroke-opacity:1"
       transform="matrix(1.3333333,0,0,-1.3333333,41.302667,41.84)" />
    <path
       id="path17"
       d="m 7.37,22.67752 c 0,0.07832 -0.12685,0.14186 -0.28331,0.14186 -0.15647,0 -0.28331,-0.06354 -0.28331,-0.14186 0,-0.07834 0.12684,-0.14188 0.28331,-0.14188 0.15646,0 0.28331,0.06354 0.28331,0.14188 z"
       style="fill:none;stroke:#ffffff;stroke-width:0.3985;stroke-linecap:butt;stroke-linejoin:miter;stroke-miterlimit:10;stroke-dasharray:none;stroke-opacity:1"
       transform="matrix(1.3333333,0,0,-1.3333333,41.302667,41.84)" />
    <path
       id="path18"
       d="m 7.37,-22.67752 c 0,-0.07832 -0.12685,-0.14186 -0.28331,-0.14186 -0.15647,0 -0.28331,0.06354 -0.28331,0.14186"
       style="fill:none;stroke:#ffffff;stroke-width:0.3985;stroke-linecap:butt;stroke-linejoin:miter;stroke-miterlimit:10;stroke-dasharray:none;stroke-opacity:1"
       transform="matrix(1.3333333,0,0,-1.3333333,41.302667,41.84)" />
    <path
       id="path19"
       d="M 7.37,22.67752 V -22.67752"
       style="fill:none;stroke:#ffffff;stroke-width:0.3985;stroke-linecap:butt;stroke-linejoin:miter;stroke-miterlimit:10;stroke-dasharray:none;stroke-opacity:1"
       transform="matrix(1.3333333,0,0,-1.3333333,41.302667,41.84)" />
    <path
       id="path20"
       d="M 6.80338,22.67752 V -22.67752"
       style="fill:none;stroke:#ffffff;stroke-width:0.3985;stroke-linecap:butt;stroke-linejoin:miter;stroke-miterlimit:10;stroke-dasharray:none;stroke-opacity:1"
       transform="matrix(1.3333333,0,0,-1.3333333,41.302667,41.84)" />
    <path
       id="path21"
       d="m 8.78741,22.67752 c 0,0.07832 -0.12684,0.14186 -0.28329,0.14186 -0.15646,0 -0.28331,-0.06354 -0.28331,-0.14186 0,-0.07834 0.12685,-0.14188 0.28331,-0.14188 0.15645,0 0.28329,0.06354 0.28329,0.14188 z"
       style="fill:none;stroke:#ffffff;stroke-width:0.3985;stroke-linecap:butt;stroke-linejoin:miter;stroke-miterlimit:10;stroke-dasharray:none;stroke-opacity:1"
       transform="matrix(1.3333333,0,0,-1.3333333,41.302667,41.84)" />
    <path
       id="path22"
       d="m 8.78741,-22.67752 c 0,-0.07832 -0.12684,-0.14186 -0.28329,-0.14186 -0.15646,0 -0.28331,0.06354 -0.28331,0.14186"
       style="fill:none;stroke:#ffffff;stroke-width:0.3985;stroke-linecap:butt;stroke-linejoin:miter;stroke-miterlimit:10;stroke-dasharray:none;stroke-opacity:1"
       transform="matrix(1.3333333,0,0,-1.3333333,41.302667,41.84)" />
    <path
       id="path23"
       d="M 8.78741,22.67752 V -22.67752"
       style="fill:none;stroke:#ffffff;stroke-width:0.3985;stroke-linecap:butt;stroke-linejoin:miter;stroke-miterlimit:10;stroke-dasharray:none;stroke-opacity:1"
       transform="matrix(1.3333333,0,0,-1.3333333,41.302667,41.84)" />
    <path
       id="path24"
       d="M 8.22081,22.67752 V -22.67752"
       style="fill:none;stroke:#ffffff;stroke-width:0.3985;stroke-linecap:butt;stroke-linejoin:miter;stroke-miterlimit:10;stroke-dasharray:none;stroke-opacity:1"
       transform="matrix(1.3333333,0,0,-1.3333333,41.302667,41.84)" />
    <path
       id="path25"
       d="m 10.20485,22.67752 c 0,0.07832 -0.12685,0.14186 -0.2833,0.14186 -0.15646,0 -0.28331,-0.06354 -0.28331,-0.14186 0,-0.07834 0.12685,-0.14188 0.28331,-0.14188 0.15645,0 0.2833,0.06354 0.2833,0.14188 z"
       style="fill:none;stroke:#ffffff;stroke-width:0.3985;stroke-linecap:butt;stroke-linejoin:miter;stroke-miterlimit:10;stroke-dasharray:none;stroke-opacity:1"
       transform="matrix(1.3333333,0,0,-1.3333333,41.302667,41.84)" />
    <path
       id="path26"
       d="m 10.20485,-22.67752 c 0,-0.07832 -0.12685,-0.14186 -0.2833,-0.14186 -0.15646,0 -0.28331,0.06354 -0.28331,0.14186"
       style="fill:none;stroke:#ffffff;stroke-width:0.3985;stroke-linecap:butt;stroke-linejoin:miter;stroke-miterlimit:10;stroke-dasharray:none;stroke-opacity:1"
       transform="matrix(1.3333333,0,0,-1.3333333,41.302667,41.84)" />
    <path
       id="path27"
       d="M 10.20485,22.67752 V -22.67752"
       style="fill:none;stroke:#ffffff;stroke-width:0.3985;stroke-linecap:butt;stroke-linejoin:miter;stroke-miterlimit:10;stroke-dasharray:none;stroke-opacity:1"
       transform="matrix(1.3333333,0,0,-1.3333333,41.302667,41.84)" />
    <path
       id="path28"
       d="M 9.63824,22.67752 V -22.67752"
       style="fill:none;stroke:#ffffff;stroke-width:0.3985;stroke-linecap:butt;stroke-linejoin:miter;stroke-miterlimit:10;stroke-dasharray:none;stroke-opacity:1"
       transform="matrix(1.3333333,0,0,-1.3333333,41.302667,41.84)" />
    <path
       id="path29"
       d="m 11.62184,22.67752 c 0,0.07832 -0.12684,0.14186 -0.28329,0.14186 -0.15647,0 -0.28331,-0.06354 -0.28331,-0.14186 0,-0.07834 0.12684,-0.14188 0.28331,-0.14188 0.15645,0 0.28329,0.06354 0.28329,0.14188 z"
       style="fill:none;stroke:#ffffff;stroke-width:0.3985;stroke-linecap:butt;stroke-linejoin:miter;stroke-miterlimit:10;stroke-dasharray:none;stroke-opacity:1"
       transform="matrix(1.3333333,0,0,-1.3333333,41.302667,41.84)" />
    <path
       id="path30"
       d="m 11.62184,-22.67752 c 0,-0.07832 -0.12684,-0.14186 -0.28329,-0.14186 -0.15647,0 -0.28331,0.06354 -0.28331,0.14186"
       style="fill:none;stroke:#ffffff;stroke-width:0.3985;stroke-linecap:butt;stroke-linejoin:miter;stroke-miterlimit:10;stroke-dasharray:none;stroke-opacity:1"
       transform="matrix(1.3333333,0,0,-1.3333333,41.302667,41.84)" />
    <path
       id="path31"
       d="M 11.62184,22.67752 V -22.67752"
       style="fill:none;stroke:#ffffff;stroke-width:0.3985;stroke-linecap:butt;stroke-linejoin:miter;stroke-miterlimit:10;stroke-dasharray:none;stroke-opacity:1"
       transform="matrix(1.3333333,0,0,-1.3333333,41.302667,41.84)" />
    <path
       id="path32"
       d="M 11.05524,22.67752 V -22.67752"
       style="fill:none;stroke:#ffffff;stroke-width:0.3985;stroke-linecap:butt;stroke-linejoin:miter;stroke-miterlimit:10;stroke-dasharray:none;stroke-opacity:1"
       transform="matrix(1.3333333,0,0,-1.3333333,41.302667,41.84)" />
    <path
       id="path33"
       d="M -11.33855,22.67752 V 11.33855"
       style="fill:none;stroke:#50fa7b;stroke-width:0.3985;stroke-linecap:butt;stroke-linejoin:miter;stroke-miterlimit:10;stroke-dasharray:none;stroke-opacity:1"
       transform="matrix(1.3333333,0,0,-1.3333333,41.302667,41.84)" />
    <path
       id="path34"
       d="M -2.83484,22.67752 V 11.33855"
       style="fill:none;stroke:#50fa7b;stroke-width:0.3985;stroke-linecap:butt;stroke-linejoin:miter;stroke-miterlimit:10;stroke-dasharray:none;stroke-opacity:1"
       transform="matrix(1.3333333,0,0,-1.3333333,41.302667,41.84)" />
    <path
       id="path35"
       d="m -2.83484,22.67752 c 0,0.6261 -1.90359,1.13367 -4.25185,1.13367 -2.34825,0 -4.25184,-0.50757 -4.25184,-1.13367 0,-0.62612 1.90359,-1.13368 4.25184,-1.13368 2.34826,0 4.25185,0.50756 4.25185,1.13368 z"
       style="fill:none;stroke:#50fa7b;stroke-width:0.3985;stroke-linecap:butt;stroke-linejoin:miter;stroke-miterlimit:10;stroke-dasharray:none;stroke-opacity:1"
       transform="matrix(1.3333333,0,0,-1.3333333,41.302667,41.84)" />
    <path
       id="path36"
       d="m -2.83484,11.33855 c 0,-0.62612 -1.90359,-1.13369 -4.25185,-1.13369 -2.34825,0 -4.25184,0.50757 -4.25184,1.13369"
       style="fill:none;stroke:#50fa7b;stroke-width:0.3985;stroke-linecap:butt;stroke-linejoin:miter;stroke-miterlimit:10;stroke-dasharray:none;stroke-opacity:1"
       transform="matrix(1.3333333,0,0,-1.3333333,41.302667,41.84)" />
    <path
       id="path37"
       d="M -2.12592,22.67752 V 17.00824"
       style="fill:none;stroke:#50fa7b;stroke-width:0.3985;stroke-linecap:butt;stroke-linejoin:miter;stroke-miterlimit:10;stroke-dasharray:none;stroke-opacity:1"
       transform="matrix(1.3333333,0,0,-1.3333333,41.302667,41.84)" />
    <path
       id="path38"
       d="M 2.12592,22.67752 V 17.00824"
       style="fill:none;stroke:#50fa7b;stroke-width:0.3985;stroke-linecap:butt;stroke-linejoin:miter;stroke-miterlimit:10;stroke-dasharray:none;stroke-opacity:1"
       transform="matrix(1.3333333,0,0,-1.3333333,41.302667,41.84)" />
    <path
       id="path39"
       d="M 2.12592,22.67752 C 2.12592,23.0688 1.17412,23.386 0,23.386 c -1.17412,0 -2.12592,-0.3172 -2.12592,-0.70848 0,-0.3913 0.9518,-0.7085 2.12592,-0.7085 1.17412,0 2.12592,0.3172 2.12592,0.7085 z"
       style="fill:none;stroke:#50fa7b;stroke-width:0.3985;stroke-linecap:butt;stroke-linejoin:miter;stroke-miterlimit:10;stroke-dasharray:none;stroke-opacity:1"
       transform="matrix(1.3333333,0,0,-1.3333333,41.302667,41.84)" />
    <path
       id="path40"
       d="m 2.12592,17.00824 c 0,-0.39128 -0.9518,-0.7085 -2.12592,-0.7085 -1.17412,0 -2.12592,0.31722 -2.12592,0.7085"
       style="fill:none;stroke:#50fa7b;stroke-width:0.3985;stroke-linecap:butt;stroke-linejoin:miter;stroke-miterlimit:10;stroke-dasharray:none;stroke-opacity:1"
       transform="matrix(1.3333333,0,0,-1.3333333,41.302667,41.84)" />
    <path
       id="path41"
       d="M 2.8344,22.67752 V 18.70897"
       style="fill:none;stroke:#50fa7b;stroke-width:0.3985;stroke-linecap:butt;stroke-linejoin:miter;stroke-miterlimit:10;stroke-dasharray:none;stroke-opacity:1"
       transform="matrix(1.3333333,0,0,-1.3333333,41.302667,41.84)" />
    <path
       id="path42"
       d="M 5.66927,22.67752 V 18.70897"
       style="fill:none;stroke:#50fa7b;stroke-width:0.3985;stroke-linecap:butt;stroke-linejoin:miter;stroke-miterlimit:10;stroke-dasharray:none;stroke-opacity:1"
       transform="matrix(1.3333333,0,0,-1.3333333,41.302667,41.84)" />
    <path
       id="path43"
       d="m 5.66925,22.67752 c 0,0.31317 -0.6346,0.56705 -1.41742,0.56705 -0.78282,0 -1.41742,-0.25388 -1.41742,-0.56705 0,-0.31319 0.6346,-0.56706 1.41742,-0.56706 0.78282,0 1.41742,0.25387 1.41742,0.56706 z"
       style="fill:none;stroke:#50fa7b;stroke-width:0.3985;stroke-linecap:butt;stroke-linejoin:miter;stroke-miterlimit:10;stroke-dasharray:none;stroke-opacity:1"
       transform="matrix(1.3333333,0,0,-1.3333333,41.302667,41.84)" />
    <path
       id="path44"
       d="m 5.66925,18.70897 c 0,-0.31317 -0.6346,-0.56705 -1.41742,-0.56705 -0.78282,0 -1.41742,0.25388 -1.41742,0.56705"
       style="fill:none;stroke:#50fa7b;stroke-width:0.3985;stroke-linecap:butt;stroke-linejoin:miter;stroke-miterlimit:10;stroke-dasharray:none;stroke-opacity:1"
       transform="matrix(1.3333333,0,0,-1.3333333,41.302667,41.84)" />
  </g>
</svg>
