<?xml version="1.0" encoding="UTF-8" standalone="no"?>
<!-- Created with Inkscape (http://www.inkscape.org/) -->

<svg
   version="1.1"
   id="svg1"
   width="207.71468"
   height="135.63733"
   viewBox="0 0 207.71468 135.63733"
   xmlns="http://www.w3.org/2000/svg"
   xmlns:svg="http://www.w3.org/2000/svg">
  <defs
     id="defs1" />
  <g
     id="g1">
    <path
       id="path1"
       d="M 0,0 14.17339,14.17339 28.3468,28.3468 42.5202,14.17339 56.69362,28.3468 70.867,14.17339 85.04042,28.3468 99.21382,42.5202 113.38724,56.69362 127.56062,42.5202"
       style="fill:none;stroke:#ffffff;stroke-width:0.3985;stroke-linecap:butt;stroke-linejoin:miter;stroke-miterlimit:10;stroke-dasharray:none;stroke-opacity:1"
       transform="matrix(1.3333333,0,0,-1.3333333,29.888,75.856)" />
    <path
       id="path2"
       d="M 0,-1.4174 14.17339,12.75595 28.3468,-1.4174 42.5202,12.75595 56.69362,26.92937 70.867,12.75595 l 14.17342,14.17342 14.1734,14.1734 14.17342,-14.1734 14.17338,14.1734"
       style="fill:none;stroke:#ffffff;stroke-width:0.3985;stroke-linecap:butt;stroke-linejoin:miter;stroke-miterlimit:10;stroke-dasharray:none;stroke-opacity:1"
       transform="matrix(1.3333333,0,0,-1.3333333,29.888,75.856)" />
    <path
       id="path3"
       d="M 0,-2.83484 14.17339,11.33855 28.3468,-2.83484 42.5202,11.33855 56.69362,25.51193 70.867,11.33855 l 14.17342,14.17338 14.1734,14.17342 14.17342,-14.17342 14.17338,14.17342"
       style="fill:none;stroke:#ffffff;stroke-width:0.3985;stroke-linecap:butt;stroke-linejoin:miter;stroke-miterlimit:10;stroke-dasharray:none;stroke-opacity:1"
       transform="matrix(1.3333333,0,0,-1.3333333,29.888,75.856)" />
    <path
       id="path4"
       d="M 0,-4.25183 14.17339,9.92155 28.3468,-4.25183 42.5202,9.92155 56.69362,-4.25183 70.867,9.92155 85.04042,24.09494 99.21382,9.92155 l 14.17342,14.17339 14.17338,14.17342"
       style="fill:none;stroke:#ffffff;stroke-width:0.3985;stroke-linecap:butt;stroke-linejoin:miter;stroke-miterlimit:10;stroke-dasharray:none;stroke-opacity:1"
       transform="matrix(1.3333333,0,0,-1.3333333,29.888,75.856)" />
    <path
       id="path5"
       d="M 0,-5.66927 14.17339,-19.84267 28.3468,-5.66927 42.5202,8.50412 56.69362,-5.66927 70.867,8.50412 l 14.17342,14.1734 14.1734,-14.1734 14.17342,14.1734 14.17338,14.1734"
       style="fill:none;stroke:#ffffff;stroke-width:0.3985;stroke-linecap:butt;stroke-linejoin:miter;stroke-miterlimit:10;stroke-dasharray:none;stroke-opacity:1"
       transform="matrix(1.3333333,0,0,-1.3333333,29.888,75.856)" />
    <path
       id="path6"
       d="M 0,-7.08669 14.17339,-21.2601 28.3468,-7.08669 42.5202,7.08669 56.69362,-7.08669 70.867,7.08669 85.04042,-7.08669 99.21382,7.08669 113.38724,21.2601 127.56062,35.43349"
       style="fill:none;stroke:#ffffff;stroke-width:0.3985;stroke-linecap:butt;stroke-linejoin:miter;stroke-miterlimit:10;stroke-dasharray:none;stroke-opacity:1"
       transform="matrix(1.3333333,0,0,-1.3333333,29.888,75.856)" />
    <path
       id="path7"
       d="m 0,-8.50412 14.17339,-14.1734 14.17341,14.1734 14.1734,-14.1734 14.17342,14.1734 14.17338,14.17339 14.17342,-14.17339 14.1734,14.17339 14.17342,14.1734 14.17338,14.17341"
       style="fill:none;stroke:#ffffff;stroke-width:0.3985;stroke-linecap:butt;stroke-linejoin:miter;stroke-miterlimit:10;stroke-dasharray:none;stroke-opacity:1"
       transform="matrix(1.3333333,0,0,-1.3333333,29.888,75.856)" />
    <path
       id="path8"
       d="M 0,-38.26836 14.17339,-24.09494 28.3468,-9.92155 42.5202,-24.09494 56.69362,-9.92155 70.867,4.25183 85.04042,-9.92155 l 14.1734,14.17338 14.17342,14.1734 14.17338,-14.1734"
       style="fill:none;stroke:#ffffff;stroke-width:0.3985;stroke-linecap:butt;stroke-linejoin:miter;stroke-miterlimit:10;stroke-dasharray:none;stroke-opacity:1"
       transform="matrix(1.3333333,0,0,-1.3333333,29.888,75.856)" />
    <path
       id="path9"
       d="m 2.9282578,-6.3749531 c 0,-0.234375 0,-0.2578125 -0.234375,-0.2578125 -0.609375,0.6328125 -1.4882812,0.6328125 -1.80468749,0.6328125 v 0.3164062 c 0.19921879,0 0.78515629,0 1.30078129,-0.2578125 v 5.15625002 c 0,0.3515625 -0.035156,0.48046875 -0.9257813,0.48046875 H 0.94778906 V 4.6875e-5 C 1.2993516,-0.03510938 2.1548203,-0.03510938 2.5532578,-0.03510938 c 0.3984375,0 1.265625,0 1.6171875,0.035156255 V -0.30464063 H 3.8540391 c -0.9023438,0 -0.9257813,-0.1171875 -0.9257813,-0.48046875 z m 0,0"
       style="fill:#ffffff;fill-opacity:1;fill-rule:nonzero;stroke:none"
       aria-label="1"
       transform="matrix(1.3333333,0,0,1.3333333,177.748,19.664)" />
    <path
       id="path10"
       d="m 2.9311484,-6.3752891 c 0,-0.234375 0,-0.2578125 -0.234375,-0.2578125 -0.609375,0.6328125 -1.4882812,0.6328125 -1.80468746,0.6328125 v 0.3164063 c 0.19921876,0 0.78515626,0 1.30078126,-0.2578125 v 5.15624999 c 0,0.3515625 -0.035156,0.48046875 -0.9257813,0.48046875 H 0.95067969 V -2.890625e-4 C 1.3022422,-0.03544531 2.1577109,-0.03544531 2.5561484,-0.03544531 c 0.3984375,0 1.265625,0 1.6171875,0.0351562475 V -0.30497656 H 3.8569297 c -0.9023438,0 -0.9257813,-0.1171875 -0.9257813,-0.48046875 z m 0,0"
       style="fill:#ffffff;fill-opacity:1;fill-rule:nonzero;stroke:none"
       aria-label="1"
       transform="matrix(1.3333333,0,0,1.3333333,64.361333,61.238667)" />
    <path
       id="path11"
       d="M 2.8937188,-3.5032578 C 3.7023125,-3.7727891 4.28825,-4.4759141 4.28825,-5.2610703 c 0,-0.8203125 -0.8789062,-1.3710938 -1.8398437,-1.3710938 -1.0078125,0 -1.75781255,0.5976563 -1.75781255,1.3476563 0,0.3398437 0.2109375,0.5273437 0.50390625,0.5273437 0.3046875,0 0.5039063,-0.2226562 0.5039063,-0.515625 0,-0.4921875 -0.46875,-0.4921875 -0.609375,-0.4921875 0.3046875,-0.4921875 0.9609375,-0.6210937 1.3242187,-0.6210937 0.4101563,0 0.9492188,0.2226562 0.9492188,1.1132812 0,0.1289063 -0.011719,0.703125 -0.2695313,1.1367188 -0.3046875,0.4804687 -0.6445312,0.515625 -0.890625,0.515625 -0.082031,0.011719 -0.3164062,0.035156 -0.3867187,0.035156 -0.082031,0.011719 -0.1523438,0.023437 -0.1523438,0.1171875 0,0.1171875 0.070312,0.1171875 0.234375,0.1171875 h 0.4453125 c 0.8085938,0 1.1835938,0.6679688 1.1835938,1.6523438 0,1.34765624 -0.6914063,1.64062499 -1.125,1.64062499 -0.4335938,0 -1.171875,-0.17578125 -1.52343755,-0.76171875 0.35156255,0.0585938 0.65625005,-0.1640625 0.65625005,-0.53906254 0,-0.3632812 -0.2695313,-0.5625 -0.56250005,-0.5625 -0.234375,0 -0.55078125,0.140625 -0.55078125,0.5742188 0,0.91406249 0.9257813,1.57031249 2.0039063,1.57031249 1.21875,0 2.1210937,-0.9140625 2.1210937,-1.92187499 0,-0.8203125 -0.6210937,-1.59375 -1.6523437,-1.8046873 z m 0,0"
       style="fill:#ffffff;fill-opacity:1;fill-rule:nonzero;stroke:none"
       aria-label="3"
       transform="matrix(1.3333333,0,0,1.3333333,102.15733,65.018667)" />
    <path
       id="path12"
       d="m 4.4774063,-2.00425 c 0,-1.1835938 -0.8203125,-2.1796875 -1.8984375,-2.1796875 -0.4804688,0 -0.9023438,0.1640625 -1.265625,0.5039062 V -5.613625 c 0.1992187,0.058594 0.5273437,0.1289062 0.84375,0.1289062 1.2304687,0 1.9335937,-0.9140625 1.9335937,-1.0429687 0,-0.058594 -0.035156,-0.1054688 -0.1054687,-0.1054688 -0.011719,0 -0.035156,0 -0.082031,0.023437 C 3.7039688,-6.5159688 3.2235,-6.31675 2.5555313,-6.31675 c -0.3984375,0 -0.8554688,-0.070312 -1.3242188,-0.28125 -0.082031,-0.023437 -0.1054687,-0.023437 -0.1289062,-0.023437 -0.09375,0 -0.09375,0.082031 -0.09375,0.234375 v 2.953125 c 0,0.1757812 0,0.2578125 0.140625,0.2578125 0.070312,0 0.082031,-0.035156 0.1289062,-0.09375 0.1054688,-0.1523438 0.4804688,-0.6914063 1.2773438,-0.6914063 0.5273437,0 0.7734375,0.4570313 0.8554687,0.6328125 0.1523438,0.375 0.1757813,0.7617188 0.1757813,1.2539063 0,0.3515625 0,0.9492187 -0.234375,1.37109375 C 3.1063125,-0.31675 2.7430313,-0.0589375 2.286,-0.0589375 c -0.7265625,0 -1.30078125,-0.52734375 -1.46484375,-1.1132813 0.0234375,0.011719 0.0585938,0.011719 0.1640625,0.011719 0.32812505,0 0.50390625,-0.2460938 0.50390625,-0.4804688 0,-0.2460937 -0.1757812,-0.4921875 -0.50390625,-0.4921875 -0.140625,0 -0.48046875,0.070312 -0.48046875,0.5273438 0,0.85546875 0.6796875,1.828125 1.7929688,1.828125 1.1601562,0 2.1796875,-0.9609375 2.1796875,-2.2265627 z m 0,0"
       style="fill:#ffffff;fill-opacity:1;fill-rule:nonzero;stroke:none"
       aria-label="5"
       transform="matrix(1.3333333,0,0,1.3333333,139.952,68.797333)" />
    <path
       id="path13"
       d="M 1.6274766,-4.5472188 C 1.1587266,-4.8519063 1.1235703,-5.19175 1.1235703,-5.3558125 c 0,-0.609375 0.6445313,-1.03125 1.359375,-1.03125 0.7265625,0 1.359375,0.515625 1.359375,1.2421875 0,0.5625 -0.3867187,1.0429687 -0.984375,1.3945312 z m 1.453125,0.9375 C 3.7954453,-3.973 4.2876328,-4.488625 4.2876328,-5.144875 c 0,-0.9257813 -0.890625,-1.4882813 -1.7929687,-1.4882813 -0.9960938,0 -1.80468754,0.7382813 -1.80468754,1.6640625 0,0.1757813 0.0117188,0.6210938 0.43359374,1.0898438 0.1054688,0.1289062 0.4804688,0.375 0.7265625,0.5390625 -0.5742187,0.2929687 -1.42968749,0.84375 -1.42968749,1.8398437 0,1.05468755 1.00781249,1.7226563 2.06249999,1.7226563 1.125,0 2.0625,-0.83203125 2.0625,-1.8984375 0,-0.3515625 -0.1054687,-0.8085938 -0.4804687,-1.21875 -0.1875,-0.2109375 -0.3515625,-0.3164063 -0.984375,-0.7148438 z m -0.9960938,0.421875 1.21875,0.7734375 c 0.28125,0.1875 0.75,0.4921875 0.75,1.1015625 0,0.7382813 -0.75,1.2539063 -1.5585937,1.2539063 -0.8671875,0 -1.58203129,-0.62109375 -1.58203129,-1.4414063 0,-0.5859375 0.31640629,-1.21875 1.17187499,-1.6875 z m 0,0"
       style="fill:#ffffff;fill-opacity:1;fill-rule:nonzero;stroke:none"
       aria-label="8"
       transform="matrix(1.3333333,0,0,1.3333333,177.748,68.797333)" />
    <path
       id="path14"
       d="m 2.8932734,-3.5040547 c 0.8085938,-0.2695312 1.3945313,-0.9726562 1.3945313,-1.7578125 0,-0.8203125 -0.8789063,-1.3710937 -1.8398438,-1.3710937 -1.0078125,0 -1.75781246,0.5976562 -1.75781246,1.3476562 0,0.3398438 0.2109375,0.5273438 0.50390626,0.5273438 0.3046875,0 0.5039062,-0.2226563 0.5039062,-0.515625 0,-0.4921875 -0.46875,-0.4921875 -0.609375,-0.4921875 0.3046875,-0.4921875 0.9609375,-0.6210938 1.3242188,-0.6210938 0.4101562,0 0.9492187,0.2226563 0.9492187,1.1132813 0,0.1289062 -0.011719,0.703125 -0.2695312,1.1367187 -0.3046875,0.4804688 -0.6445313,0.515625 -0.890625,0.515625 -0.082031,0.011719 -0.3164063,0.035156 -0.3867188,0.035156 -0.082031,0.011719 -0.1523437,0.023437 -0.1523437,0.1171875 0,0.1171875 0.070312,0.1171875 0.234375,0.1171875 h 0.4453125 c 0.8085937,0 1.1835937,0.6679687 1.1835937,1.6523437 0,1.34765626 -0.6914062,1.64062501 -1.125,1.64062501 -0.4335937,0 -1.171875,-0.17578125 -1.52343746,-0.76171875 0.35156246,0.0585938 0.65624996,-0.1640625 0.65624996,-0.53906246 0,-0.3632813 -0.2695312,-0.5625 -0.56249996,-0.5625 -0.234375,0 -0.55078125,0.140625 -0.55078125,0.5742187 0,0.91406251 0.92578121,1.57031251 2.00390621,1.57031251 1.21875,0 2.1210938,-0.9140625 2.1210938,-1.92187501 0,-0.8203125 -0.6210938,-1.59375 -1.6523438,-1.8046872 z m 0,0"
       style="fill:#ffffff;fill-opacity:1;fill-rule:nonzero;stroke:none"
       aria-label="3"
       transform="matrix(1.3333333,0,0,1.3333333,158.84933,44.230667)" />
    <path
       id="path15"
       d="m 4.7454922,-6.0705156 c 0.082031,-0.1171875 0.082031,-0.140625 0.082031,-0.3398438 H 2.4134609 c -1.21875,0 -1.2421875,-0.1289062 -1.2773437,-0.328125 H 0.89002344 l -0.328125,2.0507813 h 0.24609375 c 0.0234375,-0.1523438 0.1171875,-0.7851563 0.24609371,-0.9023438 0.070312,-0.058594 0.84375,-0.058594 0.9726563,-0.058594 h 2.0625 c -0.1054688,0.1640625 -0.890625,1.2421875 -1.1132813,1.5703125 -0.890625,1.3476562 -1.21875,2.7304687 -1.21875,3.74999998 0,0.09375 0,0.55078125 0.4570313,0.55078125 0.4570312,0 0.4570312,-0.45703125 0.4570312,-0.55078125 v -0.50390625 c 0,-0.55078123 0.023437,-1.10156253 0.1054688,-1.64062503 0.046875,-0.2226562 0.1757812,-1.078125 0.6210937,-1.6992187 z m 0,0"
       style="fill:#ffffff;fill-opacity:1;fill-rule:nonzero;stroke:none"
       aria-label="7"
       transform="matrix(1.3333333,0,0,1.3333333,196.64533,51.789333)" />
    <path
       id="path16"
       d="m 4.7458984,-6.0700547 c 0.082031,-0.1171875 0.082031,-0.140625 0.082031,-0.3398437 H 2.4138672 c -1.21875,0 -1.2421875,-0.1289063 -1.2773438,-0.328125 H 0.89042969 l -0.328125,2.0507812 h 0.24609375 c 0.0234375,-0.1523437 0.1171875,-0.7851562 0.24609376,-0.9023437 0.070312,-0.058594 0.84375,-0.058594 0.9726562,-0.058594 h 2.0625 c -0.1054687,0.1640625 -0.890625,1.2421875 -1.1132812,1.5703125 -0.890625,1.3476563 -1.21875,2.7304688 -1.21875,3.75000001 0,0.09375 0,0.55078125 0.4570312,0.55078125 0.4570313,0 0.4570313,-0.45703125 0.4570313,-0.55078125 v -0.50390625 c 0,-0.55078126 0.023437,-1.10156246 0.1054687,-1.64062496 0.046875,-0.2226563 0.1757813,-1.078125 0.6210938,-1.6992188 z m 0,0"
       style="fill:#ffffff;fill-opacity:1;fill-rule:nonzero;stroke:none"
       aria-label="7"
       transform="matrix(1.3333333,0,0,1.3333333,26.566667,114.152)" />
    <path
       id="path17"
       d="m 1.6303672,-4.5466172 c -0.46875,-0.3046875 -0.5039063,-0.6445312 -0.5039063,-0.8085937 0,-0.609375 0.6445313,-1.03125 1.359375,-1.03125 0.7265625,0 1.359375,0.515625 1.359375,1.2421875 0,0.5625 -0.3867187,1.0429687 -0.984375,1.3945312 z m 1.453125,0.9375 c 0.7148437,-0.3632812 1.2070312,-0.8789062 1.2070312,-1.5351562 0,-0.9257813 -0.890625,-1.4882813 -1.7929687,-1.4882813 -0.9960938,0 -1.80468751,0.7382813 -1.80468751,1.6640625 0,0.1757813 0.0117188,0.6210938 0.43359371,1.0898438 0.1054688,0.1289062 0.4804688,0.375 0.7265625,0.5390625 -0.5742187,0.2929687 -1.42968746,0.84375 -1.42968746,1.8398437 0,1.05468751 1.00781246,1.72265626 2.06249996,1.72265626 1.125,0 2.0625,-0.83203125 2.0625,-1.89843746 0,-0.3515625 -0.1054687,-0.8085938 -0.4804687,-1.21875 -0.1875,-0.2109375 -0.3515625,-0.3164063 -0.984375,-0.7148438 z m -0.9960938,0.421875 1.21875,0.7734375 c 0.28125,0.1875 0.75,0.4921875 0.75,1.1015625 0,0.73828126 -0.75,1.25390626 -1.5585937,1.25390626 -0.8671875,0 -1.58203126,-0.62109375 -1.58203126,-1.44140626 0,-0.5859375 0.31640626,-1.21875 1.17187496,-1.6875 z m 0,0"
       style="fill:#ffffff;fill-opacity:1;fill-rule:nonzero;stroke:none"
       aria-label="8"
       transform="matrix(1.3333333,0,0,1.3333333,64.361333,114.152)" />
    <path
       id="path18"
       d="m 1.6280938,-4.5466172 c -0.46875,-0.3046875 -0.5039063,-0.6445312 -0.5039063,-0.8085937 0,-0.609375 0.6445313,-1.03125 1.359375,-1.03125 0.7265625,0 1.359375,0.515625 1.359375,1.2421875 0,0.5625 -0.3867187,1.0429687 -0.984375,1.3945312 z m 1.453125,0.9375 C 3.7960625,-3.9723984 4.28825,-4.4880234 4.28825,-5.1442734 c 0,-0.9257813 -0.890625,-1.4882813 -1.7929687,-1.4882813 -0.9960938,0 -1.80468755,0.7382813 -1.80468755,1.6640625 0,0.1757813 0.0117188,0.6210938 0.43359375,1.0898438 0.1054688,0.1289062 0.4804688,0.375 0.7265625,0.5390625 -0.5742187,0.2929687 -1.4296875,0.84375 -1.4296875,1.8398437 0,1.05468751 1.0078125,1.72265626 2.0625,1.72265626 1.125,0 2.0625,-0.83203125 2.0625,-1.89843746 0,-0.3515625 -0.1054687,-0.8085938 -0.4804687,-1.21875 -0.1875,-0.2109375 -0.3515625,-0.3164063 -0.984375,-0.7148438 z m -0.9960938,0.421875 1.21875,0.7734375 c 0.28125,0.1875 0.75,0.4921875 0.75,1.1015625 0,0.73828126 -0.75,1.25390626 -1.5585937,1.25390626 -0.8671875,0 -1.5820313,-0.62109375 -1.5820313,-1.44140626 0,-0.5859375 0.3164063,-1.21875 1.171875,-1.6875 z m 0,0"
       style="fill:#ffffff;fill-opacity:1;fill-rule:nonzero;stroke:none"
       aria-label="8"
       transform="matrix(1.3333333,0,0,1.3333333,102.15733,114.152)" />
    <path
       id="path19"
       d="M 1.62975,-4.5466172 C 1.161,-4.8513047 1.1258438,-5.1911484 1.1258438,-5.3552109 c 0,-0.609375 0.6445312,-1.03125 1.359375,-1.03125 0.7265625,0 1.359375,0.515625 1.359375,1.2421875 0,0.5625 -0.3867188,1.0429687 -0.984375,1.3945312 z m 1.453125,0.9375 c 0.7148438,-0.3632812 1.2070313,-0.8789062 1.2070313,-1.5351562 0,-0.9257813 -0.890625,-1.4882813 -1.7929688,-1.4882813 -0.9960937,0 -1.8046875,0.7382813 -1.8046875,1.6640625 0,0.1757813 0.0117188,0.6210938 0.4335938,1.0898438 0.1054687,0.1289062 0.4804687,0.375 0.7265625,0.5390625 -0.5742188,0.2929687 -1.42968755,0.84375 -1.42968755,1.8398437 0,1.05468751 1.00781255,1.72265626 2.06250005,1.72265626 1.125,0 2.0625,-0.83203125 2.0625,-1.89843746 0,-0.3515625 -0.1054688,-0.8085938 -0.4804688,-1.21875 -0.1875,-0.2109375 -0.3515625,-0.3164063 -0.984375,-0.7148438 z m -0.9960937,0.421875 1.21875,0.7734375 c 0.28125,0.1875 0.75,0.4921875 0.75,1.1015625 0,0.73828126 -0.75,1.25390626 -1.5585938,1.25390626 -0.8671875,0 -1.58203125,-0.62109375 -1.58203125,-1.44140626 0,-0.5859375 0.31640625,-1.21875 1.17187505,-1.6875 z m 0,0"
       style="fill:#ffffff;fill-opacity:1;fill-rule:nonzero;stroke:none"
       aria-label="8"
       transform="matrix(1.3333333,0,0,1.3333333,139.952,114.152)" />
    <path
       id="path20"
       d="m 1.6274766,-4.5466172 c -0.46875,-0.3046875 -0.5039063,-0.6445312 -0.5039063,-0.8085937 0,-0.609375 0.6445313,-1.03125 1.359375,-1.03125 0.7265625,0 1.359375,0.515625 1.359375,1.2421875 0,0.5625 -0.3867187,1.0429687 -0.984375,1.3945312 z m 1.453125,0.9375 c 0.7148437,-0.3632812 1.2070312,-0.8789062 1.2070312,-1.5351562 0,-0.9257813 -0.890625,-1.4882813 -1.7929687,-1.4882813 -0.9960938,0 -1.80468754,0.7382813 -1.80468754,1.6640625 0,0.1757813 0.0117188,0.6210938 0.43359374,1.0898438 0.1054688,0.1289062 0.4804688,0.375 0.7265625,0.5390625 -0.5742187,0.2929687 -1.42968749,0.84375 -1.42968749,1.8398437 0,1.05468751 1.00781249,1.72265626 2.06249999,1.72265626 1.125,0 2.0625,-0.83203125 2.0625,-1.89843746 0,-0.3515625 -0.1054687,-0.8085938 -0.4804687,-1.21875 -0.1875,-0.2109375 -0.3515625,-0.3164063 -0.984375,-0.7148438 z m -0.9960938,0.421875 1.21875,0.7734375 c 0.28125,0.1875 0.75,0.4921875 0.75,1.1015625 0,0.73828126 -0.75,1.25390626 -1.5585937,1.25390626 -0.8671875,0 -1.58203129,-0.62109375 -1.58203129,-1.44140626 0,-0.5859375 0.31640629,-1.21875 1.17187499,-1.6875 z m 0,0"
       style="fill:#ffffff;fill-opacity:1;fill-rule:nonzero;stroke:none"
       aria-label="8"
       transform="matrix(1.3333333,0,0,1.3333333,177.748,114.152)" />
    <path
       id="path21"
       d="m 2.9303203,-1.6411406 v 0.86718748 c 0,0.3515625 -0.023437,0.46875 -0.7617187,0.46875 H 1.9576641 v 0.304687495 c 0.4101562,-0.035156245 0.9375,-0.035156245 1.3476562,-0.035156245 0.421875,0 0.9492188,0 1.359375,0.035156245 V -0.30520312 H 4.4537578 c -0.7382812,0 -0.7617187,-0.1171875 -0.7617187,-0.46875 V -1.6411406 H 4.6881328 V -1.9575469 H 3.6920391 v -4.5234375 c 0,-0.1992187 0,-0.2578125 -0.1523438,-0.2578125 -0.09375,0 -0.1171875,0 -0.1992187,0.1171875 l -3.05859379,4.6640625 v 0.3164063 z m 0.058594,-0.3164063 H 0.56313281 L 2.9889141,-5.6723906 Z m 0,0"
       style="fill:#ffffff;fill-opacity:1;fill-rule:nonzero;stroke:none"
       aria-label="4"
       transform="matrix(1.3333333,0,0,1.3333333,45.464,87.696)" />
    <path
       id="path22"
       d="m 1.3137891,-3.2681094 v -0.234375 c 0,-2.5195312 1.2421875,-2.8828125 1.7460937,-2.8828125 0.234375,0 0.65625,0.058594 0.8789063,0.3984375 -0.1523438,0 -0.5507813,0 -0.5507813,0.4453125 0,0.3164063 0.234375,0.4570313 0.4570313,0.4570313 0.1640625,0 0.4570312,-0.082031 0.4570312,-0.46875 0,-0.5976563 -0.4335937,-1.078125 -1.265625,-1.078125 -1.2773437,0 -2.61328124,1.2890625 -2.61328124,3.4804687 0,2.66015627 1.14843754,3.37500002 2.07421874,3.37500002 1.1132813,0 2.0507813,-0.9375 2.0507813,-2.25000002 0,-1.265625 -0.8789063,-2.2265625 -1.9921875,-2.2265625 -0.6679688,0 -1.0429688,0.5039063 -1.2421875,0.984375 z m 1.1835937,3.21093752 c -0.6210937,0 -0.9257812,-0.59765625 -0.984375,-0.75 C 1.3372266,-1.2759219 1.3372266,-2.0727969 1.3372266,-2.2485781 c 0,-0.7734375 0.3164062,-1.7695313 1.21875,-1.7695313 0.1523437,0 0.609375,0 0.9257812,0.609375 0.1757813,0.375 0.1757813,0.8789063 0.1757813,1.3710938 0,0.4804687 0,0.9726562 -0.1640625,1.33593747 -0.3046875,0.59765625 -0.7617188,0.64453125 -0.9960938,0.64453125 z m 0,0"
       style="fill:#ffffff;fill-opacity:1;fill-rule:nonzero;stroke:none"
       aria-label="6"
       transform="matrix(1.3333333,0,0,1.3333333,83.26,91.474667)" />
    <path
       id="path23"
       d="m 1.6289219,-4.5454531 c -0.46875,-0.3046875 -0.5039063,-0.6445313 -0.5039063,-0.8085938 0,-0.609375 0.6445313,-1.03125 1.359375,-1.03125 0.7265625,0 1.359375,0.515625 1.359375,1.2421875 0,0.5625 -0.3867187,1.0429688 -0.984375,1.3945313 z m 1.453125,0.9375 c 0.7148437,-0.3632813 1.2070312,-0.8789063 1.2070312,-1.5351563 0,-0.9257812 -0.890625,-1.4882812 -1.7929687,-1.4882812 -0.9960938,0 -1.80468752,0.7382812 -1.80468752,1.6640625 0,0.1757812 0.0117188,0.6210937 0.43359372,1.0898437 0.1054688,0.1289063 0.4804688,0.375 0.7265625,0.5390625 -0.5742187,0.2929688 -1.42968747,0.84375 -1.42968747,1.8398438 0,1.05468747 1.00781247,1.72265622 2.06249997,1.72265622 1.125,0 2.0625,-0.83203125 2.0625,-1.89843752 0,-0.3515625 -0.1054687,-0.8085937 -0.4804687,-1.21875 -0.1875,-0.2109375 -0.3515625,-0.3164062 -0.984375,-0.7148437 z m -0.9960938,0.421875 1.21875,0.7734375 c 0.28125,0.1875 0.75,0.4921875 0.75,1.1015625 0,0.73828122 -0.75,1.25390622 -1.5585937,1.25390622 -0.8671875,0 -1.58203127,-0.62109375 -1.58203127,-1.44140622 0,-0.5859375 0.31640627,-1.21875 1.17187497,-1.6875 z m 0,0"
       style="fill:#ffffff;fill-opacity:1;fill-rule:nonzero;stroke:none"
       aria-label="8"
       transform="matrix(1.3333333,0,0,1.3333333,121.05467,91.474667)" />
    <path
       id="path24"
       d="m 1.6276484,-4.5454531 c -0.46875,-0.3046875 -0.5039062,-0.6445313 -0.5039062,-0.8085938 0,-0.609375 0.6445312,-1.03125 1.359375,-1.03125 0.7265625,0 1.359375,0.515625 1.359375,1.2421875 0,0.5625 -0.3867188,1.0429688 -0.984375,1.3945313 z m 1.453125,0.9375 c 0.7148438,-0.3632813 1.2070313,-0.8789063 1.2070313,-1.5351563 0,-0.9257812 -0.890625,-1.4882812 -1.7929688,-1.4882812 -0.9960937,0 -1.80468746,0.7382812 -1.80468746,1.6640625 0,0.1757812 0.0117188,0.6210937 0.43359376,1.0898437 0.1054687,0.1289063 0.4804687,0.375 0.7265625,0.5390625 -0.5742188,0.2929688 -1.42968751,0.84375 -1.42968751,1.8398438 0,1.05468747 1.00781251,1.72265622 2.06250001,1.72265622 1.125,0 2.0625,-0.83203125 2.0625,-1.89843752 0,-0.3515625 -0.1054688,-0.8085937 -0.4804688,-1.21875 -0.1875,-0.2109375 -0.3515625,-0.3164062 -0.984375,-0.7148437 z m -0.9960937,0.421875 1.21875,0.7734375 c 0.28125,0.1875 0.75,0.4921875 0.75,1.1015625 0,0.73828122 -0.75,1.25390622 -1.5585938,1.25390622 -0.8671875,0 -1.58203121,-0.62109375 -1.58203121,-1.44140622 0,-0.5859375 0.31640621,-1.21875 1.17187501,-1.6875 z m 0,0"
       style="fill:#ffffff;fill-opacity:1;fill-rule:nonzero;stroke:none"
       aria-label="8"
       transform="matrix(1.3333333,0,0,1.3333333,158.84933,91.474667)" />
    <path
       id="path25"
       d="m 1.6283047,-4.5454531 c -0.46875,-0.3046875 -0.5039063,-0.6445313 -0.5039063,-0.8085938 0,-0.609375 0.6445313,-1.03125 1.359375,-1.03125 0.7265625,0 1.359375,0.515625 1.359375,1.2421875 0,0.5625 -0.3867187,1.0429688 -0.984375,1.3945313 z m 1.453125,0.9375 c 0.7148437,-0.3632813 1.2070312,-0.8789063 1.2070312,-1.5351563 0,-0.9257812 -0.890625,-1.4882812 -1.7929687,-1.4882812 -0.9960938,0 -1.80468751,0.7382812 -1.80468751,1.6640625 0,0.1757812 0.0117188,0.6210937 0.43359371,1.0898437 0.1054688,0.1289063 0.4804688,0.375 0.7265625,0.5390625 -0.5742187,0.2929688 -1.42968746,0.84375 -1.42968746,1.8398438 0,1.05468747 1.00781246,1.72265622 2.06249996,1.72265622 1.125,0 2.0625,-0.83203125 2.0625,-1.89843752 0,-0.3515625 -0.1054687,-0.8085937 -0.4804687,-1.21875 -0.1875,-0.2109375 -0.3515625,-0.3164062 -0.984375,-0.7148437 z m -0.9960938,0.421875 1.21875,0.7734375 c 0.28125,0.1875 0.75,0.4921875 0.75,1.1015625 0,0.73828122 -0.75,1.25390622 -1.5585937,1.25390622 -0.8671875,0 -1.58203126,-0.62109375 -1.58203126,-1.44140622 0,-0.5859375 0.31640626,-1.21875 1.17187496,-1.6875 z m 0,0"
       style="fill:#ffffff;fill-opacity:1;fill-rule:nonzero;stroke:none"
       aria-label="8"
       transform="matrix(1.3333333,0,0,1.3333333,196.64533,91.474667)" />
    <path
       id="path26"
       d="m 1.9112109,-0.52782031 c 0,-0.29296875 -0.234375,-0.52734379 -0.5273437,-0.52734379 -0.28125,0 -0.52734376,0.23437504 -0.52734376,0.52734379 0,0.29296875 0.24609376,0.5273437475 0.52734376,0.5273437475 0.2929687,0 0.5273437,-0.2343749975 0.5273437,-0.5273437475 z m 0,3.98437501 c 0,-0.2929688 -0.234375,-0.5273438 -0.5273437,-0.5273438 -0.28125,0 -0.52734376,0.234375 -0.52734376,0.5273438 0,0.2929687 0.24609376,0.5273437 0.52734376,0.5273437 0.2929687,0 0.5273437,-0.234375 0.5273437,-0.5273437 z m 0,3.9873047 c 0,-0.2929688 -0.234375,-0.5273438 -0.5273437,-0.5273438 -0.28125,0 -0.52734376,0.234375 -0.52734376,0.5273438 0,0.2929687 0.24609376,0.5273437 0.52734376,0.5273437 0.2929687,0 0.5273437,-0.234375 0.5273437,-0.5273437 z m 0,0"
       style="fill:#ffffff;fill-opacity:1;fill-rule:nonzero;stroke:none"
       aria-label=".&#10;.&#10;."
       transform="matrix(1.3333333,0,0,1.3333333,46.94,120.58267)" />
    <path
       id="path27"
       d="m 1.9089375,-0.52782031 c 0,-0.29296875 -0.234375,-0.52734379 -0.5273437,-0.52734379 -0.28125,0 -0.5273438,0.23437504 -0.5273438,0.52734379 0,0.29296875 0.2460938,0.5273437475 0.5273438,0.5273437475 0.2929687,0 0.5273437,-0.2343749975 0.5273437,-0.5273437475 z m 0,3.98437501 c 0,-0.2929688 -0.234375,-0.5273438 -0.5273437,-0.5273438 -0.28125,0 -0.5273438,0.234375 -0.5273438,0.5273438 0,0.2929687 0.2460938,0.5273437 0.5273438,0.5273437 0.2929687,0 0.5273437,-0.234375 0.5273437,-0.5273437 z m 0,3.9873047 c 0,-0.2929688 -0.234375,-0.5273438 -0.5273437,-0.5273438 -0.28125,0 -0.5273438,0.234375 -0.5273438,0.5273438 0,0.2929687 0.2460938,0.5273437 0.5273438,0.5273437 0.2929687,0 0.5273437,-0.234375 0.5273437,-0.5273437 z m 0,0"
       style="fill:#ffffff;fill-opacity:1;fill-rule:nonzero;stroke:none"
       aria-label=".&#10;.&#10;."
       transform="matrix(1.3333333,0,0,1.3333333,84.736,120.58267)" />
    <path
       id="path28"
       d="m 1.9105938,-0.52782031 c 0,-0.29296875 -0.234375,-0.52734379 -0.5273438,-0.52734379 -0.28125,0 -0.52734375,0.23437504 -0.52734375,0.52734379 0,0.29296875 0.24609375,0.5273437475 0.52734375,0.5273437475 0.2929688,0 0.5273438,-0.2343749975 0.5273438,-0.5273437475 z m 0,3.98437501 c 0,-0.2929688 -0.234375,-0.5273438 -0.5273438,-0.5273438 -0.28125,0 -0.52734375,0.234375 -0.52734375,0.5273438 0,0.2929687 0.24609375,0.5273437 0.52734375,0.5273437 0.2929688,0 0.5273438,-0.234375 0.5273438,-0.5273437 z m 0,3.9873047 c 0,-0.2929688 -0.234375,-0.5273438 -0.5273438,-0.5273438 -0.28125,0 -0.52734375,0.234375 -0.52734375,0.5273438 0,0.2929687 0.24609375,0.5273437 0.52734375,0.5273437 0.2929688,0 0.5273438,-0.234375 0.5273438,-0.5273437 z m 0,0"
       style="fill:#ffffff;fill-opacity:1;fill-rule:nonzero;stroke:none"
       aria-label=".&#10;.&#10;."
       transform="matrix(1.3333333,0,0,1.3333333,122.53067,120.58267)" />
    <path
       id="path29"
       d="m 1.9093203,-0.52782031 c 0,-0.29296875 -0.234375,-0.52734379 -0.5273437,-0.52734379 -0.28125,0 -0.52734379,0.23437504 -0.52734379,0.52734379 0,0.29296875 0.24609379,0.5273437475 0.52734379,0.5273437475 0.2929687,0 0.5273437,-0.2343749975 0.5273437,-0.5273437475 z m 0,3.98437501 c 0,-0.2929688 -0.234375,-0.5273438 -0.5273437,-0.5273438 -0.28125,0 -0.52734379,0.234375 -0.52734379,0.5273438 0,0.2929687 0.24609379,0.5273437 0.52734379,0.5273437 0.2929687,0 0.5273437,-0.234375 0.5273437,-0.5273437 z m 0,3.9873047 c 0,-0.2929688 -0.234375,-0.5273438 -0.5273437,-0.5273438 -0.28125,0 -0.52734379,0.234375 -0.52734379,0.5273438 0,0.2929687 0.24609379,0.5273437 0.52734379,0.5273437 0.2929687,0 0.5273437,-0.234375 0.5273437,-0.5273437 z m 0,0"
       style="fill:#ffffff;fill-opacity:1;fill-rule:nonzero;stroke:none"
       aria-label=".&#10;.&#10;."
       transform="matrix(1.3333333,0,0,1.3333333,160.32533,120.58267)" />
    <path
       id="path30"
       d="m 1.9099766,-0.52782031 c 0,-0.29296875 -0.234375,-0.52734379 -0.5273438,-0.52734379 -0.28125,0 -0.52734374,0.23437504 -0.52734374,0.52734379 0,0.29296875 0.24609374,0.5273437475 0.52734374,0.5273437475 0.2929688,0 0.5273438,-0.2343749975 0.5273438,-0.5273437475 z m 0,3.98437501 c 0,-0.2929688 -0.234375,-0.5273438 -0.5273438,-0.5273438 -0.28125,0 -0.52734374,0.234375 -0.52734374,0.5273438 0,0.2929687 0.24609374,0.5273437 0.52734374,0.5273437 0.2929688,0 0.5273438,-0.234375 0.5273438,-0.5273437 z m 0,3.9873047 c 0,-0.2929688 -0.234375,-0.5273438 -0.5273438,-0.5273438 -0.28125,0 -0.52734374,0.234375 -0.52734374,0.5273438 0,0.2929687 0.24609374,0.5273437 0.52734374,0.5273437 0.2929688,0 0.5273438,-0.234375 0.5273438,-0.5273437 z m 0,0"
       style="fill:#ffffff;fill-opacity:1;fill-rule:nonzero;stroke:none"
       aria-label=".&#10;.&#10;."
       transform="matrix(1.3333333,0,0,1.3333333,198.12133,120.58267)" />
    <path
       id="path31"
       d="m 1.9112109,-0.52782031 c 0,-0.29296875 -0.234375,-0.52734379 -0.5273437,-0.52734379 -0.28125,0 -0.52734376,0.23437504 -0.52734376,0.52734379 0,0.29296875 0.24609376,0.5273437475 0.52734376,0.5273437475 0.2929687,0 0.5273437,-0.2343749975 0.5273437,-0.5273437475 z m 0,3.98437501 c 0,-0.2929688 -0.234375,-0.5273438 -0.5273437,-0.5273438 -0.28125,0 -0.52734376,0.234375 -0.52734376,0.5273438 0,0.2929687 0.24609376,0.5273437 0.52734376,0.5273437 0.2929687,0 0.5273437,-0.234375 0.5273437,-0.5273437 z m 0,3.9873047 c 0,-0.2929688 -0.234375,-0.5273438 -0.5273437,-0.5273438 -0.28125,0 -0.52734376,0.234375 -0.52734376,0.5273438 0,0.2929687 0.24609376,0.5273437 0.52734376,0.5273437 0.2929687,0 0.5273437,-0.234375 0.5273437,-0.5273437 z m 0,0"
       style="fill:#ffffff;fill-opacity:1;fill-rule:nonzero;stroke:none"
       aria-label=".&#10;.&#10;."
       transform="matrix(1.3333333,0,0,1.3333333,46.94,120.58267)" />
    <path
       id="path32"
       d="m 4.582875,-3.1874531 c 0,-0.796875 -0.046875,-1.59375 -0.3984375,-2.3320313 -0.4570312,-0.9609375 -1.2773437,-1.1132812 -1.6875,-1.1132812 -0.5976562,0 -1.3359375,0.2578125 -1.734375,1.1835937 -0.328125,0.6914063 -0.375,1.4648438 -0.375,2.2617188 0,0.75 0.046875,1.640625 0.4453125,2.40234372 0.4335938,0.80859375 1.1601563,1.0078125 1.6523438,1.0078125 0.5390625,0 1.2890625,-0.2109375 1.734375,-1.16015625 C 4.536,-1.6288594 4.582875,-2.4022969 4.582875,-3.1874531 Z M 2.4852188,4.6875e-5 C 2.0985,4.6875e-5 1.5008438,-0.24604688 1.3250625,-1.2069844 1.2195938,-1.8046406 1.2195938,-2.7187031 1.2195938,-3.3046406 c 0,-0.6445313 0,-1.3007813 0.082031,-1.8398438 0.1875,-1.1835937 0.9257813,-1.265625 1.1835938,-1.265625 0.328125,0 0.984375,0.1757813 1.171875,1.1601563 0.09375,0.5625 0.09375,1.3125 0.09375,1.9453125 0,0.75 0,1.4179687 -0.1054688,2.0625 C 3.4930313,-0.30464063 2.9305313,4.6875e-5 2.4852188,4.6875e-5 Z m 0,0"
       style="fill:#ffffff;fill-opacity:1;fill-rule:nonzero;stroke:none"
       aria-label="0"
       transform="matrix(1.3333333,0,0,1.3333333,139.952,19.664)" />
    <path
       id="path33"
       d="m 4.5812188,-3.1874531 c 0,-0.796875 -0.046875,-1.59375 -0.3984375,-2.3320313 -0.4570313,-0.9609375 -1.2773438,-1.1132812 -1.6875,-1.1132812 -0.5976563,0 -1.3359375,0.2578125 -1.73437505,1.1835937 -0.328125,0.6914063 -0.375,1.4648438 -0.375,2.2617188 0,0.75 0.046875,1.640625 0.4453125,2.40234372 0.43359375,0.80859375 1.16015625,1.0078125 1.65234375,1.0078125 0.5390625,0 1.2890625,-0.2109375 1.734375,-1.16015625 C 4.5343438,-1.6288594 4.5812188,-2.4022969 4.5812188,-3.1874531 Z M 2.4835625,4.6875e-5 c -0.3867187,0 -0.984375,-0.246093755 -1.1601562,-1.207031275 -0.1054688,-0.5976562 -0.1054688,-1.5117187 -0.1054688,-2.0976562 0,-0.6445313 0,-1.3007813 0.082031,-1.8398438 0.1875,-1.1835937 0.9257812,-1.265625 1.1835937,-1.265625 0.328125,0 0.984375,0.1757813 1.171875,1.1601563 0.09375,0.5625 0.09375,1.3125 0.09375,1.9453125 0,0.75 0,1.4179687 -0.1054687,2.0625 C 3.491375,-0.30464063 2.928875,4.6875e-5 2.4835625,4.6875e-5 Z m 0,0"
       style="fill:#ffffff;fill-opacity:1;fill-rule:nonzero;stroke:none"
       aria-label="0"
       transform="matrix(1.3333333,0,0,1.3333333,102.15733,19.664)" />
    <path
       id="path34"
       d="m 4.5834922,-3.1874531 c 0,-0.796875 -0.046875,-1.59375 -0.3984375,-2.3320313 -0.4570313,-0.9609375 -1.2773438,-1.1132812 -1.6875,-1.1132812 -0.5976563,0 -1.3359375,0.2578125 -1.73437501,1.1835937 -0.328125,0.6914063 -0.375,1.4648438 -0.375,2.2617188 0,0.75 0.046875,1.640625 0.4453125,2.40234372 0.43359371,0.80859375 1.16015621,1.0078125 1.65234371,1.0078125 0.5390625,0 1.2890625,-0.2109375 1.734375,-1.16015625 C 4.5366172,-1.6288594 4.5834922,-2.4022969 4.5834922,-3.1874531 Z M 2.4858359,4.6875e-5 c -0.3867187,0 -0.984375,-0.246093755 -1.1601562,-1.207031275 -0.1054688,-0.5976562 -0.1054688,-1.5117187 -0.1054688,-2.0976562 0,-0.6445313 0,-1.3007813 0.082031,-1.8398438 0.1875,-1.1835937 0.9257812,-1.265625 1.1835937,-1.265625 0.328125,0 0.984375,0.1757813 1.171875,1.1601563 0.09375,0.5625 0.09375,1.3125 0.09375,1.9453125 0,0.75 0,1.4179687 -0.1054687,2.0625 C 3.4936484,-0.30464063 2.9311484,4.6875e-5 2.4858359,4.6875e-5 Z m 0,0"
       style="fill:#ffffff;fill-opacity:1;fill-rule:nonzero;stroke:none"
       aria-label="0"
       transform="matrix(1.3333333,0,0,1.3333333,64.361333,19.664)" />
    <path
       id="path35"
       d="m 4.5818359,-3.1874531 c 0,-0.796875 -0.046875,-1.59375 -0.3984375,-2.3320313 -0.4570312,-0.9609375 -1.2773437,-1.1132812 -1.6875,-1.1132812 -0.5976562,0 -1.3359375,0.2578125 -1.73437496,1.1835937 -0.328125,0.6914063 -0.375,1.4648438 -0.375,2.2617188 0,0.75 0.046875,1.640625 0.4453125,2.40234372 0.43359376,0.80859375 1.16015626,1.0078125 1.65234376,1.0078125 0.5390625,0 1.2890625,-0.2109375 1.734375,-1.16015625 C 4.5349609,-1.6288594 4.5818359,-2.4022969 4.5818359,-3.1874531 Z M 2.4841797,4.6875e-5 c -0.3867188,0 -0.984375,-0.246093755 -1.1601563,-1.207031275 -0.1054687,-0.5976562 -0.1054687,-1.5117187 -0.1054687,-2.0976562 0,-0.6445313 0,-1.3007813 0.082031,-1.8398438 0.1875,-1.1835937 0.9257813,-1.265625 1.1835938,-1.265625 0.328125,0 0.984375,0.1757813 1.171875,1.1601563 0.09375,0.5625 0.09375,1.3125 0.09375,1.9453125 0,0.75 0,1.4179687 -0.1054688,2.0625 C 3.4919922,-0.30464063 2.9294922,4.6875e-5 2.4841797,4.6875e-5 Z m 0,0"
       style="fill:#ffffff;fill-opacity:1;fill-rule:nonzero;stroke:none"
       aria-label="0"
       transform="matrix(1.3333333,0,0,1.3333333,26.566667,19.664)" />
    <path
       id="path36"
       d="m 4.5820469,-3.1886172 c 0,-0.796875 -0.046875,-1.59375 -0.3984375,-2.3320312 -0.4570313,-0.9609375 -1.2773438,-1.1132813 -1.6875,-1.1132813 -0.5976563,0 -1.3359375,0.2578125 -1.73437502,1.1835938 -0.328125,0.6914062 -0.375,1.4648437 -0.375,2.2617187 0,0.75 0.046875,1.640625 0.4453125,2.40234376 0.43359372,0.80859375 1.16015622,1.0078125 1.65234372,1.0078125 0.5390625,0 1.2890625,-0.2109375 1.734375,-1.16015625 C 4.5351719,-1.6300234 4.5820469,-2.4034609 4.5820469,-3.1886172 Z m -2.0976563,3.18750001 c -0.3867187,0 -0.984375,-0.24609375 -1.1601562,-1.20703121 -0.1054688,-0.5976563 -0.1054688,-1.5117188 -0.1054688,-2.0976563 0,-0.6445312 0,-1.3007812 0.082031,-1.8398437 0.1875,-1.1835938 0.9257812,-1.265625 1.1835937,-1.265625 0.328125,0 0.984375,0.1757812 1.171875,1.1601562 0.09375,0.5625 0.09375,1.3125 0.09375,1.9453125 0,0.75 0,1.4179688 -0.1054687,2.0625 -0.1523438,0.93750001 -0.7148438,1.24218751 -1.160156,1.24218751 z m 0,0"
       style="fill:#ffffff;fill-opacity:1;fill-rule:nonzero;stroke:none"
       aria-label="0"
       transform="matrix(1.3333333,0,0,1.3333333,121.05467,42.341333)" />
    <path
       id="path37"
       d="m 4.5833203,-3.1886172 c 0,-0.796875 -0.046875,-1.59375 -0.3984375,-2.3320312 -0.4570312,-0.9609375 -1.2773437,-1.1132813 -1.6875,-1.1132813 -0.5976562,0 -1.3359375,0.2578125 -1.73437499,1.1835938 -0.328125,0.6914062 -0.375,1.4648437 -0.375,2.2617187 0,0.75 0.046875,1.640625 0.4453125,2.40234376 0.43359379,0.80859375 1.16015629,1.0078125 1.65234379,1.0078125 0.5390625,0 1.2890625,-0.2109375 1.734375,-1.16015625 C 4.5364453,-1.6300234 4.5833203,-2.4034609 4.5833203,-3.1886172 Z m -2.0976562,3.18750001 c -0.3867188,0 -0.984375,-0.24609375 -1.1601563,-1.20703121 -0.1054687,-0.5976563 -0.1054687,-1.5117188 -0.1054687,-2.0976563 0,-0.6445312 0,-1.3007812 0.082031,-1.8398437 0.1875,-1.1835938 0.9257813,-1.265625 1.1835938,-1.265625 0.328125,0 0.984375,0.1757812 1.171875,1.1601562 0.09375,0.5625 0.09375,1.3125 0.09375,1.9453125 0,0.75 0,1.4179688 -0.1054688,2.0625 -0.1523437,0.93750001 -0.7148437,1.24218751 -1.160156,1.24218751 z m 0,0"
       style="fill:#ffffff;fill-opacity:1;fill-rule:nonzero;stroke:none"
       aria-label="0"
       transform="matrix(1.3333333,0,0,1.3333333,83.26,42.341333)" />
    <path
       id="path38"
       d="m 4.5826641,-3.1886172 c 0,-0.796875 -0.046875,-1.59375 -0.3984375,-2.3320312 -0.4570313,-0.9609375 -1.2773438,-1.1132813 -1.6875,-1.1132813 -0.5976563,0 -1.3359375,0.2578125 -1.73437504,1.1835938 -0.328125,0.6914062 -0.375,1.4648437 -0.375,2.2617187 0,0.75 0.046875,1.640625 0.4453125,2.40234376 0.43359374,0.80859375 1.16015624,1.0078125 1.65234374,1.0078125 0.5390625,0 1.2890625,-0.2109375 1.734375,-1.16015625 C 4.5357891,-1.6300234 4.5826641,-2.4034609 4.5826641,-3.1886172 Z m -2.0976563,3.18750001 c -0.3867187,0 -0.984375,-0.24609375 -1.1601562,-1.20703121 -0.1054688,-0.5976563 -0.1054688,-1.5117188 -0.1054688,-2.0976563 0,-0.6445312 0,-1.3007812 0.082031,-1.8398437 0.1875,-1.1835938 0.9257812,-1.265625 1.1835937,-1.265625 0.328125,0 0.984375,0.1757812 1.171875,1.1601562 0.09375,0.5625 0.09375,1.3125 0.09375,1.9453125 0,0.75 0,1.4179688 -0.1054687,2.0625 C 3.49282,-0.30580469 2.93032,-0.00111719 2.4850078,-0.00111719 Z m 0,0"
       style="fill:#ffffff;fill-opacity:1;fill-rule:nonzero;stroke:none"
       aria-label="0"
       transform="matrix(1.3333333,0,0,1.3333333,45.464,42.341333)" />
    <path
       id="path39"
       d="m 4.5818359,-3.1877891 c 0,-0.796875 -0.046875,-1.59375 -0.3984375,-2.3320312 -0.4570312,-0.9609375 -1.2773437,-1.1132813 -1.6875,-1.1132813 -0.5976562,0 -1.3359375,0.2578125 -1.73437496,1.1835938 -0.328125,0.6914062 -0.375,1.4648437 -0.375,2.2617187 0,0.75 0.046875,1.640625 0.4453125,2.40234379 0.43359376,0.80859375 1.16015626,1.0078125 1.65234376,1.0078125 0.5390625,0 1.2890625,-0.2109375 1.734375,-1.16015625 C 4.5349609,-1.6291953 4.5818359,-2.4026328 4.5818359,-3.1877891 Z M 2.4841797,-2.890625e-4 c -0.3867188,0 -0.984375,-0.2460937475 -1.1601563,-1.2070312375 -0.1054687,-0.5976563 -0.1054687,-1.5117188 -0.1054687,-2.0976563 0,-0.6445312 0,-1.3007812 0.082031,-1.8398437 0.1875,-1.1835938 0.9257813,-1.265625 1.1835938,-1.265625 0.328125,0 0.984375,0.1757812 1.171875,1.1601562 0.09375,0.5625 0.09375,1.3125 0.09375,1.9453125 0,0.75 0,1.4179688 -0.1054688,2.0625 C 3.491992,-0.30497656 2.929492,-2.890625e-4 2.4841797,-2.890625e-4 Z m 0,0"
       style="fill:#ffffff;fill-opacity:1;fill-rule:nonzero;stroke:none"
       aria-label="0"
       transform="matrix(1.3333333,0,0,1.3333333,26.566667,61.238667)" />
  </g>
</svg>
