<?xml version="1.0" encoding="UTF-8" standalone="no"?>
<!-- Created with Inkscape (http://www.inkscape.org/) -->

<svg
   version="1.1"
   id="svg1"
   width="103.416"
   height="103.73467"
   viewBox="0 0 103.416 103.73467"
   xmlns="http://www.w3.org/2000/svg"
   xmlns:svg="http://www.w3.org/2000/svg">
  <defs
     id="defs1" />
  <g
     id="g1">
    <path
       id="path1"
       d="m 2.9297266,-6.3747891 c 0,-0.234375 0,-0.2578125 -0.234375,-0.2578125 -0.609375,0.6328125 -1.4882813,0.6328125 -1.80468754,0.6328125 v 0.3164063 c 0.19921874,0 0.78515624,0 1.30078124,-0.2578125 v 5.15624999 c 0,0.3515625 -0.035156,0.48046875 -0.9257812,0.48046875 H 0.94925781 V 2.109375e-4 C 1.3008203,-0.03494531 2.1562891,-0.03494531 2.5547266,-0.03494531 c 0.3984375,0 1.265625,0 1.6171875,0.0351562475 V -0.30447656 H 3.8555078 c -0.9023437,0 -0.9257812,-0.1171875 -0.9257812,-0.48046875 z m 0,0"
       style="fill:#ffffff;fill-opacity:1;fill-rule:nonzero;stroke:none"
       aria-label="1"
       transform="matrix(1.3333333,0,0,1.3333333,48.386667,12.988)" />
    <path
       id="path2"
       d="m 4.4778281,-2.0033125 c 0,-1.1835937 -0.8203125,-2.1796875 -1.8984375,-2.1796875 -0.4804687,0 -0.9023437,0.1640625 -1.265625,0.5039063 v -1.9335938 c 0.1992188,0.058594 0.5273438,0.1289063 0.84375,0.1289063 1.2304688,0 1.9335938,-0.9140625 1.9335938,-1.0429688 0,-0.058594 -0.035156,-0.1054687 -0.1054688,-0.1054687 -0.011719,0 -0.035156,0 -0.082031,0.023437 -0.1992188,0.09375 -0.6796875,0.2929687 -1.3476563,0.2929687 -0.3984375,0 -0.8554687,-0.070312 -1.3242187,-0.28125 C 1.1497031,-6.6205 1.1262656,-6.6205 1.1028281,-6.6205 c -0.09375,0 -0.09375,0.082031 -0.09375,0.234375 V -3.433 c 0,0.1757813 0,0.2578125 0.140625,0.2578125 0.070312,0 0.082031,-0.035156 0.1289063,-0.09375 0.1054687,-0.1523437 0.4804687,-0.6914063 1.2773437,-0.6914063 0.5273438,0 0.7734375,0.4570313 0.8554688,0.6328126 0.1523437,0.3749999 0.1757812,0.7617187 0.1757812,1.2539062 0,0.3515625 0,0.9492188 -0.234375,1.37109375 C 3.1067344,-0.3158125 2.7434531,-0.058 2.2864219,-0.058 c -0.7265625,0 -1.30078127,-0.52734375 -1.46484377,-1.1132812 0.0234375,0.011719 0.0585938,0.011719 0.1640625,0.011719 0.32812497,0 0.50390627,-0.2460937 0.50390627,-0.4804687 0,-0.2460938 -0.1757813,-0.4921875 -0.50390627,-0.4921875 -0.140625,0 -0.48046875,0.070312 -0.48046875,0.5273437 0,0.85546875 0.67968752,1.828125 1.79296872,1.828125 1.1601563,0 2.1796875,-0.9609375 2.1796875,-2.2265628 z m 0,0"
       style="fill:#ffffff;fill-opacity:1;fill-rule:nonzero;stroke:none"
       aria-label="5"
       transform="matrix(1.3333333,0,0,1.3333333,4.428,48.077333)" />
    <path
       id="path3"
       d="m 2.928875,-1.6391797 v 0.86718751 c 0,0.3515625 -0.023437,0.46875 -0.7617188,0.46875 H 1.9562187 v 0.3046875 c 0.4101563,-0.03515625 0.9375,-0.03515625 1.3476563,-0.03515625 0.421875,0 0.9492187,0 1.359375,0.03515625 v -0.3046875 H 4.4523125 c -0.7382813,0 -0.7617188,-0.1171875 -0.7617188,-0.46875 V -1.6391797 H 4.6866875 V -1.9555859 H 3.6905937 v -4.5234375 c 0,-0.1992188 0,-0.2578125 -0.1523437,-0.2578125 -0.09375,0 -0.1171875,0 -0.1992188,0.1171875 l -3.0585937,4.6640625 v 0.3164062 z M 2.987469,-1.9555859 H 0.5616875 l 2.4257812,-3.7148438 z m 0,0"
       style="fill:#ffffff;fill-opacity:1;fill-rule:nonzero;stroke:none"
       aria-label="4"
       transform="matrix(1.3333333,0,0,1.3333333,18.157333,99.306667)" />
    <path
       id="path4"
       d="m 2.8954219,-3.5024609 c 0.8085937,-0.2695313 1.3945312,-0.9726563 1.3945312,-1.7578125 0,-0.8203125 -0.8789062,-1.3710938 -1.8398437,-1.3710938 -1.0078125,0 -1.75781253,0.5976563 -1.75781253,1.3476563 0,0.3398437 0.2109375,0.5273437 0.50390623,0.5273437 0.3046875,0 0.5039063,-0.2226562 0.5039063,-0.515625 0,-0.4921875 -0.46875,-0.4921875 -0.609375,-0.4921875 0.3046875,-0.4921875 0.9609375,-0.6210937 1.3242187,-0.6210937 0.4101563,0 0.9492188,0.2226562 0.9492188,1.1132812 0,0.1289063 -0.011719,0.703125 -0.2695313,1.1367188 -0.3046875,0.4804687 -0.6445312,0.515625 -0.890625,0.515625 -0.082031,0.011719 -0.3164062,0.035156 -0.3867187,0.035156 -0.082031,0.011719 -0.1523438,0.023437 -0.1523438,0.1171875 0,0.1171875 0.070312,0.1171875 0.234375,0.1171875 h 0.4453125 c 0.8085938,0 1.1835938,0.6679688 1.1835938,1.6523438 0,1.34765621 -0.6914063,1.64062496 -1.125,1.64062496 -0.4335938,0 -1.171875,-0.17578125 -1.52343753,-0.76171875 0.35156253,0.0585938 0.65625003,-0.1640625 0.65625003,-0.53906251 0,-0.3632812 -0.2695313,-0.5625 -0.56250003,-0.5625 -0.234375,0 -0.55078125,0.140625 -0.55078125,0.5742188 0,0.91406246 0.92578128,1.57031246 2.00390628,1.57031246 1.21875,0 2.1210937,-0.9140625 2.1210937,-1.92187496 0,-0.8203125 -0.6210937,-1.59375 -1.6523437,-1.8046873 z m 0,0"
       style="fill:#ffffff;fill-opacity:1;fill-rule:nonzero;stroke:none"
       aria-label="3"
       transform="matrix(1.3333333,0,0,1.3333333,78.616,99.306667)" />
    <path
       id="path5"
       d="m 1.2663672,-0.761125 1.0546875,-1.03125 c 1.5585937,-1.3710937 2.15625,-1.9101562 2.15625,-2.90625 0,-1.1367187 -0.9023438,-1.9335937 -2.1210938,-1.9335937 -1.125,0 -1.85156246,0.9140625 -1.85156246,1.8046875 0,0.5507812 0.4921875,0.5507812 0.52734376,0.5507812 0.1640625,0 0.515625,-0.1171875 0.515625,-0.5273437 0,-0.2578125 -0.1875,-0.515625 -0.5273438,-0.515625 -0.0820312,0 -0.10546871,0 -0.12890621,0.011719 0.22265621,-0.6445312 0.76171871,-1.0195312 1.33593751,-1.0195312 0.9140625,0 1.3359375,0.8085937 1.3359375,1.6289062 0,0.796875 -0.4921875,1.5820313 -1.0429688,2.203125 L 0.61011719,-0.3626875 C 0.50464844,-0.25721875 0.50464844,-0.23378125 0.50464844,5.9375e-4 H 4.1960547 l 0.28125,-1.73437495 H 4.2194922 C 4.1726172,-1.4290937 4.1023047,-0.9955 4.0085547,-0.84315625 3.9382422,-0.761125 3.2819922,-0.761125 3.0593359,-0.761125 Z m 0,0"
       style="fill:#ffffff;fill-opacity:1;fill-rule:nonzero;stroke:none"
       aria-label="2"
       transform="matrix(1.3333333,0,0,1.3333333,92.346667,48.077333)" />
    <path
       id="path6"
       d="M 0,28.3468 26.95966,8.75974 16.66179,-22.93315 H -16.66179 L -26.95966,8.75974 Z"
       style="fill:none;stroke:#ffffff;stroke-width:0.3985;stroke-linecap:butt;stroke-linejoin:miter;stroke-miterlimit:10;stroke-dasharray:none;stroke-opacity:1"
       transform="matrix(1.3333333,0,0,-1.3333333,51.708,55.476)" />
    <path
       id="path7"
       d="M 0,28.3468 16.66179,-22.93315"
       style="fill:none;stroke:#ffffff;stroke-width:0.3985;stroke-linecap:butt;stroke-linejoin:miter;stroke-miterlimit:10;stroke-dasharray:none;stroke-opacity:1"
       transform="matrix(1.3333333,0,0,-1.3333333,51.708,55.476)" />
    <g
       id="g7"
       aria-label="∆&#10;13"
       transform="matrix(1.3333333,0,0,1.3333333,67.508,45.182667)">
      <path
         id="path8"
         d="m 4.4061094,-6.9485234 c -0.070312,-0.1289063 -0.09375,-0.1875 -0.2578125,-0.1875 -0.1757813,0 -0.1992188,0.058594 -0.2578125,0.1875 l -3.37500003,6.74999996 c -0.046875,0.09375 -0.046875,0.10546875 -0.046875,0.1171875 0,0.0820312525 0.0585938,0.0820312525 0.22265625,0.0820312525 H 7.6053281 c 0.1523438,0 0.2109375,0 0.2109375,-0.0820312525 0,-0.01171875 0,-0.0234375 -0.046875,-0.1171875 z m -0.5859375,0.8085937 2.6835937,5.37890626 H 1.1365781 Z m 0,0"
         style="fill:#ffffff;fill-opacity:1;fill-rule:nonzero;stroke:none" />
      <path
         id="path9"
         d="m 10.634625,-2.9348516 c 0,-0.1875 -0.01172,-0.1992187 -0.210937,-0.1992187 -0.445313,0.4335937 -1.0781255,0.4453125 -1.3593755,0.4453125 v 0.2460937 c 0.1640625,0 0.6210938,0 1.0078125,-0.1875 v 3.55078129 c 0,0.23437501 0,0.32812501 -0.6914062,0.32812501 H 9.1111875 v 0.2460937 c 0.1289063,-0.011719 0.9843755,-0.023437 1.2421875,-0.023437 0.210938,0 1.089844,0.011719 1.242188,0.023437 V 1.2487422 H 11.33775 c -0.703125,0 -0.703125,-0.09375 -0.703125,-0.32812501 z m 3.539063,2.09765629 c 0.550781,0 0.9375,0.375 0.9375,1.125 0,0.86718751 -0.503907,1.12500001 -0.902344,1.12500001 -0.28125,0 -0.890625,-0.082031 -1.183594,-0.49218751 0.328125,-0.0117188 0.398438,-0.24609375 0.398438,-0.38671875 0,-0.22265625 -0.164063,-0.38671875 -0.386719,-0.38671875 -0.1875,0 -0.386719,0.1171875 -0.386719,0.41015625 0,0.65624996 0.726563,1.07812496 1.570313,1.07812496 0.972656,0 1.640625,-0.64453121 1.640625,-1.34765621 0,-0.5390625 -0.445313,-1.08984375 -1.21875,-1.2421875 0.738281,-0.26953129 0.996093,-0.79687499 0.996093,-1.21874999 0,-0.5507813 -0.632812,-0.9609375 -1.40625,-0.9609375 -0.773437,0 -1.359375,0.375 -1.359375,0.9375 0,0.234375 0.152344,0.3632812 0.363282,0.3632812 0.210937,0 0.351562,-0.1640625 0.351562,-0.3515625 0,-0.1992187 -0.140625,-0.3515625 -0.351562,-0.3632812 0.234375,-0.3046875 0.714843,-0.3867188 0.972656,-0.3867188 0.316406,0 0.761719,0.1523438 0.761719,0.7617188 0,0.2929687 -0.105469,0.609375 -0.28125,0.8320312 -0.234375,0.2578125 -0.421875,0.28125 -0.773438,0.2929688 -0.175781,0.023437 -0.1875,0.023437 -0.222656,0.023437 -0.01172,0 -0.07031,0.011719 -0.07031,0.09375 0,0.09375 0.05859,0.09375 0.175782,0.09375 z m 0,0"
         style="fill:#ffffff;fill-opacity:1;fill-rule:nonzero;stroke:none" />
    </g>
    <path
       id="path10"
       d="M 0,28.3468 -16.66179,-22.93315"
       style="fill:none;stroke:#ffffff;stroke-width:0.3985;stroke-linecap:butt;stroke-linejoin:miter;stroke-miterlimit:10;stroke-dasharray:none;stroke-opacity:1"
       transform="matrix(1.3333333,0,0,-1.3333333,51.708,55.476)" />
  </g>
</svg>
