<?xml version="1.0" encoding="UTF-8" standalone="no"?>
<!-- Created with Inkscape (http://www.inkscape.org/) -->

<svg
   version="1.1"
   id="svg1"
   width="359.44266"
   height="209.67067"
   viewBox="0 0 359.44266 209.67067"
   xmlns="http://www.w3.org/2000/svg"
   xmlns:svg="http://www.w3.org/2000/svg">
  <defs
     id="defs1" />
  <g
     id="g1">
    <path
       id="path1"
       d="m 1.9813047,-3.1650234 c 0,-0.1523438 -0.011719,-0.1523438 -0.1757813,-0.1523438 -0.3515625,0.3164063 -0.90234371,0.3164063 -1.00781246,0.3164063 h -0.0820313 v 0.2226562 h 0.0820313 c 0.1171875,0 0.43359376,-0.011719 0.72656246,-0.140625 v 2.48437501 c 0,0.1640625 0,0.2109375 -0.52734371,0.2109375 H 0.75083594 V -9.609375e-4 C 1.0203672,-0.02439844 1.4656797,-0.02439844 1.7586484,-0.02439844 c 0.28125,0 0.7265625,0 0.9960938,0.0234375025 V -0.22361719 H 2.5086484 c -0.5273437,0 -0.5273437,-0.046875 -0.5273437,-0.2109375 z m 0,0"
       style="fill:#ffffff;fill-opacity:1;fill-rule:nonzero;stroke:none"
       aria-label="1"
       transform="matrix(1.3333333,0,0,1.3333333,179.67467,159.888)" />
    <path
       id="path2"
       d="M 2.9290625,-0.96101563 H 2.718125 c -0.011719,0.09375 -0.058594,0.3984375 -0.140625,0.45703125 -0.035156,0.0234375 -0.4570313,0.0234375 -0.5273438,0.0234375 h -0.984375 c 0.328125,-0.24609375 0.703125,-0.515625 0.9960938,-0.71484372 0.4570312,-0.3164063 0.8671875,-0.5976563 0.8671875,-1.125 0,-0.6445313 -0.5976563,-0.9960938 -1.3125,-0.9960938 -0.66796875,0 -1.16015625,0.3867188 -1.16015625,0.8789063 0,0.2578125 0.2109375,0.3046875 0.28125,0.3046875 0.140625,0 0.29296875,-0.09375 0.29296875,-0.2929688 0,-0.1875 -0.12890625,-0.28125 -0.28125,-0.2929687 0.140625,-0.234375 0.4335937,-0.375 0.7617187,-0.375 0.4804688,0 0.890625,0.28125 0.890625,0.7734375 0,0.421875 -0.2929687,0.7382812 -0.6796875,1.0546875 L 0.515,-0.23445313 c -0.046875,0.046875 -0.0585938,0.046875 -0.0585938,0.0820313 V -7.8125e-5 H 2.765 Z m 0,0"
       style="fill:#ffffff;fill-opacity:1;fill-rule:nonzero;stroke:none"
       aria-label="2"
       transform="matrix(1.3333333,0,0,1.3333333,199.31333,171.22667)" />
    <path
       id="path3"
       d="m 1.64,-1.6535859 c 0.4570312,0 0.7617187,0.2929687 0.7617187,0.78515621 0,0.50390625 -0.3046875,0.7734375 -0.75,0.7734375 -0.058594,0 -0.65624995,0 -0.9023437,-0.2578125 0.19921875,-0.0351563 0.2578125,-0.1875 0.2578125,-0.3046875 0,-0.1875 -0.140625,-0.3046875 -0.3046875,-0.3046875 -0.15234375,0 -0.3046875,0.10546875 -0.3046875,0.31640625 0,0.515625 0.5859375,0.75 1.265625,0.75 0.8203125,0 1.3242187,-0.4921875 1.3242187,-0.97265625 0,-0.41015621 -0.3632812,-0.76171871 -0.9257812,-0.89062501 0.5976562,-0.1875 0.75,-0.5625 0.75,-0.84375 0,-0.4101562 -0.5039063,-0.7148437 -1.1367188,-0.7148437 -0.609375,0 -1.10156245,0.2578125 -1.10156245,0.703125 0,0.234375 0.1875,0.2929687 0.28125,0.2929687 0.140625,0 0.28124995,-0.1054687 0.28124995,-0.28125 0,-0.1171875 -0.058594,-0.2578125 -0.23437495,-0.28125 0.21093745,-0.234375 0.65624995,-0.2460937 0.76171875,-0.2460937 0.3632812,0 0.6210937,0.1875 0.6210937,0.5273437 0,0.28125 -0.1875,0.7382813 -0.7148437,0.7734375 -0.140625,0 -0.1523438,0 -0.28125,0.011719 -0.058594,0 -0.1171875,0.011719 -0.1171875,0.082031 0,0.082031 0.058594,0.082031 0.140625,0.082031 z m 0,0"
       style="fill:#ffffff;fill-opacity:1;fill-rule:nonzero;stroke:none"
       aria-label="3"
       transform="matrix(1.3333333,0,0,1.3333333,199.31333,193.904)" />
    <path
       id="path4"
       d="M 3.0711484,-0.80895313 V -1.0316094 H 2.4500547 v -2.1914062 c 0,-0.1171875 0,-0.1523438 -0.1289063,-0.1523438 -0.1054687,0 -0.1054687,0.011719 -0.1640625,0.082031 l -1.83984371,2.2617187 v 0.22265627 H 1.9695859 v 0.38671875 c 0,0.15234375 0,0.19921875 -0.4335937,0.19921875 H 1.3602109 v 0.222656255 c 0.234375,-0.011718755 0.5625,-0.023437505 0.8554688,-0.023437505 0.28125,0 0.609375,0.01171875 0.84375,0.023437505 V -0.22301563 H 2.8836484 c -0.4335937,0 -0.4335937,-0.046875 -0.4335937,-0.19921875 V -0.80895313 Z M 2.0164609,-2.8362969 v 1.8046875 H 0.55161719 Z m 0,0"
       style="fill:#ffffff;fill-opacity:1;fill-rule:nonzero;stroke:none"
       aria-label="4"
       transform="matrix(1.3333333,0,0,1.3333333,179.67467,205.24267)" />
    <path
       id="path5"
       d="m 0.97202344,-2.7434297 c 0.26953126,0.058594 0.49218746,0.058594 0.55078126,0.058594 0.3398437,0 0.5859375,-0.09375 0.7148437,-0.1640625 0.1171875,-0.058594 0.4570313,-0.2695313 0.4570313,-0.3867188 0,-0.070312 -0.058594,-0.082031 -0.070312,-0.082031 -0.011719,0 -0.023437,0 -0.070312,0.023437 -0.1992188,0.070312 -0.5039063,0.140625 -0.8320313,0.140625 -0.28125,0 -0.5625,-0.058594 -0.82031246,-0.140625 -0.0585938,-0.023437 -0.0703125,-0.023437 -0.0703125,-0.023437 -0.0703125,0 -0.0703125,0.058594 -0.0703125,0.140625 v 1.4882812 c 0,0.09375 0,0.1523438 0.09375,0.1523438 0.046875,0 0.0585938,-0.011719 0.10546875,-0.058594 0.18750001,-0.2226562 0.44531251,-0.328125 0.78515621,-0.328125 0.2929688,0 0.4453125,0.1640625 0.515625,0.2695313 0.1171875,0.1640625 0.140625,0.3867187 0.140625,0.6328125 0,0.21093746 -0.011719,0.49218746 -0.2109375,0.67968746 -0.2226562,0.234375 -0.5039062,0.24609375 -0.6210937,0.24609375 -0.3164063,0 -0.67968751,-0.140625 -0.84375001,-0.43359375 0.2109375,-0.0117188 0.28125001,-0.1640625 0.28125001,-0.28125 0,-0.15234375 -0.11718751,-0.28124996 -0.28125001,-0.28124996 -0.10546875,0 -0.26953125,0.070312 -0.26953125,0.29296871 0,0.4921875 0.46875,0.90234375 1.12499996,0.90234375 0.7382813,0 1.3476563,-0.4921875 1.3476563,-1.11328126 0,-0.5625 -0.4804688,-1.0898437 -1.171875,-1.0898437 -0.3164063,0 -0.5625,0.082031 -0.78515626,0.2460937 z m 0,0"
       style="fill:#ffffff;fill-opacity:1;fill-rule:nonzero;stroke:none"
       aria-label="5"
       transform="matrix(1.3333333,0,0,1.3333333,160.036,193.904)" />
    <path
       id="path6"
       d="m 0.92514844,-1.6289844 c 0,-0.234375 0.0117188,-0.6328125 0.18749996,-0.9492187 0.1523438,-0.2695313 0.46875,-0.5507813 0.9375,-0.5507813 0.09375,0 0.3164063,0.011719 0.46875,0.1289063 -0.082031,0.023437 -0.2109375,0.09375 -0.2109375,0.2695312 0,0.1523438 0.1171875,0.2578125 0.2578125,0.2578125 0.09375,0 0.2695313,-0.046875 0.2695313,-0.28125 0,-0.2695312 -0.1875,-0.5625 -0.796875,-0.5625 -0.8554688,0 -1.64062501,0.703125 -1.64062501,1.734375 0,1.18359377 0.5859375,1.68750002 1.31250001,1.68750002 0.4921875,0 0.7265625,-0.17578125 0.890625,-0.31640625 0.3164062,-0.26953125 0.3867187,-0.5625 0.3867187,-0.80859377 0,-0.3046875 -0.09375,-0.5507812 -0.3632812,-0.7734375 -0.2109375,-0.1992187 -0.4453125,-0.3398437 -0.8789063,-0.3398437 -0.28125,0 -0.609375,0.140625 -0.82031246,0.5039062 z m 0.78515626,1.53515627 c -0.77343751,0 -0.77343751,-0.83203125 -0.77343751,-1.03124997 0,-0.3867188 0.28125001,-0.8320313 0.79687501,-0.8320313 0.2578125,0 0.421875,0.058594 0.5742187,0.2578125 0.1523438,0.1875 0.1523438,0.3984375 0.1523438,0.6679688 0,0.29296872 0,0.48046872 -0.1640625,0.67968747 -0.140625,0.1640625 -0.3046875,0.2578125 -0.5859375,0.2578125 z m 0,0"
       style="fill:#ffffff;fill-opacity:1;fill-rule:nonzero;stroke:none"
       aria-label="6"
       transform="matrix(1.3333333,0,0,1.3333333,160.036,171.22667)" />
    <path
       id="path7"
       d="m 0,-99.21384 12.27454,-7.0867 v -14.17338 L 0,-127.56062 l -12.27454,7.0867 v 14.17338 z"
       style="fill:none;stroke:#ffffff;stroke-width:0.3985;stroke-linecap:butt;stroke-linejoin:miter;stroke-miterlimit:10;stroke-dasharray:none;stroke-opacity:1"
       transform="matrix(1.3333333,0,0,-1.3333333,181.93467,29.245333)" />
    <path
       id="path8"
       d="m 0,-99.21384 12.27454,-21.26008"
       style="fill:none;stroke:#ffffff;stroke-width:0.3985;stroke-linecap:butt;stroke-linejoin:miter;stroke-miterlimit:10;stroke-dasharray:none;stroke-opacity:1"
       transform="matrix(1.3333333,0,0,-1.3333333,181.93467,29.245333)" />
    <path
       id="path9"
       d="M 12.27454,-120.47392 H -12.27454"
       style="fill:none;stroke:#ffffff;stroke-width:0.3985;stroke-linecap:butt;stroke-linejoin:miter;stroke-miterlimit:10;stroke-dasharray:none;stroke-opacity:1"
       transform="matrix(1.3333333,0,0,-1.3333333,181.93467,29.245333)" />
    <path
       id="path10"
       d="m 0,-99.21384 -12.27454,-21.26008"
       style="fill:none;stroke:#ffffff;stroke-width:0.3985;stroke-linecap:butt;stroke-linejoin:miter;stroke-miterlimit:10;stroke-dasharray:none;stroke-opacity:1"
       transform="matrix(1.3333333,0,0,-1.3333333,181.93467,29.245333)" />
    <path
       id="path11"
       d="m 1.9813047,-3.1654063 c 0,-0.1523437 -0.011719,-0.1523437 -0.1757813,-0.1523437 -0.3515625,0.3164062 -0.90234371,0.3164062 -1.00781246,0.3164062 h -0.0820313 v 0.2226563 h 0.0820313 c 0.1171875,0 0.43359376,-0.011719 0.72656246,-0.140625 v 2.484375 c 0,0.1640625 0,0.2109375 -0.52734371,0.2109375 H 0.75083594 v 0.22265625 c 0.26953126,-0.0234375 0.71484376,-0.0234375 1.00781246,-0.0234375 0.28125,0 0.7265625,0 0.9960938,0.0234375 V -0.224 H 2.5086484 c -0.5273437,0 -0.5273437,-0.046875 -0.5273437,-0.2109375 z m 0,0"
       style="fill:#ffffff;fill-opacity:1;fill-rule:nonzero;stroke:none"
       aria-label="1"
       transform="matrix(1.3333333,0,0,1.3333333,179.67467,84.298667)" />
    <path
       id="path12"
       d="M 2.9290625,-0.96139844 H 2.718125 c -0.011719,0.09375 -0.058594,0.3984375 -0.140625,0.45703125 -0.035156,0.0234375 -0.4570313,0.0234375 -0.5273438,0.0234375 h -0.984375 c 0.328125,-0.24609375 0.703125,-0.515625 0.9960938,-0.71484371 0.4570312,-0.3164063 0.8671875,-0.5976563 0.8671875,-1.125 0,-0.6445313 -0.5976563,-0.9960938 -1.3125,-0.9960938 -0.66796875,0 -1.16015625,0.3867188 -1.16015625,0.8789063 0,0.2578125 0.2109375,0.3046875 0.28125,0.3046875 0.140625,0 0.29296875,-0.09375 0.29296875,-0.2929688 0,-0.1875 -0.12890625,-0.28125 -0.28125,-0.2929687 0.140625,-0.234375 0.4335937,-0.375 0.7617187,-0.375 0.4804688,0 0.890625,0.28125 0.890625,0.7734375 0,0.421875 -0.2929687,0.7382812 -0.6796875,1.0546875 L 0.515,-0.23483594 c -0.046875,0.046875 -0.0585938,0.046875 -0.0585938,0.0820313 V -4.609375e-4 H 2.765 Z m 0,0"
       style="fill:#ffffff;fill-opacity:1;fill-rule:nonzero;stroke:none"
       aria-label="2"
       transform="matrix(1.3333333,0,0,1.3333333,199.31333,95.637333)" />
    <path
       id="path13"
       d="m 1.64,-1.6510391 c 0.4570312,0 0.7617187,0.2929688 0.7617187,0.78515629 0,0.50390625 -0.3046875,0.7734375 -0.75,0.7734375 -0.058594,0 -0.65624995,0 -0.9023437,-0.2578125 0.19921875,-0.0351563 0.2578125,-0.1875 0.2578125,-0.3046875 0,-0.1875 -0.140625,-0.3046875 -0.3046875,-0.3046875 -0.15234375,0 -0.3046875,0.10546875 -0.3046875,0.31640625 0,0.515625 0.5859375,0.75 1.265625,0.75 0.8203125,0 1.3242187,-0.4921875 1.3242187,-0.97265625 0,-0.41015629 -0.3632812,-0.76171879 -0.9257812,-0.89062499 0.5976562,-0.1875 0.75,-0.5625 0.75,-0.84375 0,-0.4101563 -0.5039063,-0.7148438 -1.1367188,-0.7148438 -0.609375,0 -1.10156245,0.2578125 -1.10156245,0.703125 0,0.234375 0.1875,0.2929688 0.28125,0.2929688 0.140625,0 0.28124995,-0.1054688 0.28124995,-0.28125 0,-0.1171875 -0.058594,-0.2578125 -0.23437495,-0.28125 0.21093745,-0.234375 0.65624995,-0.2460938 0.76171875,-0.2460938 0.3632812,0 0.6210937,0.1875 0.6210937,0.5273438 0,0.28125 -0.1875,0.7382812 -0.7148437,0.7734375 -0.140625,0 -0.1523438,0 -0.28125,0.011719 -0.058594,0 -0.1171875,0.011719 -0.1171875,0.082031 0,0.082031 0.058594,0.082031 0.140625,0.082031 z m 0,0"
       style="fill:#ffffff;fill-opacity:1;fill-rule:nonzero;stroke:none"
       aria-label="3"
       transform="matrix(1.3333333,0,0,1.3333333,199.31333,118.31467)" />
    <path
       id="path14"
       d="M 3.0711484,-0.80933594 V -1.0319922 H 2.4500547 v -2.1914062 c 0,-0.1171875 0,-0.1523438 -0.1289063,-0.1523438 -0.1054687,0 -0.1054687,0.011719 -0.1640625,0.082031 l -1.83984371,2.2617187 v 0.22265626 H 1.9695859 v 0.38671875 c 0,0.15234375 0,0.19921875 -0.4335937,0.19921875 H 1.3602109 v 0.2226562525 c 0.234375,-0.0117187525 0.5625,-0.0234375025 0.8554688,-0.0234375025 0.28125,0 0.609375,0.01171875 0.84375,0.0234375025 V -0.22339844 H 2.8836484 c -0.4335937,0 -0.4335937,-0.046875 -0.4335937,-0.19921875 V -0.80933594 Z M 2.0164609,-2.8366797 v 1.8046875 H 0.55161719 Z m 0,0"
       style="fill:#ffffff;fill-opacity:1;fill-rule:nonzero;stroke:none"
       aria-label="4"
       transform="matrix(1.3333333,0,0,1.3333333,179.67467,129.65333)" />
    <path
       id="path15"
       d="m 0.97202344,-2.7408828 c 0.26953126,0.058594 0.49218746,0.058594 0.55078126,0.058594 0.3398437,0 0.5859375,-0.09375 0.7148437,-0.1640625 0.1171875,-0.058594 0.4570313,-0.2695312 0.4570313,-0.3867187 0,-0.070312 -0.058594,-0.082031 -0.070312,-0.082031 -0.011719,0 -0.023437,0 -0.070312,0.023437 -0.1992188,0.070312 -0.5039063,0.140625 -0.8320313,0.140625 -0.28125,0 -0.5625,-0.058594 -0.82031246,-0.140625 -0.0585938,-0.023437 -0.0703125,-0.023437 -0.0703125,-0.023437 -0.0703125,0 -0.0703125,0.058594 -0.0703125,0.140625 v 1.4882813 c 0,0.09375 0,0.1523437 0.09375,0.1523437 0.046875,0 0.0585938,-0.011719 0.10546875,-0.058594 C 1.1478057,-1.8151013 1.4056182,-1.92057 1.7454619,-1.92057 c 0.2929688,0 0.4453125,0.1640625 0.515625,0.2695312 0.1171875,0.1640625 0.140625,0.3867188 0.140625,0.6328125 0,0.21093754 -0.011719,0.49218754 -0.2109375,0.67968754 -0.2226562,0.234375 -0.5039062,0.24609375 -0.6210937,0.24609375 -0.3164063,0 -0.67968751,-0.140625 -0.84375001,-0.43359375 0.2109375,-0.0117188 0.28125001,-0.1640625 0.28125001,-0.28125 0,-0.15234375 -0.11718751,-0.28125004 -0.28125001,-0.28125004 -0.10546875,0 -0.26953125,0.070312 -0.26953125,0.29296879 0,0.4921875 0.46875,0.90234375 1.12499996,0.90234375 0.7382813,0 1.3476563,-0.4921875 1.3476563,-1.11328124 0,-0.5625 -0.4804688,-1.0898438 -1.171875,-1.0898438 -0.3164063,0 -0.5625,0.082031 -0.78515626,0.2460938 z m 0,0"
       style="fill:#ffffff;fill-opacity:1;fill-rule:nonzero;stroke:none"
       aria-label="5"
       transform="matrix(1.3333333,0,0,1.3333333,160.036,118.31467)" />
    <path
       id="path16"
       d="m 0.92514844,-1.6293672 c 0,-0.234375 0.0117188,-0.6328125 0.18749996,-0.9492187 0.1523438,-0.2695313 0.46875,-0.5507813 0.9375,-0.5507813 0.09375,0 0.3164063,0.011719 0.46875,0.1289063 -0.082031,0.023437 -0.2109375,0.09375 -0.2109375,0.2695312 0,0.1523438 0.1171875,0.2578125 0.2578125,0.2578125 0.09375,0 0.2695313,-0.046875 0.2695313,-0.28125 0,-0.2695312 -0.1875,-0.5625 -0.796875,-0.5625 -0.8554688,0 -1.64062501,0.703125 -1.64062501,1.734375 0,1.18359376 0.5859375,1.68750001 1.31250001,1.68750001 0.4921875,0 0.7265625,-0.17578125 0.890625,-0.31640625 0.3164062,-0.26953125 0.3867187,-0.5625 0.3867187,-0.80859376 0,-0.3046875 -0.09375,-0.5507812 -0.3632812,-0.7734375 -0.2109375,-0.1992187 -0.4453125,-0.3398437 -0.8789063,-0.3398437 -0.28125,0 -0.609375,0.140625 -0.82031246,0.5039062 z m 0.78515626,1.53515626 c -0.77343751,0 -0.77343751,-0.83203125 -0.77343751,-1.03124996 0,-0.3867188 0.28125001,-0.8320313 0.79687501,-0.8320313 0.2578125,0 0.421875,0.058594 0.5742187,0.2578125 0.1523438,0.1875 0.1523438,0.3984375 0.1523438,0.6679688 0,0.29296871 0,0.48046871 -0.1640625,0.67968746 -0.140625,0.1640625 -0.3046875,0.2578125 -0.5859375,0.2578125 z m 0,0"
       style="fill:#ffffff;fill-opacity:1;fill-rule:nonzero;stroke:none"
       aria-label="6"
       transform="matrix(1.3333333,0,0,1.3333333,160.036,95.637333)" />
    <path
       id="path17"
       d="m 0,-42.52022 12.27454,-7.0867 V -63.7803 L 0,-70.867 l -12.27454,7.0867 v 14.17338 z"
       style="fill:none;stroke:#ffffff;stroke-width:0.3985;stroke-linecap:butt;stroke-linejoin:miter;stroke-miterlimit:10;stroke-dasharray:none;stroke-opacity:1"
       transform="matrix(1.3333333,0,0,-1.3333333,181.93467,29.245333)" />
    <path
       id="path18"
       d="M 0,-42.52022 12.27454,-63.7803"
       style="fill:none;stroke:#ffffff;stroke-width:0.3985;stroke-linecap:butt;stroke-linejoin:miter;stroke-miterlimit:10;stroke-dasharray:none;stroke-opacity:1"
       transform="matrix(1.3333333,0,0,-1.3333333,181.93467,29.245333)" />
    <path
       id="path19"
       d="M 0,-42.52022 V -70.867"
       style="fill:none;stroke:#ffffff;stroke-width:0.3985;stroke-linecap:butt;stroke-linejoin:miter;stroke-miterlimit:10;stroke-dasharray:none;stroke-opacity:1"
       transform="matrix(1.3333333,0,0,-1.3333333,181.93467,29.245333)" />
    <path
       id="path20"
       d="M 0,-42.52022 -12.27454,-63.7803"
       style="fill:none;stroke:#ffffff;stroke-width:0.3985;stroke-linecap:butt;stroke-linejoin:miter;stroke-miterlimit:10;stroke-dasharray:none;stroke-opacity:1"
       transform="matrix(1.3333333,0,0,-1.3333333,181.93467,29.245333)" />
    <path
       id="path21"
       d="m 1.9802656,-3.1645781 c 0,-0.1523438 -0.011719,-0.1523438 -0.1757812,-0.1523438 -0.3515625,0.3164063 -0.90234378,0.3164063 -1.00781253,0.3164063 h -0.0820313 v 0.2226562 h 0.0820313 c 0.1171875,0 0.43359373,-0.011719 0.72656253,-0.140625 v 2.48437503 c 0,0.1640625 0,0.2109375 -0.52734378,0.2109375 H 0.74979687 V -5.15625e-4 C 1.0193281,-0.02395312 1.4646406,-0.02395312 1.7576094,-0.02395312 c 0.28125,0 0.7265625,0 0.9960937,0.023437495 V -0.22317187 H 2.5076094 c -0.5273438,0 -0.5273438,-0.046875 -0.5273438,-0.2109375 z m 0,0"
       style="fill:#ffffff;fill-opacity:1;fill-rule:nonzero;stroke:none"
       aria-label="1"
       transform="matrix(1.3333333,0,0,1.3333333,66.289333,103.196)" />
    <path
       id="path22"
       d="M 2.9309531,-0.96057031 H 2.7200156 c -0.011719,0.09375 -0.058594,0.3984375 -0.140625,0.45703125 -0.035156,0.0234375 -0.4570312,0.0234375 -0.5273437,0.0234375 h -0.984375 c 0.328125,-0.24609375 0.703125,-0.515625 0.9960937,-0.71484374 0.4570313,-0.3164063 0.8671875,-0.5976563 0.8671875,-1.125 0,-0.6445313 -0.5976562,-0.9960938 -1.3125,-0.9960938 -0.66796873,0 -1.16015623,0.3867188 -1.16015623,0.8789063 0,0.2578125 0.2109375,0.3046875 0.28125,0.3046875 0.140625,0 0.29296873,-0.09375 0.29296873,-0.2929688 0,-0.1875 -0.12890623,-0.28125 -0.28124998,-0.2929687 0.140625,-0.234375 0.43359378,-0.375 0.76171878,-0.375 0.4804687,0 0.890625,0.28125 0.890625,0.7734375 0,0.421875 -0.2929688,0.7382812 -0.6796875,1.0546875 l -1.20703128,1.03124999 c -0.046875,0.046875 -0.0585937,0.046875 -0.0585937,0.0820313 V 3.671875e-4 H 2.7668906 Z m 0,0"
       style="fill:#ffffff;fill-opacity:1;fill-rule:nonzero;stroke:none"
       aria-label="2"
       transform="matrix(1.3333333,0,0,1.3333333,85.928,114.53467)" />
    <path
       id="path23"
       d="m 1.6418906,-1.6531406 c 0.4570313,0 0.7617188,0.2929687 0.7617188,0.78515623 0,0.50390625 -0.3046875,0.7734375 -0.75,0.7734375 -0.058594,0 -0.65625003,0 -0.90234378,-0.2578125 0.19921875,-0.0351563 0.25781248,-0.1875 0.25781248,-0.3046875 0,-0.1875 -0.14062498,-0.3046875 -0.30468748,-0.3046875 -0.15234375,0 -0.3046875,0.10546875 -0.3046875,0.31640625 0,0.515625 0.5859375,0.75 1.26562498,0.75 0.8203125,0 1.3242188,-0.4921875 1.3242188,-0.97265625 0,-0.41015623 -0.3632813,-0.76171873 -0.9257813,-0.89062503 0.5976563,-0.1875 0.75,-0.5625 0.75,-0.84375 0,-0.4101562 -0.5039062,-0.7148437 -1.1367187,-0.7148437 -0.609375,0 -1.10156253,0.2578125 -1.10156253,0.703125 0,0.234375 0.1875,0.2929687 0.28125,0.2929687 0.140625,0 0.28125003,-0.1054687 0.28125003,-0.28125 0,-0.1171875 -0.058594,-0.2578125 -0.23437503,-0.28125 0.21093753,-0.234375 0.65625003,-0.2460937 0.76171873,-0.2460937 0.3632813,0 0.6210938,0.1875 0.6210938,0.5273437 0,0.28125 -0.1875,0.7382813 -0.7148438,0.7734375 -0.140625,0 -0.1523437,0 -0.28125,0.011719 -0.058594,0 -0.1171875,0.011719 -0.1171875,0.082031 0,0.082031 0.058594,0.082031 0.140625,0.082031 z m 0,0"
       style="fill:#ffffff;fill-opacity:1;fill-rule:nonzero;stroke:none"
       aria-label="3"
       transform="matrix(1.3333333,0,0,1.3333333,85.928,137.212)" />
    <path
       id="path24"
       d="M 3.0701094,-0.80850781 V -1.0311641 H 2.4490156 v -2.1914062 c 0,-0.1171875 0,-0.1523438 -0.1289062,-0.1523438 -0.1054688,0 -0.1054688,0.011719 -0.1640625,0.082031 l -1.83984378,2.2617187 v 0.22265629 H 1.9685469 v 0.38671875 c 0,0.15234375 0,0.19921875 -0.4335938,0.19921875 H 1.3591719 V 8.59375e-5 c 0.234375,-0.0117187475 0.5625,-0.0234374975 0.8554687,-0.0234374975 0.28125,0 0.609375,0.01171875 0.84375,0.0234374975 V -0.22257031 H 2.8826094 c -0.4335938,0 -0.4335938,-0.046875 -0.4335938,-0.19921875 V -0.80850781 Z M 2.0154219,-2.8358516 v 1.8046875 H 0.55057812 Z m 0,0"
       style="fill:#ffffff;fill-opacity:1;fill-rule:nonzero;stroke:none"
       aria-label="4"
       transform="matrix(1.3333333,0,0,1.3333333,66.289333,148.55067)" />
    <path
       id="path25"
       d="m 0.97391406,-2.7429844 c 0.26953124,0.058594 0.49218754,0.058594 0.55078124,0.058594 0.3398438,0 0.5859375,-0.09375 0.7148438,-0.1640625 0.1171875,-0.058594 0.4570312,-0.2695313 0.4570312,-0.3867188 0,-0.070312 -0.058594,-0.082031 -0.070312,-0.082031 -0.011719,0 -0.023437,0 -0.070312,0.023437 -0.1992187,0.070312 -0.5039062,0.140625 -0.8320312,0.140625 -0.28125,0 -0.5625,-0.058594 -0.82031254,-0.140625 -0.0585938,-0.023437 -0.0703125,-0.023437 -0.0703125,-0.023437 -0.0703125,0 -0.0703125,0.058594 -0.0703125,0.140625 v 1.4882812 c 0,0.09375 0,0.1523438 0.09375,0.1523438 0.046875,0 0.0585938,-0.011719 0.10546875,-0.058594 0.18749999,-0.2226562 0.44531249,-0.328125 0.78515629,-0.328125 0.2929687,0 0.4453125,0.1640625 0.515625,0.2695313 0.1171875,0.1640625 0.140625,0.3867187 0.140625,0.6328125 0,0.21093748 -0.011719,0.49218748 -0.2109375,0.67968748 -0.2226563,0.234375 -0.5039063,0.24609375 -0.6210938,0.24609375 -0.3164062,0 -0.67968749,-0.140625 -0.84374999,-0.43359375 0.2109375,-0.0117188 0.28124999,-0.1640625 0.28124999,-0.28125 0,-0.15234375 -0.11718749,-0.28124998 -0.28124999,-0.28124998 -0.10546875,0 -0.26953125,0.070312 -0.26953125,0.29296873 0,0.4921875 0.46875,0.90234375 1.12500004,0.90234375 0.7382812,0 1.3476562,-0.4921875 1.3476562,-1.11328128 0,-0.5625 -0.4804687,-1.0898437 -1.171875,-1.0898437 -0.3164062,0 -0.5625,0.082031 -0.78515624,0.2460937 z m 0,0"
       style="fill:#ffffff;fill-opacity:1;fill-rule:nonzero;stroke:none"
       aria-label="5"
       transform="matrix(1.3333333,0,0,1.3333333,46.650667,137.212)" />
    <path
       id="path26"
       d="m 0.92703906,-1.6285391 c 0,-0.234375 0.0117188,-0.6328125 0.18750004,-0.9492187 0.1523437,-0.2695313 0.46875,-0.5507813 0.9375,-0.5507813 0.09375,0 0.3164062,0.011719 0.46875,0.1289063 -0.082031,0.023437 -0.2109375,0.09375 -0.2109375,0.2695312 0,0.1523438 0.1171875,0.2578125 0.2578125,0.2578125 0.09375,0 0.2695312,-0.046875 0.2695312,-0.28125 0,-0.2695312 -0.1875,-0.5625 -0.796875,-0.5625 -0.8554687,0 -1.64062499,0.703125 -1.64062499,1.734375 0,1.18359379 0.5859375,1.68750004 1.31249999,1.68750004 0.4921875,0 0.7265625,-0.17578125 0.890625,-0.31640625 0.3164063,-0.26953125 0.3867188,-0.5625 0.3867188,-0.80859379 0,-0.3046875 -0.09375,-0.5507812 -0.3632813,-0.7734375 -0.2109375,-0.1992187 -0.4453125,-0.3398437 -0.8789062,-0.3398437 -0.28125,0 -0.609375,0.140625 -0.82031254,0.5039062 z m 0.78515624,1.53515629 c -0.77343749,0 -0.77343749,-0.83203125 -0.77343749,-1.03124999 0,-0.3867188 0.28124999,-0.8320313 0.79687499,-0.8320313 0.2578125,0 0.421875,0.058594 0.5742188,0.2578125 0.1523437,0.1875 0.1523437,0.3984375 0.1523437,0.6679688 0,0.29296874 0,0.48046874 -0.1640625,0.67968749 -0.140625,0.1640625 -0.3046875,0.2578125 -0.5859375,0.2578125 z m 0,0"
       style="fill:#ffffff;fill-opacity:1;fill-rule:nonzero;stroke:none"
       aria-label="6"
       transform="matrix(1.3333333,0,0,1.3333333,46.650667,114.53467)" />
    <path
       id="path27"
       d="m -85.04042,-56.69362 12.27455,-7.0867 V -77.9537 l -12.27455,-7.0867 -12.27455,7.0867 v 14.17338 z"
       style="fill:none;stroke:#ffffff;stroke-width:0.3985;stroke-linecap:butt;stroke-linejoin:miter;stroke-miterlimit:10;stroke-dasharray:none;stroke-opacity:1"
       transform="matrix(1.3333333,0,0,-1.3333333,181.93467,29.245333)" />
    <path
       id="path28"
       d="M -85.04042,-56.69362 -97.31497,-77.9537"
       style="fill:none;stroke:#ffffff;stroke-width:0.3985;stroke-linecap:butt;stroke-linejoin:miter;stroke-miterlimit:10;stroke-dasharray:none;stroke-opacity:1"
       transform="matrix(1.3333333,0,0,-1.3333333,181.93467,29.245333)" />
    <path
       id="path29"
       d="M -72.76587,-63.78032 -97.31497,-77.9537"
       style="fill:none;stroke:#ffffff;stroke-width:0.3985;stroke-linecap:butt;stroke-linejoin:miter;stroke-miterlimit:10;stroke-dasharray:none;stroke-opacity:1"
       transform="matrix(1.3333333,0,0,-1.3333333,181.93467,29.245333)" />
    <path
       id="path30"
       d="m -72.76587,-77.9537 h -24.5491"
       style="fill:none;stroke:#ffffff;stroke-width:0.3985;stroke-linecap:butt;stroke-linejoin:miter;stroke-miterlimit:10;stroke-dasharray:none;stroke-opacity:1"
       transform="matrix(1.3333333,0,0,-1.3333333,181.93467,29.245333)" />
    <path
       id="path31"
       d="m 1.9794141,-3.1645781 c 0,-0.1523438 -0.011719,-0.1523438 -0.1757813,-0.1523438 -0.3515625,0.3164063 -0.90234374,0.3164063 -1.00781249,0.3164063 h -0.0820313 v 0.2226562 h 0.0820313 c 0.1171875,0 0.43359379,-0.011719 0.72656249,-0.140625 v 2.48437503 c 0,0.1640625 0,0.2109375 -0.52734374,0.2109375 H 0.74894531 V -5.15625e-4 C 1.0184766,-0.02395312 1.4637891,-0.02395312 1.7567578,-0.02395312 c 0.28125,0 0.7265625,0 0.9960938,0.023437495 V -0.22317187 H 2.5067578 c -0.5273437,0 -0.5273437,-0.046875 -0.5273437,-0.2109375 z m 0,0"
       style="fill:#ffffff;fill-opacity:1;fill-rule:nonzero;stroke:none"
       aria-label="1"
       transform="matrix(1.3333333,0,0,1.3333333,293.06,103.196)" />
    <path
       id="path32"
       d="M 2.9301016,-0.96057031 H 2.7191641 c -0.011719,0.09375 -0.058594,0.3984375 -0.140625,0.45703125 -0.035156,0.0234375 -0.4570313,0.0234375 -0.5273438,0.0234375 h -0.984375 c 0.328125,-0.24609375 0.703125,-0.515625 0.9960938,-0.71484374 0.4570312,-0.3164063 0.8671875,-0.5976563 0.8671875,-1.125 0,-0.6445313 -0.5976563,-0.9960938 -1.3125,-0.9960938 -0.66796879,0 -1.16015629,0.3867188 -1.16015629,0.8789063 0,0.2578125 0.2109375,0.3046875 0.28125,0.3046875 0.140625,0 0.29296879,-0.09375 0.29296879,-0.2929688 0,-0.1875 -0.12890629,-0.28125 -0.28125004,-0.2929687 0.140625,-0.234375 0.43359374,-0.375 0.76171874,-0.375 0.4804688,0 0.890625,0.28125 0.890625,0.7734375 0,0.421875 -0.2929687,0.7382812 -0.6796875,1.0546875 l -1.20703124,1.03124999 c -0.046875,0.046875 -0.0585938,0.046875 -0.0585938,0.0820313 V 3.671875e-4 H 2.7660391 Z m 0,0"
       style="fill:#ffffff;fill-opacity:1;fill-rule:nonzero;stroke:none"
       aria-label="2"
       transform="matrix(1.3333333,0,0,1.3333333,312.69867,114.53467)" />
    <path
       id="path33"
       d="m 1.6410391,-1.6531406 c 0.4570312,0 0.7617187,0.2929687 0.7617187,0.78515623 0,0.50390625 -0.3046875,0.7734375 -0.75,0.7734375 -0.058594,0 -0.65624999,0 -0.90234374,-0.2578125 0.19921875,-0.0351563 0.25781254,-0.1875 0.25781254,-0.3046875 0,-0.1875 -0.14062504,-0.3046875 -0.30468754,-0.3046875 -0.15234375,0 -0.3046875,0.10546875 -0.3046875,0.31640625 0,0.515625 0.5859375,0.75 1.26562504,0.75 0.8203125,0 1.3242187,-0.4921875 1.3242187,-0.97265625 0,-0.41015623 -0.3632812,-0.76171873 -0.9257812,-0.89062503 0.5976562,-0.1875 0.75,-0.5625 0.75,-0.84375 0,-0.4101562 -0.5039063,-0.7148437 -1.1367188,-0.7148437 -0.609375,0 -1.10156249,0.2578125 -1.10156249,0.703125 0,0.234375 0.1875,0.2929687 0.28125,0.2929687 0.140625,0 0.28124999,-0.1054687 0.28124999,-0.28125 0,-0.1171875 -0.058594,-0.2578125 -0.23437499,-0.28125 0.21093749,-0.234375 0.65624999,-0.2460937 0.76171879,-0.2460937 0.3632812,0 0.6210937,0.1875 0.6210937,0.5273437 0,0.28125 -0.1875,0.7382813 -0.7148437,0.7734375 -0.140625,0 -0.1523438,0 -0.28125,0.011719 -0.058594,0 -0.1171875,0.011719 -0.1171875,0.082031 0,0.082031 0.058594,0.082031 0.140625,0.082031 z m 0,0"
       style="fill:#ffffff;fill-opacity:1;fill-rule:nonzero;stroke:none"
       aria-label="3"
       transform="matrix(1.3333333,0,0,1.3333333,312.69867,137.212)" />
    <path
       id="path34"
       d="M 3.0692578,-0.80850781 V -1.0311641 H 2.4481641 v -2.1914062 c 0,-0.1171875 0,-0.1523438 -0.1289063,-0.1523438 -0.1054687,0 -0.1054687,0.011719 -0.1640625,0.082031 l -1.83984374,2.2617187 v 0.22265629 H 1.9676953 v 0.38671875 c 0,0.15234375 0,0.19921875 -0.4335937,0.19921875 H 1.3583203 V 8.59375e-5 c 0.234375,-0.0117187475 0.5625,-0.0234374975 0.8554688,-0.0234374975 0.28125,0 0.609375,0.01171875 0.84375,0.0234374975 V -0.22257031 H 2.8817578 c -0.4335937,0 -0.4335937,-0.046875 -0.4335937,-0.19921875 V -0.80850781 Z M 2.0145703,-2.8358516 v 1.8046875 H 0.54972656 Z m 0,0"
       style="fill:#ffffff;fill-opacity:1;fill-rule:nonzero;stroke:none"
       aria-label="4"
       transform="matrix(1.3333333,0,0,1.3333333,293.06,148.55067)" />
    <path
       id="path35"
       d="m 0.9730625,-2.7429844 c 0.2695312,0.058594 0.4921875,0.058594 0.5507812,0.058594 0.3398438,0 0.5859375,-0.09375 0.7148438,-0.1640625 0.1171875,-0.058594 0.4570312,-0.2695313 0.4570312,-0.3867188 0,-0.070312 -0.058594,-0.082031 -0.070312,-0.082031 -0.011719,0 -0.023437,0 -0.070312,0.023437 -0.1992187,0.070312 -0.5039062,0.140625 -0.8320312,0.140625 -0.28125,0 -0.5625,-0.058594 -0.8203125,-0.140625 -0.0585938,-0.023437 -0.0703125,-0.023437 -0.0703125,-0.023437 -0.0703125,0 -0.0703125,0.058594 -0.0703125,0.140625 v 1.4882812 c 0,0.09375 0,0.1523438 0.09375,0.1523438 0.046875,0 0.0585938,-0.011719 0.10546875,-0.058594 0.18749995,-0.2226562 0.44531245,-0.328125 0.78515625,-0.328125 0.2929687,0 0.4453125,0.1640625 0.515625,0.2695313 0.1171875,0.1640625 0.140625,0.3867187 0.140625,0.6328125 0,0.21093748 -0.011719,0.49218748 -0.2109375,0.67968748 -0.2226563,0.234375 -0.5039063,0.24609375 -0.6210938,0.24609375 -0.3164062,0 -0.67968745,-0.140625 -0.84374995,-0.43359375 0.2109375,-0.0117188 0.28124995,-0.1640625 0.28124995,-0.28125 0,-0.15234375 -0.11718745,-0.28124998 -0.28124995,-0.28124998 -0.10546875,0 -0.26953125,0.070312 -0.26953125,0.29296873 0,0.4921875 0.46875,0.90234375 1.125,0.90234375 0.7382812,0 1.3476562,-0.4921875 1.3476562,-1.11328128 0,-0.5625 -0.4804687,-1.0898437 -1.171875,-1.0898437 -0.3164062,0 -0.5625,0.082031 -0.7851562,0.2460937 z m 0,0"
       style="fill:#ffffff;fill-opacity:1;fill-rule:nonzero;stroke:none"
       aria-label="5"
       transform="matrix(1.3333333,0,0,1.3333333,273.42133,137.212)" />
    <path
       id="path36"
       d="m 0.9261875,-1.6285391 c 0,-0.234375 0.0117188,-0.6328125 0.1875,-0.9492187 0.1523437,-0.2695313 0.46875,-0.5507813 0.9375,-0.5507813 0.09375,0 0.3164062,0.011719 0.46875,0.1289063 -0.082031,0.023437 -0.2109375,0.09375 -0.2109375,0.2695312 0,0.1523438 0.1171875,0.2578125 0.2578125,0.2578125 0.09375,0 0.2695312,-0.046875 0.2695312,-0.28125 0,-0.2695312 -0.1875,-0.5625 -0.796875,-0.5625 -0.8554687,0 -1.64062495,0.703125 -1.64062495,1.734375 0,1.18359379 0.5859375,1.68750004 1.31249995,1.68750004 0.4921875,0 0.7265625,-0.17578125 0.890625,-0.31640625 0.3164063,-0.26953125 0.3867188,-0.5625 0.3867188,-0.80859379 0,-0.3046875 -0.09375,-0.5507812 -0.3632813,-0.7734375 C 2.4144687,-1.9918203 2.1800937,-2.1324453 1.7465,-2.1324453 c -0.28125,0 -0.609375,0.140625 -0.8203125,0.5039062 z m 0.7851562,1.53515629 c -0.77343745,0 -0.77343745,-0.83203125 -0.77343745,-1.03124999 0,-0.3867188 0.28124995,-0.8320313 0.79687495,-0.8320313 0.2578125,0 0.421875,0.058594 0.5742188,0.2578125 0.1523437,0.1875 0.1523437,0.3984375 0.1523437,0.6679688 0,0.29296874 0,0.48046874 -0.1640625,0.67968749 -0.140625,0.1640625 -0.3046875,0.2578125 -0.5859375,0.2578125 z m 0,0"
       style="fill:#ffffff;fill-opacity:1;fill-rule:nonzero;stroke:none"
       aria-label="6"
       transform="matrix(1.3333333,0,0,1.3333333,273.42133,114.53467)" />
    <path
       id="path37"
       d="m 85.04042,-56.69362 12.27455,-7.0867 V -77.9537 l -12.27455,-7.0867 -12.27455,7.0867 v 14.17338 z"
       style="fill:none;stroke:#ffffff;stroke-width:0.3985;stroke-linecap:butt;stroke-linejoin:miter;stroke-miterlimit:10;stroke-dasharray:none;stroke-opacity:1"
       transform="matrix(1.3333333,0,0,-1.3333333,181.93467,29.245333)" />
    <path
       id="path38"
       d="M 85.04042,-56.69362 97.31497,-77.9537"
       style="fill:none;stroke:#ffffff;stroke-width:0.3985;stroke-linecap:butt;stroke-linejoin:miter;stroke-miterlimit:10;stroke-dasharray:none;stroke-opacity:1"
       transform="matrix(1.3333333,0,0,-1.3333333,181.93467,29.245333)" />
    <path
       id="path39"
       d="M 97.31497,-77.9537 H 72.76587"
       style="fill:none;stroke:#ffffff;stroke-width:0.3985;stroke-linecap:butt;stroke-linejoin:miter;stroke-miterlimit:10;stroke-dasharray:none;stroke-opacity:1"
       transform="matrix(1.3333333,0,0,-1.3333333,181.93467,29.245333)" />
    <path
       id="path40"
       d="m 97.31497,-77.9537 -24.5491,14.17338"
       style="fill:none;stroke:#ffffff;stroke-width:0.3985;stroke-linecap:butt;stroke-linejoin:miter;stroke-miterlimit:10;stroke-dasharray:none;stroke-opacity:1"
       transform="matrix(1.3333333,0,0,-1.3333333,181.93467,29.245333)" />
    <path
       id="path41"
       d="m 1.9796094,-3.1647891 c 0,-0.1523437 -0.011719,-0.1523437 -0.1757813,-0.1523437 -0.3515625,0.3164062 -0.90234373,0.3164062 -1.00781248,0.3164062 h -0.0820313 v 0.2226563 h 0.0820313 c 0.1171875,0 0.43359378,-0.011719 0.72656248,-0.140625 v 2.48437499 c 0,0.1640625 0,0.2109375 -0.52734373,0.2109375 H 0.74914062 V -7.265625e-4 C 1.0186719,-0.02416406 1.4639844,-0.02416406 1.7569531,-0.02416406 c 0.28125,0 0.7265625,0 0.9960938,0.0234374975 V -0.22338281 H 2.5069531 c -0.5273437,0 -0.5273437,-0.046875 -0.5273437,-0.2109375 z m 0,0"
       style="fill:#ffffff;fill-opacity:1;fill-rule:nonzero;stroke:none"
       aria-label="1"
       transform="matrix(1.3333333,0,0,1.3333333,28.493333,8.708)" />
    <path
       id="path42"
       d="M 2.9302969,-0.96078125 H 2.7193594 c -0.011719,0.09375 -0.058594,0.3984375 -0.140625,0.45703125 -0.035156,0.0234375 -0.4570313,0.0234375 -0.5273438,0.0234375 h -0.984375 c 0.328125,-0.24609375 0.703125,-0.515625 0.9960938,-0.7148438 0.4570312,-0.3164062 0.8671875,-0.5976562 0.8671875,-1.125 0,-0.6445312 -0.5976563,-0.9960937 -1.3125,-0.9960937 -0.66796878,0 -1.16015628,0.3867187 -1.16015628,0.8789062 0,0.2578125 0.2109375,0.3046875 0.28125,0.3046875 0.140625,0 0.29296878,-0.09375 0.29296878,-0.2929687 0,-0.1875 -0.12890628,-0.28125 -0.28125003,-0.2929688 0.140625,-0.234375 0.43359373,-0.375 0.76171873,-0.375 0.4804688,0 0.890625,0.28125 0.890625,0.7734375 0,0.421875 -0.2929687,0.7382813 -0.6796875,1.0546875 l -1.20703123,1.03125005 c -0.046875,0.046875 -0.0585938,0.046875 -0.0585938,0.0820313 V 1.5625e-4 H 2.7662344 Z m 0,0"
       style="fill:#ffffff;fill-opacity:1;fill-rule:nonzero;stroke:none"
       aria-label="2"
       transform="matrix(1.3333333,0,0,1.3333333,48.132,20.046667)" />
    <path
       id="path43"
       d="m 1.6412344,-1.6533516 c 0.4570312,0 0.7617187,0.2929688 0.7617187,0.78515629 0,0.50390625 -0.3046875,0.7734375 -0.75,0.7734375 -0.058594,0 -0.65624998,0 -0.90234373,-0.2578125 0.19921875,-0.0351563 0.25781253,-0.1875 0.25781253,-0.3046875 0,-0.1875 -0.14062503,-0.3046875 -0.30468753,-0.3046875 -0.15234375,0 -0.3046875,0.10546875 -0.3046875,0.31640625 0,0.515625 0.5859375,0.75 1.26562503,0.75 0.8203125,0 1.3242187,-0.4921875 1.3242187,-0.97265625 0,-0.41015629 -0.3632812,-0.76171879 -0.9257812,-0.89062499 0.5976562,-0.1875 0.75,-0.5625 0.75,-0.84375 0,-0.4101563 -0.5039063,-0.7148438 -1.1367188,-0.7148438 -0.609375,0 -1.10156248,0.2578125 -1.10156248,0.703125 0,0.234375 0.1875,0.2929688 0.28125,0.2929688 0.140625,0 0.28124998,-0.1054688 0.28124998,-0.28125 0,-0.1171875 -0.058594,-0.2578125 -0.23437498,-0.28125 0.21093748,-0.234375 0.65624998,-0.2460938 0.76171878,-0.2460938 0.3632812,0 0.6210937,0.1875 0.6210937,0.5273438 0,0.28125 -0.1875,0.7382812 -0.7148437,0.7734375 -0.140625,0 -0.1523438,0 -0.28125,0.011719 -0.058594,0 -0.1171875,0.011719 -0.1171875,0.082031 0,0.082031 0.058594,0.082031 0.140625,0.082031 z m 0,0"
       style="fill:#ffffff;fill-opacity:1;fill-rule:nonzero;stroke:none"
       aria-label="3"
       transform="matrix(1.3333333,0,0,1.3333333,48.132,42.724)" />
    <path
       id="path44"
       d="M 3.0694531,-0.80871875 V -1.031375 H 2.4483594 v -2.1914063 c 0,-0.1171875 0,-0.1523437 -0.1289063,-0.1523437 -0.1054687,0 -0.1054687,0.011719 -0.1640625,0.082031 l -1.83984373,2.261719 v 0.22265625 H 1.9678906 V -0.422 c 0,0.15234375 0,0.19921875 -0.4335937,0.19921875 H 1.3585156 V -1.25e-4 c 0.234375,-0.01171875 0.5625,-0.0234375 0.8554688,-0.0234375 0.28125,0 0.609375,0.01171875 0.84375,0.0234375 V -0.22278125 H 2.8819531 c -0.4335937,0 -0.4335937,-0.046875 -0.4335937,-0.19921875 V -0.80871875 Z M 2.0147656,-2.8360625 V -1.031375 H 0.54992187 Z m 0,0"
       style="fill:#ffffff;fill-opacity:1;fill-rule:nonzero;stroke:none"
       aria-label="4"
       transform="matrix(1.3333333,0,0,1.3333333,28.493333,54.062667)" />
    <path
       id="path45"
       d="m 0.97325781,-2.7431953 c 0.26953129,0.058594 0.49218749,0.058594 0.55078129,0.058594 0.3398437,0 0.5859375,-0.09375 0.7148437,-0.1640625 0.1171875,-0.058594 0.4570313,-0.2695312 0.4570313,-0.3867187 0,-0.070312 -0.058594,-0.082031 -0.070312,-0.082031 -0.011719,0 -0.023437,0 -0.070312,0.023437 -0.1992188,0.070312 -0.5039063,0.140625 -0.8320313,0.140625 -0.28125,0 -0.5625,-0.058594 -0.82031249,-0.140625 -0.0585938,-0.023437 -0.0703125,-0.023437 -0.0703125,-0.023437 -0.0703125,0 -0.0703125,0.058594 -0.0703125,0.140625 v 1.4882813 c 0,0.09375 0,0.1523437 0.09375,0.1523437 0.046875,0 0.0585938,-0.011719 0.10546875,-0.058594 0.18750004,-0.2226563 0.44531254,-0.328125 0.78515624,-0.328125 0.2929688,0 0.4453125,0.1640625 0.515625,0.2695312 0.1171875,0.1640625 0.140625,0.3867188 0.140625,0.6328125 0,0.21093754 -0.011719,0.49218754 -0.2109375,0.67968754 -0.2226562,0.234375 -0.5039062,0.24609375 -0.6210937,0.24609375 -0.3164063,0 -0.67968754,-0.140625 -0.84375004,-0.43359375 0.2109375,-0.0117188 0.28125004,-0.1640625 0.28125004,-0.28125 0,-0.15234375 -0.11718754,-0.28125004 -0.28125004,-0.28125004 -0.10546875,0 -0.26953125,0.070312 -0.26953125,0.29296879 0,0.4921875 0.46875,0.90234375 1.12499999,0.90234375 0.7382813,0 1.3476563,-0.4921875 1.3476563,-1.11328124 0,-0.5625 -0.4804688,-1.0898438 -1.171875,-1.0898438 -0.3164063,0 -0.5625,0.082031 -0.78515629,0.2460938 z m 0,0"
       style="fill:#ffffff;fill-opacity:1;fill-rule:nonzero;stroke:none"
       aria-label="5"
       transform="matrix(1.3333333,0,0,1.3333333,8.8546667,42.724)" />
    <path
       id="path46"
       d="m 0.92638281,-1.62875 c 0,-0.234375 0.0117188,-0.6328125 0.18749999,-0.9492188 0.1523438,-0.2695312 0.46875,-0.5507812 0.9375,-0.5507812 0.09375,0 0.3164063,0.011719 0.46875,0.1289062 -0.082031,0.023437 -0.2109375,0.09375 -0.2109375,0.2695313 0,0.1523437 0.1171875,0.2578125 0.2578125,0.2578125 0.09375,0 0.2695313,-0.046875 0.2695313,-0.28125 0,-0.2695313 -0.1875,-0.5625 -0.796875,-0.5625 -0.8554688,0 -1.64062504,0.703125 -1.64062504,1.734375 0,1.18359375 0.5859375,1.6875 1.31250004,1.6875 0.4921875,0 0.7265625,-0.17578125 0.890625,-0.31640625 0.3164062,-0.26953125 0.3867187,-0.5625 0.3867187,-0.80859375 0,-0.3046875 -0.09375,-0.5507813 -0.3632812,-0.7734375 -0.2109375,-0.1992188 -0.4453125,-0.3398438 -0.8789063,-0.3398438 -0.28125,0 -0.609375,0.140625 -0.82031249,0.5039063 z m 0.78515629,1.53515625 c -0.77343754,0 -0.77343754,-0.83203125 -0.77343754,-1.03125005 0,-0.3867187 0.28125004,-0.8320312 0.79687504,-0.8320312 0.2578125,0 0.421875,0.058594 0.5742187,0.2578125 0.1523438,0.1875 0.1523438,0.3984375 0.1523438,0.6679687 0,0.2929688 0,0.4804688 -0.1640625,0.67968755 -0.140625,0.1640625 -0.3046875,0.2578125 -0.5859375,0.2578125 z m 0,0"
       style="fill:#ffffff;fill-opacity:1;fill-rule:nonzero;stroke:none"
       aria-label="6"
       transform="matrix(1.3333333,0,0,1.3333333,8.8546667,20.046667)" />
    <path
       id="path47"
       d="m -113.38724,14.17339 12.27455,-7.0867 V -7.08669 l -12.27455,-7.0867 -12.27453,7.0867 V 7.08669 Z"
       style="fill:none;stroke:#ffffff;stroke-width:0.3985;stroke-linecap:butt;stroke-linejoin:miter;stroke-miterlimit:10;stroke-dasharray:none;stroke-opacity:1"
       transform="matrix(1.3333333,0,0,-1.3333333,181.93467,29.245333)" />
    <path
       id="path48"
       d="M -113.38724,14.17339 -125.66177,-7.08669"
       style="fill:none;stroke:#ffffff;stroke-width:0.3985;stroke-linecap:butt;stroke-linejoin:miter;stroke-miterlimit:10;stroke-dasharray:none;stroke-opacity:1"
       transform="matrix(1.3333333,0,0,-1.3333333,181.93467,29.245333)" />
    <path
       id="path49"
       d="M -101.11269,7.08669 -125.66177,-7.08669"
       style="fill:none;stroke:#ffffff;stroke-width:0.3985;stroke-linecap:butt;stroke-linejoin:miter;stroke-miterlimit:10;stroke-dasharray:none;stroke-opacity:1"
       transform="matrix(1.3333333,0,0,-1.3333333,181.93467,29.245333)" />
    <path
       id="path50"
       d="m -101.11269,7.08669 -12.27455,-21.26008"
       style="fill:none;stroke:#ffffff;stroke-width:0.3985;stroke-linecap:butt;stroke-linejoin:miter;stroke-miterlimit:10;stroke-dasharray:none;stroke-opacity:1"
       transform="matrix(1.3333333,0,0,-1.3333333,181.93467,29.245333)" />
    <path
       id="path51"
       d="m 1.9800703,-3.1647891 c 0,-0.1523437 -0.011719,-0.1523437 -0.1757812,-0.1523437 -0.3515625,0.3164062 -0.90234379,0.3164062 -1.00781254,0.3164062 h -0.0820313 v 0.2226563 h 0.0820313 c 0.1171875,0 0.43359374,-0.011719 0.72656254,-0.140625 v 2.48437499 c 0,0.1640625 0,0.2109375 -0.52734379,0.2109375 H 0.74960156 V -7.265625e-4 C 1.0191328,-0.02416406 1.4644453,-0.02416406 1.7574141,-0.02416406 c 0.28125,0 0.7265625,0 0.9960937,0.0234374975 V -0.22338281 H 2.5074141 c -0.5273438,0 -0.5273438,-0.046875 -0.5273438,-0.2109375 z m 0,0"
       style="fill:#ffffff;fill-opacity:1;fill-rule:nonzero;stroke:none"
       aria-label="1"
       transform="matrix(1.3333333,0,0,1.3333333,330.856,8.708)" />
    <path
       id="path52"
       d="M 2.9307578,-0.96078125 H 2.7198203 c -0.011719,0.09375 -0.058594,0.3984375 -0.140625,0.45703125 -0.035156,0.0234375 -0.4570312,0.0234375 -0.5273437,0.0234375 h -0.984375 c 0.328125,-0.24609375 0.703125,-0.515625 0.9960937,-0.7148438 0.4570313,-0.3164062 0.8671875,-0.5976562 0.8671875,-1.125 0,-0.6445312 -0.5976562,-0.9960937 -1.3125,-0.9960937 -0.66796874,0 -1.16015624,0.3867187 -1.16015624,0.8789062 0,0.2578125 0.2109375,0.3046875 0.28125,0.3046875 0.140625,0 0.29296874,-0.09375 0.29296874,-0.2929687 0,-0.1875 -0.12890624,-0.28125 -0.28124999,-0.2929688 0.140625,-0.234375 0.43359379,-0.375 0.76171879,-0.375 0.4804687,0 0.890625,0.28125 0.890625,0.7734375 0,0.421875 -0.2929688,0.7382813 -0.6796875,1.0546875 l -1.20703129,1.03125005 c -0.046875,0.046875 -0.0585938,0.046875 -0.0585938,0.0820313 V 1.5625e-4 H 2.7666953 Z m 0,0"
       style="fill:#ffffff;fill-opacity:1;fill-rule:nonzero;stroke:none"
       aria-label="2"
       transform="matrix(1.3333333,0,0,1.3333333,350.49467,20.046667)" />
    <path
       id="path53"
       d="m 1.6416953,-1.6533516 c 0.4570313,0 0.7617188,0.2929688 0.7617188,0.78515629 0,0.50390625 -0.3046875,0.7734375 -0.75,0.7734375 -0.058594,0 -0.65625004,0 -0.90234379,-0.2578125 0.19921875,-0.0351563 0.25781249,-0.1875 0.25781249,-0.3046875 0,-0.1875 -0.14062499,-0.3046875 -0.30468749,-0.3046875 -0.15234375,0 -0.3046875,0.10546875 -0.3046875,0.31640625 0,0.515625 0.5859375,0.75 1.26562499,0.75 0.8203125,0 1.3242188,-0.4921875 1.3242188,-0.97265625 0,-0.41015629 -0.3632813,-0.76171879 -0.9257813,-0.89062499 0.5976563,-0.1875 0.75,-0.5625 0.75,-0.84375 0,-0.4101563 -0.5039062,-0.7148438 -1.1367187,-0.7148438 -0.609375,0 -1.10156254,0.2578125 -1.10156254,0.703125 0,0.234375 0.1875,0.2929688 0.28125,0.2929688 0.140625,0 0.28125004,-0.1054688 0.28125004,-0.28125 0,-0.1171875 -0.058594,-0.2578125 -0.23437504,-0.28125 0.21093754,-0.234375 0.65625004,-0.2460938 0.76171874,-0.2460938 0.3632813,0 0.6210938,0.1875 0.6210938,0.5273438 0,0.28125 -0.1875,0.7382812 -0.7148438,0.7734375 -0.140625,0 -0.1523437,0 -0.28125,0.011719 -0.058594,0 -0.1171875,0.011719 -0.1171875,0.082031 0,0.082031 0.058594,0.082031 0.140625,0.082031 z m 0,0"
       style="fill:#ffffff;fill-opacity:1;fill-rule:nonzero;stroke:none"
       aria-label="3"
       transform="matrix(1.3333333,0,0,1.3333333,350.49467,42.724)" />
    <path
       id="path54"
       d="M 3.0699141,-0.80871875 V -1.031375 H 2.4488203 v -2.1914063 c 0,-0.1171875 0,-0.1523437 -0.1289062,-0.1523437 -0.1054688,0 -0.1054688,0.011719 -0.1640625,0.082031 l -1.83984379,2.261719 v 0.22265625 H 1.9683516 V -0.422 c 0,0.15234375 0,0.19921875 -0.4335938,0.19921875 H 1.3589766 V -1.25e-4 c 0.234375,-0.01171875 0.5625,-0.0234375 0.8554687,-0.0234375 0.28125,0 0.609375,0.01171875 0.84375,0.0234375 V -0.22278125 H 2.8824141 c -0.4335938,0 -0.4335938,-0.046875 -0.4335938,-0.19921875 V -0.80871875 Z M 2.0152266,-2.8360625 V -1.031375 H 0.55038281 Z m 0,0"
       style="fill:#ffffff;fill-opacity:1;fill-rule:nonzero;stroke:none"
       aria-label="4"
       transform="matrix(1.3333333,0,0,1.3333333,330.856,54.062667)" />
    <path
       id="path55"
       d="m 0.97371875,-2.7431953 c 0.26953125,0.058594 0.49218745,0.058594 0.55078125,0.058594 0.3398437,0 0.5859375,-0.09375 0.7148437,-0.1640625 0.1171875,-0.058594 0.4570313,-0.2695312 0.4570313,-0.3867187 0,-0.070312 -0.058594,-0.082031 -0.070312,-0.082031 -0.011719,0 -0.023437,0 -0.070312,0.023437 -0.1992188,0.070312 -0.5039063,0.140625 -0.8320313,0.140625 -0.28125,0 -0.5625,-0.058594 -0.82031245,-0.140625 -0.0585938,-0.023437 -0.0703125,-0.023437 -0.0703125,-0.023437 -0.0703125,0 -0.0703125,0.058594 -0.0703125,0.140625 v 1.4882813 c 0,0.09375 0,0.1523437 0.09375,0.1523437 0.046875,0 0.0585938,-0.011719 0.10546875,-0.058594 0.1875,-0.2226563 0.4453125,-0.328125 0.7851562,-0.328125 0.2929688,0 0.4453125,0.1640625 0.515625,0.2695312 0.1171875,0.1640625 0.140625,0.3867188 0.140625,0.6328125 0,0.21093754 -0.011719,0.49218754 -0.2109375,0.67968754 -0.2226562,0.234375 -0.5039062,0.24609375 -0.6210937,0.24609375 -0.3164063,0 -0.6796875,-0.140625 -0.84375,-0.43359375 0.2109375,-0.0117188 0.28125,-0.1640625 0.28125,-0.28125 0,-0.15234375 -0.1171875,-0.28125004 -0.28125,-0.28125004 -0.10546875,0 -0.26953125,0.070312 -0.26953125,0.29296879 0,0.4921875 0.46875,0.90234375 1.12499995,0.90234375 0.7382813,0 1.3476563,-0.4921875 1.3476563,-1.11328124 0,-0.5625 -0.4804688,-1.0898438 -1.171875,-1.0898438 -0.3164063,0 -0.5625,0.082031 -0.78515625,0.2460938 z m 0,0"
       style="fill:#ffffff;fill-opacity:1;fill-rule:nonzero;stroke:none"
       aria-label="5"
       transform="matrix(1.3333333,0,0,1.3333333,311.21733,42.724)" />
    <path
       id="path56"
       d="m 0.92684375,-1.62875 c 0,-0.234375 0.0117188,-0.6328125 0.18749995,-0.9492188 0.1523438,-0.2695312 0.46875,-0.5507812 0.9375,-0.5507812 0.09375,0 0.3164063,0.011719 0.46875,0.1289062 -0.082031,0.023437 -0.2109375,0.09375 -0.2109375,0.2695313 0,0.1523437 0.1171875,0.2578125 0.2578125,0.2578125 0.09375,0 0.2695313,-0.046875 0.2695313,-0.28125 0,-0.2695313 -0.1875,-0.5625 -0.796875,-0.5625 -0.8554688,0 -1.640625,0.703125 -1.640625,1.734375 0,1.18359375 0.5859375,1.6875 1.3125,1.6875 0.4921875,0 0.7265625,-0.17578125 0.890625,-0.31640625 0.3164062,-0.26953125 0.3867187,-0.5625 0.3867187,-0.80859375 0,-0.3046875 -0.09375,-0.5507813 -0.3632812,-0.7734375 C 2.415125,-1.9920313 2.18075,-2.1326563 1.7471562,-2.1326563 c -0.28125,0 -0.609375,0.140625 -0.82031245,0.5039063 z M 1.712,-0.09359375 c -0.7734375,0 -0.7734375,-0.83203125 -0.7734375,-1.03125005 0,-0.3867187 0.28125,-0.8320312 0.796875,-0.8320312 0.2578125,0 0.421875,0.058594 0.5742187,0.2578125 C 2.462,-1.5115625 2.462,-1.300625 2.462,-1.0310938 c 0,0.2929688 0,0.4804688 -0.1640625,0.67968755 -0.140625,0.1640625 -0.3046875,0.2578125 -0.5859375,0.2578125 z m 0,0"
       style="fill:#ffffff;fill-opacity:1;fill-rule:nonzero;stroke:none"
       aria-label="6"
       transform="matrix(1.3333333,0,0,1.3333333,311.21733,20.046667)" />
    <path
       id="path57"
       d="m 113.38724,14.17339 12.27453,-7.0867 V -7.08669 l -12.27453,-7.0867 -12.27455,7.0867 V 7.08669 Z"
       style="fill:none;stroke:#ffffff;stroke-width:0.3985;stroke-linecap:butt;stroke-linejoin:miter;stroke-miterlimit:10;stroke-dasharray:none;stroke-opacity:1"
       transform="matrix(1.3333333,0,0,-1.3333333,181.93467,29.245333)" />
    <path
       id="path58"
       d="M 113.38724,14.17339 125.66177,-7.08669"
       style="fill:none;stroke:#ffffff;stroke-width:0.3985;stroke-linecap:butt;stroke-linejoin:miter;stroke-miterlimit:10;stroke-dasharray:none;stroke-opacity:1"
       transform="matrix(1.3333333,0,0,-1.3333333,181.93467,29.245333)" />
    <path
       id="path59"
       d="M 125.66177,-7.08669 101.11269,7.08669"
       style="fill:none;stroke:#ffffff;stroke-width:0.3985;stroke-linecap:butt;stroke-linejoin:miter;stroke-miterlimit:10;stroke-dasharray:none;stroke-opacity:1"
       transform="matrix(1.3333333,0,0,-1.3333333,181.93467,29.245333)" />
    <path
       id="path60"
       d="M 113.38724,-14.17339 101.11269,7.08669"
       style="fill:none;stroke:#ffffff;stroke-width:0.3985;stroke-linecap:butt;stroke-linejoin:miter;stroke-miterlimit:10;stroke-dasharray:none;stroke-opacity:1"
       transform="matrix(1.3333333,0,0,-1.3333333,181.93467,29.245333)" />
    <path
       id="path61"
       d="m 1.9796484,-3.1647891 c 0,-0.1523437 -0.011719,-0.1523437 -0.1757812,-0.1523437 -0.3515625,0.3164062 -0.90234376,0.3164062 -1.00781251,0.3164062 h -0.0820313 v 0.2226563 h 0.0820313 c 0.1171875,0 0.43359371,-0.011719 0.72656251,-0.140625 v 2.48437499 c 0,0.1640625 0,0.2109375 -0.52734376,0.2109375 H 0.74917969 V -7.265625e-4 C 1.0187109,-0.02416406 1.4640234,-0.02416406 1.7569922,-0.02416406 c 0.28125,0 0.7265625,0 0.9960937,0.0234374975 V -0.22338281 H 2.5069922 c -0.5273438,0 -0.5273438,-0.046875 -0.5273438,-0.2109375 z m 0,0"
       style="fill:#ffffff;fill-opacity:1;fill-rule:nonzero;stroke:none"
       aria-label="1"
       transform="matrix(1.3333333,0,0,1.3333333,141.88,8.708)" />
    <path
       id="path62"
       d="M 2.9303359,-0.96078125 H 2.7193984 c -0.011719,0.09375 -0.058594,0.3984375 -0.140625,0.45703125 -0.035156,0.0234375 -0.4570312,0.0234375 -0.5273437,0.0234375 h -0.984375 c 0.328125,-0.24609375 0.703125,-0.515625 0.9960937,-0.7148438 0.4570313,-0.3164062 0.8671875,-0.5976562 0.8671875,-1.125 0,-0.6445312 -0.5976562,-0.9960937 -1.3125,-0.9960937 -0.66796871,0 -1.16015621,0.3867187 -1.16015621,0.8789062 0,0.2578125 0.2109375,0.3046875 0.28125,0.3046875 0.140625,0 0.29296871,-0.09375 0.29296871,-0.2929687 0,-0.1875 -0.12890621,-0.28125 -0.28124996,-0.2929688 0.140625,-0.234375 0.43359376,-0.375 0.76171876,-0.375 0.4804687,0 0.890625,0.28125 0.890625,0.7734375 0,0.421875 -0.2929688,0.7382813 -0.6796875,1.0546875 l -1.20703126,1.03125005 c -0.046875,0.046875 -0.0585938,0.046875 -0.0585938,0.0820313 V 1.5625e-4 H 2.7662734 Z m 0,0"
       style="fill:#ffffff;fill-opacity:1;fill-rule:nonzero;stroke:none"
       aria-label="2"
       transform="matrix(1.3333333,0,0,1.3333333,161.51867,20.046667)" />
    <path
       id="path63"
       d="m 1.6412734,-1.6533516 c 0.4570313,0 0.7617188,0.2929688 0.7617188,0.78515629 0,0.50390625 -0.3046875,0.7734375 -0.75,0.7734375 -0.058594,0 -0.65625001,0 -0.90234376,-0.2578125 0.19921875,-0.0351563 0.25781246,-0.1875 0.25781246,-0.3046875 0,-0.1875 -0.14062496,-0.3046875 -0.30468746,-0.3046875 -0.15234375,0 -0.3046875,0.10546875 -0.3046875,0.31640625 0,0.515625 0.5859375,0.75 1.26562496,0.75 0.8203125,0 1.3242188,-0.4921875 1.3242188,-0.97265625 0,-0.41015629 -0.3632813,-0.76171879 -0.9257813,-0.89062499 0.5976563,-0.1875 0.75,-0.5625 0.75,-0.84375 0,-0.4101563 -0.5039062,-0.7148438 -1.1367187,-0.7148438 -0.609375,0 -1.10156251,0.2578125 -1.10156251,0.703125 0,0.234375 0.1875,0.2929688 0.28125,0.2929688 0.140625,0 0.28125001,-0.1054688 0.28125001,-0.28125 0,-0.1171875 -0.058594,-0.2578125 -0.23437501,-0.28125 0.21093751,-0.234375 0.65625001,-0.2460938 0.76171871,-0.2460938 0.3632813,0 0.6210938,0.1875 0.6210938,0.5273438 0,0.28125 -0.1875,0.7382812 -0.7148438,0.7734375 -0.140625,0 -0.1523437,0 -0.28125,0.011719 -0.058594,0 -0.1171875,0.011719 -0.1171875,0.082031 0,0.082031 0.058594,0.082031 0.140625,0.082031 z m 0,0"
       style="fill:#ffffff;fill-opacity:1;fill-rule:nonzero;stroke:none"
       aria-label="3"
       transform="matrix(1.3333333,0,0,1.3333333,161.51867,42.724)" />
    <path
       id="path64"
       d="M 3.0694922,-0.80871875 V -1.031375 H 2.4483984 v -2.1914063 c 0,-0.1171875 0,-0.1523437 -0.1289062,-0.1523437 -0.1054688,0 -0.1054688,0.011719 -0.1640625,0.082031 l -1.83984376,2.261719 v 0.22265625 H 1.9679297 V -0.422 c 0,0.15234375 0,0.19921875 -0.4335938,0.19921875 H 1.3585547 V -1.25e-4 c 0.234375,-0.01171875 0.5625,-0.0234375 0.8554687,-0.0234375 0.28125,0 0.609375,0.01171875 0.84375,0.0234375 V -0.22278125 H 2.8819922 c -0.4335938,0 -0.4335938,-0.046875 -0.4335938,-0.19921875 V -0.80871875 Z M 2.0148047,-2.8360625 V -1.031375 H 0.54996094 Z m 0,0"
       style="fill:#ffffff;fill-opacity:1;fill-rule:nonzero;stroke:none"
       aria-label="4"
       transform="matrix(1.3333333,0,0,1.3333333,141.88,54.062667)" />
    <path
       id="path65"
       d="m 0.97329687,-2.7431953 c 0.26953123,0.058594 0.49218753,0.058594 0.55078123,0.058594 0.3398438,0 0.5859375,-0.09375 0.7148438,-0.1640625 0.1171875,-0.058594 0.4570312,-0.2695312 0.4570312,-0.3867187 0,-0.070312 -0.058594,-0.082031 -0.070312,-0.082031 -0.011719,0 -0.023437,0 -0.070312,0.023437 -0.1992187,0.070312 -0.5039062,0.140625 -0.8320312,0.140625 -0.28125,0 -0.5625,-0.058594 -0.82031253,-0.140625 -0.0585938,-0.023437 -0.0703125,-0.023437 -0.0703125,-0.023437 -0.0703125,0 -0.0703125,0.058594 -0.0703125,0.140625 v 1.4882813 c 0,0.09375 0,0.1523437 0.09375,0.1523437 0.046875,0 0.0585938,-0.011719 0.10546875,-0.058594 0.18749998,-0.2226563 0.44531248,-0.328125 0.78515628,-0.328125 0.2929687,0 0.4453125,0.1640625 0.515625,0.2695312 0.1171875,0.1640625 0.140625,0.3867188 0.140625,0.6328125 0,0.21093754 -0.011719,0.49218754 -0.2109375,0.67968754 -0.2226563,0.234375 -0.5039063,0.24609375 -0.6210938,0.24609375 -0.3164062,0 -0.67968748,-0.140625 -0.84374998,-0.43359375 0.2109375,-0.0117188 0.28124998,-0.1640625 0.28124998,-0.28125 0,-0.15234375 -0.11718748,-0.28125004 -0.28124998,-0.28125004 -0.10546875,0 -0.26953125,0.070312 -0.26953125,0.29296879 0,0.4921875 0.46875,0.90234375 1.12500003,0.90234375 0.7382812,0 1.3476562,-0.4921875 1.3476562,-1.11328124 0,-0.5625 -0.4804687,-1.0898438 -1.171875,-1.0898438 -0.3164062,0 -0.5625,0.082031 -0.78515623,0.2460938 z m 0,0"
       style="fill:#ffffff;fill-opacity:1;fill-rule:nonzero;stroke:none"
       aria-label="5"
       transform="matrix(1.3333333,0,0,1.3333333,122.24133,42.724)" />
    <path
       id="path66"
       d="m 0.92642187,-1.62875 c 0,-0.234375 0.0117188,-0.6328125 0.18750003,-0.9492188 0.1523437,-0.2695312 0.46875,-0.5507812 0.9375,-0.5507812 0.09375,0 0.3164062,0.011719 0.46875,0.1289062 -0.082031,0.023437 -0.2109375,0.09375 -0.2109375,0.2695313 0,0.1523437 0.1171875,0.2578125 0.2578125,0.2578125 0.09375,0 0.2695312,-0.046875 0.2695312,-0.28125 0,-0.2695313 -0.1875,-0.5625 -0.796875,-0.5625 -0.8554687,0 -1.64062498,0.703125 -1.64062498,1.734375 0,1.18359375 0.5859375,1.6875 1.31249998,1.6875 0.4921875,0 0.7265625,-0.17578125 0.890625,-0.31640625 0.3164063,-0.26953125 0.3867188,-0.5625 0.3867188,-0.80859375 0,-0.3046875 -0.09375,-0.5507813 -0.3632813,-0.7734375 -0.2109375,-0.1992188 -0.4453125,-0.3398438 -0.8789062,-0.3398438 -0.28125,0 -0.609375,0.140625 -0.82031253,0.5039063 z m 0.78515623,1.53515625 c -0.77343748,0 -0.77343748,-0.83203125 -0.77343748,-1.03125005 0,-0.3867187 0.28124998,-0.8320312 0.79687498,-0.8320312 0.2578125,0 0.421875,0.058594 0.5742188,0.2578125 0.1523437,0.1875 0.1523437,0.3984375 0.1523437,0.6679687 0,0.2929688 0,0.4804688 -0.1640625,0.67968755 -0.140625,0.1640625 -0.3046875,0.2578125 -0.5859375,0.2578125 z m 0,0"
       style="fill:#ffffff;fill-opacity:1;fill-rule:nonzero;stroke:none"
       aria-label="6"
       transform="matrix(1.3333333,0,0,1.3333333,122.24133,20.046667)" />
    <path
       id="path67"
       d="m -28.3468,14.17339 12.27455,-7.0867 V -7.08669 l -12.27455,-7.0867 -12.27455,7.0867 V 7.08669 Z"
       style="fill:none;stroke:#ffffff;stroke-width:0.3985;stroke-linecap:butt;stroke-linejoin:miter;stroke-miterlimit:10;stroke-dasharray:none;stroke-opacity:1"
       transform="matrix(1.3333333,0,0,-1.3333333,181.93467,29.245333)" />
    <path
       id="path68"
       d="m -16.07225,7.08669 h -24.5491"
       style="fill:none;stroke:#ffffff;stroke-width:0.3985;stroke-linecap:butt;stroke-linejoin:miter;stroke-miterlimit:10;stroke-dasharray:none;stroke-opacity:1"
       transform="matrix(1.3333333,0,0,-1.3333333,181.93467,29.245333)" />
    <path
       id="path69"
       d="M -16.07225,7.08669 -40.62135,-7.08669"
       style="fill:none;stroke:#ffffff;stroke-width:0.3985;stroke-linecap:butt;stroke-linejoin:miter;stroke-miterlimit:10;stroke-dasharray:none;stroke-opacity:1"
       transform="matrix(1.3333333,0,0,-1.3333333,181.93467,29.245333)" />
    <path
       id="path70"
       d="m -16.07225,-7.08669 h -24.5491"
       style="fill:none;stroke:#ffffff;stroke-width:0.3985;stroke-linecap:butt;stroke-linejoin:miter;stroke-miterlimit:10;stroke-dasharray:none;stroke-opacity:1"
       transform="matrix(1.3333333,0,0,-1.3333333,181.93467,29.245333)" />
    <path
       id="path71"
       d="m 1.9790312,-3.1647891 c 0,-0.1523437 -0.011719,-0.1523437 -0.1757812,-0.1523437 -0.3515625,0.3164062 -0.90234375,0.3164062 -1.0078125,0.3164062 H 0.7134062 v 0.2226563 h 0.0820313 c 0.1171875,0 0.4335937,-0.011719 0.7265625,-0.140625 v 2.48437499 c 0,0.1640625 0,0.2109375 -0.52734375,0.2109375 H 0.7485625 V -7.265625e-4 C 1.0180937,-0.02416406 1.4634062,-0.02416406 1.756375,-0.02416406 c 0.28125,0 0.7265625,0 0.9960937,0.0234374975 V -0.22338281 H 2.506375 c -0.5273438,0 -0.5273438,-0.046875 -0.5273438,-0.2109375 z m 0,0"
       style="fill:#ffffff;fill-opacity:1;fill-rule:nonzero;stroke:none"
       aria-label="1"
       transform="matrix(1.3333333,0,0,1.3333333,217.47067,8.708)" />
    <path
       id="path72"
       d="M 2.9297188,-0.96078125 H 2.7187813 c -0.011719,0.09375 -0.058594,0.3984375 -0.140625,0.45703125 C 2.543,-0.4803125 2.121125,-0.4803125 2.0508125,-0.4803125 h -0.984375 c 0.328125,-0.24609375 0.703125,-0.515625 0.9960938,-0.7148438 0.4570312,-0.3164062 0.8671875,-0.5976562 0.8671875,-1.125 0,-0.6445312 -0.5976563,-0.9960937 -1.3125,-0.9960937 -0.6679688,0 -1.1601563,0.3867187 -1.1601563,0.8789062 0,0.2578125 0.2109375,0.3046875 0.28125,0.3046875 0.140625,0 0.2929688,-0.09375 0.2929688,-0.2929687 0,-0.1875 -0.1289063,-0.28125 -0.28125005,-0.2929688 0.140625,-0.234375 0.43359375,-0.375 0.76171875,-0.375 0.4804688,0 0.890625,0.28125 0.890625,0.7734375 0,0.421875 -0.2929687,0.7382813 -0.6796875,1.0546875 l -1.20703125,1.03125005 c -0.046875,0.046875 -0.0585938,0.046875 -0.0585938,0.0820313 V 1.5625e-4 H 2.7656563 Z m 0,0"
       style="fill:#ffffff;fill-opacity:1;fill-rule:nonzero;stroke:none"
       aria-label="2"
       transform="matrix(1.3333333,0,0,1.3333333,237.10933,20.046667)" />
    <path
       id="path73"
       d="m 1.6406563,-1.6533516 c 0.4570312,0 0.7617187,0.2929688 0.7617187,0.78515629 0,0.50390625 -0.3046875,0.7734375 -0.75,0.7734375 -0.058594,0 -0.65625,0 -0.90234375,-0.2578125 0.19921875,-0.0351563 0.25781255,-0.1875 0.25781255,-0.3046875 0,-0.1875 -0.14062505,-0.3046875 -0.30468755,-0.3046875 -0.15234375,0 -0.3046875,0.10546875 -0.3046875,0.31640625 0,0.515625 0.5859375,0.75 1.26562505,0.75 0.8203125,0 1.3242187,-0.4921875 1.3242187,-0.97265625 0,-0.41015629 -0.3632812,-0.76171879 -0.9257812,-0.89062499 0.5976562,-0.1875 0.75,-0.5625 0.75,-0.84375 0,-0.4101563 -0.5039063,-0.7148438 -1.1367188,-0.7148438 -0.609375,0 -1.1015625,0.2578125 -1.1015625,0.703125 0,0.234375 0.1875,0.2929688 0.28125,0.2929688 0.140625,0 0.28125,-0.1054688 0.28125,-0.28125 0,-0.1171875 -0.058594,-0.2578125 -0.234375,-0.28125 0.2109375,-0.234375 0.65625,-0.2460938 0.7617188,-0.2460938 0.3632812,0 0.6210937,0.1875 0.6210937,0.5273438 0,0.28125 -0.1875,0.7382812 -0.7148437,0.7734375 -0.140625,0 -0.1523438,0 -0.28125,0.011719 -0.058594,0 -0.1171875,0.011719 -0.1171875,0.082031 0,0.082031 0.058594,0.082031 0.140625,0.082031 z m 0,0"
       style="fill:#ffffff;fill-opacity:1;fill-rule:nonzero;stroke:none"
       aria-label="3"
       transform="matrix(1.3333333,0,0,1.3333333,237.10933,42.724)" />
    <path
       id="path74"
       d="M 3.068875,-0.80871875 V -1.031375 H 2.4477812 v -2.1914063 c 0,-0.1171875 0,-0.1523437 -0.1289062,-0.1523437 -0.1054688,0 -0.1054688,0.011719 -0.1640625,0.082031 l -1.83984375,2.261719 v 0.22265625 H 1.9673125 V -0.422 c 0,0.15234375 0,0.19921875 -0.4335938,0.19921875 H 1.3579375 V -1.25e-4 c 0.234375,-0.01171875 0.5625,-0.0234375 0.8554687,-0.0234375 0.28125,0 0.609375,0.01171875 0.84375,0.0234375 V -0.22278125 H 2.881375 c -0.4335938,0 -0.4335938,-0.046875 -0.4335938,-0.19921875 V -0.80871875 Z M 2.0141875,-2.8360625 V -1.031375 H 0.54934375 Z m 0,0"
       style="fill:#ffffff;fill-opacity:1;fill-rule:nonzero;stroke:none"
       aria-label="4"
       transform="matrix(1.3333333,0,0,1.3333333,217.47067,54.062667)" />
    <path
       id="path75"
       d="m 0.97267969,-2.7431953 c 0.26953121,0.058594 0.49218751,0.058594 0.55078121,0.058594 0.3398438,0 0.5859375,-0.09375 0.7148438,-0.1640625 0.1171875,-0.058594 0.4570312,-0.2695312 0.4570312,-0.3867187 0,-0.070312 -0.058594,-0.082031 -0.070312,-0.082031 -0.011719,0 -0.023437,0 -0.070312,0.023437 -0.1992187,0.070312 -0.5039062,0.140625 -0.8320312,0.140625 -0.28125,0 -0.5625,-0.058594 -0.82031251,-0.140625 -0.0585938,-0.023437 -0.0703125,-0.023437 -0.0703125,-0.023437 -0.0703125,0 -0.0703125,0.058594 -0.0703125,0.140625 v 1.4882813 c 0,0.09375 0,0.1523437 0.09375,0.1523437 0.046875,0 0.0585938,-0.011719 0.10546875,-0.058594 0.18749996,-0.2226563 0.44531246,-0.328125 0.78515626,-0.328125 0.2929687,0 0.4453125,0.1640625 0.515625,0.2695312 0.1171875,0.1640625 0.140625,0.3867188 0.140625,0.6328125 0,0.21093754 -0.011719,0.49218754 -0.2109375,0.67968754 -0.2226563,0.234375 -0.5039063,0.24609375 -0.6210938,0.24609375 -0.3164062,0 -0.67968746,-0.140625 -0.84374996,-0.43359375 0.2109375,-0.0117188 0.28124996,-0.1640625 0.28124996,-0.28125 0,-0.15234375 -0.11718746,-0.28125004 -0.28124996,-0.28125004 -0.10546875,0 -0.26953125,0.070312 -0.26953125,0.29296879 0,0.4921875 0.46875,0.90234375 1.12500001,0.90234375 0.7382812,0 1.3476562,-0.4921875 1.3476562,-1.11328124 0,-0.5625 -0.4804687,-1.0898438 -1.171875,-1.0898438 -0.3164062,0 -0.5625,0.082031 -0.78515621,0.2460938 z m 0,0"
       style="fill:#ffffff;fill-opacity:1;fill-rule:nonzero;stroke:none"
       aria-label="5"
       transform="matrix(1.3333333,0,0,1.3333333,197.832,42.724)" />
    <path
       id="path76"
       d="m 0.92580469,-1.62875 c 0,-0.234375 0.0117188,-0.6328125 0.18750001,-0.9492188 0.1523437,-0.2695312 0.46875,-0.5507812 0.9375,-0.5507812 0.09375,0 0.3164062,0.011719 0.46875,0.1289062 -0.082031,0.023437 -0.2109375,0.09375 -0.2109375,0.2695313 0,0.1523437 0.1171875,0.2578125 0.2578125,0.2578125 0.09375,0 0.2695312,-0.046875 0.2695312,-0.28125 0,-0.2695313 -0.1875,-0.5625 -0.796875,-0.5625 -0.8554687,0 -1.64062496,0.703125 -1.64062496,1.734375 0,1.18359375 0.5859375,1.6875 1.31249996,1.6875 0.4921875,0 0.7265625,-0.17578125 0.890625,-0.31640625 0.3164063,-0.26953125 0.3867188,-0.5625 0.3867188,-0.80859375 0,-0.3046875 -0.09375,-0.5507813 -0.3632813,-0.7734375 -0.2109375,-0.1992188 -0.4453125,-0.3398438 -0.8789062,-0.3398438 -0.28125,0 -0.609375,0.140625 -0.82031251,0.5039063 z m 0.78515621,1.53515625 c -0.77343746,0 -0.77343746,-0.83203125 -0.77343746,-1.03125005 0,-0.3867187 0.28124996,-0.8320312 0.79687496,-0.8320312 0.2578125,0 0.421875,0.058594 0.5742188,0.2578125 0.1523437,0.1875 0.1523437,0.3984375 0.1523437,0.6679687 0,0.2929688 0,0.4804688 -0.1640625,0.67968755 -0.140625,0.1640625 -0.3046875,0.2578125 -0.5859375,0.2578125 z m 0,0"
       style="fill:#ffffff;fill-opacity:1;fill-rule:nonzero;stroke:none"
       aria-label="6"
       transform="matrix(1.3333333,0,0,1.3333333,197.832,20.046667)" />
    <path
       id="path77"
       d="M 28.3468,14.17339 40.62135,7.08669 V -7.08669 l -12.27455,-7.0867 -12.27455,7.0867 V 7.08669 Z"
       style="fill:none;stroke:#ffffff;stroke-width:0.3985;stroke-linecap:butt;stroke-linejoin:miter;stroke-miterlimit:10;stroke-dasharray:none;stroke-opacity:1"
       transform="matrix(1.3333333,0,0,-1.3333333,181.93467,29.245333)" />
    <path
       id="path78"
       d="M 40.62135,7.08669 H 16.07225"
       style="fill:none;stroke:#ffffff;stroke-width:0.3985;stroke-linecap:butt;stroke-linejoin:miter;stroke-miterlimit:10;stroke-dasharray:none;stroke-opacity:1"
       transform="matrix(1.3333333,0,0,-1.3333333,181.93467,29.245333)" />
    <path
       id="path79"
       d="M 40.62135,-7.08669 16.07225,7.08669"
       style="fill:none;stroke:#ffffff;stroke-width:0.3985;stroke-linecap:butt;stroke-linejoin:miter;stroke-miterlimit:10;stroke-dasharray:none;stroke-opacity:1"
       transform="matrix(1.3333333,0,0,-1.3333333,181.93467,29.245333)" />
    <path
       id="path80"
       d="M 40.62135,-7.08669 H 16.07225"
       style="fill:none;stroke:#ffffff;stroke-width:0.3985;stroke-linecap:butt;stroke-linejoin:miter;stroke-miterlimit:10;stroke-dasharray:none;stroke-opacity:1"
       transform="matrix(1.3333333,0,0,-1.3333333,181.93467,29.245333)" />
  </g>
</svg>
