<?xml version="1.0" encoding="UTF-8" standalone="no"?>
<!-- Created with Inkscape (http://www.inkscape.org/) -->

<svg
   version="1.1"
   id="svg1"
   width="90.450668"
   height="319.77734"
   viewBox="0 0 90.450668 319.77734"
   xmlns="http://www.w3.org/2000/svg"
   xmlns:svg="http://www.w3.org/2000/svg">
  <defs
     id="defs1" />
  <g
     id="g1">
    <path
       id="path1"
       d="m 2.9306797,-6.3749844 c 0,-0.234375 0,-0.2578125 -0.234375,-0.2578125 -0.609375,0.6328125 -1.4882813,0.6328125 -1.80468751,0.6328125 v 0.3164063 c 0.19921871,0 0.78515621,0 1.30078121,-0.2578125 v 5.15624998 c 0,0.3515625 -0.035156,0.48046875 -0.9257812,0.48046875 H 0.95021094 V 1.5625e-5 C 1.3017734,-0.03514062 2.1572422,-0.03514062 2.5556797,-0.03514062 c 0.3984375,0 1.265625,0 1.6171875,0.035156245 V -0.30467187 H 3.8564609 c -0.9023437,0 -0.9257812,-0.1171875 -0.9257812,-0.48046875 z m 0,0"
       style="fill:#ffffff;fill-opacity:1;fill-rule:nonzero;stroke:none"
       aria-label="1"
       transform="matrix(1.3333333,0,0,1.3333333,25.221333,277.55467)" />
    <path
       id="path2"
       d="M 1.2650781,-0.76178906 2.3197656,-1.7930391 c 1.5585938,-1.3710937 2.15625,-1.9101562 2.15625,-2.90625 0,-1.1367187 -0.9023437,-1.9335937 -2.1210937,-1.9335937 -1.125,0 -1.85156252,0.9140625 -1.85156252,1.8046875 0,0.5507812 0.4921875,0.5507812 0.52734372,0.5507812 0.1640625,0 0.515625,-0.1171875 0.515625,-0.5273437 0,-0.2578125 -0.1875,-0.515625 -0.5273437,-0.515625 -0.0820313,0 -0.10546877,0 -0.12890627,0.011719 C 1.1127344,-5.953195 1.6517969,-6.328195 2.2260156,-6.328195 c 0.9140625,0 1.3359375,0.8085937 1.3359375,1.6289062 0,0.796875 -0.4921875,1.5820313 -1.0429687,2.203125 L 0.60882813,-0.36335156 C 0.50335938,-0.25788281 0.50335938,-0.23444531 0.50335938,-7.03125e-5 H 4.1947656 L 4.4760156,-1.7344453 H 4.2182031 c -0.046875,0.3046875 -0.1171875,0.73828124 -0.2109375,0.89062499 -0.070312,0.0820313 -0.7265625,0.0820313 -0.9492187,0.0820313 z m 0,0"
       style="fill:#ffffff;fill-opacity:1;fill-rule:nonzero;stroke:none"
       aria-label="2"
       transform="matrix(1.3333333,0,0,1.3333333,41.586667,287.004)" />
    <path
       id="path3"
       d="m 2.8939844,-3.5031484 c 0.8085937,-0.2695313 1.3945312,-0.9726563 1.3945312,-1.7578125 0,-0.8203125 -0.8789062,-1.3710938 -1.8398437,-1.3710938 -1.0078125,0 -1.75781252,0.5976563 -1.75781252,1.3476563 0,0.3398437 0.2109375,0.5273437 0.50390622,0.5273437 0.3046875,0 0.5039063,-0.2226562 0.5039063,-0.515625 0,-0.4921875 -0.46875,-0.4921875 -0.609375,-0.4921875 0.3046875,-0.4921875 0.9609375,-0.6210937 1.3242187,-0.6210937 0.4101563,0 0.9492188,0.2226562 0.9492188,1.1132812 0,0.1289063 -0.011719,0.703125 -0.2695313,1.1367188 -0.3046875,0.4804687 -0.6445312,0.515625 -0.890625,0.515625 -0.082031,0.011719 -0.3164062,0.035156 -0.3867187,0.035156 -0.082031,0.011719 -0.1523438,0.023437 -0.1523438,0.1171875 0,0.1171875 0.070312,0.1171875 0.234375,0.1171875 h 0.4453125 c 0.8085938,0 1.1835938,0.6679688 1.1835938,1.6523438 0,1.34765621 -0.6914063,1.64062496 -1.125,1.64062496 -0.4335938,0 -1.171875,-0.17578125 -1.52343752,-0.76171875 0.35156252,0.0585938 0.65625002,-0.1640625 0.65625002,-0.53906251 0,-0.3632812 -0.2695313,-0.5625 -0.56250002,-0.5625 -0.234375,0 -0.55078125,0.140625 -0.55078125,0.5742188 0,0.91406246 0.92578127,1.57031246 2.00390627,1.57031246 1.21875,0 2.1210937,-0.9140625 2.1210937,-1.92187496 0,-0.8203125 -0.6210937,-1.59375 -1.6523437,-1.8046873 z m 0,0"
       style="fill:#ffffff;fill-opacity:1;fill-rule:nonzero;stroke:none"
       aria-label="3"
       transform="matrix(1.3333333,0,0,1.3333333,41.586667,305.90133)" />
    <path
       id="path4"
       d="m 2.9306797,-1.6418828 v 0.86718749 c 0,0.3515625 -0.023437,0.46875 -0.7617188,0.46875 H 1.9580234 v 0.3046875 c 0.4101563,-0.03515625 0.9375,-0.03515625 1.3476563,-0.03515625 0.421875,0 0.9492187,0 1.359375,0.03515625 v -0.3046875 H 4.4541172 c -0.7382813,0 -0.7617188,-0.1171875 -0.7617188,-0.46875 V -1.6418828 H 4.6884922 V -1.9582891 H 3.6923984 v -4.5234375 c 0,-0.1992187 0,-0.2578125 -0.1523437,-0.2578125 -0.09375,0 -0.1171875,0 -0.1992188,0.1171875 l -3.05859371,4.6640625 v 0.3164063 z m 0.058594,-0.3164063 H 0.56349219 L 2.9892734,-5.6731328 Z m 0,0"
       style="fill:#ffffff;fill-opacity:1;fill-rule:nonzero;stroke:none"
       aria-label="4"
       transform="matrix(1.3333333,0,0,1.3333333,25.221333,315.34933)" />
    <path
       id="path5"
       d="m 4.4771641,-2.0031484 c 0,-1.1835938 -0.8203125,-2.1796875 -1.8984375,-2.1796875 -0.4804688,0 -0.9023438,0.1640625 -1.265625,0.5039062 v -1.9335937 c 0.1992187,0.058594 0.5273437,0.1289062 0.84375,0.1289062 1.2304687,0 1.9335937,-0.9140625 1.9335937,-1.0429687 0,-0.058594 -0.035156,-0.1054688 -0.1054687,-0.1054688 -0.011719,0 -0.035156,0 -0.082031,0.023437 -0.1992187,0.09375 -0.6796875,0.2929688 -1.3476562,0.2929688 -0.3984375,0 -0.8554688,-0.070312 -1.3242188,-0.28125 -0.082031,-0.023437 -0.1054687,-0.023437 -0.1289062,-0.023437 -0.09375,0 -0.09375,0.082031 -0.09375,0.234375 v 2.953125 c 0,0.1757812 0,0.2578125 0.140625,0.2578125 0.070312,0 0.082031,-0.035156 0.1289062,-0.09375 0.1054688,-0.1523438 0.4804688,-0.6914063 1.2773438,-0.6914063 0.5273437,0 0.7734375,0.4570313 0.8554687,0.6328125 0.1523438,0.375 0.1757813,0.7617188 0.1757813,1.2539063 0,0.3515625 0,0.9492187 -0.234375,1.37109371 -0.2460938,0.38671875 -0.609375,0.64453125 -1.0664063,0.64453125 -0.7265625,0 -1.30078124,-0.52734375 -1.46484374,-1.11328126 0.0234375,0.011719 0.0585938,0.011719 0.1640625,0.011719 0.32812504,0 0.50390624,-0.2460938 0.50390624,-0.4804688 0,-0.2460937 -0.1757812,-0.4921875 -0.50390624,-0.4921875 -0.140625,0 -0.48046875,0.070312 -0.48046875,0.5273438 0,0.85546871 0.67968749,1.82812496 1.79296879,1.82812496 1.1601562,0 2.1796875,-0.9609375 2.1796872,-2.22656266 z m 0,0"
       style="fill:#ffffff;fill-opacity:1;fill-rule:nonzero;stroke:none"
       aria-label="5"
       transform="matrix(1.3333333,0,0,1.3333333,8.8546667,305.90133)" />
    <path
       id="path6"
       d="m 1.3131016,-3.2696016 v -0.234375 c 0,-2.5195312 1.2421875,-2.8828125 1.7460937,-2.8828125 0.234375,0 0.65625,0.058594 0.8789063,0.3984375 -0.1523438,0 -0.5507813,0 -0.5507813,0.4453125 0,0.3164063 0.234375,0.4570313 0.4570313,0.4570313 0.1640625,0 0.4570312,-0.082031 0.4570312,-0.46875 0,-0.5976563 -0.4335937,-1.078125 -1.265625,-1.078125 -1.2773437,0 -2.61328124,1.2890625 -2.61328124,3.4804687 0,2.66015629 1.14843754,3.37500004 2.07421874,3.37500004 1.1132813,0 2.0507813,-0.9375 2.0507813,-2.25000004 0,-1.265625 -0.8789063,-2.2265625 -1.9921875,-2.2265625 -0.6679688,0 -1.0429688,0.5039063 -1.2421875,0.984375 z m 1.1835937,3.21093754 c -0.6210937,0 -0.9257812,-0.59765625 -0.984375,-0.75 C 1.3365391,-1.2774141 1.3365391,-2.0742891 1.3365391,-2.2500703 c 0,-0.7734375 0.3164062,-1.7695313 1.21875,-1.7695313 0.1523437,0 0.609375,0 0.9257812,0.609375 0.1757813,0.375 0.1757813,0.8789063 0.1757813,1.3710938 0,0.4804687 0,0.9726562 -0.1640625,1.33593749 -0.3046875,0.59765625 -0.7617188,0.64453125 -0.9960938,0.64453125 z m 0,0"
       style="fill:#ffffff;fill-opacity:1;fill-rule:nonzero;stroke:none"
       aria-label="6"
       transform="matrix(1.3333333,0,0,1.3333333,8.8546667,287.004)" />
    <path
       id="path7"
       d="M 0,14.17339 12.27454,7.08669 V -7.08669 L 0,-14.17339 -12.27454,-7.08669 V 7.08669 Z"
       style="fill:none;stroke:#ffffff;stroke-width:0.3985;stroke-linecap:butt;stroke-linejoin:miter;stroke-miterlimit:10;stroke-dasharray:none;stroke-opacity:1"
       transform="matrix(1.3333333,0,0,-1.3333333,28.541333,292.172)" />
    <path
       id="path8"
       d="M 0,14.17339 12.27454,-7.08669"
       style="fill:none;stroke:#ffffff;stroke-width:0.3985;stroke-linecap:butt;stroke-linejoin:miter;stroke-miterlimit:10;stroke-dasharray:none;stroke-opacity:1"
       transform="matrix(1.3333333,0,0,-1.3333333,28.541333,292.172)" />
    <path
       id="path9"
       d="M 0,14.17339 V -14.17339"
       style="fill:none;stroke:#ffffff;stroke-width:0.3985;stroke-linecap:butt;stroke-linejoin:miter;stroke-miterlimit:10;stroke-dasharray:none;stroke-opacity:1"
       transform="matrix(1.3333333,0,0,-1.3333333,28.541333,292.172)" />
    <path
       id="path10"
       d="M 0,14.17339 -12.27454,-7.08669"
       style="fill:none;stroke:#ffffff;stroke-width:0.3985;stroke-linecap:butt;stroke-linejoin:miter;stroke-miterlimit:10;stroke-dasharray:none;stroke-opacity:1"
       transform="matrix(1.3333333,0,0,-1.3333333,28.541333,292.172)" />
    <path
       id="path11"
       d="m 2.9294063,-6.3737109 c 0,-0.234375 0,-0.2578125 -0.234375,-0.2578125 -0.609375,0.6328125 -1.4882813,0.6328125 -1.80468755,0.6328125 v 0.3164062 c 0.19921875,0 0.78515625,0 1.30078125,-0.2578125 v 5.15625001 c 0,0.3515625 -0.035156,0.48046875 -0.9257812,0.48046875 H 0.9489375 v 0.3046875 C 1.3005,-0.03386719 2.1559688,-0.03386719 2.5544063,-0.03386719 c 0.3984375,0 1.265625,0 1.6171875,0.03515625 v -0.3046875 H 3.8551875 c -0.9023437,0 -0.9257812,-0.1171875 -0.9257812,-0.48046875 z m 0,0"
       style="fill:#ffffff;fill-opacity:1;fill-rule:nonzero;stroke:none"
       aria-label="1"
       transform="matrix(1.3333333,0,0,1.3333333,63.016,239.76)" />
    <path
       id="path12"
       d="M 1.2657344,-0.76244531 2.3204219,-1.7936953 c 1.5585937,-1.3710938 2.15625,-1.9101563 2.15625,-2.90625 0,-1.1367188 -0.9023438,-1.9335938 -2.1210938,-1.9335938 -1.125,0 -1.85156247,0.9140625 -1.85156247,1.8046875 0,0.5507813 0.4921875,0.5507813 0.52734377,0.5507813 0.1640625,0 0.515625,-0.1171875 0.515625,-0.5273438 0,-0.2578125 -0.1875,-0.515625 -0.5273438,-0.515625 -0.0820312,0 -0.10546872,0 -0.12890622,0.011719 0.22265622,-0.6445313 0.76171872,-1.0195313 1.33593752,-1.0195313 0.9140625,0 1.3359375,0.8085938 1.3359375,1.6289063 0,0.796875 -0.4921875,1.5820312 -1.0429688,2.203125 L 0.60948438,-0.36400781 C 0.50401563,-0.25853906 0.50401563,-0.23510156 0.50401563,-7.265625e-4 H 4.1954219 L 4.4766719,-1.7351016 H 4.2188594 c -0.046875,0.3046875 -0.1171875,0.73828129 -0.2109375,0.89062504 -0.070313,0.0820313 -0.7265625,0.0820313 -0.9492188,0.0820313 z m 0,0"
       style="fill:#ffffff;fill-opacity:1;fill-rule:nonzero;stroke:none"
       aria-label="2"
       transform="matrix(1.3333333,0,0,1.3333333,79.382667,249.208)" />
    <path
       id="path13"
       d="m 2.8946406,-3.5038047 c 0.8085938,-0.2695312 1.3945313,-0.9726562 1.3945313,-1.7578125 0,-0.8203125 -0.8789063,-1.3710937 -1.8398438,-1.3710937 -1.0078125,0 -1.75781247,0.5976562 -1.75781247,1.3476562 0,0.3398438 0.2109375,0.5273438 0.50390627,0.5273438 0.3046875,0 0.5039062,-0.2226563 0.5039062,-0.515625 0,-0.4921875 -0.46875,-0.4921875 -0.609375,-0.4921875 0.3046875,-0.4921875 0.9609375,-0.6210938 1.3242188,-0.6210938 0.4101562,0 0.9492187,0.2226563 0.9492187,1.1132813 0,0.1289062 -0.011719,0.703125 -0.2695312,1.1367187 -0.3046875,0.4804688 -0.6445313,0.515625 -0.890625,0.515625 -0.082031,0.011719 -0.3164063,0.035156 -0.3867188,0.035156 -0.082031,0.011719 -0.1523437,0.023437 -0.1523437,0.1171875 0,0.1171875 0.070312,0.1171875 0.234375,0.1171875 h 0.4453125 c 0.8085937,0 1.1835937,0.6679687 1.1835937,1.6523437 0,1.34765626 -0.6914062,1.64062501 -1.125,1.64062501 -0.4335937,0 -1.171875,-0.17578125 -1.52343747,-0.76171875 0.35156247,0.0585938 0.65624997,-0.1640625 0.65624997,-0.53906246 0,-0.3632813 -0.2695312,-0.5625 -0.56249997,-0.5625 -0.234375,0 -0.55078125,0.140625 -0.55078125,0.5742187 0,0.91406251 0.92578122,1.57031251 2.00390622,1.57031251 1.21875,0 2.1210938,-0.9140625 2.1210938,-1.92187501 0,-0.8203125 -0.6210938,-1.59375 -1.6523438,-1.8046872 z m 0,0"
       style="fill:#ffffff;fill-opacity:1;fill-rule:nonzero;stroke:none"
       aria-label="3"
       transform="matrix(1.3333333,0,0,1.3333333,79.382667,268.10533)" />
    <path
       id="path14"
       d="m 2.9294063,-1.6406094 v 0.86718753 c 0,0.3515625 -0.023437,0.46875 -0.7617188,0.46875 H 1.95675 V 1.5625e-5 c 0.4101563,-0.035156245 0.9375,-0.035156245 1.3476563,-0.035156245 0.421875,0 0.9492187,0 1.359375,0.035156245 V -0.30467187 H 4.4528438 c -0.7382813,0 -0.7617188,-0.1171875 -0.7617188,-0.46875 V -1.6406094 H 4.6872188 V -1.9570156 H 3.691125 v -4.5234375 c 0,-0.1992188 0,-0.2578125 -0.1523437,-0.2578125 -0.09375,0 -0.1171875,0 -0.1992188,0.1171875 l -3.05859375,4.6640625 v 0.3164062 z M 2.988,-1.9570156 H 0.56221875 L 2.988,-5.6718594 Z m 0,0"
       style="fill:#ffffff;fill-opacity:1;fill-rule:nonzero;stroke:none"
       aria-label="4"
       transform="matrix(1.3333333,0,0,1.3333333,63.016,277.55467)" />
    <path
       id="path15"
       d="m 4.4778203,-2.0038047 c 0,-1.1835937 -0.8203125,-2.1796875 -1.8984375,-2.1796875 -0.4804687,0 -0.9023437,0.1640625 -1.265625,0.5039063 v -1.9335938 c 0.1992188,0.058594 0.5273438,0.1289063 0.84375,0.1289063 1.2304688,0 1.9335938,-0.9140625 1.9335938,-1.0429688 0,-0.058594 -0.035156,-0.1054687 -0.1054688,-0.1054687 -0.011719,0 -0.035156,0 -0.082031,0.023437 -0.1992188,0.09375 -0.6796875,0.2929687 -1.3476563,0.2929687 -0.3984375,0 -0.8554687,-0.070312 -1.3242187,-0.28125 -0.082031,-0.023437 -0.1054688,-0.023437 -0.1289063,-0.023437 -0.09375,0 -0.09375,0.082031 -0.09375,0.234375 v 2.953125 c 0,0.1757813 0,0.2578125 0.140625,0.2578125 0.070312,0 0.082031,-0.035156 0.1289063,-0.09375 0.1054687,-0.1523437 0.4804687,-0.6914062 1.2773437,-0.6914062 0.5273438,0 0.7734375,0.4570312 0.8554688,0.6328125 0.1523437,0.375 0.1757812,0.7617187 0.1757812,1.2539062 0,0.3515625 0,0.9492188 -0.234375,1.37109376 -0.2460937,0.38671875 -0.609375,0.64453125 -1.0664062,0.64453125 -0.7265625,0 -1.30078129,-0.52734375 -1.46484379,-1.11328121 0.0234375,0.011719 0.0585938,0.011719 0.1640625,0.011719 0.32812499,0 0.50390629,-0.2460937 0.50390629,-0.4804687 0,-0.2460938 -0.1757813,-0.4921875 -0.50390629,-0.4921875 -0.140625,0 -0.48046875,0.070312 -0.48046875,0.5273437 0,0.85546876 0.67968754,1.82812501 1.79296874,1.82812501 1.1601563,0 2.1796875,-0.9609375 2.1796873,-2.22656281 z m 0,0"
       style="fill:#ffffff;fill-opacity:1;fill-rule:nonzero;stroke:none"
       aria-label="5"
       transform="matrix(1.3333333,0,0,1.3333333,46.650667,268.10533)" />
    <path
       id="path16"
       d="m 1.3137578,-3.2702578 v -0.234375 c 0,-2.5195313 1.2421875,-2.8828125 1.7460938,-2.8828125 0.234375,0 0.65625,0.058594 0.8789062,0.3984375 -0.1523437,0 -0.5507812,0 -0.5507812,0.4453125 0,0.3164062 0.234375,0.4570312 0.4570312,0.4570312 0.1640625,0 0.4570313,-0.082031 0.4570313,-0.46875 0,-0.5976562 -0.4335938,-1.078125 -1.265625,-1.078125 -1.2773438,0 -2.61328129,1.2890625 -2.61328129,3.4804688 0,2.66015624 1.14843749,3.37499999 2.07421879,3.37499999 1.1132812,0 2.0507812,-0.9375 2.0507812,-2.24999999 0,-1.265625 -0.8789062,-2.2265625 -1.9921875,-2.2265625 -0.6679687,0 -1.0429687,0.5039062 -1.2421875,0.984375 z m 1.1835938,3.21093749 c -0.6210938,0 -0.9257813,-0.59765625 -0.984375,-0.75 C 1.3371953,-1.2780703 1.3371953,-2.0749453 1.3371953,-2.2507266 c 0,-0.7734375 0.3164063,-1.7695312 1.21875,-1.7695312 0.1523438,0 0.609375,0 0.9257813,0.609375 0.1757812,0.375 0.1757812,0.8789062 0.1757812,1.3710937 0,0.4804688 0,0.9726563 -0.1640625,1.33593754 -0.3046875,0.59765625 -0.7617187,0.64453125 -0.9960937,0.64453125 z m 0,0"
       style="fill:#ffffff;fill-opacity:1;fill-rule:nonzero;stroke:none"
       aria-label="6"
       transform="matrix(1.3333333,0,0,1.3333333,46.650667,249.208)" />
    <path
       id="path17"
       d="M 28.3468,42.5202 40.62135,35.43349 V 21.26012 L 28.3468,14.1734 16.07225,21.26012 v 14.17337 z"
       style="fill:none;stroke:#ffffff;stroke-width:0.3985;stroke-linecap:butt;stroke-linejoin:miter;stroke-miterlimit:10;stroke-dasharray:none;stroke-opacity:1"
       transform="matrix(1.3333333,0,0,-1.3333333,28.541333,292.172)" />
    <path
       id="path18"
       d="M 40.62135,35.43349 28.3468,14.1734"
       style="fill:none;stroke:#ffffff;stroke-width:0.3985;stroke-linecap:butt;stroke-linejoin:miter;stroke-miterlimit:10;stroke-dasharray:none;stroke-opacity:1"
       transform="matrix(1.3333333,0,0,-1.3333333,28.541333,292.172)" />
    <path
       id="path19"
       d="M 28.3468,42.5202 V 14.1734"
       style="fill:none;stroke:#ffffff;stroke-width:0.3985;stroke-linecap:butt;stroke-linejoin:miter;stroke-miterlimit:10;stroke-dasharray:none;stroke-opacity:1"
       transform="matrix(1.3333333,0,0,-1.3333333,28.541333,292.172)" />
    <path
       id="path20"
       d="M 28.3468,42.5202 16.07225,21.26012"
       style="fill:none;stroke:#ffffff;stroke-width:0.3985;stroke-linecap:butt;stroke-linejoin:miter;stroke-miterlimit:10;stroke-dasharray:none;stroke-opacity:1"
       transform="matrix(1.3333333,0,0,-1.3333333,28.541333,292.172)" />
    <path
       id="path21"
       d="m 2.9294063,-6.3743672 c 0,-0.234375 0,-0.2578125 -0.234375,-0.2578125 -0.609375,0.6328125 -1.4882813,0.6328125 -1.80468755,0.6328125 v 0.3164063 c 0.19921875,0 0.78515625,0 1.30078125,-0.2578125 v 5.15624996 c 0,0.3515625 -0.035156,0.48046875 -0.9257812,0.48046875 H 0.9489375 V 6.328125e-4 C 1.3005,-0.03452344 2.1559688,-0.03452344 2.5544063,-0.03452344 c 0.3984375,0 1.265625,0 1.6171875,0.0351562525 V -0.30405469 H 3.8551875 c -0.9023437,0 -0.9257812,-0.1171875 -0.9257812,-0.48046875 z m 0,0"
       style="fill:#ffffff;fill-opacity:1;fill-rule:nonzero;stroke:none"
       aria-label="1"
       transform="matrix(1.3333333,0,0,1.3333333,63.016,201.964)" />
    <path
       id="path22"
       d="M 1.2657344,-0.76117188 2.3204219,-1.7924219 c 1.5585937,-1.3710937 2.15625,-1.9101562 2.15625,-2.90625 0,-1.1367187 -0.9023438,-1.9335937 -2.1210938,-1.9335937 -1.125,0 -1.85156247,0.9140625 -1.85156247,1.8046875 0,0.5507812 0.4921875,0.5507812 0.52734377,0.5507812 0.1640625,0 0.515625,-0.1171875 0.515625,-0.5273437 0,-0.2578125 -0.1875,-0.515625 -0.5273438,-0.515625 -0.0820312,0 -0.10546872,0 -0.12890622,0.011719 0.22265622,-0.6445312 0.76171872,-1.0195312 1.33593752,-1.0195312 0.9140625,0 1.3359375,0.8085937 1.3359375,1.6289062 0,0.796875 -0.4921875,1.5820313 -1.0429688,2.203125 L 0.60948438,-0.36273438 C 0.50401563,-0.25726563 0.50401563,-0.23382813 0.50401563,5.46875e-4 H 4.1954219 L 4.4766719,-1.7338281 H 4.2188594 c -0.046875,0.3046875 -0.1171875,0.73828122 -0.2109375,0.89062497 -0.070313,0.0820313 -0.7265625,0.0820313 -0.9492188,0.0820313 z m 0,0"
       style="fill:#ffffff;fill-opacity:1;fill-rule:nonzero;stroke:none"
       aria-label="2"
       transform="matrix(1.3333333,0,0,1.3333333,79.382667,211.41333)" />
    <path
       id="path23"
       d="m 2.8946406,-3.5025313 c 0.8085938,-0.2695312 1.3945313,-0.9726562 1.3945313,-1.7578125 0,-0.8203125 -0.8789063,-1.3710937 -1.8398438,-1.3710937 -1.0078125,0 -1.75781247,0.5976562 -1.75781247,1.3476562 0,0.3398438 0.2109375,0.5273438 0.50390627,0.5273438 0.3046875,0 0.5039062,-0.2226563 0.5039062,-0.515625 0,-0.4921875 -0.46875,-0.4921875 -0.609375,-0.4921875 0.3046875,-0.4921875 0.9609375,-0.6210938 1.3242188,-0.6210938 0.4101562,0 0.9492187,0.2226563 0.9492187,1.1132813 0,0.1289062 -0.011719,0.703125 -0.2695312,1.1367187 -0.3046875,0.4804688 -0.6445313,0.515625 -0.890625,0.515625 -0.082031,0.011719 -0.3164063,0.035156 -0.3867188,0.035156 -0.082031,0.011719 -0.1523437,0.023437 -0.1523437,0.1171875 0,0.1171875 0.070312,0.1171875 0.234375,0.1171875 h 0.4453125 c 0.8085937,0 1.1835937,0.6679687 1.1835937,1.6523437 0,1.3476563 -0.6914062,1.64062505 -1.125,1.64062505 -0.4335937,0 -1.171875,-0.17578125 -1.52343747,-0.76171875 C 1.2305781,-0.76034375 1.5352656,-0.983 1.5352656,-1.358 c 0,-0.3632813 -0.2695312,-0.5625 -0.56249997,-0.5625 -0.234375,0 -0.55078125,0.140625 -0.55078125,0.5742187 0,0.91406255 0.92578122,1.57031255 2.00390622,1.57031255 1.21875,0 2.1210938,-0.9140625 2.1210938,-1.92187505 0,-0.8203125 -0.6210938,-1.59375 -1.6523438,-1.8046875 z m 0,0"
       style="fill:#ffffff;fill-opacity:1;fill-rule:nonzero;stroke:none"
       aria-label="3"
       transform="matrix(1.3333333,0,0,1.3333333,79.382667,230.31067)" />
    <path
       id="path24"
       d="m 2.9294063,-1.6393359 v 0.86718746 c 0,0.3515625 -0.023437,0.46875 -0.7617188,0.46875 H 1.95675 v 0.3046875 c 0.4101563,-0.03515625 0.9375,-0.03515625 1.3476563,-0.03515625 0.421875,0 0.9492187,0 1.359375,0.03515625 v -0.3046875 H 4.4528438 c -0.7382813,0 -0.7617188,-0.1171875 -0.7617188,-0.46875 V -1.6393359 H 4.6872188 V -1.9557422 H 3.691125 v -4.5234375 c 0,-0.1992187 0,-0.2578125 -0.1523437,-0.2578125 -0.09375,0 -0.1171875,0 -0.1992188,0.1171875 l -3.05859375,4.6640625 v 0.3164063 z M 2.988,-1.9557422 H 0.56221875 L 2.988,-5.6705859 Z m 0,0"
       style="fill:#ffffff;fill-opacity:1;fill-rule:nonzero;stroke:none"
       aria-label="4"
       transform="matrix(1.3333333,0,0,1.3333333,63.016,239.76)" />
    <path
       id="path25"
       d="m 4.4778203,-2.0025313 c 0,-1.1835937 -0.8203125,-2.1796875 -1.8984375,-2.1796875 -0.4804687,0 -0.9023437,0.1640625 -1.265625,0.5039063 v -1.9335938 c 0.1992188,0.058594 0.5273438,0.1289063 0.84375,0.1289063 1.2304688,0 1.9335938,-0.9140625 1.9335938,-1.0429688 0,-0.058594 -0.035156,-0.1054687 -0.1054688,-0.1054687 -0.011719,0 -0.035156,0 -0.082031,0.023437 -0.1992188,0.09375 -0.6796875,0.2929687 -1.3476563,0.2929687 -0.3984375,0 -0.8554687,-0.070312 -1.3242187,-0.28125 -0.082031,-0.023437 -0.1054688,-0.023437 -0.1289063,-0.023437 -0.09375,0 -0.09375,0.082031 -0.09375,0.234375 v 2.953125 c 0,0.1757813 0,0.2578125 0.140625,0.2578125 0.070312,0 0.082031,-0.035156 0.1289063,-0.09375 0.1054687,-0.1523437 0.4804687,-0.6914062 1.2773437,-0.6914062 0.5273438,0 0.7734375,0.4570312 0.8554688,0.6328125 0.1523437,0.375 0.1757812,0.7617187 0.1757812,1.2539062 0,0.3515625 0,0.9492188 -0.234375,1.3710938 -0.2460937,0.38671875 -0.609375,0.64453125 -1.0664062,0.64453125 -0.7265625,0 -1.30078129,-0.52734375 -1.46484379,-1.11328125 0.0234375,0.011719 0.0585938,0.011719 0.1640625,0.011719 0.32812499,0 0.50390629,-0.2460937 0.50390629,-0.4804687 0,-0.2460938 -0.1757813,-0.4921875 -0.50390629,-0.4921875 -0.140625,0 -0.48046875,0.070312 -0.48046875,0.5273437 0,0.8554688 0.67968754,1.82812505 1.79296874,1.82812505 1.1601563,0 2.1796875,-0.9609375 2.1796873,-2.22656285 z m 0,0"
       style="fill:#ffffff;fill-opacity:1;fill-rule:nonzero;stroke:none"
       aria-label="5"
       transform="matrix(1.3333333,0,0,1.3333333,46.650667,230.31067)" />
    <path
       id="path26"
       d="m 1.3137578,-3.2689844 v -0.234375 c 0,-2.5195312 1.2421875,-2.8828125 1.7460938,-2.8828125 0.234375,0 0.65625,0.058594 0.8789062,0.3984375 -0.1523437,0 -0.5507812,0 -0.5507812,0.4453125 0,0.3164063 0.234375,0.4570313 0.4570312,0.4570313 0.1640625,0 0.4570313,-0.082031 0.4570313,-0.46875 0,-0.5976563 -0.4335938,-1.078125 -1.265625,-1.078125 -1.2773438,0 -2.61328129,1.2890625 -2.61328129,3.4804687 0,2.66015627 1.14843749,3.37500002 2.07421879,3.37500002 1.1132812,0 2.0507812,-0.9375 2.0507812,-2.25000002 0,-1.265625 -0.8789062,-2.2265625 -1.9921875,-2.2265625 -0.6679687,0 -1.0429687,0.5039063 -1.2421875,0.984375 z m 1.1835938,3.21093752 c -0.6210938,0 -0.9257813,-0.59765625 -0.984375,-0.75 C 1.3371953,-1.2767969 1.3371953,-2.0736719 1.3371953,-2.2494531 c 0,-0.7734375 0.3164063,-1.7695313 1.21875,-1.7695313 0.1523438,0 0.609375,0 0.9257813,0.609375 0.1757812,0.375 0.1757812,0.8789063 0.1757812,1.3710938 0,0.4804687 0,0.9726562 -0.1640625,1.33593747 -0.3046875,0.59765625 -0.7617187,0.64453125 -0.9960937,0.64453125 z m 0,0"
       style="fill:#ffffff;fill-opacity:1;fill-rule:nonzero;stroke:none"
       aria-label="6"
       transform="matrix(1.3333333,0,0,1.3333333,46.650667,211.41333)" />
    <path
       id="path27"
       d="M 28.3468,70.867 40.62135,63.7803 V 49.60692 L 28.3468,42.52022 16.07225,49.60692 V 63.7803 Z"
       style="fill:none;stroke:#ffffff;stroke-width:0.3985;stroke-linecap:butt;stroke-linejoin:miter;stroke-miterlimit:10;stroke-dasharray:none;stroke-opacity:1"
       transform="matrix(1.3333333,0,0,-1.3333333,28.541333,292.172)" />
    <path
       id="path28"
       d="M 28.3468,70.867 40.62135,49.60692"
       style="fill:none;stroke:#ffffff;stroke-width:0.3985;stroke-linecap:butt;stroke-linejoin:miter;stroke-miterlimit:10;stroke-dasharray:none;stroke-opacity:1"
       transform="matrix(1.3333333,0,0,-1.3333333,28.541333,292.172)" />
    <path
       id="path29"
       d="M 40.62135,49.60692 H 16.07225"
       style="fill:none;stroke:#ffffff;stroke-width:0.3985;stroke-linecap:butt;stroke-linejoin:miter;stroke-miterlimit:10;stroke-dasharray:none;stroke-opacity:1"
       transform="matrix(1.3333333,0,0,-1.3333333,28.541333,292.172)" />
    <path
       id="path30"
       d="M 28.3468,70.867 16.07225,49.60692"
       style="fill:none;stroke:#ffffff;stroke-width:0.3985;stroke-linecap:butt;stroke-linejoin:miter;stroke-miterlimit:10;stroke-dasharray:none;stroke-opacity:1"
       transform="matrix(1.3333333,0,0,-1.3333333,28.541333,292.172)" />
    <path
       id="path31"
       d="m 2.9294063,-6.3760234 c 0,-0.234375 0,-0.2578125 -0.234375,-0.2578125 -0.609375,0.6328125 -1.4882813,0.6328125 -1.80468755,0.6328125 v 0.3164062 c 0.19921875,0 0.78515625,0 1.30078125,-0.2578125 v 5.15625001 c 0,0.3515625 -0.035156,0.48046875 -0.9257812,0.48046875 H 0.9489375 v 0.3046875 C 1.3005,-0.03617969 2.1559688,-0.03617969 2.5544063,-0.03617969 c 0.3984375,0 1.265625,0 1.6171875,0.03515625 v -0.3046875 H 3.8551875 c -0.9023437,0 -0.9257812,-0.1171875 -0.9257812,-0.48046875 z m 0,0"
       style="fill:#ffffff;fill-opacity:1;fill-rule:nonzero;stroke:none"
       aria-label="1"
       transform="matrix(1.3333333,0,0,1.3333333,63.016,164.16933)" />
    <path
       id="path32"
       d="M 1.2657344,-0.76182813 2.3204219,-1.7930781 c 1.5585937,-1.3710938 2.15625,-1.9101563 2.15625,-2.90625 0,-1.1367188 -0.9023438,-1.9335938 -2.1210938,-1.9335938 -1.125,0 -1.85156247,0.9140625 -1.85156247,1.8046875 0,0.5507813 0.4921875,0.5507813 0.52734377,0.5507813 0.1640625,0 0.515625,-0.1171875 0.515625,-0.5273438 0,-0.2578125 -0.1875,-0.515625 -0.5273438,-0.515625 -0.0820312,0 -0.10546872,0 -0.12890622,0.011719 0.22265622,-0.6445313 0.76171872,-1.0195313 1.33593752,-1.0195313 0.9140625,0 1.3359375,0.8085938 1.3359375,1.6289063 0,0.796875 -0.4921875,1.5820312 -1.0429688,2.203125 L 0.60948438,-0.36339063 C 0.50401563,-0.25792188 0.50401563,-0.23448438 0.50401563,-1.09375e-4 H 4.1954219 L 4.4766719,-1.7344844 H 4.2188594 c -0.046875,0.3046875 -0.1171875,0.73828127 -0.2109375,0.89062502 -0.070313,0.0820313 -0.7265625,0.0820313 -0.9492188,0.0820313 z m 0,0"
       style="fill:#ffffff;fill-opacity:1;fill-rule:nonzero;stroke:none"
       aria-label="2"
       transform="matrix(1.3333333,0,0,1.3333333,79.382667,173.61733)" />
    <path
       id="path33"
       d="M 2.8946406,-3.5041875 C 3.7032344,-3.7737188 4.2891719,-4.4768438 4.2891719,-5.262 c 0,-0.8203125 -0.8789063,-1.3710938 -1.8398438,-1.3710938 -1.0078125,0 -1.75781247,0.5976563 -1.75781247,1.3476563 0,0.3398437 0.2109375,0.5273437 0.50390627,0.5273437 0.3046875,0 0.5039062,-0.2226562 0.5039062,-0.515625 0,-0.4921875 -0.46875,-0.4921875 -0.609375,-0.4921875 C 1.3946406,-6.2580938 2.0508906,-6.387 2.4141719,-6.387 c 0.4101562,0 0.9492187,0.2226562 0.9492187,1.1132812 0,0.1289063 -0.011719,0.703125 -0.2695312,1.1367188 -0.3046875,0.4804687 -0.6445313,0.515625 -0.890625,0.515625 -0.082031,0.011719 -0.3164063,0.035156 -0.3867188,0.035156 -0.082031,0.011719 -0.1523437,0.023437 -0.1523437,0.1171875 0,0.1171875 0.070312,0.1171875 0.234375,0.1171875 h 0.4453125 c 0.8085937,0 1.1835937,0.6679688 1.1835937,1.6523438 0,1.34765625 -0.6914062,1.640625 -1.125,1.640625 -0.4335937,0 -1.171875,-0.17578125 -1.52343747,-0.76171875 C 1.2305781,-0.762 1.5352656,-0.98465625 1.5352656,-1.3596563 c 0,-0.3632812 -0.2695312,-0.5625 -0.56249997,-0.5625 -0.234375,0 -0.55078125,0.140625 -0.55078125,0.5742188 0,0.9140625 0.92578122,1.5703125 2.00390622,1.5703125 1.21875,0 2.1210938,-0.9140625 2.1210938,-1.921875 0,-0.8203125 -0.6210938,-1.59375 -1.6523438,-1.8046875 z m 0,0"
       style="fill:#ffffff;fill-opacity:1;fill-rule:nonzero;stroke:none"
       aria-label="3"
       transform="matrix(1.3333333,0,0,1.3333333,79.382667,192.516)" />
    <path
       id="path34"
       d="m 2.9294063,-1.6399922 v 0.86718751 c 0,0.3515625 -0.023437,0.46875 -0.7617188,0.46875 H 1.95675 V 6.328125e-4 C 2.3669063,-0.03452344 2.89425,-0.03452344 3.3044063,-0.03452344 c 0.421875,0 0.9492187,0 1.359375,0.0351562525 V -0.30405469 H 4.4528438 c -0.7382813,0 -0.7617188,-0.1171875 -0.7617188,-0.46875 V -1.6399922 H 4.6872188 V -1.9563984 H 3.691125 v -4.5234375 c 0,-0.1992188 0,-0.2578125 -0.1523437,-0.2578125 -0.09375,0 -0.1171875,0 -0.1992188,0.1171875 l -3.05859375,4.6640625 v 0.3164062 z M 2.988,-1.9563984 H 0.56221875 L 2.988,-5.6712422 Z m 0,0"
       style="fill:#ffffff;fill-opacity:1;fill-rule:nonzero;stroke:none"
       aria-label="4"
       transform="matrix(1.3333333,0,0,1.3333333,63.016,201.964)" />
    <path
       id="path35"
       d="m 4.4778203,-2.0031875 c 0,-1.1835938 -0.8203125,-2.1796875 -1.8984375,-2.1796875 -0.4804687,0 -0.9023437,0.1640625 -1.265625,0.5039062 v -1.9335937 c 0.1992188,0.058594 0.5273438,0.1289062 0.84375,0.1289062 1.2304688,0 1.9335938,-0.9140625 1.9335938,-1.0429687 0,-0.058594 -0.035156,-0.1054688 -0.1054688,-0.1054688 -0.011719,0 -0.035156,0 -0.082031,0.023437 -0.1992188,0.09375 -0.6796875,0.2929688 -1.3476563,0.2929688 -0.3984375,0 -0.8554687,-0.070312 -1.3242187,-0.28125 -0.082031,-0.023437 -0.1054688,-0.023437 -0.1289063,-0.023437 -0.09375,0 -0.09375,0.082031 -0.09375,0.234375 v 2.953125 c 0,0.1757812 0,0.2578125 0.140625,0.2578125 0.070312,0 0.082031,-0.035156 0.1289063,-0.09375 0.1054687,-0.1523438 0.4804687,-0.6914063 1.2773437,-0.6914063 0.5273438,0 0.7734375,0.4570313 0.8554688,0.6328125 0.1523437,0.375 0.1757812,0.7617188 0.1757812,1.2539063 0,0.3515625 0,0.9492187 -0.234375,1.37109375 -0.2460937,0.38671875 -0.609375,0.64453125 -1.0664062,0.64453125 -0.7265625,0 -1.30078129,-0.52734375 -1.46484379,-1.1132813 0.0234375,0.011719 0.0585938,0.011719 0.1640625,0.011719 0.32812499,0 0.50390629,-0.2460938 0.50390629,-0.4804688 0,-0.2460937 -0.1757813,-0.4921875 -0.50390629,-0.4921875 -0.140625,0 -0.48046875,0.070312 -0.48046875,0.5273438 0,0.85546875 0.67968754,1.828125 1.79296874,1.828125 1.1601563,0 2.1796875,-0.9609375 2.1796873,-2.2265627 z m 0,0"
       style="fill:#ffffff;fill-opacity:1;fill-rule:nonzero;stroke:none"
       aria-label="5"
       transform="matrix(1.3333333,0,0,1.3333333,46.650667,192.51467)" />
    <path
       id="path36"
       d="m 1.3137578,-3.2696406 v -0.234375 c 0,-2.5195313 1.2421875,-2.8828125 1.7460938,-2.8828125 0.234375,0 0.65625,0.058594 0.8789062,0.3984375 -0.1523437,0 -0.5507812,0 -0.5507812,0.4453125 0,0.3164062 0.234375,0.4570312 0.4570312,0.4570312 0.1640625,0 0.4570313,-0.082031 0.4570313,-0.46875 0,-0.5976562 -0.4335938,-1.078125 -1.265625,-1.078125 -1.2773438,0 -2.61328129,1.2890625 -2.61328129,3.4804688 0,2.66015622 1.14843749,3.37499997 2.07421879,3.37499997 1.1132812,0 2.0507812,-0.9375 2.0507812,-2.24999997 0,-1.265625 -0.8789062,-2.2265625 -1.9921875,-2.2265625 -0.6679687,0 -1.0429687,0.5039062 -1.2421875,0.984375 z m 1.1835938,3.21093747 c -0.6210938,0 -0.9257813,-0.59765625 -0.984375,-0.75 C 1.3371953,-1.2774531 1.3371953,-2.0743281 1.3371953,-2.2501094 c 0,-0.7734375 0.3164063,-1.7695312 1.21875,-1.7695312 0.1523438,0 0.609375,0 0.9257813,0.609375 0.1757812,0.375 0.1757812,0.8789062 0.1757812,1.3710937 0,0.4804688 0,0.9726563 -0.1640625,1.33593752 -0.3046875,0.59765625 -0.7617187,0.64453125 -0.9960937,0.64453125 z m 0,0"
       style="fill:#ffffff;fill-opacity:1;fill-rule:nonzero;stroke:none"
       aria-label="6"
       transform="matrix(1.3333333,0,0,1.3333333,46.650667,173.61733)" />
    <path
       id="path37"
       d="M 28.3468,99.21382 40.62135,92.1271 V 77.95374 L 28.3468,70.86702 16.07225,77.95374 V 92.1271 Z"
       style="fill:none;stroke:#ffffff;stroke-width:0.3985;stroke-linecap:butt;stroke-linejoin:miter;stroke-miterlimit:10;stroke-dasharray:none;stroke-opacity:1"
       transform="matrix(1.3333333,0,0,-1.3333333,28.541333,292.172)" />
    <path
       id="path38"
       d="M 28.3468,99.21382 40.62135,77.95374"
       style="fill:none;stroke:#ffffff;stroke-width:0.3985;stroke-linecap:butt;stroke-linejoin:miter;stroke-miterlimit:10;stroke-dasharray:none;stroke-opacity:1"
       transform="matrix(1.3333333,0,0,-1.3333333,28.541333,292.172)" />
    <path
       id="path39"
       d="M 40.62135,77.95374 H 16.07225"
       style="fill:none;stroke:#ffffff;stroke-width:0.3985;stroke-linecap:butt;stroke-linejoin:miter;stroke-miterlimit:10;stroke-dasharray:none;stroke-opacity:1"
       transform="matrix(1.3333333,0,0,-1.3333333,28.541333,292.172)" />
    <path
       id="path40"
       d="M 28.3468,99.21382 16.07225,77.95374"
       style="fill:none;stroke:#ffffff;stroke-width:0.3985;stroke-linecap:butt;stroke-linejoin:miter;stroke-miterlimit:10;stroke-dasharray:none;stroke-opacity:1"
       transform="matrix(1.3333333,0,0,-1.3333333,28.541333,292.172)" />
    <path
       id="path41"
       d="m 2.9294063,-6.37375 c 0,-0.234375 0,-0.2578125 -0.234375,-0.2578125 C 2.0856563,-5.99875 1.20675,-5.99875 0.89034375,-5.99875 v 0.3164062 c 0.19921875,0 0.78515625,0 1.30078125,-0.2578125 v 5.15625005 c 0,0.3515625 -0.035156,0.48046875 -0.9257812,0.48046875 H 0.9489375 V 0.00125 C 1.3005,-0.03390625 2.1559688,-0.03390625 2.5544063,-0.03390625 c 0.3984375,0 1.265625,0 1.6171875,0.03515625 V -0.3034375 H 3.8551875 c -0.9023437,0 -0.9257812,-0.1171875 -0.9257812,-0.48046875 z m 0,0"
       style="fill:#ffffff;fill-opacity:1;fill-rule:nonzero;stroke:none"
       aria-label="1"
       transform="matrix(1.3333333,0,0,1.3333333,63.016,126.37333)" />
    <path
       id="path42"
       d="M 1.2657344,-0.76055469 2.3204219,-1.7918047 c 1.5585937,-1.3710937 2.15625,-1.9101562 2.15625,-2.90625 0,-1.1367187 -0.9023438,-1.9335937 -2.1210938,-1.9335937 -1.125,0 -1.85156247,0.9140625 -1.85156247,1.8046875 0,0.5507812 0.4921875,0.5507812 0.52734377,0.5507812 0.1640625,0 0.515625,-0.1171875 0.515625,-0.5273437 0,-0.2578125 -0.1875,-0.515625 -0.5273438,-0.515625 -0.0820312,0 -0.10546872,0 -0.12890622,0.011719 0.22265622,-0.6445312 0.76171872,-1.0195312 1.33593752,-1.0195312 0.9140625,0 1.3359375,0.8085937 1.3359375,1.6289062 0,0.796875 -0.4921875,1.5820313 -1.0429688,2.203125 L 0.60948438,-0.36211719 C 0.50401563,-0.25664844 0.50401563,-0.23321094 0.50401563,0.00116406 H 4.1954219 l 0.28125,-1.73437496 H 4.2188594 c -0.046875,0.3046875 -0.1171875,0.73828121 -0.2109375,0.89062496 -0.070313,0.0820313 -0.7265625,0.0820313 -0.9492188,0.0820313 z m 0,0"
       style="fill:#ffffff;fill-opacity:1;fill-rule:nonzero;stroke:none"
       aria-label="2"
       transform="matrix(1.3333333,0,0,1.3333333,79.382667,135.82267)" />
    <path
       id="path43"
       d="M 2.8946406,-3.5048437 C 3.7032344,-3.774375 4.2891719,-4.4775 4.2891719,-5.2626562 c 0,-0.8203125 -0.8789063,-1.3710938 -1.8398438,-1.3710938 -1.0078125,0 -1.75781247,0.5976563 -1.75781247,1.3476563 0,0.3398437 0.2109375,0.5273437 0.50390627,0.5273437 0.3046875,0 0.5039062,-0.2226562 0.5039062,-0.515625 0,-0.4921875 -0.46875,-0.4921875 -0.609375,-0.4921875 0.3046875,-0.4921875 0.9609375,-0.6210937 1.3242188,-0.6210937 0.4101562,0 0.9492187,0.2226562 0.9492187,1.1132812 0,0.1289063 -0.011719,0.703125 -0.2695312,1.1367188 -0.3046875,0.4804687 -0.6445313,0.515625 -0.890625,0.515625 -0.082031,0.011719 -0.3164063,0.035156 -0.3867188,0.035156 -0.082031,0.011719 -0.1523437,0.023437 -0.1523437,0.1171875 0,0.1171875 0.070312,0.1171875 0.234375,0.1171875 h 0.4453125 c 0.8085937,0 1.1835937,0.6679688 1.1835937,1.6523438 0,1.3476562 -0.6914062,1.64062495 -1.125,1.64062495 -0.4335937,0 -1.171875,-0.17578125 -1.52343747,-0.76171875 0.35156247,0.0585938 0.65624997,-0.1640625 0.65624997,-0.5390625 0,-0.3632812 -0.2695312,-0.5625 -0.56249997,-0.5625 -0.234375,0 -0.55078125,0.140625 -0.55078125,0.5742188 0,0.91406245 0.92578122,1.57031245 2.00390622,1.57031245 1.21875,0 2.1210938,-0.9140625 2.1210938,-1.92187495 0,-0.8203125 -0.6210938,-1.59375 -1.6523438,-1.8046873 z m 0,0"
       style="fill:#ffffff;fill-opacity:1;fill-rule:nonzero;stroke:none"
       aria-label="3"
       transform="matrix(1.3333333,0,0,1.3333333,79.382667,154.72)" />
    <path
       id="path44"
       d="m 2.9294063,-1.6416484 v 0.86718746 c 0,0.3515625 -0.023437,0.46875 -0.7617188,0.46875 H 1.95675 v 0.3046875 c 0.4101563,-0.03515625 0.9375,-0.03515625 1.3476563,-0.03515625 0.421875,0 0.9492187,0 1.359375,0.03515625 v -0.3046875 H 4.4528438 c -0.7382813,0 -0.7617188,-0.1171875 -0.7617188,-0.46875 V -1.6416484 H 4.6872188 V -1.9580547 H 3.691125 v -4.5234375 c 0,-0.1992187 0,-0.2578125 -0.1523437,-0.2578125 -0.09375,0 -0.1171875,0 -0.1992188,0.1171875 l -3.05859375,4.6640625 v 0.3164063 z M 2.988,-1.9580547 H 0.56221875 L 2.988,-5.6728984 Z m 0,0"
       style="fill:#ffffff;fill-opacity:1;fill-rule:nonzero;stroke:none"
       aria-label="4"
       transform="matrix(1.3333333,0,0,1.3333333,63.016,164.16933)" />
    <path
       id="path45"
       d="m 4.4778203,-2.0048437 c 0,-1.1835938 -0.8203125,-2.1796875 -1.8984375,-2.1796875 -0.4804687,0 -0.9023437,0.1640625 -1.265625,0.5039062 v -1.9335937 c 0.1992188,0.058594 0.5273438,0.1289062 0.84375,0.1289062 1.2304688,0 1.9335938,-0.9140625 1.9335938,-1.0429687 0,-0.058594 -0.035156,-0.1054688 -0.1054688,-0.1054688 -0.011719,0 -0.035156,0 -0.082031,0.023437 -0.1992188,0.09375 -0.6796875,0.2929688 -1.3476563,0.2929688 -0.3984375,0 -0.8554687,-0.070312 -1.3242187,-0.28125 -0.082031,-0.023437 -0.1054688,-0.023437 -0.1289063,-0.023437 -0.09375,0 -0.09375,0.082031 -0.09375,0.234375 v 2.953125 c 0,0.1757812 0,0.2578125 0.140625,0.2578125 0.070312,0 0.082031,-0.035156 0.1289063,-0.09375 0.1054687,-0.1523438 0.4804687,-0.6914063 1.2773437,-0.6914063 0.5273438,0 0.7734375,0.4570313 0.8554688,0.6328125 0.1523437,0.375 0.1757812,0.7617188 0.1757812,1.2539063 0,0.3515625 0,0.9492187 -0.234375,1.3710937 -0.2460937,0.38671875 -0.609375,0.64453125 -1.0664062,0.64453125 -0.7265625,0 -1.30078129,-0.52734375 -1.46484379,-1.11328125 0.0234375,0.011719 0.0585938,0.011719 0.1640625,0.011719 0.32812499,0 0.50390629,-0.2460938 0.50390629,-0.4804688 0,-0.2460937 -0.1757813,-0.4921875 -0.50390629,-0.4921875 -0.140625,0 -0.48046875,0.070312 -0.48046875,0.5273438 0,0.8554687 0.67968754,1.82812495 1.79296874,1.82812495 1.1601563,0 2.1796875,-0.9609375 2.1796873,-2.22656265 z m 0,0"
       style="fill:#ffffff;fill-opacity:1;fill-rule:nonzero;stroke:none"
       aria-label="5"
       transform="matrix(1.3333333,0,0,1.3333333,46.650667,154.72)" />
    <path
       id="path46"
       d="m 1.3137578,-3.2683672 v -0.234375 c 0,-2.5195312 1.2421875,-2.8828125 1.7460938,-2.8828125 0.234375,0 0.65625,0.058594 0.8789062,0.3984375 -0.1523437,0 -0.5507812,0 -0.5507812,0.4453125 0,0.3164063 0.234375,0.4570313 0.4570312,0.4570313 0.1640625,0 0.4570313,-0.082031 0.4570313,-0.46875 0,-0.5976563 -0.4335938,-1.078125 -1.265625,-1.078125 -1.2773438,0 -2.61328129,1.2890625 -2.61328129,3.4804687 0,2.66015626 1.14843749,3.37500001 2.07421879,3.37500001 1.1132812,0 2.0507812,-0.9375 2.0507812,-2.25000001 0,-1.265625 -0.8789062,-2.2265625 -1.9921875,-2.2265625 -0.6679687,0 -1.0429687,0.5039063 -1.2421875,0.984375 z m 1.1835938,3.21093751 c -0.6210938,0 -0.9257813,-0.59765625 -0.984375,-0.75 C 1.3371953,-1.2761797 1.3371953,-2.0730547 1.3371953,-2.2488359 c 0,-0.7734375 0.3164063,-1.7695313 1.21875,-1.7695313 0.1523438,0 0.609375,0 0.9257813,0.609375 0.1757812,0.375 0.1757812,0.8789063 0.1757812,1.3710938 0,0.4804687 0,0.9726562 -0.1640625,1.33593746 -0.3046875,0.59765625 -0.7617187,0.64453125 -0.9960937,0.64453125 z m 0,0"
       style="fill:#ffffff;fill-opacity:1;fill-rule:nonzero;stroke:none"
       aria-label="6"
       transform="matrix(1.3333333,0,0,1.3333333,46.650667,135.82267)" />
    <path
       id="path47"
       d="m 28.3468,127.56062 12.27455,-7.0867 v -14.17338 l -12.27455,-7.0867 -12.27455,7.0867 v 14.17338 z"
       style="fill:none;stroke:#ffffff;stroke-width:0.3985;stroke-linecap:butt;stroke-linejoin:miter;stroke-miterlimit:10;stroke-dasharray:none;stroke-opacity:1"
       transform="matrix(1.3333333,0,0,-1.3333333,28.541333,292.172)" />
    <path
       id="path48"
       d="M 28.3468,127.56062 40.62135,106.30054"
       style="fill:none;stroke:#ffffff;stroke-width:0.3985;stroke-linecap:butt;stroke-linejoin:miter;stroke-miterlimit:10;stroke-dasharray:none;stroke-opacity:1"
       transform="matrix(1.3333333,0,0,-1.3333333,28.541333,292.172)" />
    <path
       id="path49"
       d="M 40.62135,106.30054 H 16.07225"
       style="fill:none;stroke:#ffffff;stroke-width:0.3985;stroke-linecap:butt;stroke-linejoin:miter;stroke-miterlimit:10;stroke-dasharray:none;stroke-opacity:1"
       transform="matrix(1.3333333,0,0,-1.3333333,28.541333,292.172)" />
    <path
       id="path50"
       d="M 28.3468,127.56062 16.07225,106.30054"
       style="fill:none;stroke:#ffffff;stroke-width:0.3985;stroke-linecap:butt;stroke-linejoin:miter;stroke-miterlimit:10;stroke-dasharray:none;stroke-opacity:1"
       transform="matrix(1.3333333,0,0,-1.3333333,28.541333,292.172)" />
    <path
       id="path51"
       d="m 2.9294063,-6.3754063 c 0,-0.234375 0,-0.2578125 -0.234375,-0.2578125 -0.609375,0.6328125 -1.4882813,0.6328125 -1.80468755,0.6328125 V -5.684 c 0.19921875,0 0.78515625,0 1.30078125,-0.2578125 v 5.15625 c 0,0.3515625 -0.035156,0.48046875 -0.9257812,0.48046875 H 0.9489375 v 0.3046875 C 1.3005,-0.0355625 2.1559688,-0.0355625 2.5544063,-0.0355625 c 0.3984375,0 1.265625,0 1.6171875,0.03515625 v -0.3046875 H 3.8551875 c -0.9023437,0 -0.9257812,-0.1171875 -0.9257812,-0.48046875 z m 0,0"
       style="fill:#ffffff;fill-opacity:1;fill-rule:nonzero;stroke:none"
       aria-label="1"
       transform="matrix(1.3333333,0,0,1.3333333,63.016,88.578667)" />
    <path
       id="path52"
       d="M 1.2657344,-0.76121094 2.3204219,-1.7924609 c 1.5585937,-1.3710938 2.15625,-1.9101563 2.15625,-2.90625 0,-1.1367188 -0.9023438,-1.9335938 -2.1210938,-1.9335938 -1.125,0 -1.85156247,0.9140625 -1.85156247,1.8046875 0,0.5507813 0.4921875,0.5507813 0.52734377,0.5507813 0.1640625,0 0.515625,-0.1171875 0.515625,-0.5273438 0,-0.2578125 -0.1875,-0.515625 -0.5273438,-0.515625 -0.0820312,0 -0.10546872,0 -0.12890622,0.011719 C 1.1133906,-5.952617 1.6524531,-6.327617 2.2266719,-6.327617 c 0.9140625,0 1.3359375,0.8085938 1.3359375,1.6289063 0,0.796875 -0.4921875,1.5820312 -1.0429688,2.203125 L 0.60948438,-0.36277344 C 0.50401563,-0.25730469 0.50401563,-0.23386719 0.50401563,5.078125e-4 H 4.1954219 L 4.4766719,-1.7338672 H 4.2188594 c -0.046875,0.3046875 -0.1171875,0.73828126 -0.2109375,0.89062501 -0.070313,0.0820313 -0.7265625,0.0820313 -0.9492188,0.0820313 z m 0,0"
       style="fill:#ffffff;fill-opacity:1;fill-rule:nonzero;stroke:none"
       aria-label="2"
       transform="matrix(1.3333333,0,0,1.3333333,79.382667,98.026667)" />
    <path
       id="path53"
       d="m 2.8946406,-3.5035703 c 0.8085938,-0.2695313 1.3945313,-0.9726563 1.3945313,-1.7578125 0,-0.8203125 -0.8789063,-1.3710938 -1.8398438,-1.3710938 -1.0078125,0 -1.75781247,0.5976563 -1.75781247,1.3476563 0,0.3398437 0.2109375,0.5273437 0.50390627,0.5273437 0.3046875,0 0.5039062,-0.2226562 0.5039062,-0.515625 0,-0.4921875 -0.46875,-0.4921875 -0.609375,-0.4921875 0.3046875,-0.4921875 0.9609375,-0.6210937 1.3242188,-0.6210937 0.4101562,0 0.9492187,0.2226562 0.9492187,1.1132812 0,0.1289063 -0.011719,0.703125 -0.2695312,1.1367188 -0.3046875,0.4804687 -0.6445313,0.515625 -0.890625,0.515625 -0.082031,0.011719 -0.3164063,0.035156 -0.3867188,0.035156 -0.082031,0.011719 -0.1523437,0.023437 -0.1523437,0.1171875 0,0.1171875 0.070312,0.1171875 0.234375,0.1171875 h 0.4453125 c 0.8085937,0 1.1835937,0.6679688 1.1835937,1.6523438 0,1.34765624 -0.6914062,1.64062499 -1.125,1.64062499 -0.4335937,0 -1.171875,-0.17578125 -1.52343747,-0.76171875 0.35156247,0.0585938 0.65624997,-0.1640625 0.65624997,-0.53906254 0,-0.3632812 -0.2695312,-0.5625 -0.56249997,-0.5625 -0.234375,0 -0.55078125,0.140625 -0.55078125,0.5742188 0,0.91406249 0.92578122,1.57031249 2.00390622,1.57031249 1.21875,0 2.1210938,-0.9140625 2.1210938,-1.92187499 0,-0.8203125 -0.6210938,-1.59375 -1.6523438,-1.8046873 z m 0,0"
       style="fill:#ffffff;fill-opacity:1;fill-rule:nonzero;stroke:none"
       aria-label="3"
       transform="matrix(1.3333333,0,0,1.3333333,79.382667,116.92533)" />
    <path
       id="path54"
       d="m 2.9294063,-1.639375 v 0.8671875 c 0,0.3515625 -0.023437,0.46875 -0.7617188,0.46875 H 1.95675 V 0.00125 c 0.4101563,-0.03515625 0.9375,-0.03515625 1.3476563,-0.03515625 0.421875,0 0.9492187,0 1.359375,0.03515625 V -0.3034375 H 4.4528438 c -0.7382813,0 -0.7617188,-0.1171875 -0.7617188,-0.46875 V -1.639375 H 4.6872188 V -1.9557813 H 3.691125 v -4.5234375 c 0,-0.1992187 0,-0.2578125 -0.1523437,-0.2578125 -0.09375,0 -0.1171875,0 -0.1992188,0.1171875 L 0.28096875,-1.9557813 V -1.639375 Z M 2.988,-1.9557813 H 0.56221875 L 2.988,-5.670625 Z m 0,0"
       style="fill:#ffffff;fill-opacity:1;fill-rule:nonzero;stroke:none"
       aria-label="4"
       transform="matrix(1.3333333,0,0,1.3333333,63.016,126.37333)" />
    <path
       id="path55"
       d="m 4.4778203,-2.0035703 c 0,-1.1835938 -0.8203125,-2.1796875 -1.8984375,-2.1796875 -0.4804687,0 -0.9023437,0.1640625 -1.265625,0.5039062 v -1.9335937 c 0.1992188,0.058594 0.5273438,0.1289062 0.84375,0.1289062 1.2304688,0 1.9335938,-0.9140625 1.9335938,-1.0429687 0,-0.058594 -0.035156,-0.1054688 -0.1054688,-0.1054688 -0.011719,0 -0.035156,0 -0.082031,0.023437 -0.1992188,0.09375 -0.6796875,0.2929688 -1.3476563,0.2929688 -0.3984375,0 -0.8554687,-0.070312 -1.3242187,-0.28125 -0.082031,-0.023437 -0.1054688,-0.023437 -0.1289063,-0.023437 -0.09375,0 -0.09375,0.082031 -0.09375,0.234375 v 2.953125 c 0,0.1757812 0,0.2578125 0.140625,0.2578125 0.070312,0 0.082031,-0.035156 0.1289063,-0.09375 0.1054687,-0.1523438 0.4804687,-0.6914063 1.2773437,-0.6914063 0.5273438,0 0.7734375,0.4570313 0.8554688,0.6328125 0.1523437,0.375 0.1757812,0.7617188 0.1757812,1.2539063 0,0.3515625 0,0.9492187 -0.234375,1.37109374 -0.2460937,0.38671875 -0.609375,0.64453125 -1.0664062,0.64453125 -0.7265625,0 -1.30078129,-0.52734375 -1.46484379,-1.11328129 0.0234375,0.011719 0.0585938,0.011719 0.1640625,0.011719 0.32812499,0 0.50390629,-0.2460938 0.50390629,-0.4804688 0,-0.2460937 -0.1757813,-0.4921875 -0.50390629,-0.4921875 -0.140625,0 -0.48046875,0.070312 -0.48046875,0.5273438 0,0.85546874 0.67968754,1.82812499 1.79296874,1.82812499 1.1601563,0 2.1796875,-0.9609375 2.1796873,-2.22656269 z m 0,0"
       style="fill:#ffffff;fill-opacity:1;fill-rule:nonzero;stroke:none"
       aria-label="5"
       transform="matrix(1.3333333,0,0,1.3333333,46.650667,116.92533)" />
    <path
       id="path56"
       d="m 1.3137578,-3.2690234 v -0.234375 c 0,-2.5195313 1.2421875,-2.8828125 1.7460938,-2.8828125 0.234375,0 0.65625,0.058594 0.8789062,0.3984375 -0.1523437,0 -0.5507812,0 -0.5507812,0.4453125 0,0.3164062 0.234375,0.4570312 0.4570312,0.4570312 0.1640625,0 0.4570313,-0.082031 0.4570313,-0.46875 0,-0.5976562 -0.4335938,-1.078125 -1.265625,-1.078125 -1.2773438,0 -2.61328129,1.2890625 -2.61328129,3.4804688 0,2.66015621 1.14843749,3.37499996 2.07421879,3.37499996 1.1132812,0 2.0507812,-0.9375 2.0507812,-2.24999996 0,-1.265625 -0.8789062,-2.2265625 -1.9921875,-2.2265625 -0.6679687,0 -1.0429687,0.5039062 -1.2421875,0.984375 z m 1.1835938,3.21093746 c -0.6210938,0 -0.9257813,-0.59765625 -0.984375,-0.75 C 1.3371953,-1.2768359 1.3371953,-2.0737109 1.3371953,-2.2494922 c 0,-0.7734375 0.3164063,-1.7695312 1.21875,-1.7695312 0.1523438,0 0.609375,0 0.9257813,0.609375 0.1757812,0.375 0.1757812,0.8789062 0.1757812,1.3710937 0,0.4804688 0,0.9726563 -0.1640625,1.33593751 -0.3046875,0.59765625 -0.7617187,0.64453125 -0.9960937,0.64453125 z m 0,0"
       style="fill:#ffffff;fill-opacity:1;fill-rule:nonzero;stroke:none"
       aria-label="6"
       transform="matrix(1.3333333,0,0,1.3333333,46.650667,98.026667)" />
    <path
       id="path57"
       d="m 28.3468,155.90744 12.27455,-7.0867 v -14.17339 l -12.27455,-7.08671 -12.27455,7.08671 v 14.17339 z"
       style="fill:none;stroke:#ffffff;stroke-width:0.3985;stroke-linecap:butt;stroke-linejoin:miter;stroke-miterlimit:10;stroke-dasharray:none;stroke-opacity:1"
       transform="matrix(1.3333333,0,0,-1.3333333,28.541333,292.172)" />
    <path
       id="path58"
       d="M 28.3468,155.90744 40.62135,134.64735"
       style="fill:none;stroke:#ffffff;stroke-width:0.3985;stroke-linecap:butt;stroke-linejoin:miter;stroke-miterlimit:10;stroke-dasharray:none;stroke-opacity:1"
       transform="matrix(1.3333333,0,0,-1.3333333,28.541333,292.172)" />
    <path
       id="path59"
       d="M 40.62135,134.64735 H 16.07225"
       style="fill:none;stroke:#ffffff;stroke-width:0.3985;stroke-linecap:butt;stroke-linejoin:miter;stroke-miterlimit:10;stroke-dasharray:none;stroke-opacity:1"
       transform="matrix(1.3333333,0,0,-1.3333333,28.541333,292.172)" />
    <path
       id="path60"
       d="M 28.3468,155.90744 16.07225,134.64735"
       style="fill:none;stroke:#ffffff;stroke-width:0.3985;stroke-linecap:butt;stroke-linejoin:miter;stroke-miterlimit:10;stroke-dasharray:none;stroke-opacity:1"
       transform="matrix(1.3333333,0,0,-1.3333333,28.541333,292.172)" />
    <path
       id="path61"
       d="m 2.9294063,-6.3760625 c 0,-0.234375 0,-0.2578125 -0.234375,-0.2578125 -0.609375,0.6328125 -1.4882813,0.6328125 -1.80468755,0.6328125 v 0.3164062 c 0.19921875,0 0.78515625,0 1.30078125,-0.2578125 v 5.15625005 c 0,0.3515625 -0.035156,0.48046875 -0.9257812,0.48046875 H 0.9489375 v 0.3046875 C 1.3005,-0.03621875 2.1559688,-0.03621875 2.5544063,-0.03621875 c 0.3984375,0 1.265625,0 1.6171875,0.03515625 V -0.30575 H 3.8551875 c -0.9023437,0 -0.9257812,-0.1171875 -0.9257812,-0.48046875 z m 0,0"
       style="fill:#ffffff;fill-opacity:1;fill-rule:nonzero;stroke:none"
       aria-label="1"
       transform="matrix(1.3333333,0,0,1.3333333,63.016,50.782667)" />
    <path
       id="path62"
       d="M 1.2657344,-0.76286719 2.3204219,-1.7941172 c 1.5585937,-1.3710937 2.15625,-1.9101562 2.15625,-2.90625 0,-1.1367187 -0.9023438,-1.9335937 -2.1210938,-1.9335937 -1.125,0 -1.85156247,0.9140625 -1.85156247,1.8046875 0,0.5507812 0.4921875,0.5507812 0.52734377,0.5507812 0.1640625,0 0.515625,-0.1171875 0.515625,-0.5273437 0,-0.2578125 -0.1875,-0.515625 -0.5273438,-0.515625 -0.0820312,0 -0.10546872,0 -0.12890622,0.011719 0.22265622,-0.6445312 0.76171872,-1.0195312 1.33593752,-1.0195312 0.9140625,0 1.3359375,0.8085937 1.3359375,1.6289062 0,0.796875 -0.4921875,1.5820313 -1.0429688,2.203125 L 0.60948438,-0.36442969 C 0.50401563,-0.25896094 0.50401563,-0.23552344 0.50401563,-0.00114844 H 4.1954219 l 0.28125,-1.73437496 H 4.2188594 c -0.046875,0.3046875 -0.1171875,0.73828121 -0.2109375,0.89062496 -0.070313,0.0820313 -0.7265625,0.0820313 -0.9492188,0.0820313 z m 0,0"
       style="fill:#ffffff;fill-opacity:1;fill-rule:nonzero;stroke:none"
       aria-label="2"
       transform="matrix(1.3333333,0,0,1.3333333,79.382667,60.232)" />
    <path
       id="path63"
       d="m 2.8946406,-3.5042266 c 0.8085938,-0.2695312 1.3945313,-0.9726562 1.3945313,-1.7578125 0,-0.8203125 -0.8789063,-1.3710937 -1.8398438,-1.3710937 -1.0078125,0 -1.75781247,0.5976562 -1.75781247,1.3476562 0,0.3398438 0.2109375,0.5273438 0.50390627,0.5273438 0.3046875,0 0.5039062,-0.2226563 0.5039062,-0.515625 0,-0.4921875 -0.46875,-0.4921875 -0.609375,-0.4921875 0.3046875,-0.4921875 0.9609375,-0.6210938 1.3242188,-0.6210938 0.4101562,0 0.9492187,0.2226563 0.9492187,1.1132813 0,0.1289062 -0.011719,0.703125 -0.2695312,1.1367187 -0.3046875,0.4804688 -0.6445313,0.515625 -0.890625,0.515625 -0.082031,0.011719 -0.3164063,0.035156 -0.3867188,0.035156 -0.082031,0.011719 -0.1523437,0.023437 -0.1523437,0.1171875 0,0.1171875 0.070312,0.1171875 0.234375,0.1171875 h 0.4453125 c 0.8085937,0 1.1835937,0.6679687 1.1835937,1.6523437 0,1.34765629 -0.6914062,1.64062504 -1.125,1.64062504 -0.4335937,0 -1.171875,-0.17578125 -1.52343747,-0.76171875 0.35156247,0.0585938 0.65624997,-0.1640625 0.65624997,-0.53906249 0,-0.3632813 -0.2695312,-0.5625 -0.56249997,-0.5625 -0.234375,0 -0.55078125,0.140625 -0.55078125,0.5742187 0,0.91406254 0.92578122,1.57031254 2.00390622,1.57031254 1.21875,0 2.1210938,-0.9140625 2.1210938,-1.92187504 0,-0.8203125 -0.6210938,-1.59375 -1.6523438,-1.8046872 z m 0,0"
       style="fill:#ffffff;fill-opacity:1;fill-rule:nonzero;stroke:none"
       aria-label="3"
       transform="matrix(1.3333333,0,0,1.3333333,79.382667,79.129333)" />
    <path
       id="path64"
       d="m 2.9294063,-1.6410313 v 0.86718755 c 0,0.3515625 -0.023437,0.46875 -0.7617188,0.46875 H 1.95675 v 0.3046875 c 0.4101563,-0.03515625 0.9375,-0.03515625 1.3476563,-0.03515625 0.421875,0 0.9492187,0 1.359375,0.03515625 v -0.3046875 H 4.4528438 c -0.7382813,0 -0.7617188,-0.1171875 -0.7617188,-0.46875 V -1.6410313 H 4.6872188 V -1.9574375 H 3.691125 V -6.480875 c 0,-0.1992188 0,-0.2578125 -0.1523437,-0.2578125 -0.09375,0 -0.1171875,0 -0.1992188,0.1171875 l -3.05859375,4.6640625 v 0.3164062 z M 2.988,-1.9574375 H 0.56221875 L 2.988,-5.6722813 Z m 0,0"
       style="fill:#ffffff;fill-opacity:1;fill-rule:nonzero;stroke:none"
       aria-label="4"
       transform="matrix(1.3333333,0,0,1.3333333,63.016,88.578667)" />
    <path
       id="path65"
       d="m 4.4778203,-2.0042266 c 0,-1.1835937 -0.8203125,-2.1796875 -1.8984375,-2.1796875 -0.4804687,0 -0.9023437,0.1640625 -1.265625,0.5039063 v -1.9335938 c 0.1992188,0.058594 0.5273438,0.1289063 0.84375,0.1289063 1.2304688,0 1.9335938,-0.9140625 1.9335938,-1.0429688 0,-0.058594 -0.035156,-0.1054687 -0.1054688,-0.1054687 -0.011719,0 -0.035156,0 -0.082031,0.023437 -0.1992188,0.09375 -0.6796875,0.2929687 -1.3476563,0.2929687 -0.3984375,0 -0.8554687,-0.070312 -1.3242187,-0.28125 -0.082031,-0.023437 -0.1054688,-0.023437 -0.1289063,-0.023437 -0.09375,0 -0.09375,0.082031 -0.09375,0.234375 v 2.953125 c 0,0.1757813 0,0.2578125 0.140625,0.2578125 0.070312,0 0.082031,-0.035156 0.1289063,-0.09375 0.1054687,-0.1523437 0.4804687,-0.6914062 1.2773437,-0.6914062 0.5273438,0 0.7734375,0.4570312 0.8554688,0.6328125 0.1523437,0.375 0.1757812,0.7617187 0.1757812,1.2539062 0,0.3515625 0,0.9492188 -0.234375,1.37109379 -0.2460937,0.38671875 -0.609375,0.64453125 -1.0664062,0.64453125 -0.7265625,0 -1.30078129,-0.52734375 -1.46484379,-1.11328124 0.0234375,0.011719 0.0585938,0.011719 0.1640625,0.011719 0.32812499,0 0.50390629,-0.2460937 0.50390629,-0.4804687 0,-0.2460938 -0.1757813,-0.4921875 -0.50390629,-0.4921875 -0.140625,0 -0.48046875,0.070312 -0.48046875,0.5273437 0,0.85546879 0.67968754,1.82812504 1.79296874,1.82812504 1.1601563,0 2.1796875,-0.9609375 2.1796873,-2.22656284 z m 0,0"
       style="fill:#ffffff;fill-opacity:1;fill-rule:nonzero;stroke:none"
       aria-label="5"
       transform="matrix(1.3333333,0,0,1.3333333,46.650667,79.129333)" />
    <path
       id="path66"
       d="m 1.3137578,-3.2706797 v -0.234375 c 0,-2.5195312 1.2421875,-2.8828125 1.7460938,-2.8828125 0.234375,0 0.65625,0.058594 0.8789062,0.3984375 -0.1523437,0 -0.5507812,0 -0.5507812,0.4453125 0,0.3164063 0.234375,0.4570313 0.4570312,0.4570313 0.1640625,0 0.4570313,-0.082031 0.4570313,-0.46875 0,-0.5976563 -0.4335938,-1.078125 -1.265625,-1.078125 -1.2773438,0 -2.61328129,1.2890625 -2.61328129,3.4804687 0,2.66015626 1.14843749,3.37500001 2.07421879,3.37500001 1.1132812,0 2.0507812,-0.9375 2.0507812,-2.25000001 0,-1.265625 -0.8789062,-2.2265625 -1.9921875,-2.2265625 -0.6679687,0 -1.0429687,0.5039063 -1.2421875,0.984375 z m 1.1835938,3.21093751 c -0.6210938,0 -0.9257813,-0.59765625 -0.984375,-0.75 C 1.3371953,-1.2784922 1.3371953,-2.0753672 1.3371953,-2.2511484 c 0,-0.7734375 0.3164063,-1.7695313 1.21875,-1.7695313 0.1523438,0 0.609375,0 0.9257813,0.609375 0.1757812,0.375 0.1757812,0.8789063 0.1757812,1.3710938 0,0.4804687 0,0.9726562 -0.1640625,1.33593746 -0.3046875,0.59765625 -0.7617187,0.64453125 -0.9960937,0.64453125 z m 0,0"
       style="fill:#ffffff;fill-opacity:1;fill-rule:nonzero;stroke:none"
       aria-label="6"
       transform="matrix(1.3333333,0,0,1.3333333,46.650667,60.232)" />
    <path
       id="path67"
       d="m 28.3468,184.25424 12.27455,-7.0867 v -14.17338 l -12.27455,-7.0867 -12.27455,7.0867 v 14.17338 z"
       style="fill:none;stroke:#ffffff;stroke-width:0.3985;stroke-linecap:butt;stroke-linejoin:miter;stroke-miterlimit:10;stroke-dasharray:none;stroke-opacity:1"
       transform="matrix(1.3333333,0,0,-1.3333333,28.541333,292.172)" />
    <path
       id="path68"
       d="M 28.3468,184.25424 40.62135,162.99416"
       style="fill:none;stroke:#ffffff;stroke-width:0.3985;stroke-linecap:butt;stroke-linejoin:miter;stroke-miterlimit:10;stroke-dasharray:none;stroke-opacity:1"
       transform="matrix(1.3333333,0,0,-1.3333333,28.541333,292.172)" />
    <path
       id="path69"
       d="M 40.62135,162.99416 H 16.07225"
       style="fill:none;stroke:#ffffff;stroke-width:0.3985;stroke-linecap:butt;stroke-linejoin:miter;stroke-miterlimit:10;stroke-dasharray:none;stroke-opacity:1"
       transform="matrix(1.3333333,0,0,-1.3333333,28.541333,292.172)" />
    <path
       id="path70"
       d="M 28.3468,184.25424 16.07225,162.99416"
       style="fill:none;stroke:#ffffff;stroke-width:0.3985;stroke-linecap:butt;stroke-linejoin:miter;stroke-miterlimit:10;stroke-dasharray:none;stroke-opacity:1"
       transform="matrix(1.3333333,0,0,-1.3333333,28.541333,292.172)" />
    <path
       id="path71"
       d="m 2.9294063,-6.3747891 c 0,-0.234375 0,-0.2578125 -0.234375,-0.2578125 -0.609375,0.6328125 -1.4882813,0.6328125 -1.80468755,0.6328125 v 0.3164063 c 0.19921875,0 0.78515625,0 1.30078125,-0.2578125 v 5.15624999 c 0,0.3515625 -0.035156,0.48046875 -0.9257812,0.48046875 H 0.9489375 V 2.109375e-4 C 1.3005,-0.03494531 2.1559688,-0.03494531 2.5544063,-0.03494531 c 0.3984375,0 1.265625,0 1.6171875,0.0351562475 V -0.30447656 H 3.8551875 c -0.9023437,0 -0.9257812,-0.1171875 -0.9257812,-0.48046875 z m 0,0"
       style="fill:#ffffff;fill-opacity:1;fill-rule:nonzero;stroke:none"
       aria-label="1"
       transform="matrix(1.3333333,0,0,1.3333333,63.016,12.988)" />
    <path
       id="path72"
       d="M 1.2657344,-0.76059375 2.3204219,-1.7918438 c 1.5585937,-1.3710937 2.15625,-1.9101562 2.15625,-2.90625 0,-1.1367187 -0.9023438,-1.9335937 -2.1210938,-1.9335937 -1.125,0 -1.85156247,0.9140625 -1.85156247,1.8046875 0,0.5507812 0.4921875,0.5507812 0.52734377,0.5507812 0.1640625,0 0.515625,-0.1171875 0.515625,-0.5273437 0,-0.2578125 -0.1875,-0.515625 -0.5273438,-0.515625 -0.0820312,0 -0.10546872,0 -0.12890622,0.011719 C 1.1133906,-5.952 1.6524531,-6.327 2.2266719,-6.327 c 0.9140625,0 1.3359375,0.8085937 1.3359375,1.6289062 0,0.796875 -0.4921875,1.5820313 -1.0429688,2.203125 L 0.60948438,-0.36215625 C 0.50401563,-0.2566875 0.50401563,-0.23325 0.50401563,0.001125 H 4.1954219 l 0.28125,-1.734375 H 4.2188594 c -0.046875,0.3046875 -0.1171875,0.73828125 -0.2109375,0.890625 -0.070313,0.0820313 -0.7265625,0.0820313 -0.9492188,0.0820313 z m 0,0"
       style="fill:#ffffff;fill-opacity:1;fill-rule:nonzero;stroke:none"
       aria-label="2"
       transform="matrix(1.3333333,0,0,1.3333333,79.382667,22.436)" />
    <path
       id="path73"
       d="m 2.8946406,-3.5029531 c 0.8085938,-0.2695313 1.3945313,-0.9726563 1.3945313,-1.7578125 0,-0.8203125 -0.8789063,-1.3710938 -1.8398438,-1.3710938 -1.0078125,0 -1.75781247,0.5976563 -1.75781247,1.3476563 0,0.3398437 0.2109375,0.5273437 0.50390627,0.5273437 0.3046875,0 0.5039062,-0.2226562 0.5039062,-0.515625 0,-0.4921875 -0.46875,-0.4921875 -0.609375,-0.4921875 0.3046875,-0.4921875 0.9609375,-0.6210937 1.3242188,-0.6210937 0.4101562,0 0.9492187,0.2226562 0.9492187,1.1132812 0,0.1289063 -0.011719,0.703125 -0.2695312,1.1367188 -0.3046875,0.4804687 -0.6445313,0.515625 -0.890625,0.515625 -0.082031,0.011719 -0.3164063,0.035156 -0.3867188,0.035156 -0.082031,0.011719 -0.1523437,0.023437 -0.1523437,0.1171875 0,0.1171875 0.070312,0.1171875 0.234375,0.1171875 h 0.4453125 c 0.8085937,0 1.1835937,0.6679688 1.1835937,1.6523438 0,1.34765622 -0.6914062,1.64062497 -1.125,1.64062497 -0.4335937,0 -1.171875,-0.17578125 -1.52343747,-0.76171875 0.35156247,0.0585938 0.65624997,-0.1640625 0.65624997,-0.53906252 0,-0.3632812 -0.2695312,-0.5625 -0.56249997,-0.5625 -0.234375,0 -0.55078125,0.140625 -0.55078125,0.5742188 0,0.91406247 0.92578122,1.57031247 2.00390622,1.57031247 1.21875,0 2.1210938,-0.9140625 2.1210938,-1.92187497 0,-0.8203125 -0.6210938,-1.59375 -1.6523438,-1.8046873 z m 0,0"
       style="fill:#ffffff;fill-opacity:1;fill-rule:nonzero;stroke:none"
       aria-label="3"
       transform="matrix(1.3333333,0,0,1.3333333,79.382667,41.334667)" />
    <path
       id="path74"
       d="M 2.9294063,-1.6416875 V -0.7745 c 0,0.3515625 -0.023437,0.46875 -0.7617188,0.46875 H 1.95675 v 0.3046875 c 0.4101563,-0.03515625 0.9375,-0.03515625 1.3476563,-0.03515625 0.421875,0 0.9492187,0 1.359375,0.03515625 V -0.30575 H 4.4528438 c -0.7382813,0 -0.7617188,-0.1171875 -0.7617188,-0.46875 V -1.6416875 H 4.6872188 V -1.9580938 H 3.691125 v -4.5234375 c 0,-0.1992187 0,-0.2578125 -0.1523437,-0.2578125 -0.09375,0 -0.1171875,0 -0.1992188,0.1171875 l -3.05859375,4.6640625 v 0.3164063 z M 2.988,-1.9580938 H 0.56221875 L 2.988,-5.6729375 Z m 0,0"
       style="fill:#ffffff;fill-opacity:1;fill-rule:nonzero;stroke:none"
       aria-label="4"
       transform="matrix(1.3333333,0,0,1.3333333,63.016,50.782667)" />
    <path
       id="path75"
       d="m 4.4778203,-2.0029531 c 0,-1.1835938 -0.8203125,-2.1796875 -1.8984375,-2.1796875 -0.4804687,0 -0.9023437,0.1640625 -1.265625,0.5039062 v -1.9335937 c 0.1992188,0.058594 0.5273438,0.1289062 0.84375,0.1289062 1.2304688,0 1.9335938,-0.9140625 1.9335938,-1.0429687 0,-0.058594 -0.035156,-0.1054688 -0.1054688,-0.1054688 -0.011719,0 -0.035156,0 -0.082031,0.023437 -0.1992188,0.09375 -0.6796875,0.2929688 -1.3476563,0.2929688 -0.3984375,0 -0.8554687,-0.070312 -1.3242187,-0.28125 -0.082031,-0.023437 -0.1054688,-0.023437 -0.1289063,-0.023437 -0.09375,0 -0.09375,0.082031 -0.09375,0.234375 v 2.953125 c 0,0.1757812 0,0.2578125 0.140625,0.2578125 0.070312,0 0.082031,-0.035156 0.1289063,-0.09375 0.1054687,-0.1523438 0.4804687,-0.6914063 1.2773437,-0.6914063 0.5273438,0 0.7734375,0.4570313 0.8554688,0.6328125 0.1523437,0.375 0.1757812,0.7617188 0.1757812,1.2539063 0,0.3515625 0,0.9492187 -0.234375,1.37109372 -0.2460937,0.38671875 -0.609375,0.64453125 -1.0664062,0.64453125 -0.7265625,0 -1.30078129,-0.52734375 -1.46484379,-1.11328127 0.0234375,0.011719 0.0585938,0.011719 0.1640625,0.011719 0.32812499,0 0.50390629,-0.2460938 0.50390629,-0.4804688 0,-0.2460937 -0.1757813,-0.4921875 -0.50390629,-0.4921875 -0.140625,0 -0.48046875,0.070312 -0.48046875,0.5273438 0,0.85546872 0.67968754,1.82812497 1.79296874,1.82812497 1.1601563,0 2.1796875,-0.9609375 2.1796873,-2.22656267 z m 0,0"
       style="fill:#ffffff;fill-opacity:1;fill-rule:nonzero;stroke:none"
       aria-label="5"
       transform="matrix(1.3333333,0,0,1.3333333,46.650667,41.334667)" />
    <path
       id="path76"
       d="m 1.3137578,-3.2684063 v -0.234375 c 0,-2.5195312 1.2421875,-2.8828125 1.7460938,-2.8828125 0.234375,0 0.65625,0.058594 0.8789062,0.3984375 -0.1523437,0 -0.5507812,0 -0.5507812,0.4453125 0,0.3164063 0.234375,0.4570313 0.4570312,0.4570313 0.1640625,0 0.4570313,-0.082031 0.4570313,-0.46875 0,-0.5976563 -0.4335938,-1.078125 -1.265625,-1.078125 -1.2773438,0 -2.61328129,1.2890625 -2.61328129,3.4804687 0,2.6601563 1.14843749,3.37500005 2.07421879,3.37500005 1.1132812,0 2.0507812,-0.9375 2.0507812,-2.25000005 0,-1.265625 -0.8789062,-2.2265625 -1.9921875,-2.2265625 -0.6679687,0 -1.0429687,0.5039063 -1.2421875,0.984375 z m 1.1835938,3.21093755 c -0.6210938,0 -0.9257813,-0.59765625 -0.984375,-0.75 C 1.3371953,-1.2762188 1.3371953,-2.0730938 1.3371953,-2.248875 c 0,-0.7734375 0.3164063,-1.7695313 1.21875,-1.7695313 0.1523438,0 0.609375,0 0.9257813,0.609375 0.1757812,0.375 0.1757812,0.8789063 0.1757812,1.3710938 0,0.4804687 0,0.9726562 -0.1640625,1.3359375 -0.3046875,0.59765625 -0.7617187,0.64453125 -0.9960937,0.64453125 z m 0,0"
       style="fill:#ffffff;fill-opacity:1;fill-rule:nonzero;stroke:none"
       aria-label="6"
       transform="matrix(1.3333333,0,0,1.3333333,46.650667,22.436)" />
    <path
       id="path77"
       d="m 28.3468,212.60106 12.27455,-7.0867 v -14.17339 l -12.27455,-7.08671 -12.27455,7.08671 v 14.17339 z"
       style="fill:none;stroke:#ffffff;stroke-width:0.3985;stroke-linecap:butt;stroke-linejoin:miter;stroke-miterlimit:10;stroke-dasharray:none;stroke-opacity:1"
       transform="matrix(1.3333333,0,0,-1.3333333,28.541333,292.172)" />
    <path
       id="path78"
       d="M 28.3468,212.60106 40.62135,191.34097"
       style="fill:none;stroke:#ffffff;stroke-width:0.3985;stroke-linecap:butt;stroke-linejoin:miter;stroke-miterlimit:10;stroke-dasharray:none;stroke-opacity:1"
       transform="matrix(1.3333333,0,0,-1.3333333,28.541333,292.172)" />
    <path
       id="path79"
       d="M 40.62135,191.34097 H 16.07225"
       style="fill:none;stroke:#ffffff;stroke-width:0.3985;stroke-linecap:butt;stroke-linejoin:miter;stroke-miterlimit:10;stroke-dasharray:none;stroke-opacity:1"
       transform="matrix(1.3333333,0,0,-1.3333333,28.541333,292.172)" />
    <path
       id="path80"
       d="M 28.3468,212.60106 16.07225,191.34097"
       style="fill:none;stroke:#ffffff;stroke-width:0.3985;stroke-linecap:butt;stroke-linejoin:miter;stroke-miterlimit:10;stroke-dasharray:none;stroke-opacity:1"
       transform="matrix(1.3333333,0,0,-1.3333333,28.541333,292.172)" />
  </g>
</svg>
