<?xml version="1.0" encoding="UTF-8" standalone="no"?>
<!-- Created with Inkscape (http://www.inkscape.org/) -->

<svg
   version="1.1"
   id="svg1"
   width="214.97867"
   height="273.87201"
   viewBox="0 0 214.97867 273.87201"
   xmlns="http://www.w3.org/2000/svg"
   xmlns:svg="http://www.w3.org/2000/svg">
  <defs
     id="defs1" />
  <g
     id="g1">
    <path
       id="path1"
       d="m 0.35282813,-6.8087187 v 0.3164062 h 0.234375 c 0.77343747,0 0.78515627,0.1054688 0.78515627,0.46875 v 5.25 c 0,0.3515625 -0.011719,0.46875 -0.78515627,0.46875 h -0.234375 V -1.25e-4 H 3.9973594 c 1.6757812,0 3.046875,-1.4765625 3.046875,-3.3515625 0,-1.8867187 -1.3476563,-3.4570312 -3.046875,-3.4570312 z m 2.36718747,6.5039062 c -0.46875,0 -0.4921875,-0.0703125 -0.4921875,-0.3984375 v -5.390625 c 0,-0.328125 0.023437,-0.3984375 0.4921875,-0.3984375 h 0.9960938 c 0.6210937,0 1.3007812,0.2109375 1.8164062,0.9257813 0.421875,0.5859375 0.515625,1.4414062 0.515625,2.2148437 0,1.1132813 -0.1875,1.7109375 -0.5507812,2.1914063 -0.1992188,0.2695312 -0.7617188,0.8554687 -1.7695313,0.8554687 z m 9.0263674,-3.046875 C 12.004195,-3.9727812 12.508102,-3.9845 12.672164,-3.9845 v -0.3046875 c -0.234375,0.011719 -0.515625,0.023437 -0.75,0.023437 -0.175781,0 -0.644531,-0.023437 -0.867187,-0.023437 V -3.9845 c 0.304687,0.011719 0.46875,0.1757813 0.46875,0.4335938 0,0.09375 -0.01172,0.1171875 -0.05859,0.234375 L 10.45732,-0.8673125 9.3557578,-3.5509062 c -0.046875,-0.09375 -0.058594,-0.140625 -0.058594,-0.1757813 C 9.2971638,-3.9845 9.660445,-3.9845 9.847945,-3.9845 v -0.3046875 c -0.2578125,0 -0.9140625,0.023437 -1.078125,0.023437 -0.2695312,0 -0.6679687,-0.011719 -0.9726562,-0.023437 V -3.9845 c 0.4804687,0 0.6679687,0 0.8085937,0.3515625 L 10.105758,-1.25e-4 C 10.047164,0.12878125 9.9065391,0.45690625 9.8479453,0.5858125 9.6370078,1.1365938 9.3557578,1.828 8.7112266,1.828 c -0.046875,0 -0.2695313,0 -0.46875,-0.1875 0.3164062,-0.035156 0.3984375,-0.2578125 0.3984375,-0.4101562 0,-0.2695313 -0.1992188,-0.42187505 -0.421875,-0.42187505 -0.1992188,0 -0.421875,0.12890625 -0.421875,0.42187505 0,0.4570312 0.421875,0.8085937 0.9140625,0.8085937 0.6328125,0 1.0429687,-0.5625 1.2773437,-1.13671875 z M 13.970016,-3.422 v 2.66015625 c 0,0.45703125 -0.117188,0.45703125 -0.785157,0.45703125 V -1.25e-4 c 0.351563,-0.01171875 0.855469,-0.03515625 1.125,-0.03515625 0.257813,0 0.785157,0.0234375 1.113282,0.03515625 v -0.3046875 c -0.65625,0 -0.773438,0 -0.773438,-0.45703125 V -2.5899687 c 0,-1.03125 0.714844,-1.59375 1.347656,-1.59375 0.621094,0 0.738282,0.5390625 0.738282,1.1015625 v 2.32031245 c 0,0.45703125 -0.117188,0.45703125 -0.773438,0.45703125 V -1.25e-4 c 0.339844,-0.01171875 0.855469,-0.03515625 1.125,-0.03515625 0.257813,0 0.773438,0.0234375 1.113281,0.03515625 v -0.3046875 c -0.515625,0 -0.773437,0 -0.785156,-0.3046875 v -1.8984375 c 0,-0.8554687 0,-1.171875 -0.304687,-1.5234375 -0.140625,-0.1757812 -0.46875,-0.375 -1.042969,-0.375 -0.726563,0 -1.195313,0.4335938 -1.476563,1.0546875 V -4.406375 l -1.40625,0.1171875 V -3.9845 c 0.703125,0 0.785157,0.070312 0.785157,0.5625 z m 5.487304,2.66015625 c 0,0.45703125 -0.105468,0.45703125 -0.773437,0.45703125 V -1.25e-4 c 0.328125,-0.01171875 0.796875,-0.03515625 1.078125,-0.03515625 0.304687,0 0.703125,0.01171875 1.101562,0.03515625 v -0.3046875 c -0.667968,0 -0.773437,0 -0.773437,-0.45703125 V -1.781375 l 0.632812,-0.5507812 c 0.773438,1.0546875 1.183594,1.61718745 1.183594,1.7929687 0,0.1875 -0.164062,0.234375 -0.351562,0.234375 V -1.25e-4 c 0.269531,-0.01171875 0.867187,-0.03515625 1.066406,-0.03515625 0.292969,0 0.585937,0.01171875 0.867187,0.03515625 v -0.3046875 c -0.363281,0 -0.585937,0 -0.960937,-0.52734375 L 21.262008,-2.625125 c -0.01172,-0.011719 -0.05859,-0.070312 -0.05859,-0.1054687 0,-0.035156 0.703125,-0.6328125 0.808594,-0.7148438 0.621094,-0.5039062 1.042969,-0.5273437 1.253906,-0.5390625 v -0.3046875 c -0.292969,0.023437 -0.421875,0.023437 -0.703125,0.023437 -0.351562,0 -0.972656,-0.023437 -1.113281,-0.023437 V -3.9845 c 0.1875,0.011719 0.292969,0.1171875 0.292969,0.2460938 0,0.1992187 -0.140625,0.3164062 -0.222657,0.3867187 l -1.40625,1.21875 v -4.78125 l -1.429687,0.1054688 v 0.3164062 c 0.691406,0 0.773437,0.070312 0.773437,0.5507813 z M 25.419234,-4.406375 24.024703,-4.2891875 V -3.9845 c 0.65625,0 0.738281,0.058594 0.738281,0.5507813 v 2.67187495 c 0,0.45703125 -0.105468,0.45703125 -0.773437,0.45703125 V -1.25e-4 c 0.316406,-0.01171875 0.855469,-0.03515625 1.101562,-0.03515625 0.339844,0 0.691407,0.0234375 1.03125,0.03515625 v -0.3046875 c -0.65625,0 -0.703125,-0.0585938 -0.703125,-0.4453125 z m 0.04687,-1.734375 c 0,-0.3164062 -0.246093,-0.5273437 -0.527343,-0.5273437 -0.316407,0 -0.527344,0.2695312 -0.527344,0.5273437 0,0.2695313 0.210937,0.5273438 0.527344,0.5273438 0.28125,0 0.527343,-0.1992188 0.527343,-0.5273438 z m 2.06543,2.71875 v 2.66015625 c 0,0.45703125 -0.117187,0.45703125 -0.785156,0.45703125 V -1.25e-4 c 0.351562,-0.01171875 0.855469,-0.03515625 1.125,-0.03515625 0.257812,0 0.785156,0.0234375 1.113281,0.03515625 v -0.3046875 c -0.65625,0 -0.773437,0 -0.773437,-0.45703125 V -2.5899687 c 0,-1.03125 0.714843,-1.59375 1.347656,-1.59375 0.621094,0 0.738281,0.5390625 0.738281,1.1015625 v 2.32031245 c 0,0.45703125 -0.117187,0.45703125 -0.773437,0.45703125 V -1.25e-4 c 0.339843,-0.01171875 0.855468,-0.03515625 1.125,-0.03515625 0.257812,0 0.773437,0.0234375 1.113281,0.03515625 v -0.3046875 c -0.515625,0 -0.773438,0 -0.785156,-0.3046875 v -1.8984375 c 0,-0.8554687 0,-1.171875 -0.304688,-1.5234375 -0.140625,-0.1757812 -0.46875,-0.375 -1.042969,-0.375 -0.726562,0 -1.195312,0.4335938 -1.476562,1.0546875 V -4.406375 l -1.40625,0.1171875 V -3.9845 c 0.703125,0 0.785156,0.070312 0.785156,0.5625 z m 0,0"
       style="fill:#ffffff;fill-opacity:1;fill-rule:nonzero;stroke:none"
       aria-label="Dynkin"
       transform="matrix(1.3333333,0,0,1.3333333,4.428,192.56267)" />
    <path
       id="path2"
       d="m 1.3605391,-0.77283594 c 0,0.3515625 -0.023437,0.46875 -0.79687504,0.46875 h -0.234375 V 6.015625e-4 H 6.0831953 L 6.4933516,-2.5658047 H 6.2472578 C 6.0011641,-1.0306484 5.7667891,-0.30408594 4.0558516,-0.30408594 H 2.7316328 c -0.46875,0 -0.4921875,-0.0703125 -0.4921875,-0.3984375 V -3.3626797 h 0.9023438 c 0.9609375,0 1.078125,0.3164063 1.078125,1.1601563 H 4.4660078 V -4.8392422 H 4.2199141 c 0,0.8554688 -0.1171875,1.1601563 -1.078125,1.1601563 H 2.2394453 v -2.390625 c 0,-0.328125 0.023437,-0.3984375 0.4921875,-0.3984375 h 1.2890625 c 1.5234375,0 1.7929688,0.5507812 1.9453125,1.9335937 H 6.2121016 L 5.9425703,-6.7728359 H 0.32928906 v 0.3046875 h 0.234375 c 0.77343754,0 0.79687504,0.1171875 0.79687504,0.46875 z m 9.3105469,-0.0117188 v 0.890625 L 12.112492,6.015625e-4 V -0.30408594 c -0.703125,0 -0.785156,-0.0703125 -0.785156,-0.5625 V -4.4056484 l -1.4531251,0.1171875 v 0.3046875 c 0.6914061,0 0.7734371,0.070312 0.7734371,0.5625 v 1.7695312 c 0,0.86718751 -0.480468,1.54687501 -1.2070308,1.54687501 -0.8320313,0 -0.8789063,-0.46875 -0.8789063,-0.99609371 v -3.3046875 l -1.4648437,0.1171875 v 0.3046875 c 0.7851562,0 0.7851562,0.035156 0.7851562,0.9140625 v 1.5 c 0,0.77343746 0,1.67578121 1.5117188,1.67578121 0.5507812,0 0.9960938,-0.26953125 1.2773438,-0.89062505 z m 2.803711,-1.38281246 c 0,-1.6289063 0.820312,-2.0507812 1.347656,-2.0507812 0.09375,0 0.714844,0.011719 1.066406,0.375 -0.410156,0.023437 -0.46875,0.328125 -0.46875,0.4570312 0,0.2578125 0.1875,0.4570313 0.457032,0.4570313 0.257812,0 0.457031,-0.1640625 0.457031,-0.46875 0,-0.6796875 -0.75,-1.0664063 -1.523438,-1.0664063 -1.242187,0 -2.15625,1.078125 -2.15625,2.3085938 0,1.27734366 0.984375,2.26171866 2.144532,2.26171866 1.335937,0 1.652343,-1.19531246 1.652343,-1.28906246 0,-0.1054687 -0.105468,-0.1054687 -0.128906,-0.1054687 -0.09375,0 -0.117187,0.046875 -0.128906,0.1054687 -0.292969,0.92578121 -0.9375,1.04296871 -1.3125,1.04296871 -0.527344,0 -1.40625,-0.421875 -1.40625,-2.02734371 z m 5.027344,-4.7460937 -1.429688,0.1054687 v 0.3164063 c 0.703125,0 0.773438,0.070312 0.773438,0.5507812 v 5.17968746 c 0,0.45703125 -0.105469,0.45703125 -0.773438,0.45703125 V 6.015625e-4 C 17.400578,-0.01111719 17.927922,-0.03455469 18.174016,-0.03455469 c 0.257812,0 0.738281,0.0234375 1.113281,0.0351562525 V -0.30408594 c -0.667969,0 -0.785156,0 -0.785156,-0.45703125 z m 2.765625,2.5078125 -1.394532,0.1171875 v 0.3046874 c 0.65625,0 0.738282,0.058594 0.738282,0.5507812 v 2.67187506 c 0,0.45703125 -0.105469,0.45703125 -0.773438,0.45703125 V 6.015625e-4 C 20.154484,-0.01111719 20.693547,-0.03455469 20.939641,-0.03455469 c 0.339843,0 0.691406,0.0234375 1.03125,0.0351562525 V -0.30408594 c -0.65625,0 -0.703125,-0.0585938 -0.703125,-0.4453125 z m 0.04687,-1.734375 c 0,-0.3164063 -0.246094,-0.5273438 -0.527344,-0.5273438 -0.316406,0 -0.527344,0.2695313 -0.527344,0.5273438 0,0.2695312 0.210938,0.5273437 0.527344,0.5273437 0.28125,0 0.527344,-0.1992187 0.527344,-0.5273437 z m 4.749023,5.58984366 v 0.65625 L 27.528508,6.015625e-4 V -0.30408594 c -0.703125,0 -0.773438,-0.0703125 -0.773438,-0.5625 V -6.9134609 l -1.441406,0.1054687 v 0.3164063 c 0.703125,0 0.785156,0.070312 0.785156,0.5507812 v 2.15625 c -0.292968,-0.3632812 -0.726562,-0.6210937 -1.265625,-0.6210937 -1.171875,0 -2.214843,0.984375 -2.214843,2.2617187 0,1.26562501 0.972656,2.25000001 2.109375,2.25000001 0.644531,0 1.089843,-0.33984375 1.335937,-0.65625 z m 0,-2.67187496 v 2.0507813 c 0,0.17578116 0,0.19921866 -0.105469,0.36328116 -0.304687,0.48046875 -0.75,0.703125 -1.183593,0.703125 -0.445313,0 -0.796875,-0.2578125 -1.042969,-0.64453125 -0.257813,-0.41015621 -0.292969,-0.97265621 -0.292969,-1.38281241 0,-0.3632813 0.02344,-0.9609375 0.316406,-1.4179688 0.210938,-0.3046876 0.585938,-0.6328125 1.125,-0.6328125 0.351563,0 0.761719,0.1523438 1.078125,0.5976563 0.105469,0.1640625 0.105469,0.1875 0.105469,0.3632812 z m 2.862305,0.7148438 c 0.05859,-1.4882814 0.902344,-1.734375 1.242187,-1.734375 1.019532,0 1.125,1.3476562 1.125,1.734375 z m -0.01172,0.2109375 h 2.789063 c 0.210937,0 0.246093,0 0.246093,-0.2109375 0,-0.984375 -0.539062,-1.9570313 -1.78125,-1.9570313 -1.160156,0 -2.074218,1.03125 -2.074218,2.2734375 0,1.33593746 1.042968,2.29687496 2.191406,2.29687496 1.21875,0 1.664062,-1.1015625 1.664062,-1.28906246 0,-0.1054687 -0.08203,-0.1171875 -0.128906,-0.1171875 -0.09375,0 -0.117187,0.058594 -0.128906,0.140625 -0.351563,1.01953121 -1.253906,1.01953121 -1.347656,1.01953121 -0.503907,0 -0.902344,-0.29296875 -1.125,-0.66796875 C 28.91425,-1.2884609 28.91425,-1.9447109 28.91425,-2.2962734 Z m 6.644531,1.53515616 c 0.03516,0.3984375 0.304688,0.8203125 0.773438,0.8203125 0.210937,0 0.820312,-0.140625 0.820312,-0.94921875 V -1.4408047 h -0.246093 v 0.55078126 c 0,0.5859375 -0.246094,0.64453125 -0.363282,0.64453125 -0.328125,0 -0.363281,-0.45703125 -0.363281,-0.50390625 V -2.7415859 c 0,-0.4101563 0,-0.8085938 -0.363281,-1.171875 -0.386719,-0.3867188 -0.878906,-0.5507813 -1.359375,-0.5507813 -0.820313,0 -1.511719,0.46875 -1.511719,1.125 0,0.3046875 0.199219,0.46875 0.457031,0.46875 0.28125,0 0.46875,-0.1992187 0.46875,-0.4570312 0,-0.1171875 -0.05859,-0.4453125 -0.515625,-0.4570313 0.269532,-0.3515625 0.761719,-0.4570312 1.078125,-0.4570312 0.492188,0 1.054688,0.3867187 1.054688,1.2773437 v 0.3632813 c -0.503906,0.035156 -1.207031,0.058594 -1.828125,0.3632812 -0.75,0.3398438 -0.996094,0.8554688 -0.996094,1.28906251 0,0.80859375 0.960938,1.0546875 1.59375,1.0546875 0.65625,0 1.113281,-0.3984375 1.300781,-0.86718755 z m -0.07031,-1.62890616 v 0.9960937 c 0,0.94921871 -0.714844,1.28906246 -1.160156,1.28906246 -0.492188,0 -0.902344,-0.3515625 -0.902344,-0.85546875 0,-0.53906241 0.421875,-1.37109371 2.0625,-1.42968741 z m 2.835937,-1.03125 v 2.66015616 c 0,0.45703125 -0.117187,0.45703125 -0.785156,0.45703125 V 6.015625e-4 c 0.351563,-0.0117187525 0.855469,-0.0351562525 1.125,-0.0351562525 0.257813,0 0.785156,0.0234375 1.113281,0.0351562525 V -0.30408594 c -0.65625,0 -0.773437,0 -0.773437,-0.45703125 V -2.5892422 c 0,-1.03125 0.714844,-1.59375 1.347656,-1.59375 0.621094,0 0.738281,0.5390625 0.738281,1.1015625 v 2.32031251 c 0,0.45703125 -0.117187,0.45703125 -0.773437,0.45703125 V 6.015625e-4 c 0.339844,-0.0117187525 0.855469,-0.0351562525 1.125,-0.0351562525 0.257812,0 0.773437,0.0234375 1.113281,0.0351562525 V -0.30408594 c -0.515625,0 -0.773437,0 -0.785156,-0.3046875 V -2.5072109 c 0,-0.8554688 0,-1.171875 -0.304688,-1.5234375 -0.140625,-0.1757813 -0.46875,-0.375 -1.042968,-0.375 -0.726563,0 -1.195313,0.4335937 -1.476563,1.0546875 v -1.0546875 l -1.40625,0.1171875 v 0.3046875 c 0.703125,0 0.785156,0.070312 0.785156,0.5625 z m 0,0"
       style="fill:#ffffff;fill-opacity:1;fill-rule:nonzero;stroke:none"
       aria-label="Euclidean"
       transform="matrix(1.3333333,0,0,1.3333333,72.822667,193.85467)" />
    <path
       id="path3"
       d="m 9.0577969,-5.8236172 c 0.1757812,-0.5742187 0.609375,-0.6679687 0.9960941,-0.6679687 v -0.3164063 c -0.3046879,0.023437 -0.6093754,0.035156 -0.9140629,0.035156 -0.28125,0 -0.9257812,-0.023437 -1.1835937,-0.035156 v 0.3164063 c 0.6679687,0.011719 0.8671875,0.3398437 0.8671875,0.5273437 0,0.058594 -0.023437,0.140625 -0.046875,0.1992188 l -1.5,4.6054687 -1.59375,-4.8867187 c 0,-0.035156 -0.023437,-0.09375 -0.023437,-0.1523438 0,-0.2929687 0.5742187,-0.2929687 0.8320312,-0.2929687 v -0.3164063 c -0.3515625,0.035156 -1.03125,0.035156 -1.40625,0.035156 -0.3867187,0 -0.8085937,-0.023437 -1.21875,-0.035156 v 0.3164063 c 0.5625,0 0.7734375,0 0.890625,0.3515625 l 0.2226563,0.703125 -1.3828125,4.2773437 -1.6054688,-4.9101562 c -0.011719,-0.023437 -0.023437,-0.09375 -0.023437,-0.1289063 0,-0.2929687 0.5859375,-0.2929687 0.84375,-0.2929687 v -0.3164063 c -0.3632812,0.035156 -1.0429687,0.035156 -1.4179687,0.035156 -0.375,0 -0.80859377,-0.023437 -1.21875002,-0.035156 v 0.3164063 c 0.75,0 0.78515625,0.046875 0.91406252,0.4101562 l 1.9921875,6.11718751 c 0.023437,0.08203125 0.058594,0.1875 0.1875,0.1875 0.140625,0 0.1523437,-0.0703125 0.1992187,-0.19921875 l 1.640625,-5.06249996 1.6523438,5.07421871 c 0.035156,0.08203125 0.058594,0.1875 0.1875,0.1875 0.140625,0 0.1640625,-0.0703125 0.1992187,-0.19921875 z m 2.9384761,1.4179688 -1.394531,0.1171875 v 0.3046875 c 0.65625,0 0.738281,0.058594 0.738281,0.5507812 v 2.67187501 c 0,0.45703125 -0.105468,0.45703125 -0.773437,0.45703125 V 6.015625e-4 C 10.882992,-0.01111719 11.422055,-0.03455469 11.668148,-0.03455469 c 0.339844,0 0.691407,0.0234375 1.03125,0.0351562525 V -0.30408594 c -0.65625,0 -0.703125,-0.0585938 -0.703125,-0.4453125 z m 0.04687,-1.734375 c 0,-0.3164063 -0.246093,-0.5273438 -0.527343,-0.5273438 -0.316407,0 -0.527344,0.2695313 -0.527344,0.5273438 0,0.2695312 0.210937,0.5273437 0.527344,0.5273437 0.28125,0 0.527343,-0.1992187 0.527343,-0.5273437 z m 2.72168,-0.7734375 -1.429687,0.1054687 v 0.3164063 c 0.703125,0 0.773437,0.070312 0.773437,0.5507812 v 5.17968751 c 0,0.45703125 -0.105469,0.45703125 -0.773437,0.45703125 V 6.015625e-4 c 0.32813,-0.0117187525 0.855473,-0.0351562525 1.101567,-0.0351562525 0.257813,0 0.738281,0.0234375 1.113281,0.0351562525 V -0.30408594 c -0.667968,0 -0.785156,0 -0.785156,-0.45703125 z m 4.795899,6.36328121 v 0.65625 L 21.02557,6.015625e-4 V -0.30408594 c -0.703125,0 -0.773437,-0.0703125 -0.773437,-0.5625 V -6.9134609 l -1.441406,0.1054687 v 0.3164063 c 0.703125,0 0.785156,0.070312 0.785156,0.5507812 v 2.15625 c -0.292969,-0.3632812 -0.726563,-0.6210937 -1.265625,-0.6210937 -1.171875,0 -2.214844,0.984375 -2.214844,2.2617187 0,1.26562501 0.972656,2.25000001 2.109375,2.25000001 0.644531,0 1.089844,-0.33984375 1.335938,-0.65625 z m 0,-2.67187501 v 2.0507813 c 0,0.17578121 0,0.19921871 -0.105469,0.36328121 -0.304688,0.48046875 -0.75,0.703125 -1.183594,0.703125 -0.445312,0 -0.796875,-0.2578125 -1.042969,-0.64453125 -0.257812,-0.41015626 -0.292968,-0.97265626 -0.292968,-1.38281246 0,-0.3632813 0.02344,-0.9609375 0.316406,-1.4179688 0.210937,-0.3046875 0.585937,-0.6328125 1.125,-0.6328125 0.351562,0 0.761719,0.1523438 1.078125,0.5976563 0.105469,0.1640625 0.105469,0.1875 0.105469,0.3632812 z m 0,0"
       style="fill:#ffffff;fill-opacity:1;fill-rule:nonzero;stroke:none"
       aria-label="Wild"
       transform="matrix(1.3333333,0,0,1.3333333,162.712,193.85467)" />
    <path
       id="path4"
       d="M 6.6323828,-6.7389531 H 0.55035156 l -0.1875,2.2382812 h 0.24609375 c 0.140625,-1.6054687 0.29296875,-1.9335937 1.79296879,-1.9335937 0.1757812,0 0.4335937,0 0.5390625,0.023437 0.2109375,0.035156 0.2109375,0.140625 0.2109375,0.375 v 5.24999998 c 0,0.33984375 0,0.48046875 -1.0546875,0.48046875 H 1.6987891 V -6.71875e-4 C 2.1089453,-0.03582812 3.1284766,-0.03582812 3.5855078,-0.03582812 c 0.4570313,0 1.4882813,0 1.8984375,0.035156245 V -0.30535937 H 5.0855078 c -1.0546875,0 -1.0546875,-0.140625 -1.0546875,-0.48046875 V -6.0358281 c 0,-0.1992188 0,-0.3398438 0.1875,-0.375 0.1054688,-0.023437 0.375,-0.023437 0.5625,-0.023437 1.5,0 1.6523438,0.328125 1.7929688,1.9335937 h 0.2460937 z m 3.6269532,5.95312498 v 0.890625 L 11.700742,-6.71875e-4 V -0.30535937 c -0.703125,0 -0.785156,-0.0703125 -0.785156,-0.5625 V -4.4069219 l -1.4531251,0.1171875 v 0.3046875 c 0.6914061,0 0.7734371,0.070312 0.7734371,0.5625 v 1.7695313 c 0,0.86718748 -0.4804683,1.54687498 -1.2070308,1.54687498 -0.8320313,0 -0.8789063,-0.46875 -0.8789063,-0.99609378 v -3.3046875 l -1.4648437,0.1171875 v 0.3046875 c 0.7851562,0 0.7851562,0.035156 0.7851562,0.9140625 v 1.5 c 0,0.77343753 0,1.67578128 1.5117188,1.67578128 0.5507812,0 0.9960937,-0.26953125 1.2773438,-0.890625 z m 3.354492,-2.96484378 v -3.1640625 l -1.429687,0.1054688 v 0.3164062 c 0.691406,0 0.773437,0.070312 0.773437,0.5507813 v 5.941406225 h 0.246094 c 0.01172,-0.011718745 0.09375,-0.152343745 0.363281,-0.621093745 0.152344,0.234375 0.5625,0.7265625 1.300781,0.7265625 1.183594,0 2.226563,-0.97265625 2.226563,-2.26171878 0,-1.265625 -0.972656,-2.25 -2.109375,-2.25 -0.785156,0 -1.207031,0.46875 -1.371094,0.65625 z m 0.03516,2.6132813 v -2.0507813 c 0,-0.1875 0,-0.1992187 0.105469,-0.3632812 0.386719,-0.5507813 0.9375,-0.6328125 1.171875,-0.6328125 0.457031,0 0.808594,0.2578125 1.054688,0.6328125 0.257812,0.4101562 0.28125,0.984375 0.28125,1.3945312 0,0.3632813 -0.01172,0.9609375 -0.304688,1.40625003 -0.210937,0.31640625 -0.585937,0.64453125 -1.125,0.64453125 -0.445312,0 -0.808594,-0.24609375 -1.042969,-0.609375 -0.140625,-0.2109375 -0.140625,-0.24609375 -0.140625,-0.42187498 z m 7.678711,0.35156248 v 0.890625 L 22.769102,-6.71875e-4 V -0.30535937 c -0.703125,0 -0.785157,-0.0703125 -0.785157,-0.5625 V -4.4069219 l -1.453125,0.1171875 v 0.3046875 c 0.691407,0 0.773438,0.070312 0.773438,0.5625 v 1.7695313 c 0,0.86718748 -0.480469,1.54687498 -1.207031,1.54687498 -0.832032,0 -0.878907,-0.46875 -0.878907,-0.99609378 v -3.3046875 l -1.464843,0.1171875 v 0.3046875 c 0.785156,0 0.785156,0.035156 0.785156,0.9140625 v 1.5 c 0,0.77343753 0,1.67578128 1.511719,1.67578128 0.550781,0 0.996093,-0.26953125 1.277343,-0.890625 z m 3.404297,-6.12890628 -1.429687,0.1054688 v 0.3164062 c 0.703125,0 0.773437,0.070312 0.773437,0.5507813 v 5.17968748 c 0,0.45703125 -0.105469,0.45703125 -0.773437,0.45703125 v 0.304687495 c 0.328125,-0.011718745 0.855468,-0.035156245 1.101562,-0.035156245 0.257813,0 0.738281,0.0234375 1.113281,0.035156245 V -0.30535937 c -0.667968,0 -0.785156,0 -0.785156,-0.45703125 z m 4.327149,6.15234378 c 0.03516,0.3984375 0.304687,0.8203125 0.773437,0.8203125 0.210938,0 0.820313,-0.140625 0.820313,-0.94921875 V -1.4420781 h -0.246094 v 0.55078123 c 0,0.5859375 -0.246094,0.64453125 -0.363281,0.64453125 -0.328125,0 -0.363282,-0.45703125 -0.363282,-0.50390625 V -2.7428594 c 0,-0.4101562 0,-0.8085937 -0.363281,-1.171875 -0.386719,-0.3867187 -0.878906,-0.5507812 -1.359375,-0.5507812 -0.820312,0 -1.511719,0.46875 -1.511719,1.125 0,0.3046875 0.199219,0.46875 0.457032,0.46875 0.28125,0 0.46875,-0.1992188 0.46875,-0.4570313 0,-0.1171875 -0.05859,-0.4453125 -0.515625,-0.4570312 0.269531,-0.3515625 0.761718,-0.4570313 1.078125,-0.4570313 0.492187,0 1.054687,0.3867188 1.054687,1.2773438 v 0.3632812 c -0.503906,0.035156 -1.207031,0.058594 -1.828125,0.3632813 -0.75,0.3398437 -0.996094,0.8554687 -0.996094,1.28906248 0,0.80859375 0.960938,1.0546875 1.59375,1.0546875 0.65625,0 1.113282,-0.3984375 1.300782,-0.8671875 z m -0.07031,-1.62890628 v 0.9960938 c 0,0.94921873 -0.714844,1.28906248 -1.160156,1.28906248 -0.492188,0 -0.902344,-0.3515625 -0.902344,-0.85546875 0,-0.53906253 0.421875,-1.37109373 2.0625,-1.42968753 z m 3.398438,-0.9140625 v -1.1015625 l -1.382813,0.1171875 v 0.3046875 c 0.691406,0 0.773438,0.070312 0.773438,0.5625 v 2.66015628 c 0,0.45703125 -0.105469,0.45703125 -0.773438,0.45703125 v 0.304687495 c 0.386719,-0.011718745 0.855469,-0.035156245 1.136719,-0.035156245 0.398437,0 0.867187,0 1.265625,0.035156245 V -0.30535937 h -0.210938 c -0.738281,0 -0.761718,-0.1171875 -0.761718,-0.46875 V -2.3092656 c 0,-0.984375 0.421875,-1.875 1.183593,-1.875 0.05859,0 0.08203,0 0.105469,0.011719 -0.03516,0.011719 -0.234375,0.1289063 -0.234375,0.3867188 0,0.28125 0.210938,0.4335937 0.433594,0.4335937 0.175781,0 0.421875,-0.1289062 0.421875,-0.4453125 0,-0.3164062 -0.304688,-0.609375 -0.726563,-0.609375 -0.738281,0 -1.089843,0.6679688 -1.230468,1.1015622 z m 0,0"
       style="fill:#ffffff;fill-opacity:1;fill-rule:nonzero;stroke:none"
       aria-label="Tubular"
       transform="matrix(1.3333333,0,0,1.3333333,78.246667,231.64933)" />
    <path
       id="path5"
       d="m 9.0584141,-5.8232344 c 0.1757812,-0.5742187 0.609375,-0.6679687 0.9960939,-0.6679687 v -0.3164063 c -0.3046877,0.023437 -0.6093752,0.035156 -0.9140627,0.035156 -0.28125,0 -0.9257812,-0.023437 -1.1835937,-0.035156 v 0.3164063 c 0.6679687,0.011719 0.8671875,0.3398437 0.8671875,0.5273437 0,0.058594 -0.023437,0.140625 -0.046875,0.1992188 l -1.5,4.6054687 -1.59375,-4.8867187 c 0,-0.035156 -0.023437,-0.09375 -0.023437,-0.1523438 0,-0.2929687 0.5742187,-0.2929687 0.8320312,-0.2929687 v -0.3164063 c -0.3515625,0.035156 -1.03125,0.035156 -1.40625,0.035156 -0.3867187,0 -0.8085937,-0.023437 -1.21875,-0.035156 v 0.3164063 c 0.5625,0 0.7734375,0 0.890625,0.3515625 l 0.2226563,0.703125 -1.3828125,4.2773437 -1.6054688,-4.9101562 c -0.011719,-0.023437 -0.023437,-0.09375 -0.023437,-0.1289063 0,-0.2929687 0.5859375,-0.2929687 0.84375,-0.2929687 v -0.3164063 c -0.3632812,0.035156 -1.0429687,0.035156 -1.4179687,0.035156 -0.375,0 -0.80859379,-0.023437 -1.21875004,-0.035156 v 0.3164063 c 0.75,0 0.78515625,0.046875 0.91406254,0.4101562 l 1.9921875,6.11718753 c 0.023437,0.08203125 0.058594,0.1875 0.1875,0.1875 0.140625,0 0.1523437,-0.0703125 0.1992187,-0.19921875 l 1.640625,-5.06249998 1.6523438,5.07421873 c 0.035156,0.08203125 0.058594,0.1875 0.1875,0.1875 0.140625,0 0.1640625,-0.0703125 0.1992187,-0.19921875 z m 2.9384769,1.4179688 -1.394532,0.1171875 v 0.3046875 c 0.65625,0 0.738282,0.058594 0.738282,0.5507812 v 2.67187503 c 0,0.45703125 -0.105469,0.45703125 -0.773438,0.45703125 V 9.84375e-4 c 0.316406,-0.011718745 0.855469,-0.035156245 1.101563,-0.035156245 0.339843,0 0.691406,0.0234375 1.03125,0.035156245 V -0.30370312 c -0.65625,0 -0.703125,-0.0585938 -0.703125,-0.4453125 z m 0.04687,-1.734375 c 0,-0.3164063 -0.246094,-0.5273438 -0.527344,-0.5273438 -0.316406,0 -0.527344,0.2695313 -0.527344,0.5273438 0,0.2695312 0.210938,0.5273437 0.527344,0.5273437 0.28125,0 0.527344,-0.1992187 0.527344,-0.5273437 z m 2.721679,-0.7734375 -1.429687,0.1054687 v 0.3164063 c 0.703125,0 0.773437,0.070312 0.773437,0.5507812 v 5.17968753 c 0,0.45703125 -0.105468,0.45703125 -0.773437,0.45703125 V 9.84375e-4 c 0.328125,-0.011718745 0.855469,-0.035156245 1.101562,-0.035156245 0.257813,0 0.738282,0.0234375 1.113282,0.035156245 V -0.30370312 c -0.667969,0 -0.785157,0 -0.785157,-0.45703125 z m 4.795899,6.36328123 v 0.65625 L 21.026188,9.84375e-4 V -0.30370312 c -0.703125,0 -0.773438,-0.0703125 -0.773438,-0.5625 V -6.9130781 l -1.441406,0.1054687 v 0.3164063 c 0.703125,0 0.785156,0.070312 0.785156,0.5507812 v 2.15625 c -0.292969,-0.3632812 -0.726562,-0.6210937 -1.265625,-0.6210937 -1.171875,0 -2.214844,0.984375 -2.214844,2.2617187 0,1.26562503 0.972657,2.25000003 2.109375,2.25000003 0.644532,0 1.089844,-0.33984375 1.335938,-0.65625 z m 0,-2.67187503 v 2.0507813 c 0,0.17578123 0,0.19921873 -0.105469,0.36328123 -0.304687,0.48046875 -0.75,0.703125 -1.183594,0.703125 -0.445312,0 -0.796875,-0.2578125 -1.042968,-0.64453125 C 16.9715,-1.1591719 16.936344,-1.7216719 16.936344,-2.1318281 c 0,-0.3632813 0.02344,-0.9609375 0.316406,-1.4179688 0.210938,-0.3046875 0.585938,-0.6328125 1.125,-0.6328125 0.351563,0 0.761719,0.1523438 1.078125,0.5976563 0.105469,0.1640625 0.105469,0.1875 0.105469,0.3632812 z m 0,0"
       style="fill:#ffffff;fill-opacity:1;fill-rule:nonzero;stroke:none"
       aria-label="Wild"
       transform="matrix(1.3333333,0,0,1.3333333,87.121333,269.444)" />
    <path
       id="path6"
       d="M 0,141.73404 H 141.73404"
       style="fill:none;stroke:#000000;stroke-width:0.3985;stroke-linecap:butt;stroke-linejoin:miter;stroke-miterlimit:10;stroke-dasharray:none;stroke-opacity:1"
       transform="matrix(1.3333333,0,0,-1.3333333,25.736,189.24133)" />
  </g>
</svg>
