<?xml version="1.0" encoding="UTF-8" standalone="no"?>
<!-- Created with Inkscape (http://www.inkscape.org/) -->

<svg
   version="1.1"
   id="svg1"
   width="89.317329"
   height="124.60267"
   viewBox="0 0 89.317329 124.60267"
   xmlns="http://www.w3.org/2000/svg"
   xmlns:svg="http://www.w3.org/2000/svg">
  <defs
     id="defs1" />
  <g
     id="g1">
    <path
       id="path1"
       d="m 4.7474531,-6.0689609 c 0.082031,-0.1171875 0.082031,-0.140625 0.082031,-0.3398438 H 2.4154219 c -1.21875,0 -1.2421875,-0.1289062 -1.2773438,-0.328125 H 0.89198438 l -0.328125,2.0507813 h 0.24609375 c 0.0234375,-0.1523438 0.1171875,-0.7851563 0.24609377,-0.9023438 0.070312,-0.058594 0.84375,-0.058594 0.9726562,-0.058594 h 2.0625 c -0.1054687,0.1640625 -0.890625,1.2421875 -1.1132812,1.5703125 -0.890625,1.3476562 -1.21875,2.7304687 -1.21875,3.74999996 0,0.09375 0,0.55078125 0.4570312,0.55078125 0.4570313,0 0.4570313,-0.45703125 0.4570313,-0.55078125 v -0.50390625 c 0,-0.55078121 0.023437,-1.10156251 0.1054687,-1.64062501 0.046875,-0.2226562 0.1757813,-1.078125 0.6210938,-1.6992187 z m 0,0"
       style="fill:#ffffff;fill-opacity:1;fill-rule:nonzero;stroke:none"
       aria-label="7"
       transform="matrix(1.3333333,0,0,1.3333333,5.756,85.478667)" />
    <path
       id="path2"
       d="m 2.9310469,-1.6409297 v 0.86718751 c 0,0.3515625 -0.023437,0.46875 -0.7617188,0.46875 H 1.9583906 V -3.046875e-4 C 2.3685469,-0.03546094 2.8958906,-0.03546094 3.3060469,-0.03546094 c 0.421875,0 0.9492187,0 1.359375,0.0351562525 V -0.30499219 H 4.4544844 c -0.7382813,0 -0.7617188,-0.1171875 -0.7617188,-0.46875 V -1.6409297 H 4.6888594 V -1.9573359 H 3.6927656 v -4.5234375 c 0,-0.1992188 0,-0.2578125 -0.1523437,-0.2578125 -0.09375,0 -0.1171875,0 -0.1992188,0.1171875 l -3.05859372,4.6640625 v 0.3164062 z m 0.058594,-0.3164062 H 0.56385938 L 2.9896406,-5.6721797 Z m 0,0"
       style="fill:#ffffff;fill-opacity:1;fill-rule:nonzero;stroke:none"
       aria-label="4"
       transform="matrix(1.3333333,0,0,1.3333333,5.756,47.684)" />
    <path
       id="path3"
       d="m 2.9310469,-6.3759609 c 0,-0.234375 0,-0.2578125 -0.234375,-0.2578125 -0.609375,0.6328125 -1.4882813,0.6328125 -1.80468752,0.6328125 v 0.3164062 c 0.19921872,0 0.78515622,0 1.30078122,-0.2578125 v 5.15625001 c 0,0.3515625 -0.035156,0.48046875 -0.9257812,0.48046875 H 0.95057813 V -9.609375e-4 C 1.3021406,-0.03611719 2.1576094,-0.03611719 2.5560469,-0.03611719 c 0.3984375,0 1.265625,0 1.6171875,0.0351562525 V -0.30564844 H 3.8568281 c -0.9023437,0 -0.9257812,-0.1171875 -0.9257812,-0.48046875 z m 0,0"
       style="fill:#ffffff;fill-opacity:1;fill-rule:nonzero;stroke:none"
       aria-label="1"
       transform="matrix(1.3333333,0,0,1.3333333,5.756,9.888)" />
    <path
       id="path4"
       d="m 1.3115859,-3.2681797 v -0.234375 c 0,-2.5195312 1.2421875,-2.8828125 1.7460938,-2.8828125 0.234375,0 0.65625,0.058594 0.8789062,0.3984375 -0.1523437,0 -0.5507812,0 -0.5507812,0.4453125 0,0.3164063 0.234375,0.4570313 0.4570312,0.4570313 0.1640625,0 0.4570313,-0.082031 0.4570313,-0.46875 0,-0.5976563 -0.4335938,-1.078125 -1.265625,-1.078125 -1.2773438,0 -2.61328126,1.2890625 -2.61328126,3.4804687 0,2.66015626 1.14843746,3.37500001 2.07421876,3.37500001 1.1132812,0 2.0507812,-0.9375 2.0507812,-2.25000001 0,-1.265625 -0.8789062,-2.2265625 -1.9921875,-2.2265625 -0.6679687,0 -1.0429687,0.5039063 -1.2421875,0.984375 z m 1.1835938,3.21093751 c -0.6210938,0 -0.9257813,-0.59765625 -0.984375,-0.75 C 1.3350234,-1.2759922 1.3350234,-2.0728672 1.3350234,-2.2486484 c 0,-0.7734375 0.3164063,-1.7695313 1.21875,-1.7695313 0.1523438,0 0.609375,0 0.9257813,0.609375 0.1757812,0.375 0.1757812,0.8789063 0.1757812,1.3710938 0,0.4804687 0,0.9726562 -0.1640625,1.33593746 -0.3046875,0.59765625 -0.7617187,0.64453125 -0.9960937,0.64453125 z m 0,0"
       style="fill:#ffffff;fill-opacity:1;fill-rule:nonzero;stroke:none"
       aria-label="6"
       transform="matrix(1.3333333,0,0,1.3333333,43.552,85.478667)" />
    <path
       id="path5"
       d="m 2.8936172,-3.5042109 c 0.8085937,-0.2695313 1.3945312,-0.9726563 1.3945312,-1.7578125 0,-0.8203125 -0.8789062,-1.3710938 -1.8398437,-1.3710938 -1.0078125,0 -1.75781251,0.5976563 -1.75781251,1.3476563 0,0.3398437 0.2109375,0.5273437 0.50390621,0.5273437 0.3046875,0 0.5039063,-0.2226562 0.5039063,-0.515625 0,-0.4921875 -0.46875,-0.4921875 -0.609375,-0.4921875 0.3046875,-0.4921875 0.9609375,-0.6210937 1.3242187,-0.6210937 0.4101563,0 0.9492188,0.2226562 0.9492188,1.1132812 0,0.1289063 -0.011719,0.703125 -0.2695313,1.1367188 -0.3046875,0.4804687 -0.6445312,0.515625 -0.890625,0.515625 -0.082031,0.011719 -0.3164062,0.035156 -0.3867187,0.035156 -0.082031,0.011719 -0.1523438,0.023437 -0.1523438,0.1171875 0,0.1171875 0.070312,0.1171875 0.234375,0.1171875 h 0.4453125 c 0.8085938,0 1.1835938,0.6679688 1.1835938,1.6523438 0,1.34765621 -0.6914063,1.64062496 -1.125,1.64062496 -0.4335938,0 -1.171875,-0.17578125 -1.52343751,-0.76171875 0.35156251,0.0585938 0.65625001,-0.1640625 0.65625001,-0.53906251 0,-0.3632812 -0.2695313,-0.5625 -0.56250001,-0.5625 -0.234375,0 -0.55078125,0.140625 -0.55078125,0.5742188 0,0.91406246 0.92578126,1.57031246 2.00390626,1.57031246 1.21875,0 2.1210937,-0.9140625 2.1210937,-1.92187496 0,-0.8203125 -0.6210937,-1.59375 -1.6523437,-1.8046873 z m 0,0"
       style="fill:#ffffff;fill-opacity:1;fill-rule:nonzero;stroke:none"
       aria-label="3"
       transform="matrix(1.3333333,0,0,1.3333333,43.552,47.684)" />
    <path
       id="path6"
       d="m 4.5811172,-3.1884609 c 0,-0.796875 -0.046875,-1.59375 -0.3984375,-2.3320313 -0.4570313,-0.9609375 -1.2773438,-1.1132812 -1.6875,-1.1132812 -0.5976563,0 -1.3359375,0.2578125 -1.73437501,1.1835937 -0.328125,0.6914063 -0.375,1.4648438 -0.375,2.2617188 0,0.75 0.046875,1.640625 0.4453125,2.40234371 0.43359371,0.80859375 1.16015621,1.0078125 1.65234371,1.0078125 0.5390625,0 1.2890625,-0.2109375 1.734375,-1.16015625 C 4.5342422,-1.6298672 4.5811172,-2.4033047 4.5811172,-3.1884609 Z M 2.4834609,-9.609375e-4 c -0.3867187,0 -0.984375,-0.2460937525 -1.1601562,-1.2070312625 -0.1054688,-0.5976562 -0.1054688,-1.5117187 -0.1054688,-2.0976562 0,-0.6445313 0,-1.3007813 0.082031,-1.8398438 0.1875,-1.1835937 0.9257812,-1.265625 1.1835937,-1.265625 0.328125,0 0.984375,0.1757813 1.171875,1.1601563 0.09375,0.5625 0.09375,1.3125 0.09375,1.9453125 0,0.75 0,1.4179687 -0.1054687,2.0625 -0.1523438,0.93749996 -0.7148438,1.2421874625 -1.160156,1.2421874625 z m 0,0"
       style="fill:#ffffff;fill-opacity:1;fill-rule:nonzero;stroke:none"
       aria-label="0"
       transform="matrix(1.3333333,0,0,1.3333333,43.552,9.888)" />
    <path
       id="path7"
       d="m 4.4773047,-2.0025547 c 0,-1.1835937 -0.8203125,-2.1796875 -1.8984375,-2.1796875 -0.4804688,0 -0.9023438,0.1640625 -1.265625,0.5039063 v -1.9335938 c 0.1992187,0.058594 0.5273437,0.1289063 0.84375,0.1289063 1.2304687,0 1.9335937,-0.9140625 1.9335937,-1.0429688 0,-0.058594 -0.035156,-0.1054687 -0.1054687,-0.1054687 -0.011719,0 -0.035156,0 -0.082031,0.023437 -0.1992187,0.09375 -0.6796875,0.2929687 -1.3476562,0.2929687 -0.3984375,0 -0.8554688,-0.070312 -1.3242188,-0.28125 -0.082031,-0.023437 -0.1054687,-0.023437 -0.1289062,-0.023437 -0.09375,0 -0.09375,0.082031 -0.09375,0.234375 v 2.953125 c 0,0.1757813 0,0.2578125 0.140625,0.2578125 0.070312,0 0.082031,-0.035156 0.1289062,-0.09375 0.1054688,-0.1523437 0.4804688,-0.6914062 1.2773438,-0.6914062 0.5273437,0 0.7734375,0.4570312 0.8554687,0.6328125 0.1523438,0.375 0.1757813,0.7617187 0.1757813,1.2539062 0,0.3515625 0,0.9492188 -0.234375,1.37109376 -0.2460938,0.38671875 -0.609375,0.64453125 -1.0664063,0.64453125 -0.7265625,0 -1.30078121,-0.52734375 -1.46484371,-1.11328121 0.0234375,0.011719 0.0585938,0.011719 0.1640625,0.011719 0.32812501,0 0.50390621,-0.2460937 0.50390621,-0.4804687 0,-0.2460938 -0.1757812,-0.4921875 -0.50390621,-0.4921875 -0.140625,0 -0.48046875,0.070312 -0.48046875,0.5273437 0,0.85546876 0.67968746,1.82812501 1.79296876,1.82812501 1.1601562,0 2.1796875,-0.9609375 2.1796872,-2.22656281 z m 0,0"
       style="fill:#ffffff;fill-opacity:1;fill-rule:nonzero;stroke:none"
       aria-label="5"
       transform="matrix(1.3333333,0,0,1.3333333,81.346667,85.478667)" />
    <path
       id="path8"
       d="m 2.8952734,-3.5042109 c 0.8085938,-0.2695313 1.3945313,-0.9726563 1.3945313,-1.7578125 0,-0.8203125 -0.8789063,-1.3710938 -1.8398438,-1.3710938 -1.0078125,0 -1.75781246,0.5976563 -1.75781246,1.3476563 0,0.3398437 0.2109375,0.5273437 0.50390626,0.5273437 0.3046875,0 0.5039062,-0.2226562 0.5039062,-0.515625 0,-0.4921875 -0.46875,-0.4921875 -0.609375,-0.4921875 0.3046875,-0.4921875 0.9609375,-0.6210937 1.3242188,-0.6210937 0.4101562,0 0.9492187,0.2226562 0.9492187,1.1132812 0,0.1289063 -0.011719,0.703125 -0.2695312,1.1367188 -0.3046875,0.4804687 -0.6445313,0.515625 -0.890625,0.515625 -0.082031,0.011719 -0.3164063,0.035156 -0.3867188,0.035156 -0.082031,0.011719 -0.1523437,0.023437 -0.1523437,0.1171875 0,0.1171875 0.070312,0.1171875 0.234375,0.1171875 h 0.4453125 c 0.8085937,0 1.1835937,0.6679688 1.1835937,1.6523438 0,1.34765621 -0.6914062,1.64062496 -1.125,1.64062496 -0.4335937,0 -1.171875,-0.17578125 -1.52343746,-0.76171875 0.35156246,0.0585938 0.65624996,-0.1640625 0.65624996,-0.53906251 0,-0.3632812 -0.2695312,-0.5625 -0.56249996,-0.5625 -0.234375,0 -0.55078125,0.140625 -0.55078125,0.5742188 0,0.91406246 0.92578121,1.57031246 2.00390621,1.57031246 1.21875,0 2.1210938,-0.9140625 2.1210938,-1.92187496 0,-0.8203125 -0.6210938,-1.59375 -1.6523438,-1.8046873 z m 0,0"
       style="fill:#ffffff;fill-opacity:1;fill-rule:nonzero;stroke:none"
       aria-label="3"
       transform="matrix(1.3333333,0,0,1.3333333,81.346667,47.684)" />
    <path
       id="path9"
       d="m 2.9304297,-6.3759609 c 0,-0.234375 0,-0.2578125 -0.234375,-0.2578125 -0.609375,0.6328125 -1.4882813,0.6328125 -1.80468751,0.6328125 v 0.3164062 c 0.19921871,0 0.78515621,0 1.30078121,-0.2578125 v 5.15625001 c 0,0.3515625 -0.035156,0.48046875 -0.9257812,0.48046875 H 0.94996094 V -9.609375e-4 C 1.3015234,-0.03611719 2.1569922,-0.03611719 2.5554297,-0.03611719 c 0.3984375,0 1.265625,0 1.6171875,0.0351562525 V -0.30564844 H 3.8562109 c -0.9023437,0 -0.9257812,-0.1171875 -0.9257812,-0.48046875 z m 0,0"
       style="fill:#ffffff;fill-opacity:1;fill-rule:nonzero;stroke:none"
       aria-label="1"
       transform="matrix(1.3333333,0,0,1.3333333,81.346667,9.888)" />
    <path
       id="path10"
       d="m 1.6279922,-4.5477969 c -0.46875,-0.3046875 -0.5039063,-0.6445312 -0.5039063,-0.8085937 0,-0.609375 0.6445313,-1.03125 1.359375,-1.03125 0.7265625,0 1.359375,0.515625 1.359375,1.2421875 0,0.5625 -0.3867187,1.0429687 -0.984375,1.3945312 z m 1.453125,0.9375 c 0.7148437,-0.3632812 1.2070312,-0.8789062 1.2070312,-1.5351562 0,-0.9257813 -0.890625,-1.4882813 -1.7929687,-1.4882813 -0.9960938,0 -1.80468751,0.7382813 -1.80468751,1.6640625 0,0.1757813 0.0117188,0.6210938 0.43359371,1.0898438 0.1054688,0.1289062 0.4804688,0.375 0.7265625,0.5390625 -0.5742187,0.2929687 -1.42968746,0.84375 -1.42968746,1.8398437 0,1.05468753 1.00781246,1.72265628 2.06249996,1.72265628 1.125,0 2.0625,-0.83203125 2.0625,-1.89843748 0,-0.3515625 -0.1054687,-0.8085938 -0.4804687,-1.21875 -0.1875,-0.2109375 -0.3515625,-0.3164063 -0.984375,-0.7148438 z m -0.9960938,0.421875 1.21875,0.7734375 c 0.28125,0.1875 0.75,0.4921875 0.75,1.1015625 0,0.73828128 -0.75,1.25390628 -1.5585937,1.25390628 -0.8671875,0 -1.58203126,-0.62109375 -1.58203126,-1.44140628 0,-0.5859375 0.31640626,-1.21875 1.17187496,-1.6875 z m 0,0"
       style="fill:#ffffff;fill-opacity:1;fill-rule:nonzero;stroke:none"
       aria-label="8"
       transform="matrix(1.3333333,0,0,1.3333333,43.552,123.27467)" />
    <path
       id="path11"
       d="M 0,21.9485 V 9.4622"
       style="fill:none;stroke:#ffffff;stroke-width:0.3985;stroke-linecap:butt;stroke-linejoin:miter;stroke-miterlimit:10;stroke-dasharray:none;stroke-opacity:1"
       transform="matrix(1.3333333,0,0,-1.3333333,9.0773333,81.198667)" />
    <path
       id="path12"
       d="M 4.21463,0 0.64343,1.34572 1.8178,0 0.64343,-1.34572 Z"
       style="fill:#ffffff;fill-opacity:1;fill-rule:nonzero;stroke:#ffffff;stroke-width:0.3985;stroke-linecap:butt;stroke-linejoin:miter;stroke-miterlimit:10;stroke-dasharray:none;stroke-opacity:1"
       transform="matrix(0,1.3333333,1.3333333,0,9.0773333,66.29148)" />
    <path
       id="path13"
       d="M 0,50.29532 V 37.80902"
       style="fill:none;stroke:#ffffff;stroke-width:0.3985;stroke-linecap:butt;stroke-linejoin:miter;stroke-miterlimit:10;stroke-dasharray:none;stroke-opacity:1"
       transform="matrix(1.3333333,0,0,-1.3333333,9.0773333,81.198667)" />
    <path
       id="path14"
       d="M 4.21463,0 0.64343,1.34572 1.8178,0 0.64343,-1.34572 Z"
       style="fill:#ffffff;fill-opacity:1;fill-rule:nonzero;stroke:#ffffff;stroke-width:0.3985;stroke-linecap:butt;stroke-linejoin:miter;stroke-miterlimit:10;stroke-dasharray:none;stroke-opacity:1"
       transform="matrix(0,1.3333333,1.3333333,0,9.0773333,28.495733)" />
    <path
       id="path15"
       d="M 5.09511,-5.0944 21.08534,-21.0856"
       style="fill:none;stroke:#ffffff;stroke-width:0.3985;stroke-linecap:butt;stroke-linejoin:miter;stroke-miterlimit:10;stroke-dasharray:none;stroke-opacity:1"
       transform="matrix(1.3333333,0,0,-1.3333333,9.0773333,81.198667)" />
    <path
       id="path16"
       d="M 4.21463,0 0.64343,1.34572 1.8178,0 0.64343,-1.34572 Z"
       style="fill:#ffffff;fill-opacity:1;fill-rule:nonzero;stroke:#ffffff;stroke-width:0.3985;stroke-linecap:butt;stroke-linejoin:miter;stroke-miterlimit:10;stroke-dasharray:none;stroke-opacity:1"
       transform="matrix(0.94274667,0.94282667,0.94282667,-0.94274667,35.571307,107.69285)" />
    <path
       id="path17"
       d="M 28.3468,21.9485 V 9.4622"
       style="fill:none;stroke:#ffffff;stroke-width:0.3985;stroke-linecap:butt;stroke-linejoin:miter;stroke-miterlimit:10;stroke-dasharray:none;stroke-opacity:1"
       transform="matrix(1.3333333,0,0,-1.3333333,9.0773333,81.198667)" />
    <path
       id="path18"
       d="M 4.21463,0 0.64343,1.34572 1.8178,0 0.64343,-1.34572 Z"
       style="fill:#ffffff;fill-opacity:1;fill-rule:nonzero;stroke:#ffffff;stroke-width:0.3985;stroke-linecap:butt;stroke-linejoin:miter;stroke-miterlimit:10;stroke-dasharray:none;stroke-opacity:1"
       transform="matrix(0,1.3333333,1.3333333,0,46.873067,66.29148)" />
    <path
       id="path19"
       d="M 28.3468,50.29532 V 37.80902"
       style="fill:none;stroke:#ffffff;stroke-width:0.3985;stroke-linecap:butt;stroke-linejoin:miter;stroke-miterlimit:10;stroke-dasharray:none;stroke-opacity:1"
       transform="matrix(1.3333333,0,0,-1.3333333,9.0773333,81.198667)" />
    <path
       id="path20"
       d="M 4.21463,0 0.64343,1.34572 1.8178,0 0.64343,-1.34572 Z"
       style="fill:#ffffff;fill-opacity:1;fill-rule:nonzero;stroke:#ffffff;stroke-width:0.3985;stroke-linecap:butt;stroke-linejoin:miter;stroke-miterlimit:10;stroke-dasharray:none;stroke-opacity:1"
       transform="matrix(0,1.3333333,1.3333333,0,46.873067,28.495733)" />
    <path
       id="path21"
       d="m 28.3468,-6.39828 v -12.4863"
       style="fill:none;stroke:#ffffff;stroke-width:0.3985;stroke-linecap:butt;stroke-linejoin:miter;stroke-miterlimit:10;stroke-dasharray:none;stroke-opacity:1"
       transform="matrix(1.3333333,0,0,-1.3333333,9.0773333,81.198667)" />
    <path
       id="path22"
       d="M 4.21463,0 0.64343,1.34572 1.8178,0 0.64343,-1.34572 Z"
       style="fill:#ffffff;fill-opacity:1;fill-rule:nonzero;stroke:#ffffff;stroke-width:0.3985;stroke-linecap:butt;stroke-linejoin:miter;stroke-miterlimit:10;stroke-dasharray:none;stroke-opacity:1"
       transform="matrix(0,1.3333333,1.3333333,0,46.873067,104.0872)" />
    <path
       id="path23"
       d="M 56.69362,21.9485 V 9.4622"
       style="fill:none;stroke:#ffffff;stroke-width:0.3985;stroke-linecap:butt;stroke-linejoin:miter;stroke-miterlimit:10;stroke-dasharray:none;stroke-opacity:1"
       transform="matrix(1.3333333,0,0,-1.3333333,9.0773333,81.198667)" />
    <path
       id="path24"
       d="M 4.21463,0 0.64343,1.34572 1.8178,0 0.64343,-1.34572 Z"
       style="fill:#ffffff;fill-opacity:1;fill-rule:nonzero;stroke:#ffffff;stroke-width:0.3985;stroke-linecap:butt;stroke-linejoin:miter;stroke-miterlimit:10;stroke-dasharray:none;stroke-opacity:1"
       transform="matrix(0,1.3333333,1.3333333,0,84.668827,66.29148)" />
    <path
       id="path25"
       d="M 56.69362,50.29532 V 37.80902"
       style="fill:none;stroke:#ffffff;stroke-width:0.3985;stroke-linecap:butt;stroke-linejoin:miter;stroke-miterlimit:10;stroke-dasharray:none;stroke-opacity:1"
       transform="matrix(1.3333333,0,0,-1.3333333,9.0773333,81.198667)" />
    <path
       id="path26"
       d="M 4.21463,0 0.64343,1.34572 1.8178,0 0.64343,-1.34572 Z"
       style="fill:#ffffff;fill-opacity:1;fill-rule:nonzero;stroke:#ffffff;stroke-width:0.3985;stroke-linecap:butt;stroke-linejoin:miter;stroke-miterlimit:10;stroke-dasharray:none;stroke-opacity:1"
       transform="matrix(0,1.3333333,1.3333333,0,84.668827,28.495733)" />
    <path
       id="path27"
       d="M 51.5985,-5.0944 35.60826,-21.0856"
       style="fill:none;stroke:#ffffff;stroke-width:0.3985;stroke-linecap:butt;stroke-linejoin:miter;stroke-miterlimit:10;stroke-dasharray:none;stroke-opacity:1"
       transform="matrix(1.3333333,0,0,-1.3333333,9.0773333,81.198667)" />
    <path
       id="path28"
       d="M 4.21463,0 0.64343,1.34572 1.8178,0 0.64343,-1.34572 Z"
       style="fill:#ffffff;fill-opacity:1;fill-rule:nonzero;stroke:#ffffff;stroke-width:0.3985;stroke-linecap:butt;stroke-linejoin:miter;stroke-miterlimit:10;stroke-dasharray:none;stroke-opacity:1"
       transform="matrix(-0.94274667,0.94282667,0.94282667,0.94274667,58.174827,107.69285)" />
    <path
       id="path29"
       d="M 3.09279,50.5058 23.88396,8.92805"
       style="fill:none;stroke:#ffffff;stroke-width:0.3985;stroke-linecap:butt;stroke-linejoin:miter;stroke-miterlimit:10;stroke-dasharray:none;stroke-opacity:1"
       transform="matrix(1.3333333,0,0,-1.3333333,9.0773333,81.198667)" />
    <path
       id="path30"
       d="M 4.21463,0 0.64343,1.34572 1.8178,0 0.64343,-1.34572 Z"
       style="fill:#ffffff;fill-opacity:1;fill-rule:nonzero;stroke:#ffffff;stroke-width:0.3985;stroke-linecap:butt;stroke-linejoin:miter;stroke-miterlimit:10;stroke-dasharray:none;stroke-opacity:1"
       transform="matrix(0.59626667,1.19248,1.19248,-0.59626667,39.898093,67.24568)" />
    <path
       id="path31"
       d="M 31.4396,50.5058 52.23077,8.92805"
       style="fill:none;stroke:#ffffff;stroke-width:0.3985;stroke-linecap:butt;stroke-linejoin:miter;stroke-miterlimit:10;stroke-dasharray:none;stroke-opacity:1"
       transform="matrix(1.3333333,0,0,-1.3333333,9.0773333,81.198667)" />
    <path
       id="path32"
       d="M 4.21463,0 0.64343,1.34572 1.8178,0 0.64343,-1.34572 Z"
       style="fill:#ffffff;fill-opacity:1;fill-rule:nonzero;stroke:#ffffff;stroke-width:0.3985;stroke-linecap:butt;stroke-linejoin:miter;stroke-miterlimit:10;stroke-dasharray:none;stroke-opacity:1"
       transform="matrix(0.59626667,1.19248,1.19248,-0.59626667,77.693853,67.24568)" />
    <path
       id="path33"
       d="M 51.37279,52.97354 C 30.45486,38.39398 18.90106,26.8899 5.9936,8.54128"
       style="fill:none;stroke:#ffffff;stroke-width:0.3985;stroke-linecap:butt;stroke-linejoin:miter;stroke-miterlimit:10;stroke-dasharray:0.3985, 1.99255;stroke-dashoffset:0;stroke-opacity:1"
       transform="matrix(1.3333333,0,0,-1.3333333,9.0773333,81.198667)" />
    <path
       id="path34"
       d="M 4.21463,0 0.64343,1.34572 1.8178,0 0.64343,-1.34572 Z"
       style="fill:#ffffff;fill-opacity:1;fill-rule:nonzero;stroke:#ffffff;stroke-width:0.3985;stroke-linecap:butt;stroke-linejoin:miter;stroke-miterlimit:10;stroke-dasharray:none;stroke-opacity:1"
       transform="matrix(-0.76709333,1.0904933,1.0904933,0.76709333,18.3868,67.93664)" />
  </g>
</svg>
