<?xml version="1.0" encoding="UTF-8" standalone="no"?>
<!-- Created with Inkscape (http://www.inkscape.org/) -->

<svg
   version="1.1"
   id="svg1"
   width="558.17731"
   height="84.213333"
   viewBox="0 0 558.17731 84.213333"
   xmlns="http://www.w3.org/2000/svg"
   xmlns:svg="http://www.w3.org/2000/svg">
  <defs
     id="defs1" />
  <g
     id="g1">
    <path
       id="path1"
       d="m 7.08669,0 28.3468,28.3468"
       style="fill:none;stroke:#ffffff;stroke-width:0.79701;stroke-linecap:butt;stroke-linejoin:miter;stroke-miterlimit:10;stroke-dasharray:none;stroke-opacity:1"
       transform="matrix(1.3333333,0,0,-1.3333333,4.3666667,42.106667)" />
    <path
       id="path2"
       d="m 7.08669,0 28.3468,-28.3468"
       style="fill:none;stroke:#ffffff;stroke-width:0.79701;stroke-linecap:butt;stroke-linejoin:miter;stroke-miterlimit:10;stroke-dasharray:none;stroke-opacity:1"
       transform="matrix(1.3333333,0,0,-1.3333333,4.3666667,42.106667)" />
    <path
       id="path3"
       d="M 35.43349,28.3468 H 77.95372"
       style="fill:none;stroke:#ffffff;stroke-width:0.79701;stroke-linecap:butt;stroke-linejoin:miter;stroke-miterlimit:10;stroke-dasharray:none;stroke-opacity:1"
       transform="matrix(1.3333333,0,0,-1.3333333,4.3666667,42.106667)" />
    <path
       id="path4"
       d="M 35.43349,-28.3468 H 77.95372"
       style="fill:none;stroke:#ffffff;stroke-width:0.79701;stroke-linecap:butt;stroke-linejoin:miter;stroke-miterlimit:10;stroke-dasharray:none;stroke-opacity:1"
       transform="matrix(1.3333333,0,0,-1.3333333,4.3666667,42.106667)" />
    <g
       id="g4"
       aria-label="P&#10;0"
       transform="matrix(1.3333333,0,0,1.3333333,72.357333,45.649333)">
      <path
         id="path5"
         d="m 3.4673516,-6.8092656 c -1.40625,0 -2.47265629,0.6796875 -2.88281254,1.1484375 -0.3515625,0.3984375 -0.375,0.6914062 -0.375,0.7148437 0,0.058594 0.0351563,0.070312 0.09375,0.070312 0.1640625,0 0.3984375,-0.140625 0.46875,-0.1875 0.2109375,-0.140625 0.24609374,-0.1992187 0.30468754,-0.3867187 0.140625,-0.3984375 0.421875,-0.75 1.6757812,-0.8085938 -0.1875,2.2382813 -0.7851562,4.4296875 -1.6171875,6.50390627 -0.058594,0.15234375 -0.058594,0.17578125 -0.058594,0.1875 0,0.0234375 0.023437,0.0703125 0.09375,0.0703125 0.1640625,0 0.6445312,-0.22265625 0.75,-0.48046875 0.515625,-1.21875002 1.3359375,-3.51562502 1.6289062,-6.28125002 h 0.5273438 c 1.2070312,0 2.3789062,0.46875 2.3789062,1.4648438 0,0.75 -0.7148437,2.1445312 -2.6484375,2.203125 -0.2109375,0.011719 -0.3164062,0.011719 -0.5976562,0.1875 -0.1875,0.1171875 -0.2578125,0.234375 -0.2578125,0.2929687 0,0.070312 0.058594,0.070312 0.1875,0.070312 1.8046875,0 4.1601562,-1.5351562 4.1601562,-3.1757812 0,-1.1367188 -1.3476562,-1.59375 -2.4960937,-1.59375 z m 0,0"
         style="fill:#ffffff;fill-opacity:1;fill-rule:nonzero;stroke:none" />
      <path
         id="path6"
         d="m 10.527898,-0.73309375 c 0,-0.76171875 -0.09375,-1.31250005 -0.410156,-1.80468755 -0.2226561,-0.3164062 -0.6445311,-0.5976562 -1.2070311,-0.5976562 -1.6171875,0 -1.6171875,1.8984375 -1.6171875,2.40234375 0,0.50390625 0,2.36718745 1.6171875,2.36718745 1.6171871,0 1.6171871,-1.8632812 1.6171871,-2.36718745 z M 8.9107109,1.434875 c -0.3164062,0 -0.75,-0.1875 -0.890625,-0.76171875 -0.09375,-0.41015625 -0.09375,-0.984375 -0.09375,-1.5 0,-0.50390625 0,-1.03125005 0.1054688,-1.41796875 0.1523437,-0.5507813 0.5976562,-0.6914063 0.8789062,-0.6914063 0.375,0 0.7382813,0.2226563 0.8671875,0.6328125 0.1054688,0.375 0.1171875,0.8789063 0.1171875,1.47656255 0,0.515625 0,1.04296875 -0.09375,1.4765625 C 9.6607109,1.2825312 9.1919609,1.434875 8.9107109,1.434875 Z m 0,0"
         style="fill:#ffffff;fill-opacity:1;fill-rule:nonzero;stroke:none" />
    </g>
    <path
       id="path7"
       d="m 1.9099922,-0.52689844 c 0,-0.29296875 -0.234375,-0.52734376 -0.5273438,-0.52734376 -0.28125,0 -0.52734371,0.23437501 -0.52734371,0.52734376 0,0.29296875 0.24609371,0.5273437525 0.52734371,0.5273437525 0.2929688,0 0.5273438,-0.2343750025 0.5273438,-0.5273437525 z m 4.4326172,0 c 0,-0.29296875 -0.234375,-0.52734376 -0.5273438,-0.52734376 -0.28125,0 -0.5273437,0.23437501 -0.5273437,0.52734376 0,0.29296875 0.2460937,0.5273437525 0.5273437,0.5273437525 0.2929688,0 0.5273438,-0.2343750025 0.5273438,-0.5273437525 z m 4.4208986,0 c 0,-0.29296875 -0.234375,-0.52734376 -0.527344,-0.52734376 -0.2812499,0 -0.5273437,0.23437501 -0.5273437,0.52734376 0,0.29296875 0.2460938,0.5273437525 0.5273437,0.5273437525 0.292969,0 0.527344,-0.2343750025 0.527344,-0.5273437525 z m 0,0"
       style="fill:#ffffff;fill-opacity:1;fill-rule:nonzero;stroke:none"
       aria-label="..."
       transform="matrix(1.3333333,0,0,1.3333333,112.676,42.808)" />
    <path
       id="path8"
       d="m 333.075,28.3468 h 56.69363 l 6.29904,-6.29948 6.29949,-6.29949 -6.29949,-6.29905 6.29949,-6.29949 6.29904,-6.29858 -6.29904,-6.29949 6.29904,-6.29905 6.29948,-6.29949 -6.29948,-6.29948 H 333.075"
       style="fill:none;stroke:#ffffff;stroke-width:0.79701;stroke-linecap:butt;stroke-linejoin:miter;stroke-miterlimit:10;stroke-dasharray:none;stroke-opacity:1"
       transform="matrix(1.3333333,0,0,-1.3333333,4.3666667,42.106667)" />
    <g
       id="g8"
       aria-label="Q&#10;∞"
       transform="matrix(1.3333333,0,0,1.3333333,475.204,45.649333)">
      <path
         id="path9"
         d="m 2.2259063,-0.28192188 c -0.1992188,0 -0.3046875,0 -0.5507813,0.15234375 -0.082031,0.046875 -0.3164062,0.2109375 -0.3164062,0.328125 0,0.0703125 0.046875,0.0703125 0.09375,0.0703125 0.6679687,0.0351563 1.078125,0.1171875 2.0742187,0.46875 0.6914063,0.24609375 1.3945313,0.49218753 2.1796875,0.49218753 1.171875,0 2.1328125,-1.01953128 2.1328125,-1.42968753 0,-0.046875 -0.035156,-0.0820313 -0.09375,-0.0820313 -0.09375,0 -0.3046875,0.0820313 -0.46875,0.1875 -0.2226562,0.15234375 -0.2460937,0.22265625 -0.2929687,0.3515625 -0.140625,0.3984375 -0.3515625,0.43359375 -0.6210938,0.43359375 -0.65625,0 -1.1015625,-0.1640625 -2.5429687,-0.65625 C 5.5423125,-0.44598438 7.722,-2.1686406 7.722,-4.5709844 c 0,-1.359375 -0.7382812,-2.4492187 -2.203125,-2.4492187 -2.0273437,0 -4.3945312,2.0742187 -4.3945312,4.1484375 0,1.0546875 0.6328125,1.8515625 1.734375,1.8515625 1.0078125,0 2.1445312,-0.65625 2.1445312,-0.890625 0,-0.058594 -0.070312,-0.058594 -0.1171875,-0.058594 -0.140625,0 -0.3046875,0.09375 -0.4453125,0.1640625 -0.4101562,0.234375 -0.8203125,0.2460938 -0.9257812,0.2460938 -0.890625,0 -1.546875,-0.703125 -1.546875,-1.734375 0,-1.2421875 1.125,-3.1875 2.8945312,-3.1875 1.2539063,0 2.015625,0.9960937 2.015625,2.3320312 0,0.984375 -0.4101562,2.109375 -1.359375,2.9414063 -0.6445312,0.58593747 -1.3710937,0.92578122 -3.0117187,0.92578122 z m 0,0"
         style="fill:#ffffff;fill-opacity:1;fill-rule:nonzero;stroke:none" />
      <path
         id="path10"
         d="m 12.166336,-0.4166875 c -0.375,-0.43359375 -0.480469,-0.55078125 -0.75,-0.7382813 -0.421875,-0.3046875 -0.867188,-0.421875 -1.253906,-0.421875 -0.8671878,0 -1.4882816,0.7382813 -1.4882816,1.57031255 0,0.8203125 0.5976563,1.57031245 1.4648436,1.57031245 0.972656,0 1.652344,-0.79687495 1.898438,-1.1601562 0.375,0.421875 0.480468,0.55078125 0.75,0.7382812 0.421875,0.3046875 0.867187,0.421875 1.253906,0.421875 0.867187,0 1.488281,-0.7382812 1.488281,-1.5820312 0,-0.80859375 -0.597656,-1.5585938 -1.464844,-1.5585938 -0.972656,0 -1.652343,0.7851563 -1.898437,1.1601563 z m 0.222656,0.2578125 c 0.28125,-0.45703125 0.890625,-1.1601563 1.734375,-1.1601563 0.714844,0 1.21875,0.63281255 1.21875,1.3007813 0,0.6796875 -0.550781,1.1953125 -1.195312,1.1953125 -0.644532,0 -1.089844,-0.52734375 -1.757813,-1.3359375 z M 11.814773,0.1458125 C 11.533523,0.591125 10.935867,1.29425 10.080398,1.29425 c -0.7148433,0 -1.2187496,-0.6328125 -1.2187496,-1.30078125 0,-0.66796875 0.5507813,-1.19531255 1.1953126,-1.19531255 0.644531,0 1.089844,0.53906255 1.757812,1.3476563 z m 0,0"
         style="fill:#ffffff;fill-opacity:1;fill-rule:nonzero;stroke:none" />
    </g>
    <path
       id="path11"
       d="m 127.56062,28.3468 c 0,1.56566 -6.34555,2.83486 -14.17338,2.83486 -7.82785,0 -14.1734,-1.2692 -14.1734,-2.83486 0,-1.56566 6.34555,-2.83485 14.1734,-2.83485 7.82783,0 14.17338,1.26919 14.17338,2.83485 z"
       style="fill:none;stroke:#ffffff;stroke-width:0.79701;stroke-linecap:butt;stroke-linejoin:miter;stroke-miterlimit:10;stroke-dasharray:none;stroke-opacity:1"
       transform="matrix(1.3333333,0,0,-1.3333333,4.3666667,42.106667)" />
    <path
       id="path12"
       d="m 127.56062,-28.3468 c 0,-1.56566 -6.34555,-2.83486 -14.17338,-2.83486 -7.82785,0 -14.1734,1.2692 -14.1734,2.83486"
       style="fill:none;stroke:#ffffff;stroke-width:0.79701;stroke-linecap:butt;stroke-linejoin:miter;stroke-miterlimit:10;stroke-dasharray:none;stroke-opacity:1"
       transform="matrix(1.3333333,0,0,-1.3333333,4.3666667,42.106667)" />
    <path
       id="path13"
       d="M 127.56062,28.3468 V -28.3468"
       style="fill:none;stroke:#ffffff;stroke-width:0.79701;stroke-linecap:butt;stroke-linejoin:miter;stroke-miterlimit:10;stroke-dasharray:none;stroke-opacity:1"
       transform="matrix(1.3333333,0,0,-1.3333333,4.3666667,42.106667)" />
    <path
       id="path14"
       d="M 99.21384,28.3468 V -28.3468"
       style="fill:none;stroke:#ffffff;stroke-width:0.79701;stroke-linecap:butt;stroke-linejoin:miter;stroke-miterlimit:10;stroke-dasharray:none;stroke-opacity:1"
       transform="matrix(1.3333333,0,0,-1.3333333,4.3666667,42.106667)" />
    <g
       id="g14"
       aria-label="T&#10;0"
       transform="matrix(1.3333333,0,0,1.3333333,148.95067,45.649333)">
      <path
         id="path15"
         d="m 4.8387578,-6.1881719 h 1.6523438 c 1.3125,0 1.8164062,-0.75 1.8164062,-0.890625 0,-0.046875 -0.035156,-0.058594 -0.09375,-0.058594 -0.1054687,0 -0.3632812,0.09375 -0.609375,0.2695312 -0.082031,0.058594 -0.1054687,0.058594 -0.2929687,0.058594 h -4.359375 c -1.2304688,0 -2.61328129,1.0664062 -2.61328129,1.8867187 0,0.058594 0,0.1171875 0.0820313,0.1171875 0.234375,0 0.86718749,-0.328125 0.87890619,-0.5625 0.011719,-0.1757812 0.035156,-0.3632812 0.234375,-0.6210937 0.09375,-0.1171875 0.1757813,-0.1992188 0.6210938,-0.1992188 h 1.9804687 c -0.1757812,0.1054688 -0.2109375,0.2578125 -0.234375,0.3632813 L 2.7645391,-1.313172 c -0.1171875,0.48046877 -0.328125,1.11328127 -0.609375,1.75781252 -0.058594,0.1171875 -0.058594,0.140625 -0.058594,0.1640625 0,0.0585938 0.035156,0.0703125 0.082031,0.0703125 0.1992187,0 0.6914062,-0.26953125 0.84375,-0.48046875 0.058594,-0.09375 0.4921875,-1.11328125 0.703125,-1.94531247 z m 0,0"
         style="fill:#ffffff;fill-opacity:1;fill-rule:nonzero;stroke:none" />
      <path
         id="path16"
         d="m 9.0223516,-0.73309375 c 0,-0.76171875 -0.09375,-1.31250005 -0.4101563,-1.80468755 -0.2226562,-0.3164062 -0.6445312,-0.5976562 -1.2070312,-0.5976562 -1.6171875,0 -1.6171875,1.8984375 -1.6171875,2.40234375 0,0.50390625 0,2.36718745 1.6171875,2.36718745 1.6171875,0 1.6171875,-1.8632812 1.6171875,-2.36718745 z M 7.4051641,1.434875 c -0.3164063,0 -0.75,-0.1875 -0.890625,-0.76171875 -0.09375,-0.41015625 -0.09375,-0.984375 -0.09375,-1.5 0,-0.50390625 0,-1.03125005 0.1054687,-1.41796875 0.1523438,-0.5507813 0.5976563,-0.6914063 0.8789063,-0.6914063 0.375,0 0.7382812,0.2226563 0.8671875,0.6328125 0.1054687,0.375 0.1171875,0.8789063 0.1171875,1.47656255 0,0.515625 0,1.04296875 -0.09375,1.4765625 C 8.1551641,1.2825312 7.6864141,1.434875 7.4051641,1.434875 Z m 0,0"
         style="fill:#ffffff;fill-opacity:1;fill-rule:nonzero;stroke:none" />
    </g>
    <path
       id="path17"
       d="m 162.99413,28.3468 c 0,1.56566 -6.34556,2.83486 -14.17339,2.83486 -7.82785,0 -14.1734,-1.2692 -14.1734,-2.83486 0,-1.56566 6.34555,-2.83485 14.1734,-2.83485 7.82783,0 14.17339,1.26919 14.17339,2.83485 z"
       style="fill:none;stroke:#ffffff;stroke-width:0.79701;stroke-linecap:butt;stroke-linejoin:miter;stroke-miterlimit:10;stroke-dasharray:none;stroke-opacity:1"
       transform="matrix(1.3333333,0,0,-1.3333333,4.3666667,42.106667)" />
    <path
       id="path18"
       d="m 162.99413,-28.3468 c 0,-1.56566 -6.34556,-2.83486 -14.17339,-2.83486 -7.82785,0 -14.1734,1.2692 -14.1734,2.83486"
       style="fill:none;stroke:#ffffff;stroke-width:0.79701;stroke-linecap:butt;stroke-linejoin:miter;stroke-miterlimit:10;stroke-dasharray:none;stroke-opacity:1"
       transform="matrix(1.3333333,0,0,-1.3333333,4.3666667,42.106667)" />
    <path
       id="path19"
       d="M 162.99413,28.3468 V -28.3468"
       style="fill:none;stroke:#ffffff;stroke-width:0.79701;stroke-linecap:butt;stroke-linejoin:miter;stroke-miterlimit:10;stroke-dasharray:none;stroke-opacity:1"
       transform="matrix(1.3333333,0,0,-1.3333333,4.3666667,42.106667)" />
    <path
       id="path20"
       d="M 134.64734,28.3468 V -28.3468"
       style="fill:none;stroke:#ffffff;stroke-width:0.79701;stroke-linecap:butt;stroke-linejoin:miter;stroke-miterlimit:10;stroke-dasharray:none;stroke-opacity:1"
       transform="matrix(1.3333333,0,0,-1.3333333,4.3666667,42.106667)" />
    <path
       id="path21"
       d="m 198.42764,28.3468 c 0,1.56566 -6.34555,2.83486 -14.1734,2.83486 -7.82784,0 -14.17338,-1.2692 -14.17338,-2.83486 0,-1.56566 6.34554,-2.83485 14.17338,-2.83485 7.82785,0 14.1734,1.26919 14.1734,2.83485 z"
       style="fill:none;stroke:#ffffff;stroke-width:0.79701;stroke-linecap:butt;stroke-linejoin:miter;stroke-miterlimit:10;stroke-dasharray:none;stroke-opacity:1"
       transform="matrix(1.3333333,0,0,-1.3333333,4.3666667,42.106667)" />
    <path
       id="path22"
       d="m 198.42764,-28.3468 c 0,-1.56566 -6.34555,-2.83486 -14.1734,-2.83486 -7.82784,0 -14.17338,1.2692 -14.17338,2.83486"
       style="fill:none;stroke:#ffffff;stroke-width:0.79701;stroke-linecap:butt;stroke-linejoin:miter;stroke-miterlimit:10;stroke-dasharray:none;stroke-opacity:1"
       transform="matrix(1.3333333,0,0,-1.3333333,4.3666667,42.106667)" />
    <path
       id="path23"
       d="M 198.42764,28.3468 V -28.3468"
       style="fill:none;stroke:#ffffff;stroke-width:0.79701;stroke-linecap:butt;stroke-linejoin:miter;stroke-miterlimit:10;stroke-dasharray:none;stroke-opacity:1"
       transform="matrix(1.3333333,0,0,-1.3333333,4.3666667,42.106667)" />
    <path
       id="path24"
       d="M 170.08086,28.3468 V -28.3468"
       style="fill:none;stroke:#ffffff;stroke-width:0.79701;stroke-linecap:butt;stroke-linejoin:miter;stroke-miterlimit:10;stroke-dasharray:none;stroke-opacity:1"
       transform="matrix(1.3333333,0,0,-1.3333333,4.3666667,42.106667)" />
    <path
       id="path25"
       d="m 1.9106797,-0.52689844 c 0,-0.29296875 -0.234375,-0.52734376 -0.5273438,-0.52734376 -0.28125,0 -0.52734371,0.23437501 -0.52734371,0.52734376 0,0.29296875 0.24609371,0.5273437525 0.52734371,0.5273437525 0.2929688,0 0.5273438,-0.2343750025 0.5273438,-0.5273437525 z m 4.4296875,0 c 0,-0.29296875 -0.234375,-0.52734376 -0.5273438,-0.52734376 -0.28125,0 -0.5273437,0.23437501 -0.5273437,0.52734376 0,0.29296875 0.2460937,0.5273437525 0.5273437,0.5273437525 0.2929688,0 0.5273438,-0.2343750025 0.5273438,-0.5273437525 z m 4.4238278,0 c 0,-0.29296875 -0.234375,-0.52734376 -0.527343,-0.52734376 -0.2812504,0 -0.5273442,0.23437501 -0.5273442,0.52734376 0,0.29296875 0.2460938,0.5273437525 0.5273442,0.5273437525 0.292968,0 0.527343,-0.2343750025 0.527343,-0.5273437525 z m 0,0"
       style="fill:#ffffff;fill-opacity:1;fill-rule:nonzero;stroke:none"
       aria-label="..."
       transform="matrix(1.3333333,0,0,1.3333333,280.08133,42.808)" />
    <path
       id="path26"
       d="m 255.12126,28.3468 c 0,1.56566 -6.34555,2.83486 -14.17338,2.83486 -7.82785,0 -14.1734,-1.2692 -14.1734,-2.83486 0,-1.56566 6.34555,-2.83485 14.1734,-2.83485 7.82783,0 14.17338,1.26919 14.17338,2.83485 z"
       style="fill:none;stroke:#ffffff;stroke-width:0.79701;stroke-linecap:butt;stroke-linejoin:miter;stroke-miterlimit:10;stroke-dasharray:none;stroke-opacity:1"
       transform="matrix(1.3333333,0,0,-1.3333333,4.3666667,42.106667)" />
    <path
       id="path27"
       d="m 255.12126,-28.3468 c 0,-1.56566 -6.34555,-2.83486 -14.17338,-2.83486 -7.82785,0 -14.1734,1.2692 -14.1734,2.83486"
       style="fill:none;stroke:#ffffff;stroke-width:0.79701;stroke-linecap:butt;stroke-linejoin:miter;stroke-miterlimit:10;stroke-dasharray:none;stroke-opacity:1"
       transform="matrix(1.3333333,0,0,-1.3333333,4.3666667,42.106667)" />
    <path
       id="path28"
       d="M 255.12126,28.3468 V -28.3468"
       style="fill:none;stroke:#ffffff;stroke-width:0.79701;stroke-linecap:butt;stroke-linejoin:miter;stroke-miterlimit:10;stroke-dasharray:none;stroke-opacity:1"
       transform="matrix(1.3333333,0,0,-1.3333333,4.3666667,42.106667)" />
    <path
       id="path29"
       d="M 226.77448,28.3468 V -28.3468"
       style="fill:none;stroke:#ffffff;stroke-width:0.79701;stroke-linecap:butt;stroke-linejoin:miter;stroke-miterlimit:10;stroke-dasharray:none;stroke-opacity:1"
       transform="matrix(1.3333333,0,0,-1.3333333,4.3666667,42.106667)" />
    <g
       id="g29"
       aria-label="T&#10;q"
       transform="matrix(1.3333333,0,0,1.3333333,319.07467,44.745333)">
      <path
         id="path30"
         d="m 4.8395078,-6.1869297 h 1.6523438 c 1.3125,0 1.8164062,-0.75 1.8164062,-0.890625 0,-0.046875 -0.035156,-0.058594 -0.09375,-0.058594 -0.1054687,0 -0.3632812,0.09375 -0.609375,0.2695312 -0.082031,0.058594 -0.1054687,0.058594 -0.2929687,0.058594 h -4.359375 c -1.2304688,0 -2.61328129,1.0664062 -2.61328129,1.8867187 0,0.058594 0,0.1171875 0.0820313,0.1171875 0.234375,0 0.86718749,-0.328125 0.87890619,-0.5625 0.011719,-0.1757812 0.035156,-0.3632812 0.234375,-0.6210937 0.09375,-0.1171875 0.1757813,-0.1992188 0.6210938,-0.1992188 h 1.9804687 c -0.1757812,0.1054688 -0.2109375,0.2578125 -0.234375,0.3632813 l -1.1367187,4.5117187 c -0.1171875,0.48046876 -0.328125,1.11328126 -0.609375,1.75781251 -0.058594,0.1171875 -0.058594,0.140625 -0.058594,0.1640625 0,0.0585938 0.035156,0.0703125 0.082031,0.0703125 0.1992187,0 0.6914062,-0.26953125 0.84375,-0.48046875 0.058594,-0.09375 0.4921875,-1.11328125 0.703125,-1.94531246 z m 0,0"
         style="fill:#ffffff;fill-opacity:1;fill-rule:nonzero;stroke:none" />
      <path
         id="path31"
         d="m 8.9762266,-1.3763828 c 0,-0.035156 0.011719,-0.070312 0.011719,-0.1054688 0,-0.046875 -0.023437,-0.09375 -0.09375,-0.09375 -0.070312,0 -0.3632812,0.234375 -0.5039062,0.4570313 -0.058594,-0.140625 -0.2929688,-0.4570313 -0.7382813,-0.4570313 -0.890625,0 -1.8046875,0.97265629 -1.8046875,1.98046879 0,0.67968751 0.4570313,1.16015621 1.0546875,1.16015621 0.3984375,0 0.7265625,-0.2460937 0.8789063,-0.3867187 0,0.023437 -0.2226563,0.9023437 -0.2460938,1.0195312 -0.1054687,0.3867188 -0.1054687,0.3867188 -0.5390625,0.3984375 -0.082031,0 -0.1875,0 -0.1875,0.1523438 0,0.046875 0.035156,0.09375 0.1054688,0.09375 0.234375,0 0.4921875,-0.023437 0.7265625,-0.023437 0.234375,0 0.5273437,0.023437 0.75,0.023437 0.058594,0 0.140625,-0.011719 0.140625,-0.1523438 0,-0.09375 -0.1054688,-0.09375 -0.1875,-0.09375 -0.1523438,0 -0.3398438,0 -0.3398438,-0.082031 0,-0.023437 0,-0.035156 0.035156,-0.1523438 z M 7.9215391,0.61580469 C 7.8863828,0.73299219 7.8863828,0.74471094 7.7926328,0.86189844 7.5231016,1.1783047 7.1949766,1.3658047 6.9254453,1.3658047 c -0.2578125,0 -0.515625,-0.1757813 -0.515625,-0.66796876 0,-0.375 0.2109375,-1.13671875 0.3632813,-1.41796875 0.328125,-0.56249999 0.6796875,-0.66796879 0.8789062,-0.66796879 0.4804688,0 0.6210938,0.53906254 0.6210938,0.60937504 0,0.0351563 -0.011719,0.0820313 -0.023437,0.10546875 z m 0,0"
         style="fill:#ffffff;fill-opacity:1;fill-rule:nonzero;stroke:none" />
    </g>
    <path
       id="path32"
       d="m 1.9100625,-0.52689844 c 0,-0.29296875 -0.234375,-0.52734376 -0.5273437,-0.52734376 -0.28125,0 -0.5273438,0.23437501 -0.5273438,0.52734376 0,0.29296875 0.2460938,0.5273437525 0.5273438,0.5273437525 0.2929687,0 0.5273437,-0.2343750025 0.5273437,-0.5273437525 z m 4.4326172,0 c 0,-0.29296875 -0.234375,-0.52734376 -0.5273438,-0.52734376 -0.28125,0 -0.5273437,0.23437501 -0.5273437,0.52734376 0,0.29296875 0.2460937,0.5273437525 0.5273437,0.5273437525 0.2929688,0 0.5273438,-0.2343750025 0.5273438,-0.5273437525 z m 4.4208983,0 c 0,-0.29296875 -0.234375,-0.52734376 -0.527344,-0.52734376 -0.2812496,0 -0.5273434,0.23437501 -0.5273434,0.52734376 0,0.29296875 0.2460938,0.5273437525 0.5273434,0.5273437525 0.292969,0 0.527344,-0.2343750025 0.527344,-0.5273437525 z m 0,0"
       style="fill:#ffffff;fill-opacity:1;fill-rule:nonzero;stroke:none"
       aria-label="..."
       transform="matrix(1.3333333,0,0,1.3333333,355.672,42.808)" />
    <path
       id="path33"
       d="m 1.9103437,-0.52689844 c 0,-0.29296875 -0.234375,-0.52734376 -0.5273437,-0.52734376 -0.28125,0 -0.52734375,0.23437501 -0.52734375,0.52734376 0,0.29296875 0.24609375,0.5273437525 0.52734375,0.5273437525 0.2929687,0 0.5273437,-0.2343750025 0.5273437,-0.5273437525 z m 4.4326172,0 c 0,-0.29296875 -0.234375,-0.52734376 -0.5273437,-0.52734376 -0.28125,0 -0.5273438,0.23437501 -0.5273438,0.52734376 0,0.29296875 0.2460938,0.5273437525 0.5273438,0.5273437525 0.2929687,0 0.5273437,-0.2343750025 0.5273437,-0.5273437525 z m 4.4208981,0 c 0,-0.29296875 -0.234375,-0.52734376 -0.527343,-0.52734376 -0.2812504,0 -0.5273441,0.23437501 -0.5273441,0.52734376 0,0.29296875 0.2460937,0.5273437525 0.5273441,0.5273437525 0.292968,0 0.527343,-0.2343750025 0.527343,-0.5273437525 z m 0,0"
       style="fill:#ffffff;fill-opacity:1;fill-rule:nonzero;stroke:none"
       aria-label="..."
       transform="matrix(1.3333333,0,0,1.3333333,430.156,42.808)" />
    <path
       id="path34"
       d="m 311.81488,28.3468 c 0,1.56566 -6.34555,2.83486 -14.17338,2.83486 -7.82786,0 -14.1734,-1.2692 -14.1734,-2.83486 0,-1.56566 6.34554,-2.83485 14.1734,-2.83485 7.82783,0 14.17338,1.26919 14.17338,2.83485 z"
       style="fill:none;stroke:#ffffff;stroke-width:0.79701;stroke-linecap:butt;stroke-linejoin:miter;stroke-miterlimit:10;stroke-dasharray:none;stroke-opacity:1"
       transform="matrix(1.3333333,0,0,-1.3333333,4.3666667,42.106667)" />
    <path
       id="path35"
       d="m 311.81488,-28.3468 c 0,-1.56566 -6.34555,-2.83486 -14.17338,-2.83486 -7.82786,0 -14.1734,1.2692 -14.1734,2.83486"
       style="fill:none;stroke:#ffffff;stroke-width:0.79701;stroke-linecap:butt;stroke-linejoin:miter;stroke-miterlimit:10;stroke-dasharray:none;stroke-opacity:1"
       transform="matrix(1.3333333,0,0,-1.3333333,4.3666667,42.106667)" />
    <path
       id="path36"
       d="M 311.81488,28.3468 V -28.3468"
       style="fill:none;stroke:#ffffff;stroke-width:0.79701;stroke-linecap:butt;stroke-linejoin:miter;stroke-miterlimit:10;stroke-dasharray:none;stroke-opacity:1"
       transform="matrix(1.3333333,0,0,-1.3333333,4.3666667,42.106667)" />
    <path
       id="path37"
       d="M 283.4681,28.3468 V -28.3468"
       style="fill:none;stroke:#ffffff;stroke-width:0.79701;stroke-linecap:butt;stroke-linejoin:miter;stroke-miterlimit:10;stroke-dasharray:none;stroke-opacity:1"
       transform="matrix(1.3333333,0,0,-1.3333333,4.3666667,42.106667)" />
    <g
       id="g37"
       aria-label="T&#10;∞"
       transform="matrix(1.3333333,0,0,1.3333333,391.972,45.649333)">
      <path
         id="path38"
         d="m 4.8403359,-6.1881719 h 1.6523438 c 1.3125,0 1.8164062,-0.75 1.8164062,-0.890625 0,-0.046875 -0.035156,-0.058594 -0.09375,-0.058594 -0.1054687,0 -0.3632812,0.09375 -0.609375,0.2695312 -0.082031,0.058594 -0.1054687,0.058594 -0.2929687,0.058594 h -4.359375 c -1.2304688,0 -2.61328126,1.0664062 -2.61328126,1.8867187 0,0.058594 0,0.1171875 0.0820313,0.1171875 0.234375,0 0.86718746,-0.328125 0.87890616,-0.5625 0.011719,-0.1757812 0.035156,-0.3632812 0.234375,-0.6210937 0.09375,-0.1171875 0.1757813,-0.1992188 0.6210938,-0.1992188 h 1.9804687 c -0.1757812,0.1054688 -0.2109375,0.2578125 -0.234375,0.3632813 L 2.7661172,-1.313172 c -0.1171875,0.48046877 -0.328125,1.11328127 -0.609375,1.75781252 -0.058594,0.1171875 -0.058594,0.140625 -0.058594,0.1640625 0,0.0585938 0.035156,0.0703125 0.082031,0.0703125 0.1992187,0 0.6914062,-0.26953125 0.84375,-0.48046875 0.058594,-0.09375 0.4921875,-1.11328125 0.703125,-1.94531247 z m 0,0"
         style="fill:#ffffff;fill-opacity:1;fill-rule:nonzero;stroke:none" />
      <path
         id="path39"
         d="m 9.4575234,-0.4166875 c -0.375,-0.43359375 -0.4804687,-0.55078125 -0.75,-0.7382813 -0.421875,-0.3046875 -0.8671875,-0.421875 -1.2539062,-0.421875 -0.8671875,0 -1.4882813,0.7382813 -1.4882813,1.57031255 0,0.8203125 0.5976563,1.57031245 1.4648438,1.57031245 0.9726562,0 1.6523437,-0.79687495 1.8984375,-1.1601562 0.375,0.421875 0.4804687,0.55078125 0.7499998,0.7382812 0.421875,0.3046875 0.867188,0.421875 1.253906,0.421875 0.867188,0 1.488282,-0.7382812 1.488282,-1.5820312 0,-0.80859375 -0.597657,-1.5585938 -1.464844,-1.5585938 -0.972656,0 -1.6523438,0.7851563 -1.8984376,1.1601563 z m 0.2226563,0.2578125 c 0.28125,-0.45703125 0.8906253,-1.1601563 1.7343753,-1.1601563 0.714843,0 1.21875,0.63281255 1.21875,1.3007813 0,0.6796875 -0.550782,1.1953125 -1.195313,1.1953125 -0.644531,0 -1.089844,-0.52734375 -1.7578123,-1.3359375 z M 9.1059609,0.1458125 C 8.8247109,0.591125 8.2270547,1.29425 7.3715859,1.29425 c -0.7148437,0 -1.21875,-0.6328125 -1.21875,-1.30078125 0,-0.66796875 0.5507813,-1.19531255 1.1953125,-1.19531255 0.6445313,0 1.0898438,0.53906255 1.7578125,1.3476563 z m 0,0"
         style="fill:#ffffff;fill-opacity:1;fill-rule:nonzero;stroke:none" />
    </g>
  </g>
</svg>
