<?xml version="1.0" encoding="UTF-8" standalone="no"?>
<!-- Created with Inkscape (http://www.inkscape.org/) -->

<svg
   version="1.1"
   id="svg1"
   width="415.95734"
   height="31.308001"
   viewBox="0 0 415.95734 31.308001"
   xmlns="http://www.w3.org/2000/svg"
   xmlns:svg="http://www.w3.org/2000/svg">
  <defs
     id="defs1" />
  <g
     id="g1">
    <g
       id="g2"
       aria-label="C[[t]]"
       transform="matrix(1.3333333,0,0,1.3333333,4.428,18.974667)">
      <path
         id="path2"
         d="m 6.5403281,-6.6782656 c 0,-0.1757813 0,-0.328125 -0.1640625,-0.328125 -0.011719,0 -0.1640625,0 -0.1757812,0.1757812 -0.035156,0.28125 -0.2578125,0.28125 -0.328125,0.28125 -0.3515625,0 -0.703125,-0.1523437 -0.9023438,-0.2460937 -0.5039062,-0.2109375 -0.9375,-0.2109375 -1.0898437,-0.2109375 -1.6640625,0 -3.51562503,1.0429687 -3.51562503,3.5859375 0,2.54296873 1.80468753,3.60937498 3.52734373,3.60937498 0.5273438,0 1.2421875,-0.10546875 1.96875,-0.55078125 0.4570313,-0.28125 0.9609375,-0.78515623 0.9609375,-0.92578123 0,-0.140625 -0.140625,-0.1992188 -0.2109375,-0.1992188 -0.070312,0 -0.1054687,0.035156 -0.1992187,0.140625 -0.5859375,0.65625003 -1.4648438,1.05468753 -2.3554688,1.05468753 -1.546875,0 -1.9335937,-1.55859373 -1.9335937,-3.10546873 0,-1.9570313 0.7148437,-3.2695313 1.78125,-3.2695313 0.75,0 1.9453125,0.7265625 2.2851562,1.78125 0.023437,0.09375 0.058594,0.1992188 0.1875,0.1992188 0.1640625,0 0.1640625,-0.1640625 0.1640625,-0.328125 z M 6.2004844,-5.6587344 C 6.0832969,-5.8227969 5.9426719,-5.9517031 5.6965781,-6.2095156 c 0.046875,0 0.1289063,0 0.1875,0 0.1054688,0 0.234375,-0.011719 0.3164063,-0.070312 z M 2.6614219,-6.4321719 c -0.234375,0.2226563 -0.890625,1.0898438 -0.890625,3.0351563 0,0.984375 0.1523437,2.3671875 1.0546875,3.08203123 -1.640625,-0.52734375 -2.10937503,-1.87500003 -2.10937503,-3.09375003 0,-1.828125 1.00781253,-2.71875 1.94531253,-3.0351562 z m 0,0"
         style="fill:#ffffff;fill-opacity:1;fill-rule:nonzero;stroke:none" />
      <path
         id="path3"
         d="M 9.7366172,2.4975156 V 2.0990781 H 8.7639609 V -7.0767031 H 9.7366172 V -7.4751406 H 8.3655234 v 9.9726562 z m 2.7685548,0 V 2.0990781 h -0.972656 v -9.1757812 h 0.972656 v -0.3984375 h -1.371094 v 9.9726562 z m 0,0"
         style="fill:#ffffff;fill-opacity:1;fill-rule:nonzero;stroke:none" />
      <path
         id="path4"
         d="m 14.781539,-3.9829531 h 0.9375 c 0.199219,0 0.304688,0 0.304688,-0.1992188 0,-0.1054687 -0.105469,-0.1054687 -0.28125,-0.1054687 H 14.86357 c 0.363282,-1.4179688 0.410157,-1.6171875 0.410157,-1.6757813 0,-0.1757812 -0.117188,-0.2695312 -0.292969,-0.2695312 -0.02344,0 -0.304688,0.011719 -0.398438,0.3515625 l -0.386718,1.59375 h -0.9375 c -0.199219,0 -0.292969,0 -0.292969,0.1875 0,0.1171875 0.07031,0.1171875 0.269531,0.1171875 h 0.878906 c -0.714843,2.8242187 -0.75,2.99999998 -0.75,3.17578123 0,0.5390625 0.375,0.9140625 0.914063,0.9140625 1.007812,0 1.582031,-1.45312503 1.582031,-1.53515623 0,-0.09375 -0.08203,-0.09375 -0.117187,-0.09375 -0.09375,0 -0.105469,0.023437 -0.152344,0.140625 -0.433594,1.03124998 -0.960938,1.27734373 -1.300781,1.27734373 -0.199219,0 -0.304688,-0.12890625 -0.304688,-0.45703125 0,-0.24609375 0.02344,-0.31640625 0.05859,-0.48046878 z m 0,0"
         style="fill:#ffffff;fill-opacity:1;fill-rule:nonzero;stroke:none" />
      <path
         id="path5"
         d="M 17.910445,-7.4751406 H 16.55107 v 0.3984375 h 0.960938 V 2.0990781 H 16.55107 v 0.3984375 h 1.359375 z m 2.765625,0 h -1.359375 v 0.3984375 h 0.960938 v 9.1757812 h -0.960938 v 0.3984375 h 1.359375 z m 0,0"
         style="fill:#ffffff;fill-opacity:1;fill-rule:nonzero;stroke:none" />
    </g>
    <g
       id="g5"
       aria-label="C[[t]]"
       transform="matrix(1.3333333,0,0,1.3333333,80.017333,18.974667)">
      <path
         id="path6"
         d="m 6.5377812,-6.6782656 c 0,-0.1757813 0,-0.328125 -0.1640625,-0.328125 -0.011719,0 -0.1640625,0 -0.1757812,0.1757812 -0.035156,0.28125 -0.2578125,0.28125 -0.328125,0.28125 -0.3515625,0 -0.703125,-0.1523437 -0.9023438,-0.2460937 -0.5039062,-0.2109375 -0.9375,-0.2109375 -1.0898437,-0.2109375 -1.6640625,0 -3.515625,1.0429687 -3.515625,3.5859375 0,2.54296873 1.8046875,3.60937498 3.5273437,3.60937498 0.5273438,0 1.2421875,-0.10546875 1.96875,-0.55078125 0.4570313,-0.28125 0.9609375,-0.78515623 0.9609375,-0.92578123 0,-0.140625 -0.140625,-0.1992188 -0.2109375,-0.1992188 -0.070312,0 -0.1054687,0.035156 -0.1992187,0.140625 -0.5859375,0.65625003 -1.4648438,1.05468753 -2.3554688,1.05468753 -1.546875,0 -1.9335937,-1.55859373 -1.9335937,-3.10546873 0,-1.9570313 0.7148437,-3.2695313 1.78125,-3.2695313 0.75,0 1.9453125,0.7265625 2.2851562,1.78125 0.023437,0.09375 0.058594,0.1992188 0.1875,0.1992188 0.1640625,0 0.1640625,-0.1640625 0.1640625,-0.328125 z M 6.1979375,-5.6587344 C 6.08075,-5.8227969 5.940125,-5.9517031 5.6940312,-6.2095156 c 0.046875,0 0.1289063,0 0.1875,0 0.1054688,0 0.234375,-0.011719 0.3164063,-0.070312 z M 2.658875,-6.4321719 C 2.4245,-6.2095156 1.76825,-5.3423281 1.76825,-3.3970156 c 0,0.984375 0.1523437,2.3671875 1.0546875,3.08203123 -1.640625,-0.52734375 -2.109375,-1.87500003 -2.109375,-3.09375003 0,-1.828125 1.0078125,-2.71875 1.9453125,-3.0351562 z m 0,0"
         style="fill:#ffffff;fill-opacity:1;fill-rule:nonzero;stroke:none" />
      <path
         id="path7"
         d="M 9.7399297,2.4975156 V 2.0990781 H 8.7672734 V -7.0767031 H 9.7399297 V -7.4751406 H 8.3688359 v 9.9726562 z m 2.7656253,0 V 2.0990781 h -0.972657 v -9.1757812 h 0.972657 v -0.3984375 h -1.371094 v 9.9726562 z m 0,0"
         style="fill:#ffffff;fill-opacity:1;fill-rule:nonzero;stroke:none" />
      <path
         id="path8"
         d="m 14.781922,-3.9829531 h 0.9375 c 0.199219,0 0.304687,0 0.304687,-0.1992188 0,-0.1054687 -0.105468,-0.1054687 -0.28125,-0.1054687 h -0.878906 c 0.363281,-1.4179688 0.410156,-1.6171875 0.410156,-1.6757813 0,-0.1757812 -0.117187,-0.2695312 -0.292968,-0.2695312 -0.02344,0 -0.304688,0.011719 -0.398438,0.3515625 l -0.386719,1.59375 h -0.9375 c -0.199218,0 -0.292968,0 -0.292968,0.1875 0,0.1171875 0.07031,0.1171875 0.269531,0.1171875 h 0.878906 c -0.714844,2.8242187 -0.75,2.99999998 -0.75,3.17578123 0,0.5390625 0.375,0.9140625 0.914063,0.9140625 1.007812,0 1.582031,-1.45312503 1.582031,-1.53515623 0,-0.09375 -0.08203,-0.09375 -0.117188,-0.09375 -0.09375,0 -0.105468,0.023437 -0.152343,0.140625 -0.433594,1.03124998 -0.960938,1.27734373 -1.300782,1.27734373 -0.199218,0 -0.304687,-0.12890625 -0.304687,-0.45703125 0,-0.24609375 0.02344,-0.31640625 0.05859,-0.48046878 z m 0,0"
         style="fill:#ffffff;fill-opacity:1;fill-rule:nonzero;stroke:none" />
      <path
         id="path9"
         d="m 17.910828,-7.4751406 h -1.359375 v 0.3984375 h 0.960938 v 9.1757812 h -0.960938 v 0.3984375 h 1.359375 z m 2.765625,0 h -1.359375 v 0.3984375 h 0.960938 v 9.1757812 h -0.960938 v 0.3984375 h 1.359375 z m 0,0"
         style="fill:#ffffff;fill-opacity:1;fill-rule:nonzero;stroke:none" />
    </g>
    <g
       id="g9"
       aria-label="C[[t]]"
       transform="matrix(1.3333333,0,0,1.3333333,155.608,18.974667)">
      <path
         id="path10"
         d="m 6.5400937,-6.6782656 c 0,-0.1757813 0,-0.328125 -0.1640625,-0.328125 -0.011719,0 -0.1640625,0 -0.1757812,0.1757812 -0.035156,0.28125 -0.2578125,0.28125 -0.328125,0.28125 -0.3515625,0 -0.703125,-0.1523437 -0.9023438,-0.2460937 -0.5039062,-0.2109375 -0.9375,-0.2109375 -1.0898437,-0.2109375 -1.6640625,0 -3.515625,1.0429687 -3.515625,3.5859375 0,2.54296873 1.8046875,3.60937498 3.5273437,3.60937498 0.5273438,0 1.2421875,-0.10546875 1.96875,-0.55078125 0.4570313,-0.28125 0.9609375,-0.78515623 0.9609375,-0.92578123 0,-0.140625 -0.140625,-0.1992188 -0.2109375,-0.1992188 -0.070312,0 -0.1054687,0.035156 -0.1992187,0.140625 -0.5859375,0.65625003 -1.4648438,1.05468753 -2.3554688,1.05468753 -1.546875,0 -1.9335937,-1.55859373 -1.9335937,-3.10546873 0,-1.9570313 0.7148437,-3.2695313 1.78125,-3.2695313 0.75,0 1.9453125,0.7265625 2.2851562,1.78125 0.023437,0.09375 0.058594,0.1992188 0.1875,0.1992188 0.1640625,0 0.1640625,-0.1640625 0.1640625,-0.328125 z M 6.20025,-5.6587344 C 6.0830625,-5.8227969 5.9424375,-5.9517031 5.6963437,-6.2095156 c 0.046875,0 0.1289063,0 0.1875,0 0.1054688,0 0.234375,-0.011719 0.3164063,-0.070312 z M 2.6611875,-6.4321719 c -0.234375,0.2226563 -0.890625,1.0898438 -0.890625,3.0351563 0,0.984375 0.1523437,2.3671875 1.0546875,3.08203123 C 1.184625,-0.84232812 0.715875,-2.1899844 0.715875,-3.4087344 c 0,-1.828125 1.0078125,-2.71875 1.9453125,-3.0351562 z m 0,0"
         style="fill:#ffffff;fill-opacity:1;fill-rule:nonzero;stroke:none" />
      <path
         id="path11"
         d="M 9.7393125,2.4975156 V 2.0990781 H 8.7666562 V -7.0767031 H 9.7393125 V -7.4751406 H 8.3682187 v 9.9726562 z m 2.7685545,0 V 2.0990781 h -0.972656 v -9.1757812 h 0.972656 v -0.3984375 h -1.371094 v 9.9726562 z m 0,0"
         style="fill:#ffffff;fill-opacity:1;fill-rule:nonzero;stroke:none" />
      <path
         id="path12"
         d="m 14.781305,-3.9829531 h 0.9375 c 0.199218,0 0.304687,0 0.304687,-0.1992188 0,-0.1054687 -0.105469,-0.1054687 -0.28125,-0.1054687 h -0.878906 c 0.363281,-1.4179688 0.410156,-1.6171875 0.410156,-1.6757813 0,-0.1757812 -0.117187,-0.2695312 -0.292969,-0.2695312 -0.02344,0 -0.304687,0.011719 -0.398437,0.3515625 l -0.386719,1.59375 h -0.9375 c -0.199219,0 -0.292969,0 -0.292969,0.1875 0,0.1171875 0.07031,0.1171875 0.269532,0.1171875 h 0.878906 c -0.714844,2.8242187 -0.75,2.99999998 -0.75,3.17578123 0,0.5390625 0.375,0.9140625 0.914062,0.9140625 1.007813,0 1.582032,-1.45312503 1.582032,-1.53515623 0,-0.09375 -0.08203,-0.09375 -0.117188,-0.09375 -0.09375,0 -0.105469,0.023437 -0.152344,0.140625 -0.433593,1.03124998 -0.960937,1.27734373 -1.300781,1.27734373 -0.199219,0 -0.304687,-0.12890625 -0.304687,-0.45703125 0,-0.24609375 0.02344,-0.31640625 0.05859,-0.48046878 z m 0,0"
         style="fill:#ffffff;fill-opacity:1;fill-rule:nonzero;stroke:none" />
      <path
         id="path13"
         d="m 17.910211,-7.4751406 h -1.359375 v 0.3984375 h 0.960937 v 9.1757812 h -0.960937 v 0.3984375 h 1.359375 z m 2.768555,0 h -1.359375 v 0.3984375 h 0.960937 v 9.1757812 h -0.960937 v 0.3984375 h 1.359375 z m 0,0"
         style="fill:#ffffff;fill-opacity:1;fill-rule:nonzero;stroke:none" />
    </g>
    <g
       id="g13"
       aria-label="C[[t]]"
       transform="matrix(1.3333333,0,0,1.3333333,231.19867,18.974667)">
      <path
         id="path14"
         d="m 6.5394766,-6.6782656 c 0,-0.1757813 0,-0.328125 -0.1640625,-0.328125 -0.011719,0 -0.1640625,0 -0.1757813,0.1757812 -0.035156,0.28125 -0.2578125,0.28125 -0.328125,0.28125 -0.3515625,0 -0.703125,-0.1523437 -0.9023437,-0.2460937 -0.5039063,-0.2109375 -0.9375,-0.2109375 -1.0898438,-0.2109375 -1.6640625,0 -3.51562499,1.0429687 -3.51562499,3.5859375 0,2.54296873 1.80468749,3.60937498 3.52734379,3.60937498 0.5273437,0 1.2421875,-0.10546875 1.96875,-0.55078125 0.4570312,-0.28125 0.9609375,-0.78515623 0.9609375,-0.92578123 0,-0.140625 -0.140625,-0.1992188 -0.2109375,-0.1992188 -0.070312,0 -0.1054688,0.035156 -0.1992188,0.140625 -0.5859375,0.65625003 -1.4648437,1.05468753 -2.3554687,1.05468753 -1.546875,0 -1.9335938,-1.55859373 -1.9335938,-3.10546873 0,-1.9570313 0.7148438,-3.2695313 1.78125,-3.2695313 0.75,0 1.9453125,0.7265625 2.2851563,1.78125 0.023437,0.09375 0.058594,0.1992188 0.1875,0.1992188 0.1640625,0 0.1640625,-0.1640625 0.1640625,-0.328125 z M 6.1996328,-5.6587344 C 6.0824453,-5.8227969 5.9418203,-5.9517031 5.6957266,-6.2095156 c 0.046875,0 0.1289062,0 0.1875,0 0.1054687,0 0.234375,-0.011719 0.3164062,-0.070312 z M 2.6605703,-6.4321719 c -0.234375,0.2226563 -0.890625,1.0898438 -0.890625,3.0351563 0,0.984375 0.1523438,2.3671875 1.0546875,3.08203123 -1.640625,-0.52734375 -2.10937499,-1.87500003 -2.10937499,-3.09375003 0,-1.828125 1.00781249,-2.71875 1.94531249,-3.0351562 z m 0,0"
         style="fill:#ffffff;fill-opacity:1;fill-rule:nonzero;stroke:none" />
      <path
         id="path15"
         d="M 9.7386953,2.4975156 V 2.0990781 H 8.7660391 V -7.0767031 H 9.7386953 V -7.4751406 H 8.3676016 v 9.9726562 z m 2.7656247,0 V 2.0990781 h -0.972656 v -9.1757812 h 0.972656 v -0.3984375 h -1.371093 v 9.9726562 z m 0,0"
         style="fill:#ffffff;fill-opacity:1;fill-rule:nonzero;stroke:none" />
      <path
         id="path16"
         d="m 14.780688,-3.9829531 h 0.9375 c 0.199218,0 0.304687,0 0.304687,-0.1992188 0,-0.1054687 -0.105469,-0.1054687 -0.28125,-0.1054687 h -0.878906 c 0.363281,-1.4179688 0.410156,-1.6171875 0.410156,-1.6757813 0,-0.1757812 -0.117187,-0.2695312 -0.292969,-0.2695312 -0.02344,0 -0.304687,0.011719 -0.398437,0.3515625 l -0.386719,1.59375 h -0.9375 c -0.199219,0 -0.292969,0 -0.292969,0.1875 0,0.1171875 0.07031,0.1171875 0.269532,0.1171875 h 0.878906 c -0.714844,2.8242187 -0.75,2.99999998 -0.75,3.17578123 0,0.5390625 0.375,0.9140625 0.914062,0.9140625 1.007813,0 1.582032,-1.45312503 1.582032,-1.53515623 0,-0.09375 -0.08203,-0.09375 -0.117188,-0.09375 -0.09375,0 -0.105469,0.023437 -0.152344,0.140625 -0.433593,1.03124998 -0.960937,1.27734373 -1.300781,1.27734373 -0.199219,0 -0.304687,-0.12890625 -0.304687,-0.45703125 0,-0.24609375 0.02344,-0.31640625 0.05859,-0.48046878 z m 0,0"
         style="fill:#ffffff;fill-opacity:1;fill-rule:nonzero;stroke:none" />
      <path
         id="path17"
         d="m 17.909594,-7.4751406 h -1.359375 v 0.3984375 h 0.960937 v 9.1757812 h -0.960937 v 0.3984375 h 1.359375 z m 2.768554,0 h -1.359375 v 0.3984375 h 0.960938 v 9.1757812 h -0.960938 v 0.3984375 h 1.359375 z m 0,0"
         style="fill:#ffffff;fill-opacity:1;fill-rule:nonzero;stroke:none" />
    </g>
    <g
       id="g17"
       aria-label="C[[t]]"
       transform="matrix(1.3333333,0,0,1.3333333,306.78933,18.974667)">
      <path
         id="path18"
         d="m 6.5388594,-6.6782656 c 0,-0.1757813 0,-0.328125 -0.1640625,-0.328125 -0.011719,0 -0.1640625,0 -0.1757813,0.1757812 -0.035156,0.28125 -0.2578125,0.28125 -0.328125,0.28125 -0.3515625,0 -0.703125,-0.1523437 -0.9023437,-0.2460937 -0.5039063,-0.2109375 -0.9375,-0.2109375 -1.0898438,-0.2109375 -1.6640625,0 -3.51562497,1.0429687 -3.51562497,3.5859375 0,2.54296873 1.80468747,3.60937498 3.52734377,3.60937498 0.5273437,0 1.2421875,-0.10546875 1.96875,-0.55078125 0.4570312,-0.28125 0.9609375,-0.78515623 0.9609375,-0.92578123 0,-0.140625 -0.140625,-0.1992188 -0.2109375,-0.1992188 -0.070312,0 -0.1054688,0.035156 -0.1992188,0.140625 -0.5859375,0.65625003 -1.4648437,1.05468753 -2.3554687,1.05468753 -1.546875,0 -1.9335938,-1.55859373 -1.9335938,-3.10546873 0,-1.9570313 0.7148438,-3.2695313 1.78125,-3.2695313 0.75,0 1.9453125,0.7265625 2.2851563,1.78125 0.023437,0.09375 0.058594,0.1992188 0.1875,0.1992188 0.1640625,0 0.1640625,-0.1640625 0.1640625,-0.328125 z M 6.1990156,-5.6587344 C 6.0818281,-5.8227969 5.9412031,-5.9517031 5.6951094,-6.2095156 c 0.046875,0 0.1289062,0 0.1875,0 0.1054687,0 0.234375,-0.011719 0.3164062,-0.070312 z M 2.6599531,-6.4321719 c -0.234375,0.2226563 -0.890625,1.0898438 -0.890625,3.0351563 0,0.984375 0.1523438,2.3671875 1.0546875,3.08203123 -1.640625,-0.52734375 -2.10937497,-1.87500003 -2.10937497,-3.09375003 0,-1.828125 1.00781247,-2.71875 1.94531247,-3.0351562 z m 0,0"
         style="fill:#ffffff;fill-opacity:1;fill-rule:nonzero;stroke:none" />
      <path
         id="path19"
         d="M 9.7380781,2.4975156 V 2.0990781 H 8.7654219 V -7.0767031 H 9.7380781 V -7.4751406 H 8.3669844 v 9.9726562 z m 2.7685549,0 V 2.0990781 h -0.972656 v -9.1757812 h 0.972656 v -0.3984375 h -1.371094 v 9.9726562 z m 0,0"
         style="fill:#ffffff;fill-opacity:1;fill-rule:nonzero;stroke:none" />
      <path
         id="path20"
         d="m 14.78007,-3.9829531 h 0.9375 c 0.199219,0 0.304688,0 0.304688,-0.1992188 0,-0.1054687 -0.105469,-0.1054687 -0.28125,-0.1054687 h -0.878906 c 0.363281,-1.4179688 0.410156,-1.6171875 0.410156,-1.6757813 0,-0.1757812 -0.117188,-0.2695312 -0.292969,-0.2695312 -0.02344,0 -0.304687,0.011719 -0.398437,0.3515625 l -0.386719,1.59375 h -0.9375 c -0.199219,0 -0.292969,0 -0.292969,0.1875 0,0.1171875 0.07031,0.1171875 0.269531,0.1171875 h 0.878907 c -0.714844,2.8242187 -0.75,2.99999998 -0.75,3.17578123 0,0.5390625 0.375,0.9140625 0.914062,0.9140625 1.007813,0 1.582031,-1.45312503 1.582031,-1.53515623 0,-0.09375 -0.08203,-0.09375 -0.117187,-0.09375 -0.09375,0 -0.105469,0.023437 -0.152344,0.140625 -0.433594,1.03124998 -0.960937,1.27734373 -1.300781,1.27734373 -0.199219,0 -0.304688,-0.12890625 -0.304688,-0.45703125 0,-0.24609375 0.02344,-0.31640625 0.05859,-0.48046878 z m 0,0"
         style="fill:#ffffff;fill-opacity:1;fill-rule:nonzero;stroke:none" />
      <path
         id="path21"
         d="m 17.908977,-7.4751406 h -1.359375 v 0.3984375 h 0.960937 v 9.1757812 h -0.960937 v 0.3984375 h 1.359375 z m 2.768554,0 h -1.359375 v 0.3984375 h 0.960938 v 9.1757812 h -0.960938 v 0.3984375 h 1.359375 z m 0,0"
         style="fill:#ffffff;fill-opacity:1;fill-rule:nonzero;stroke:none" />
    </g>
    <g
       id="g21"
       aria-label="C[[t]]"
       transform="matrix(1.3333333,0,0,1.3333333,382.38,18.974667)">
      <path
         id="path22"
         d="m 6.5382422,-6.6782656 c 0,-0.1757813 0,-0.328125 -0.1640625,-0.328125 -0.011719,0 -0.1640625,0 -0.1757813,0.1757812 -0.035156,0.28125 -0.2578125,0.28125 -0.328125,0.28125 -0.3515625,0 -0.703125,-0.1523437 -0.9023437,-0.2460937 -0.5039063,-0.2109375 -0.9375,-0.2109375 -1.0898438,-0.2109375 -1.6640625,0 -3.51562496,1.0429687 -3.51562496,3.5859375 0,2.54296873 1.80468746,3.60937498 3.52734376,3.60937498 0.5273437,0 1.2421875,-0.10546875 1.96875,-0.55078125 0.4570312,-0.28125 0.9609375,-0.78515623 0.9609375,-0.92578123 0,-0.140625 -0.140625,-0.1992188 -0.2109375,-0.1992188 -0.070312,0 -0.1054688,0.035156 -0.1992188,0.140625 -0.5859375,0.65625003 -1.4648437,1.05468753 -2.3554687,1.05468753 -1.546875,0 -1.9335938,-1.55859373 -1.9335938,-3.10546873 0,-1.9570313 0.7148438,-3.2695313 1.78125,-3.2695313 0.75,0 1.9453125,0.7265625 2.2851563,1.78125 0.023437,0.09375 0.058594,0.1992188 0.1875,0.1992188 0.1640625,0 0.1640625,-0.1640625 0.1640625,-0.328125 z M 6.1983984,-5.6587344 C 6.0812109,-5.8227969 5.9405859,-5.9517031 5.6944922,-6.2095156 c 0.046875,0 0.1289062,0 0.1875,0 0.1054687,0 0.234375,-0.011719 0.3164062,-0.070312 z M 2.6593359,-6.4321719 c -0.234375,0.2226563 -0.890625,1.0898438 -0.890625,3.0351563 0,0.984375 0.1523438,2.3671875 1.0546875,3.08203123 -1.640625,-0.52734375 -2.10937496,-1.87500003 -2.10937496,-3.09375003 0,-1.828125 1.00781246,-2.71875 1.94531246,-3.0351562 z m 0,0"
         style="fill:#ffffff;fill-opacity:1;fill-rule:nonzero;stroke:none" />
      <path
         id="path23"
         d="M 9.7374609,2.4975156 V 2.0990781 H 8.7648047 V -7.0767031 H 9.7374609 V -7.4751406 H 8.3663672 v 9.9726562 z m 2.7685551,0 V 2.0990781 h -0.972657 v -9.1757812 h 0.972657 v -0.3984375 h -1.371094 v 9.9726562 z m 0,0"
         style="fill:#ffffff;fill-opacity:1;fill-rule:nonzero;stroke:none" />
      <path
         id="path24"
         d="m 14.779453,-3.9829531 h 0.9375 c 0.199219,0 0.304688,0 0.304688,-0.1992188 0,-0.1054687 -0.105469,-0.1054687 -0.28125,-0.1054687 h -0.878907 c 0.363282,-1.4179688 0.410157,-1.6171875 0.410157,-1.6757813 0,-0.1757812 -0.117188,-0.2695312 -0.292969,-0.2695312 -0.02344,0 -0.304688,0.011719 -0.398438,0.3515625 l -0.386718,1.59375 h -0.9375 c -0.199219,0 -0.292969,0 -0.292969,0.1875 0,0.1171875 0.07031,0.1171875 0.269531,0.1171875 h 0.878906 c -0.714843,2.8242187 -0.75,2.99999998 -0.75,3.17578123 0,0.5390625 0.375,0.9140625 0.914063,0.9140625 1.007812,0 1.582031,-1.45312503 1.582031,-1.53515623 0,-0.09375 -0.08203,-0.09375 -0.117187,-0.09375 -0.09375,0 -0.105469,0.023437 -0.152344,0.140625 -0.433594,1.03124998 -0.960938,1.27734373 -1.300781,1.27734373 -0.199219,0 -0.304688,-0.12890625 -0.304688,-0.45703125 0,-0.24609375 0.02344,-0.31640625 0.05859,-0.48046878 z m 0,0"
         style="fill:#ffffff;fill-opacity:1;fill-rule:nonzero;stroke:none" />
      <path
         id="path25"
         d="m 17.911289,-7.4751406 h -1.359375 v 0.3984375 h 0.960938 v 9.1757812 h -0.960938 v 0.3984375 h 1.359375 z m 2.765625,0 h -1.359375 v 0.3984375 h 0.960938 v 9.1757812 h -0.960938 v 0.3984375 h 1.359375 z m 0,0"
         style="fill:#ffffff;fill-opacity:1;fill-rule:nonzero;stroke:none" />
    </g>
    <path
       id="path26"
       d="m 14.65045,6.82759 c 9.68149,4.51459 17.71121,4.51459 26.67038,0.33682"
       style="fill:none;stroke:#ffffff;stroke-width:0.79701;stroke-linecap:butt;stroke-linejoin:miter;stroke-miterlimit:10;stroke-dasharray:none;stroke-opacity:1"
       transform="matrix(1.3333333,0,0,-1.3333333,19.002667,15.653333)" />
    <path
       id="path27"
       d="M -2.55046,3.11095 C -2.0845,1.24435 -1.04614,0.36295 0,0 -1.04614,-0.36295 -2.0845,-1.24435 -2.55046,-3.11095"
       style="fill:none;stroke:#ffffff;stroke-width:0.79701;stroke-linecap:round;stroke-linejoin:round;stroke-miterlimit:10;stroke-dasharray:none;stroke-opacity:1"
       transform="matrix(1.2084,0.56346667,0.56346667,-1.2084,74.57864,6.3253067)" />
    <path
       id="path28"
       d="M 42.04315,-6.82759 C 32.36166,-11.34218 24.33194,-11.34218 15.37279,-7.16441"
       style="fill:none;stroke:#ffffff;stroke-width:0.79701;stroke-linecap:butt;stroke-linejoin:miter;stroke-miterlimit:10;stroke-dasharray:none;stroke-opacity:1"
       transform="matrix(1.3333333,0,0,-1.3333333,19.002667,15.653333)" />
    <path
       id="path29"
       d="M -2.55046,3.11095 C -2.0845,1.24435 -1.04614,0.36295 0,0 -1.04614,-0.36295 -2.0845,-1.24435 -2.55046,-3.11095"
       style="fill:none;stroke:#ffffff;stroke-width:0.79701;stroke-linecap:round;stroke-linejoin:round;stroke-miterlimit:10;stroke-dasharray:none;stroke-opacity:1"
       transform="matrix(-1.2084,-0.56346667,-0.56346667,1.2084,39.018173,24.98136)" />
    <path
       id="path30"
       d="m 71.34407,6.82759 c 9.68149,4.51459 17.71121,4.51459 26.67038,0.33682"
       style="fill:none;stroke:#ffffff;stroke-width:0.79701;stroke-linecap:butt;stroke-linejoin:miter;stroke-miterlimit:10;stroke-dasharray:none;stroke-opacity:1"
       transform="matrix(1.3333333,0,0,-1.3333333,19.002667,15.653333)" />
    <path
       id="path31"
       d="M -2.55046,3.11095 C -2.0845,1.24435 -1.04614,0.36295 0,0 -1.04614,-0.36295 -2.0845,-1.24435 -2.55046,-3.11095"
       style="fill:none;stroke:#ffffff;stroke-width:0.79701;stroke-linecap:round;stroke-linejoin:round;stroke-miterlimit:10;stroke-dasharray:none;stroke-opacity:1"
       transform="matrix(1.2084,0.56346667,0.56346667,-1.2084,150.17013,6.3253067)" />
    <path
       id="path32"
       d="M 98.73677,-6.82759 C 89.05528,-11.34218 81.02556,-11.34218 72.0664,-7.16441"
       style="fill:none;stroke:#ffffff;stroke-width:0.79701;stroke-linecap:butt;stroke-linejoin:miter;stroke-miterlimit:10;stroke-dasharray:none;stroke-opacity:1"
       transform="matrix(1.3333333,0,0,-1.3333333,19.002667,15.653333)" />
    <path
       id="path33"
       d="M -2.55046,3.11095 C -2.0845,1.24435 -1.04614,0.36295 0,0 -1.04614,-0.36295 -2.0845,-1.24435 -2.55046,-3.11095"
       style="fill:none;stroke:#ffffff;stroke-width:0.79701;stroke-linecap:round;stroke-linejoin:round;stroke-miterlimit:10;stroke-dasharray:none;stroke-opacity:1"
       transform="matrix(-1.2084,-0.56346667,-0.56346667,1.2084,114.60967,24.98136)" />
    <path
       id="path34"
       d="m 128.0377,6.82759 c 9.68148,4.51459 17.7112,4.51459 26.67037,0.33682"
       style="fill:none;stroke:#ffffff;stroke-width:0.79701;stroke-linecap:butt;stroke-linejoin:miter;stroke-miterlimit:10;stroke-dasharray:none;stroke-opacity:1"
       transform="matrix(1.3333333,0,0,-1.3333333,19.002667,15.653333)" />
    <path
       id="path35"
       d="M -2.55046,3.11095 C -2.0845,1.24435 -1.04614,0.36295 0,0 -1.04614,-0.36295 -2.0845,-1.24435 -2.55046,-3.11095"
       style="fill:none;stroke:#ffffff;stroke-width:0.79701;stroke-linecap:round;stroke-linejoin:round;stroke-miterlimit:10;stroke-dasharray:none;stroke-opacity:1"
       transform="matrix(1.2084,0.56346667,0.56346667,-1.2084,225.76161,6.3253067)" />
    <path
       id="path36"
       d="m 155.43039,-6.82759 c -9.68149,-4.51459 -17.71121,-4.51459 -26.67036,-0.33682"
       style="fill:none;stroke:#ffffff;stroke-width:0.79701;stroke-linecap:butt;stroke-linejoin:miter;stroke-miterlimit:10;stroke-dasharray:none;stroke-opacity:1"
       transform="matrix(1.3333333,0,0,-1.3333333,19.002667,15.653333)" />
    <path
       id="path37"
       d="M -2.55046,3.11095 C -2.0845,1.24435 -1.04614,0.36295 0,0 -1.04614,-0.36295 -2.0845,-1.24435 -2.55046,-3.11095"
       style="fill:none;stroke:#ffffff;stroke-width:0.79701;stroke-linecap:round;stroke-linejoin:round;stroke-miterlimit:10;stroke-dasharray:none;stroke-opacity:1"
       transform="matrix(-1.2084,-0.56346667,-0.56346667,1.2084,190.20115,24.98136)" />
    <path
       id="path38"
       d="m 184.73132,6.82759 c 9.68149,4.51459 17.7112,4.51459 26.67037,0.33682"
       style="fill:none;stroke:#ffffff;stroke-width:0.79701;stroke-linecap:butt;stroke-linejoin:miter;stroke-miterlimit:10;stroke-dasharray:none;stroke-opacity:1"
       transform="matrix(1.3333333,0,0,-1.3333333,19.002667,15.653333)" />
    <path
       id="path39"
       d="M -2.55046,3.11095 C -2.0845,1.24435 -1.04614,0.36295 0,0 -1.04614,-0.36295 -2.0845,-1.24435 -2.55046,-3.11095"
       style="fill:none;stroke:#ffffff;stroke-width:0.79701;stroke-linecap:round;stroke-linejoin:round;stroke-miterlimit:10;stroke-dasharray:none;stroke-opacity:1"
       transform="matrix(1.2084,0.56346667,0.56346667,-1.2084,301.35311,6.3253067)" />
    <path
       id="path40"
       d="m 212.12401,-6.82759 c -9.68149,-4.51459 -17.7112,-4.51459 -26.67037,-0.33682"
       style="fill:none;stroke:#ffffff;stroke-width:0.79701;stroke-linecap:butt;stroke-linejoin:miter;stroke-miterlimit:10;stroke-dasharray:none;stroke-opacity:1"
       transform="matrix(1.3333333,0,0,-1.3333333,19.002667,15.653333)" />
    <path
       id="path41"
       d="M -2.55046,3.11095 C -2.0845,1.24435 -1.04614,0.36295 0,0 -1.04614,-0.36295 -2.0845,-1.24435 -2.55046,-3.11095"
       style="fill:none;stroke:#ffffff;stroke-width:0.79701;stroke-linecap:round;stroke-linejoin:round;stroke-miterlimit:10;stroke-dasharray:none;stroke-opacity:1"
       transform="matrix(-1.2084,-0.56346667,-0.56346667,1.2084,265.79264,24.98136)" />
    <path
       id="path42"
       d="m 241.42494,6.82759 c 9.68149,4.51459 17.7112,4.51459 26.67036,0.33682"
       style="fill:none;stroke:#ffffff;stroke-width:0.79701;stroke-linecap:butt;stroke-linejoin:miter;stroke-miterlimit:10;stroke-dasharray:none;stroke-opacity:1"
       transform="matrix(1.3333333,0,0,-1.3333333,19.002667,15.653333)" />
    <path
       id="path43"
       d="M -2.55046,3.11095 C -2.0845,1.24435 -1.04614,0.36295 0,0 -1.04614,-0.36295 -2.0845,-1.24435 -2.55046,-3.11095"
       style="fill:none;stroke:#ffffff;stroke-width:0.79701;stroke-linecap:round;stroke-linejoin:round;stroke-miterlimit:10;stroke-dasharray:none;stroke-opacity:1"
       transform="matrix(1.2084,0.56346667,0.56346667,-1.2084,376.9446,6.3253067)" />
    <path
       id="path44"
       d="m 268.81763,-6.82759 c -9.68149,-4.51459 -17.7112,-4.51459 -26.67037,-0.33682"
       style="fill:none;stroke:#ffffff;stroke-width:0.79701;stroke-linecap:butt;stroke-linejoin:miter;stroke-miterlimit:10;stroke-dasharray:none;stroke-opacity:1"
       transform="matrix(1.3333333,0,0,-1.3333333,19.002667,15.653333)" />
    <path
       id="path45"
       d="M -2.55046,3.11095 C -2.0845,1.24435 -1.04614,0.36295 0,0 -1.04614,-0.36295 -2.0845,-1.24435 -2.55046,-3.11095"
       style="fill:none;stroke:#ffffff;stroke-width:0.79701;stroke-linecap:round;stroke-linejoin:round;stroke-miterlimit:10;stroke-dasharray:none;stroke-opacity:1"
       transform="matrix(-1.2084,-0.56346667,-0.56346667,1.2084,341.38413,24.98136)" />
  </g>
</svg>
