<?xml version="1.0" encoding="UTF-8" standalone="no"?>
<!-- Created with Inkscape (http://www.inkscape.org/) -->

<svg
   version="1.1"
   id="svg1"
   width="36.16"
   height="18.08"
   viewBox="0 0 36.16 18.08"
   xmlns="http://www.w3.org/2000/svg"
   xmlns:svg="http://www.w3.org/2000/svg">
  <defs
     id="defs1" />
  <g
     id="g1">
    <path
       id="path1"
       d="m 1.1028281,-0.76146094 c 0,0.45703125 -0.11718748,0.45703125 -0.78515623,0.45703125 V 2.578125e-4 C 0.66923437,-0.01146094 1.1731406,-0.03489844 1.4426719,-0.03489844 c 0.2578125,0 0.7851562,0.0234375 1.1132812,0.0351562525 V -0.30442969 c -0.65625,0 -0.7734375,0 -0.7734375,-0.45703125 V -2.5895859 c 0,-1.03125 0.7148438,-1.59375 1.3476563,-1.59375 0.6210937,0 0.7382812,0.5390625 0.7382812,1.1015625 v 2.32031246 c 0,0.45703125 -0.1171875,0.45703125 -0.7734375,0.45703125 V 2.578125e-4 c 0.3398438,-0.0117187525 0.8554688,-0.0351562525 1.125,-0.0351562525 0.2578125,0 0.7734375,0.0234375 1.1132813,0.0351562525 V -0.30442969 c -0.515625,0 -0.7734375,0 -0.7851563,-0.3046875 V -2.5075547 c 0,-0.8554687 0,-1.171875 -0.3046875,-1.5234375 -0.140625,-0.1757812 -0.46875,-0.375 -1.0429687,-0.375 -0.84375,0 -1.2773438,0.5976563 -1.4414063,0.984375 v -3.4921875 l -1.44140623,0.1054688 v 0.3164062 c 0.70312503,0 0.78515623,0.070312 0.78515623,0.5507813 z M 6.6487266,-2.5075547 c 0.058594,-1.4882812 0.9023437,-1.734375 1.2421875,-1.734375 1.0195312,0 1.125,1.3476563 1.125,1.734375 z m -0.011719,0.2109375 h 2.7890625 c 0.2109375,0 0.2460938,0 0.2460938,-0.2109375 0,-0.984375 -0.5390625,-1.9570312 -1.78125,-1.9570312 -1.1601563,0 -2.0742188,1.03125 -2.0742188,2.2734375 0,1.33593746 1.0429688,2.29687496 2.1914063,2.29687496 1.21875,0 1.6640625,-1.1015625 1.6640625,-1.28906246 0,-0.1054688 -0.082031,-0.1171875 -0.1289063,-0.1171875 -0.09375,0 -0.1171875,0.058594 -0.1289062,0.140625 -0.3515625,1.01953121 -1.2539063,1.01953121 -1.3476563,1.01953121 -0.5039062,0 -0.9023437,-0.29296875 -1.125,-0.66796875 C 6.6370078,-1.2888047 6.6370078,-1.9450547 6.6370076,-2.2966172 Z m 5.0830084,-4.6171875 -1.429688,0.1054688 v 0.3164062 c 0.703125,0 0.773438,0.070312 0.773438,0.5507813 v 5.17968746 c 0,0.45703125 -0.105469,0.45703125 -0.773438,0.45703125 V 2.578125e-4 C 10.618453,-0.01146094 11.145797,-0.03489844 11.391891,-0.03489844 c 0.257812,0 0.738281,0.0234375 1.113281,0.0351562525 V -0.30442969 c -0.667969,0 -0.785156,0 -0.785156,-0.45703125 z m 2.768554,0 -1.429687,0.1054688 v 0.3164062 c 0.703125,0 0.773437,0.070312 0.773437,0.5507813 v 5.17968746 c 0,0.45703125 -0.105468,0.45703125 -0.773437,0.45703125 V 2.578125e-4 C 13.387008,-0.01146094 13.914352,-0.03489844 14.160445,-0.03489844 c 0.257813,0 0.738282,0.0234375 1.113282,0.0351562525 V -0.30442969 c -0.667969,0 -0.785157,0 -0.785157,-0.45703125 z m 5.695313,4.78125 c 0,-1.2773437 -0.996094,-2.3320312 -2.191406,-2.3320312 -1.253907,0 -2.214844,1.0898437 -2.214844,2.3320312 0,1.28906251 1.03125,2.23828126 2.203125,2.23828126 1.207031,0 2.203125,-0.97265625 2.203125,-2.23828126 z m -2.191406,1.99218751 c -0.433594,0 -0.867188,-0.2109375 -1.136719,-0.66796875 -0.257813,-0.43359376 -0.257813,-1.04296876 -0.257813,-1.40624996 0,-0.3867188 0,-0.9257813 0.246094,-1.359375 0.269531,-0.4570313 0.738281,-0.6679688 1.136719,-0.6679688 0.433594,0 0.867187,0.2226563 1.125,0.6445313 0.257812,0.4335937 0.257812,1.0078125 0.257812,1.3828125 0,0.3632812 0,0.9023437 -0.222656,1.33593746 -0.222656,0.4453125 -0.65625,0.73828125 -1.148437,0.73828125 z m 0,0"
       style="fill:#000000;fill-opacity:1;fill-rule:nonzero;stroke:none"
       aria-label="hello"
       transform="matrix(1.3333333,0,0,1.3333333,4.428,13.652)" />
  </g>
</svg>
