<?xml version="1.0" encoding="UTF-8" standalone="no"?>
<!-- Created with Inkscape (http://www.inkscape.org/) -->

<svg
   version="1.1"
   id="svg1"
   width="57.080002"
   height="96.285332"
   viewBox="0 0 57.080002 96.285332"
   xmlns="http://www.w3.org/2000/svg"
   xmlns:svg="http://www.w3.org/2000/svg">
  <defs
     id="defs1" />
  <g
     id="g1">
    <path
       id="path1"
       d="m 1.9796094,-3.1631328 c 0,-0.1523438 -0.011719,-0.1523438 -0.1757813,-0.1523438 -0.3515625,0.3164063 -0.90234372,0.3164063 -1.00781247,0.3164063 h -0.0820313 v 0.2226562 h 0.0820313 c 0.1171875,0 0.43359377,-0.011719 0.72656247,-0.140625 v 2.48437504 c 0,0.1640625 0,0.2109375 -0.52734372,0.2109375 H 0.74914063 V 9.296875e-4 C 1.0186719,-0.02250781 1.4639844,-0.02250781 1.7569531,-0.02250781 c 0.28125,0 0.7265625,0 0.9960938,0.0234374975 V -0.22172656 H 2.5069531 c -0.5273437,0 -0.5273437,-0.046875 -0.5273437,-0.2109375 z m 0,0"
       style="fill:#ffffff;fill-opacity:1;fill-rule:nonzero;stroke:none"
       aria-label="1"
       transform="matrix(1.3333333,0,0,1.3333333,28.493333,46.502667)" />
    <path
       id="path2"
       d="M 2.9302969,-0.96205469 H 2.7193594 c -0.011719,0.09375 -0.058594,0.3984375 -0.140625,0.45703125 -0.035156,0.0234375 -0.4570313,0.0234375 -0.5273438,0.0234375 h -0.984375 c 0.328125,-0.24609375 0.703125,-0.515625 0.9960938,-0.71484376 0.4570312,-0.3164062 0.8671875,-0.5976562 0.8671875,-1.125 0,-0.6445312 -0.5976563,-0.9960937 -1.3125,-0.9960937 -0.66796877,0 -1.16015627,0.3867187 -1.16015627,0.8789062 0,0.2578125 0.2109375,0.3046875 0.28125,0.3046875 0.140625,0 0.29296877,-0.09375 0.29296877,-0.2929687 0,-0.1875 -0.12890627,-0.28125 -0.28125002,-0.2929688 0.140625,-0.234375 0.43359372,-0.375 0.76171872,-0.375 0.4804688,0 0.890625,0.28125 0.890625,0.7734375 0,0.421875 -0.2929687,0.7382813 -0.6796875,1.0546875 l -1.20703122,1.03125001 c -0.046875,0.046875 -0.0585938,0.046875 -0.0585938,0.0820313 v 0.15234375 H 2.7662344 Z m 0,0"
       style="fill:#ffffff;fill-opacity:1;fill-rule:nonzero;stroke:none"
       aria-label="2"
       transform="matrix(1.3333333,0,0,1.3333333,48.132,57.841333)" />
    <path
       id="path3"
       d="m 1.6412344,-1.6516953 c 0.4570312,0 0.7617187,0.2929687 0.7617187,0.78515624 0,0.50390625 -0.3046875,0.7734375 -0.75,0.7734375 -0.058594,0 -0.65624997,0 -0.90234372,-0.2578125 0.19921875,-0.0351563 0.25781252,-0.1875 0.25781252,-0.3046875 0,-0.1875 -0.14062502,-0.3046875 -0.30468752,-0.3046875 -0.15234375,0 -0.3046875,0.10546875 -0.3046875,0.31640625 0,0.515625 0.5859375,0.75 1.26562502,0.75 0.8203125,0 1.3242187,-0.4921875 1.3242187,-0.97265625 0,-0.41015624 -0.3632812,-0.76171874 -0.9257812,-0.89062504 0.5976562,-0.1875 0.75,-0.5625 0.75,-0.84375 0,-0.4101562 -0.5039063,-0.7148437 -1.1367188,-0.7148437 -0.609375,0 -1.10156247,0.2578125 -1.10156247,0.703125 0,0.234375 0.1875,0.2929687 0.28125,0.2929687 0.140625,0 0.28124997,-0.1054687 0.28124997,-0.28125 0,-0.1171875 -0.058594,-0.2578125 -0.23437497,-0.28125 0.21093747,-0.234375 0.65624997,-0.2460937 0.76171877,-0.2460937 0.3632812,0 0.6210937,0.1875 0.6210937,0.5273437 0,0.28125 -0.1875,0.7382813 -0.7148437,0.7734375 -0.140625,0 -0.1523438,0 -0.28125,0.011719 -0.058594,0 -0.1171875,0.011719 -0.1171875,0.082031 0,0.082031 0.058594,0.082031 0.140625,0.082031 z m 0,0"
       style="fill:#ffffff;fill-opacity:1;fill-rule:nonzero;stroke:none"
       aria-label="3"
       transform="matrix(1.3333333,0,0,1.3333333,48.132,80.518667)" />
    <path
       id="path4"
       d="M 3.0694531,-0.80999219 V -1.0326484 H 2.4483594 v -2.1914063 c 0,-0.1171875 0,-0.1523437 -0.1289063,-0.1523437 -0.1054687,0 -0.1054687,0.011719 -0.1640625,0.082031 l -1.83984372,2.2617188 v 0.22265621 H 1.9678906 v 0.38671875 c 0,0.15234375 0,0.19921875 -0.4335937,0.19921875 H 1.3585156 v 0.22265625 c 0.234375,-0.01171875 0.5625,-0.0234375 0.8554688,-0.0234375 0.28125,0 0.609375,0.01171875 0.84375,0.0234375 V -0.22405469 H 2.8819531 c -0.4335937,0 -0.4335937,-0.046875 -0.4335937,-0.19921875 V -0.80999219 Z M 2.0147656,-2.8373359 v 1.8046875 H 0.54992188 Z m 0,0"
       style="fill:#ffffff;fill-opacity:1;fill-rule:nonzero;stroke:none"
       aria-label="4"
       transform="matrix(1.3333333,0,0,1.3333333,28.493333,91.857333)" />
    <path
       id="path5"
       d="m 0.97325781,-2.7415391 c 0.26953129,0.058594 0.49218749,0.058594 0.55078129,0.058594 0.3398437,0 0.5859375,-0.09375 0.7148437,-0.1640625 0.1171875,-0.058594 0.4570313,-0.2695313 0.4570313,-0.3867188 0,-0.070312 -0.058594,-0.082031 -0.070312,-0.082031 -0.011719,0 -0.023437,0 -0.070312,0.023437 -0.1992188,0.070312 -0.5039063,0.140625 -0.8320313,0.140625 -0.28125,0 -0.5625,-0.058594 -0.82031249,-0.140625 -0.0585938,-0.023437 -0.0703125,-0.023437 -0.0703125,-0.023437 -0.0703125,0 -0.0703125,0.058594 -0.0703125,0.140625 v 1.4882812 c 0,0.09375 0,0.1523438 0.09375,0.1523438 0.046875,0 0.0585938,-0.011719 0.10546875,-0.058594 0.18750004,-0.2226562 0.44531254,-0.328125 0.78515624,-0.328125 0.2929688,0 0.4453125,0.1640625 0.515625,0.2695313 0.1171875,0.1640625 0.140625,0.3867187 0.140625,0.6328125 0,0.21093749 -0.011719,0.49218749 -0.2109375,0.67968749 -0.2226562,0.234375 -0.5039062,0.24609375 -0.6210937,0.24609375 -0.3164063,0 -0.67968754,-0.140625 -0.84375004,-0.43359375 0.2109375,-0.0117188 0.28125004,-0.1640625 0.28125004,-0.28125 0,-0.15234375 -0.11718754,-0.28124999 -0.28125004,-0.28124999 -0.10546875,0 -0.26953125,0.070312 -0.26953125,0.29296874 0,0.4921875 0.46875,0.90234375 1.12499999,0.90234375 0.7382813,0 1.3476563,-0.4921875 1.3476563,-1.11328129 0,-0.5625 -0.4804688,-1.0898437 -1.171875,-1.0898437 -0.3164063,0 -0.5625,0.082031 -0.78515629,0.2460937 z m 0,0"
       style="fill:#ffffff;fill-opacity:1;fill-rule:nonzero;stroke:none"
       aria-label="5"
       transform="matrix(1.3333333,0,0,1.3333333,8.8546667,80.518667)" />
    <path
       id="path6"
       d="m 0.92638281,-1.6300234 c 0,-0.234375 0.0117188,-0.6328125 0.18749999,-0.9492188 0.1523438,-0.2695312 0.46875,-0.5507812 0.9375,-0.5507812 0.09375,0 0.3164063,0.011719 0.46875,0.1289062 -0.082031,0.023437 -0.2109375,0.09375 -0.2109375,0.2695313 0,0.1523437 0.1171875,0.2578125 0.2578125,0.2578125 0.09375,0 0.2695313,-0.046875 0.2695313,-0.28125 0,-0.2695313 -0.1875,-0.5625 -0.796875,-0.5625 -0.8554688,0 -1.64062504,0.703125 -1.64062504,1.734375 0,1.18359371 0.5859375,1.68749996 1.31250004,1.68749996 0.4921875,0 0.7265625,-0.17578125 0.890625,-0.31640625 0.3164062,-0.26953125 0.3867187,-0.5625 0.3867187,-0.80859371 0,-0.3046875 -0.09375,-0.5507813 -0.3632812,-0.7734375 -0.2109375,-0.1992188 -0.4453125,-0.3398438 -0.8789063,-0.3398438 -0.28125,0 -0.609375,0.140625 -0.82031249,0.5039063 z m 0.78515629,1.53515621 c -0.77343754,0 -0.77343754,-0.83203125 -0.77343754,-1.03125001 0,-0.3867187 0.28125004,-0.8320312 0.79687504,-0.8320312 0.2578125,0 0.421875,0.058594 0.5742187,0.2578125 0.1523438,0.1875 0.1523438,0.3984375 0.1523438,0.6679687 0,0.29296876 0,0.48046876 -0.1640625,0.67968751 -0.140625,0.1640625 -0.3046875,0.2578125 -0.5859375,0.2578125 z m 0,0"
       style="fill:#ffffff;fill-opacity:1;fill-rule:nonzero;stroke:none"
       aria-label="6"
       transform="matrix(1.3333333,0,0,1.3333333,8.8546667,57.841333)" />
    <path
       id="path7"
       d="M 0,14.17339 12.27454,7.08669 V -7.08669 L 0,-14.17339 -12.27454,-7.08669 V 7.08669 Z"
       style="fill:none;stroke:#ffffff;stroke-width:0.3985;stroke-linecap:butt;stroke-linejoin:miter;stroke-miterlimit:10;stroke-dasharray:none;stroke-opacity:1"
       transform="matrix(1.3333333,0,0,-1.3333333,30.753333,67.04)" />
    <path
       id="path8"
       d="M 0,14.17339 12.27454,-7.08669"
       style="fill:none;stroke:#ffffff;stroke-width:0.3985;stroke-linecap:butt;stroke-linejoin:miter;stroke-miterlimit:10;stroke-dasharray:none;stroke-opacity:1"
       transform="matrix(1.3333333,0,0,-1.3333333,30.753333,67.04)" />
    <path
       id="path9"
       d="M 12.27454,-7.08669 H -12.27454"
       style="fill:none;stroke:#ffffff;stroke-width:0.3985;stroke-linecap:butt;stroke-linejoin:miter;stroke-miterlimit:10;stroke-dasharray:none;stroke-opacity:1"
       transform="matrix(1.3333333,0,0,-1.3333333,30.753333,67.04)" />
    <path
       id="path10"
       d="M 0,14.17339 -12.27454,-7.08669"
       style="fill:none;stroke:#ffffff;stroke-width:0.3985;stroke-linecap:butt;stroke-linejoin:miter;stroke-miterlimit:10;stroke-dasharray:none;stroke-opacity:1"
       transform="matrix(1.3333333,0,0,-1.3333333,30.753333,67.04)" />
    <path
       id="path11"
       d="m 1.9796094,-3.1647891 c 0,-0.1523437 -0.011719,-0.1523437 -0.1757813,-0.1523437 -0.3515625,0.3164062 -0.90234372,0.3164062 -1.00781247,0.3164062 h -0.0820313 v 0.2226563 h 0.0820313 c 0.1171875,0 0.43359377,-0.011719 0.72656247,-0.140625 v 2.48437499 c 0,0.1640625 0,0.2109375 -0.52734372,0.2109375 H 0.74914063 V -7.265625e-4 C 1.0186719,-0.02416406 1.4639844,-0.02416406 1.7569531,-0.02416406 c 0.28125,0 0.7265625,0 0.9960938,0.0234374975 V -0.22338281 H 2.5069531 c -0.5273437,0 -0.5273437,-0.046875 -0.5273437,-0.2109375 z m 0,0"
       style="fill:#ffffff;fill-opacity:1;fill-rule:nonzero;stroke:none"
       aria-label="1"
       transform="matrix(1.3333333,0,0,1.3333333,28.493333,8.708)" />
    <path
       id="path12"
       d="M 2.9302969,-0.96078125 H 2.7193594 c -0.011719,0.09375 -0.058594,0.3984375 -0.140625,0.45703125 -0.035156,0.0234375 -0.4570313,0.0234375 -0.5273438,0.0234375 h -0.984375 c 0.328125,-0.24609375 0.703125,-0.515625 0.9960938,-0.7148438 0.4570312,-0.3164062 0.8671875,-0.5976562 0.8671875,-1.125 0,-0.6445312 -0.5976563,-0.9960937 -1.3125,-0.9960937 -0.66796877,0 -1.16015627,0.3867187 -1.16015627,0.8789062 0,0.2578125 0.2109375,0.3046875 0.28125,0.3046875 0.140625,0 0.29296877,-0.09375 0.29296877,-0.2929687 0,-0.1875 -0.12890627,-0.28125 -0.28125002,-0.2929688 0.140625,-0.234375 0.43359372,-0.375 0.76171872,-0.375 0.4804688,0 0.890625,0.28125 0.890625,0.7734375 0,0.421875 -0.2929687,0.7382813 -0.6796875,1.0546875 l -1.20703122,1.03125005 c -0.046875,0.046875 -0.0585938,0.046875 -0.0585938,0.0820313 V 1.5625e-4 H 2.7662344 Z m 0,0"
       style="fill:#ffffff;fill-opacity:1;fill-rule:nonzero;stroke:none"
       aria-label="2"
       transform="matrix(1.3333333,0,0,1.3333333,48.132,20.046667)" />
    <path
       id="path13"
       d="m 1.6412344,-1.6533516 c 0.4570312,0 0.7617187,0.2929688 0.7617187,0.78515629 0,0.50390625 -0.3046875,0.7734375 -0.75,0.7734375 -0.058594,0 -0.65624997,0 -0.90234372,-0.2578125 0.19921875,-0.0351563 0.25781252,-0.1875 0.25781252,-0.3046875 0,-0.1875 -0.14062502,-0.3046875 -0.30468752,-0.3046875 -0.15234375,0 -0.3046875,0.10546875 -0.3046875,0.31640625 0,0.515625 0.5859375,0.75 1.26562502,0.75 0.8203125,0 1.3242187,-0.4921875 1.3242187,-0.97265625 0,-0.41015629 -0.3632812,-0.76171879 -0.9257812,-0.89062499 0.5976562,-0.1875 0.75,-0.5625 0.75,-0.84375 0,-0.4101563 -0.5039063,-0.7148438 -1.1367188,-0.7148438 -0.609375,0 -1.10156247,0.2578125 -1.10156247,0.703125 0,0.234375 0.1875,0.2929688 0.28125,0.2929688 0.140625,0 0.28124997,-0.1054688 0.28124997,-0.28125 0,-0.1171875 -0.058594,-0.2578125 -0.23437497,-0.28125 0.21093747,-0.234375 0.65624997,-0.2460938 0.76171877,-0.2460938 0.3632812,0 0.6210937,0.1875 0.6210937,0.5273438 0,0.28125 -0.1875,0.7382812 -0.7148437,0.7734375 -0.140625,0 -0.1523438,0 -0.28125,0.011719 -0.058594,0 -0.1171875,0.011719 -0.1171875,0.082031 0,0.082031 0.058594,0.082031 0.140625,0.082031 z m 0,0"
       style="fill:#ffffff;fill-opacity:1;fill-rule:nonzero;stroke:none"
       aria-label="3"
       transform="matrix(1.3333333,0,0,1.3333333,48.132,42.724)" />
    <path
       id="path14"
       d="M 3.0694531,-0.80871875 V -1.031375 H 2.4483594 v -2.1914063 c 0,-0.1171875 0,-0.1523437 -0.1289063,-0.1523437 -0.1054687,0 -0.1054687,0.011719 -0.1640625,0.082031 l -1.83984372,2.261719 v 0.22265625 H 1.9678906 V -0.422 c 0,0.15234375 0,0.19921875 -0.4335937,0.19921875 H 1.3585156 V -1.25e-4 c 0.234375,-0.01171875 0.5625,-0.0234375 0.8554688,-0.0234375 0.28125,0 0.609375,0.01171875 0.84375,0.0234375 V -0.22278125 H 2.8819531 c -0.4335937,0 -0.4335937,-0.046875 -0.4335937,-0.19921875 V -0.80871875 Z M 2.0147656,-2.8360625 V -1.031375 H 0.54992188 Z m 0,0"
       style="fill:#ffffff;fill-opacity:1;fill-rule:nonzero;stroke:none"
       aria-label="4"
       transform="matrix(1.3333333,0,0,1.3333333,28.493333,54.062667)" />
    <path
       id="path15"
       d="m 0.97325781,-2.7431953 c 0.26953129,0.058594 0.49218749,0.058594 0.55078129,0.058594 0.3398437,0 0.5859375,-0.09375 0.7148437,-0.1640625 0.1171875,-0.058594 0.4570313,-0.2695312 0.4570313,-0.3867187 0,-0.070312 -0.058594,-0.082031 -0.070312,-0.082031 -0.011719,0 -0.023437,0 -0.070312,0.023437 -0.1992188,0.070312 -0.5039063,0.140625 -0.8320313,0.140625 -0.28125,0 -0.5625,-0.058594 -0.82031249,-0.140625 -0.0585938,-0.023437 -0.0703125,-0.023437 -0.0703125,-0.023437 -0.0703125,0 -0.0703125,0.058594 -0.0703125,0.140625 v 1.4882813 c 0,0.09375 0,0.1523437 0.09375,0.1523437 0.046875,0 0.0585938,-0.011719 0.10546875,-0.058594 0.18750004,-0.2226563 0.44531254,-0.328125 0.78515624,-0.328125 0.2929688,0 0.4453125,0.1640625 0.515625,0.2695312 0.1171875,0.1640625 0.140625,0.3867188 0.140625,0.6328125 0,0.21093754 -0.011719,0.49218754 -0.2109375,0.67968754 -0.2226562,0.234375 -0.5039062,0.24609375 -0.6210937,0.24609375 -0.3164063,0 -0.67968754,-0.140625 -0.84375004,-0.43359375 0.2109375,-0.0117188 0.28125004,-0.1640625 0.28125004,-0.28125 0,-0.15234375 -0.11718754,-0.28125004 -0.28125004,-0.28125004 -0.10546875,0 -0.26953125,0.070312 -0.26953125,0.29296879 0,0.4921875 0.46875,0.90234375 1.12499999,0.90234375 0.7382813,0 1.3476563,-0.4921875 1.3476563,-1.11328124 0,-0.5625 -0.4804688,-1.0898438 -1.171875,-1.0898438 -0.3164063,0 -0.5625,0.082031 -0.78515629,0.2460938 z m 0,0"
       style="fill:#ffffff;fill-opacity:1;fill-rule:nonzero;stroke:none"
       aria-label="5"
       transform="matrix(1.3333333,0,0,1.3333333,8.8546667,42.724)" />
    <path
       id="path16"
       d="m 0.92638281,-1.62875 c 0,-0.234375 0.0117188,-0.6328125 0.18749999,-0.9492188 0.1523438,-0.2695312 0.46875,-0.5507812 0.9375,-0.5507812 0.09375,0 0.3164063,0.011719 0.46875,0.1289062 -0.082031,0.023437 -0.2109375,0.09375 -0.2109375,0.2695313 0,0.1523437 0.1171875,0.2578125 0.2578125,0.2578125 0.09375,0 0.2695313,-0.046875 0.2695313,-0.28125 0,-0.2695313 -0.1875,-0.5625 -0.796875,-0.5625 -0.8554688,0 -1.64062504,0.703125 -1.64062504,1.734375 0,1.18359375 0.5859375,1.6875 1.31250004,1.6875 0.4921875,0 0.7265625,-0.17578125 0.890625,-0.31640625 0.3164062,-0.26953125 0.3867187,-0.5625 0.3867187,-0.80859375 0,-0.3046875 -0.09375,-0.5507813 -0.3632812,-0.7734375 -0.2109375,-0.1992188 -0.4453125,-0.3398438 -0.8789063,-0.3398438 -0.28125,0 -0.609375,0.140625 -0.82031249,0.5039063 z m 0.78515629,1.53515625 c -0.77343754,0 -0.77343754,-0.83203125 -0.77343754,-1.03125005 0,-0.3867187 0.28125004,-0.8320312 0.79687504,-0.8320312 0.2578125,0 0.421875,0.058594 0.5742187,0.2578125 0.1523438,0.1875 0.1523438,0.3984375 0.1523438,0.6679687 0,0.2929688 0,0.4804688 -0.1640625,0.67968755 -0.140625,0.1640625 -0.3046875,0.2578125 -0.5859375,0.2578125 z m 0,0"
       style="fill:#ffffff;fill-opacity:1;fill-rule:nonzero;stroke:none"
       aria-label="6"
       transform="matrix(1.3333333,0,0,1.3333333,8.8546667,20.046667)" />
    <path
       id="path17"
       d="M 0,42.5202 12.27454,35.43349 V 21.26012 L 0,14.1734 -12.27454,21.26012 v 14.17337 z"
       style="fill:none;stroke:#ffffff;stroke-width:0.3985;stroke-linecap:butt;stroke-linejoin:miter;stroke-miterlimit:10;stroke-dasharray:none;stroke-opacity:1"
       transform="matrix(1.3333333,0,0,-1.3333333,30.753333,67.04)" />
    <path
       id="path18"
       d="M 0,42.5202 12.27454,21.26012"
       style="fill:none;stroke:#ffffff;stroke-width:0.3985;stroke-linecap:butt;stroke-linejoin:miter;stroke-miterlimit:10;stroke-dasharray:none;stroke-opacity:1"
       transform="matrix(1.3333333,0,0,-1.3333333,30.753333,67.04)" />
    <path
       id="path19"
       d="M 0,42.5202 V 14.1734"
       style="fill:none;stroke:#ffffff;stroke-width:0.3985;stroke-linecap:butt;stroke-linejoin:miter;stroke-miterlimit:10;stroke-dasharray:none;stroke-opacity:1"
       transform="matrix(1.3333333,0,0,-1.3333333,30.753333,67.04)" />
    <path
       id="path20"
       d="M 0,42.5202 -12.27454,21.26012"
       style="fill:none;stroke:#ffffff;stroke-width:0.3985;stroke-linecap:butt;stroke-linejoin:miter;stroke-miterlimit:10;stroke-dasharray:none;stroke-opacity:1"
       transform="matrix(1.3333333,0,0,-1.3333333,30.753333,67.04)" />
  </g>
</svg>
