<?xml version="1.0" encoding="UTF-8" standalone="no"?>
<!-- Created with Inkscape (http://www.inkscape.org/) -->

<svg
   version="1.1"
   id="svg1"
   width="223.58133"
   height="147.076"
   viewBox="0 0 223.58133 147.076"
   xmlns="http://www.w3.org/2000/svg"
   xmlns:svg="http://www.w3.org/2000/svg">
  <defs
     id="defs1" />
  <g
     id="g1">
    <path
       id="path1"
       d="M -10.10077,-49.1259 V 61.18237 H 137.6614 V -49.1259 Z"
       style="fill:#282a36;fill-opacity:1;fill-rule:nonzero;stroke:none"
       transform="matrix(1.3333333,0,0,-1.3333333,40.034667,81.576)" />
    <path
       id="path2"
       d="M 0,0 14.17339,14.17339 28.3468,28.3468 42.5202,14.17339 56.69362,28.3468 70.867,14.17339 85.04042,28.3468 99.21382,42.5202 113.38724,56.69362 127.56062,42.5202"
       style="fill:none;stroke:#ffffff;stroke-width:0.3985;stroke-linecap:butt;stroke-linejoin:miter;stroke-miterlimit:10;stroke-dasharray:none;stroke-opacity:1"
       transform="matrix(1.3333333,0,0,-1.3333333,40.034667,81.576)" />
    <path
       id="path3"
       d="M 0,-1.4174 14.17339,12.75595 28.3468,-1.4174 42.5202,12.75595 56.69362,26.92937 70.867,12.75595 l 14.17342,14.17342 14.1734,14.1734 14.17342,-14.1734 14.17338,14.1734"
       style="fill:none;stroke:#ffffff;stroke-width:0.3985;stroke-linecap:butt;stroke-linejoin:miter;stroke-miterlimit:10;stroke-dasharray:none;stroke-opacity:1"
       transform="matrix(1.3333333,0,0,-1.3333333,40.034667,81.576)" />
    <path
       id="path4"
       d="M 0,-2.83484 14.17339,11.33855 28.3468,-2.83484 42.5202,11.33855 56.69362,25.51193 70.867,11.33855 l 14.17342,14.17338 14.1734,14.17342 14.17342,-14.17342 14.17338,14.17342"
       style="fill:none;stroke:#ffffff;stroke-width:0.3985;stroke-linecap:butt;stroke-linejoin:miter;stroke-miterlimit:10;stroke-dasharray:none;stroke-opacity:1"
       transform="matrix(1.3333333,0,0,-1.3333333,40.034667,81.576)" />
    <path
       id="path5"
       d="M 0,-4.25183 14.17339,9.92155 28.3468,-4.25183 42.5202,9.92155 56.69362,-4.25183 70.867,9.92155 85.04042,24.09494 99.21382,9.92155 l 14.17342,14.17339 14.17338,14.17342"
       style="fill:none;stroke:#ffffff;stroke-width:0.3985;stroke-linecap:butt;stroke-linejoin:miter;stroke-miterlimit:10;stroke-dasharray:none;stroke-opacity:1"
       transform="matrix(1.3333333,0,0,-1.3333333,40.034667,81.576)" />
    <path
       id="path6"
       d="M 0,-5.66927 14.17339,-19.84267 28.3468,-5.66927 42.5202,8.50412 56.69362,-5.66927 70.867,8.50412 l 14.17342,14.1734 14.1734,-14.1734 14.17342,14.1734 14.17338,14.1734"
       style="fill:none;stroke:#ffffff;stroke-width:0.3985;stroke-linecap:butt;stroke-linejoin:miter;stroke-miterlimit:10;stroke-dasharray:none;stroke-opacity:1"
       transform="matrix(1.3333333,0,0,-1.3333333,40.034667,81.576)" />
    <path
       id="path7"
       d="M 0,-7.08669 14.17339,-21.2601 28.3468,-7.08669 42.5202,7.08669 56.69362,-7.08669 70.867,7.08669 85.04042,-7.08669 99.21382,7.08669 113.38724,21.2601 127.56062,35.43349"
       style="fill:none;stroke:#ffffff;stroke-width:0.3985;stroke-linecap:butt;stroke-linejoin:miter;stroke-miterlimit:10;stroke-dasharray:none;stroke-opacity:1"
       transform="matrix(1.3333333,0,0,-1.3333333,40.034667,81.576)" />
    <path
       id="path8"
       d="m 0,-8.50412 14.17339,-14.1734 14.17341,14.1734 14.1734,-14.1734 14.17342,14.1734 14.17338,14.17339 14.17342,-14.17339 14.1734,14.17339 14.17342,14.1734 14.17338,14.17341"
       style="fill:none;stroke:#ffffff;stroke-width:0.3985;stroke-linecap:butt;stroke-linejoin:miter;stroke-miterlimit:10;stroke-dasharray:none;stroke-opacity:1"
       transform="matrix(1.3333333,0,0,-1.3333333,40.034667,81.576)" />
    <path
       id="path9"
       d="M 0,-38.26836 14.17339,-24.09494 28.3468,-9.92155 42.5202,-24.09494 56.69362,-9.92155 70.867,4.25183 85.04042,-9.92155 l 14.1734,14.17338 14.17342,14.1734 14.17338,-14.1734"
       style="fill:none;stroke:#ffffff;stroke-width:0.3985;stroke-linecap:butt;stroke-linejoin:miter;stroke-miterlimit:10;stroke-dasharray:none;stroke-opacity:1"
       transform="matrix(1.3333333,0,0,-1.3333333,40.034667,81.576)" />
    <path
       id="path10"
       d="m 2.9295859,-6.3748906 c 0,-0.234375 0,-0.2578125 -0.234375,-0.2578125 -0.609375,0.6328125 -1.4882812,0.6328125 -1.80468746,0.6328125 v 0.3164062 c 0.19921876,0 0.78515626,0 1.30078126,-0.2578125 v 5.15625003 c 0,0.3515625 -0.035156,0.48046875 -0.9257813,0.48046875 H 0.94911719 V 1.09375e-4 C 1.3006797,-0.03504687 2.1561484,-0.03504687 2.5545859,-0.03504687 c 0.3984375,0 1.265625,0 1.6171875,0.035156245 V -0.30457812 H 3.8553672 c -0.9023438,0 -0.9257813,-0.1171875 -0.9257813,-0.48046875 z m 0,0"
       style="fill:#ffffff;fill-opacity:1;fill-rule:nonzero;stroke:none"
       aria-label="1"
       transform="matrix(1.3333333,0,0,1.3333333,187.89467,25.382667)" />
    <path
       id="path11"
       d="m 2.9285469,-6.3762266 c 0,-0.234375 0,-0.2578125 -0.234375,-0.2578125 -0.609375,0.6328125 -1.4882813,0.6328125 -1.80468752,0.6328125 v 0.3164063 c 0.19921872,0 0.78515622,0 1.30078122,-0.2578125 v 5.15624999 c 0,0.3515625 -0.035156,0.48046875 -0.9257812,0.48046875 H 0.94807813 v 0.3046875 C 1.2996406,-0.03638281 2.1551094,-0.03638281 2.5535469,-0.03638281 c 0.3984375,0 1.265625,0 1.6171875,0.03515625 v -0.3046875 H 3.8543281 c -0.9023437,0 -0.9257812,-0.1171875 -0.9257812,-0.48046875 z m 0,0"
       style="fill:#ffffff;fill-opacity:1;fill-rule:nonzero;stroke:none"
       aria-label="1"
       transform="matrix(1.3333333,0,0,1.3333333,74.509333,66.958667)" />
    <path
       id="path12"
       d="m 2.8950469,-3.5031953 c 0.8085937,-0.2695313 1.3945312,-0.9726563 1.3945312,-1.7578125 0,-0.8203125 -0.8789062,-1.3710938 -1.8398437,-1.3710938 -1.0078125,0 -1.75781253,0.5976563 -1.75781253,1.3476563 0,0.3398437 0.2109375,0.5273437 0.50390623,0.5273437 0.3046875,0 0.5039063,-0.2226562 0.5039063,-0.515625 0,-0.4921875 -0.46875,-0.4921875 -0.609375,-0.4921875 0.3046875,-0.4921875 0.9609375,-0.6210937 1.3242187,-0.6210937 0.4101563,0 0.9492188,0.2226562 0.9492188,1.1132812 0,0.1289063 -0.011719,0.703125 -0.2695313,1.1367188 -0.3046875,0.4804687 -0.6445312,0.515625 -0.890625,0.515625 -0.082031,0.011719 -0.3164062,0.035156 -0.3867187,0.035156 -0.082031,0.011719 -0.1523438,0.023437 -0.1523438,0.1171875 0,0.1171875 0.070312,0.1171875 0.234375,0.1171875 h 0.4453125 c 0.8085938,0 1.1835938,0.6679688 1.1835938,1.6523438 0,1.34765624 -0.6914063,1.64062499 -1.125,1.64062499 -0.4335938,0 -1.171875,-0.17578125 -1.52343753,-0.76171875 0.35156253,0.0585938 0.65625003,-0.1640625 0.65625003,-0.53906254 0,-0.3632812 -0.2695313,-0.5625 -0.56250003,-0.5625 -0.234375,0 -0.55078125,0.140625 -0.55078125,0.5742188 0,0.91406249 0.92578128,1.57031249 2.00390628,1.57031249 1.21875,0 2.1210937,-0.9140625 2.1210937,-1.92187499 0,-0.8203125 -0.6210937,-1.59375 -1.6523437,-1.8046873 z m 0,0"
       style="fill:#ffffff;fill-opacity:1;fill-rule:nonzero;stroke:none"
       aria-label="3"
       transform="matrix(1.3333333,0,0,1.3333333,112.304,70.737333)" />
    <path
       id="path13"
       d="m 4.4777344,-2.0051875 c 0,-1.1835937 -0.8203125,-2.1796875 -1.8984375,-2.1796875 -0.4804688,0 -0.9023438,0.1640625 -1.265625,0.5039063 v -1.9335938 c 0.1992187,0.058594 0.5273437,0.1289063 0.84375,0.1289063 1.2304687,0 1.9335937,-0.9140625 1.9335937,-1.0429688 0,-0.058594 -0.035156,-0.1054687 -0.1054687,-0.1054687 -0.011719,0 -0.035156,0 -0.082031,0.023437 -0.1992187,0.09375 -0.6796875,0.2929687 -1.3476562,0.2929687 -0.3984375,0 -0.8554688,-0.070312 -1.3242188,-0.28125 -0.082031,-0.023437 -0.1054687,-0.023437 -0.1289062,-0.023437 -0.09375,0 -0.09375,0.082031 -0.09375,0.234375 v 2.953125 c 0,0.1757813 0,0.2578125 0.140625,0.2578125 0.070312,0 0.082031,-0.035156 0.1289062,-0.09375 0.1054688,-0.1523437 0.4804688,-0.6914062 1.2773438,-0.6914062 0.5273437,0 0.7734375,0.4570312 0.8554687,0.6328125 0.1523438,0.375 0.1757813,0.7617187 0.1757813,1.2539062 0,0.3515625 0,0.9492188 -0.234375,1.37109375 -0.2460938,0.38671875 -0.609375,0.64453125 -1.0664063,0.64453125 -0.7265625,0 -1.30078123,-0.52734375 -1.46484373,-1.1132812 0.0234375,0.011719 0.0585938,0.011719 0.1640625,0.011719 0.32812503,0 0.50390623,-0.2460937 0.50390623,-0.4804687 0,-0.2460938 -0.1757812,-0.4921875 -0.50390623,-0.4921875 -0.140625,0 -0.48046875,0.070312 -0.48046875,0.5273437 0,0.85546875 0.67968748,1.828125 1.79296878,1.828125 1.1601562,0 2.1796875,-0.9609375 2.1796872,-2.2265628 z m 0,0"
       style="fill:#ffffff;fill-opacity:1;fill-rule:nonzero;stroke:none"
       aria-label="5"
       transform="matrix(1.3333333,0,0,1.3333333,150.1,74.517333)" />
    <path
       id="path14"
       d="M 1.6288047,-4.5481562 C 1.1600547,-4.8528437 1.1248984,-5.1926875 1.1248984,-5.35675 c 0,-0.609375 0.6445313,-1.03125 1.359375,-1.03125 0.7265625,0 1.359375,0.515625 1.359375,1.2421875 0,0.5625 -0.3867187,1.0429688 -0.984375,1.3945313 z m 1.453125,0.9375 c 0.7148437,-0.3632813 1.2070312,-0.8789063 1.2070312,-1.5351563 0,-0.9257812 -0.890625,-1.4882812 -1.7929687,-1.4882812 -0.9960938,0 -1.80468751,0.7382812 -1.80468751,1.6640625 0,0.1757812 0.0117188,0.6210937 0.43359371,1.0898437 0.1054688,0.1289063 0.4804688,0.375 0.7265625,0.5390625 -0.5742187,0.2929688 -1.42968746,0.84375 -1.42968746,1.8398438 0,1.05468745 1.00781246,1.7226562 2.06249996,1.7226562 1.125,0 2.0625,-0.83203125 2.0625,-1.8984375 0,-0.3515625 -0.1054687,-0.8085937 -0.4804687,-1.21875 -0.1875,-0.2109375 -0.3515625,-0.3164062 -0.984375,-0.7148437 z m -0.9960938,0.421875 1.21875,0.7734375 c 0.28125,0.1875 0.75,0.4921875 0.75,1.1015625 0,0.7382812 -0.75,1.2539062 -1.5585937,1.2539062 -0.8671875,0 -1.58203126,-0.62109375 -1.58203126,-1.4414062 0,-0.5859375 0.31640626,-1.21875 1.17187496,-1.6875 z m 0,0"
       style="fill:#ffffff;fill-opacity:1;fill-rule:nonzero;stroke:none"
       aria-label="8"
       transform="matrix(1.3333333,0,0,1.3333333,187.89467,74.517333)" />
    <path
       id="path15"
       d="m 2.8936016,-3.5049922 c 0.8085937,-0.2695312 1.3945312,-0.9726562 1.3945312,-1.7578125 0,-0.8203125 -0.8789062,-1.3710937 -1.8398437,-1.3710937 -1.0078125,0 -1.75781254,0.5976562 -1.75781254,1.3476562 0,0.3398438 0.2109375,0.5273438 0.50390624,0.5273438 0.3046875,0 0.5039063,-0.2226563 0.5039063,-0.515625 0,-0.4921875 -0.46875,-0.4921875 -0.609375,-0.4921875 0.3046875,-0.4921875 0.9609375,-0.6210938 1.3242187,-0.6210938 0.4101563,0 0.9492188,0.2226563 0.9492188,1.1132813 0,0.1289062 -0.011719,0.703125 -0.2695313,1.1367187 -0.3046875,0.4804688 -0.6445312,0.515625 -0.890625,0.515625 -0.082031,0.011719 -0.3164062,0.035156 -0.3867187,0.035156 -0.082031,0.011719 -0.1523438,0.023437 -0.1523438,0.1171875 0,0.1171875 0.070312,0.1171875 0.234375,0.1171875 h 0.4453125 c 0.8085938,0 1.1835938,0.6679687 1.1835938,1.6523437 0,1.34765626 -0.6914063,1.64062501 -1.125,1.64062501 -0.4335938,0 -1.171875,-0.17578125 -1.52343754,-0.76171875 0.35156254,0.0585938 0.65625004,-0.1640625 0.65625004,-0.53906246 0,-0.3632813 -0.2695313,-0.5625 -0.56250004,-0.5625 -0.234375,0 -0.55078125,0.140625 -0.55078125,0.5742187 0,0.91406251 0.92578129,1.57031251 2.00390629,1.57031251 1.21875,0 2.1210937,-0.9140625 2.1210937,-1.92187501 0,-0.8203125 -0.6210937,-1.59375 -1.6523437,-1.8046872 z m 0,0"
       style="fill:#ffffff;fill-opacity:1;fill-rule:nonzero;stroke:none"
       aria-label="3"
       transform="matrix(1.3333333,0,0,1.3333333,168.99733,49.950667)" />
    <path
       id="path16"
       d="m 4.7468203,-6.0714531 c 0.082031,-0.1171875 0.082031,-0.140625 0.082031,-0.3398438 H 2.4147891 c -1.21875,0 -1.2421875,-0.1289062 -1.2773438,-0.328125 H 0.89135156 l -0.328125,2.0507813 h 0.24609375 c 0.0234375,-0.1523438 0.1171875,-0.7851563 0.24609379,-0.9023438 0.070312,-0.058594 0.84375,-0.058594 0.9726562,-0.058594 h 2.0625 c -0.1054687,0.1640625 -0.890625,1.2421875 -1.1132812,1.5703125 -0.890625,1.3476562 -1.21875,2.7304687 -1.21875,3.74999998 0,0.09375 0,0.55078125 0.4570312,0.55078125 0.4570313,0 0.4570313,-0.45703125 0.4570313,-0.55078125 v -0.50390625 c 0,-0.55078123 0.023437,-1.10156253 0.1054687,-1.64062503 0.046875,-0.2226562 0.1757813,-1.078125 0.6210938,-1.6992187 z m 0,0"
       style="fill:#ffffff;fill-opacity:1;fill-rule:nonzero;stroke:none"
       aria-label="7"
       transform="matrix(1.3333333,0,0,1.3333333,206.792,57.509333)" />
    <path
       id="path17"
       d="m 4.7472266,-6.0709922 c 0.082031,-0.1171875 0.082031,-0.140625 0.082031,-0.3398437 H 2.4151953 c -1.21875,0 -1.2421875,-0.1289063 -1.2773437,-0.328125 H 0.89175781 l -0.328125,2.0507812 h 0.24609375 c 0.0234375,-0.1523437 0.1171875,-0.7851562 0.24609374,-0.9023437 0.070312,-0.058594 0.84375,-0.058594 0.9726563,-0.058594 h 2.0625 c -0.1054688,0.1640625 -0.890625,1.2421875 -1.1132813,1.5703125 -0.890625,1.3476563 -1.21875,2.7304688 -1.21875,3.75000001 0,0.09375 0,0.55078125 0.4570313,0.55078125 0.4570312,0 0.4570312,-0.45703125 0.4570312,-0.55078125 v -0.50390625 c 0,-0.55078126 0.023437,-1.10156246 0.1054688,-1.64062496 0.046875,-0.2226563 0.1757812,-1.078125 0.6210937,-1.6992188 z m 0,0"
       style="fill:#ffffff;fill-opacity:1;fill-rule:nonzero;stroke:none"
       aria-label="7"
       transform="matrix(1.3333333,0,0,1.3333333,36.713333,119.872)" />
    <path
       id="path18"
       d="m 1.6277656,-4.5475547 c -0.46875,-0.3046875 -0.5039062,-0.6445312 -0.5039062,-0.8085937 0,-0.609375 0.6445312,-1.03125 1.359375,-1.03125 0.7265625,0 1.359375,0.515625 1.359375,1.2421875 0,0.5625 -0.3867188,1.0429687 -0.984375,1.3945312 z m 1.453125,0.9375 c 0.7148438,-0.3632812 1.2070313,-0.8789062 1.2070313,-1.5351562 0,-0.9257813 -0.890625,-1.4882813 -1.7929688,-1.4882813 -0.9960937,0 -1.80468747,0.7382813 -1.80468747,1.6640625 0,0.1757813 0.0117188,0.6210938 0.43359377,1.0898438 0.1054687,0.1289062 0.4804687,0.375 0.7265625,0.5390625 -0.5742188,0.2929687 -1.42968752,0.84375 -1.42968752,1.8398437 0,1.05468751 1.00781252,1.72265626 2.06250002,1.72265626 1.125,0 2.0625,-0.83203125 2.0625,-1.89843746 0,-0.3515625 -0.1054688,-0.8085938 -0.4804688,-1.21875 -0.1875,-0.2109375 -0.3515625,-0.3164063 -0.984375,-0.7148438 z m -0.9960937,0.421875 1.21875,0.7734375 c 0.28125,0.1875 0.75,0.4921875 0.75,1.1015625 0,0.73828126 -0.75,1.25390626 -1.5585938,1.25390626 -0.8671875,0 -1.58203122,-0.62109375 -1.58203122,-1.44140626 0,-0.5859375 0.31640622,-1.21875 1.17187502,-1.6875 z m 0,0"
       style="fill:#ffffff;fill-opacity:1;fill-rule:nonzero;stroke:none"
       aria-label="8"
       transform="matrix(1.3333333,0,0,1.3333333,74.509333,119.872)" />
    <path
       id="path19"
       d="m 1.6294219,-4.5475547 c -0.46875,-0.3046875 -0.5039063,-0.6445312 -0.5039063,-0.8085937 0,-0.609375 0.6445313,-1.03125 1.359375,-1.03125 0.7265625,0 1.359375,0.515625 1.359375,1.2421875 0,0.5625 -0.3867187,1.0429687 -0.984375,1.3945312 z m 1.453125,0.9375 c 0.7148437,-0.3632812 1.2070312,-0.8789062 1.2070312,-1.5351562 0,-0.9257813 -0.890625,-1.4882813 -1.7929687,-1.4882813 -0.9960938,0 -1.80468753,0.7382813 -1.80468753,1.6640625 0,0.1757813 0.0117188,0.6210938 0.43359373,1.0898438 0.1054688,0.1289062 0.4804688,0.375 0.7265625,0.5390625 -0.5742187,0.2929687 -1.42968748,0.84375 -1.42968748,1.8398437 0,1.05468751 1.00781248,1.72265626 2.06249998,1.72265626 1.125,0 2.0625,-0.83203125 2.0625,-1.89843746 0,-0.3515625 -0.1054687,-0.8085938 -0.4804687,-1.21875 -0.1875,-0.2109375 -0.3515625,-0.3164063 -0.984375,-0.7148438 z m -0.9960938,0.421875 1.21875,0.7734375 c 0.28125,0.1875 0.75,0.4921875 0.75,1.1015625 0,0.73828126 -0.75,1.25390626 -1.5585937,1.25390626 -0.8671875,0 -1.58203128,-0.62109375 -1.58203128,-1.44140626 0,-0.5859375 0.31640628,-1.21875 1.17187498,-1.6875 z m 0,0"
       style="fill:#ffffff;fill-opacity:1;fill-rule:nonzero;stroke:none"
       aria-label="8"
       transform="matrix(1.3333333,0,0,1.3333333,112.304,119.872)" />
    <path
       id="path20"
       d="m 1.6300781,-4.5475547 c -0.46875,-0.3046875 -0.5039062,-0.6445312 -0.5039062,-0.8085937 0,-0.609375 0.6445312,-1.03125 1.359375,-1.03125 0.7265625,0 1.359375,0.515625 1.359375,1.2421875 0,0.5625 -0.3867188,1.0429687 -0.984375,1.3945312 z m 1.453125,0.9375 c 0.7148438,-0.3632812 1.2070313,-0.8789062 1.2070313,-1.5351562 0,-0.9257813 -0.890625,-1.4882813 -1.7929688,-1.4882813 -0.9960937,0 -1.80468748,0.7382813 -1.80468748,1.6640625 0,0.1757813 0.0117188,0.6210938 0.43359378,1.0898438 0.1054687,0.1289062 0.4804687,0.375 0.7265625,0.5390625 -0.5742188,0.2929687 -1.42968753,0.84375 -1.42968753,1.8398437 0,1.05468751 1.00781253,1.72265626 2.06250003,1.72265626 1.125,0 2.0625,-0.83203125 2.0625,-1.89843746 0,-0.3515625 -0.1054688,-0.8085938 -0.4804688,-1.21875 -0.1875,-0.2109375 -0.3515625,-0.3164063 -0.984375,-0.7148438 z m -0.9960937,0.421875 1.21875,0.7734375 c 0.28125,0.1875 0.75,0.4921875 0.75,1.1015625 0,0.73828126 -0.75,1.25390626 -1.5585938,1.25390626 -0.8671875,0 -1.58203123,-0.62109375 -1.58203123,-1.44140626 0,-0.5859375 0.31640623,-1.21875 1.17187503,-1.6875 z m 0,0"
       style="fill:#ffffff;fill-opacity:1;fill-rule:nonzero;stroke:none"
       aria-label="8"
       transform="matrix(1.3333333,0,0,1.3333333,150.1,119.872)" />
    <path
       id="path21"
       d="m 1.6288047,-4.5475547 c -0.46875,-0.3046875 -0.5039063,-0.6445312 -0.5039063,-0.8085937 0,-0.609375 0.6445313,-1.03125 1.359375,-1.03125 0.7265625,0 1.359375,0.515625 1.359375,1.2421875 0,0.5625 -0.3867187,1.0429687 -0.984375,1.3945312 z m 1.453125,0.9375 c 0.7148437,-0.3632812 1.2070312,-0.8789062 1.2070312,-1.5351562 0,-0.9257813 -0.890625,-1.4882813 -1.7929687,-1.4882813 -0.9960938,0 -1.80468751,0.7382813 -1.80468751,1.6640625 0,0.1757813 0.0117188,0.6210938 0.43359371,1.0898438 0.1054688,0.1289062 0.4804688,0.375 0.7265625,0.5390625 -0.5742187,0.2929687 -1.42968746,0.84375 -1.42968746,1.8398437 0,1.05468751 1.00781246,1.72265626 2.06249996,1.72265626 1.125,0 2.0625,-0.83203125 2.0625,-1.89843746 0,-0.3515625 -0.1054687,-0.8085938 -0.4804687,-1.21875 -0.1875,-0.2109375 -0.3515625,-0.3164063 -0.984375,-0.7148438 z m -0.9960938,0.421875 1.21875,0.7734375 c 0.28125,0.1875 0.75,0.4921875 0.75,1.1015625 0,0.73828126 -0.75,1.25390626 -1.5585937,1.25390626 -0.8671875,0 -1.58203126,-0.62109375 -1.58203126,-1.44140626 0,-0.5859375 0.31640626,-1.21875 1.17187496,-1.6875 z m 0,0"
       style="fill:#ffffff;fill-opacity:1;fill-rule:nonzero;stroke:none"
       aria-label="8"
       transform="matrix(1.3333333,0,0,1.3333333,187.89467,119.872)" />
    <path
       id="path22"
       d="m 2.9287188,-1.6410781 v 0.86718748 c 0,0.3515625 -0.023437,0.46875 -0.7617188,0.46875 H 1.9560625 v 0.304687495 c 0.4101563,-0.035156245 0.9375,-0.035156245 1.3476563,-0.035156245 0.421875,0 0.9492187,0 1.359375,0.035156245 V -0.30514062 H 4.4521563 c -0.7382813,0 -0.7617188,-0.1171875 -0.7617188,-0.46875 V -1.6410781 H 4.6865313 V -1.9574844 H 3.6904375 v -4.5234375 c 0,-0.1992187 0,-0.2578125 -0.1523437,-0.2578125 -0.09375,0 -0.1171875,0 -0.1992188,0.1171875 l -3.05859375,4.6640625 v 0.3164063 z m 0.058594,-0.3164063 H 0.56153125 L 2.9873125,-5.6723281 Z m 0,0"
       style="fill:#ffffff;fill-opacity:1;fill-rule:nonzero;stroke:none"
       aria-label="4"
       transform="matrix(1.3333333,0,0,1.3333333,55.610667,93.414667)" />
    <path
       id="path23"
       d="m 1.3121875,-3.2690469 v -0.234375 c 0,-2.5195312 1.2421875,-2.8828125 1.7460937,-2.8828125 0.234375,0 0.65625,0.058594 0.8789063,0.3984375 -0.1523438,0 -0.5507813,0 -0.5507813,0.4453125 0,0.3164063 0.234375,0.4570313 0.4570313,0.4570313 0.1640625,0 0.4570312,-0.082031 0.4570312,-0.46875 0,-0.5976563 -0.4335937,-1.078125 -1.265625,-1.078125 -1.2773437,0 -2.6132812,1.2890625 -2.6132812,3.4804687 0,2.66015627 1.1484375,3.37500002 2.0742187,3.37500002 1.1132813,0 2.0507813,-0.9375 2.0507813,-2.25000002 0,-1.265625 -0.8789063,-2.2265625 -1.9921875,-2.2265625 -0.6679688,0 -1.0429688,0.5039063 -1.2421875,0.984375 z m 1.1835937,3.21093752 c -0.6210937,0 -0.9257812,-0.59765625 -0.984375,-0.75 C 1.335625,-1.2768594 1.335625,-2.0737344 1.335625,-2.2495156 c 0,-0.7734375 0.3164062,-1.7695313 1.21875,-1.7695313 0.1523437,0 0.609375,0 0.9257812,0.609375 0.1757813,0.375 0.1757813,0.8789063 0.1757813,1.3710938 0,0.4804687 0,0.9726562 -0.1640625,1.33593747 -0.3046875,0.59765625 -0.7617188,0.64453125 -0.9960938,0.64453125 z m 0,0"
       style="fill:#ffffff;fill-opacity:1;fill-rule:nonzero;stroke:none"
       aria-label="6"
       transform="matrix(1.3333333,0,0,1.3333333,93.406667,97.194667)" />
    <path
       id="path24"
       d="M 1.63025,-4.5463906 C 1.1615,-4.8510781 1.1263438,-5.1909219 1.1263438,-5.3549844 c 0,-0.609375 0.6445312,-1.03125 1.359375,-1.03125 0.7265625,0 1.359375,0.515625 1.359375,1.2421875 0,0.5625 -0.3867188,1.0429688 -0.984375,1.3945313 z m 1.453125,0.9375 c 0.7148438,-0.3632813 1.2070313,-0.8789063 1.2070313,-1.5351563 0,-0.9257812 -0.890625,-1.4882812 -1.7929688,-1.4882812 -0.9960937,0 -1.8046875,0.7382812 -1.8046875,1.6640625 0,0.1757812 0.0117188,0.6210937 0.4335938,1.0898437 0.1054687,0.1289063 0.4804687,0.375 0.7265625,0.5390625 -0.5742188,0.2929688 -1.42968755,0.84375 -1.42968755,1.8398438 0,1.05468747 1.00781255,1.72265622 2.06250005,1.72265622 1.125,0 2.0625,-0.83203125 2.0625,-1.89843752 0,-0.3515625 -0.1054688,-0.8085937 -0.4804688,-1.21875 -0.1875,-0.2109375 -0.3515625,-0.3164062 -0.984375,-0.7148437 z m -0.9960937,0.421875 1.21875,0.7734375 c 0.28125,0.1875 0.75,0.4921875 0.75,1.1015625 0,0.73828122 -0.75,1.25390622 -1.5585938,1.25390622 -0.8671875,0 -1.58203125,-0.62109375 -1.58203125,-1.44140622 0,-0.5859375 0.31640625,-1.21875 1.17187505,-1.6875 z m 0,0"
       style="fill:#ffffff;fill-opacity:1;fill-rule:nonzero;stroke:none"
       aria-label="8"
       transform="matrix(1.3333333,0,0,1.3333333,131.20133,97.194667)" />
    <path
       id="path25"
       d="m 1.6279766,-4.5463906 c -0.46875,-0.3046875 -0.5039063,-0.6445313 -0.5039063,-0.8085938 0,-0.609375 0.6445313,-1.03125 1.359375,-1.03125 0.7265625,0 1.359375,0.515625 1.359375,1.2421875 0,0.5625 -0.3867187,1.0429688 -0.984375,1.3945313 z m 1.453125,0.9375 c 0.7148437,-0.3632813 1.2070312,-0.8789063 1.2070312,-1.5351563 0,-0.9257812 -0.890625,-1.4882812 -1.7929687,-1.4882812 -0.9960938,0 -1.80468754,0.7382812 -1.80468754,1.6640625 0,0.1757812 0.0117188,0.6210937 0.43359374,1.0898437 0.1054688,0.1289063 0.4804688,0.375 0.7265625,0.5390625 -0.5742187,0.2929688 -1.42968749,0.84375 -1.42968749,1.8398438 0,1.05468747 1.00781249,1.72265622 2.06249999,1.72265622 1.125,0 2.0625,-0.83203125 2.0625,-1.89843752 0,-0.3515625 -0.1054687,-0.8085937 -0.4804687,-1.21875 -0.1875,-0.2109375 -0.3515625,-0.3164062 -0.984375,-0.7148437 z m -0.9960938,0.421875 1.21875,0.7734375 c 0.28125,0.1875 0.75,0.4921875 0.75,1.1015625 0,0.73828122 -0.75,1.25390622 -1.5585937,1.25390622 -0.8671875,0 -1.58203129,-0.62109375 -1.58203129,-1.44140622 0,-0.5859375 0.31640629,-1.21875 1.17187499,-1.6875 z m 0,0"
       style="fill:#ffffff;fill-opacity:1;fill-rule:nonzero;stroke:none"
       aria-label="8"
       transform="matrix(1.3333333,0,0,1.3333333,168.99733,97.194667)" />
    <path
       id="path26"
       d="m 1.6296328,-4.5463906 c -0.46875,-0.3046875 -0.5039062,-0.6445313 -0.5039062,-0.8085938 0,-0.609375 0.6445312,-1.03125 1.359375,-1.03125 0.7265625,0 1.359375,0.515625 1.359375,1.2421875 0,0.5625 -0.3867188,1.0429688 -0.984375,1.3945313 z m 1.453125,0.9375 c 0.7148438,-0.3632813 1.2070313,-0.8789063 1.2070313,-1.5351563 0,-0.9257812 -0.890625,-1.4882812 -1.7929688,-1.4882812 -0.9960937,0 -1.80468749,0.7382812 -1.80468749,1.6640625 0,0.1757812 0.0117188,0.6210937 0.43359379,1.0898437 0.1054687,0.1289063 0.4804687,0.375 0.7265625,0.5390625 -0.5742188,0.2929688 -1.42968754,0.84375 -1.42968754,1.8398438 0,1.05468747 1.00781254,1.72265622 2.06250004,1.72265622 1.125,0 2.0625,-0.83203125 2.0625,-1.89843752 0,-0.3515625 -0.1054688,-0.8085937 -0.4804688,-1.21875 -0.1875,-0.2109375 -0.3515625,-0.3164062 -0.984375,-0.7148437 z m -0.9960937,0.421875 1.21875,0.7734375 c 0.28125,0.1875 0.75,0.4921875 0.75,1.1015625 0,0.73828122 -0.75,1.25390622 -1.5585938,1.25390622 -0.8671875,0 -1.58203124,-0.62109375 -1.58203124,-1.44140622 0,-0.5859375 0.31640624,-1.21875 1.17187504,-1.6875 z m 0,0"
       style="fill:#ffffff;fill-opacity:1;fill-rule:nonzero;stroke:none"
       aria-label="8"
       transform="matrix(1.3333333,0,0,1.3333333,206.792,97.194667)" />
    <path
       id="path27"
       d="m 1.9096094,-0.52875781 c 0,-0.29296875 -0.234375,-0.52734379 -0.5273438,-0.52734379 -0.28125,0 -0.52734372,0.23437504 -0.52734372,0.52734379 0,0.29296875 0.24609372,0.52734375 0.52734372,0.52734375 0.2929688,0 0.5273438,-0.234375 0.5273438,-0.52734375 z m 0,3.98730471 c 0,-0.2929688 -0.234375,-0.5273438 -0.5273438,-0.5273438 -0.28125,0 -0.52734372,0.234375 -0.52734372,0.5273438 0,0.2929687 0.24609372,0.5273437 0.52734372,0.5273437 0.2929688,0 0.5273438,-0.234375 0.5273438,-0.5273437 z m 0,3.984375 c 0,-0.2929688 -0.234375,-0.5273438 -0.5273438,-0.5273438 -0.28125,0 -0.52734372,0.234375 -0.52734372,0.5273438 0,0.2929687 0.24609372,0.5273437 0.52734372,0.5273437 0.2929688,0 0.5273438,-0.234375 0.5273438,-0.5273437 z m 0,0"
       style="fill:#ffffff;fill-opacity:1;fill-rule:nonzero;stroke:none"
       aria-label=".&#10;.&#10;."
       transform="matrix(1.3333333,0,0,1.3333333,57.086667,126.30267)" />
    <path
       id="path28"
       d="m 1.9102656,-0.52875781 c 0,-0.29296875 -0.234375,-0.52734379 -0.5273437,-0.52734379 -0.28125,0 -0.52734378,0.23437504 -0.52734378,0.52734379 0,0.29296875 0.24609378,0.52734375 0.52734378,0.52734375 0.2929687,0 0.5273437,-0.234375 0.5273437,-0.52734375 z m 0,3.98730471 c 0,-0.2929688 -0.234375,-0.5273438 -0.5273437,-0.5273438 -0.28125,0 -0.52734378,0.234375 -0.52734378,0.5273438 0,0.2929687 0.24609378,0.5273437 0.52734378,0.5273437 0.2929687,0 0.5273437,-0.234375 0.5273437,-0.5273437 z m 0,3.984375 c 0,-0.2929688 -0.234375,-0.5273438 -0.5273437,-0.5273438 -0.28125,0 -0.52734378,0.234375 -0.52734378,0.5273438 0,0.2929687 0.24609378,0.5273437 0.52734378,0.5273437 0.2929687,0 0.5273437,-0.234375 0.5273437,-0.5273437 z m 0,0"
       style="fill:#ffffff;fill-opacity:1;fill-rule:nonzero;stroke:none"
       aria-label=".&#10;.&#10;."
       transform="matrix(1.3333333,0,0,1.3333333,94.882667,126.30267)" />
    <path
       id="path29"
       d="m 1.9089922,-0.52875781 c 0,-0.29296875 -0.234375,-0.52734379 -0.5273438,-0.52734379 -0.28125,0 -0.52734371,0.23437504 -0.52734371,0.52734379 0,0.29296875 0.24609371,0.52734375 0.52734371,0.52734375 0.2929688,0 0.5273438,-0.234375 0.5273438,-0.52734375 z m 0,3.98730471 c 0,-0.2929688 -0.234375,-0.5273438 -0.5273438,-0.5273438 -0.28125,0 -0.52734371,0.234375 -0.52734371,0.5273438 0,0.2929687 0.24609371,0.5273437 0.52734371,0.5273437 0.2929688,0 0.5273438,-0.234375 0.5273438,-0.5273437 z m 0,3.984375 c 0,-0.2929688 -0.234375,-0.5273438 -0.5273438,-0.5273438 -0.28125,0 -0.52734371,0.234375 -0.52734371,0.5273438 0,0.2929687 0.24609371,0.5273437 0.52734371,0.5273437 0.2929688,0 0.5273438,-0.234375 0.5273438,-0.5273437 z m 0,0"
       style="fill:#ffffff;fill-opacity:1;fill-rule:nonzero;stroke:none"
       aria-label=".&#10;.&#10;."
       transform="matrix(1.3333333,0,0,1.3333333,132.67733,126.30267)" />
    <path
       id="path30"
       d="m 1.9096484,-0.52875781 c 0,-0.29296875 -0.234375,-0.52734379 -0.5273437,-0.52734379 -0.28125,0 -0.52734376,0.23437504 -0.52734376,0.52734379 0,0.29296875 0.24609376,0.52734375 0.52734376,0.52734375 0.2929687,0 0.5273437,-0.234375 0.5273437,-0.52734375 z m 0,3.98730471 c 0,-0.2929688 -0.234375,-0.5273438 -0.5273437,-0.5273438 -0.28125,0 -0.52734376,0.234375 -0.52734376,0.5273438 0,0.2929687 0.24609376,0.5273437 0.52734376,0.5273437 0.2929687,0 0.5273437,-0.234375 0.5273437,-0.5273437 z m 0,3.984375 c 0,-0.2929688 -0.234375,-0.5273438 -0.5273437,-0.5273438 -0.28125,0 -0.52734376,0.234375 -0.52734376,0.5273438 0,0.2929687 0.24609376,0.5273437 0.52734376,0.5273437 0.2929687,0 0.5273437,-0.234375 0.5273437,-0.5273437 z m 0,0"
       style="fill:#ffffff;fill-opacity:1;fill-rule:nonzero;stroke:none"
       aria-label=".&#10;.&#10;."
       transform="matrix(1.3333333,0,0,1.3333333,170.47333,126.30267)" />
    <path
       id="path31"
       d="m 1.9113047,-0.52875781 c 0,-0.29296875 -0.234375,-0.52734379 -0.5273438,-0.52734379 -0.28125,0 -0.52734371,0.23437504 -0.52734371,0.52734379 0,0.29296875 0.24609371,0.52734375 0.52734371,0.52734375 0.2929688,0 0.5273438,-0.234375 0.5273438,-0.52734375 z m 0,3.98730471 c 0,-0.2929688 -0.234375,-0.5273438 -0.5273438,-0.5273438 -0.28125,0 -0.52734371,0.234375 -0.52734371,0.5273438 0,0.2929687 0.24609371,0.5273437 0.52734371,0.5273437 0.2929688,0 0.5273438,-0.234375 0.5273438,-0.5273437 z m 0,3.984375 c 0,-0.2929688 -0.234375,-0.5273438 -0.5273438,-0.5273438 -0.28125,0 -0.52734371,0.234375 -0.52734371,0.5273438 0,0.2929687 0.24609371,0.5273437 0.52734371,0.5273437 0.2929688,0 0.5273438,-0.234375 0.5273438,-0.5273437 z m 0,0"
       style="fill:#ffffff;fill-opacity:1;fill-rule:nonzero;stroke:none"
       aria-label=".&#10;.&#10;."
       transform="matrix(1.3333333,0,0,1.3333333,208.268,126.30267)" />
    <path
       id="path32"
       d="m 1.9096094,-0.52875781 c 0,-0.29296875 -0.234375,-0.52734379 -0.5273438,-0.52734379 -0.28125,0 -0.52734372,0.23437504 -0.52734372,0.52734379 0,0.29296875 0.24609372,0.52734375 0.52734372,0.52734375 0.2929688,0 0.5273438,-0.234375 0.5273438,-0.52734375 z m 0,3.98730471 c 0,-0.2929688 -0.234375,-0.5273438 -0.5273438,-0.5273438 -0.28125,0 -0.52734372,0.234375 -0.52734372,0.5273438 0,0.2929687 0.24609372,0.5273437 0.52734372,0.5273437 0.2929688,0 0.5273438,-0.234375 0.5273438,-0.5273437 z m 0,3.984375 c 0,-0.2929688 -0.234375,-0.5273438 -0.5273438,-0.5273438 -0.28125,0 -0.52734372,0.234375 -0.52734372,0.5273438 0,0.2929687 0.24609372,0.5273437 0.52734372,0.5273437 0.2929688,0 0.5273438,-0.234375 0.5273438,-0.5273437 z m 0,0"
       style="fill:#ffffff;fill-opacity:1;fill-rule:nonzero;stroke:none"
       aria-label=".&#10;.&#10;."
       transform="matrix(1.3333333,0,0,1.3333333,57.086667,126.30267)" />
    <path
       id="path33"
       d="m 4.5832031,-3.1873906 c 0,-0.796875 -0.046875,-1.59375 -0.3984375,-2.3320313 -0.4570312,-0.9609375 -1.2773437,-1.1132812 -1.6875,-1.1132812 -0.5976562,0 -1.3359375,0.2578125 -1.73437498,1.1835937 -0.328125,0.6914063 -0.375,1.4648438 -0.375,2.2617188 0,0.75 0.046875,1.640625 0.4453125,2.40234373 0.43359378,0.80859375 1.16015628,1.0078125 1.65234378,1.0078125 0.5390625,0 1.2890625,-0.2109375 1.734375,-1.16015625 C 4.5363281,-1.6287969 4.5832031,-2.4022344 4.5832031,-3.1873906 Z M 2.4855469,1.09375e-4 c -0.3867188,0 -0.984375,-0.246093745 -1.1601563,-1.207031275 -0.1054687,-0.5976562 -0.1054687,-1.5117187 -0.1054687,-2.0976562 0,-0.6445313 0,-1.3007813 0.082031,-1.8398438 0.1875,-1.1835937 0.9257813,-1.265625 1.1835938,-1.265625 0.328125,0 0.984375,0.1757813 1.171875,1.1601563 0.09375,0.5625 0.09375,1.3125 0.09375,1.9453125 0,0.75 0,1.4179687 -0.1054688,2.0625 C 3.4933594,-0.30457812 2.9308594,1.09375e-4 2.4855469,1.09375e-4 Z m 0,0"
       style="fill:#ffffff;fill-opacity:1;fill-rule:nonzero;stroke:none"
       aria-label="0"
       transform="matrix(1.3333333,0,0,1.3333333,150.1,25.382667)" />
    <path
       id="path34"
       d="m 4.5825469,-3.1873906 c 0,-0.796875 -0.046875,-1.59375 -0.3984375,-2.3320313 -0.4570313,-0.9609375 -1.2773438,-1.1132812 -1.6875,-1.1132812 -0.5976563,0 -1.3359375,0.2578125 -1.73437503,1.1835937 -0.328125,0.6914063 -0.375,1.4648438 -0.375,2.2617188 0,0.75 0.046875,1.640625 0.4453125,2.40234373 0.43359373,0.80859375 1.16015623,1.0078125 1.65234373,1.0078125 0.5390625,0 1.2890625,-0.2109375 1.734375,-1.16015625 C 4.5356719,-1.6287969 4.5825469,-2.4022344 4.5825469,-3.1873906 Z M 2.4848906,1.09375e-4 c -0.3867187,0 -0.984375,-0.246093745 -1.1601562,-1.207031275 -0.1054688,-0.5976562 -0.1054688,-1.5117187 -0.1054688,-2.0976562 0,-0.6445313 0,-1.3007813 0.082031,-1.8398438 0.1875,-1.1835937 0.9257812,-1.265625 1.1835937,-1.265625 0.328125,0 0.984375,0.1757813 1.171875,1.1601563 0.09375,0.5625 0.09375,1.3125 0.09375,1.9453125 0,0.75 0,1.4179687 -0.1054687,2.0625 C 3.4927031,-0.30457812 2.9302031,1.09375e-4 2.4848906,1.09375e-4 Z m 0,0"
       style="fill:#ffffff;fill-opacity:1;fill-rule:nonzero;stroke:none"
       aria-label="0"
       transform="matrix(1.3333333,0,0,1.3333333,112.304,25.382667)" />
    <path
       id="path35"
       d="m 4.5808906,-3.1873906 c 0,-0.796875 -0.046875,-1.59375 -0.3984375,-2.3320313 -0.4570312,-0.9609375 -1.2773437,-1.1132812 -1.6875,-1.1132812 -0.5976562,0 -1.3359375,0.2578125 -1.73437497,1.1835937 -0.328125,0.6914063 -0.375,1.4648438 -0.375,2.2617188 0,0.75 0.046875,1.640625 0.4453125,2.40234373 0.43359377,0.80859375 1.16015627,1.0078125 1.65234377,1.0078125 0.5390625,0 1.2890625,-0.2109375 1.734375,-1.16015625 C 4.5340156,-1.6287969 4.5808906,-2.4022344 4.5808906,-3.1873906 Z M 2.4832344,1.09375e-4 c -0.3867188,0 -0.984375,-0.246093745 -1.1601563,-1.207031275 -0.1054687,-0.5976562 -0.1054687,-1.5117187 -0.1054687,-2.0976562 0,-0.6445313 0,-1.3007813 0.082031,-1.8398438 0.1875,-1.1835937 0.9257813,-1.265625 1.1835938,-1.265625 0.328125,0 0.984375,0.1757813 1.171875,1.1601563 0.09375,0.5625 0.09375,1.3125 0.09375,1.9453125 0,0.75 0,1.4179687 -0.1054688,2.0625 C 3.4910469,-0.30457812 2.9285469,1.09375e-4 2.4832344,1.09375e-4 Z m 0,0"
       style="fill:#ffffff;fill-opacity:1;fill-rule:nonzero;stroke:none"
       aria-label="0"
       transform="matrix(1.3333333,0,0,1.3333333,74.509333,25.382667)" />
    <path
       id="path36"
       d="m 4.5831641,-3.1873906 c 0,-0.796875 -0.046875,-1.59375 -0.3984375,-2.3320313 -0.4570313,-0.9609375 -1.2773438,-1.1132812 -1.6875,-1.1132812 -0.5976563,0 -1.3359375,0.2578125 -1.73437504,1.1835937 -0.328125,0.6914063 -0.375,1.4648438 -0.375,2.2617188 0,0.75 0.046875,1.640625 0.4453125,2.40234373 0.43359374,0.80859375 1.16015624,1.0078125 1.65234374,1.0078125 0.5390625,0 1.2890625,-0.2109375 1.734375,-1.16015625 C 4.5362891,-1.6287969 4.5831641,-2.4022344 4.5831641,-3.1873906 Z M 2.4855078,1.09375e-4 c -0.3867187,0 -0.984375,-0.246093745 -1.1601562,-1.207031275 -0.1054688,-0.5976562 -0.1054688,-1.5117187 -0.1054688,-2.0976562 0,-0.6445313 0,-1.3007813 0.082031,-1.8398438 0.1875,-1.1835937 0.9257812,-1.265625 1.1835937,-1.265625 0.328125,0 0.984375,0.1757813 1.171875,1.1601563 0.09375,0.5625 0.09375,1.3125 0.09375,1.9453125 0,0.75 0,1.4179687 -0.1054687,2.0625 C 3.4933203,-0.30457812 2.9308203,1.09375e-4 2.4855078,1.09375e-4 Z m 0,0"
       style="fill:#ffffff;fill-opacity:1;fill-rule:nonzero;stroke:none"
       aria-label="0"
       transform="matrix(1.3333333,0,0,1.3333333,36.713333,25.382667)" />
    <path
       id="path37"
       d="m 4.583375,-3.1885547 c 0,-0.796875 -0.046875,-1.59375 -0.3984375,-2.3320312 -0.4570312,-0.9609375 -1.2773437,-1.1132813 -1.6875,-1.1132813 -0.5976562,0 -1.3359375,0.2578125 -1.734375,1.1835938 -0.328125,0.6914062 -0.375,1.4648437 -0.375,2.2617187 0,0.75 0.046875,1.640625 0.4453125,2.40234376 0.4335938,0.80859375 1.1601563,1.0078125 1.6523438,1.0078125 0.5390625,0 1.2890625,-0.2109375 1.734375,-1.16015625 C 4.5365,-1.6299609 4.583375,-2.4033984 4.583375,-3.1885547 Z m -2.0976562,3.18750001 c -0.3867188,0 -0.984375,-0.24609375 -1.1601563,-1.20703121 -0.1054687,-0.5976563 -0.1054687,-1.5117188 -0.1054687,-2.0976563 0,-0.6445312 0,-1.3007812 0.082031,-1.8398437 0.1875,-1.1835938 0.9257813,-1.265625 1.1835938,-1.265625 0.328125,0 0.984375,0.1757812 1.171875,1.1601562 0.09375,0.5625 0.09375,1.3125 0.09375,1.9453125 0,0.75 0,1.4179688 -0.1054688,2.0625 -0.1523437,0.93750001 -0.7148437,1.24218751 -1.160156,1.24218751 z m 0,0"
       style="fill:#ffffff;fill-opacity:1;fill-rule:nonzero;stroke:none"
       aria-label="0"
       transform="matrix(1.3333333,0,0,1.3333333,131.20133,48.06)" />
    <path
       id="path38"
       d="m 4.5817187,-3.1885547 c 0,-0.796875 -0.046875,-1.59375 -0.3984375,-2.3320312 -0.4570312,-0.9609375 -1.2773437,-1.1132813 -1.6875,-1.1132813 -0.5976562,0 -1.3359375,0.2578125 -1.73437495,1.1835938 -0.328125,0.6914062 -0.375,1.4648437 -0.375,2.2617187 0,0.75 0.046875,1.640625 0.4453125,2.40234376 0.43359375,0.80859375 1.16015625,1.0078125 1.65234375,1.0078125 0.5390625,0 1.2890625,-0.2109375 1.734375,-1.16015625 C 4.5348437,-1.6299609 4.5817187,-2.4033984 4.5817187,-3.1885547 Z m -2.0976562,3.18750001 c -0.3867188,0 -0.984375,-0.24609375 -1.1601563,-1.20703121 -0.1054687,-0.5976563 -0.1054687,-1.5117188 -0.1054687,-2.0976563 0,-0.6445312 0,-1.3007812 0.082031,-1.8398437 0.1875,-1.1835938 0.9257813,-1.265625 1.1835938,-1.265625 0.328125,0 0.984375,0.1757812 1.171875,1.1601562 0.09375,0.5625 0.09375,1.3125 0.09375,1.9453125 0,0.75 0,1.4179688 -0.1054688,2.0625 -0.1523437,0.93750001 -0.7148437,1.24218751 -1.160156,1.24218751 z m 0,0"
       style="fill:#ffffff;fill-opacity:1;fill-rule:nonzero;stroke:none"
       aria-label="0"
       transform="matrix(1.3333333,0,0,1.3333333,93.406667,48.06)" />
    <path
       id="path39"
       d="m 4.5810625,-3.1885547 c 0,-0.796875 -0.046875,-1.59375 -0.3984375,-2.3320312 -0.4570312,-0.9609375 -1.2773437,-1.1132813 -1.6875,-1.1132813 -0.5976562,0 -1.3359375,0.2578125 -1.734375,1.1835938 -0.328125,0.6914062 -0.375,1.4648437 -0.375,2.2617187 0,0.75 0.046875,1.640625 0.4453125,2.40234376 0.4335938,0.80859375 1.1601563,1.0078125 1.6523438,1.0078125 0.5390625,0 1.2890625,-0.2109375 1.734375,-1.16015625 C 4.5341875,-1.6299609 4.5810625,-2.4033984 4.5810625,-3.1885547 Z m -2.0976562,3.18750001 c -0.3867188,0 -0.984375,-0.24609375 -1.1601563,-1.20703121 -0.1054687,-0.5976563 -0.1054687,-1.5117188 -0.1054687,-2.0976563 0,-0.6445312 0,-1.3007812 0.082031,-1.8398437 0.1875,-1.1835938 0.9257813,-1.265625 1.1835938,-1.265625 0.328125,0 0.984375,0.1757812 1.171875,1.1601562 0.09375,0.5625 0.09375,1.3125 0.09375,1.9453125 0,0.75 0,1.4179688 -0.1054688,2.0625 -0.1523437,0.93750001 -0.7148437,1.24218751 -1.160156,1.24218751 z m 0,0"
       style="fill:#ffffff;fill-opacity:1;fill-rule:nonzero;stroke:none"
       aria-label="0"
       transform="matrix(1.3333333,0,0,1.3333333,55.610667,48.06)" />
    <path
       id="path40"
       d="m 4.5831641,-3.1887266 c 0,-0.796875 -0.046875,-1.59375 -0.3984375,-2.3320312 -0.4570313,-0.9609375 -1.2773438,-1.1132813 -1.6875,-1.1132813 -0.5976563,0 -1.3359375,0.2578125 -1.73437504,1.1835938 -0.328125,0.6914062 -0.375,1.4648437 -0.375,2.2617187 0,0.75 0.046875,1.640625 0.4453125,2.40234379 0.43359374,0.80859375 1.16015624,1.0078125 1.65234374,1.0078125 0.5390625,0 1.2890625,-0.2109375 1.734375,-1.16015625 C 4.5362891,-1.6301328 4.5831641,-2.4035703 4.5831641,-3.1887266 Z m -2.0976563,3.18750004 c -0.3867187,0 -0.984375,-0.24609375 -1.1601562,-1.20703124 -0.1054688,-0.5976563 -0.1054688,-1.5117188 -0.1054688,-2.0976563 0,-0.6445312 0,-1.3007812 0.082031,-1.8398437 0.1875,-1.1835938 0.9257812,-1.265625 1.1835937,-1.265625 0.328125,0 0.984375,0.1757812 1.171875,1.1601562 0.09375,0.5625 0.09375,1.3125 0.09375,1.9453125 0,0.75 0,1.4179688 -0.1054687,2.0625 C 3.49332,-0.30591406 2.93082,-0.00122656 2.4855078,-0.00122656 Z m 0,0"
       style="fill:#ffffff;fill-opacity:1;fill-rule:nonzero;stroke:none"
       aria-label="0"
       transform="matrix(1.3333333,0,0,1.3333333,36.713333,66.958667)" />
  </g>
</svg>
