<?xml version="1.0" encoding="UTF-8" standalone="no"?>
<!-- Created with Inkscape (http://www.inkscape.org/) -->

<svg
   version="1.1"
   id="svg1"
   width="340.05334"
   height="302.89334"
   viewBox="0 0 340.05334 302.89334"
   xmlns="http://www.w3.org/2000/svg"
   xmlns:svg="http://www.w3.org/2000/svg">
  <defs
     id="defs1" />
  <g
     id="g1">
    <path
       id="path1"
       d="m 0,-85.04042 12.27454,-7.0867 V -106.3005 L 0,-113.38722 l -12.27454,7.08672 v 14.17338 z"
       style="fill:none;stroke:#ffffff;stroke-width:0.3985;stroke-linecap:butt;stroke-linejoin:miter;stroke-miterlimit:10;stroke-dasharray:none;stroke-opacity:1"
       transform="matrix(1.3333333,0,0,-1.3333333,172.24,151.44667)" />
    <path
       id="path2"
       d="M 0,-85.04042 12.27454,-106.3005"
       style="fill:none;stroke:#ffffff;stroke-width:0.3985;stroke-linecap:butt;stroke-linejoin:miter;stroke-miterlimit:10;stroke-dasharray:none;stroke-opacity:1"
       transform="matrix(1.3333333,0,0,-1.3333333,172.24,151.44667)" />
    <path
       id="path3"
       d="M 12.27454,-106.3005 H -12.27454"
       style="fill:none;stroke:#ffffff;stroke-width:0.3985;stroke-linecap:butt;stroke-linejoin:miter;stroke-miterlimit:10;stroke-dasharray:none;stroke-opacity:1"
       transform="matrix(1.3333333,0,0,-1.3333333,172.24,151.44667)" />
    <path
       id="path4"
       d="M 0,-85.04042 -12.27454,-106.3005"
       style="fill:none;stroke:#ffffff;stroke-width:0.3985;stroke-linecap:butt;stroke-linejoin:miter;stroke-miterlimit:10;stroke-dasharray:none;stroke-opacity:1"
       transform="matrix(1.3333333,0,0,-1.3333333,172.24,151.44667)" />
    <path
       id="path5"
       d="m 5.1670781,-1.3241328 h 2.2382813 c 0.1289062,0 0.328125,0 0.328125,-0.1992188 0,-0.1992187 -0.1992188,-0.1992187 -0.3398438,-0.1992187 h -2.109375 l 0.3984375,-1.5351563 h 1.7109375 c 0.140625,0 0.3398438,0 0.3398438,-0.1992187 0,-0.1992188 -0.1992188,-0.1992188 -0.328125,-0.1992188 h -1.59375 l 0.7734375,-2.8828125 c 0.011719,-0.011719 0.035156,-0.140625 0.035156,-0.1757812 0,-0.1054688 -0.082031,-0.1992188 -0.1992187,-0.1992188 -0.1523438,0 -0.1875,0.1289063 -0.2109375,0.234375 l -0.8085938,3.0234375 h -1.875 l 0.7734375,-2.8828125 c 0.011719,-0.011719 0.046875,-0.140625 0.046875,-0.1757812 0,-0.1054688 -0.09375,-0.1992188 -0.1992187,-0.1992188 -0.1640625,0 -0.1992188,0.1289063 -0.2226563,0.234375 L 3.1162969,-3.6561641 H 0.88973437 c -0.140625,0 -0.328125,0 -0.328125,0.1992188 0,0.1992187 0.1875,0.1992187 0.33984375,0.1992187 H 2.9991094 L 2.6006719,-1.7225703 H 0.90145312 c -0.15234375,0 -0.33984375,0 -0.33984375,0.1992187 0,0.1992188 0.1875,0.1992188 0.328125,0.1992188 H 2.4834844 L 1.6983281,1.5586797 c 0,0.011719 -0.035156,0.140625 -0.035156,0.1757812 0,0.1054688 0.09375,0.1992188 0.1992187,0.1992188 0.1640625,0 0.1875,-0.1289063 0.2226563,-0.234375 L 2.8936406,-1.3241328 H 4.7569219 L 3.9834844,1.5586797 c -0.011719,0.011719 -0.035156,0.140625 -0.035156,0.1757812 0,0.1054688 0.082031,0.1992188 0.1992188,0.1992188 0.1523437,0 0.1875,-0.1289063 0.2109375,-0.234375 z m -2.15625,-0.3984375 0.3984375,-1.5351563 h 1.875 l -0.3984375,1.5351563 z m 8.2207029,-4.6523438 c 0,-0.234375 0,-0.2578125 -0.234375,-0.2578125 -0.609375,0.6328125 -1.488281,0.6328125 -1.8046873,0.6328125 v 0.3164063 c 0.1992188,0 0.7851563,0 1.3007813,-0.2578125 v 5.15624999 c 0,0.3515625 -0.03516,0.48046875 -0.9257813,0.48046875 H 9.2510625 V 8.59375e-5 C 9.602625,-0.03507031 10.458094,-0.03507031 10.856531,-0.03507031 c 0.398438,0 1.265625,0 1.617188,0.0351562475 V -0.30460156 h -0.316407 c -0.902343,0 -0.925781,-0.1171875 -0.925781,-0.48046875 z m 0,0"
       style="fill:#000000;fill-opacity:1;fill-rule:nonzero;stroke:none"
       aria-label="#1"
       transform="matrix(1.3333333,0,0,1.3333333,163.384,287.05067)" />
    <path
       id="path6"
       d="m 0,-28.3468 12.27454,-7.0867 V -49.60689 L 0,-56.6936 l -12.27454,7.08671 v 14.17339 z"
       style="fill:none;stroke:#ffffff;stroke-width:0.3985;stroke-linecap:butt;stroke-linejoin:miter;stroke-miterlimit:10;stroke-dasharray:none;stroke-opacity:1"
       transform="matrix(1.3333333,0,0,-1.3333333,172.24,151.44667)" />
    <path
       id="path7"
       d="M 0,-28.3468 12.27454,-49.60689"
       style="fill:none;stroke:#ffffff;stroke-width:0.3985;stroke-linecap:butt;stroke-linejoin:miter;stroke-miterlimit:10;stroke-dasharray:none;stroke-opacity:1"
       transform="matrix(1.3333333,0,0,-1.3333333,172.24,151.44667)" />
    <path
       id="path8"
       d="M 0,-28.3468 V -56.6936"
       style="fill:none;stroke:#ffffff;stroke-width:0.3985;stroke-linecap:butt;stroke-linejoin:miter;stroke-miterlimit:10;stroke-dasharray:none;stroke-opacity:1"
       transform="matrix(1.3333333,0,0,-1.3333333,172.24,151.44667)" />
    <path
       id="path9"
       d="M 0,-28.3468 -12.27454,-49.60689"
       style="fill:none;stroke:#ffffff;stroke-width:0.3985;stroke-linecap:butt;stroke-linejoin:miter;stroke-miterlimit:10;stroke-dasharray:none;stroke-opacity:1"
       transform="matrix(1.3333333,0,0,-1.3333333,172.24,151.44667)" />
    <path
       id="path10"
       d="m 5.1670781,-1.3235156 h 2.2382813 c 0.1289062,0 0.328125,0 0.328125,-0.1992188 0,-0.1992187 -0.1992188,-0.1992187 -0.3398438,-0.1992187 h -2.109375 l 0.3984375,-1.5351563 h 1.7109375 c 0.140625,0 0.3398438,0 0.3398438,-0.1992187 0,-0.1992188 -0.1992188,-0.1992188 -0.328125,-0.1992188 h -1.59375 l 0.7734375,-2.8828125 c 0.011719,-0.011719 0.035156,-0.140625 0.035156,-0.1757812 0,-0.1054688 -0.082031,-0.1992188 -0.1992187,-0.1992188 -0.1523438,0 -0.1875,0.1289063 -0.2109375,0.234375 l -0.8085938,3.0234375 h -1.875 l 0.7734375,-2.8828125 c 0.011719,-0.011719 0.046875,-0.140625 0.046875,-0.1757812 0,-0.1054688 -0.09375,-0.1992188 -0.1992187,-0.1992188 -0.1640625,0 -0.1992188,0.1289063 -0.2226563,0.234375 L 3.1162969,-3.6555469 H 0.88973437 c -0.140625,0 -0.328125,0 -0.328125,0.1992188 0,0.1992187 0.1875,0.1992187 0.33984375,0.1992187 H 2.9991094 L 2.6006719,-1.7219531 H 0.90145312 c -0.15234375,0 -0.33984375,0 -0.33984375,0.1992187 0,0.1992188 0.1875,0.1992188 0.328125,0.1992188 H 2.4834844 L 1.6983281,1.5592969 c 0,0.011719 -0.035156,0.140625 -0.035156,0.1757812 0,0.1054688 0.09375,0.1992188 0.1992187,0.1992188 0.1640625,0 0.1875,-0.1289063 0.2226563,-0.234375 L 2.8936406,-1.3235156 H 4.7569219 L 3.9834844,1.5592969 c -0.011719,0.011719 -0.035156,0.140625 -0.035156,0.1757812 0,0.1054688 0.082031,0.1992188 0.1992188,0.1992188 0.1523437,0 0.1875,-0.1289063 0.2109375,-0.234375 z m -2.15625,-0.3984375 0.3984375,-1.5351563 h 1.875 l -0.3984375,1.5351563 z m 8.2207029,-4.6523438 c 0,-0.234375 0,-0.2578125 -0.234375,-0.2578125 -0.609375,0.6328125 -1.488281,0.6328125 -1.8046873,0.6328125 v 0.3164063 c 0.1992188,0 0.7851563,0 1.3007813,-0.2578125 v 5.15624998 c 0,0.3515625 -0.03516,0.48046875 -0.9257813,0.48046875 H 9.2510625 V 7.03125e-4 C 9.602625,-0.03445312 10.458094,-0.03445312 10.856531,-0.03445312 c 0.398438,0 1.265625,0 1.617188,0.035156245 V -0.30398437 h -0.316407 c -0.902343,0 -0.925781,-0.1171875 -0.925781,-0.48046875 z m 0,0"
       style="fill:#000000;fill-opacity:1;fill-rule:nonzero;stroke:none"
       aria-label="#1"
       transform="matrix(1.3333333,0,0,1.3333333,163.384,211.46)" />
    <path
       id="path11"
       d="m -85.04042,-56.69362 12.27455,-7.0867 V -77.9537 l -12.27455,-7.0867 -12.27455,7.0867 v 14.17338 z"
       style="fill:none;stroke:#ffffff;stroke-width:0.3985;stroke-linecap:butt;stroke-linejoin:miter;stroke-miterlimit:10;stroke-dasharray:none;stroke-opacity:1"
       transform="matrix(1.3333333,0,0,-1.3333333,172.24,151.44667)" />
    <path
       id="path12"
       d="M -85.04042,-56.69362 -97.31497,-77.9537"
       style="fill:none;stroke:#ffffff;stroke-width:0.3985;stroke-linecap:butt;stroke-linejoin:miter;stroke-miterlimit:10;stroke-dasharray:none;stroke-opacity:1"
       transform="matrix(1.3333333,0,0,-1.3333333,172.24,151.44667)" />
    <path
       id="path13"
       d="M -72.76587,-63.78032 -97.31497,-77.9537"
       style="fill:none;stroke:#ffffff;stroke-width:0.3985;stroke-linecap:butt;stroke-linejoin:miter;stroke-miterlimit:10;stroke-dasharray:none;stroke-opacity:1"
       transform="matrix(1.3333333,0,0,-1.3333333,172.24,151.44667)" />
    <path
       id="path14"
       d="m -72.76587,-77.9537 h -24.5491"
       style="fill:none;stroke:#ffffff;stroke-width:0.3985;stroke-linecap:butt;stroke-linejoin:miter;stroke-miterlimit:10;stroke-dasharray:none;stroke-opacity:1"
       transform="matrix(1.3333333,0,0,-1.3333333,172.24,151.44667)" />
    <path
       id="path15"
       d="M 5.1689687,-1.3228594 H 7.40725 c 0.1289062,0 0.328125,0 0.328125,-0.1992187 0,-0.1992188 -0.1992188,-0.1992188 -0.3398438,-0.1992188 h -2.109375 l 0.3984375,-1.5351562 h 1.7109375 c 0.140625,0 0.3398438,0 0.3398438,-0.1992188 0,-0.1992187 -0.1992188,-0.1992187 -0.328125,-0.1992187 H 5.8135 l 0.7734375,-2.8828125 c 0.011719,-0.011719 0.035156,-0.140625 0.035156,-0.1757813 0,-0.1054687 -0.082031,-0.1992187 -0.1992187,-0.1992187 -0.1523438,0 -0.1875,0.1289062 -0.2109375,0.234375 l -0.8085938,3.0234375 h -1.875 L 4.301781,-6.5377031 c 0.011719,-0.011719 0.046875,-0.140625 0.046875,-0.1757813 0,-0.1054687 -0.09375,-0.1992187 -0.1992187,-0.1992187 -0.1640625,0 -0.1992188,0.1289062 -0.2226563,0.234375 L 3.1181875,-3.6548906 H 0.891625 c -0.140625,0 -0.328125,0 -0.328125,0.1992187 0,0.1992188 0.1875,0.1992188 0.33984375,0.1992188 H 3.001 L 2.6025625,-1.7212969 H 0.90334375 c -0.15234375,0 -0.33984375,0 -0.33984375,0.1992188 0,0.1992187 0.1875,0.1992187 0.328125,0.1992187 h 1.59375 L 1.7002187,1.5599531 c 0,0.011719 -0.035156,0.140625 -0.035156,0.1757813 0,0.1054687 0.09375,0.1992187 0.1992187,0.1992187 0.1640625,0 0.1875,-0.1289062 0.2226563,-0.234375 L 2.8955312,-1.3228594 H 4.7588125 L 3.985375,1.5599531 c -0.011719,0.011719 -0.035156,0.140625 -0.035156,0.1757813 0,0.1054687 0.082031,0.1992187 0.1992188,0.1992187 0.1523437,0 0.1875,-0.1289062 0.2109375,-0.234375 z m -2.15625,-0.3984375 0.3984375,-1.5351562 h 1.875 l -0.3984375,1.5351562 z m 8.2177733,-4.6523437 c 0,-0.234375 0,-0.2578125 -0.234375,-0.2578125 -0.609375,0.6328125 -1.4882811,0.6328125 -1.8046873,0.6328125 v 0.3164062 c 0.1992187,0 0.7851562,0 1.3007813,-0.2578125 v 5.15625003 c 0,0.3515625 -0.03516,0.48046875 -0.9257813,0.48046875 H 9.2500234 v 0.3046875 c 0.3515625,-0.03515625 1.2070316,-0.03515625 1.6054686,-0.03515625 0.398438,0 1.265625,0 1.617188,0.03515625 v -0.3046875 h -0.316407 c -0.902343,0 -0.925781,-0.1171875 -0.925781,-0.48046875 z m 0,0"
       style="fill:#000000;fill-opacity:1;fill-rule:nonzero;stroke:none"
       aria-label="#1"
       transform="matrix(1.3333333,0,0,1.3333333,49.998667,249.256)" />
    <path
       id="path16"
       d="m 85.04042,-56.69362 12.27455,-7.0867 V -77.9537 l -12.27455,-7.0867 -12.27455,7.0867 v 14.17338 z"
       style="fill:none;stroke:#ffffff;stroke-width:0.3985;stroke-linecap:butt;stroke-linejoin:miter;stroke-miterlimit:10;stroke-dasharray:none;stroke-opacity:1"
       transform="matrix(1.3333333,0,0,-1.3333333,172.24,151.44667)" />
    <path
       id="path17"
       d="M 85.04042,-56.69362 97.31497,-77.9537"
       style="fill:none;stroke:#ffffff;stroke-width:0.3985;stroke-linecap:butt;stroke-linejoin:miter;stroke-miterlimit:10;stroke-dasharray:none;stroke-opacity:1"
       transform="matrix(1.3333333,0,0,-1.3333333,172.24,151.44667)" />
    <path
       id="path18"
       d="M 97.31497,-77.9537 H 72.76587"
       style="fill:none;stroke:#ffffff;stroke-width:0.3985;stroke-linecap:butt;stroke-linejoin:miter;stroke-miterlimit:10;stroke-dasharray:none;stroke-opacity:1"
       transform="matrix(1.3333333,0,0,-1.3333333,172.24,151.44667)" />
    <path
       id="path19"
       d="m 97.31497,-77.9537 -24.5491,14.17338"
       style="fill:none;stroke:#ffffff;stroke-width:0.3985;stroke-linecap:butt;stroke-linejoin:miter;stroke-miterlimit:10;stroke-dasharray:none;stroke-opacity:1"
       transform="matrix(1.3333333,0,0,-1.3333333,172.24,151.44667)" />
    <path
       id="path20"
       d="m 5.1671172,-1.3228594 h 2.2382812 c 0.1289063,0 0.328125,0 0.328125,-0.1992187 0,-0.1992188 -0.1992187,-0.1992188 -0.3398437,-0.1992188 h -2.109375 l 0.3984375,-1.5351562 h 1.7109375 c 0.140625,0 0.3398437,0 0.3398437,-0.1992188 0,-0.1992187 -0.1992187,-0.1992187 -0.328125,-0.1992187 h -1.59375 l 0.7734375,-2.8828125 c 0.011719,-0.011719 0.035156,-0.140625 0.035156,-0.1757813 0,-0.1054687 -0.082031,-0.1992187 -0.1992188,-0.1992187 -0.1523437,0 -0.1875,0.1289062 -0.2109375,0.234375 l -0.8085937,3.0234375 h -1.875 l 0.7734375,-2.8828125 c 0.011719,-0.011719 0.046875,-0.140625 0.046875,-0.1757813 0,-0.1054687 -0.09375,-0.1992187 -0.1992188,-0.1992187 -0.1640625,0 -0.1992187,0.1289062 -0.2226562,0.234375 L 3.1163359,-3.6548906 H 0.88977344 c -0.140625,0 -0.328125,0 -0.328125,0.1992187 0,0.1992188 0.1875,0.1992188 0.33984375,0.1992188 H 2.9991484 L 2.6007109,-1.7212969 H 0.90149219 c -0.15234375,0 -0.33984375,0 -0.33984375,0.1992188 0,0.1992187 0.1875,0.1992187 0.328125,0.1992187 H 2.4835234 L 1.6983672,1.5599531 c 0,0.011719 -0.035156,0.140625 -0.035156,0.1757813 0,0.1054687 0.09375,0.1992187 0.1992188,0.1992187 0.1640625,0 0.1875,-0.1289062 0.2226562,-0.234375 L 2.8936797,-1.3228594 H 4.7569609 L 3.9835234,1.5599531 c -0.011719,0.011719 -0.035156,0.140625 -0.035156,0.1757813 0,0.1054687 0.082031,0.1992187 0.1992187,0.1992187 0.1523438,0 0.1875,-0.1289062 0.2109375,-0.234375 z m -2.15625,-0.3984375 0.3984375,-1.5351562 h 1.875 L 4.8858672,-1.7212969 Z M 11.23157,-6.3736406 c 0,-0.234375 0,-0.2578125 -0.234375,-0.2578125 -0.609375,0.6328125 -1.4882809,0.6328125 -1.8046872,0.6328125 v 0.3164062 c 0.1992188,0 0.7851563,0 1.3007812,-0.2578125 v 5.15625003 c 0,0.3515625 -0.03516,0.48046875 -0.9257812,0.48046875 H 9.2511016 v 0.3046875 c 0.3515625,-0.03515625 1.2070314,-0.03515625 1.6054684,-0.03515625 0.398438,0 1.265625,0 1.617188,0.03515625 v -0.3046875 h -0.316406 c -0.902344,0 -0.925782,-0.1171875 -0.925782,-0.48046875 z m 0,0"
       style="fill:#000000;fill-opacity:1;fill-rule:nonzero;stroke:none"
       aria-label="#1"
       transform="matrix(1.3333333,0,0,1.3333333,276.77067,249.256)" />
    <path
       id="path21"
       d="m -113.38724,21.26009 12.27455,-7.08672 V 0 L -113.38724,-7.0867 -125.66177,0 v 14.17337 z"
       style="fill:none;stroke:#ffffff;stroke-width:0.3985;stroke-linecap:butt;stroke-linejoin:miter;stroke-miterlimit:10;stroke-dasharray:none;stroke-opacity:1"
       transform="matrix(1.3333333,0,0,-1.3333333,172.24,151.44667)" />
    <path
       id="path22"
       d="M -113.38724,21.26009 -125.66177,0"
       style="fill:none;stroke:#ffffff;stroke-width:0.3985;stroke-linecap:butt;stroke-linejoin:miter;stroke-miterlimit:10;stroke-dasharray:none;stroke-opacity:1"
       transform="matrix(1.3333333,0,0,-1.3333333,172.24,151.44667)" />
    <path
       id="path23"
       d="M -101.11269,14.17337 -125.66177,0"
       style="fill:none;stroke:#ffffff;stroke-width:0.3985;stroke-linecap:butt;stroke-linejoin:miter;stroke-miterlimit:10;stroke-dasharray:none;stroke-opacity:1"
       transform="matrix(1.3333333,0,0,-1.3333333,172.24,151.44667)" />
    <path
       id="path24"
       d="M -101.11269,14.17337 -113.38724,-7.0867"
       style="fill:none;stroke:#ffffff;stroke-width:0.3985;stroke-linecap:butt;stroke-linejoin:miter;stroke-miterlimit:10;stroke-dasharray:none;stroke-opacity:1"
       transform="matrix(1.3333333,0,0,-1.3333333,172.24,151.44667)" />
    <path
       id="path25"
       d="m 5.1673125,-1.3229844 h 2.2382812 c 0.1289063,0 0.328125,0 0.328125,-0.1992187 0,-0.1992188 -0.1992187,-0.1992188 -0.3398437,-0.1992188 H 5.2845 L 5.6829375,-3.2565781 H 7.393875 c 0.140625,0 0.3398437,0 0.3398437,-0.1992188 0,-0.1992187 -0.1992187,-0.1992187 -0.328125,-0.1992187 h -1.59375 l 0.7734375,-2.8828125 c 0.011719,-0.011719 0.035156,-0.140625 0.035156,-0.1757813 0,-0.1054687 -0.082031,-0.1992187 -0.1992188,-0.1992187 -0.1523437,0 -0.1875,0.1289062 -0.2109375,0.234375 l -0.8085937,3.0234375 h -1.875 L 4.300125,-6.5378281 C 4.3118437,-6.5495469 4.347,-6.6784531 4.347,-6.7136094 c 0,-0.1054687 -0.09375,-0.1992187 -0.1992188,-0.1992187 -0.1640625,0 -0.1992187,0.1289062 -0.2226562,0.234375 L 3.1165312,-3.6550156 H 0.88996875 c -0.140625,0 -0.328125,0 -0.328125,0.1992187 0,0.1992188 0.1875,0.1992188 0.33984375,0.1992188 H 2.9993437 L 2.6009062,-1.7214219 H 0.9016875 c -0.15234375,0 -0.33984375,0 -0.33984375,0.1992188 0,0.1992187 0.1875,0.1992187 0.328125,0.1992187 H 2.4837187 L 1.6985625,1.5598281 c 0,0.011719 -0.035156,0.140625 -0.035156,0.1757813 0,0.1054687 0.09375,0.1992187 0.1992188,0.1992187 0.1640625,0 0.1875,-0.1289062 0.2226562,-0.234375 L 2.893875,-1.3229844 H 4.7571562 L 3.9837187,1.5598281 c -0.011719,0.011719 -0.035156,0.140625 -0.035156,0.1757813 0,0.1054687 0.082031,0.1992187 0.1992187,0.1992187 0.1523438,0 0.1875,-0.1289062 0.2109375,-0.234375 z M 3.0110625,-1.7214219 3.4095,-3.2565781 h 1.875 l -0.3984375,1.5351562 z m 8.2207035,-4.6523437 c 0,-0.234375 0,-0.2578125 -0.234375,-0.2578125 -0.609375,0.6328125 -1.4882816,0.6328125 -1.8046879,0.6328125 v 0.3164062 c 0.1992188,0 0.7851563,0 1.3007809,-0.2578125 v 5.15625002 c 0,0.3515625 -0.03516,0.48046875 -0.9257809,0.48046875 H 9.2512969 v 0.3046875 c 0.3515625,-0.03515625 1.2070311,-0.03515625 1.6054691,-0.03515625 0.398437,0 1.265625,0 1.617187,0.03515625 v -0.3046875 h -0.316406 c -0.902344,0 -0.925781,-0.1171875 -0.925781,-0.48046875 z m 0,0"
       style="fill:#000000;fill-opacity:1;fill-rule:nonzero;stroke:none"
       aria-label="#1"
       transform="matrix(1.3333333,0,0,1.3333333,12.204,145.31867)" />
    <path
       id="path26"
       d="m 113.38724,21.26009 12.27453,-7.08672 V 0 L 113.38724,-7.0867 101.11269,0 v 14.17337 z"
       style="fill:none;stroke:#ffffff;stroke-width:0.3985;stroke-linecap:butt;stroke-linejoin:miter;stroke-miterlimit:10;stroke-dasharray:none;stroke-opacity:1"
       transform="matrix(1.3333333,0,0,-1.3333333,172.24,151.44667)" />
    <path
       id="path27"
       d="M 113.38724,21.26009 125.66177,0"
       style="fill:none;stroke:#ffffff;stroke-width:0.3985;stroke-linecap:butt;stroke-linejoin:miter;stroke-miterlimit:10;stroke-dasharray:none;stroke-opacity:1"
       transform="matrix(1.3333333,0,0,-1.3333333,172.24,151.44667)" />
    <path
       id="path28"
       d="M 125.66177,0 101.11269,14.17337"
       style="fill:none;stroke:#ffffff;stroke-width:0.3985;stroke-linecap:butt;stroke-linejoin:miter;stroke-miterlimit:10;stroke-dasharray:none;stroke-opacity:1"
       transform="matrix(1.3333333,0,0,-1.3333333,172.24,151.44667)" />
    <path
       id="path29"
       d="M 113.38724,-7.0867 101.11269,14.17337"
       style="fill:none;stroke:#ffffff;stroke-width:0.3985;stroke-linecap:butt;stroke-linejoin:miter;stroke-miterlimit:10;stroke-dasharray:none;stroke-opacity:1"
       transform="matrix(1.3333333,0,0,-1.3333333,172.24,151.44667)" />
    <path
       id="path30"
       d="m 5.1687734,-1.3229844 h 2.2382813 c 0.1289062,0 0.328125,0 0.328125,-0.1992187 0,-0.1992188 -0.1992188,-0.1992188 -0.3398438,-0.1992188 h -2.109375 l 0.3984375,-1.5351562 h 1.7109375 c 0.140625,0 0.3398438,0 0.3398438,-0.1992188 0,-0.1992187 -0.1992188,-0.1992187 -0.328125,-0.1992187 h -1.59375 l 0.7734375,-2.8828125 c 0.011719,-0.011719 0.035156,-0.140625 0.035156,-0.1757813 0,-0.1054687 -0.082031,-0.1992187 -0.1992187,-0.1992187 -0.1523438,0 -0.1875,0.1289062 -0.2109375,0.234375 l -0.8085938,3.0234375 h -1.875 l 0.7734375,-2.8828125 c 0.011719,-0.011719 0.046875,-0.140625 0.046875,-0.1757813 0,-0.1054687 -0.09375,-0.1992187 -0.1992187,-0.1992187 -0.1640625,0 -0.1992188,0.1289062 -0.2226563,0.234375 L 3.1179922,-3.6550156 H 0.89142969 c -0.140625,0 -0.328125,0 -0.328125,0.1992187 0,0.1992188 0.1875,0.1992188 0.33984375,0.1992188 H 3.0008047 L 2.6023672,-1.7214219 H 0.90314844 c -0.15234375,0 -0.33984375,0 -0.33984375,0.1992188 0,0.1992187 0.1875,0.1992187 0.328125,0.1992187 H 2.4851797 L 1.7000234,1.5598281 c 0,0.011719 -0.035156,0.140625 -0.035156,0.1757813 0,0.1054687 0.09375,0.1992187 0.1992187,0.1992187 0.1640625,0 0.1875,-0.1289062 0.2226563,-0.234375 L 2.8953359,-1.3229844 H 4.7586172 L 3.9851797,1.5598281 c -0.011719,0.011719 -0.035156,0.140625 -0.035156,0.1757813 0,0.1054687 0.082031,0.1992187 0.1992188,0.1992187 0.1523437,0 0.1875,-0.1289062 0.2109375,-0.234375 z m -2.15625,-0.3984375 0.3984375,-1.5351562 h 1.875 l -0.3984375,1.5351562 z m 8.2177736,-4.6523437 c 0,-0.234375 0,-0.2578125 -0.234375,-0.2578125 -0.609375,0.6328125 -1.4882814,0.6328125 -1.8046876,0.6328125 v 0.3164062 c 0.1992187,0 0.7851562,0 1.3007816,-0.2578125 v 5.15625002 c 0,0.3515625 -0.03516,0.48046875 -0.9257816,0.48046875 H 9.2498281 v 0.3046875 c 0.3515625,-0.03515625 1.2070309,-0.03515625 1.6054689,-0.03515625 0.398437,0 1.265625,0 1.617187,0.03515625 v -0.3046875 h -0.316406 c -0.902344,0 -0.925781,-0.1171875 -0.925781,-0.48046875 z m 0,0"
       style="fill:#000000;fill-opacity:1;fill-rule:nonzero;stroke:none"
       aria-label="#1"
       transform="matrix(1.3333333,0,0,1.3333333,314.56533,145.31867)" />
    <path
       id="path31"
       d="m -28.3468,14.17339 12.27455,-7.0867 V -7.08669 l -12.27455,-7.0867 -12.27455,7.0867 V 7.08669 Z"
       style="fill:none;stroke:#ffffff;stroke-width:0.3985;stroke-linecap:butt;stroke-linejoin:miter;stroke-miterlimit:10;stroke-dasharray:none;stroke-opacity:1"
       transform="matrix(1.3333333,0,0,-1.3333333,172.24,151.44667)" />
    <path
       id="path32"
       d="m -16.07225,7.08669 h -24.5491"
       style="fill:none;stroke:#ffffff;stroke-width:0.3985;stroke-linecap:butt;stroke-linejoin:miter;stroke-miterlimit:10;stroke-dasharray:none;stroke-opacity:1"
       transform="matrix(1.3333333,0,0,-1.3333333,172.24,151.44667)" />
    <path
       id="path33"
       d="M -16.07225,7.08669 -40.62135,-7.08669"
       style="fill:none;stroke:#ffffff;stroke-width:0.3985;stroke-linecap:butt;stroke-linejoin:miter;stroke-miterlimit:10;stroke-dasharray:none;stroke-opacity:1"
       transform="matrix(1.3333333,0,0,-1.3333333,172.24,151.44667)" />
    <path
       id="path34"
       d="m -16.07225,-7.08669 h -24.5491"
       style="fill:none;stroke:#ffffff;stroke-width:0.3985;stroke-linecap:butt;stroke-linejoin:miter;stroke-miterlimit:10;stroke-dasharray:none;stroke-opacity:1"
       transform="matrix(1.3333333,0,0,-1.3333333,172.24,151.44667)" />
    <path
       id="path35"
       d="m 5.1683516,-1.3230703 h 2.2382812 c 0.1289063,0 0.328125,0 0.328125,-0.1992188 0,-0.1992187 -0.1992187,-0.1992187 -0.3398437,-0.1992187 h -2.109375 l 0.3984375,-1.5351563 h 1.7109375 c 0.140625,0 0.3398437,0 0.3398437,-0.1992187 0,-0.1992188 -0.1992187,-0.1992188 -0.328125,-0.1992188 h -1.59375 l 0.7734375,-2.8828125 c 0.011719,-0.011719 0.035156,-0.140625 0.035156,-0.1757812 0,-0.1054688 -0.082031,-0.1992188 -0.1992188,-0.1992188 -0.1523437,0 -0.1875,0.1289063 -0.2109375,0.234375 l -0.8085937,3.0234375 h -1.875 l 0.7734375,-2.8828125 c 0.011719,-0.011719 0.046875,-0.140625 0.046875,-0.1757812 0,-0.1054688 -0.09375,-0.1992188 -0.1992188,-0.1992188 -0.1640625,0 -0.1992187,0.1289063 -0.2226562,0.234375 L 3.1175703,-3.6551016 H 0.89100781 c -0.140625,0 -0.328125,0 -0.328125,0.1992188 0,0.1992187 0.1875,0.1992187 0.33984375,0.1992187 H 3.0003828 L 2.6019453,-1.7215078 H 0.90272656 c -0.15234375,0 -0.33984375,0 -0.33984375,0.1992187 0,0.1992188 0.1875,0.1992188 0.328125,0.1992188 H 2.4847578 L 1.6996016,1.5597422 c 0,0.011719 -0.035156,0.140625 -0.035156,0.1757812 0,0.1054688 0.09375,0.1992188 0.1992188,0.1992188 0.1640625,0 0.1875,-0.1289063 0.2226562,-0.234375 L 2.8949141,-1.3230703 H 4.7581953 L 3.9847578,1.5597422 c -0.011719,0.011719 -0.035156,0.140625 -0.035156,0.1757812 0,0.1054688 0.082031,0.1992188 0.1992187,0.1992188 0.1523438,0 0.1875,-0.1289063 0.2109375,-0.234375 z m -2.15625,-0.3984375 0.3984375,-1.5351563 h 1.875 l -0.3984375,1.5351563 z m 8.2207034,-4.6523438 c 0,-0.234375 0,-0.2578125 -0.234375,-0.2578125 -0.609375,0.6328125 -1.4882816,0.6328125 -1.8046878,0.6328125 v 0.3164063 c 0.1992187,0 0.7851562,0 1.3007808,-0.2578125 v 5.15624999 c 0,0.3515625 -0.03516,0.48046875 -0.9257808,0.48046875 H 9.2523359 v 0.3046875 c 0.3515625,-0.03515625 1.2070311,-0.03515625 1.6054691,-0.03515625 0.398437,0 1.265625,0 1.617187,0.03515625 v -0.3046875 h -0.316406 c -0.902344,0 -0.925781,-0.1171875 -0.925781,-0.48046875 z m 0,0"
       style="fill:#000000;fill-opacity:1;fill-rule:nonzero;stroke:none"
       aria-label="#1"
       transform="matrix(1.3333333,0,0,1.3333333,125.58933,154.768)" />
    <path
       id="path36"
       d="M 28.3468,14.17339 40.62135,7.08669 V -7.08669 l -12.27455,-7.0867 -12.27455,7.0867 V 7.08669 Z"
       style="fill:none;stroke:#ffffff;stroke-width:0.3985;stroke-linecap:butt;stroke-linejoin:miter;stroke-miterlimit:10;stroke-dasharray:none;stroke-opacity:1"
       transform="matrix(1.3333333,0,0,-1.3333333,172.24,151.44667)" />
    <path
       id="path37"
       d="M 40.62135,7.08669 H 16.07225"
       style="fill:none;stroke:#ffffff;stroke-width:0.3985;stroke-linecap:butt;stroke-linejoin:miter;stroke-miterlimit:10;stroke-dasharray:none;stroke-opacity:1"
       transform="matrix(1.3333333,0,0,-1.3333333,172.24,151.44667)" />
    <path
       id="path38"
       d="M 40.62135,-7.08669 16.07225,7.08669"
       style="fill:none;stroke:#ffffff;stroke-width:0.3985;stroke-linecap:butt;stroke-linejoin:miter;stroke-miterlimit:10;stroke-dasharray:none;stroke-opacity:1"
       transform="matrix(1.3333333,0,0,-1.3333333,172.24,151.44667)" />
    <path
       id="path39"
       d="M 40.62135,-7.08669 H 16.07225"
       style="fill:none;stroke:#ffffff;stroke-width:0.3985;stroke-linecap:butt;stroke-linejoin:miter;stroke-miterlimit:10;stroke-dasharray:none;stroke-opacity:1"
       transform="matrix(1.3333333,0,0,-1.3333333,172.24,151.44667)" />
    <path
       id="path40"
       d="m 5.1677344,-1.3230703 h 2.2382812 c 0.1289063,0 0.328125,0 0.328125,-0.1992188 0,-0.1992187 -0.1992187,-0.1992187 -0.3398437,-0.1992187 h -2.109375 l 0.3984375,-1.5351563 h 1.7109375 c 0.140625,0 0.3398437,0 0.3398437,-0.1992187 0,-0.1992188 -0.1992187,-0.1992188 -0.328125,-0.1992188 h -1.59375 l 0.7734375,-2.8828125 c 0.011719,-0.011719 0.035156,-0.140625 0.035156,-0.1757812 0,-0.1054688 -0.082031,-0.1992188 -0.1992188,-0.1992188 -0.1523437,0 -0.1875,0.1289063 -0.2109375,0.234375 l -0.8085937,3.0234375 h -1.875 l 0.7734375,-2.8828125 c 0.011719,-0.011719 0.046875,-0.140625 0.046875,-0.1757812 0,-0.1054688 -0.09375,-0.1992188 -0.1992188,-0.1992188 -0.1640625,0 -0.1992187,0.1289063 -0.2226562,0.234375 L 3.1169531,-3.6551016 H 0.89039063 c -0.140625,0 -0.328125,0 -0.328125,0.1992188 0,0.1992187 0.1875,0.1992187 0.33984375,0.1992187 H 2.9997656 L 2.6013281,-1.7215078 H 0.90210938 c -0.15234375,0 -0.33984375,0 -0.33984375,0.1992187 0,0.1992188 0.1875,0.1992188 0.328125,0.1992188 H 2.4841406 L 1.6989844,1.5597422 c 0,0.011719 -0.035156,0.140625 -0.035156,0.1757812 0,0.1054688 0.09375,0.1992188 0.1992188,0.1992188 0.1640625,0 0.1875,-0.1289063 0.2226562,-0.234375 L 2.8942969,-1.3230703 H 4.7575781 L 3.9841406,1.5597422 c -0.011719,0.011719 -0.035156,0.140625 -0.035156,0.1757812 0,0.1054688 0.082031,0.1992188 0.1992187,0.1992188 0.1523438,0 0.1875,-0.1289063 0.2109375,-0.234375 z m -2.15625,-0.3984375 0.3984375,-1.5351563 h 1.875 l -0.3984375,1.5351563 z m 8.2207036,-4.6523438 c 0,-0.234375 0,-0.2578125 -0.234375,-0.2578125 -0.609375,0.6328125 -1.4882817,0.6328125 -1.804688,0.6328125 v 0.3164063 c 0.1992188,0 0.7851563,0 1.300781,-0.2578125 v 5.15624999 c 0,0.3515625 -0.03516,0.48046875 -0.925781,0.48046875 H 9.2517188 v 0.3046875 c 0.3515625,-0.03515625 1.2070312,-0.03515625 1.6054692,-0.03515625 0.398437,0 1.265625,0 1.617187,0.03515625 v -0.3046875 h -0.316406 c -0.902344,0 -0.925781,-0.1171875 -0.925781,-0.48046875 z m 0,0"
       style="fill:#000000;fill-opacity:1;fill-rule:nonzero;stroke:none"
       aria-label="#1"
       transform="matrix(1.3333333,0,0,1.3333333,201.18,154.768)" />
    <path
       id="path41"
       d="m -70.867,14.17339 12.27453,-7.0867 V -7.08669 l -12.27453,-7.0867 -12.27456,7.0867 V 7.08669 Z"
       style="fill:none;stroke:#ffffff;stroke-width:0.3985;stroke-linecap:butt;stroke-linejoin:miter;stroke-miterlimit:10;stroke-dasharray:none;stroke-opacity:1"
       transform="matrix(1.3333333,0,0,-1.3333333,172.24,151.44667)" />
    <path
       id="path42"
       d="M -70.867,14.17339 -83.14156,-7.08669"
       style="fill:none;stroke:#ffffff;stroke-width:0.3985;stroke-linecap:butt;stroke-linejoin:miter;stroke-miterlimit:10;stroke-dasharray:none;stroke-opacity:1"
       transform="matrix(1.3333333,0,0,-1.3333333,172.24,151.44667)" />
    <path
       id="path43"
       d="M -70.867,14.17339 V -14.17339"
       style="fill:none;stroke:#ffffff;stroke-width:0.3985;stroke-linecap:butt;stroke-linejoin:miter;stroke-miterlimit:10;stroke-dasharray:none;stroke-opacity:1"
       transform="matrix(1.3333333,0,0,-1.3333333,172.24,151.44667)" />
    <path
       id="path44"
       d="M -58.59247,7.08669 -70.867,-14.17339"
       style="fill:none;stroke:#ffffff;stroke-width:0.3985;stroke-linecap:butt;stroke-linejoin:miter;stroke-miterlimit:10;stroke-dasharray:none;stroke-opacity:1"
       transform="matrix(1.3333333,0,0,-1.3333333,172.24,151.44667)" />
    <path
       id="path45"
       d="m 5.1668672,-1.3230703 h 2.2382812 c 0.1289063,0 0.328125,0 0.328125,-0.1992188 0,-0.1992187 -0.1992187,-0.1992187 -0.3398437,-0.1992187 h -2.109375 l 0.3984375,-1.5351563 h 1.7109375 c 0.140625,0 0.3398437,0 0.3398437,-0.1992187 0,-0.1992188 -0.1992187,-0.1992188 -0.328125,-0.1992188 h -1.59375 l 0.7734375,-2.8828125 c 0.011719,-0.011719 0.035156,-0.140625 0.035156,-0.1757812 0,-0.1054688 -0.082031,-0.1992188 -0.1992188,-0.1992188 -0.1523437,0 -0.1875,0.1289063 -0.2109375,0.234375 l -0.8085937,3.0234375 h -1.875 l 0.7734375,-2.8828125 c 0.011719,-0.011719 0.046875,-0.140625 0.046875,-0.1757812 0,-0.1054688 -0.09375,-0.1992188 -0.1992188,-0.1992188 -0.1640625,0 -0.1992187,0.1289063 -0.2226562,0.234375 L 3.1160859,-3.6551016 H 0.88952344 c -0.140625,0 -0.328125,0 -0.328125,0.1992188 0,0.1992187 0.1875,0.1992187 0.33984375,0.1992187 H 2.9988984 L 2.6004609,-1.7215078 H 0.90124219 c -0.15234375,0 -0.33984375,0 -0.33984375,0.1992187 0,0.1992188 0.1875,0.1992188 0.328125,0.1992188 H 2.4832734 L 1.6981172,1.5597422 c 0,0.011719 -0.035156,0.140625 -0.035156,0.1757812 0,0.1054688 0.09375,0.1992188 0.1992188,0.1992188 0.1640625,0 0.1875,-0.1289063 0.2226562,-0.234375 L 2.8934297,-1.3230703 H 4.7567109 L 3.9832734,1.5597422 c -0.011719,0.011719 -0.035156,0.140625 -0.035156,0.1757812 0,0.1054688 0.082031,0.1992188 0.1992187,0.1992188 0.1523438,0 0.1875,-0.1289063 0.2109375,-0.234375 z m -2.15625,-0.3984375 0.3984375,-1.5351563 h 1.875 L 4.8856172,-1.7215078 Z M 11.23132,-6.3738516 c 0,-0.234375 0,-0.2578125 -0.234375,-0.2578125 -0.609375,0.6328125 -1.4882809,0.6328125 -1.8046872,0.6328125 v 0.3164063 c 0.1992188,0 0.7851563,0 1.3007812,-0.2578125 v 5.15624999 c 0,0.3515625 -0.03516,0.48046875 -0.9257812,0.48046875 H 9.2508516 v 0.3046875 c 0.3515625,-0.03515625 1.2070314,-0.03515625 1.6054684,-0.03515625 0.398438,0 1.265625,0 1.617188,0.03515625 v -0.3046875 h -0.316406 c -0.902344,0 -0.925782,-0.1171875 -0.925782,-0.48046875 z m 0,0"
       style="fill:#000000;fill-opacity:1;fill-rule:nonzero;stroke:none"
       aria-label="#1"
       transform="matrix(1.3333333,0,0,1.3333333,68.896,154.768)" />
    <path
       id="path46"
       d="M 70.867,14.17339 83.14156,7.08669 V -7.08669 L 70.867,-14.17339 58.59247,-7.08669 V 7.08669 Z"
       style="fill:none;stroke:#ffffff;stroke-width:0.3985;stroke-linecap:butt;stroke-linejoin:miter;stroke-miterlimit:10;stroke-dasharray:none;stroke-opacity:1"
       transform="matrix(1.3333333,0,0,-1.3333333,172.24,151.44667)" />
    <path
       id="path47"
       d="M 70.867,14.17339 83.14156,-7.08669"
       style="fill:none;stroke:#ffffff;stroke-width:0.3985;stroke-linecap:butt;stroke-linejoin:miter;stroke-miterlimit:10;stroke-dasharray:none;stroke-opacity:1"
       transform="matrix(1.3333333,0,0,-1.3333333,172.24,151.44667)" />
    <path
       id="path48"
       d="M 70.867,14.17339 V -14.17339"
       style="fill:none;stroke:#ffffff;stroke-width:0.3985;stroke-linecap:butt;stroke-linejoin:miter;stroke-miterlimit:10;stroke-dasharray:none;stroke-opacity:1"
       transform="matrix(1.3333333,0,0,-1.3333333,172.24,151.44667)" />
    <path
       id="path49"
       d="M 70.867,-14.17339 58.59247,7.08669"
       style="fill:none;stroke:#ffffff;stroke-width:0.3985;stroke-linecap:butt;stroke-linejoin:miter;stroke-miterlimit:10;stroke-dasharray:none;stroke-opacity:1"
       transform="matrix(1.3333333,0,0,-1.3333333,172.24,151.44667)" />
    <path
       id="path50"
       d="M 5.1692187,-1.3230703 H 7.4075 c 0.1289062,0 0.328125,0 0.328125,-0.1992188 0,-0.1992187 -0.1992188,-0.1992187 -0.3398438,-0.1992187 h -2.109375 l 0.3984375,-1.5351563 h 1.7109375 c 0.140625,0 0.3398438,0 0.3398438,-0.1992187 0,-0.1992188 -0.1992188,-0.1992188 -0.328125,-0.1992188 H 5.81375 l 0.7734375,-2.8828125 c 0.011719,-0.011719 0.035156,-0.140625 0.035156,-0.1757812 0,-0.1054688 -0.082031,-0.1992188 -0.1992187,-0.1992188 -0.1523438,0 -0.1875,0.1289063 -0.2109375,0.234375 l -0.8085938,3.0234375 h -1.875 L 4.302031,-6.5379141 c 0.011719,-0.011719 0.046875,-0.140625 0.046875,-0.1757812 0,-0.1054688 -0.09375,-0.1992188 -0.1992187,-0.1992188 -0.1640625,0 -0.1992188,0.1289063 -0.2226563,0.234375 L 3.1184375,-3.6551016 H 0.891875 c -0.140625,0 -0.328125,0 -0.328125,0.1992188 0,0.1992187 0.1875,0.1992187 0.33984375,0.1992187 H 3.00125 L 2.6028125,-1.7215078 H 0.90359375 c -0.15234375,0 -0.33984375,0 -0.33984375,0.1992187 0,0.1992188 0.1875,0.1992188 0.328125,0.1992188 h 1.59375 L 1.7004687,1.5597422 c 0,0.011719 -0.035156,0.140625 -0.035156,0.1757812 0,0.1054688 0.09375,0.1992188 0.1992187,0.1992188 0.1640625,0 0.1875,-0.1289063 0.2226563,-0.234375 L 2.8957812,-1.3230703 H 4.7590625 L 3.985625,1.5597422 c -0.011719,0.011719 -0.035156,0.140625 -0.035156,0.1757812 0,0.1054688 0.082031,0.1992188 0.1992188,0.1992188 0.1523437,0 0.1875,-0.1289063 0.2109375,-0.234375 z m -2.15625,-0.3984375 0.3984375,-1.5351563 h 1.875 l -0.3984375,1.5351563 z m 8.2177733,-4.6523438 c 0,-0.234375 0,-0.2578125 -0.234375,-0.2578125 -0.609375,0.6328125 -1.4882811,0.6328125 -1.8046873,0.6328125 v 0.3164063 c 0.1992187,0 0.7851562,0 1.3007813,-0.2578125 v 5.15624999 c 0,0.3515625 -0.03516,0.48046875 -0.9257813,0.48046875 H 9.2502734 v 0.3046875 c 0.3515625,-0.03515625 1.2070316,-0.03515625 1.6054686,-0.03515625 0.398438,0 1.265625,0 1.617188,0.03515625 v -0.3046875 h -0.316407 c -0.902343,0 -0.925781,-0.1171875 -0.925781,-0.48046875 z m 0,0"
       style="fill:#000000;fill-opacity:1;fill-rule:nonzero;stroke:none"
       aria-label="#1"
       transform="matrix(1.3333333,0,0,1.3333333,257.87333,154.768)" />
    <path
       id="path51"
       d="m -85.04042,85.0404 12.27455,-7.0867 V 63.78032 l -12.27455,-7.0867 -12.27455,7.0867 V 77.9537 Z"
       style="fill:none;stroke:#ffffff;stroke-width:0.3985;stroke-linecap:butt;stroke-linejoin:miter;stroke-miterlimit:10;stroke-dasharray:none;stroke-opacity:1"
       transform="matrix(1.3333333,0,0,-1.3333333,172.24,151.44667)" />
    <path
       id="path52"
       d="M -85.04042,85.0404 -97.31497,63.78032"
       style="fill:none;stroke:#ffffff;stroke-width:0.3985;stroke-linecap:butt;stroke-linejoin:miter;stroke-miterlimit:10;stroke-dasharray:none;stroke-opacity:1"
       transform="matrix(1.3333333,0,0,-1.3333333,172.24,151.44667)" />
    <path
       id="path53"
       d="M -72.76587,77.9537 -97.31497,63.78032"
       style="fill:none;stroke:#ffffff;stroke-width:0.3985;stroke-linecap:butt;stroke-linejoin:miter;stroke-miterlimit:10;stroke-dasharray:none;stroke-opacity:1"
       transform="matrix(1.3333333,0,0,-1.3333333,172.24,151.44667)" />
    <path
       id="path54"
       d="m -72.76587,63.78032 h -24.5491"
       style="fill:none;stroke:#ffffff;stroke-width:0.3985;stroke-linecap:butt;stroke-linejoin:miter;stroke-miterlimit:10;stroke-dasharray:none;stroke-opacity:1"
       transform="matrix(1.3333333,0,0,-1.3333333,172.24,151.44667)" />
    <path
       id="path55"
       d="M 5.1689687,-1.3232813 H 7.40725 c 0.1289062,0 0.328125,0 0.328125,-0.1992187 0,-0.1992188 -0.1992188,-0.1992188 -0.3398438,-0.1992188 H 5.2861562 L 5.6845937,-3.256875 h 1.7109375 c 0.140625,0 0.3398438,0 0.3398438,-0.1992188 0,-0.1992187 -0.1992188,-0.1992187 -0.328125,-0.1992187 H 5.8135 L 6.5869375,-6.538125 c 0.011719,-0.011719 0.035156,-0.140625 0.035156,-0.1757813 0,-0.1054687 -0.082031,-0.1992187 -0.1992187,-0.1992187 -0.1523438,0 -0.1875,0.1289062 -0.2109375,0.234375 l -0.8085938,3.0234375 h -1.875 L 4.3017812,-6.538125 c 0.011719,-0.011719 0.046875,-0.140625 0.046875,-0.1757813 0,-0.1054687 -0.09375,-0.1992187 -0.1992187,-0.1992187 -0.1640625,0 -0.1992188,0.1289062 -0.2226563,0.234375 L 3.1181875,-3.6553125 H 0.891625 c -0.140625,0 -0.328125,0 -0.328125,0.1992187 0,0.1992188 0.1875,0.1992188 0.33984375,0.1992188 H 3.001 L 2.6025625,-1.7217188 H 0.90334375 c -0.15234375,0 -0.33984375,0 -0.33984375,0.1992188 0,0.1992187 0.1875,0.1992187 0.328125,0.1992187 h 1.59375 L 1.7002187,1.5595312 c 0,0.011719 -0.035156,0.140625 -0.035156,0.1757813 0,0.1054687 0.09375,0.1992187 0.1992187,0.1992187 0.1640625,0 0.1875,-0.1289062 0.2226563,-0.234375 L 2.8955312,-1.3232813 H 4.7588125 L 3.985375,1.5595312 c -0.011719,0.011719 -0.035156,0.140625 -0.035156,0.1757813 0,0.1054687 0.082031,0.1992187 0.1992188,0.1992187 0.1523437,0 0.1875,-0.1289062 0.2109375,-0.234375 z m -2.15625,-0.3984375 0.3984375,-1.5351562 h 1.875 l -0.3984375,1.5351562 z m 8.2177733,-4.6523437 c 0,-0.234375 0,-0.2578125 -0.234375,-0.2578125 -0.609375,0.6328125 -1.4882811,0.6328125 -1.8046873,0.6328125 v 0.3164062 c 0.1992187,0 0.7851562,0 1.3007813,-0.2578125 v 5.15625005 c 0,0.3515625 -0.03516,0.48046875 -0.9257813,0.48046875 H 9.2500234 V 9.375e-4 c 0.3515625,-0.03515625 1.2070316,-0.03515625 1.6054686,-0.03515625 0.398438,0 1.265625,0 1.617188,0.03515625 V -0.30375 h -0.316407 c -0.902343,0 -0.925781,-0.1171875 -0.925781,-0.48046875 z m 0,0"
       style="fill:#000000;fill-opacity:1;fill-rule:nonzero;stroke:none"
       aria-label="#1"
       transform="matrix(1.3333333,0,0,1.3333333,49.998667,60.28)" />
    <path
       id="path56"
       d="M 85.04042,85.0404 97.31497,77.9537 V 63.78032 l -12.27455,-7.0867 -12.27455,7.0867 V 77.9537 Z"
       style="fill:none;stroke:#ffffff;stroke-width:0.3985;stroke-linecap:butt;stroke-linejoin:miter;stroke-miterlimit:10;stroke-dasharray:none;stroke-opacity:1"
       transform="matrix(1.3333333,0,0,-1.3333333,172.24,151.44667)" />
    <path
       id="path57"
       d="M 85.04042,85.0404 97.31497,63.78032"
       style="fill:none;stroke:#ffffff;stroke-width:0.3985;stroke-linecap:butt;stroke-linejoin:miter;stroke-miterlimit:10;stroke-dasharray:none;stroke-opacity:1"
       transform="matrix(1.3333333,0,0,-1.3333333,172.24,151.44667)" />
    <path
       id="path58"
       d="M 97.31497,63.78032 H 72.76587"
       style="fill:none;stroke:#ffffff;stroke-width:0.3985;stroke-linecap:butt;stroke-linejoin:miter;stroke-miterlimit:10;stroke-dasharray:none;stroke-opacity:1"
       transform="matrix(1.3333333,0,0,-1.3333333,172.24,151.44667)" />
    <path
       id="path59"
       d="M 97.31497,63.78032 72.76587,77.9537"
       style="fill:none;stroke:#ffffff;stroke-width:0.3985;stroke-linecap:butt;stroke-linejoin:miter;stroke-miterlimit:10;stroke-dasharray:none;stroke-opacity:1"
       transform="matrix(1.3333333,0,0,-1.3333333,172.24,151.44667)" />
    <path
       id="path60"
       d="m 5.1671172,-1.3232813 h 2.2382812 c 0.1289063,0 0.328125,0 0.328125,-0.1992187 0,-0.1992188 -0.1992187,-0.1992188 -0.3398437,-0.1992188 H 5.2843047 L 5.6827422,-3.256875 h 1.7109375 c 0.140625,0 0.3398437,0 0.3398437,-0.1992188 0,-0.1992187 -0.1992187,-0.1992187 -0.328125,-0.1992187 h -1.59375 L 6.5850859,-6.538125 c 0.011719,-0.011719 0.035156,-0.140625 0.035156,-0.1757813 0,-0.1054687 -0.082031,-0.1992187 -0.1992188,-0.1992187 -0.1523437,0 -0.1875,0.1289062 -0.2109375,0.234375 l -0.8085937,3.0234375 h -1.875 L 4.2999297,-6.538125 c 0.011719,-0.011719 0.046875,-0.140625 0.046875,-0.1757813 0,-0.1054687 -0.09375,-0.1992187 -0.1992188,-0.1992187 -0.1640625,0 -0.1992187,0.1289062 -0.2226562,0.234375 L 3.1163359,-3.6553125 H 0.88977344 c -0.140625,0 -0.328125,0 -0.328125,0.1992187 0,0.1992188 0.1875,0.1992188 0.33984375,0.1992188 H 2.9991484 L 2.6007109,-1.7217188 H 0.90149219 c -0.15234375,0 -0.33984375,0 -0.33984375,0.1992188 0,0.1992187 0.1875,0.1992187 0.328125,0.1992187 H 2.4835234 L 1.6983672,1.5595312 c 0,0.011719 -0.035156,0.140625 -0.035156,0.1757813 0,0.1054687 0.09375,0.1992187 0.1992188,0.1992187 0.1640625,0 0.1875,-0.1289062 0.2226562,-0.234375 L 2.8936797,-1.3232813 H 4.7569609 L 3.9835234,1.5595312 c -0.011719,0.011719 -0.035156,0.140625 -0.035156,0.1757813 0,0.1054687 0.082031,0.1992187 0.1992187,0.1992187 0.1523438,0 0.1875,-0.1289062 0.2109375,-0.234375 z m -2.15625,-0.3984375 0.3984375,-1.5351562 h 1.875 L 4.8858672,-1.7217188 Z M 11.23157,-6.3740625 c 0,-0.234375 0,-0.2578125 -0.234375,-0.2578125 -0.609375,0.6328125 -1.4882809,0.6328125 -1.8046872,0.6328125 v 0.3164062 c 0.1992188,0 0.7851563,0 1.3007812,-0.2578125 v 5.15625005 c 0,0.3515625 -0.03516,0.48046875 -0.9257812,0.48046875 H 9.2511016 V 9.375e-4 c 0.3515625,-0.03515625 1.2070314,-0.03515625 1.6054684,-0.03515625 0.398438,0 1.265625,0 1.617188,0.03515625 V -0.30375 h -0.316406 c -0.902344,0 -0.925782,-0.1171875 -0.925782,-0.48046875 z m 0,0"
       style="fill:#000000;fill-opacity:1;fill-rule:nonzero;stroke:none"
       aria-label="#1"
       transform="matrix(1.3333333,0,0,1.3333333,276.77067,60.28)" />
    <path
       id="path61"
       d="M 0,56.6936 12.27454,49.60689 V 35.4335 L 0,28.3468 -12.27454,35.4335 v 14.17339 z"
       style="fill:none;stroke:#ffffff;stroke-width:0.3985;stroke-linecap:butt;stroke-linejoin:miter;stroke-miterlimit:10;stroke-dasharray:none;stroke-opacity:1"
       transform="matrix(1.3333333,0,0,-1.3333333,172.24,151.44667)" />
    <path
       id="path62"
       d="M 0,56.6936 12.27454,35.4335"
       style="fill:none;stroke:#ffffff;stroke-width:0.3985;stroke-linecap:butt;stroke-linejoin:miter;stroke-miterlimit:10;stroke-dasharray:none;stroke-opacity:1"
       transform="matrix(1.3333333,0,0,-1.3333333,172.24,151.44667)" />
    <path
       id="path63"
       d="M 0,56.6936 V 28.3468"
       style="fill:none;stroke:#ffffff;stroke-width:0.3985;stroke-linecap:butt;stroke-linejoin:miter;stroke-miterlimit:10;stroke-dasharray:none;stroke-opacity:1"
       transform="matrix(1.3333333,0,0,-1.3333333,172.24,151.44667)" />
    <path
       id="path64"
       d="M 0,56.6936 -12.27454,35.4335"
       style="fill:none;stroke:#ffffff;stroke-width:0.3985;stroke-linecap:butt;stroke-linejoin:miter;stroke-miterlimit:10;stroke-dasharray:none;stroke-opacity:1"
       transform="matrix(1.3333333,0,0,-1.3333333,172.24,151.44667)" />
    <path
       id="path65"
       d="m 5.1670781,-1.3245547 h 2.2382813 c 0.1289062,0 0.328125,0 0.328125,-0.1992187 0,-0.1992188 -0.1992188,-0.1992188 -0.3398438,-0.1992188 h -2.109375 l 0.3984375,-1.5351562 h 1.7109375 c 0.140625,0 0.3398438,0 0.3398438,-0.1992188 0,-0.1992187 -0.1992188,-0.1992187 -0.328125,-0.1992187 h -1.59375 l 0.7734375,-2.8828125 c 0.011719,-0.011719 0.035156,-0.140625 0.035156,-0.1757813 0,-0.1054687 -0.082031,-0.1992187 -0.1992187,-0.1992187 -0.1523438,0 -0.1875,0.1289062 -0.2109375,0.234375 l -0.8085938,3.0234375 h -1.875 l 0.7734375,-2.8828125 c 0.011719,-0.011719 0.046875,-0.140625 0.046875,-0.1757813 0,-0.1054687 -0.09375,-0.1992187 -0.1992187,-0.1992187 -0.1640625,0 -0.1992188,0.1289062 -0.2226563,0.234375 L 3.1162969,-3.6565859 H 0.88973437 c -0.140625,0 -0.328125,0 -0.328125,0.1992187 0,0.1992188 0.1875,0.1992188 0.33984375,0.1992188 H 2.9991094 L 2.6006719,-1.7229922 H 0.90145312 c -0.15234375,0 -0.33984375,0 -0.33984375,0.1992188 0,0.1992187 0.1875,0.1992187 0.328125,0.1992187 H 2.4834844 L 1.6983281,1.5582578 c 0,0.011719 -0.035156,0.140625 -0.035156,0.1757813 0,0.1054687 0.09375,0.1992187 0.1992187,0.1992187 0.1640625,0 0.1875,-0.1289062 0.2226563,-0.234375 L 2.8936406,-1.3245547 H 4.7569219 L 3.9834844,1.5582578 c -0.011719,0.011719 -0.035156,0.140625 -0.035156,0.1757813 0,0.1054687 0.082031,0.1992187 0.1992188,0.1992187 0.1523437,0 0.1875,-0.1289062 0.2109375,-0.234375 z m -2.15625,-0.3984375 0.3984375,-1.5351562 h 1.875 l -0.3984375,1.5351562 z m 8.2207029,-4.6523437 c 0,-0.234375 0,-0.2578125 -0.234375,-0.2578125 -0.609375,0.6328125 -1.488281,0.6328125 -1.8046873,0.6328125 v 0.3164062 c 0.1992188,0 0.7851563,0 1.3007813,-0.2578125 v 5.15625001 c 0,0.3515625 -0.03516,0.48046875 -0.9257813,0.48046875 H 9.2510625 V -3.359375e-4 C 9.602625,-0.03549219 10.458094,-0.03549219 10.856531,-0.03549219 c 0.398438,0 1.265625,0 1.617188,0.0351562525 V -0.30502344 h -0.316407 c -0.902343,0 -0.925781,-0.1171875 -0.925781,-0.48046875 z m 0,0"
       style="fill:#000000;fill-opacity:1;fill-rule:nonzero;stroke:none"
       aria-label="#1"
       transform="matrix(1.3333333,0,0,1.3333333,163.384,98.074667)" />
    <path
       id="path66"
       d="M 0,113.38722 12.27454,106.3005 V 92.12712 L 0,85.04042 l -12.27454,7.0867 v 14.17338 z"
       style="fill:none;stroke:#ffffff;stroke-width:0.3985;stroke-linecap:butt;stroke-linejoin:miter;stroke-miterlimit:10;stroke-dasharray:none;stroke-opacity:1"
       transform="matrix(1.3333333,0,0,-1.3333333,172.24,151.44667)" />
    <path
       id="path67"
       d="M 0,113.38722 12.27454,92.12712"
       style="fill:none;stroke:#ffffff;stroke-width:0.3985;stroke-linecap:butt;stroke-linejoin:miter;stroke-miterlimit:10;stroke-dasharray:none;stroke-opacity:1"
       transform="matrix(1.3333333,0,0,-1.3333333,172.24,151.44667)" />
    <path
       id="path68"
       d="M 12.27454,92.12712 H -12.27454"
       style="fill:none;stroke:#ffffff;stroke-width:0.3985;stroke-linecap:butt;stroke-linejoin:miter;stroke-miterlimit:10;stroke-dasharray:none;stroke-opacity:1"
       transform="matrix(1.3333333,0,0,-1.3333333,172.24,151.44667)" />
    <path
       id="path69"
       d="M 0,113.38722 -12.27454,92.12712"
       style="fill:none;stroke:#ffffff;stroke-width:0.3985;stroke-linecap:butt;stroke-linejoin:miter;stroke-miterlimit:10;stroke-dasharray:none;stroke-opacity:1"
       transform="matrix(1.3333333,0,0,-1.3333333,172.24,151.44667)" />
    <path
       id="path70"
       d="m 5.1670781,-1.3239375 h 2.2382813 c 0.1289062,0 0.328125,0 0.328125,-0.1992187 0,-0.1992188 -0.1992188,-0.1992188 -0.3398438,-0.1992188 h -2.109375 l 0.3984375,-1.5351562 h 1.7109375 c 0.140625,0 0.3398438,0 0.3398438,-0.1992188 0,-0.1992187 -0.1992188,-0.1992187 -0.328125,-0.1992187 h -1.59375 l 0.7734375,-2.8828125 c 0.011719,-0.011719 0.035156,-0.140625 0.035156,-0.1757813 0,-0.1054687 -0.082031,-0.1992187 -0.1992187,-0.1992187 -0.1523438,0 -0.1875,0.1289062 -0.2109375,0.234375 l -0.8085938,3.0234375 h -1.875 l 0.7734375,-2.8828125 c 0.011719,-0.011719 0.046875,-0.140625 0.046875,-0.1757813 0,-0.1054687 -0.09375,-0.1992187 -0.1992187,-0.1992187 -0.1640625,0 -0.1992188,0.1289062 -0.2226563,0.234375 L 3.1162969,-3.6559687 H 0.88973437 c -0.140625,0 -0.328125,0 -0.328125,0.1992187 0,0.1992188 0.1875,0.1992188 0.33984375,0.1992188 H 2.9991094 L 2.6006719,-1.722375 H 0.90145312 c -0.15234375,0 -0.33984375,0 -0.33984375,0.1992188 0,0.1992187 0.1875,0.1992187 0.328125,0.1992187 H 2.4834844 L 1.6983281,1.558875 c 0,0.011719 -0.035156,0.140625 -0.035156,0.1757813 0,0.1054687 0.09375,0.1992187 0.1992187,0.1992187 0.1640625,0 0.1875,-0.1289062 0.2226563,-0.234375 L 2.8936406,-1.3239375 H 4.7569219 L 3.9834844,1.558875 c -0.011719,0.011719 -0.035156,0.140625 -0.035156,0.1757813 0,0.1054687 0.082031,0.1992187 0.1992188,0.1992187 0.1523437,0 0.1875,-0.1289062 0.2109375,-0.234375 z m -2.15625,-0.3984375 0.3984375,-1.5351562 h 1.875 L 4.8858281,-1.722375 Z m 8.2207029,-4.6523437 c 0,-0.234375 0,-0.2578125 -0.234375,-0.2578125 -0.609375,0.6328125 -1.488281,0.6328125 -1.8046873,0.6328125 v 0.3164062 c 0.1992188,0 0.7851563,0 1.3007813,-0.2578125 v 5.15625 c 0,0.3515625 -0.03516,0.48046875 -0.9257813,0.48046875 H 9.2510625 V 2.8125e-4 C 9.602625,-0.034875 10.458094,-0.034875 10.856531,-0.034875 c 0.398438,0 1.265625,0 1.617188,0.03515625 v -0.3046875 h -0.316407 c -0.902343,0 -0.925781,-0.1171875 -0.925781,-0.48046875 z m 0,0"
       style="fill:#000000;fill-opacity:1;fill-rule:nonzero;stroke:none"
       aria-label="#1"
       transform="matrix(1.3333333,0,0,1.3333333,163.384,22.484)" />
    <path
       id="path71"
       d="m 0,17.00826 v 0"
       style="fill:none;stroke:#ffffff;stroke-width:0.3985;stroke-linecap:butt;stroke-linejoin:miter;stroke-miterlimit:10;stroke-dasharray:none;stroke-opacity:1"
       transform="matrix(1.3333333,0,0,-1.3333333,172.24,151.44667)" />
  </g>
</svg>
