<?xml version="1.0" encoding="UTF-8" standalone="no"?>
<!-- Created with Inkscape (http://www.inkscape.org/) -->

<svg
   version="1.1"
   id="svg1"
   width="72.422668"
   height="68.903999"
   viewBox="0 0 72.422668 68.903999"
   xmlns="http://www.w3.org/2000/svg"
   xmlns:svg="http://www.w3.org/2000/svg">
  <defs
     id="defs1" />
  <g
     id="g1">
    <path
       id="path1"
       d="M 0,28.3468 -26.95966,8.75974 -16.66179,-22.93315 H 16.66179 L 26.95966,8.75974 Z"
       style="fill:none;stroke:#ffffff;stroke-width:0.3985;stroke-linecap:butt;stroke-linejoin:miter;stroke-miterlimit:10;stroke-dasharray:none;stroke-opacity:1"
       transform="matrix(1.3333333,0,0,-1.3333333,36.212,38.061333)" />
    <path
       id="path2"
       d="m 1.7462031,-4.2879375 v -1.1601562 c 0,-0.8789063 0.4804688,-1.359375 0.9140625,-1.359375 0.035156,0 0.1757813,0 0.328125,0.070312 -0.1171875,0.046875 -0.2929687,0.1757812 -0.2929687,0.421875 0,0.234375 0.1523437,0.4335937 0.421875,0.4335937 0.2929687,0 0.4335937,-0.1992187 0.4335937,-0.4453125 0,-0.3632812 -0.3632812,-0.6914062 -0.890625,-0.6914062 -0.703125,0 -1.546875,0.5273437 -1.546875,1.5820312 V -4.287938 H 0.32823437 V -3.98325 H 1.1133906 v 3.22265625 c 0,0.45703125 -0.1054687,0.45703125 -0.77343748,0.45703125 V 0.001125 c 0.38671875,-0.01171875 0.85546878,-0.03515625 1.13671878,-0.03515625 0.3984375,0 0.8671875,0 1.265625,0.03515625 V -0.3035625 H 2.5313594 c -0.7382813,0 -0.7617188,-0.1171875 -0.7617188,-0.46875 V -3.98325 h 1.1367188 v -0.3046875 z m 5.9853516,2.15625 c 0,-1.2773437 -0.9960938,-2.3320312 -2.1914063,-2.3320312 -1.2539062,0 -2.2148437,1.0898437 -2.2148437,2.3320312 0,1.2890625 1.03125,2.23828125 2.203125,2.23828125 1.2070312,0 2.203125,-0.97265625 2.203125,-2.23828125 z M 5.5401484,-0.1395 c -0.4335937,0 -0.8671875,-0.2109375 -1.1367187,-0.66796875 C 4.1456172,-1.2410625 4.1456172,-1.8504375 4.1456172,-2.2137187 c 0,-0.3867188 0,-0.9257813 0.2460937,-1.359375 0.2695313,-0.4570313 0.7382813,-0.6679688 1.1367188,-0.6679688 0.4335937,0 0.8671875,0.2226563 1.125,0.6445313 0.2578125,0.4335937 0.2578125,1.0078125 0.2578125,1.3828125 0,0.3632812 0,0.9023437 -0.2226563,1.33593745 C 6.4659297,-0.43246875 6.0323359,-0.1395 5.5401484,-0.1395 Z m 7.4531246,-1.9921875 c 0,-1.2773437 -0.996093,-2.3320312 -2.191406,-2.3320312 -1.2539061,0 -2.2148436,1.0898437 -2.2148436,2.3320312 0,1.2890625 1.03125,2.23828125 2.2031246,2.23828125 1.207032,0 2.203125,-0.97265625 2.203125,-2.23828125 z M 10.801867,-0.1395 c -0.433594,0 -0.8671873,-0.2109375 -1.1367186,-0.66796875 C 9.4073359,-1.2410625 9.4073359,-1.8504375 9.4073359,-2.2137187 c 0,-0.3867188 0,-0.9257813 0.2460938,-1.359375 0.2695312,-0.4570313 0.7382813,-0.6679688 1.1367183,-0.6679688 0.433594,0 0.867188,0.2226563 1.125,0.6445313 0.257813,0.4335937 0.257813,1.0078125 0.257813,1.3828125 0,0.3632812 0,0.9023437 -0.222656,1.33593745 C 11.727648,-0.43246875 11.294055,-0.1395 10.801867,-0.1395 Z m 0,0"
       style="fill:#ffffff;fill-opacity:1;fill-rule:nonzero;stroke:none"
       aria-label="foo"
       transform="matrix(1.3333333,0,0,1.3333333,9.3826667,17.936)" />
    <path
       id="path3"
       d="M 0,28.3468 -16.66179,-22.93315"
       style="fill:none;stroke:#ffffff;stroke-width:0.3985;stroke-linecap:butt;stroke-linejoin:miter;stroke-miterlimit:10;stroke-dasharray:none;stroke-opacity:1"
       transform="matrix(1.3333333,0,0,-1.3333333,36.212,38.061333)" />
    <path
       id="path4"
       d="M 0,28.3468 16.66179,-22.93315"
       style="fill:none;stroke:#ffffff;stroke-width:0.3985;stroke-linecap:butt;stroke-linejoin:miter;stroke-miterlimit:10;stroke-dasharray:none;stroke-opacity:1"
       transform="matrix(1.3333333,0,0,-1.3333333,36.212,38.061333)" />
  </g>
</svg>
