<?xml version="1.0" encoding="UTF-8" standalone="no"?>
<!-- Created with Inkscape (http://www.inkscape.org/) -->

<svg
   version="1.1"
   id="svg1"
   width="473.15332"
   height="322.02933"
   viewBox="0 0 473.15332 322.02933"
   xmlns="http://www.w3.org/2000/svg"
   xmlns:svg="http://www.w3.org/2000/svg">
  <defs
     id="defs1" />
  <g
     id="g1">
    <g
       id="g2"
       aria-label="t&#10;0"
       transform="matrix(1.3333333,0,0,1.3333333,4.428,15.24)">
      <path
         id="path2"
         d="m 2.0520469,-3.9856641 h 0.9375 c 0.1992187,0 0.3046875,0 0.3046875,-0.1992187 0,-0.1054688 -0.1054688,-0.1054688 -0.28125,-0.1054688 H 2.1340781 c 0.3632813,-1.4179687 0.4101563,-1.6171875 0.4101563,-1.6757812 0,-0.1757813 -0.1171875,-0.2695313 -0.2929688,-0.2695313 -0.023437,0 -0.3046875,0.011719 -0.3984375,0.3515625 l -0.3867187,1.59375 H 0.52860938 c -0.19921875,0 -0.29296875,0 -0.29296875,0.1875 0,0.1171875 0.0703125,0.1171875 0.26953125,0.1171875 H 1.3840781 c -0.71484372,2.8242188 -0.74999997,3.00000004 -0.74999997,3.17578129 0,0.5390625 0.37499997,0.9140625 0.91406247,0.9140625 1.0078125,0 1.5820313,-1.45312499 1.5820313,-1.53515629 0,-0.09375 -0.082031,-0.09375 -0.1171875,-0.09375 -0.09375,0 -0.1054688,0.023437 -0.1523438,0.140625 -0.4335937,1.03125004 -0.9609375,1.27734379 -1.3007812,1.27734379 -0.1992188,0 -0.3046875,-0.12890625 -0.3046875,-0.45703125 0,-0.24609375 0.023437,-0.31640625 0.058594,-0.48046874 z m 0,0"
         style="fill:#ffffff;fill-opacity:1;fill-rule:nonzero;stroke:none" />
      <path
         id="path3"
         d="m 7.1936484,-5.8401563 c 0,-0.7617187 -0.09375,-1.3125 -0.4101562,-1.8046875 C 6.5608359,-7.96125 6.1389609,-8.2425 5.5764609,-8.2425 c -1.6171875,0 -1.6171875,1.8984375 -1.6171875,2.4023437 0,0.5039063 0,2.3671875 1.6171875,2.3671875 1.6171875,0 1.6171875,-1.8632812 1.6171875,-2.3671875 z m -1.6171875,2.1679688 c -0.3164062,0 -0.75,-0.1875 -0.890625,-0.7617188 -0.09375,-0.4101562 -0.09375,-0.984375 -0.09375,-1.5 0,-0.5039062 0,-1.03125 0.1054688,-1.4179687 0.1523437,-0.5507813 0.5976562,-0.6914063 0.8789062,-0.6914063 0.375,0 0.7382813,0.2226563 0.8671875,0.6328125 0.1054688,0.375 0.1171875,0.8789063 0.1171875,1.4765625 0,0.515625 0,1.0429688 -0.09375,1.4765625 -0.140625,0.6328125 -0.609375,0.7851563 -0.890625,0.7851563 z m 0,0"
         style="fill:#ffffff;fill-opacity:1;fill-rule:nonzero;stroke:none" />
    </g>
    <g
       id="g3"
       aria-label="t&#10;1"
       transform="matrix(1.3333333,0,0,1.3333333,4.428,90.830667)">
      <path
         id="path4"
         d="m 2.0520469,-3.9833516 h 0.9375 c 0.1992187,0 0.3046875,0 0.3046875,-0.1992187 0,-0.1054688 -0.1054688,-0.1054688 -0.28125,-0.1054688 H 2.1340781 c 0.3632813,-1.4179687 0.4101563,-1.6171875 0.4101563,-1.6757812 0,-0.1757813 -0.1171875,-0.2695313 -0.2929688,-0.2695313 -0.023437,0 -0.3046875,0.011719 -0.3984375,0.3515625 l -0.3867187,1.59375 H 0.52860938 c -0.19921875,0 -0.29296875,0 -0.29296875,0.1875 0,0.1171875 0.0703125,0.1171875 0.26953125,0.1171875 H 1.3840781 c -0.71484372,2.8242188 -0.74999997,3.00000004 -0.74999997,3.17578129 0,0.5390625 0.37499997,0.9140625 0.91406247,0.9140625 1.0078125,0 1.5820313,-1.45312499 1.5820313,-1.53515629 0,-0.09375 -0.082031,-0.09375 -0.1171875,-0.09375 -0.09375,0 -0.1054688,0.023437 -0.1523438,0.140625 -0.4335937,1.03125004 -0.9609375,1.27734379 -1.3007812,1.27734379 -0.1992188,0 -0.3046875,-0.12890625 -0.3046875,-0.45703125 0,-0.24609375 0.023437,-0.31640625 0.058594,-0.48046874 z m 0,0"
         style="fill:#ffffff;fill-opacity:1;fill-rule:nonzero;stroke:none" />
      <path
         id="path5"
         d="m 5.9280234,-8.0468281 c 0,-0.1875 -0.011719,-0.1992188 -0.2109375,-0.1992188 -0.4453125,0.4335938 -1.078125,0.4453125 -1.359375,0.4453125 v 0.2460938 c 0.1640625,0 0.6210938,0 1.0078125,-0.1875 v 3.5507812 c 0,0.234375 0,0.328125 -0.6914062,0.328125 H 4.4045859 v 0.2460938 c 0.1289063,-0.011719 0.984375,-0.023437 1.2421875,-0.023437 0.2109375,0 1.0898438,0.011719 1.2421875,0.023437 V -3.8632344 H 6.6311484 c -0.703125,0 -0.703125,-0.09375 -0.703125,-0.328125 z m 0,0"
         style="fill:#ffffff;fill-opacity:1;fill-rule:nonzero;stroke:none" />
    </g>
    <g
       id="g5"
       aria-label="t&#10;2"
       transform="matrix(1.3333333,0,0,1.3333333,4.428,166.42133)">
      <path
         id="path6"
         d="m 2.0520469,-3.9839688 h 0.9375 c 0.1992187,0 0.3046875,0 0.3046875,-0.1992187 0,-0.1054688 -0.1054688,-0.1054688 -0.28125,-0.1054688 H 2.1340781 c 0.3632813,-1.4179687 0.4101563,-1.6171875 0.4101563,-1.6757812 0,-0.1757813 -0.1171875,-0.2695313 -0.2929688,-0.2695313 -0.023437,0 -0.3046875,0.011719 -0.3984375,0.3515625 l -0.3867187,1.59375 H 0.52860938 c -0.19921875,0 -0.29296875,0 -0.29296875,0.1875 0,0.1171875 0.0703125,0.1171875 0.26953125,0.1171875 H 1.3840781 c -0.71484372,2.8242188 -0.74999997,3.00000005 -0.74999997,3.1757813 0,0.5390625 0.37499997,0.9140625 0.91406247,0.9140625 1.0078125,0 1.5820313,-1.453125 1.5820313,-1.5351563 0,-0.09375 -0.082031,-0.09375 -0.1171875,-0.09375 -0.09375,0 -0.1054688,0.023437 -0.1523438,0.140625 -0.4335937,1.03125005 -0.9609375,1.2773438 -1.3007812,1.2773438 -0.1992188,0 -0.3046875,-0.12890625 -0.3046875,-0.45703125 0,-0.24609375 0.023437,-0.31640625 0.058594,-0.48046875 z m 0,0"
         style="fill:#ffffff;fill-opacity:1;fill-rule:nonzero;stroke:none" />
      <path
         id="path7"
         d="m 7.1116172,-4.8804531 h -0.234375 c -0.023437,0.1523437 -0.082031,0.5625 -0.1757813,0.6328125 -0.058594,0.035156 -0.5976562,0.035156 -0.6914062,0.035156 H 4.7209922 c 0.7382812,-0.6445312 0.984375,-0.84375 1.3945312,-1.171875 0.515625,-0.4101562 0.9960938,-0.84375 0.9960938,-1.5 0,-0.84375 -0.7382813,-1.359375 -1.6289063,-1.359375 -0.8671875,0 -1.453125,0.609375 -1.453125,1.2421875 0,0.3632813 0.3046875,0.3984375 0.375,0.3984375 0.1640625,0 0.375,-0.1171875 0.375,-0.375 0,-0.1289062 -0.058594,-0.3632812 -0.421875,-0.3632812 0.2226563,-0.5039063 0.6914063,-0.65625 1.0195313,-0.65625 0.703125,0 1.0664062,0.5507812 1.0664062,1.1132812 0,0.609375 -0.4335937,1.0898438 -0.65625,1.3359375 l -1.6875,1.6640625 c -0.070312,0.058594 -0.070312,0.070312 -0.070312,0.2695313 h 2.8828125 z m 0,0"
         style="fill:#ffffff;fill-opacity:1;fill-rule:nonzero;stroke:none" />
    </g>
    <g
       id="g7"
       aria-label="t&#10;3"
       transform="matrix(1.3333333,0,0,1.3333333,4.428,242.012)">
      <path
         id="path8"
         d="m 2.0520469,-3.9845859 h 0.9375 c 0.1992187,0 0.3046875,0 0.3046875,-0.1992188 0,-0.1054687 -0.1054688,-0.1054687 -0.28125,-0.1054687 H 2.1340781 c 0.3632813,-1.4179688 0.4101563,-1.6171875 0.4101563,-1.6757813 0,-0.1757812 -0.1171875,-0.2695312 -0.2929688,-0.2695312 -0.023437,0 -0.3046875,0.011719 -0.3984375,0.3515625 l -0.3867187,1.59375 H 0.52860938 c -0.19921875,0 -0.29296875,0 -0.29296875,0.1875 0,0.1171875 0.0703125,0.1171875 0.26953125,0.1171875 H 1.3840781 c -0.71484372,2.8242187 -0.74999997,2.99999996 -0.74999997,3.17578121 0,0.5390625 0.37499997,0.9140625 0.91406247,0.9140625 1.0078125,0 1.5820313,-1.45312501 1.5820313,-1.53515621 0,-0.09375 -0.082031,-0.09375 -0.1171875,-0.09375 -0.09375,0 -0.1054688,0.023437 -0.1523438,0.140625 -0.4335937,1.03124996 -0.9609375,1.27734371 -1.3007812,1.27734371 -0.1992188,0 -0.3046875,-0.12890625 -0.3046875,-0.45703125 0,-0.24609375 0.023437,-0.31640625 0.058594,-0.48046876 z m 0,0"
         style="fill:#ffffff;fill-opacity:1;fill-rule:nonzero;stroke:none" />
      <path
         id="path9"
         d="m 5.4944297,-5.9474766 c 0.5507812,0 0.9375,0.375 0.9375,1.125 0,0.8671875 -0.5039063,1.125 -0.9023438,1.125 -0.28125,0 -0.890625,-0.082031 -1.1835937,-0.4921875 0.328125,-0.011719 0.3984375,-0.2460937 0.3984375,-0.3867187 0,-0.2226563 -0.1640625,-0.3867188 -0.3867188,-0.3867188 -0.1875,0 -0.3867187,0.1171875 -0.3867187,0.4101563 0,0.65625 0.7265625,1.078125 1.5703125,1.078125 0.9726562,0 1.640625,-0.6445313 1.640625,-1.3476563 0,-0.5390625 -0.4453125,-1.0898437 -1.21875,-1.2421875 0.7382812,-0.2695312 0.9960937,-0.796875 0.9960937,-1.21875 0,-0.5507812 -0.6328125,-0.9609375 -1.40625,-0.9609375 -0.7734375,0 -1.359375,0.375 -1.359375,0.9375 0,0.234375 0.1523438,0.3632813 0.3632813,0.3632813 0.2109375,0 0.3515625,-0.1640625 0.3515625,-0.3515625 0,-0.1992188 -0.140625,-0.3515625 -0.3515625,-0.3632813 0.234375,-0.3046875 0.7148437,-0.3867187 0.9726562,-0.3867187 0.3164063,0 0.7617188,0.1523437 0.7617188,0.7617187 0,0.2929688 -0.1054688,0.609375 -0.28125,0.8320313 -0.234375,0.2578125 -0.421875,0.28125 -0.7734375,0.2929687 -0.1757813,0.023437 -0.1875,0.023437 -0.2226563,0.023437 -0.011719,0 -0.070312,0.011719 -0.070312,0.09375 0,0.09375 0.058594,0.09375 0.1757813,0.09375 z m 0,0"
         style="fill:#ffffff;fill-opacity:1;fill-rule:nonzero;stroke:none" />
    </g>
    <g
       id="g9"
       aria-label="t&#10;0"
       transform="matrix(1.3333333,0,0,1.3333333,80.017333,53.034667)">
      <path
         id="path10"
         d="M 2.0495,-3.9840078 H 2.987 c 0.1992188,0 0.3046875,0 0.3046875,-0.1992188 0,-0.1054687 -0.1054687,-0.1054687 -0.28125,-0.1054687 H 2.1315313 c 0.3632812,-1.4179688 0.4101562,-1.6171875 0.4101562,-1.6757813 0,-0.1757812 -0.1171875,-0.2695312 -0.2929687,-0.2695312 -0.023437,0 -0.3046875,0.011719 -0.3984375,0.3515625 l -0.3867188,1.59375 h -0.9375 c -0.19921875,0 -0.29296875,0 -0.29296875,0.1875 0,0.1171875 0.0703125,0.1171875 0.26953125,0.1171875 h 0.8789063 c -0.7148438,2.8242187 -0.75000005,2.99999999 -0.75000005,3.17578124 0,0.5390625 0.37500005,0.9140625 0.91406255,0.9140625 1.0078125,0 1.5820312,-1.45312504 1.5820312,-1.53515624 0,-0.09375 -0.082031,-0.09375 -0.1171875,-0.09375 -0.09375,0 -0.1054687,0.023437 -0.1523437,0.140625 -0.4335938,1.03124999 -0.9609375,1.27734374 -1.3007813,1.27734374 -0.1992187,0 -0.3046875,-0.12890625 -0.3046875,-0.45703125 0,-0.24609375 0.023437,-0.31640625 0.058594,-0.48046879 z m 0,0"
         style="fill:#ffffff;fill-opacity:1;fill-rule:nonzero;stroke:none" />
      <path
         id="path11"
         d="m 7.1969609,-5.8414297 c 0,-0.7617187 -0.09375,-1.3125 -0.4101562,-1.8046875 -0.2226563,-0.3164062 -0.6445313,-0.5976562 -1.2070313,-0.5976562 -1.6171875,0 -1.6171875,1.8984375 -1.6171875,2.4023437 0,0.5039063 0,2.3671875 1.6171875,2.3671875 1.6171875,0 1.6171875,-1.8632812 1.6171875,-2.3671875 z m -1.6171875,2.1679688 c -0.3164062,0 -0.75,-0.1875 -0.890625,-0.7617188 -0.09375,-0.4101562 -0.09375,-0.984375 -0.09375,-1.5 0,-0.5039062 0,-1.03125 0.1054688,-1.4179687 0.1523437,-0.5507813 0.5976562,-0.6914063 0.8789062,-0.6914063 0.375,0 0.7382813,0.2226563 0.8671875,0.6328125 0.1054688,0.375 0.1171875,0.8789063 0.1171875,1.4765625 0,0.515625 0,1.0429688 -0.09375,1.4765625 -0.140625,0.6328125 -0.609375,0.7851563 -0.890625,0.7851563 z m 0,0"
         style="fill:#ffffff;fill-opacity:1;fill-rule:nonzero;stroke:none" />
    </g>
    <g
       id="g11"
       aria-label="t&#10;1"
       transform="matrix(1.3333333,0,0,1.3333333,80.017333,128.62533)">
      <path
         id="path12"
         d="M 2.0495,-3.984625 H 2.987 c 0.1992188,0 0.3046875,0 0.3046875,-0.1992188 0,-0.1054687 -0.1054687,-0.1054687 -0.28125,-0.1054687 H 2.1315313 C 2.4948125,-5.7072813 2.5416875,-5.9065 2.5416875,-5.9650938 c 0,-0.1757812 -0.1171875,-0.2695312 -0.2929687,-0.2695312 -0.023437,0 -0.3046875,0.011719 -0.3984375,0.3515625 l -0.3867188,1.59375 h -0.9375 c -0.19921875,0 -0.29296875,0 -0.29296875,0.1875 0,0.1171875 0.0703125,0.1171875 0.26953125,0.1171875 h 0.8789063 c -0.7148438,2.8242187 -0.75000005,3 -0.75000005,3.17578125 0,0.5390625 0.37500005,0.9140625 0.91406255,0.9140625 1.0078125,0 1.5820312,-1.45312505 1.5820312,-1.53515625 0,-0.09375 -0.082031,-0.09375 -0.1171875,-0.09375 -0.09375,0 -0.1054687,0.023437 -0.1523437,0.140625 -0.4335938,1.03125 -0.9609375,1.27734375 -1.3007813,1.27734375 -0.1992187,0 -0.3046875,-0.12890625 -0.3046875,-0.45703125 0,-0.24609375 0.023437,-0.31640625 0.058594,-0.4804688 z m 0,0"
         style="fill:#ffffff;fill-opacity:1;fill-rule:nonzero;stroke:none" />
      <path
         id="path13"
         d="m 5.9313359,-8.0451719 c 0,-0.1875 -0.011719,-0.1992187 -0.2109375,-0.1992187 -0.4453125,0.4335937 -1.078125,0.4453125 -1.359375,0.4453125 v 0.2460937 c 0.1640625,0 0.6210938,0 1.0078125,-0.1875 v 3.5507813 c 0,0.234375 0,0.328125 -0.6914062,0.328125 H 4.4078984 v 0.2460937 c 0.1289063,-0.011719 0.984375,-0.023437 1.2421875,-0.023437 0.2109375,0 1.0898438,0.011719 1.2421875,0.023437 V -3.8615781 H 6.6344609 c -0.703125,0 -0.703125,-0.09375 -0.703125,-0.328125 z m 0,0"
         style="fill:#ffffff;fill-opacity:1;fill-rule:nonzero;stroke:none" />
    </g>
    <g
       id="g13"
       aria-label="t&#10;2"
       transform="matrix(1.3333333,0,0,1.3333333,80.017333,204.216)">
      <path
         id="path14"
         d="M 2.0495,-3.9852422 H 2.987 c 0.1992188,0 0.3046875,0 0.3046875,-0.1992187 0,-0.1054688 -0.1054687,-0.1054688 -0.28125,-0.1054688 H 2.1315313 c 0.3632812,-1.4179687 0.4101562,-1.6171875 0.4101562,-1.6757812 0,-0.1757813 -0.1171875,-0.2695313 -0.2929687,-0.2695313 -0.023437,0 -0.3046875,0.011719 -0.3984375,0.3515625 l -0.3867188,1.59375 h -0.9375 c -0.19921875,0 -0.29296875,0 -0.29296875,0.1875 0,0.1171875 0.0703125,0.1171875 0.26953125,0.1171875 h 0.8789063 c -0.7148438,2.8242188 -0.75000005,3.00000001 -0.75000005,3.17578126 0,0.5390625 0.37500005,0.9140625 0.91406255,0.9140625 1.0078125,0 1.5820312,-1.45312496 1.5820312,-1.53515626 0,-0.09375 -0.082031,-0.09375 -0.1171875,-0.09375 -0.09375,0 -0.1054687,0.023437 -0.1523437,0.140625 -0.4335938,1.03125001 -0.9609375,1.27734376 -1.3007813,1.27734376 -0.1992187,0 -0.3046875,-0.12890625 -0.3046875,-0.45703125 0,-0.24609375 0.023437,-0.31640625 0.058594,-0.48046871 z m 0,0"
         style="fill:#ffffff;fill-opacity:1;fill-rule:nonzero;stroke:none" />
      <path
         id="path15"
         d="m 7.1149297,-4.8817266 h -0.234375 c -0.023437,0.1523438 -0.082031,0.5625 -0.1757813,0.6328125 -0.058594,0.035156 -0.5976562,0.035156 -0.6914062,0.035156 H 4.7243047 c 0.7382812,-0.6445313 0.984375,-0.84375 1.3945312,-1.171875 0.515625,-0.4101563 0.9960938,-0.84375 0.9960938,-1.5 0,-0.84375 -0.7382813,-1.359375 -1.6289063,-1.359375 -0.8671875,0 -1.453125,0.609375 -1.453125,1.2421875 0,0.3632812 0.3046875,0.3984375 0.375,0.3984375 0.1640625,0 0.375,-0.1171875 0.375,-0.375 0,-0.1289063 -0.058594,-0.3632813 -0.421875,-0.3632813 0.2226563,-0.5039062 0.6914063,-0.65625 1.0195313,-0.65625 0.703125,0 1.0664062,0.5507813 1.0664062,1.1132813 0,0.609375 -0.4335937,1.0898437 -0.65625,1.3359375 l -1.6875,1.6640625 c -0.070312,0.058594 -0.070312,0.070312 -0.070312,0.2695312 h 2.8828125 z m 0,0"
         style="fill:#ffffff;fill-opacity:1;fill-rule:nonzero;stroke:none" />
    </g>
    <g
       id="g15"
       aria-label="t&#10;3"
       transform="matrix(1.3333333,0,0,1.3333333,80.017333,279.80667)">
      <path
         id="path16"
         d="M 2.0495,-3.9829297 H 2.987 c 0.1992188,0 0.3046875,0 0.3046875,-0.1992187 0,-0.1054688 -0.1054687,-0.1054688 -0.28125,-0.1054688 H 2.1315313 c 0.3632812,-1.4179687 0.4101562,-1.6171875 0.4101562,-1.6757812 0,-0.1757813 -0.1171875,-0.2695313 -0.2929687,-0.2695313 -0.023437,0 -0.3046875,0.011719 -0.3984375,0.3515625 l -0.3867188,1.59375 h -0.9375 c -0.19921875,0 -0.29296875,0 -0.29296875,0.1875 0,0.1171875 0.0703125,0.1171875 0.26953125,0.1171875 h 0.8789063 c -0.7148438,2.8242188 -0.75000005,3.00000001 -0.75000005,3.17578126 0,0.5390625 0.37500005,0.9140625 0.91406255,0.9140625 1.0078125,0 1.5820312,-1.45312496 1.5820312,-1.53515626 0,-0.09375 -0.082031,-0.09375 -0.1171875,-0.09375 -0.09375,0 -0.1054687,0.023437 -0.1523437,0.140625 -0.4335938,1.03125001 -0.9609375,1.27734376 -1.3007813,1.27734376 -0.1992187,0 -0.3046875,-0.12890625 -0.3046875,-0.45703125 0,-0.24609375 0.023437,-0.31640625 0.058594,-0.48046871 z m 0,0"
         style="fill:#ffffff;fill-opacity:1;fill-rule:nonzero;stroke:none" />
      <path
         id="path17"
         d="m 5.4977422,-5.9458203 c 0.5507812,0 0.9375,0.375 0.9375,1.125 0,0.8671875 -0.5039063,1.125 -0.9023438,1.125 -0.28125,0 -0.890625,-0.082031 -1.1835937,-0.4921875 0.328125,-0.011719 0.3984375,-0.2460938 0.3984375,-0.3867188 0,-0.2226562 -0.1640625,-0.3867187 -0.3867188,-0.3867187 -0.1875,0 -0.3867187,0.1171875 -0.3867187,0.4101562 0,0.65625 0.7265625,1.078125 1.5703125,1.078125 0.9726562,0 1.640625,-0.6445312 1.640625,-1.3476562 0,-0.5390625 -0.4453125,-1.0898438 -1.21875,-1.2421875 0.7382812,-0.2695313 0.9960937,-0.796875 0.9960937,-1.21875 0,-0.5507813 -0.6328125,-0.9609375 -1.40625,-0.9609375 -0.7734375,0 -1.359375,0.375 -1.359375,0.9375 0,0.234375 0.1523438,0.3632812 0.3632813,0.3632812 0.2109375,0 0.3515625,-0.1640625 0.3515625,-0.3515625 0,-0.1992187 -0.140625,-0.3515625 -0.3515625,-0.3632812 0.234375,-0.3046875 0.7148437,-0.3867188 0.9726562,-0.3867188 0.3164063,0 0.7617188,0.1523438 0.7617188,0.7617188 0,0.2929687 -0.1054688,0.609375 -0.28125,0.8320312 -0.234375,0.2578125 -0.421875,0.28125 -0.7734375,0.2929688 -0.1757813,0.023437 -0.1875,0.023437 -0.2226563,0.023437 -0.011719,0 -0.070312,0.011719 -0.070312,0.09375 0,0.09375 0.058594,0.09375 0.1757813,0.09375 z m 0,0"
         style="fill:#ffffff;fill-opacity:1;fill-rule:nonzero;stroke:none" />
    </g>
    <g
       id="g17"
       aria-label="t&#10;0"
       transform="matrix(1.3333333,0,0,1.3333333,155.608,90.830667)">
      <path
         id="path18"
         d="m 2.0518125,-3.9833516 h 0.9375 c 0.1992188,0 0.3046875,0 0.3046875,-0.1992187 0,-0.1054688 -0.1054687,-0.1054688 -0.28125,-0.1054688 H 2.1338438 C 2.497125,-5.7060078 2.544,-5.9052266 2.544,-5.9638203 c 0,-0.1757813 -0.1171875,-0.2695313 -0.2929687,-0.2695313 -0.023437,0 -0.3046875,0.011719 -0.3984375,0.3515625 l -0.3867188,1.59375 h -0.9375 c -0.19921875,0 -0.29296875,0 -0.29296875,0.1875 0,0.1171875 0.0703125,0.1171875 0.26953125,0.1171875 H 1.3838438 C 0.669,-1.1591328 0.63384375,-0.98335156 0.63384375,-0.80757031 c 0,0.5390625 0.37500005,0.9140625 0.91406255,0.9140625 1.0078125,0 1.5820312,-1.45312499 1.5820312,-1.53515629 0,-0.09375 -0.082031,-0.09375 -0.1171875,-0.09375 -0.09375,0 -0.1054687,0.023437 -0.1523437,0.140625 -0.4335938,1.03125004 -0.9609375,1.27734379 -1.3007813,1.27734379 -0.1992187,0 -0.3046875,-0.12890625 -0.3046875,-0.45703125 0,-0.24609375 0.023437,-0.31640625 0.058594,-0.48046874 z m 0,0"
         style="fill:#ffffff;fill-opacity:1;fill-rule:nonzero;stroke:none" />
      <path
         id="path19"
         d="m 7.1963438,-5.8437031 c 0,-0.7617188 -0.09375,-1.3125 -0.4101563,-1.8046875 -0.2226562,-0.3164063 -0.6445312,-0.5976563 -1.2070312,-0.5976563 -1.6171875,0 -1.6171875,1.8984375 -1.6171875,2.4023438 0,0.5039062 0,2.3671875 1.6171875,2.3671875 1.6171875,0 1.6171875,-1.8632813 1.6171875,-2.3671875 z m -1.6171875,2.1679687 c -0.3164063,0 -0.75,-0.1875 -0.890625,-0.7617187 -0.09375,-0.4101563 -0.09375,-0.984375 -0.09375,-1.5 0,-0.5039063 0,-1.03125 0.1054687,-1.4179688 0.1523438,-0.5507812 0.5976563,-0.6914062 0.8789063,-0.6914062 0.375,0 0.7382812,0.2226562 0.8671875,0.6328125 0.1054687,0.375 0.1171875,0.8789062 0.1171875,1.4765625 0,0.515625 0,1.0429687 -0.09375,1.4765625 -0.140625,0.6328125 -0.609375,0.7851562 -0.890625,0.7851562 z m 0,0"
         style="fill:#ffffff;fill-opacity:1;fill-rule:nonzero;stroke:none" />
    </g>
    <g
       id="g19"
       aria-label="t&#10;1"
       transform="matrix(1.3333333,0,0,1.3333333,155.608,166.42133)">
      <path
         id="path20"
         d="m 2.0518125,-3.9839688 h 0.9375 c 0.1992188,0 0.3046875,0 0.3046875,-0.1992187 0,-0.1054688 -0.1054687,-0.1054688 -0.28125,-0.1054688 H 2.1338438 C 2.497125,-5.706625 2.544,-5.9058438 2.544,-5.9644375 c 0,-0.1757813 -0.1171875,-0.2695313 -0.2929687,-0.2695313 -0.023437,0 -0.3046875,0.011719 -0.3984375,0.3515625 l -0.3867188,1.59375 h -0.9375 c -0.19921875,0 -0.29296875,0 -0.29296875,0.1875 0,0.1171875 0.0703125,0.1171875 0.26953125,0.1171875 H 1.3838438 C 0.669,-1.15975 0.63384375,-0.98396875 0.63384375,-0.8081875 c 0,0.5390625 0.37500005,0.9140625 0.91406255,0.9140625 1.0078125,0 1.5820312,-1.453125 1.5820312,-1.5351563 0,-0.09375 -0.082031,-0.09375 -0.1171875,-0.09375 -0.09375,0 -0.1054687,0.023437 -0.1523437,0.140625 -0.4335938,1.03125005 -0.9609375,1.2773438 -1.3007813,1.2773438 -0.1992187,0 -0.3046875,-0.12890625 -0.3046875,-0.45703125 0,-0.24609375 0.023437,-0.31640625 0.058594,-0.48046875 z m 0,0"
         style="fill:#ffffff;fill-opacity:1;fill-rule:nonzero;stroke:none" />
      <path
         id="path21"
         d="m 5.9307188,-8.0445156 c 0,-0.1875 -0.011719,-0.1992188 -0.2109375,-0.1992188 -0.4453125,0.4335938 -1.078125,0.4453125 -1.359375,0.4453125 v 0.2460938 c 0.1640625,0 0.6210937,0 1.0078125,-0.1875 v 3.5507812 c 0,0.234375 0,0.328125 -0.6914063,0.328125 H 4.4072813 v 0.2460938 c 0.1289062,-0.011719 0.984375,-0.023437 1.2421875,-0.023437 0.2109375,0 1.0898437,0.011719 1.2421875,0.023437 V -3.8609219 H 6.6338438 c -0.703125,0 -0.703125,-0.09375 -0.703125,-0.328125 z m 0,0"
         style="fill:#ffffff;fill-opacity:1;fill-rule:nonzero;stroke:none" />
    </g>
    <g
       id="g21"
       aria-label="t&#10;2"
       transform="matrix(1.3333333,0,0,1.3333333,155.608,242.012)">
      <path
         id="path22"
         d="m 2.0518125,-3.9845859 h 0.9375 c 0.1992188,0 0.3046875,0 0.3046875,-0.1992188 0,-0.1054687 -0.1054687,-0.1054687 -0.28125,-0.1054687 H 2.1338438 C 2.497125,-5.7072422 2.544,-5.9064609 2.544,-5.9650547 c 0,-0.1757812 -0.1171875,-0.2695312 -0.2929687,-0.2695312 -0.023437,0 -0.3046875,0.011719 -0.3984375,0.3515625 l -0.3867188,1.59375 h -0.9375 c -0.19921875,0 -0.29296875,0 -0.29296875,0.1875 0,0.1171875 0.0703125,0.1171875 0.26953125,0.1171875 H 1.3838438 C 0.669,-1.1603672 0.63384375,-0.98458594 0.63384375,-0.80880469 c 0,0.5390625 0.37500005,0.9140625 0.91406255,0.9140625 1.0078125,0 1.5820312,-1.45312501 1.5820312,-1.53515621 0,-0.09375 -0.082031,-0.09375 -0.1171875,-0.09375 -0.09375,0 -0.1054687,0.023437 -0.1523437,0.140625 -0.4335938,1.03124996 -0.9609375,1.27734371 -1.3007813,1.27734371 -0.1992187,0 -0.3046875,-0.12890625 -0.3046875,-0.45703125 0,-0.24609375 0.023437,-0.31640625 0.058594,-0.48046876 z m 0,0"
         style="fill:#ffffff;fill-opacity:1;fill-rule:nonzero;stroke:none" />
      <path
         id="path23"
         d="m 7.1143125,-4.8810703 h -0.234375 c -0.023437,0.1523437 -0.082031,0.5625 -0.1757812,0.6328125 -0.058594,0.035156 -0.5976563,0.035156 -0.6914063,0.035156 H 4.7236875 c 0.7382813,-0.6445312 0.984375,-0.84375 1.3945313,-1.171875 0.515625,-0.4101562 0.9960937,-0.84375 0.9960937,-1.5 0,-0.84375 -0.7382812,-1.359375 -1.6289062,-1.359375 -0.8671875,0 -1.453125,0.609375 -1.453125,1.2421875 0,0.3632813 0.3046875,0.3984375 0.375,0.3984375 0.1640625,0 0.375,-0.1171875 0.375,-0.375 0,-0.1289062 -0.058594,-0.3632812 -0.421875,-0.3632812 0.2226562,-0.5039063 0.6914062,-0.65625 1.0195312,-0.65625 0.703125,0 1.0664063,0.5507812 1.0664063,1.1132812 0,0.609375 -0.4335938,1.0898438 -0.65625,1.3359375 l -1.6875,1.6640625 c -0.070312,0.058594 -0.070312,0.070312 -0.070312,0.2695313 h 2.8828125 z m 0,0"
         style="fill:#ffffff;fill-opacity:1;fill-rule:nonzero;stroke:none" />
    </g>
    <g
       id="g23"
       aria-label="t&#10;3"
       transform="matrix(1.3333333,0,0,1.3333333,155.608,317.60133)">
      <path
         id="path24"
         d="m 2.0518125,-3.9842031 h 0.9375 c 0.1992188,0 0.3046875,0 0.3046875,-0.1992188 0,-0.1054687 -0.1054687,-0.1054687 -0.28125,-0.1054687 H 2.1338438 C 2.497125,-5.7068594 2.544,-5.9060781 2.544,-5.9646719 c 0,-0.1757812 -0.1171875,-0.2695312 -0.2929687,-0.2695312 -0.023437,0 -0.3046875,0.011719 -0.3984375,0.3515625 l -0.3867188,1.59375 h -0.9375 c -0.19921875,0 -0.29296875,0 -0.29296875,0.1875 0,0.1171875 0.0703125,0.1171875 0.26953125,0.1171875 H 1.3838438 C 0.669,-1.1599844 0.63384375,-0.98420313 0.63384375,-0.80842188 c 0,0.5390625 0.37500005,0.9140625 0.91406255,0.9140625 1.0078125,0 1.5820312,-1.45312502 1.5820312,-1.53515622 0,-0.09375 -0.082031,-0.09375 -0.1171875,-0.09375 -0.09375,0 -0.1054687,0.023437 -0.1523437,0.140625 -0.4335938,1.03124997 -0.9609375,1.27734372 -1.3007813,1.27734372 -0.1992187,0 -0.3046875,-0.12890625 -0.3046875,-0.45703125 0,-0.24609375 0.023437,-0.31640625 0.058594,-0.48046877 z m 0,0"
         style="fill:#ffffff;fill-opacity:1;fill-rule:nonzero;stroke:none" />
      <path
         id="path25"
         d="m 5.497125,-5.9470938 c 0.5507813,0 0.9375,0.375 0.9375,1.125 0,0.8671875 -0.5039062,1.125 -0.9023437,1.125 -0.28125,0 -0.890625,-0.082031 -1.1835938,-0.4921875 C 4.6768125,-4.201 4.747125,-4.435375 4.747125,-4.576 c 0,-0.2226563 -0.1640625,-0.3867188 -0.3867187,-0.3867188 -0.1875,0 -0.3867188,0.1171875 -0.3867188,0.4101563 0,0.65625 0.7265625,1.078125 1.5703125,1.078125 0.9726563,0 1.640625,-0.6445313 1.640625,-1.3476563 0,-0.5390625 -0.4453125,-1.0898437 -1.21875,-1.2421875 0.7382813,-0.2695312 0.9960938,-0.796875 0.9960938,-1.21875 0,-0.5507812 -0.6328125,-0.9609375 -1.40625,-0.9609375 -0.7734375,0 -1.359375,0.375 -1.359375,0.9375 0,0.234375 0.1523437,0.3632813 0.3632812,0.3632813 0.2109375,0 0.3515625,-0.1640625 0.3515625,-0.3515625 0,-0.1992188 -0.140625,-0.3515625 -0.3515625,-0.3632813 C 4.794,-7.9627188 5.2744688,-8.04475 5.5322813,-8.04475 c 0.3164062,0 0.7617187,0.1523437 0.7617187,0.7617187 0,0.2929688 -0.1054687,0.609375 -0.28125,0.8320313 -0.234375,0.2578125 -0.421875,0.28125 -0.7734375,0.2929687 -0.1757812,0.023437 -0.1875,0.023437 -0.2226562,0.023437 -0.011719,0 -0.070312,0.011719 -0.070312,0.09375 0,0.09375 0.058594,0.09375 0.1757812,0.09375 z m 0,0"
         style="fill:#ffffff;fill-opacity:1;fill-rule:nonzero;stroke:none" />
    </g>
    <g
       id="g25"
       aria-label="t&#10;0"
       transform="matrix(1.3333333,0,0,1.3333333,231.19867,53.034667)">
      <path
         id="path26"
         d="m 2.0511953,-3.9840078 h 0.9375 c 0.1992188,0 0.3046875,0 0.3046875,-0.1992188 0,-0.1054687 -0.1054687,-0.1054687 -0.28125,-0.1054687 H 2.1332266 c 0.3632812,-1.4179688 0.4101562,-1.6171875 0.4101562,-1.6757813 0,-0.1757812 -0.1171875,-0.2695312 -0.2929687,-0.2695312 -0.023437,0 -0.3046875,0.011719 -0.3984375,0.3515625 l -0.3867188,1.59375 H 0.52775781 c -0.19921875,0 -0.29296875,0 -0.29296875,0.1875 0,0.1171875 0.0703125,0.1171875 0.26953125,0.1171875 H 1.3832266 c -0.71484379,2.8242187 -0.75000004,2.99999999 -0.75000004,3.17578124 0,0.5390625 0.37500004,0.9140625 0.91406254,0.9140625 1.0078125,0 1.5820312,-1.45312504 1.5820312,-1.53515624 0,-0.09375 -0.082031,-0.09375 -0.1171875,-0.09375 -0.09375,0 -0.1054687,0.023437 -0.1523437,0.140625 -0.4335938,1.03124999 -0.9609375,1.27734374 -1.3007813,1.27734374 -0.1992187,0 -0.3046875,-0.12890625 -0.3046875,-0.45703125 0,-0.24609375 0.023437,-0.31640625 0.058594,-0.48046879 z m 0,0"
         style="fill:#ffffff;fill-opacity:1;fill-rule:nonzero;stroke:none" />
      <path
         id="path27"
         d="m 7.1957266,-5.8414297 c 0,-0.7617187 -0.09375,-1.3125 -0.4101563,-1.8046875 -0.2226562,-0.3164062 -0.6445312,-0.5976562 -1.2070312,-0.5976562 -1.6171875,0 -1.6171875,1.8984375 -1.6171875,2.4023437 0,0.5039063 0,2.3671875 1.6171875,2.3671875 1.6171875,0 1.6171875,-1.8632812 1.6171875,-2.3671875 z m -1.6171875,2.1679688 c -0.3164063,0 -0.75,-0.1875 -0.890625,-0.7617188 -0.09375,-0.4101562 -0.09375,-0.984375 -0.09375,-1.5 0,-0.5039062 0,-1.03125 0.1054687,-1.4179687 0.1523438,-0.5507813 0.5976563,-0.6914063 0.8789063,-0.6914063 0.375,0 0.7382812,0.2226563 0.8671875,0.6328125 0.1054687,0.375 0.1171875,0.8789063 0.1171875,1.4765625 0,0.515625 0,1.0429688 -0.09375,1.4765625 -0.140625,0.6328125 -0.609375,0.7851563 -0.890625,0.7851563 z m 0,0"
         style="fill:#ffffff;fill-opacity:1;fill-rule:nonzero;stroke:none" />
    </g>
    <g
       id="g27"
       aria-label="t&#10;1"
       transform="matrix(1.3333333,0,0,1.3333333,231.19867,128.62533)">
      <path
         id="path28"
         d="m 2.0511953,-3.984625 h 0.9375 c 0.1992188,0 0.3046875,0 0.3046875,-0.1992188 0,-0.1054687 -0.1054687,-0.1054687 -0.28125,-0.1054687 H 2.1332266 C 2.4965078,-5.7072813 2.5433828,-5.9065 2.5433828,-5.9650938 c 0,-0.1757812 -0.1171875,-0.2695312 -0.2929687,-0.2695312 -0.023437,0 -0.3046875,0.011719 -0.3984375,0.3515625 l -0.3867188,1.59375 H 0.52775781 c -0.19921875,0 -0.29296875,0 -0.29296875,0.1875 0,0.1171875 0.0703125,0.1171875 0.26953125,0.1171875 H 1.3832266 c -0.71484379,2.8242187 -0.75000004,3 -0.75000004,3.17578125 0,0.5390625 0.37500004,0.9140625 0.91406254,0.9140625 1.0078125,0 1.5820312,-1.45312505 1.5820312,-1.53515625 0,-0.09375 -0.082031,-0.09375 -0.1171875,-0.09375 -0.09375,0 -0.1054687,0.023437 -0.1523437,0.140625 -0.4335938,1.03125 -0.9609375,1.27734375 -1.3007813,1.27734375 -0.1992187,0 -0.3046875,-0.12890625 -0.3046875,-0.45703125 0,-0.24609375 0.023437,-0.31640625 0.058594,-0.4804688 z m 0,0"
         style="fill:#ffffff;fill-opacity:1;fill-rule:nonzero;stroke:none" />
      <path
         id="path29"
         d="m 5.9301016,-8.0451719 c 0,-0.1875 -0.011719,-0.1992187 -0.2109375,-0.1992187 -0.4453125,0.4335937 -1.078125,0.4453125 -1.359375,0.4453125 v 0.2460937 c 0.1640625,0 0.6210937,0 1.0078125,-0.1875 v 3.5507813 c 0,0.234375 0,0.328125 -0.6914063,0.328125 H 4.4066641 v 0.2460937 c 0.1289062,-0.011719 0.984375,-0.023437 1.2421875,-0.023437 0.2109375,0 1.0898437,0.011719 1.2421875,0.023437 V -3.8615781 H 6.6332266 c -0.703125,0 -0.703125,-0.09375 -0.703125,-0.328125 z m 0,0"
         style="fill:#ffffff;fill-opacity:1;fill-rule:nonzero;stroke:none" />
    </g>
    <g
       id="g29"
       aria-label="t&#10;2"
       transform="matrix(1.3333333,0,0,1.3333333,231.19867,204.216)">
      <path
         id="path30"
         d="m 2.0511953,-3.9852422 h 0.9375 c 0.1992188,0 0.3046875,0 0.3046875,-0.1992187 0,-0.1054688 -0.1054687,-0.1054688 -0.28125,-0.1054688 H 2.1332266 c 0.3632812,-1.4179687 0.4101562,-1.6171875 0.4101562,-1.6757812 0,-0.1757813 -0.1171875,-0.2695313 -0.2929687,-0.2695313 -0.023437,0 -0.3046875,0.011719 -0.3984375,0.3515625 l -0.3867188,1.59375 H 0.52775781 c -0.19921875,0 -0.29296875,0 -0.29296875,0.1875 0,0.1171875 0.0703125,0.1171875 0.26953125,0.1171875 H 1.3832266 c -0.71484379,2.8242188 -0.75000004,3.00000001 -0.75000004,3.17578126 0,0.5390625 0.37500004,0.9140625 0.91406254,0.9140625 1.0078125,0 1.5820312,-1.45312496 1.5820312,-1.53515626 0,-0.09375 -0.082031,-0.09375 -0.1171875,-0.09375 -0.09375,0 -0.1054687,0.023437 -0.1523437,0.140625 -0.4335938,1.03125001 -0.9609375,1.27734376 -1.3007813,1.27734376 -0.1992187,0 -0.3046875,-0.12890625 -0.3046875,-0.45703125 0,-0.24609375 0.023437,-0.31640625 0.058594,-0.48046871 z m 0,0"
         style="fill:#ffffff;fill-opacity:1;fill-rule:nonzero;stroke:none" />
      <path
         id="path31"
         d="m 7.1136953,-4.8817266 h -0.234375 c -0.023437,0.1523438 -0.082031,0.5625 -0.1757812,0.6328125 -0.058594,0.035156 -0.5976563,0.035156 -0.6914063,0.035156 H 4.7230703 c 0.7382813,-0.6445313 0.984375,-0.84375 1.3945313,-1.171875 0.515625,-0.4101563 0.9960937,-0.84375 0.9960937,-1.5 0,-0.84375 -0.7382812,-1.359375 -1.6289062,-1.359375 -0.8671875,0 -1.453125,0.609375 -1.453125,1.2421875 0,0.3632812 0.3046875,0.3984375 0.375,0.3984375 0.1640625,0 0.375,-0.1171875 0.375,-0.375 0,-0.1289063 -0.058594,-0.3632813 -0.421875,-0.3632813 0.2226562,-0.5039062 0.6914062,-0.65625 1.0195312,-0.65625 0.703125,0 1.0664063,0.5507813 1.0664063,1.1132813 0,0.609375 -0.4335938,1.0898437 -0.65625,1.3359375 l -1.6875,1.6640625 c -0.070312,0.058594 -0.070312,0.070312 -0.070312,0.2695312 h 2.8828125 z m 0,0"
         style="fill:#ffffff;fill-opacity:1;fill-rule:nonzero;stroke:none" />
    </g>
    <g
       id="g31"
       aria-label="t&#10;3"
       transform="matrix(1.3333333,0,0,1.3333333,231.19867,279.80667)">
      <path
         id="path32"
         d="m 2.0511953,-3.9829297 h 0.9375 c 0.1992188,0 0.3046875,0 0.3046875,-0.1992187 0,-0.1054688 -0.1054687,-0.1054688 -0.28125,-0.1054688 H 2.1332266 c 0.3632812,-1.4179687 0.4101562,-1.6171875 0.4101562,-1.6757812 0,-0.1757813 -0.1171875,-0.2695313 -0.2929687,-0.2695313 -0.023437,0 -0.3046875,0.011719 -0.3984375,0.3515625 l -0.3867188,1.59375 H 0.52775781 c -0.19921875,0 -0.29296875,0 -0.29296875,0.1875 0,0.1171875 0.0703125,0.1171875 0.26953125,0.1171875 H 1.3832266 c -0.71484379,2.8242188 -0.75000004,3.00000001 -0.75000004,3.17578126 0,0.5390625 0.37500004,0.9140625 0.91406254,0.9140625 1.0078125,0 1.5820312,-1.45312496 1.5820312,-1.53515626 0,-0.09375 -0.082031,-0.09375 -0.1171875,-0.09375 -0.09375,0 -0.1054687,0.023437 -0.1523437,0.140625 -0.4335938,1.03125001 -0.9609375,1.27734376 -1.3007813,1.27734376 -0.1992187,0 -0.3046875,-0.12890625 -0.3046875,-0.45703125 0,-0.24609375 0.023437,-0.31640625 0.058594,-0.48046871 z m 0,0"
         style="fill:#ffffff;fill-opacity:1;fill-rule:nonzero;stroke:none" />
      <path
         id="path33"
         d="m 5.4965078,-5.9458203 c 0.5507813,0 0.9375,0.375 0.9375,1.125 0,0.8671875 -0.5039062,1.125 -0.9023437,1.125 -0.28125,0 -0.890625,-0.082031 -1.1835938,-0.4921875 0.328125,-0.011719 0.3984375,-0.2460938 0.3984375,-0.3867188 0,-0.2226562 -0.1640625,-0.3867187 -0.3867187,-0.3867187 -0.1875,0 -0.3867188,0.1171875 -0.3867188,0.4101562 0,0.65625 0.7265625,1.078125 1.5703125,1.078125 0.9726563,0 1.640625,-0.6445312 1.640625,-1.3476562 0,-0.5390625 -0.4453125,-1.0898438 -1.21875,-1.2421875 0.7382813,-0.2695313 0.9960938,-0.796875 0.9960938,-1.21875 0,-0.5507813 -0.6328125,-0.9609375 -1.40625,-0.9609375 -0.7734375,0 -1.359375,0.375 -1.359375,0.9375 0,0.234375 0.1523437,0.3632812 0.3632812,0.3632812 0.2109375,0 0.3515625,-0.1640625 0.3515625,-0.3515625 0,-0.1992187 -0.140625,-0.3515625 -0.3515625,-0.3632812 0.234375,-0.3046875 0.7148438,-0.3867188 0.9726563,-0.3867188 0.3164062,0 0.7617187,0.1523438 0.7617187,0.7617188 0,0.2929687 -0.1054687,0.609375 -0.28125,0.8320312 -0.234375,0.2578125 -0.421875,0.28125 -0.7734375,0.2929688 -0.1757812,0.023437 -0.1875,0.023437 -0.2226562,0.023437 -0.011719,0 -0.070312,0.011719 -0.070312,0.09375 0,0.09375 0.058594,0.09375 0.1757812,0.09375 z m 0,0"
         style="fill:#ffffff;fill-opacity:1;fill-rule:nonzero;stroke:none" />
    </g>
    <g
       id="g33"
       aria-label="t&#10;0"
       transform="matrix(1.3333333,0,0,1.3333333,306.78933,90.830667)">
      <path
         id="path34"
         d="m 2.0505781,-3.9833516 h 0.9375 c 0.1992188,0 0.3046875,0 0.3046875,-0.1992187 0,-0.1054688 -0.1054687,-0.1054688 -0.28125,-0.1054688 H 2.1326094 c 0.3632812,-1.4179687 0.4101562,-1.6171875 0.4101562,-1.6757812 0,-0.1757813 -0.1171875,-0.2695313 -0.2929687,-0.2695313 -0.023437,0 -0.3046875,0.011719 -0.3984375,0.3515625 l -0.3867188,1.59375 H 0.52714063 c -0.19921875,0 -0.29296875,0 -0.29296875,0.1875 0,0.1171875 0.0703125,0.1171875 0.26953125,0.1171875 H 1.3826094 c -0.71484377,2.8242188 -0.75000002,3.00000004 -0.75000002,3.17578129 0,0.5390625 0.37500002,0.9140625 0.91406252,0.9140625 1.0078125,0 1.5820312,-1.45312499 1.5820312,-1.53515629 0,-0.09375 -0.082031,-0.09375 -0.1171875,-0.09375 -0.09375,0 -0.1054687,0.023437 -0.1523437,0.140625 -0.4335938,1.03125004 -0.9609375,1.27734379 -1.3007813,1.27734379 -0.1992187,0 -0.3046875,-0.12890625 -0.3046875,-0.45703125 0,-0.24609375 0.023437,-0.31640625 0.058594,-0.48046874 z m 0,0"
         style="fill:#ffffff;fill-opacity:1;fill-rule:nonzero;stroke:none" />
      <path
         id="path35"
         d="m 7.1951094,-5.8437031 c 0,-0.7617188 -0.09375,-1.3125 -0.4101563,-1.8046875 -0.2226562,-0.3164063 -0.6445312,-0.5976563 -1.2070312,-0.5976563 -1.6171875,0 -1.6171875,1.8984375 -1.6171875,2.4023438 0,0.5039062 0,2.3671875 1.6171875,2.3671875 1.6171875,0 1.6171875,-1.8632813 1.6171875,-2.3671875 z m -1.6171875,2.1679687 c -0.3164063,0 -0.75,-0.1875 -0.890625,-0.7617187 -0.09375,-0.4101563 -0.09375,-0.984375 -0.09375,-1.5 0,-0.5039063 0,-1.03125 0.1054687,-1.4179688 0.1523438,-0.5507812 0.5976563,-0.6914062 0.8789063,-0.6914062 0.375,0 0.7382812,0.2226562 0.8671875,0.6328125 0.1054687,0.375 0.1171875,0.8789062 0.1171875,1.4765625 0,0.515625 0,1.0429687 -0.09375,1.4765625 -0.140625,0.6328125 -0.609375,0.7851562 -0.890625,0.7851562 z m 0,0"
         style="fill:#ffffff;fill-opacity:1;fill-rule:nonzero;stroke:none" />
    </g>
    <g
       id="g35"
       aria-label="t&#10;1"
       transform="matrix(1.3333333,0,0,1.3333333,306.78933,166.42133)">
      <path
         id="path36"
         d="m 2.0505781,-3.9839688 h 0.9375 c 0.1992188,0 0.3046875,0 0.3046875,-0.1992187 0,-0.1054688 -0.1054687,-0.1054688 -0.28125,-0.1054688 H 2.1326094 c 0.3632812,-1.4179687 0.4101562,-1.6171875 0.4101562,-1.6757812 0,-0.1757813 -0.1171875,-0.2695313 -0.2929687,-0.2695313 -0.023437,0 -0.3046875,0.011719 -0.3984375,0.3515625 l -0.3867188,1.59375 H 0.52714063 c -0.19921875,0 -0.29296875,0 -0.29296875,0.1875 0,0.1171875 0.0703125,0.1171875 0.26953125,0.1171875 H 1.3826094 c -0.71484377,2.8242188 -0.75000002,3.00000005 -0.75000002,3.1757813 0,0.5390625 0.37500002,0.9140625 0.91406252,0.9140625 1.0078125,0 1.5820312,-1.453125 1.5820312,-1.5351563 0,-0.09375 -0.082031,-0.09375 -0.1171875,-0.09375 -0.09375,0 -0.1054687,0.023437 -0.1523437,0.140625 -0.4335938,1.03125005 -0.9609375,1.2773438 -1.3007813,1.2773438 -0.1992187,0 -0.3046875,-0.12890625 -0.3046875,-0.45703125 0,-0.24609375 0.023437,-0.31640625 0.058594,-0.48046875 z m 0,0"
         style="fill:#ffffff;fill-opacity:1;fill-rule:nonzero;stroke:none" />
      <path
         id="path37"
         d="m 5.9294844,-8.0445156 c 0,-0.1875 -0.011719,-0.1992188 -0.2109375,-0.1992188 -0.4453125,0.4335938 -1.078125,0.4453125 -1.359375,0.4453125 v 0.2460938 c 0.1640625,0 0.6210937,0 1.0078125,-0.1875 v 3.5507812 c 0,0.234375 0,0.328125 -0.6914063,0.328125 H 4.4060469 v 0.2460938 c 0.1289062,-0.011719 0.984375,-0.023437 1.2421875,-0.023437 0.2109375,0 1.0898437,0.011719 1.2421875,0.023437 V -3.8609219 H 6.6326094 c -0.703125,0 -0.703125,-0.09375 -0.703125,-0.328125 z m 0,0"
         style="fill:#ffffff;fill-opacity:1;fill-rule:nonzero;stroke:none" />
    </g>
    <g
       id="g37"
       aria-label="t&#10;2"
       transform="matrix(1.3333333,0,0,1.3333333,306.78933,242.012)">
      <path
         id="path38"
         d="m 2.0505781,-3.9845859 h 0.9375 c 0.1992188,0 0.3046875,0 0.3046875,-0.1992188 0,-0.1054687 -0.1054687,-0.1054687 -0.28125,-0.1054687 H 2.1326094 c 0.3632812,-1.4179688 0.4101562,-1.6171875 0.4101562,-1.6757813 0,-0.1757812 -0.1171875,-0.2695312 -0.2929687,-0.2695312 -0.023437,0 -0.3046875,0.011719 -0.3984375,0.3515625 l -0.3867188,1.59375 H 0.52714063 c -0.19921875,0 -0.29296875,0 -0.29296875,0.1875 0,0.1171875 0.0703125,0.1171875 0.26953125,0.1171875 H 1.3826094 c -0.71484377,2.8242187 -0.75000002,2.99999996 -0.75000002,3.17578121 0,0.5390625 0.37500002,0.9140625 0.91406252,0.9140625 1.0078125,0 1.5820312,-1.45312501 1.5820312,-1.53515621 0,-0.09375 -0.082031,-0.09375 -0.1171875,-0.09375 -0.09375,0 -0.1054687,0.023437 -0.1523437,0.140625 -0.4335938,1.03124996 -0.9609375,1.27734371 -1.3007813,1.27734371 -0.1992187,0 -0.3046875,-0.12890625 -0.3046875,-0.45703125 0,-0.24609375 0.023437,-0.31640625 0.058594,-0.48046876 z m 0,0"
         style="fill:#ffffff;fill-opacity:1;fill-rule:nonzero;stroke:none" />
      <path
         id="path39"
         d="m 7.1130781,-4.8810703 h -0.234375 c -0.023437,0.1523437 -0.082031,0.5625 -0.1757812,0.6328125 -0.058594,0.035156 -0.5976563,0.035156 -0.6914063,0.035156 H 4.7224531 c 0.7382813,-0.6445312 0.984375,-0.84375 1.3945313,-1.171875 0.515625,-0.4101562 0.9960937,-0.84375 0.9960937,-1.5 0,-0.84375 -0.7382812,-1.359375 -1.6289062,-1.359375 -0.8671875,0 -1.453125,0.609375 -1.453125,1.2421875 0,0.3632813 0.3046875,0.3984375 0.375,0.3984375 0.1640625,0 0.375,-0.1171875 0.375,-0.375 0,-0.1289062 -0.058594,-0.3632812 -0.421875,-0.3632812 0.2226562,-0.5039063 0.6914062,-0.65625 1.0195312,-0.65625 0.703125,0 1.0664063,0.5507812 1.0664063,1.1132812 0,0.609375 -0.4335938,1.0898438 -0.65625,1.3359375 l -1.6875,1.6640625 c -0.070312,0.058594 -0.070312,0.070312 -0.070312,0.2695313 h 2.8828125 z m 0,0"
         style="fill:#ffffff;fill-opacity:1;fill-rule:nonzero;stroke:none" />
    </g>
    <g
       id="g39"
       aria-label="t&#10;3"
       transform="matrix(1.3333333,0,0,1.3333333,306.78933,317.60133)">
      <path
         id="path40"
         d="m 2.0505781,-3.9842031 h 0.9375 c 0.1992188,0 0.3046875,0 0.3046875,-0.1992188 0,-0.1054687 -0.1054687,-0.1054687 -0.28125,-0.1054687 H 2.1326094 c 0.3632812,-1.4179688 0.4101562,-1.6171875 0.4101562,-1.6757813 0,-0.1757812 -0.1171875,-0.2695312 -0.2929687,-0.2695312 -0.023437,0 -0.3046875,0.011719 -0.3984375,0.3515625 l -0.3867188,1.59375 H 0.52714063 c -0.19921875,0 -0.29296875,0 -0.29296875,0.1875 0,0.1171875 0.0703125,0.1171875 0.26953125,0.1171875 H 1.3826094 c -0.71484377,2.8242187 -0.75000002,2.99999997 -0.75000002,3.17578122 0,0.5390625 0.37500002,0.9140625 0.91406252,0.9140625 1.0078125,0 1.5820312,-1.45312502 1.5820312,-1.53515622 0,-0.09375 -0.082031,-0.09375 -0.1171875,-0.09375 -0.09375,0 -0.1054687,0.023437 -0.1523437,0.140625 -0.4335938,1.03124997 -0.9609375,1.27734372 -1.3007813,1.27734372 -0.1992187,0 -0.3046875,-0.12890625 -0.3046875,-0.45703125 0,-0.24609375 0.023437,-0.31640625 0.058594,-0.48046877 z m 0,0"
         style="fill:#ffffff;fill-opacity:1;fill-rule:nonzero;stroke:none" />
      <path
         id="path41"
         d="m 5.4958906,-5.9470938 c 0.5507813,0 0.9375,0.375 0.9375,1.125 0,0.8671875 -0.5039062,1.125 -0.9023437,1.125 -0.28125,0 -0.890625,-0.082031 -1.1835938,-0.4921875 C 4.6755781,-4.201 4.7458906,-4.435375 4.7458906,-4.576 c 0,-0.2226563 -0.1640625,-0.3867188 -0.3867187,-0.3867188 -0.1875,0 -0.3867188,0.1171875 -0.3867188,0.4101563 0,0.65625 0.7265625,1.078125 1.5703125,1.078125 0.9726563,0 1.640625,-0.6445313 1.640625,-1.3476563 0,-0.5390625 -0.4453125,-1.0898437 -1.21875,-1.2421875 0.7382813,-0.2695312 0.9960938,-0.796875 0.9960938,-1.21875 0,-0.5507812 -0.6328125,-0.9609375 -1.40625,-0.9609375 -0.7734375,0 -1.359375,0.375 -1.359375,0.9375 0,0.234375 0.1523437,0.3632813 0.3632812,0.3632813 0.2109375,0 0.3515625,-0.1640625 0.3515625,-0.3515625 0,-0.1992188 -0.140625,-0.3515625 -0.3515625,-0.3632813 0.234375,-0.3046875 0.7148438,-0.3867187 0.9726563,-0.3867187 0.3164062,0 0.7617187,0.1523437 0.7617187,0.7617187 0,0.2929688 -0.1054687,0.609375 -0.28125,0.8320313 -0.234375,0.2578125 -0.421875,0.28125 -0.7734375,0.2929687 -0.1757812,0.023437 -0.1875,0.023437 -0.2226562,0.023437 -0.011719,0 -0.070312,0.011719 -0.070312,0.09375 0,0.09375 0.058594,0.09375 0.1757812,0.09375 z m 0,0"
         style="fill:#ffffff;fill-opacity:1;fill-rule:nonzero;stroke:none" />
    </g>
    <g
       id="g41"
       aria-label="t&#10;0"
       transform="matrix(1.3333333,0,0,1.3333333,382.38,53.034667)">
      <path
         id="path42"
         d="m 2.0499609,-3.9840078 h 0.9375 c 0.1992188,0 0.3046875,0 0.3046875,-0.1992188 0,-0.1054687 -0.1054687,-0.1054687 -0.28125,-0.1054687 H 2.1319922 c 0.3632812,-1.4179688 0.4101562,-1.6171875 0.4101562,-1.6757813 0,-0.1757812 -0.1171875,-0.2695312 -0.2929687,-0.2695312 -0.023437,0 -0.3046875,0.011719 -0.3984375,0.3515625 l -0.3867188,1.59375 H 0.52652344 c -0.19921875,0 -0.29296875,0 -0.29296875,0.1875 0,0.1171875 0.0703125,0.1171875 0.26953125,0.1171875 H 1.3819922 c -0.71484376,2.8242187 -0.75000001,2.99999999 -0.75000001,3.17578124 0,0.5390625 0.37500001,0.9140625 0.91406251,0.9140625 1.0078125,0 1.5820312,-1.45312504 1.5820312,-1.53515624 0,-0.09375 -0.082031,-0.09375 -0.1171875,-0.09375 -0.09375,0 -0.1054687,0.023437 -0.1523437,0.140625 -0.4335938,1.03124999 -0.9609375,1.27734374 -1.3007813,1.27734374 -0.1992187,0 -0.3046875,-0.12890625 -0.3046875,-0.45703125 0,-0.24609375 0.023437,-0.31640625 0.058594,-0.48046879 z m 0,0"
         style="fill:#ffffff;fill-opacity:1;fill-rule:nonzero;stroke:none" />
      <path
         id="path43"
         d="m 7.1944922,-5.8414297 c 0,-0.7617187 -0.09375,-1.3125 -0.4101563,-1.8046875 -0.2226562,-0.3164062 -0.6445312,-0.5976562 -1.2070312,-0.5976562 -1.6171875,0 -1.6171875,1.8984375 -1.6171875,2.4023437 0,0.5039063 0,2.3671875 1.6171875,2.3671875 1.6171875,0 1.6171875,-1.8632812 1.6171875,-2.3671875 z m -1.6171875,2.1679688 c -0.3164063,0 -0.75,-0.1875 -0.890625,-0.7617188 -0.09375,-0.4101562 -0.09375,-0.984375 -0.09375,-1.5 0,-0.5039062 0,-1.03125 0.1054687,-1.4179687 0.1523438,-0.5507813 0.5976563,-0.6914063 0.8789063,-0.6914063 0.375,0 0.7382812,0.2226563 0.8671875,0.6328125 0.1054687,0.375 0.1171875,0.8789063 0.1171875,1.4765625 0,0.515625 0,1.0429688 -0.09375,1.4765625 -0.140625,0.6328125 -0.609375,0.7851563 -0.890625,0.7851563 z m 0,0"
         style="fill:#ffffff;fill-opacity:1;fill-rule:nonzero;stroke:none" />
    </g>
    <g
       id="g43"
       aria-label="t&#10;1"
       transform="matrix(1.3333333,0,0,1.3333333,382.38,128.62533)">
      <path
         id="path44"
         d="m 2.0499609,-3.984625 h 0.9375 c 0.1992188,0 0.3046875,0 0.3046875,-0.1992188 0,-0.1054687 -0.1054687,-0.1054687 -0.28125,-0.1054687 H 2.1319922 C 2.4952734,-5.7072813 2.5421484,-5.9065 2.5421484,-5.9650938 c 0,-0.1757812 -0.1171875,-0.2695312 -0.2929687,-0.2695312 -0.023437,0 -0.3046875,0.011719 -0.3984375,0.3515625 l -0.3867188,1.59375 H 0.52652344 c -0.19921875,0 -0.29296875,0 -0.29296875,0.1875 0,0.1171875 0.0703125,0.1171875 0.26953125,0.1171875 H 1.3819922 c -0.71484376,2.8242187 -0.75000001,3 -0.75000001,3.17578125 0,0.5390625 0.37500001,0.9140625 0.91406251,0.9140625 1.0078125,0 1.5820312,-1.45312505 1.5820312,-1.53515625 0,-0.09375 -0.082031,-0.09375 -0.1171875,-0.09375 -0.09375,0 -0.1054687,0.023437 -0.1523437,0.140625 -0.4335938,1.03125 -0.9609375,1.27734375 -1.3007813,1.27734375 -0.1992187,0 -0.3046875,-0.12890625 -0.3046875,-0.45703125 0,-0.24609375 0.023437,-0.31640625 0.058594,-0.4804688 z m 0,0"
         style="fill:#ffffff;fill-opacity:1;fill-rule:nonzero;stroke:none" />
      <path
         id="path45"
         d="m 5.9288672,-8.0451719 c 0,-0.1875 -0.011719,-0.1992187 -0.2109375,-0.1992187 -0.4453125,0.4335937 -1.078125,0.4453125 -1.359375,0.4453125 v 0.2460937 c 0.1640625,0 0.6210937,0 1.0078125,-0.1875 v 3.5507813 c 0,0.234375 0,0.328125 -0.6914063,0.328125 H 4.4054297 v 0.2460937 c 0.1289062,-0.011719 0.984375,-0.023437 1.2421875,-0.023437 0.2109375,0 1.0898437,0.011719 1.2421875,0.023437 V -3.8615781 H 6.6319922 c -0.703125,0 -0.703125,-0.09375 -0.703125,-0.328125 z m 0,0"
         style="fill:#ffffff;fill-opacity:1;fill-rule:nonzero;stroke:none" />
    </g>
    <g
       id="g45"
       aria-label="t&#10;2"
       transform="matrix(1.3333333,0,0,1.3333333,382.38,204.216)">
      <path
         id="path46"
         d="m 2.0499609,-3.9852422 h 0.9375 c 0.1992188,0 0.3046875,0 0.3046875,-0.1992187 0,-0.1054688 -0.1054687,-0.1054688 -0.28125,-0.1054688 H 2.1319922 c 0.3632812,-1.4179687 0.4101562,-1.6171875 0.4101562,-1.6757812 0,-0.1757813 -0.1171875,-0.2695313 -0.2929687,-0.2695313 -0.023437,0 -0.3046875,0.011719 -0.3984375,0.3515625 l -0.3867188,1.59375 H 0.52652344 c -0.19921875,0 -0.29296875,0 -0.29296875,0.1875 0,0.1171875 0.0703125,0.1171875 0.26953125,0.1171875 H 1.3819922 c -0.71484376,2.8242188 -0.75000001,3.00000001 -0.75000001,3.17578126 0,0.5390625 0.37500001,0.9140625 0.91406251,0.9140625 1.0078125,0 1.5820312,-1.45312496 1.5820312,-1.53515626 0,-0.09375 -0.082031,-0.09375 -0.1171875,-0.09375 -0.09375,0 -0.1054687,0.023437 -0.1523437,0.140625 -0.4335938,1.03125001 -0.9609375,1.27734376 -1.3007813,1.27734376 -0.1992187,0 -0.3046875,-0.12890625 -0.3046875,-0.45703125 0,-0.24609375 0.023437,-0.31640625 0.058594,-0.48046871 z m 0,0"
         style="fill:#ffffff;fill-opacity:1;fill-rule:nonzero;stroke:none" />
      <path
         id="path47"
         d="m 7.1124609,-4.8817266 h -0.234375 c -0.023437,0.1523438 -0.082031,0.5625 -0.1757812,0.6328125 -0.058594,0.035156 -0.5976563,0.035156 -0.6914063,0.035156 H 4.7218359 c 0.7382813,-0.6445313 0.984375,-0.84375 1.3945313,-1.171875 0.515625,-0.4101563 0.9960937,-0.84375 0.9960937,-1.5 0,-0.84375 -0.7382812,-1.359375 -1.6289062,-1.359375 -0.8671875,0 -1.453125,0.609375 -1.453125,1.2421875 0,0.3632812 0.3046875,0.3984375 0.375,0.3984375 0.1640625,0 0.375,-0.1171875 0.375,-0.375 0,-0.1289063 -0.058594,-0.3632813 -0.421875,-0.3632813 0.2226562,-0.5039062 0.6914062,-0.65625 1.0195312,-0.65625 0.703125,0 1.0664063,0.5507813 1.0664063,1.1132813 0,0.609375 -0.4335938,1.0898437 -0.65625,1.3359375 l -1.6875,1.6640625 c -0.070312,0.058594 -0.070312,0.070312 -0.070312,0.2695312 h 2.8828125 z m 0,0"
         style="fill:#ffffff;fill-opacity:1;fill-rule:nonzero;stroke:none" />
    </g>
    <g
       id="g47"
       aria-label="t&#10;3"
       transform="matrix(1.3333333,0,0,1.3333333,382.38,279.80667)">
      <path
         id="path48"
         d="m 2.0499609,-3.9829297 h 0.9375 c 0.1992188,0 0.3046875,0 0.3046875,-0.1992187 0,-0.1054688 -0.1054687,-0.1054688 -0.28125,-0.1054688 H 2.1319922 c 0.3632812,-1.4179687 0.4101562,-1.6171875 0.4101562,-1.6757812 0,-0.1757813 -0.1171875,-0.2695313 -0.2929687,-0.2695313 -0.023437,0 -0.3046875,0.011719 -0.3984375,0.3515625 l -0.3867188,1.59375 H 0.52652344 c -0.19921875,0 -0.29296875,0 -0.29296875,0.1875 0,0.1171875 0.0703125,0.1171875 0.26953125,0.1171875 H 1.3819922 c -0.71484376,2.8242188 -0.75000001,3.00000001 -0.75000001,3.17578126 0,0.5390625 0.37500001,0.9140625 0.91406251,0.9140625 1.0078125,0 1.5820312,-1.45312496 1.5820312,-1.53515626 0,-0.09375 -0.082031,-0.09375 -0.1171875,-0.09375 -0.09375,0 -0.1054687,0.023437 -0.1523437,0.140625 -0.4335938,1.03125001 -0.9609375,1.27734376 -1.3007813,1.27734376 -0.1992187,0 -0.3046875,-0.12890625 -0.3046875,-0.45703125 0,-0.24609375 0.023437,-0.31640625 0.058594,-0.48046871 z m 0,0"
         style="fill:#ffffff;fill-opacity:1;fill-rule:nonzero;stroke:none" />
      <path
         id="path49"
         d="m 5.4952734,-5.9458203 c 0.5507813,0 0.9375,0.375 0.9375,1.125 0,0.8671875 -0.5039062,1.125 -0.9023437,1.125 -0.28125,0 -0.890625,-0.082031 -1.1835938,-0.4921875 0.328125,-0.011719 0.3984375,-0.2460938 0.3984375,-0.3867188 0,-0.2226562 -0.1640625,-0.3867187 -0.3867187,-0.3867187 -0.1875,0 -0.3867188,0.1171875 -0.3867188,0.4101562 0,0.65625 0.7265625,1.078125 1.5703125,1.078125 0.9726563,0 1.640625,-0.6445312 1.640625,-1.3476562 0,-0.5390625 -0.4453125,-1.0898438 -1.21875,-1.2421875 0.7382813,-0.2695313 0.9960938,-0.796875 0.9960938,-1.21875 0,-0.5507813 -0.6328125,-0.9609375 -1.40625,-0.9609375 -0.7734375,0 -1.359375,0.375 -1.359375,0.9375 0,0.234375 0.1523437,0.3632812 0.3632812,0.3632812 0.2109375,0 0.3515625,-0.1640625 0.3515625,-0.3515625 0,-0.1992187 -0.140625,-0.3515625 -0.3515625,-0.3632812 0.234375,-0.3046875 0.7148438,-0.3867188 0.9726563,-0.3867188 0.3164062,0 0.7617187,0.1523438 0.7617187,0.7617188 0,0.2929687 -0.1054687,0.609375 -0.28125,0.8320312 -0.234375,0.2578125 -0.421875,0.28125 -0.7734375,0.2929688 -0.1757812,0.023437 -0.1875,0.023437 -0.2226562,0.023437 -0.011719,0 -0.070312,0.011719 -0.070312,0.09375 0,0.09375 0.058594,0.09375 0.1757812,0.09375 z m 0,0"
         style="fill:#ffffff;fill-opacity:1;fill-rule:nonzero;stroke:none" />
    </g>
    <g
       id="g49"
       aria-label="t&#10;0"
       transform="matrix(1.3333333,0,0,1.3333333,457.97067,15.24)">
      <path
         id="path50"
         d="m 2.0493437,-3.9856641 h 0.9375 c 0.1992188,0 0.3046875,0 0.3046875,-0.1992187 0,-0.1054688 -0.1054687,-0.1054688 -0.28125,-0.1054688 H 2.131375 c 0.3632812,-1.4179687 0.4101562,-1.6171875 0.4101562,-1.6757812 0,-0.1757813 -0.1171875,-0.2695313 -0.2929687,-0.2695313 -0.023437,0 -0.3046875,0.011719 -0.3984375,0.3515625 l -0.3867188,1.59375 H 0.52590625 c -0.19921875,0 -0.29296875,0 -0.29296875,0.1875 0,0.1171875 0.0703125,0.1171875 0.26953125,0.1171875 H 1.381375 c -0.71484375,2.8242188 -0.75,3.00000004 -0.75,3.17578129 0,0.5390625 0.375,0.9140625 0.9140625,0.9140625 1.0078125,0 1.5820312,-1.45312499 1.5820312,-1.53515629 0,-0.09375 -0.082031,-0.09375 -0.1171875,-0.09375 -0.09375,0 -0.1054687,0.023437 -0.1523437,0.140625 -0.4335938,1.03125004 -0.9609375,1.27734379 -1.3007813,1.27734379 -0.1992187,0 -0.3046875,-0.12890625 -0.3046875,-0.45703125 0,-0.24609375 0.023437,-0.31640625 0.058594,-0.48046874 z m 0,0"
         style="fill:#ffffff;fill-opacity:1;fill-rule:nonzero;stroke:none" />
      <path
         id="path51"
         d="m 7.193875,-5.8430859 c 0,-0.7617188 -0.09375,-1.3125 -0.4101563,-1.8046875 -0.2226562,-0.3164063 -0.6445312,-0.5976563 -1.2070312,-0.5976563 -1.6171875,0 -1.6171875,1.8984375 -1.6171875,2.4023438 0,0.5039062 0,2.3671875 1.6171875,2.3671875 1.6171875,0 1.6171875,-1.8632813 1.6171875,-2.3671875 z m -1.6171875,2.1679687 c -0.3164063,0 -0.75,-0.1875 -0.890625,-0.7617187 -0.09375,-0.4101563 -0.09375,-0.984375 -0.09375,-1.5 0,-0.5039063 0,-1.03125 0.1054687,-1.4179688 0.1523438,-0.5507812 0.5976563,-0.6914062 0.8789063,-0.6914062 0.375,0 0.7382812,0.2226562 0.8671875,0.6328125 0.1054687,0.375 0.1171875,0.8789062 0.1171875,1.4765625 0,0.515625 0,1.0429687 -0.09375,1.4765625 -0.140625,0.6328125 -0.609375,0.7851562 -0.890625,0.7851562 z m 0,0"
         style="fill:#ffffff;fill-opacity:1;fill-rule:nonzero;stroke:none" />
    </g>
    <g
       id="g51"
       aria-label="t&#10;1"
       transform="matrix(1.3333333,0,0,1.3333333,457.97067,90.830667)">
      <path
         id="path52"
         d="m 2.0493437,-3.9833516 h 0.9375 c 0.1992188,0 0.3046875,0 0.3046875,-0.1992187 0,-0.1054688 -0.1054687,-0.1054688 -0.28125,-0.1054688 H 2.131375 c 0.3632812,-1.4179687 0.4101562,-1.6171875 0.4101562,-1.6757812 0,-0.1757813 -0.1171875,-0.2695313 -0.2929687,-0.2695313 -0.023437,0 -0.3046875,0.011719 -0.3984375,0.3515625 l -0.3867188,1.59375 H 0.52590625 c -0.19921875,0 -0.29296875,0 -0.29296875,0.1875 0,0.1171875 0.0703125,0.1171875 0.26953125,0.1171875 H 1.381375 c -0.71484375,2.8242188 -0.75,3.00000004 -0.75,3.17578129 0,0.5390625 0.375,0.9140625 0.9140625,0.9140625 1.0078125,0 1.5820312,-1.45312499 1.5820312,-1.53515629 0,-0.09375 -0.082031,-0.09375 -0.1171875,-0.09375 -0.09375,0 -0.1054687,0.023437 -0.1523437,0.140625 -0.4335938,1.03125004 -0.9609375,1.27734379 -1.3007813,1.27734379 -0.1992187,0 -0.3046875,-0.12890625 -0.3046875,-0.45703125 0,-0.24609375 0.023437,-0.31640625 0.058594,-0.48046874 z m 0,0"
         style="fill:#ffffff;fill-opacity:1;fill-rule:nonzero;stroke:none" />
      <path
         id="path53"
         d="m 5.92825,-8.0468281 c 0,-0.1875 -0.011719,-0.1992188 -0.2109375,-0.1992188 -0.4453125,0.4335938 -1.078125,0.4453125 -1.359375,0.4453125 v 0.2460938 c 0.1640625,0 0.6210937,0 1.0078125,-0.1875 v 3.5507812 c 0,0.234375 0,0.328125 -0.6914063,0.328125 H 4.4048125 v 0.2460938 c 0.1289062,-0.011719 0.984375,-0.023437 1.2421875,-0.023437 0.2109375,0 1.0898437,0.011719 1.2421875,0.023437 V -3.8632344 H 6.631375 c -0.703125,0 -0.703125,-0.09375 -0.703125,-0.328125 z m 0,0"
         style="fill:#ffffff;fill-opacity:1;fill-rule:nonzero;stroke:none" />
    </g>
    <g
       id="g53"
       aria-label="t&#10;2"
       transform="matrix(1.3333333,0,0,1.3333333,457.97067,166.42133)">
      <path
         id="path54"
         d="m 2.0493437,-3.9839688 h 0.9375 c 0.1992188,0 0.3046875,0 0.3046875,-0.1992187 0,-0.1054688 -0.1054687,-0.1054688 -0.28125,-0.1054688 H 2.131375 c 0.3632812,-1.4179687 0.4101562,-1.6171875 0.4101562,-1.6757812 0,-0.1757813 -0.1171875,-0.2695313 -0.2929687,-0.2695313 -0.023437,0 -0.3046875,0.011719 -0.3984375,0.3515625 l -0.3867188,1.59375 H 0.52590625 c -0.19921875,0 -0.29296875,0 -0.29296875,0.1875 0,0.1171875 0.0703125,0.1171875 0.26953125,0.1171875 H 1.381375 c -0.71484375,2.8242188 -0.75,3.00000005 -0.75,3.1757813 0,0.5390625 0.375,0.9140625 0.9140625,0.9140625 1.0078125,0 1.5820312,-1.453125 1.5820312,-1.5351563 0,-0.09375 -0.082031,-0.09375 -0.1171875,-0.09375 -0.09375,0 -0.1054687,0.023437 -0.1523437,0.140625 -0.4335938,1.03125005 -0.9609375,1.2773438 -1.3007813,1.2773438 -0.1992187,0 -0.3046875,-0.12890625 -0.3046875,-0.45703125 0,-0.24609375 0.023437,-0.31640625 0.058594,-0.48046875 z m 0,0"
         style="fill:#ffffff;fill-opacity:1;fill-rule:nonzero;stroke:none" />
      <path
         id="path55"
         d="m 7.1118437,-4.8804531 h -0.234375 c -0.023437,0.1523437 -0.082031,0.5625 -0.1757812,0.6328125 -0.058594,0.035156 -0.5976563,0.035156 -0.6914063,0.035156 H 4.7212187 c 0.7382813,-0.6445312 0.984375,-0.84375 1.3945313,-1.171875 0.515625,-0.4101562 0.9960937,-0.84375 0.9960937,-1.5 0,-0.84375 -0.7382812,-1.359375 -1.6289062,-1.359375 -0.8671875,0 -1.453125,0.609375 -1.453125,1.2421875 0,0.3632813 0.3046875,0.3984375 0.375,0.3984375 0.1640625,0 0.375,-0.1171875 0.375,-0.375 0,-0.1289062 -0.058594,-0.3632812 -0.421875,-0.3632812 0.2226562,-0.5039063 0.6914062,-0.65625 1.0195312,-0.65625 0.703125,0 1.0664063,0.5507812 1.0664063,1.1132812 0,0.609375 -0.4335938,1.0898438 -0.65625,1.3359375 l -1.6875,1.6640625 c -0.070312,0.058594 -0.070312,0.070312 -0.070312,0.2695313 h 2.882812 z m 0,0"
         style="fill:#ffffff;fill-opacity:1;fill-rule:nonzero;stroke:none" />
    </g>
    <g
       id="g55"
       aria-label="t&#10;3"
       transform="matrix(1.3333333,0,0,1.3333333,457.97067,242.012)">
      <path
         id="path56"
         d="m 2.0493437,-3.9845859 h 0.9375 c 0.1992188,0 0.3046875,0 0.3046875,-0.1992188 0,-0.1054687 -0.1054687,-0.1054687 -0.28125,-0.1054687 H 2.131375 c 0.3632812,-1.4179688 0.4101562,-1.6171875 0.4101562,-1.6757813 0,-0.1757812 -0.1171875,-0.2695312 -0.2929687,-0.2695312 -0.023437,0 -0.3046875,0.011719 -0.3984375,0.3515625 l -0.3867188,1.59375 H 0.52590625 c -0.19921875,0 -0.29296875,0 -0.29296875,0.1875 0,0.1171875 0.0703125,0.1171875 0.26953125,0.1171875 H 1.381375 c -0.71484375,2.8242187 -0.75,2.99999996 -0.75,3.17578121 0,0.5390625 0.375,0.9140625 0.9140625,0.9140625 1.0078125,0 1.5820312,-1.45312501 1.5820312,-1.53515621 0,-0.09375 -0.082031,-0.09375 -0.1171875,-0.09375 -0.09375,0 -0.1054687,0.023437 -0.1523437,0.140625 -0.4335938,1.03124996 -0.9609375,1.27734371 -1.3007813,1.27734371 -0.1992187,0 -0.3046875,-0.12890625 -0.3046875,-0.45703125 0,-0.24609375 0.023437,-0.31640625 0.058594,-0.48046876 z m 0,0"
         style="fill:#ffffff;fill-opacity:1;fill-rule:nonzero;stroke:none" />
      <path
         id="path57"
         d="m 5.4946562,-5.9474766 c 0.5507813,0 0.9375,0.375 0.9375,1.125 0,0.8671875 -0.5039062,1.125 -0.9023437,1.125 -0.28125,0 -0.890625,-0.082031 -1.1835938,-0.4921875 0.328125,-0.011719 0.3984375,-0.2460937 0.3984375,-0.3867187 0,-0.2226563 -0.1640625,-0.3867188 -0.3867187,-0.3867188 -0.1875,0 -0.3867188,0.1171875 -0.3867188,0.4101563 0,0.65625 0.7265625,1.078125 1.5703125,1.078125 0.9726563,0 1.640625,-0.6445313 1.640625,-1.3476563 0,-0.5390625 -0.4453125,-1.0898437 -1.21875,-1.2421875 0.7382813,-0.2695312 0.9960938,-0.796875 0.9960938,-1.21875 0,-0.5507812 -0.6328125,-0.9609375 -1.40625,-0.9609375 -0.7734375,0 -1.359375,0.375 -1.359375,0.9375 0,0.234375 0.1523437,0.3632813 0.3632812,0.3632813 0.2109375,0 0.3515625,-0.1640625 0.3515625,-0.3515625 0,-0.1992188 -0.140625,-0.3515625 -0.3515625,-0.3632813 0.234375,-0.3046875 0.7148438,-0.3867187 0.9726563,-0.3867187 0.3164062,0 0.7617187,0.1523437 0.7617187,0.7617187 0,0.2929688 -0.1054687,0.609375 -0.28125,0.8320313 -0.234375,0.2578125 -0.421875,0.28125 -0.7734375,0.2929687 -0.1757812,0.023437 -0.1875,0.023437 -0.2226562,0.023437 -0.011719,0 -0.070312,0.011719 -0.070312,0.09375 0,0.09375 0.058594,0.09375 0.1757812,0.09375 z m 0,0"
         style="fill:#ffffff;fill-opacity:1;fill-rule:nonzero;stroke:none" />
    </g>
    <path
       id="path58"
       d="M 7.75261,-173.95715 48.2282,-194.19717"
       style="fill:none;stroke:#fdde2a;stroke-width:0.79701;stroke-linecap:butt;stroke-linejoin:miter;stroke-miterlimit:10;stroke-dasharray:none;stroke-opacity:1"
       transform="matrix(1.3333333,0,0,-1.3333333,9.8053333,9.8333333)" />
    <path
       id="path59"
       d="M -2.55046,3.11095 C -2.0845,1.24435 -1.04614,0.36295 0,0 -1.04614,-0.36295 -2.0845,-1.24435 -2.55046,-3.11095"
       style="fill:none;stroke:#fdde2a;stroke-width:0.79701;stroke-linecap:round;stroke-linejoin:round;stroke-miterlimit:10;stroke-dasharray:none;stroke-opacity:1"
       transform="matrix(1.19248,0.59629333,0.59629333,-1.19248,74.5848,269.00053)" />
  </g>
</svg>
