<?xml version="1.0" encoding="UTF-8" standalone="no"?>
<!-- Created with Inkscape (http://www.inkscape.org/) -->

<svg
   version="1.1"
   id="svg1"
   width="52.655998"
   height="55.210667"
   viewBox="0 0 52.655998 55.210667"
   xmlns="http://www.w3.org/2000/svg"
   xmlns:svg="http://www.w3.org/2000/svg">
  <defs
     id="defs1" />
  <g
     id="g1">
    <path
       id="path1"
       d="m 2.9306797,-6.3747891 c 0,-0.234375 0,-0.2578125 -0.234375,-0.2578125 -0.609375,0.6328125 -1.4882813,0.6328125 -1.80468751,0.6328125 v 0.3164063 c 0.19921871,0 0.78515621,0 1.30078121,-0.2578125 v 5.15624999 c 0,0.3515625 -0.035156,0.48046875 -0.9257812,0.48046875 H 0.95021094 V 2.109375e-4 C 1.3017734,-0.03494531 2.1572422,-0.03494531 2.5556797,-0.03494531 c 0.3984375,0 1.265625,0 1.6171875,0.0351562475 V -0.30447656 H 3.8564609 c -0.9023437,0 -0.9257812,-0.1171875 -0.9257812,-0.48046875 z m 0,0"
       style="fill:#ffffff;fill-opacity:1;fill-rule:nonzero;stroke:none"
       aria-label="1"
       transform="matrix(1.3333333,0,0,1.3333333,25.221333,12.988)" />
    <path
       id="path2"
       d="M 1.2650781,-0.76159375 2.3197656,-1.7928438 c 1.5585938,-1.3710937 2.15625,-1.9101562 2.15625,-2.90625 0,-1.1367187 -0.9023437,-1.9335937 -2.1210937,-1.9335937 -1.125,0 -1.85156252,0.9140625 -1.85156252,1.8046875 0,0.5507812 0.4921875,0.5507812 0.52734372,0.5507812 0.1640625,0 0.515625,-0.1171875 0.515625,-0.5273437 0,-0.2578125 -0.1875,-0.515625 -0.5273437,-0.515625 -0.0820313,0 -0.10546877,0 -0.12890627,0.011719 C 1.1127344,-5.953 1.6517969,-6.328 2.2260156,-6.328 c 0.9140625,0 1.3359375,0.8085937 1.3359375,1.6289062 0,0.796875 -0.4921875,1.5820313 -1.0429687,2.203125 L 0.60882813,-0.36315625 C 0.50335938,-0.2576875 0.50335938,-0.23425 0.50335938,1.25e-4 H 4.1947656 l 0.28125,-1.734375 H 4.2182031 c -0.046875,0.3046875 -0.1171875,0.73828125 -0.2109375,0.890625 -0.070312,0.0820313 -0.7265625,0.0820313 -0.9492187,0.0820313 z m 0,0"
       style="fill:#ffffff;fill-opacity:1;fill-rule:nonzero;stroke:none"
       aria-label="2"
       transform="matrix(1.3333333,0,0,1.3333333,41.586667,22.437333)" />
    <path
       id="path3"
       d="m 2.8939844,-3.5029531 c 0.8085937,-0.2695313 1.3945312,-0.9726563 1.3945312,-1.7578125 0,-0.8203125 -0.8789062,-1.3710938 -1.8398437,-1.3710938 -1.0078125,0 -1.75781252,0.5976563 -1.75781252,1.3476563 0,0.3398437 0.2109375,0.5273437 0.50390622,0.5273437 0.3046875,0 0.5039063,-0.2226562 0.5039063,-0.515625 0,-0.4921875 -0.46875,-0.4921875 -0.609375,-0.4921875 0.3046875,-0.4921875 0.9609375,-0.6210937 1.3242187,-0.6210937 0.4101563,0 0.9492188,0.2226562 0.9492188,1.1132812 0,0.1289063 -0.011719,0.703125 -0.2695313,1.1367188 -0.3046875,0.4804687 -0.6445312,0.515625 -0.890625,0.515625 -0.082031,0.011719 -0.3164062,0.035156 -0.3867187,0.035156 -0.082031,0.011719 -0.1523438,0.023437 -0.1523438,0.1171875 0,0.1171875 0.070312,0.1171875 0.234375,0.1171875 h 0.4453125 c 0.8085938,0 1.1835938,0.6679688 1.1835938,1.6523438 0,1.34765623 -0.6914063,1.64062498 -1.125,1.64062498 -0.4335938,0 -1.171875,-0.17578125 -1.52343752,-0.76171875 0.35156252,0.0585938 0.65625002,-0.1640625 0.65625002,-0.53906253 0,-0.3632812 -0.2695313,-0.5625 -0.56250002,-0.5625 -0.234375,0 -0.55078125,0.140625 -0.55078125,0.5742188 0,0.91406248 0.92578127,1.57031248 2.00390627,1.57031248 1.21875,0 2.1210937,-0.9140625 2.1210937,-1.92187498 0,-0.8203125 -0.6210937,-1.59375 -1.6523437,-1.8046873 z m 0,0"
       style="fill:#ffffff;fill-opacity:1;fill-rule:nonzero;stroke:none"
       aria-label="3"
       transform="matrix(1.3333333,0,0,1.3333333,41.586667,41.334667)" />
    <path
       id="path4"
       d="M 2.9306797,-1.6416875 V -0.7745 c 0,0.3515625 -0.023437,0.46875 -0.7617188,0.46875 H 1.9580234 v 0.3046875 c 0.4101563,-0.03515625 0.9375,-0.03515625 1.3476563,-0.03515625 0.421875,0 0.9492187,0 1.359375,0.03515625 V -0.30575 H 4.4541172 c -0.7382813,0 -0.7617188,-0.1171875 -0.7617188,-0.46875 V -1.6416875 H 4.6884922 V -1.9580937 H 3.6923984 v -4.5234375 c 0,-0.1992188 0,-0.2578125 -0.1523437,-0.2578125 -0.09375,0 -0.1171875,0 -0.1992188,0.1171875 l -3.05859371,4.6640625 v 0.3164062 z m 0.058594,-0.3164062 H 0.56349219 L 2.9892734,-5.6729375 Z m 0,0"
       style="fill:#ffffff;fill-opacity:1;fill-rule:nonzero;stroke:none"
       aria-label="4"
       transform="matrix(1.3333333,0,0,1.3333333,25.221333,50.782667)" />
    <path
       id="path5"
       d="m 4.4771641,-2.0029531 c 0,-1.1835938 -0.8203125,-2.1796875 -1.8984375,-2.1796875 -0.4804688,0 -0.9023438,0.1640625 -1.265625,0.5039062 v -1.9335937 c 0.1992187,0.058594 0.5273437,0.1289062 0.84375,0.1289062 1.2304687,0 1.9335937,-0.9140625 1.9335937,-1.0429687 0,-0.058594 -0.035156,-0.1054688 -0.1054687,-0.1054688 -0.011719,0 -0.035156,0 -0.082031,0.023437 -0.1992187,0.09375 -0.6796875,0.2929688 -1.3476562,0.2929688 -0.3984375,0 -0.8554688,-0.070312 -1.3242188,-0.28125 -0.082031,-0.023437 -0.1054687,-0.023437 -0.1289062,-0.023437 -0.09375,0 -0.09375,0.082031 -0.09375,0.234375 v 2.953125 c 0,0.1757812 0,0.2578125 0.140625,0.2578125 0.070312,0 0.082031,-0.035156 0.1289062,-0.09375 0.1054688,-0.1523438 0.4804688,-0.6914063 1.2773438,-0.6914063 0.5273437,0 0.7734375,0.4570313 0.8554687,0.6328125 0.1523438,0.375 0.1757813,0.7617188 0.1757813,1.2539063 0,0.3515625 0,0.9492187 -0.234375,1.37109373 -0.2460938,0.38671875 -0.609375,0.64453125 -1.0664063,0.64453125 -0.7265625,0 -1.30078124,-0.52734375 -1.46484374,-1.11328128 0.0234375,0.011719 0.0585938,0.011719 0.1640625,0.011719 0.32812504,0 0.50390624,-0.2460938 0.50390624,-0.4804688 0,-0.2460937 -0.1757812,-0.4921875 -0.50390624,-0.4921875 -0.140625,0 -0.48046875,0.070312 -0.48046875,0.5273438 0,0.85546873 0.67968749,1.82812498 1.79296879,1.82812498 1.1601562,0 2.1796875,-0.9609375 2.1796872,-2.22656268 z m 0,0"
       style="fill:#ffffff;fill-opacity:1;fill-rule:nonzero;stroke:none"
       aria-label="5"
       transform="matrix(1.3333333,0,0,1.3333333,8.8546667,41.334667)" />
    <path
       id="path6"
       d="m 1.3131016,-3.2694063 v -0.234375 c 0,-2.5195312 1.2421875,-2.8828125 1.7460937,-2.8828125 0.234375,0 0.65625,0.058594 0.8789063,0.3984375 -0.1523438,0 -0.5507813,0 -0.5507813,0.4453125 0,0.3164063 0.234375,0.4570313 0.4570313,0.4570313 0.1640625,0 0.4570312,-0.082031 0.4570312,-0.46875 0,-0.5976563 -0.4335937,-1.078125 -1.265625,-1.078125 -1.2773437,0 -2.61328124,1.2890625 -2.61328124,3.4804687 0,2.6601563 1.14843754,3.37500005 2.07421874,3.37500005 1.1132813,0 2.0507813,-0.9375 2.0507813,-2.25000005 0,-1.265625 -0.8789063,-2.2265625 -1.9921875,-2.2265625 -0.6679688,0 -1.0429688,0.5039063 -1.2421875,0.984375 z m 1.1835937,3.21093755 c -0.6210937,0 -0.9257812,-0.59765625 -0.984375,-0.75 C 1.3365391,-1.2772188 1.3365391,-2.0740938 1.3365391,-2.249875 c 0,-0.7734375 0.3164062,-1.7695313 1.21875,-1.7695313 0.1523437,0 0.609375,0 0.9257812,0.609375 0.1757813,0.375 0.1757813,0.8789063 0.1757813,1.3710938 0,0.4804687 0,0.9726562 -0.1640625,1.3359375 -0.3046875,0.59765625 -0.7617188,0.64453125 -0.9960938,0.64453125 z m 0,0"
       style="fill:#ffffff;fill-opacity:1;fill-rule:nonzero;stroke:none"
       aria-label="6"
       transform="matrix(1.3333333,0,0,1.3333333,8.8546667,22.437333)" />
    <path
       id="path7"
       d="M 0,14.17339 12.27454,7.08669 V -7.08669 L 0,-14.17339 -12.27454,-7.08669 V 7.08669 Z"
       style="fill:none;stroke:#ffffff;stroke-width:0.3985;stroke-linecap:butt;stroke-linejoin:miter;stroke-miterlimit:10;stroke-dasharray:none;stroke-opacity:1"
       transform="matrix(1.3333333,0,0,-1.3333333,28.541333,27.605333)" />
    <path
       id="path8"
       d="M 0,14.17339 12.27454,-7.08669"
       style="fill:none;stroke:#ffffff;stroke-width:0.3985;stroke-linecap:butt;stroke-linejoin:miter;stroke-miterlimit:10;stroke-dasharray:none;stroke-opacity:1"
       transform="matrix(1.3333333,0,0,-1.3333333,28.541333,27.605333)" />
    <path
       id="path9"
       d="M 12.27454,-7.08669 H -12.27454"
       style="fill:none;stroke:#ffffff;stroke-width:0.3985;stroke-linecap:butt;stroke-linejoin:miter;stroke-miterlimit:10;stroke-dasharray:none;stroke-opacity:1"
       transform="matrix(1.3333333,0,0,-1.3333333,28.541333,27.605333)" />
    <path
       id="path10"
       d="M 0,14.17339 -12.27454,-7.08669"
       style="fill:none;stroke:#ffffff;stroke-width:0.3985;stroke-linecap:butt;stroke-linejoin:miter;stroke-miterlimit:10;stroke-dasharray:none;stroke-opacity:1"
       transform="matrix(1.3333333,0,0,-1.3333333,28.541333,27.605333)" />
  </g>
</svg>
