<?xml version="1.0" encoding="UTF-8" standalone="no"?>
<!-- Created with Inkscape (http://www.inkscape.org/) -->

<svg
   version="1.1"
   id="svg1"
   width="89.017334"
   height="89.739998"
   viewBox="0 0 89.017334 89.739998"
   xmlns="http://www.w3.org/2000/svg"
   xmlns:svg="http://www.w3.org/2000/svg">
  <defs
     id="defs1" />
  <g
     id="g1">
    <path
       id="path1"
       d="m 4.6963,28.3468 c 0,2.59374 -2.10258,4.69632 -4.6963,4.69632 -2.59372,0 -4.6963,-2.10258 -4.6963,-4.69632 0,-2.59373 2.10258,-4.69632 4.6963,-4.69632 2.59372,0 4.6963,2.10259 4.6963,4.69632 z"
       style="fill:#ffffff;fill-opacity:1;fill-rule:nonzero;stroke:#ffffff;stroke-width:0.3985;stroke-linecap:butt;stroke-linejoin:miter;stroke-miterlimit:10;stroke-dasharray:none;stroke-opacity:1"
       transform="matrix(1.3333333,0,0,-1.3333333,43.901333,44.322667)" />
    <path
       id="path2"
       d="m -22.26334,8.75974 c 0,2.59373 -2.10258,4.69631 -4.69632,4.69631 -2.59373,0 -4.69632,-2.10258 -4.69632,-4.69631 0,-2.59374 2.10259,-4.69632 4.69632,-4.69632 2.59374,0 4.69632,2.10258 4.69632,4.69632 z"
       style="fill:#ffffff;fill-opacity:1;fill-rule:nonzero;stroke:#ffffff;stroke-width:0.3985;stroke-linecap:butt;stroke-linejoin:miter;stroke-miterlimit:10;stroke-dasharray:none;stroke-opacity:1"
       transform="matrix(1.3333333,0,0,-1.3333333,43.901333,44.322667)" />
    <path
       id="path3"
       d="m -11.96547,-22.93315 c 0,2.59373 -2.10258,4.69632 -4.69632,4.69632 -2.59373,0 -4.69632,-2.10259 -4.69632,-4.69632 0,-2.59374 2.10259,-4.69632 4.69632,-4.69632 2.59374,0 4.69632,2.10258 4.69632,4.69632 z"
       style="fill:#ffffff;fill-opacity:1;fill-rule:nonzero;stroke:#ffffff;stroke-width:0.3985;stroke-linecap:butt;stroke-linejoin:miter;stroke-miterlimit:10;stroke-dasharray:none;stroke-opacity:1"
       transform="matrix(1.3333333,0,0,-1.3333333,43.901333,44.322667)" />
    <path
       id="path4"
       d="m 21.35811,-22.93315 c 0,2.59373 -2.10259,4.69632 -4.69632,4.69632 -2.59374,0 -4.69632,-2.10259 -4.69632,-4.69632 0,-2.59374 2.10258,-4.69632 4.69632,-4.69632 2.59373,0 4.69632,2.10258 4.69632,4.69632 z"
       style="fill:#ffffff;fill-opacity:1;fill-rule:nonzero;stroke:#ffffff;stroke-width:0.3985;stroke-linecap:butt;stroke-linejoin:miter;stroke-miterlimit:10;stroke-dasharray:none;stroke-opacity:1"
       transform="matrix(1.3333333,0,0,-1.3333333,43.901333,44.322667)" />
    <path
       id="path5"
       d="m 31.65598,8.75974 c 0,2.59373 -2.10259,4.69631 -4.69632,4.69631 -2.59374,0 -4.69632,-2.10258 -4.69632,-4.69631 0,-2.59374 2.10258,-4.69632 4.69632,-4.69632 2.59373,0 4.69632,2.10258 4.69632,4.69632 z"
       style="fill:#ffffff;fill-opacity:1;fill-rule:nonzero;stroke:#ffffff;stroke-width:0.3985;stroke-linecap:butt;stroke-linejoin:miter;stroke-miterlimit:10;stroke-dasharray:none;stroke-opacity:1"
       transform="matrix(1.3333333,0,0,-1.3333333,43.901333,44.322667)" />
    <path
       id="path6"
       d="M -3.9606,25.46935 -22.99904,11.63719"
       style="fill:none;stroke:#ffffff;stroke-width:0.3985;stroke-linecap:butt;stroke-linejoin:miter;stroke-miterlimit:10;stroke-dasharray:none;stroke-opacity:1"
       transform="matrix(1.3333333,0,0,-1.3333333,43.901333,44.322667)" />
    <path
       id="path7"
       d="m 3.7149766,-3.7608203 c -0.1757813,-0.375 -0.46875,-0.6445313 -0.9140625,-0.6445313 -1.171875,0 -2.40234379,1.4648438 -2.40234379,2.9179688 0,0.93749999 0.55078125,1.59374999 1.32421879,1.59374999 0.1992187,0 0.703125,-0.03515625 1.3007812,-0.73828125 0.070312,0.41015625 0.421875,0.73828125 0.9023438,0.73828125 0.3515625,0 0.5742187,-0.22265625 0.7382812,-0.5390625 0.1640625,-0.36328125 0.2929688,-0.97265629 0.2929688,-0.99609379 0,-0.09375 -0.082031,-0.09375 -0.1171875,-0.09375 -0.09375,0 -0.1054688,0.035156 -0.140625,0.1757813 -0.1640625,0.64453124 -0.3515625,1.24218749 -0.75,1.24218749 -0.2695313,0 -0.3046875,-0.2578125 -0.3046875,-0.45703125 0,-0.22265625 0.023437,-0.3046875 0.1289062,-0.73828124 0.1171875,-0.421875 0.1289063,-0.5273438 0.2226563,-0.9023438 l 0.3515625,-1.3945312 c 0.070312,-0.28125 0.070312,-0.2929688 0.070312,-0.3398438 0,-0.1640625 -0.1171875,-0.2695312 -0.28125,-0.2695312 -0.2460938,0 -0.3867188,0.2226562 -0.4218745,0.4453125 z m -0.6445313,2.578125 c -0.046875,0.1757812 -0.046875,0.19921874 -0.1992187,0.36328124 -0.4453125,0.55078125 -0.84375,0.71484375 -1.125,0.71484375 -0.5039063,0 -0.6445313,-0.55078125 -0.6445313,-0.93749999 0,-0.5039063 0.328125,-1.7226563 0.5507813,-2.1796875 0.3046875,-0.5976563 0.7617187,-0.9609375 1.1601562,-0.9609375 0.6445313,0 0.7851563,0.8203125 0.7851563,0.8789062 0,0.058594 -0.023437,0.1171875 -0.035156,0.1640625 z m 0,0"
       style="fill:#ffffff;fill-opacity:1;fill-rule:nonzero;stroke:none"
       aria-label="a"
       transform="matrix(1.3333333,0,0,1.3333333,14.214667,14.893333)" />
    <path
       id="path8"
       d="m -25.4469,4.1038 7.27237,-22.38102"
       style="fill:none;stroke:#ffffff;stroke-width:0.3985;stroke-linecap:butt;stroke-linejoin:miter;stroke-miterlimit:10;stroke-dasharray:none;stroke-opacity:1"
       transform="matrix(1.3333333,0,0,-1.3333333,43.901333,44.322667)" />
    <path
       id="path9"
       d="m 2.3782422,-6.8099687 c 0,0 0,-0.1054688 -0.1289063,-0.1054688 -0.2226562,0 -0.9492187,0.082031 -1.21875,0.1054688 -0.0703125,0 -0.18749996,0.011719 -0.18749996,0.1992187 0,0.1171875 0.09375,0.1171875 0.24609376,0.1171875 0.46875,0 0.4921875,0.070312 0.4921875,0.1640625 0,0.070312 -0.082031,0.4101563 -0.140625,0.6210938 l -0.80859376,3.2460937 c -0.12890625,0.5039063 -0.1640625,0.65625 -0.1640625,1.0078125 0,0.94921875 0.52734375,1.55859375 1.26562496,1.55859375 1.171875,0 2.4023438,-1.47656245 2.4023438,-2.91796875 0,-0.9023437 -0.5273438,-1.59375 -1.3242188,-1.59375 -0.4570312,0 -0.8671875,0.2929688 -1.171875,0.5976563 z m -0.9375,3.7734375 c 0.058594,-0.2226563 0.058594,-0.2460938 0.1523437,-0.3515625 0.4921875,-0.6445313 0.9375,-0.796875 1.1953125,-0.796875 0.3632813,0 0.6328125,0.2929687 0.6328125,0.9375 0,0.5859375 -0.328125,1.734375 -0.515625,2.109375 -0.328125,0.6679687 -0.7851562,1.03124995 -1.171875,1.03124995 -0.3398437,0 -0.6679687,-0.26953125 -0.6679687,-1.00781245 0,-0.1875 0,-0.3867188 0.1640625,-1.0078125 z m 0,0"
       style="fill:#ffffff;fill-opacity:1;fill-rule:nonzero;stroke:none"
       aria-label="b"
       transform="matrix(1.3333333,0,0,1.3333333,4.4266667,67.689333)" />
    <path
       id="path10"
       d="M -11.76622,-22.93315 H 11.76622"
       style="fill:none;stroke:#ffffff;stroke-width:0.3985;stroke-linecap:butt;stroke-linejoin:miter;stroke-miterlimit:10;stroke-dasharray:none;stroke-opacity:1"
       transform="matrix(1.3333333,0,0,-1.3333333,43.901333,44.322667)" />
    <path
       id="path11"
       d="m 3.9487266,-3.7847812 c -0.1640625,0 -0.3046875,0 -0.4453125,0.140625 -0.1523438,0.1523437 -0.1757813,0.3164062 -0.1757813,0.3867187 0,0.234375 0.1757813,0.3515625 0.3632813,0.3515625 0.2929687,0 0.5625,-0.2460937 0.5625,-0.6445312 0,-0.4804688 -0.46875,-0.8554688 -1.171875,-0.8554688 -1.3476563,0 -2.67187504,1.4296875 -2.67187504,2.8359375 0,0.890625 0.57421875,1.67578125 1.61718754,1.67578125 1.4179687,0 2.2617187,-1.0546875 2.2617187,-1.17187495 0,-0.058594 -0.070312,-0.1289063 -0.1289062,-0.1289063 -0.046875,0 -0.070312,0.023437 -0.1289063,0.09375 -0.7851562,0.99609375 -1.875,0.99609375 -1.9921875,0.99609375 -0.6210937,0 -0.890625,-0.4921875 -0.890625,-1.08984375 0,-0.4101562 0.1992188,-1.3710937 0.5390625,-1.9921875 0.3046875,-0.5625 0.8554688,-0.9960937 1.40625,-0.9960937 0.328125,0 0.7148438,0.1289062 0.8554688,0.3984375 z m 0,0"
       style="fill:#ffffff;fill-opacity:1;fill-rule:nonzero;stroke:none"
       aria-label="c"
       transform="matrix(1.3333333,0,0,1.3333333,41.028,85.312)" />
    <path
       id="path12"
       d="M 18.17453,-18.27722 25.4469,4.1038"
       style="fill:none;stroke:#ffffff;stroke-width:0.3985;stroke-linecap:butt;stroke-linejoin:miter;stroke-miterlimit:10;stroke-dasharray:none;stroke-opacity:1"
       transform="matrix(1.3333333,0,0,-1.3333333,43.901333,44.322667)" />
    <path
       id="path13"
       d="m 5.1443672,-6.8099687 c 0,0 0,-0.1054688 -0.1289063,-0.1054688 -0.1523437,0 -1.1015625,0.09375 -1.265625,0.1054688 -0.082031,0.011719 -0.140625,0.070312 -0.140625,0.1992187 0,0.1171875 0.082031,0.1171875 0.234375,0.1171875 0.4804688,0 0.5039063,0.070312 0.5039063,0.1640625 L 4.3123362,-6.1302812 3.71468,-3.7630937 c -0.1757813,-0.375 -0.46875,-0.6445313 -0.9140625,-0.6445313 -1.171875,0 -2.40234376,1.4648438 -2.40234376,2.9179688 0,0.93749995 0.55078125,1.59374995 1.32421876,1.59374995 0.1992187,0 0.703125,-0.03515625 1.3007812,-0.73828125 0.070312,0.41015625 0.421875,0.73828125 0.9023438,0.73828125 0.3515625,0 0.5742187,-0.22265625 0.7382812,-0.5390625 C 4.8279609,-0.79825 4.9568672,-1.407625 4.9568672,-1.4310625 c 0,-0.09375 -0.082031,-0.09375 -0.1171875,-0.09375 -0.09375,0 -0.1054688,0.035156 -0.140625,0.1757813 -0.1640625,0.6445312 -0.3515625,1.24218745 -0.75,1.24218745 -0.2695313,0 -0.3046875,-0.2578125 -0.3046875,-0.45703125 0,-0.24609375 0.023437,-0.31640625 0.058594,-0.4804687 z m -2.0742188,5.625 c -0.046875,0.1757812 -0.046875,0.1992187 -0.1992187,0.3632812 -0.4453125,0.55078125 -0.84375,0.71484375 -1.125,0.71484375 -0.5039063,0 -0.6445313,-0.55078125 -0.6445313,-0.93749995 0,-0.5039063 0.328125,-1.7226563 0.5507813,-2.1796875 0.3046875,-0.5976563 0.7617187,-0.9609375 1.1601562,-0.9609375 0.6445313,0 0.7851563,0.8203125 0.7851563,0.8789062 0,0.058594 -0.023437,0.1171875 -0.035156,0.1640625 z m 0,0"
       style="fill:#ffffff;fill-opacity:1;fill-rule:nonzero;stroke:none"
       aria-label="d"
       transform="matrix(1.3333333,0,0,1.3333333,77.676,67.689333)" />
    <path
       id="path14"
       d="M 22.99904,11.63719 3.9606,25.46935"
       style="fill:none;stroke:#ffffff;stroke-width:0.3985;stroke-linecap:butt;stroke-linejoin:miter;stroke-miterlimit:10;stroke-dasharray:none;stroke-opacity:1"
       transform="matrix(1.3333333,0,0,-1.3333333,43.901333,44.322667)" />
    <path
       id="path15"
       d="m 1.8620859,-2.2979062 c 0.2929688,0 1.03125,-0.023437 1.5234375,-0.234375 0.703125,-0.2929688 0.75,-0.890625 0.75,-1.0195313 0,-0.4453125 -0.3867187,-0.8554687 -1.0664062,-0.8554687 -1.1132813,0 -2.61328126,0.9726562 -2.61328126,2.7070312 0,1.01953125 0.58593746,1.8046875 1.57031246,1.8046875 1.4179688,0 2.2617188,-1.0546875 2.2617188,-1.171875 0,-0.058594 -0.070312,-0.1289062 -0.1289063,-0.1289062 -0.046875,0 -0.070312,0.023437 -0.1289062,0.09375 C 3.2448984,-0.1065 2.1550547,-0.1065 2.0378672,-0.1065 c -0.7734375,0 -0.8671875,-0.84375 -0.8671875,-1.1601562 0,-0.1171875 0.011719,-0.4335938 0.1640625,-1.03125 z m -0.46875,-0.2226563 c 0.3867188,-1.5117187 1.4179688,-1.6640625 1.6757813,-1.6640625 0.46875,0 0.7382812,0.2929688 0.7382812,0.6328125 0,1.03125 -1.59375,1.03125 -2.0039062,1.03125 z m 0,0"
       style="fill:#ffffff;fill-opacity:1;fill-rule:nonzero;stroke:none"
       aria-label="e"
       transform="matrix(1.3333333,0,0,1.3333333,66.568,14.892)" />
    <path
       id="path16"
       d="M -1.51274,23.69087 -15.14903,-18.27722"
       style="fill:none;stroke:#ffffff;stroke-width:0.3985;stroke-linecap:butt;stroke-linejoin:miter;stroke-miterlimit:10;stroke-dasharray:none;stroke-opacity:1"
       transform="matrix(1.3333333,0,0,-1.3333333,43.901333,44.322667)" />
    <path
       id="path17"
       d="m 3.6562266,-3.9840078 h 0.8554687 c 0.1992188,0 0.3046875,0 0.3046875,-0.1992188 0,-0.1054687 -0.1054687,-0.1054687 -0.2695312,-0.1054687 H 3.7148203 l 0.2109375,-1.1367188 c 0.035156,-0.2109375 0.1757813,-0.9140625 0.234375,-1.0429687 0.09375,-0.1875 0.2578125,-0.3398438 0.46875,-0.3398438 0.046875,0 0.3046875,0 0.4921875,0.1875 -0.4335937,0.035156 -0.5390625,0.3867188 -0.5390625,0.5390625 0,0.2226563 0.1757813,0.3398438 0.3632813,0.3398438 0.2695312,0 0.5507812,-0.2109375 0.5507812,-0.5976563 0,-0.4570312 -0.4570312,-0.6796875 -0.8671875,-0.6796875 -0.3398437,0 -0.9609375,0.1757813 -1.265625,1.1601563 -0.058594,0.2109375 -0.082031,0.3164062 -0.328125,1.5703125 H 2.3554453 c -0.1992187,0 -0.3046875,0 -0.3046875,0.1875 0,0.1171875 0.09375,0.1171875 0.28125,0.1171875 h 0.65625 l -0.75,3.93749999 C 2.0624766,0.91442969 1.8984141,1.8284922 1.3710703,1.8284922 c -0.035156,0 -0.28125,0 -0.46874999,-0.1875 C 1.3593516,1.6175547 1.4413828,1.2542734 1.4413828,1.1019297 c 0,-0.22265626 -0.1757812,-0.33984376 -0.3632812,-0.33984376 -0.25781254,0 -0.55078129,0.2109375 -0.55078129,0.59765626 0,0.4453125 0.43359375,0.6796875 0.84374999,0.6796875 0.5507813,0 0.9492188,-0.5859375 1.125,-0.9609375 0.328125,-0.63281251 0.5507813,-1.83984376 0.5625,-1.91015626 z m 0,0"
       style="fill:#ffffff;fill-opacity:1;fill-rule:nonzero;stroke:none"
       aria-label="f"
       transform="matrix(1.3333333,0,0,1.3333333,20.168,44.034667)" />
    <path
       id="path18"
       d="M 1.51274,23.69087 15.14903,-18.27722"
       style="fill:none;stroke:#ffffff;stroke-width:0.3985;stroke-linecap:butt;stroke-linejoin:miter;stroke-miterlimit:10;stroke-dasharray:none;stroke-opacity:1"
       transform="matrix(1.3333333,0,0,-1.3333333,43.901333,44.322667)" />
    <path
       id="path19"
       d="M 4.6878437,-3.7510625 C 4.6995625,-3.821375 4.723,-3.86825 4.723,-3.9385625 c 0,-0.1640625 -0.1171875,-0.2695312 -0.2929688,-0.2695312 -0.09375,0 -0.3632812,0.070312 -0.4101562,0.4335937 -0.1757813,-0.375 -0.5273438,-0.6328125 -0.9257813,-0.6328125 -1.1367187,0 -2.36718745,1.3945313 -2.36718745,2.8359375 0,0.984375 0.60937495,1.5703125 1.32421875,1.5703125 0.5859375,0 1.0546875,-0.46875 1.1601562,-0.57421875 L 3.223,-0.5635625 C 3.0120625,0.31534375 2.894875,0.7255 2.894875,0.7489375 2.848,0.83096875 2.5081562,1.8270625 1.4534687,1.8270625 c -0.1875,0 -0.51562495,-0.011719 -0.79687495,-0.1054687 C 0.96128125,1.6278438 1.06675,1.3700313 1.06675,1.2059688 c 0,-0.1640625 -0.10546875,-0.35156255 -0.375,-0.35156255 -0.22265625,0 -0.5390625,0.17578125 -0.5390625,0.57421875 0,0.4101563 0.36328125,0.609375 1.3242187,0.609375 1.2421875,0 1.9570313,-0.7734375 2.109375,-1.37109375 z m -1.2890625,2.4726563 c -0.058594,0.2578125 -0.2929687,0.51562495 -0.5039062,0.70312495 -0.2109375,0.17578125 -0.5273438,0.3515625 -0.8085938,0.3515625 -0.5039062,0 -0.65625,-0.515625 -0.65625,-0.91406245 0,-0.4804688 0.2929688,-1.6523438 0.5625,-2.15625 0.2695313,-0.4921875 0.703125,-0.890625 1.1132813,-0.890625 0.65625,0 0.796875,0.8085937 0.796875,0.8554687 0,0.046875 -0.011719,0.1054688 -0.023437,0.1523438 z m 0,0"
       style="fill:#ffffff;fill-opacity:1;fill-rule:nonzero;stroke:none"
       aria-label="g"
       transform="matrix(1.3333333,0,0,1.3333333,59.702667,42.282667)" />
  </g>
</svg>
