<?xml version="1.0" encoding="UTF-8" standalone="no"?>
<!-- Created with Inkscape (http://www.inkscape.org/) -->

<svg
   version="1.1"
   id="svg1"
   width="90.450668"
   height="319.77734"
   viewBox="0 0 90.450668 319.77734"
   xmlns="http://www.w3.org/2000/svg"
   xmlns:svg="http://www.w3.org/2000/svg">
  <defs
     id="defs1" />
  <g
     id="g1">
    <path
       id="path1"
       d="m 2.9291406,-6.3750703 c 0,-0.234375 0,-0.2578125 -0.234375,-0.2578125 -0.609375,0.6328125 -1.4882812,0.6328125 -1.80468747,0.6328125 v 0.3164062 c 0.19921877,0 0.78515627,0 1.30078127,-0.2578125 v 5.15625004 c 0,0.3515625 -0.035156,0.48046875 -0.9257813,0.48046875 H 0.94867188 V -7.03125e-5 C 1.3002344,-0.03522656 2.1557031,-0.03522656 2.5541406,-0.03522656 c 0.3984375,0 1.265625,0 1.6171875,0.0351562475 V -0.30475781 H 3.8549219 c -0.9023438,0 -0.9257813,-0.1171875 -0.9257813,-0.48046875 z m 0,0"
       style="fill:#ffffff;fill-opacity:1;fill-rule:nonzero;stroke:none"
       aria-label="1"
       transform="matrix(1.3333333,0,0,1.3333333,41.586667,287.004)" />
    <path
       id="path2"
       d="M 1.2666172,-0.76170312 2.3213047,-1.7929531 c 1.5585937,-1.3710938 2.15625,-1.9101563 2.15625,-2.90625 0,-1.1367188 -0.9023438,-1.9335938 -2.1210938,-1.9335938 -1.125,0 -1.85156246,0.9140625 -1.85156246,1.8046875 0,0.5507813 0.4921875,0.5507813 0.52734376,0.5507813 0.1640625,0 0.515625,-0.1171875 0.515625,-0.5273438 0,-0.2578125 -0.1875,-0.515625 -0.5273438,-0.515625 -0.0820312,0 -0.10546871,0 -0.12890621,0.011719 0.22265621,-0.6445313 0.76171871,-1.0195313 1.33593751,-1.0195313 0.9140625,0 1.3359375,0.8085938 1.3359375,1.6289063 0,0.796875 -0.4921875,1.5820312 -1.0429688,2.203125 L 0.61036719,-0.36326562 C 0.50489844,-0.25779687 0.50489844,-0.23435937 0.50489844,1.5625e-5 H 4.1963047 L 4.4775547,-1.7343594 H 4.2197422 c -0.046875,0.3046875 -0.1171875,0.73828128 -0.2109375,0.89062503 -0.070312,0.0820313 -0.7265625,0.0820313 -0.9492188,0.0820313 z m 0,0"
       style="fill:#ffffff;fill-opacity:1;fill-rule:nonzero;stroke:none"
       aria-label="2"
       transform="matrix(1.3333333,0,0,1.3333333,25.221333,277.55467)" />
    <path
       id="path3"
       d="m 2.8951328,-3.5039766 c 0.8085938,-0.2695312 1.3945313,-0.9726562 1.3945313,-1.7578125 0,-0.8203125 -0.8789063,-1.3710937 -1.8398438,-1.3710937 -1.0078125,0 -1.75781249,0.5976562 -1.75781249,1.3476562 0,0.3398438 0.2109375,0.5273438 0.50390629,0.5273438 0.3046875,0 0.5039062,-0.2226563 0.5039062,-0.515625 0,-0.4921875 -0.46875,-0.4921875 -0.609375,-0.4921875 0.3046875,-0.4921875 0.9609375,-0.6210938 1.3242188,-0.6210938 0.4101562,0 0.9492187,0.2226563 0.9492187,1.1132813 0,0.1289062 -0.011719,0.703125 -0.2695312,1.1367187 -0.3046875,0.4804688 -0.6445313,0.515625 -0.890625,0.515625 -0.082031,0.011719 -0.3164063,0.035156 -0.3867188,0.035156 -0.082031,0.011719 -0.1523437,0.023437 -0.1523437,0.1171875 0,0.1171875 0.070312,0.1171875 0.234375,0.1171875 h 0.4453125 c 0.8085937,0 1.1835937,0.6679687 1.1835937,1.6523437 0,1.34765629 -0.6914062,1.64062504 -1.125,1.64062504 -0.4335937,0 -1.171875,-0.17578125 -1.52343749,-0.76171875 0.35156249,0.0585938 0.65624999,-0.1640625 0.65624999,-0.53906249 0,-0.3632813 -0.2695312,-0.5625 -0.56249999,-0.5625 -0.234375,0 -0.55078125,0.140625 -0.55078125,0.5742187 0,0.91406254 0.92578124,1.57031254 2.00390624,1.57031254 1.21875,0 2.1210938,-0.9140625 2.1210938,-1.92187504 0,-0.8203125 -0.6210938,-1.59375 -1.6523438,-1.8046872 z m 0,0"
       style="fill:#ffffff;fill-opacity:1;fill-rule:nonzero;stroke:none"
       aria-label="3"
       transform="matrix(1.3333333,0,0,1.3333333,8.8546667,287.004)" />
    <path
       id="path4"
       d="m 2.9302891,-1.6398672 v 0.86718751 c 0,0.3515625 -0.023437,0.46875 -0.7617188,0.46875 H 1.9576328 V 7.578125e-4 C 2.3677891,-0.03439844 2.8951328,-0.03439844 3.3052891,-0.03439844 c 0.421875,0 0.9492187,0 1.359375,0.0351562525 V -0.30392969 H 4.4537266 c -0.7382813,0 -0.7617188,-0.1171875 -0.7617188,-0.46875 V -1.6398672 H 4.6881016 V -1.9562734 H 3.6920078 v -4.5234375 c 0,-0.1992188 0,-0.2578125 -0.1523437,-0.2578125 -0.09375,0 -0.1171875,0 -0.1992188,0.1171875 l -3.05859374,4.6640625 v 0.3164062 z m 0.058594,-0.3164062 H 0.56310156 L 2.9888828,-5.6711172 Z m 0,0"
       style="fill:#ffffff;fill-opacity:1;fill-rule:nonzero;stroke:none"
       aria-label="4"
       transform="matrix(1.3333333,0,0,1.3333333,8.8546667,305.90133)" />
    <path
       id="path5"
       d="m 4.4775547,-2.0051641 c 0,-1.1835937 -0.8203125,-2.1796875 -1.8984375,-2.1796875 -0.4804688,0 -0.9023438,0.1640625 -1.265625,0.5039063 v -1.9335938 c 0.1992187,0.058594 0.5273437,0.1289063 0.84375,0.1289063 1.2304687,0 1.9335937,-0.9140625 1.9335937,-1.0429688 0,-0.058594 -0.035156,-0.1054687 -0.1054687,-0.1054687 -0.011719,0 -0.035156,0 -0.082031,0.023437 -0.1992187,0.09375 -0.6796875,0.2929687 -1.3476562,0.2929687 -0.3984375,0 -0.8554688,-0.070312 -1.3242188,-0.28125 -0.082031,-0.023437 -0.1054687,-0.023437 -0.1289062,-0.023437 -0.09375,0 -0.09375,0.082031 -0.09375,0.234375 v 2.953125 c 0,0.1757813 0,0.2578125 0.140625,0.2578125 0.070312,0 0.082031,-0.035156 0.1289062,-0.09375 0.1054688,-0.1523437 0.4804688,-0.6914062 1.2773438,-0.6914062 0.5273437,0 0.7734375,0.4570312 0.8554687,0.6328125 0.1523438,0.375 0.1757813,0.7617187 0.1757813,1.2539062 0,0.3515625 0,0.9492188 -0.234375,1.37109379 -0.2460938,0.38671875 -0.609375,0.64453125 -1.0664063,0.64453125 -0.7265625,0 -1.30078121,-0.52734375 -1.46484371,-1.11328124 0.0234375,0.011719 0.0585938,0.011719 0.1640625,0.011719 0.32812501,0 0.50390621,-0.2460937 0.50390621,-0.4804687 0,-0.2460938 -0.1757812,-0.4921875 -0.50390621,-0.4921875 -0.140625,0 -0.48046875,0.070312 -0.48046875,0.5273437 0,0.85546879 0.67968746,1.82812504 1.79296876,1.82812504 1.1601562,0 2.1796875,-0.9609375 2.1796872,-2.22656284 z m 0,0"
       style="fill:#ffffff;fill-opacity:1;fill-rule:nonzero;stroke:none"
       aria-label="5"
       transform="matrix(1.3333333,0,0,1.3333333,25.221333,315.34933)" />
    <path
       id="path6"
       d="m 1.3119531,-3.2687734 v -0.234375 c 0,-2.5195313 1.2421875,-2.8828125 1.7460938,-2.8828125 0.234375,0 0.65625,0.058594 0.8789062,0.3984375 -0.1523437,0 -0.5507812,0 -0.5507812,0.4453125 0,0.3164062 0.234375,0.4570312 0.4570312,0.4570312 0.1640625,0 0.4570313,-0.082031 0.4570313,-0.46875 0,-0.5976562 -0.4335938,-1.078125 -1.265625,-1.078125 -1.2773438,0 -2.61328127,1.2890625 -2.61328127,3.4804688 0,2.66015621 1.14843747,3.37499996 2.07421877,3.37499996 1.1132812,0 2.0507812,-0.9375 2.0507812,-2.24999996 0,-1.265625 -0.8789062,-2.2265625 -1.9921875,-2.2265625 -0.6679687,0 -1.0429687,0.5039062 -1.2421875,0.984375 z m 1.1835938,3.21093746 c -0.6210938,0 -0.9257813,-0.59765625 -0.984375,-0.75 C 1.3353906,-1.2765859 1.3353906,-2.0734609 1.3353906,-2.2492422 c 0,-0.7734375 0.3164063,-1.7695312 1.21875,-1.7695312 0.1523438,0 0.609375,0 0.9257813,0.609375 0.1757812,0.375 0.1757812,0.8789062 0.1757812,1.3710937 0,0.4804688 0,0.9726563 -0.1640625,1.33593751 -0.3046875,0.59765625 -0.7617187,0.64453125 -0.9960937,0.64453125 z m 0,0"
       style="fill:#ffffff;fill-opacity:1;fill-rule:nonzero;stroke:none"
       aria-label="6"
       transform="matrix(1.3333333,0,0,1.3333333,41.586667,305.90133)" />
    <path
       id="path7"
       d="M 12.27454,7.08669 V -7.08669 L 0,-14.17339 -12.27454,-7.08669 V 7.08669 L 0,14.17339 Z"
       style="fill:none;stroke:#ffffff;stroke-width:0.3985;stroke-linecap:butt;stroke-linejoin:miter;stroke-miterlimit:10;stroke-dasharray:none;stroke-opacity:1"
       transform="matrix(1.3333333,0,0,-1.3333333,28.541333,292.172)" />
    <path
       id="path8"
       d="M 12.27454,7.08669 0,-14.17339"
       style="fill:none;stroke:#ffffff;stroke-width:0.3985;stroke-linecap:butt;stroke-linejoin:miter;stroke-miterlimit:10;stroke-dasharray:none;stroke-opacity:1"
       transform="matrix(1.3333333,0,0,-1.3333333,28.541333,292.172)" />
    <path
       id="path9"
       d="M 12.27454,7.08669 -12.27454,-7.08669"
       style="fill:none;stroke:#ffffff;stroke-width:0.3985;stroke-linecap:butt;stroke-linejoin:miter;stroke-miterlimit:10;stroke-dasharray:none;stroke-opacity:1"
       transform="matrix(1.3333333,0,0,-1.3333333,28.541333,292.172)" />
    <path
       id="path10"
       d="M 12.27454,7.08669 H -12.27454"
       style="fill:none;stroke:#ffffff;stroke-width:0.3985;stroke-linecap:butt;stroke-linejoin:miter;stroke-miterlimit:10;stroke-dasharray:none;stroke-opacity:1"
       transform="matrix(1.3333333,0,0,-1.3333333,28.541333,292.172)" />
    <path
       id="path11"
       d="m 2.9297969,-6.3757266 c 0,-0.234375 0,-0.2578125 -0.234375,-0.2578125 -0.609375,0.6328125 -1.4882813,0.6328125 -1.80468752,0.6328125 v 0.3164063 c 0.19921872,0 0.78515622,0 1.30078122,-0.2578125 v 5.15624999 c 0,0.3515625 -0.035156,0.48046875 -0.9257812,0.48046875 H 0.94932813 V -7.265625e-4 C 1.3008906,-0.03588281 2.1563594,-0.03588281 2.5547969,-0.03588281 c 0.3984375,0 1.265625,0 1.6171875,0.0351562475 V -0.30541406 H 3.8555781 c -0.9023437,0 -0.9257812,-0.1171875 -0.9257812,-0.48046875 z m 0,0"
       style="fill:#ffffff;fill-opacity:1;fill-rule:nonzero;stroke:none"
       aria-label="1"
       transform="matrix(1.3333333,0,0,1.3333333,79.382667,249.208)" />
    <path
       id="path12"
       d="M 1.2653438,-0.76042969 2.3200313,-1.7916797 c 1.5585937,-1.3710937 2.15625,-1.9101562 2.15625,-2.90625 0,-1.1367187 -0.9023438,-1.9335937 -2.1210938,-1.9335937 -1.125,0 -1.8515625,0.9140625 -1.8515625,1.8046875 0,0.5507812 0.4921875,0.5507812 0.5273438,0.5507812 0.1640625,0 0.515625,-0.1171875 0.515625,-0.5273437 0,-0.2578125 -0.1875,-0.515625 -0.5273438,-0.515625 -0.0820313,0 -0.10546875,0 -0.12890625,0.011719 C 1.113,-5.9518359 1.6520625,-6.3268359 2.2262813,-6.3268359 c 0.9140625,0 1.3359375,0.8085937 1.3359375,1.6289062 0,0.796875 -0.4921875,1.5820313 -1.0429688,2.203125 L 0.60909375,-0.36199219 C 0.503625,-0.25652344 0.503625,-0.23308594 0.503625,0.00128906 h 3.6914063 l 0.28125,-1.73437496 H 4.2184688 c -0.046875,0.3046875 -0.1171875,0.73828121 -0.2109375,0.89062496 -0.070312,0.0820313 -0.7265625,0.0820313 -0.9492188,0.0820313 z m 0,0"
       style="fill:#ffffff;fill-opacity:1;fill-rule:nonzero;stroke:none"
       aria-label="2"
       transform="matrix(1.3333333,0,0,1.3333333,63.016,239.76)" />
    <path
       id="path13"
       d="m 2.8957891,-3.5046328 c 0.8085937,-0.2695313 1.3945312,-0.9726563 1.3945312,-1.7578125 0,-0.8203125 -0.8789062,-1.3710938 -1.8398437,-1.3710938 -1.0078125,0 -1.75781254,0.5976563 -1.75781254,1.3476563 0,0.3398437 0.2109375,0.5273437 0.50390624,0.5273437 0.3046875,0 0.5039063,-0.2226562 0.5039063,-0.515625 0,-0.4921875 -0.46875,-0.4921875 -0.609375,-0.4921875 0.3046875,-0.4921875 0.9609375,-0.6210937 1.3242187,-0.6210937 0.4101563,0 0.9492188,0.2226562 0.9492188,1.1132812 0,0.1289063 -0.011719,0.703125 -0.2695313,1.1367188 -0.3046875,0.4804687 -0.6445312,0.515625 -0.890625,0.515625 -0.082031,0.011719 -0.3164062,0.035156 -0.3867187,0.035156 -0.082031,0.011719 -0.1523438,0.023437 -0.1523438,0.1171875 0,0.1171875 0.070312,0.1171875 0.234375,0.1171875 h 0.4453125 c 0.8085938,0 1.1835938,0.6679688 1.1835938,1.6523438 0,1.34765624 -0.6914063,1.64062499 -1.125,1.64062499 -0.4335938,0 -1.171875,-0.17578125 -1.52343754,-0.76171875 0.35156254,0.0585938 0.65625004,-0.1640625 0.65625004,-0.53906254 0,-0.3632812 -0.2695313,-0.5625 -0.56250004,-0.5625 -0.234375,0 -0.55078125,0.140625 -0.55078125,0.5742188 0,0.91406249 0.92578129,1.57031249 2.00390629,1.57031249 1.21875,0 2.1210937,-0.9140625 2.1210937,-1.92187499 0,-0.8203125 -0.6210937,-1.59375 -1.6523437,-1.8046873 z m 0,0"
       style="fill:#ffffff;fill-opacity:1;fill-rule:nonzero;stroke:none"
       aria-label="3"
       transform="matrix(1.3333333,0,0,1.3333333,46.650667,249.208)" />
    <path
       id="path14"
       d="m 2.9309453,-1.6405234 v 0.86718746 c 0,0.3515625 -0.023437,0.46875 -0.7617187,0.46875 H 1.9582891 V 1.015625e-4 C 2.3684453,-0.03505469 2.8957891,-0.03505469 3.3059453,-0.03505469 c 0.421875,0 0.9492188,0 1.359375,0.0351562525 V -0.30458594 H 4.4543828 c -0.7382812,0 -0.7617187,-0.1171875 -0.7617187,-0.46875 V -1.6405234 H 4.6887578 V -1.9569297 H 3.6926641 v -4.5234375 c 0,-0.1992187 0,-0.2578125 -0.1523438,-0.2578125 -0.09375,0 -0.1171875,0 -0.1992187,0.1171875 l -3.05859379,4.6640625 v 0.3164063 z m 0.058594,-0.3164063 H 0.56375781 L 2.9895391,-5.6717734 Z m 0,0"
       style="fill:#ffffff;fill-opacity:1;fill-rule:nonzero;stroke:none"
       aria-label="4"
       transform="matrix(1.3333333,0,0,1.3333333,46.650667,268.10533)" />
    <path
       id="path15"
       d="m 4.4762813,-2.0038906 c 0,-1.1835938 -0.8203125,-2.1796875 -1.8984375,-2.1796875 -0.4804688,0 -0.9023438,0.1640625 -1.265625,0.5039062 v -1.9335937 c 0.1992187,0.058594 0.5273437,0.1289062 0.84375,0.1289062 1.2304687,0 1.9335937,-0.9140625 1.9335937,-1.0429687 0,-0.058594 -0.035156,-0.1054688 -0.1054687,-0.1054688 -0.011719,0 -0.035156,0 -0.082031,0.023437 -0.1992187,0.09375 -0.6796875,0.2929688 -1.3476562,0.2929688 -0.3984375,0 -0.8554688,-0.070312 -1.3242188,-0.28125 -0.082031,-0.023437 -0.1054687,-0.023437 -0.1289062,-0.023437 -0.09375,0 -0.09375,0.082031 -0.09375,0.234375 v 2.953125 c 0,0.1757812 0,0.2578125 0.140625,0.2578125 0.070312,0 0.082031,-0.035156 0.1289062,-0.09375 0.1054688,-0.1523438 0.4804688,-0.6914063 1.2773438,-0.6914063 0.5273437,0 0.7734375,0.4570313 0.8554687,0.6328125 0.1523438,0.375 0.1757813,0.7617188 0.1757813,1.2539063 0,0.3515625 0,0.9492187 -0.234375,1.37109373 -0.2460938,0.38671875 -0.609375,0.64453125 -1.0664063,0.64453125 -0.7265625,0 -1.30078125,-0.52734375 -1.46484375,-1.11328128 0.0234375,0.011719 0.0585938,0.011719 0.1640625,0.011719 0.32812505,0 0.50390625,-0.2460938 0.50390625,-0.4804688 0,-0.2460937 -0.1757812,-0.4921875 -0.50390625,-0.4921875 -0.140625,0 -0.48046875,0.070312 -0.48046875,0.5273438 0,0.85546873 0.6796875,1.82812498 1.7929688,1.82812498 1.1601562,0 2.1796875,-0.9609375 2.1796872,-2.22656268 z m 0,0"
       style="fill:#ffffff;fill-opacity:1;fill-rule:nonzero;stroke:none"
       aria-label="5"
       transform="matrix(1.3333333,0,0,1.3333333,63.016,277.55467)" />
    <path
       id="path16"
       d="m 1.3126094,-3.2694297 v -0.234375 c 0,-2.5195312 1.2421875,-2.8828125 1.7460937,-2.8828125 0.234375,0 0.65625,0.058594 0.8789063,0.3984375 -0.1523438,0 -0.5507813,0 -0.5507813,0.4453125 0,0.3164063 0.234375,0.4570313 0.4570313,0.4570313 0.1640625,0 0.4570312,-0.082031 0.4570312,-0.46875 0,-0.5976563 -0.4335937,-1.078125 -1.265625,-1.078125 -1.2773437,0 -2.61328122,1.2890625 -2.61328122,3.4804687 0,2.66015626 1.14843752,3.37500001 2.07421872,3.37500001 1.1132813,0 2.0507813,-0.9375 2.0507813,-2.25000001 0,-1.265625 -0.8789063,-2.2265625 -1.9921875,-2.2265625 -0.6679688,0 -1.0429688,0.5039063 -1.2421875,0.984375 z m 1.1835937,3.21093751 c -0.6210937,0 -0.9257812,-0.59765625 -0.984375,-0.75 C 1.3360469,-1.2772422 1.3360469,-2.0741172 1.3360469,-2.2498984 c 0,-0.7734375 0.3164062,-1.7695313 1.21875,-1.7695313 0.1523437,0 0.609375,0 0.9257812,0.609375 0.1757813,0.375 0.1757813,0.8789063 0.1757813,1.3710938 0,0.4804687 0,0.9726562 -0.1640625,1.33593746 -0.3046875,0.59765625 -0.7617188,0.64453125 -0.9960938,0.64453125 z m 0,0"
       style="fill:#ffffff;fill-opacity:1;fill-rule:nonzero;stroke:none"
       aria-label="6"
       transform="matrix(1.3333333,0,0,1.3333333,79.382667,268.10533)" />
    <path
       id="path17"
       d="M 40.62135,35.43349 V 21.26012 L 28.3468,14.1734 16.07225,21.26012 V 35.43349 L 28.3468,42.5202 Z"
       style="fill:none;stroke:#ffffff;stroke-width:0.3985;stroke-linecap:butt;stroke-linejoin:miter;stroke-miterlimit:10;stroke-dasharray:none;stroke-opacity:1"
       transform="matrix(1.3333333,0,0,-1.3333333,28.541333,292.172)" />
    <path
       id="path18"
       d="M 40.62135,21.26012 H 16.07225"
       style="fill:none;stroke:#ffffff;stroke-width:0.3985;stroke-linecap:butt;stroke-linejoin:miter;stroke-miterlimit:10;stroke-dasharray:none;stroke-opacity:1"
       transform="matrix(1.3333333,0,0,-1.3333333,28.541333,292.172)" />
    <path
       id="path19"
       d="M 40.62135,35.43349 16.07225,21.26012"
       style="fill:none;stroke:#ffffff;stroke-width:0.3985;stroke-linecap:butt;stroke-linejoin:miter;stroke-miterlimit:10;stroke-dasharray:none;stroke-opacity:1"
       transform="matrix(1.3333333,0,0,-1.3333333,28.541333,292.172)" />
    <path
       id="path20"
       d="M 40.62135,35.43349 H 16.07225"
       style="fill:none;stroke:#ffffff;stroke-width:0.3985;stroke-linecap:butt;stroke-linejoin:miter;stroke-miterlimit:10;stroke-dasharray:none;stroke-opacity:1"
       transform="matrix(1.3333333,0,0,-1.3333333,28.541333,292.172)" />
    <path
       id="path21"
       d="m 2.9297969,-6.3744531 c 0,-0.234375 0,-0.2578125 -0.234375,-0.2578125 -0.609375,0.6328125 -1.4882813,0.6328125 -1.80468752,0.6328125 v 0.3164062 c 0.19921872,0 0.78515622,0 1.30078122,-0.2578125 v 5.15625002 c 0,0.3515625 -0.035156,0.48046875 -0.9257812,0.48046875 H 0.94932813 V 5.46875e-4 C 1.3008906,-0.03460938 2.1563594,-0.03460938 2.5547969,-0.03460938 c 0.3984375,0 1.265625,0 1.6171875,0.035156255 V -0.30414063 H 3.8555781 c -0.9023437,0 -0.9257812,-0.1171875 -0.9257812,-0.48046875 z m 0,0"
       style="fill:#ffffff;fill-opacity:1;fill-rule:nonzero;stroke:none"
       aria-label="1"
       transform="matrix(1.3333333,0,0,1.3333333,79.382667,211.41333)" />
    <path
       id="path22"
       d="M 1.2653438,-0.76108594 2.3200313,-1.7923359 c 1.5585937,-1.3710938 2.15625,-1.9101563 2.15625,-2.90625 0,-1.1367188 -0.9023438,-1.9335938 -2.1210938,-1.9335938 -1.125,0 -1.8515625,0.9140625 -1.8515625,1.8046875 0,0.5507813 0.4921875,0.5507813 0.5273438,0.5507813 0.1640625,0 0.515625,-0.1171875 0.515625,-0.5273438 0,-0.2578125 -0.1875,-0.515625 -0.5273438,-0.515625 -0.0820313,0 -0.10546875,0 -0.12890625,0.011719 C 1.113,-5.9524922 1.6520625,-6.3274922 2.2262813,-6.3274922 c 0.9140625,0 1.3359375,0.8085938 1.3359375,1.6289063 0,0.796875 -0.4921875,1.5820312 -1.0429688,2.203125 L 0.60909375,-0.36264844 C 0.503625,-0.25717969 0.503625,-0.23374219 0.503625,6.328125e-4 H 4.1950313 L 4.4762813,-1.7337422 H 4.2184688 c -0.046875,0.3046875 -0.1171875,0.73828126 -0.2109375,0.89062501 -0.070312,0.0820313 -0.7265625,0.0820313 -0.9492188,0.0820313 z m 0,0"
       style="fill:#ffffff;fill-opacity:1;fill-rule:nonzero;stroke:none"
       aria-label="2"
       transform="matrix(1.3333333,0,0,1.3333333,63.016,201.964)" />
    <path
       id="path23"
       d="m 2.8957891,-3.5033594 c 0.8085937,-0.2695312 1.3945312,-0.9726562 1.3945312,-1.7578125 0,-0.8203125 -0.8789062,-1.3710937 -1.8398437,-1.3710937 -1.0078125,0 -1.75781254,0.5976562 -1.75781254,1.3476562 0,0.3398438 0.2109375,0.5273438 0.50390624,0.5273438 0.3046875,0 0.5039063,-0.2226563 0.5039063,-0.515625 0,-0.4921875 -0.46875,-0.4921875 -0.609375,-0.4921875 0.3046875,-0.4921875 0.9609375,-0.6210938 1.3242187,-0.6210938 0.4101563,0 0.9492188,0.2226563 0.9492188,1.1132813 0,0.1289062 -0.011719,0.703125 -0.2695313,1.1367187 -0.3046875,0.4804688 -0.6445312,0.515625 -0.890625,0.515625 -0.082031,0.011719 -0.3164062,0.035156 -0.3867187,0.035156 -0.082031,0.011719 -0.1523438,0.023437 -0.1523438,0.1171875 0,0.1171875 0.070312,0.1171875 0.234375,0.1171875 h 0.4453125 c 0.8085938,0 1.1835938,0.6679687 1.1835938,1.6523437 0,1.34765627 -0.6914063,1.64062502 -1.125,1.64062502 -0.4335938,0 -1.171875,-0.17578125 -1.52343754,-0.76171875 0.35156254,0.0585938 0.65625004,-0.1640625 0.65625004,-0.53906247 0,-0.3632813 -0.2695313,-0.5625 -0.56250004,-0.5625 -0.234375,0 -0.55078125,0.140625 -0.55078125,0.5742187 0,0.91406252 0.92578129,1.57031252 2.00390629,1.57031252 1.21875,0 2.1210937,-0.9140625 2.1210937,-1.92187502 0,-0.8203125 -0.6210937,-1.59375 -1.6523437,-1.8046872 z m 0,0"
       style="fill:#ffffff;fill-opacity:1;fill-rule:nonzero;stroke:none"
       aria-label="3"
       transform="matrix(1.3333333,0,0,1.3333333,46.650667,211.41333)" />
    <path
       id="path24"
       d="m 2.9309453,-1.63925 v 0.8671875 c 0,0.3515625 -0.023437,0.46875 -0.7617187,0.46875 H 1.9582891 V 0.001375 c 0.4101562,-0.03515625 0.9375,-0.03515625 1.3476562,-0.03515625 0.421875,0 0.9492188,0 1.359375,0.03515625 V -0.3033125 H 4.4543828 c -0.7382812,0 -0.7617187,-0.1171875 -0.7617187,-0.46875 V -1.63925 H 4.6887578 V -1.9556563 H 3.6926641 v -4.5234375 c 0,-0.1992187 0,-0.2578125 -0.1523438,-0.2578125 -0.09375,0 -0.1171875,0 -0.1992187,0.1171875 L 0.28250781,-1.9556563 V -1.63925 Z m 0.058594,-0.3164063 H 0.56375781 L 2.9895391,-5.6705 Z m 0,0"
       style="fill:#ffffff;fill-opacity:1;fill-rule:nonzero;stroke:none"
       aria-label="4"
       transform="matrix(1.3333333,0,0,1.3333333,46.650667,230.31067)" />
    <path
       id="path25"
       d="m 4.4762813,-2.0026172 c 0,-1.1835937 -0.8203125,-2.1796875 -1.8984375,-2.1796875 -0.4804688,0 -0.9023438,0.1640625 -1.265625,0.5039063 v -1.9335938 c 0.1992187,0.058594 0.5273437,0.1289063 0.84375,0.1289063 1.2304687,0 1.9335937,-0.9140625 1.9335937,-1.0429688 0,-0.058594 -0.035156,-0.1054687 -0.1054687,-0.1054687 -0.011719,0 -0.035156,0 -0.082031,0.023437 -0.1992187,0.09375 -0.6796875,0.2929687 -1.3476562,0.2929687 -0.3984375,0 -0.8554688,-0.070312 -1.3242188,-0.28125 -0.082031,-0.023437 -0.1054687,-0.023437 -0.1289062,-0.023437 -0.09375,0 -0.09375,0.082031 -0.09375,0.234375 v 2.953125 c 0,0.1757813 0,0.2578125 0.140625,0.2578125 0.070312,0 0.082031,-0.035156 0.1289062,-0.09375 0.1054688,-0.1523437 0.4804688,-0.6914062 1.2773438,-0.6914062 0.5273437,0 0.7734375,0.4570312 0.8554687,0.6328125 0.1523438,0.375 0.1757813,0.7617187 0.1757813,1.2539062 0,0.3515625 0,0.9492188 -0.234375,1.37109376 -0.2460938,0.38671875 -0.609375,0.64453125 -1.0664063,0.64453125 -0.7265625,0 -1.30078125,-0.52734375 -1.46484375,-1.11328121 0.0234375,0.011719 0.0585938,0.011719 0.1640625,0.011719 0.32812505,0 0.50390625,-0.2460937 0.50390625,-0.4804687 0,-0.2460938 -0.1757812,-0.4921875 -0.50390625,-0.4921875 -0.140625,0 -0.48046875,0.070312 -0.48046875,0.5273437 0,0.85546876 0.6796875,1.82812501 1.7929688,1.82812501 1.1601562,0 2.1796875,-0.9609375 2.1796872,-2.22656281 z m 0,0"
       style="fill:#ffffff;fill-opacity:1;fill-rule:nonzero;stroke:none"
       aria-label="5"
       transform="matrix(1.3333333,0,0,1.3333333,63.016,239.76)" />
    <path
       id="path26"
       d="m 1.3126094,-3.2681563 v -0.234375 c 0,-2.5195312 1.2421875,-2.8828125 1.7460937,-2.8828125 0.234375,0 0.65625,0.058594 0.8789063,0.3984375 -0.1523438,0 -0.5507813,0 -0.5507813,0.4453125 0,0.3164063 0.234375,0.4570313 0.4570313,0.4570313 0.1640625,0 0.4570312,-0.082031 0.4570312,-0.46875 0,-0.5976563 -0.4335937,-1.078125 -1.265625,-1.078125 -1.2773437,0 -2.61328122,1.2890625 -2.61328122,3.4804687 0,2.6601563 1.14843752,3.37500005 2.07421872,3.37500005 1.1132813,0 2.0507813,-0.9375 2.0507813,-2.25000005 0,-1.265625 -0.8789063,-2.2265625 -1.9921875,-2.2265625 -0.6679688,0 -1.0429688,0.5039063 -1.2421875,0.984375 z m 1.1835937,3.21093755 c -0.6210937,0 -0.9257812,-0.59765625 -0.984375,-0.75 C 1.3360469,-1.2759688 1.3360469,-2.0728438 1.3360469,-2.248625 c 0,-0.7734375 0.3164062,-1.7695313 1.21875,-1.7695313 0.1523437,0 0.609375,0 0.9257812,0.609375 0.1757813,0.375 0.1757813,0.8789063 0.1757813,1.3710938 0,0.4804687 0,0.9726562 -0.1640625,1.3359375 -0.3046875,0.59765625 -0.7617188,0.64453125 -0.9960938,0.64453125 z m 0,0"
       style="fill:#ffffff;fill-opacity:1;fill-rule:nonzero;stroke:none"
       aria-label="6"
       transform="matrix(1.3333333,0,0,1.3333333,79.382667,230.31067)" />
    <path
       id="path27"
       d="M 40.62135,63.7803 V 49.60692 L 28.3468,42.52022 16.07225,49.60692 V 63.7803 L 28.3468,70.867 Z"
       style="fill:none;stroke:#ffffff;stroke-width:0.3985;stroke-linecap:butt;stroke-linejoin:miter;stroke-miterlimit:10;stroke-dasharray:none;stroke-opacity:1"
       transform="matrix(1.3333333,0,0,-1.3333333,28.541333,292.172)" />
    <path
       id="path28"
       d="M 40.62135,63.7803 28.3468,42.52022"
       style="fill:none;stroke:#ffffff;stroke-width:0.3985;stroke-linecap:butt;stroke-linejoin:miter;stroke-miterlimit:10;stroke-dasharray:none;stroke-opacity:1"
       transform="matrix(1.3333333,0,0,-1.3333333,28.541333,292.172)" />
    <path
       id="path29"
       d="M 28.3468,42.52022 16.07225,63.7803"
       style="fill:none;stroke:#ffffff;stroke-width:0.3985;stroke-linecap:butt;stroke-linejoin:miter;stroke-miterlimit:10;stroke-dasharray:none;stroke-opacity:1"
       transform="matrix(1.3333333,0,0,-1.3333333,28.541333,292.172)" />
    <path
       id="path30"
       d="M 40.62135,63.7803 H 16.07225"
       style="fill:none;stroke:#ffffff;stroke-width:0.3985;stroke-linecap:butt;stroke-linejoin:miter;stroke-miterlimit:10;stroke-dasharray:none;stroke-opacity:1"
       transform="matrix(1.3333333,0,0,-1.3333333,28.541333,292.172)" />
    <path
       id="path31"
       d="m 2.9297969,-6.3751094 c 0,-0.234375 0,-0.2578125 -0.234375,-0.2578125 -0.609375,0.6328125 -1.4882813,0.6328125 -1.80468752,0.6328125 v 0.3164063 c 0.19921872,0 0.78515622,0 1.30078122,-0.2578125 v 5.15624997 c 0,0.3515625 -0.035156,0.48046875 -0.9257812,0.48046875 H 0.94932813 V -1.09375e-4 C 1.3008906,-0.03526563 2.1563594,-0.03526563 2.5547969,-0.03526563 c 0.3984375,0 1.265625,0 1.6171875,0.035156255 V -0.30479688 H 3.8555781 c -0.9023437,0 -0.9257812,-0.1171875 -0.9257812,-0.48046875 z m 0,0"
       style="fill:#ffffff;fill-opacity:1;fill-rule:nonzero;stroke:none"
       aria-label="1"
       transform="matrix(1.3333333,0,0,1.3333333,79.382667,173.61733)" />
    <path
       id="path32"
       d="M 1.2653438,-0.76274219 2.3200313,-1.7939922 c 1.5585937,-1.3710937 2.15625,-1.9101562 2.15625,-2.90625 0,-1.1367187 -0.9023438,-1.9335937 -2.1210938,-1.9335937 -1.125,0 -1.8515625,0.9140625 -1.8515625,1.8046875 0,0.5507812 0.4921875,0.5507812 0.5273438,0.5507812 0.1640625,0 0.515625,-0.1171875 0.515625,-0.5273437 0,-0.2578125 -0.1875,-0.515625 -0.5273438,-0.515625 -0.0820313,0 -0.10546875,0 -0.12890625,0.011719 C 1.113,-5.9541484 1.6520625,-6.3291484 2.2262813,-6.3291484 c 0.9140625,0 1.3359375,0.8085937 1.3359375,1.6289062 0,0.796875 -0.4921875,1.5820313 -1.0429688,2.203125 L 0.60909375,-0.36430469 C 0.503625,-0.25883594 0.503625,-0.23539844 0.503625,-0.00102344 h 3.6914063 l 0.28125,-1.73437496 H 4.2184688 c -0.046875,0.3046875 -0.1171875,0.73828121 -0.2109375,0.89062496 -0.070312,0.0820313 -0.7265625,0.0820313 -0.9492188,0.0820313 z m 0,0"
       style="fill:#ffffff;fill-opacity:1;fill-rule:nonzero;stroke:none"
       aria-label="2"
       transform="matrix(1.3333333,0,0,1.3333333,63.016,164.16933)" />
    <path
       id="path33"
       d="m 2.8957891,-3.5040156 c 0.8085937,-0.2695313 1.3945312,-0.9726563 1.3945312,-1.7578125 0,-0.8203125 -0.8789062,-1.3710938 -1.8398437,-1.3710938 -1.0078125,0 -1.75781254,0.5976563 -1.75781254,1.3476563 0,0.3398437 0.2109375,0.5273437 0.50390624,0.5273437 0.3046875,0 0.5039063,-0.2226562 0.5039063,-0.515625 0,-0.4921875 -0.46875,-0.4921875 -0.609375,-0.4921875 0.3046875,-0.4921875 0.9609375,-0.6210937 1.3242187,-0.6210937 0.4101563,0 0.9492188,0.2226562 0.9492188,1.1132812 0,0.1289063 -0.011719,0.703125 -0.2695313,1.1367188 -0.3046875,0.4804687 -0.6445312,0.515625 -0.890625,0.515625 -0.082031,0.011719 -0.3164062,0.035156 -0.3867187,0.035156 -0.082031,0.011719 -0.1523438,0.023437 -0.1523438,0.1171875 0,0.1171875 0.070312,0.1171875 0.234375,0.1171875 h 0.4453125 c 0.8085938,0 1.1835938,0.6679688 1.1835938,1.6523438 0,1.34765622 -0.6914063,1.64062497 -1.125,1.64062497 -0.4335938,0 -1.171875,-0.17578125 -1.52343754,-0.76171875 0.35156254,0.0585938 0.65625004,-0.1640625 0.65625004,-0.53906252 0,-0.3632812 -0.2695313,-0.5625 -0.56250004,-0.5625 -0.234375,0 -0.55078125,0.140625 -0.55078125,0.5742188 0,0.91406247 0.92578129,1.57031247 2.00390629,1.57031247 1.21875,0 2.1210937,-0.9140625 2.1210937,-1.92187497 0,-0.8203125 -0.6210937,-1.59375 -1.6523437,-1.8046873 z m 0,0"
       style="fill:#ffffff;fill-opacity:1;fill-rule:nonzero;stroke:none"
       aria-label="3"
       transform="matrix(1.3333333,0,0,1.3333333,46.650667,173.61733)" />
    <path
       id="path34"
       d="m 2.9309453,-1.6409063 v 0.86718755 c 0,0.3515625 -0.023437,0.46875 -0.7617187,0.46875 H 1.9582891 v 0.3046875 c 0.4101562,-0.03515625 0.9375,-0.03515625 1.3476562,-0.03515625 0.421875,0 0.9492188,0 1.359375,0.03515625 v -0.3046875 H 4.4543828 c -0.7382812,0 -0.7617187,-0.1171875 -0.7617187,-0.46875 V -1.6409063 H 4.6887578 V -1.9573125 H 3.6926641 V -6.48075 c 0,-0.1992188 0,-0.2578125 -0.1523438,-0.2578125 -0.09375,0 -0.1171875,0 -0.1992187,0.1171875 l -3.05859379,4.6640625 v 0.3164062 z m 0.058594,-0.3164062 H 0.56375781 L 2.9895391,-5.6721563 Z m 0,0"
       style="fill:#ffffff;fill-opacity:1;fill-rule:nonzero;stroke:none"
       aria-label="4"
       transform="matrix(1.3333333,0,0,1.3333333,46.650667,192.516)" />
    <path
       id="path35"
       d="m 4.4762813,-2.0032734 c 0,-1.1835938 -0.8203125,-2.1796875 -1.8984375,-2.1796875 -0.4804688,0 -0.9023438,0.1640625 -1.265625,0.5039062 v -1.9335937 c 0.1992187,0.058594 0.5273437,0.1289062 0.84375,0.1289062 1.2304687,0 1.9335937,-0.9140625 1.9335937,-1.0429687 0,-0.058594 -0.035156,-0.1054688 -0.1054687,-0.1054688 -0.011719,0 -0.035156,0 -0.082031,0.023437 -0.1992187,0.09375 -0.6796875,0.2929688 -1.3476562,0.2929688 -0.3984375,0 -0.8554688,-0.070312 -1.3242188,-0.28125 -0.082031,-0.023437 -0.1054687,-0.023437 -0.1289062,-0.023437 -0.09375,0 -0.09375,0.082031 -0.09375,0.234375 v 2.953125 c 0,0.1757812 0,0.2578125 0.140625,0.2578125 0.070312,0 0.082031,-0.035156 0.1289062,-0.09375 0.1054688,-0.1523438 0.4804688,-0.6914063 1.2773438,-0.6914063 0.5273437,0 0.7734375,0.4570313 0.8554687,0.6328125 0.1523438,0.375 0.1757813,0.7617188 0.1757813,1.2539063 0,0.3515625 0,0.9492187 -0.234375,1.37109371 -0.2460938,0.38671875 -0.609375,0.64453125 -1.0664063,0.64453125 -0.7265625,0 -1.30078125,-0.52734375 -1.46484375,-1.11328126 0.0234375,0.011719 0.0585938,0.011719 0.1640625,0.011719 0.32812505,0 0.50390625,-0.2460938 0.50390625,-0.4804688 0,-0.2460937 -0.1757812,-0.4921875 -0.50390625,-0.4921875 -0.140625,0 -0.48046875,0.070312 -0.48046875,0.5273438 0,0.85546871 0.6796875,1.82812496 1.7929688,1.82812496 1.1601562,0 2.1796875,-0.9609375 2.1796872,-2.22656266 z m 0,0"
       style="fill:#ffffff;fill-opacity:1;fill-rule:nonzero;stroke:none"
       aria-label="5"
       transform="matrix(1.3333333,0,0,1.3333333,63.016,201.964)" />
    <path
       id="path36"
       d="m 1.3126094,-3.2688125 v -0.234375 c 0,-2.5195313 1.2421875,-2.8828125 1.7460937,-2.8828125 0.234375,0 0.65625,0.058594 0.8789063,0.3984375 -0.1523438,0 -0.5507813,0 -0.5507813,0.4453125 0,0.3164062 0.234375,0.4570312 0.4570313,0.4570312 0.1640625,0 0.4570312,-0.082031 0.4570312,-0.46875 0,-0.5976562 -0.4335937,-1.078125 -1.265625,-1.078125 -1.2773437,0 -2.61328122,1.2890625 -2.61328122,3.4804688 0,2.66015625 1.14843752,3.375 2.07421872,3.375 1.1132813,0 2.0507813,-0.9375 2.0507813,-2.25 0,-1.265625 -0.8789063,-2.2265625 -1.9921875,-2.2265625 -0.6679688,0 -1.0429688,0.5039062 -1.2421875,0.984375 z m 1.1835937,3.2109375 c -0.6210937,0 -0.9257812,-0.59765625 -0.984375,-0.75 -0.1757812,-0.46875 -0.1757812,-1.265625 -0.1757812,-1.4414063 0,-0.7734375 0.3164062,-1.7695312 1.21875,-1.7695312 0.1523437,0 0.609375,0 0.9257812,0.609375 0.1757813,0.375 0.1757813,0.8789062 0.1757813,1.3710937 0,0.4804688 0,0.9726563 -0.1640625,1.33593755 C 3.1876094,-0.10475 2.7305781,-0.057875 2.4962031,-0.057875 Z m 0,0"
       style="fill:#ffffff;fill-opacity:1;fill-rule:nonzero;stroke:none"
       aria-label="6"
       transform="matrix(1.3333333,0,0,1.3333333,79.382667,192.51467)" />
    <path
       id="path37"
       d="M 40.62135,92.1271 V 77.95374 L 28.3468,70.86702 16.07225,77.95374 V 92.1271 l 12.27455,7.08672 z"
       style="fill:none;stroke:#ffffff;stroke-width:0.3985;stroke-linecap:butt;stroke-linejoin:miter;stroke-miterlimit:10;stroke-dasharray:none;stroke-opacity:1"
       transform="matrix(1.3333333,0,0,-1.3333333,28.541333,292.172)" />
    <path
       id="path38"
       d="M 40.62135,92.1271 28.3468,70.86702"
       style="fill:none;stroke:#ffffff;stroke-width:0.3985;stroke-linecap:butt;stroke-linejoin:miter;stroke-miterlimit:10;stroke-dasharray:none;stroke-opacity:1"
       transform="matrix(1.3333333,0,0,-1.3333333,28.541333,292.172)" />
    <path
       id="path39"
       d="M 28.3468,70.86702 16.07225,92.1271"
       style="fill:none;stroke:#ffffff;stroke-width:0.3985;stroke-linecap:butt;stroke-linejoin:miter;stroke-miterlimit:10;stroke-dasharray:none;stroke-opacity:1"
       transform="matrix(1.3333333,0,0,-1.3333333,28.541333,292.172)" />
    <path
       id="path40"
       d="M 40.62135,92.1271 H 16.07225"
       style="fill:none;stroke:#ffffff;stroke-width:0.3985;stroke-linecap:butt;stroke-linejoin:miter;stroke-miterlimit:10;stroke-dasharray:none;stroke-opacity:1"
       transform="matrix(1.3333333,0,0,-1.3333333,28.541333,292.172)" />
    <path
       id="path41"
       d="m 2.9297969,-6.3738359 c 0,-0.234375 0,-0.2578125 -0.234375,-0.2578125 -0.609375,0.6328125 -1.4882813,0.6328125 -1.80468752,0.6328125 v 0.3164062 c 0.19921872,0 0.78515622,0 1.30078122,-0.2578125 v 5.15625001 c 0,0.3515625 -0.035156,0.48046875 -0.9257812,0.48046875 H 0.94932813 v 0.3046875 C 1.3008906,-0.03399219 2.1563594,-0.03399219 2.5547969,-0.03399219 c 0.3984375,0 1.265625,0 1.6171875,0.03515625 v -0.3046875 H 3.8555781 c -0.9023437,0 -0.9257812,-0.1171875 -0.9257812,-0.48046875 z m 0,0"
       style="fill:#ffffff;fill-opacity:1;fill-rule:nonzero;stroke:none"
       aria-label="1"
       transform="matrix(1.3333333,0,0,1.3333333,79.382667,135.82267)" />
    <path
       id="path42"
       d="M 1.2653438,-0.76046875 2.3200313,-1.7917188 c 1.5585937,-1.3710937 2.15625,-1.9101562 2.15625,-2.90625 0,-1.1367187 -0.9023438,-1.9335937 -2.1210938,-1.9335937 -1.125,0 -1.8515625,0.9140625 -1.8515625,1.8046875 0,0.5507812 0.4921875,0.5507812 0.5273438,0.5507812 0.1640625,0 0.515625,-0.1171875 0.515625,-0.5273437 0,-0.2578125 -0.1875,-0.515625 -0.5273438,-0.515625 -0.0820313,0 -0.10546875,0 -0.12890625,0.011719 C 1.113,-5.951875 1.6520625,-6.326875 2.2262813,-6.326875 c 0.9140625,0 1.3359375,0.8085937 1.3359375,1.6289062 0,0.796875 -0.4921875,1.5820313 -1.0429688,2.203125 L 0.60909375,-0.36203125 C 0.503625,-0.2565625 0.503625,-0.233125 0.503625,0.00125 h 3.6914063 l 0.28125,-1.734375 H 4.2184688 c -0.046875,0.3046875 -0.1171875,0.73828125 -0.2109375,0.890625 -0.070312,0.0820313 -0.7265625,0.0820313 -0.9492188,0.0820313 z m 0,0"
       style="fill:#ffffff;fill-opacity:1;fill-rule:nonzero;stroke:none"
       aria-label="2"
       transform="matrix(1.3333333,0,0,1.3333333,63.016,126.37333)" />
    <path
       id="path43"
       d="m 2.8957891,-3.5027422 c 0.8085937,-0.2695312 1.3945312,-0.9726562 1.3945312,-1.7578125 0,-0.8203125 -0.8789062,-1.3710937 -1.8398437,-1.3710937 -1.0078125,0 -1.75781254,0.5976562 -1.75781254,1.3476562 0,0.3398438 0.2109375,0.5273438 0.50390624,0.5273438 0.3046875,0 0.5039063,-0.2226563 0.5039063,-0.515625 0,-0.4921875 -0.46875,-0.4921875 -0.609375,-0.4921875 0.3046875,-0.4921875 0.9609375,-0.6210938 1.3242187,-0.6210938 0.4101563,0 0.9492188,0.2226563 0.9492188,1.1132813 0,0.1289062 -0.011719,0.703125 -0.2695313,1.1367187 -0.3046875,0.4804688 -0.6445312,0.515625 -0.890625,0.515625 -0.082031,0.011719 -0.3164062,0.035156 -0.3867187,0.035156 -0.082031,0.011719 -0.1523438,0.023437 -0.1523438,0.1171875 0,0.1171875 0.070312,0.1171875 0.234375,0.1171875 h 0.4453125 c 0.8085938,0 1.1835938,0.6679687 1.1835938,1.6523437 0,1.34765626 -0.6914063,1.64062501 -1.125,1.64062501 -0.4335938,0 -1.171875,-0.17578125 -1.52343754,-0.76171875 0.35156254,0.0585938 0.65625004,-0.1640625 0.65625004,-0.53906246 0,-0.3632813 -0.2695313,-0.5625 -0.56250004,-0.5625 -0.234375,0 -0.55078125,0.140625 -0.55078125,0.5742187 0,0.91406251 0.92578129,1.57031251 2.00390629,1.57031251 1.21875,0 2.1210937,-0.9140625 2.1210937,-1.92187501 0,-0.8203125 -0.6210937,-1.59375 -1.6523437,-1.8046872 z m 0,0"
       style="fill:#ffffff;fill-opacity:1;fill-rule:nonzero;stroke:none"
       aria-label="3"
       transform="matrix(1.3333333,0,0,1.3333333,46.650667,135.82267)" />
    <path
       id="path44"
       d="m 2.9309453,-1.6415625 v 0.8671875 c 0,0.3515625 -0.023437,0.46875 -0.7617187,0.46875 H 1.9582891 v 0.3046875 c 0.4101562,-0.03515625 0.9375,-0.03515625 1.3476562,-0.03515625 0.421875,0 0.9492188,0 1.359375,0.03515625 V -0.305625 H 4.4543828 c -0.7382812,0 -0.7617187,-0.1171875 -0.7617187,-0.46875 V -1.6415625 H 4.6887578 V -1.9579687 H 3.6926641 v -4.5234375 c 0,-0.1992188 0,-0.2578125 -0.1523438,-0.2578125 -0.09375,0 -0.1171875,0 -0.1992187,0.1171875 l -3.05859379,4.6640625 v 0.3164062 z m 0.058594,-0.3164062 H 0.56375781 L 2.9895391,-5.6728125 Z m 0,0"
       style="fill:#ffffff;fill-opacity:1;fill-rule:nonzero;stroke:none"
       aria-label="4"
       transform="matrix(1.3333333,0,0,1.3333333,46.650667,154.72)" />
    <path
       id="path45"
       d="m 4.4762813,-2.0049297 c 0,-1.1835937 -0.8203125,-2.1796875 -1.8984375,-2.1796875 -0.4804688,0 -0.9023438,0.1640625 -1.265625,0.5039063 v -1.9335938 c 0.1992187,0.058594 0.5273437,0.1289063 0.84375,0.1289063 1.2304687,0 1.9335937,-0.9140625 1.9335937,-1.0429688 0,-0.058594 -0.035156,-0.1054687 -0.1054687,-0.1054687 -0.011719,0 -0.035156,0 -0.082031,0.023437 -0.1992187,0.09375 -0.6796875,0.2929687 -1.3476562,0.2929687 -0.3984375,0 -0.8554688,-0.070312 -1.3242188,-0.28125 -0.082031,-0.023437 -0.1054687,-0.023437 -0.1289062,-0.023437 -0.09375,0 -0.09375,0.082031 -0.09375,0.234375 v 2.953125 c 0,0.1757813 0,0.2578125 0.140625,0.2578125 0.070312,0 0.082031,-0.035156 0.1289062,-0.09375 0.1054688,-0.1523437 0.4804688,-0.6914062 1.2773438,-0.6914062 0.5273437,0 0.7734375,0.4570312 0.8554687,0.6328125 0.1523438,0.375 0.1757813,0.7617187 0.1757813,1.2539062 0,0.3515625 0,0.9492188 -0.234375,1.37109376 -0.2460938,0.38671875 -0.609375,0.64453125 -1.0664063,0.64453125 -0.7265625,0 -1.30078125,-0.52734375 -1.46484375,-1.11328121 0.0234375,0.011719 0.0585938,0.011719 0.1640625,0.011719 0.32812505,0 0.50390625,-0.2460937 0.50390625,-0.4804687 0,-0.2460938 -0.1757812,-0.4921875 -0.50390625,-0.4921875 -0.140625,0 -0.48046875,0.070312 -0.48046875,0.5273437 0,0.85546876 0.6796875,1.82812501 1.7929688,1.82812501 1.1601562,0 2.1796875,-0.9609375 2.1796872,-2.22656281 z m 0,0"
       style="fill:#ffffff;fill-opacity:1;fill-rule:nonzero;stroke:none"
       aria-label="5"
       transform="matrix(1.3333333,0,0,1.3333333,63.016,164.16933)" />
    <path
       id="path46"
       d="m 1.3126094,-3.2704687 v -0.234375 c 0,-2.5195313 1.2421875,-2.8828125 1.7460937,-2.8828125 0.234375,0 0.65625,0.058594 0.8789063,0.3984375 -0.1523438,0 -0.5507813,0 -0.5507813,0.4453125 0,0.3164062 0.234375,0.4570312 0.4570313,0.4570312 0.1640625,0 0.4570312,-0.082031 0.4570312,-0.46875 0,-0.5976562 -0.4335937,-1.078125 -1.265625,-1.078125 -1.2773437,0 -2.61328122,1.2890625 -2.61328122,3.4804688 0,2.6601562 1.14843752,3.37499995 2.07421872,3.37499995 1.1132813,0 2.0507813,-0.9375 2.0507813,-2.24999995 0,-1.265625 -0.8789063,-2.2265625 -1.9921875,-2.2265625 -0.6679688,0 -1.0429688,0.5039062 -1.2421875,0.984375 z m 1.1835937,3.21093745 c -0.6210937,0 -0.9257812,-0.59765625 -0.984375,-0.75 C 1.3360469,-1.2782812 1.3360469,-2.0751562 1.3360469,-2.2509375 c 0,-0.7734375 0.3164062,-1.7695312 1.21875,-1.7695312 0.1523437,0 0.609375,0 0.9257812,0.609375 0.1757813,0.375 0.1757813,0.8789062 0.1757813,1.3710937 0,0.4804688 0,0.9726563 -0.1640625,1.3359375 -0.3046875,0.59765625 -0.7617188,0.64453125 -0.9960938,0.64453125 z m 0,0"
       style="fill:#ffffff;fill-opacity:1;fill-rule:nonzero;stroke:none"
       aria-label="6"
       transform="matrix(1.3333333,0,0,1.3333333,79.382667,154.72)" />
    <path
       id="path47"
       d="m 40.62135,120.47392 v -14.17338 l -12.27455,-7.0867 -12.27455,7.0867 v 14.17338 l 12.27455,7.0867 z"
       style="fill:none;stroke:#ffffff;stroke-width:0.3985;stroke-linecap:butt;stroke-linejoin:miter;stroke-miterlimit:10;stroke-dasharray:none;stroke-opacity:1"
       transform="matrix(1.3333333,0,0,-1.3333333,28.541333,292.172)" />
    <path
       id="path48"
       d="M 40.62135,120.47392 28.3468,99.21384"
       style="fill:none;stroke:#ffffff;stroke-width:0.3985;stroke-linecap:butt;stroke-linejoin:miter;stroke-miterlimit:10;stroke-dasharray:none;stroke-opacity:1"
       transform="matrix(1.3333333,0,0,-1.3333333,28.541333,292.172)" />
    <path
       id="path49"
       d="M 28.3468,99.21384 16.07225,120.47392"
       style="fill:none;stroke:#ffffff;stroke-width:0.3985;stroke-linecap:butt;stroke-linejoin:miter;stroke-miterlimit:10;stroke-dasharray:none;stroke-opacity:1"
       transform="matrix(1.3333333,0,0,-1.3333333,28.541333,292.172)" />
    <path
       id="path50"
       d="M 40.62135,120.47392 H 16.07225"
       style="fill:none;stroke:#ffffff;stroke-width:0.3985;stroke-linecap:butt;stroke-linejoin:miter;stroke-miterlimit:10;stroke-dasharray:none;stroke-opacity:1"
       transform="matrix(1.3333333,0,0,-1.3333333,28.541333,292.172)" />
    <path
       id="path51"
       d="m 2.9297969,-6.3744922 c 0,-0.234375 0,-0.2578125 -0.234375,-0.2578125 -0.609375,0.6328125 -1.4882813,0.6328125 -1.80468752,0.6328125 v 0.3164063 c 0.19921872,0 0.78515622,0 1.30078122,-0.2578125 v 5.15624996 c 0,0.3515625 -0.035156,0.48046875 -0.9257812,0.48046875 H 0.94932813 V 5.078125e-4 C 1.3008906,-0.03464844 2.1563594,-0.03464844 2.5547969,-0.03464844 c 0.3984375,0 1.265625,0 1.6171875,0.0351562525 V -0.30417969 H 3.8555781 c -0.9023437,0 -0.9257812,-0.1171875 -0.9257812,-0.48046875 z m 0,0"
       style="fill:#ffffff;fill-opacity:1;fill-rule:nonzero;stroke:none"
       aria-label="1"
       transform="matrix(1.3333333,0,0,1.3333333,79.382667,98.026667)" />
    <path
       id="path52"
       d="m 1.2653438,-0.762125 1.0546875,-1.03125 c 1.5585937,-1.3710938 2.15625,-1.9101563 2.15625,-2.90625 0,-1.1367188 -0.9023438,-1.9335938 -2.1210938,-1.9335938 -1.125,0 -1.8515625,0.9140625 -1.8515625,1.8046875 0,0.5507813 0.4921875,0.5507813 0.5273438,0.5507813 0.1640625,0 0.515625,-0.1171875 0.515625,-0.5273438 0,-0.2578125 -0.1875,-0.515625 -0.5273438,-0.515625 -0.0820313,0 -0.10546875,0 -0.12890625,0.011719 C 1.113,-5.9535313 1.6520625,-6.3285313 2.2262813,-6.3285313 c 0.9140625,0 1.3359375,0.8085938 1.3359375,1.6289063 0,0.796875 -0.4921875,1.5820312 -1.0429688,2.203125 L 0.60909375,-0.3636875 C 0.503625,-0.25821875 0.503625,-0.23478125 0.503625,-4.0625e-4 h 3.6914063 l 0.28125,-1.73437505 H 4.2184688 C 4.1715938,-1.4300938 4.1012813,-0.9965 4.0075313,-0.84415625 3.9372188,-0.762125 3.2809688,-0.762125 3.0583125,-0.762125 Z m 0,0"
       style="fill:#ffffff;fill-opacity:1;fill-rule:nonzero;stroke:none"
       aria-label="2"
       transform="matrix(1.3333333,0,0,1.3333333,63.016,88.578667)" />
    <path
       id="path53"
       d="m 2.8957891,-3.5033984 c 0.8085937,-0.2695313 1.3945312,-0.9726563 1.3945312,-1.7578125 0,-0.8203125 -0.8789062,-1.3710938 -1.8398437,-1.3710938 -1.0078125,0 -1.75781254,0.5976563 -1.75781254,1.3476563 0,0.3398437 0.2109375,0.5273437 0.50390624,0.5273437 0.3046875,0 0.5039063,-0.2226562 0.5039063,-0.515625 0,-0.4921875 -0.46875,-0.4921875 -0.609375,-0.4921875 0.3046875,-0.4921875 0.9609375,-0.6210937 1.3242187,-0.6210937 0.4101563,0 0.9492188,0.2226562 0.9492188,1.1132812 0,0.1289063 -0.011719,0.703125 -0.2695313,1.1367188 -0.3046875,0.4804687 -0.6445312,0.515625 -0.890625,0.515625 -0.082031,0.011719 -0.3164062,0.035156 -0.3867187,0.035156 -0.082031,0.011719 -0.1523438,0.023437 -0.1523438,0.1171875 0,0.1171875 0.070312,0.1171875 0.234375,0.1171875 h 0.4453125 c 0.8085938,0 1.1835938,0.6679688 1.1835938,1.6523438 0,1.34765621 -0.6914063,1.64062496 -1.125,1.64062496 -0.4335938,0 -1.171875,-0.17578125 -1.52343754,-0.76171875 0.35156254,0.0585938 0.65625004,-0.1640625 0.65625004,-0.53906251 0,-0.3632812 -0.2695313,-0.5625 -0.56250004,-0.5625 -0.234375,0 -0.55078125,0.140625 -0.55078125,0.5742188 0,0.91406246 0.92578129,1.57031246 2.00390629,1.57031246 1.21875,0 2.1210937,-0.9140625 2.1210937,-1.92187496 0,-0.8203125 -0.6210937,-1.59375 -1.6523437,-1.8046873 z m 0,0"
       style="fill:#ffffff;fill-opacity:1;fill-rule:nonzero;stroke:none"
       aria-label="3"
       transform="matrix(1.3333333,0,0,1.3333333,46.650667,98.026667)" />
    <path
       id="path54"
       d="m 2.9309453,-1.6402891 v 0.86718754 c 0,0.3515625 -0.023437,0.46875 -0.7617187,0.46875 H 1.9582891 V 3.359375e-4 C 2.3684453,-0.03482031 2.8957891,-0.03482031 3.3059453,-0.03482031 c 0.421875,0 0.9492188,0 1.359375,0.0351562475 V -0.30435156 H 4.4543828 c -0.7382812,0 -0.7617187,-0.1171875 -0.7617187,-0.46875 V -1.6402891 H 4.6887578 V -1.9566953 H 3.6926641 v -4.5234375 c 0,-0.1992188 0,-0.2578125 -0.1523438,-0.2578125 -0.09375,0 -0.1171875,0 -0.1992187,0.1171875 l -3.05859379,4.6640625 v 0.3164062 z m 0.058594,-0.3164062 H 0.56375781 L 2.9895391,-5.6715391 Z m 0,0"
       style="fill:#ffffff;fill-opacity:1;fill-rule:nonzero;stroke:none"
       aria-label="4"
       transform="matrix(1.3333333,0,0,1.3333333,46.650667,116.92533)" />
    <path
       id="path55"
       d="m 4.4762813,-2.0026563 c 0,-1.1835937 -0.8203125,-2.1796875 -1.8984375,-2.1796875 -0.4804688,0 -0.9023438,0.1640625 -1.265625,0.5039063 v -1.9335938 c 0.1992187,0.058594 0.5273437,0.1289063 0.84375,0.1289063 1.2304687,0 1.9335937,-0.9140625 1.9335937,-1.0429688 0,-0.058594 -0.035156,-0.1054687 -0.1054687,-0.1054687 -0.011719,0 -0.035156,0 -0.082031,0.023437 -0.1992187,0.09375 -0.6796875,0.2929687 -1.3476562,0.2929687 -0.3984375,0 -0.8554688,-0.070312 -1.3242188,-0.28125 -0.082031,-0.023437 -0.1054687,-0.023437 -0.1289062,-0.023437 -0.09375,0 -0.09375,0.082031 -0.09375,0.234375 v 2.953125 c 0,0.1757813 0,0.2578125 0.140625,0.2578125 0.070312,0 0.082031,-0.035156 0.1289062,-0.09375 0.1054688,-0.1523437 0.4804688,-0.6914062 1.2773438,-0.6914062 0.5273437,0 0.7734375,0.4570312 0.8554687,0.6328125 0.1523438,0.375 0.1757813,0.7617187 0.1757813,1.2539062 0,0.3515625 0,0.9492188 -0.234375,1.3710938 -0.2460938,0.38671875 -0.609375,0.64453125 -1.0664063,0.64453125 -0.7265625,0 -1.30078125,-0.52734375 -1.46484375,-1.11328125 0.0234375,0.011719 0.0585938,0.011719 0.1640625,0.011719 C 1.3122188,-1.1589063 1.488,-1.405 1.488,-1.639375 c 0,-0.2460938 -0.1757812,-0.4921875 -0.50390625,-0.4921875 -0.140625,0 -0.48046875,0.070312 -0.48046875,0.5273437 0,0.8554688 0.6796875,1.82812505 1.7929688,1.82812505 1.1601562,0 2.1796875,-0.9609375 2.1796875,-2.22656255 z m 0,0"
       style="fill:#ffffff;fill-opacity:1;fill-rule:nonzero;stroke:none"
       aria-label="5"
       transform="matrix(1.3333333,0,0,1.3333333,63.016,126.37333)" />
    <path
       id="path56"
       d="m 1.3126094,-3.2691953 v -0.234375 c 0,-2.5195313 1.2421875,-2.8828125 1.7460937,-2.8828125 0.234375,0 0.65625,0.058594 0.8789063,0.3984375 -0.1523438,0 -0.5507813,0 -0.5507813,0.4453125 0,0.3164062 0.234375,0.4570312 0.4570313,0.4570312 0.1640625,0 0.4570312,-0.082031 0.4570312,-0.46875 0,-0.5976562 -0.4335937,-1.078125 -1.265625,-1.078125 -1.2773437,0 -2.61328122,1.2890625 -2.61328122,3.4804688 0,2.66015624 1.14843752,3.37499999 2.07421872,3.37499999 1.1132813,0 2.0507813,-0.9375 2.0507813,-2.24999999 0,-1.265625 -0.8789063,-2.2265625 -1.9921875,-2.2265625 -0.6679688,0 -1.0429688,0.5039062 -1.2421875,0.984375 z m 1.1835937,3.21093749 c -0.6210937,0 -0.9257812,-0.59765625 -0.984375,-0.75 C 1.3360469,-1.2770078 1.3360469,-2.0738828 1.3360469,-2.2496641 c 0,-0.7734375 0.3164062,-1.7695312 1.21875,-1.7695312 0.1523437,0 0.609375,0 0.9257812,0.609375 0.1757813,0.375 0.1757813,0.8789062 0.1757813,1.3710937 0,0.4804688 0,0.9726563 -0.1640625,1.33593754 -0.3046875,0.59765625 -0.7617188,0.64453125 -0.9960938,0.64453125 z m 0,0"
       style="fill:#ffffff;fill-opacity:1;fill-rule:nonzero;stroke:none"
       aria-label="6"
       transform="matrix(1.3333333,0,0,1.3333333,79.382667,116.92533)" />
    <path
       id="path57"
       d="m 40.62135,148.82074 v -14.17339 l -12.27455,-7.08671 -12.27455,7.08671 v 14.17339 l 12.27455,7.0867 z"
       style="fill:none;stroke:#ffffff;stroke-width:0.3985;stroke-linecap:butt;stroke-linejoin:miter;stroke-miterlimit:10;stroke-dasharray:none;stroke-opacity:1"
       transform="matrix(1.3333333,0,0,-1.3333333,28.541333,292.172)" />
    <path
       id="path58"
       d="M 40.62135,148.82074 28.3468,127.56064"
       style="fill:none;stroke:#ffffff;stroke-width:0.3985;stroke-linecap:butt;stroke-linejoin:miter;stroke-miterlimit:10;stroke-dasharray:none;stroke-opacity:1"
       transform="matrix(1.3333333,0,0,-1.3333333,28.541333,292.172)" />
    <path
       id="path59"
       d="m 28.3468,127.56064 -12.27455,21.2601"
       style="fill:none;stroke:#ffffff;stroke-width:0.3985;stroke-linecap:butt;stroke-linejoin:miter;stroke-miterlimit:10;stroke-dasharray:none;stroke-opacity:1"
       transform="matrix(1.3333333,0,0,-1.3333333,28.541333,292.172)" />
    <path
       id="path60"
       d="M 40.62135,148.82074 H 16.07225"
       style="fill:none;stroke:#ffffff;stroke-width:0.3985;stroke-linecap:butt;stroke-linejoin:miter;stroke-miterlimit:10;stroke-dasharray:none;stroke-opacity:1"
       transform="matrix(1.3333333,0,0,-1.3333333,28.541333,292.172)" />
    <path
       id="path61"
       d="m 2.9297969,-6.3761484 c 0,-0.234375 0,-0.2578125 -0.234375,-0.2578125 -0.609375,0.6328125 -1.4882813,0.6328125 -1.80468752,0.6328125 v 0.3164062 c 0.19921872,0 0.78515622,0 1.30078122,-0.2578125 v 5.15625001 c 0,0.3515625 -0.035156,0.48046875 -0.9257812,0.48046875 H 0.94932813 v 0.3046875 C 1.3008906,-0.03630469 2.1563594,-0.03630469 2.5547969,-0.03630469 c 0.3984375,0 1.265625,0 1.6171875,0.03515625 v -0.3046875 H 3.8555781 c -0.9023437,0 -0.9257812,-0.1171875 -0.9257812,-0.48046875 z m 0,0"
       style="fill:#ffffff;fill-opacity:1;fill-rule:nonzero;stroke:none"
       aria-label="1"
       transform="matrix(1.3333333,0,0,1.3333333,79.382667,60.232)" />
    <path
       id="path62"
       d="M 1.2653438,-0.76278125 2.3200313,-1.7940313 c 1.5585937,-1.3710937 2.15625,-1.9101562 2.15625,-2.90625 0,-1.1367187 -0.9023438,-1.9335937 -2.1210938,-1.9335937 -1.125,0 -1.8515625,0.9140625 -1.8515625,1.8046875 0,0.5507812 0.4921875,0.5507812 0.5273438,0.5507812 0.1640625,0 0.515625,-0.1171875 0.515625,-0.5273437 0,-0.2578125 -0.1875,-0.515625 -0.5273438,-0.515625 -0.0820313,0 -0.10546875,0 -0.12890625,0.011719 C 1.113,-5.9541875 1.6520625,-6.3291875 2.2262813,-6.3291875 c 0.9140625,0 1.3359375,0.8085937 1.3359375,1.6289062 0,0.796875 -0.4921875,1.5820313 -1.0429688,2.203125 L 0.60909375,-0.36434375 C 0.503625,-0.258875 0.503625,-0.2354375 0.503625,-0.0010625 h 3.6914063 l 0.28125,-1.734375 H 4.2184688 c -0.046875,0.3046875 -0.1171875,0.73828125 -0.2109375,0.890625 -0.070312,0.0820313 -0.7265625,0.0820313 -0.9492188,0.0820313 z m 0,0"
       style="fill:#ffffff;fill-opacity:1;fill-rule:nonzero;stroke:none"
       aria-label="2"
       transform="matrix(1.3333333,0,0,1.3333333,63.016,50.782667)" />
    <path
       id="path63"
       d="m 2.8957891,-3.5050547 c 0.8085937,-0.2695312 1.3945312,-0.9726562 1.3945312,-1.7578125 0,-0.8203125 -0.8789062,-1.3710937 -1.8398437,-1.3710937 -1.0078125,0 -1.75781254,0.5976562 -1.75781254,1.3476562 0,0.3398438 0.2109375,0.5273438 0.50390624,0.5273438 0.3046875,0 0.5039063,-0.2226563 0.5039063,-0.515625 0,-0.4921875 -0.46875,-0.4921875 -0.609375,-0.4921875 0.3046875,-0.4921875 0.9609375,-0.6210938 1.3242187,-0.6210938 0.4101563,0 0.9492188,0.2226563 0.9492188,1.1132813 0,0.1289062 -0.011719,0.703125 -0.2695313,1.1367187 -0.3046875,0.4804688 -0.6445312,0.515625 -0.890625,0.515625 -0.082031,0.011719 -0.3164062,0.035156 -0.3867187,0.035156 -0.082031,0.011719 -0.1523438,0.023437 -0.1523438,0.1171875 0,0.1171875 0.070312,0.1171875 0.234375,0.1171875 h 0.4453125 c 0.8085938,0 1.1835938,0.6679687 1.1835938,1.6523437 0,1.34765626 -0.6914063,1.64062501 -1.125,1.64062501 -0.4335938,0 -1.171875,-0.17578125 -1.52343754,-0.76171875 0.35156254,0.0585938 0.65625004,-0.1640625 0.65625004,-0.53906246 0,-0.3632813 -0.2695313,-0.5625 -0.56250004,-0.5625 -0.234375,0 -0.55078125,0.140625 -0.55078125,0.5742187 0,0.91406251 0.92578129,1.57031251 2.00390629,1.57031251 1.21875,0 2.1210937,-0.9140625 2.1210937,-1.92187501 0,-0.8203125 -0.6210937,-1.59375 -1.6523437,-1.8046872 z m 0,0"
       style="fill:#ffffff;fill-opacity:1;fill-rule:nonzero;stroke:none"
       aria-label="3"
       transform="matrix(1.3333333,0,0,1.3333333,46.650667,60.232)" />
    <path
       id="path64"
       d="m 2.9309453,-1.6409453 v 0.86718749 c 0,0.3515625 -0.023437,0.46875 -0.7617187,0.46875 H 1.9582891 V -3.203125e-4 C 2.3684453,-0.03547656 2.8957891,-0.03547656 3.3059453,-0.03547656 c 0.421875,0 0.9492188,0 1.359375,0.0351562475 V -0.30500781 H 4.4543828 c -0.7382812,0 -0.7617187,-0.1171875 -0.7617187,-0.46875 V -1.6409453 H 4.6887578 V -1.9573516 H 3.6926641 v -4.5234375 c 0,-0.1992187 0,-0.2578125 -0.1523438,-0.2578125 -0.09375,0 -0.1171875,0 -0.1992187,0.1171875 l -3.05859379,4.6640625 v 0.3164063 z m 0.058594,-0.3164063 H 0.56375781 L 2.9895391,-5.6721953 Z m 0,0"
       style="fill:#ffffff;fill-opacity:1;fill-rule:nonzero;stroke:none"
       aria-label="4"
       transform="matrix(1.3333333,0,0,1.3333333,46.650667,79.129333)" />
    <path
       id="path65"
       d="M 4.4762813,-2.0043125 C 4.4762813,-3.1879063 3.6559688,-4.184 2.5778438,-4.184 2.097375,-4.184 1.6755,-4.0199375 1.3122188,-3.6800938 v -1.9335937 c 0.1992187,0.058594 0.5273437,0.1289062 0.84375,0.1289062 1.2304687,0 1.9335937,-0.9140625 1.9335937,-1.0429687 0,-0.058594 -0.035156,-0.1054688 -0.1054687,-0.1054688 -0.011719,0 -0.035156,0 -0.082031,0.023437 -0.1992187,0.09375 -0.6796875,0.2929688 -1.3476562,0.2929688 -0.3984375,0 -0.8554688,-0.070312 -1.3242188,-0.28125 C 1.1481563,-6.6215 1.1247188,-6.6215 1.1012813,-6.6215 c -0.09375,0 -0.09375,0.082031 -0.09375,0.234375 V -3.434 c 0,0.1757812 0,0.2578125 0.140625,0.2578125 0.070312,0 0.082031,-0.035156 0.1289062,-0.09375 0.1054688,-0.1523438 0.4804688,-0.6914063 1.2773438,-0.6914063 0.5273437,0 0.7734375,0.4570313 0.8554687,0.6328125 0.1523438,0.375 0.1757813,0.7617188 0.1757813,1.2539063 0,0.3515625 0,0.9492187 -0.234375,1.37109375 C 3.1051875,-0.3168125 2.7419063,-0.059 2.284875,-0.059 c -0.7265625,0 -1.30078125,-0.52734375 -1.46484375,-1.1132813 0.0234375,0.011719 0.0585938,0.011719 0.1640625,0.011719 0.32812505,0 0.50390625,-0.2460938 0.50390625,-0.4804688 0,-0.2460937 -0.1757812,-0.4921875 -0.50390625,-0.4921875 -0.140625,0 -0.48046875,0.070312 -0.48046875,0.5273438 0,0.85546875 0.6796875,1.828125 1.7929688,1.828125 1.1601562,0 2.1796875,-0.9609375 2.1796875,-2.2265627 z m 0,0"
       style="fill:#ffffff;fill-opacity:1;fill-rule:nonzero;stroke:none"
       aria-label="5"
       transform="matrix(1.3333333,0,0,1.3333333,63.016,88.578667)" />
    <path
       id="path66"
       d="m 1.3126094,-3.2698516 v -0.234375 c 0,-2.5195312 1.2421875,-2.8828125 1.7460937,-2.8828125 0.234375,0 0.65625,0.058594 0.8789063,0.3984375 -0.1523438,0 -0.5507813,0 -0.5507813,0.4453125 0,0.3164063 0.234375,0.4570313 0.4570313,0.4570313 0.1640625,0 0.4570312,-0.082031 0.4570312,-0.46875 0,-0.5976563 -0.4335937,-1.078125 -1.265625,-1.078125 -1.2773437,0 -2.61328122,1.2890625 -2.61328122,3.4804687 0,2.66015629 1.14843752,3.37500004 2.07421872,3.37500004 1.1132813,0 2.0507813,-0.9375 2.0507813,-2.25000004 0,-1.265625 -0.8789063,-2.2265625 -1.9921875,-2.2265625 -0.6679688,0 -1.0429688,0.5039063 -1.2421875,0.984375 z m 1.1835937,3.21093754 c -0.6210937,0 -0.9257812,-0.59765625 -0.984375,-0.75 C 1.3360469,-1.2776641 1.3360469,-2.0745391 1.3360469,-2.2503203 c 0,-0.7734375 0.3164062,-1.7695313 1.21875,-1.7695313 0.1523437,0 0.609375,0 0.9257812,0.609375 0.1757813,0.375 0.1757813,0.8789063 0.1757813,1.3710938 0,0.4804687 0,0.9726562 -0.1640625,1.33593749 -0.3046875,0.59765625 -0.7617188,0.64453125 -0.9960938,0.64453125 z m 0,0"
       style="fill:#ffffff;fill-opacity:1;fill-rule:nonzero;stroke:none"
       aria-label="6"
       transform="matrix(1.3333333,0,0,1.3333333,79.382667,79.129333)" />
    <path
       id="path67"
       d="m 40.62135,177.16754 v -14.17338 l -12.27455,-7.0867 -12.27455,7.0867 v 14.17338 l 12.27455,7.0867 z"
       style="fill:none;stroke:#ffffff;stroke-width:0.3985;stroke-linecap:butt;stroke-linejoin:miter;stroke-miterlimit:10;stroke-dasharray:none;stroke-opacity:1"
       transform="matrix(1.3333333,0,0,-1.3333333,28.541333,292.172)" />
    <path
       id="path68"
       d="M 40.62135,177.16754 28.3468,155.90746"
       style="fill:none;stroke:#ffffff;stroke-width:0.3985;stroke-linecap:butt;stroke-linejoin:miter;stroke-miterlimit:10;stroke-dasharray:none;stroke-opacity:1"
       transform="matrix(1.3333333,0,0,-1.3333333,28.541333,292.172)" />
    <path
       id="path69"
       d="M 28.3468,155.90746 16.07225,177.16754"
       style="fill:none;stroke:#ffffff;stroke-width:0.3985;stroke-linecap:butt;stroke-linejoin:miter;stroke-miterlimit:10;stroke-dasharray:none;stroke-opacity:1"
       transform="matrix(1.3333333,0,0,-1.3333333,28.541333,292.172)" />
    <path
       id="path70"
       d="M 40.62135,177.16754 H 16.07225"
       style="fill:none;stroke:#ffffff;stroke-width:0.3985;stroke-linecap:butt;stroke-linejoin:miter;stroke-miterlimit:10;stroke-dasharray:none;stroke-opacity:1"
       transform="matrix(1.3333333,0,0,-1.3333333,28.541333,292.172)" />
    <path
       id="path71"
       d="m 2.9297969,-6.373875 c 0,-0.234375 0,-0.2578125 -0.234375,-0.2578125 -0.609375,0.6328125 -1.4882813,0.6328125 -1.80468752,0.6328125 v 0.3164062 c 0.19921872,0 0.78515622,0 1.30078122,-0.2578125 v 5.15625005 c 0,0.3515625 -0.035156,0.48046875 -0.9257812,0.48046875 H 0.94932813 V 0.001125 C 1.3008906,-0.03403125 2.1563594,-0.03403125 2.5547969,-0.03403125 c 0.3984375,0 1.265625,0 1.6171875,0.03515625 V -0.3035625 H 3.8555781 c -0.9023437,0 -0.9257812,-0.1171875 -0.9257812,-0.48046875 z m 0,0"
       style="fill:#ffffff;fill-opacity:1;fill-rule:nonzero;stroke:none"
       aria-label="1"
       transform="matrix(1.3333333,0,0,1.3333333,79.382667,22.436)" />
    <path
       id="path72"
       d="M 1.2653438,-0.76150781 2.3200313,-1.7927578 c 1.5585937,-1.3710938 2.15625,-1.9101563 2.15625,-2.90625 0,-1.1367188 -0.9023438,-1.9335938 -2.1210938,-1.9335938 -1.125,0 -1.8515625,0.9140625 -1.8515625,1.8046875 0,0.5507813 0.4921875,0.5507813 0.5273438,0.5507813 0.1640625,0 0.515625,-0.1171875 0.515625,-0.5273438 0,-0.2578125 -0.1875,-0.515625 -0.5273438,-0.515625 -0.0820313,0 -0.10546875,0 -0.12890625,0.011719 C 1.113,-5.9529141 1.6520625,-6.3279141 2.2262813,-6.3279141 c 0.9140625,0 1.3359375,0.8085938 1.3359375,1.6289063 0,0.796875 -0.4921875,1.5820312 -1.0429688,2.203125 L 0.60909375,-0.36307031 C 0.503625,-0.25760156 0.503625,-0.23416406 0.503625,2.109375e-4 H 4.1950313 L 4.4762813,-1.7341641 H 4.2184688 c -0.046875,0.3046875 -0.1171875,0.73828129 -0.2109375,0.89062504 -0.070312,0.0820313 -0.7265625,0.0820313 -0.9492188,0.0820313 z m 0,0"
       style="fill:#ffffff;fill-opacity:1;fill-rule:nonzero;stroke:none"
       aria-label="2"
       transform="matrix(1.3333333,0,0,1.3333333,63.016,12.988)" />
    <path
       id="path73"
       d="m 2.8957891,-3.5027813 c 0.8085937,-0.2695312 1.3945312,-0.9726562 1.3945312,-1.7578125 0,-0.8203125 -0.8789062,-1.3710937 -1.8398437,-1.3710937 -1.0078125,0 -1.75781254,0.5976562 -1.75781254,1.3476562 0,0.3398438 0.2109375,0.5273438 0.50390624,0.5273438 0.3046875,0 0.5039063,-0.2226563 0.5039063,-0.515625 0,-0.4921875 -0.46875,-0.4921875 -0.609375,-0.4921875 0.3046875,-0.4921875 0.9609375,-0.6210938 1.3242187,-0.6210938 0.4101563,0 0.9492188,0.2226563 0.9492188,1.1132813 0,0.1289062 -0.011719,0.703125 -0.2695313,1.1367187 -0.3046875,0.4804688 -0.6445312,0.515625 -0.890625,0.515625 -0.082031,0.011719 -0.3164062,0.035156 -0.3867187,0.035156 -0.082031,0.011719 -0.1523438,0.023437 -0.1523438,0.1171875 0,0.1171875 0.070312,0.1171875 0.234375,0.1171875 h 0.4453125 c 0.8085938,0 1.1835938,0.6679687 1.1835938,1.6523437 0,1.3476563 -0.6914063,1.64062505 -1.125,1.64062505 -0.4335938,0 -1.171875,-0.17578125 -1.52343754,-0.76171875 C 1.2317266,-0.76059375 1.5364141,-0.98325 1.5364141,-1.35825 c 0,-0.3632813 -0.2695313,-0.5625 -0.56250004,-0.5625 -0.234375,0 -0.55078125,0.140625 -0.55078125,0.5742187 0,0.91406255 0.92578129,1.57031255 2.00390629,1.57031255 1.21875,0 2.1210937,-0.9140625 2.1210937,-1.92187505 0,-0.8203125 -0.6210937,-1.59375 -1.6523437,-1.8046875 z m 0,0"
       style="fill:#ffffff;fill-opacity:1;fill-rule:nonzero;stroke:none"
       aria-label="3"
       transform="matrix(1.3333333,0,0,1.3333333,46.650667,22.436)" />
    <path
       id="path74"
       d="m 2.9309453,-1.6396719 v 0.86718752 c 0,0.3515625 -0.023437,0.46875 -0.7617187,0.46875 H 1.9582891 V 9.53125e-4 c 0.4101562,-0.035156255 0.9375,-0.035156255 1.3476562,-0.035156255 0.421875,0 0.9492188,0 1.359375,0.035156255 V -0.30373438 H 4.4543828 c -0.7382812,0 -0.7617187,-0.1171875 -0.7617187,-0.46875 V -1.6396719 H 4.6887578 V -1.9560781 H 3.6926641 v -4.5234375 c 0,-0.1992188 0,-0.2578125 -0.1523438,-0.2578125 -0.09375,0 -0.1171875,0 -0.1992187,0.1171875 l -3.05859379,4.6640625 v 0.3164062 z m 0.058594,-0.3164062 H 0.56375781 L 2.9895391,-5.6709219 Z m 0,0"
       style="fill:#ffffff;fill-opacity:1;fill-rule:nonzero;stroke:none"
       aria-label="4"
       transform="matrix(1.3333333,0,0,1.3333333,46.650667,41.334667)" />
    <path
       id="path75"
       d="m 4.4762813,-2.0049688 c 0,-1.1835937 -0.8203125,-2.1796875 -1.8984375,-2.1796875 -0.4804688,0 -0.9023438,0.1640625 -1.265625,0.5039063 v -1.9335938 c 0.1992187,0.058594 0.5273437,0.1289063 0.84375,0.1289063 1.2304687,0 1.9335937,-0.9140625 1.9335937,-1.0429688 0,-0.058594 -0.035156,-0.1054687 -0.1054687,-0.1054687 -0.011719,0 -0.035156,0 -0.082031,0.023437 -0.1992187,0.09375 -0.6796875,0.2929687 -1.3476562,0.2929687 -0.3984375,0 -0.8554688,-0.070312 -1.3242188,-0.28125 -0.082031,-0.023437 -0.1054687,-0.023437 -0.1289062,-0.023437 -0.09375,0 -0.09375,0.082031 -0.09375,0.234375 v 2.953125 c 0,0.1757813 0,0.2578125 0.140625,0.2578125 0.070312,0 0.082031,-0.035156 0.1289062,-0.09375 C 1.3825313,-3.4229375 1.7575313,-3.962 2.5544063,-3.962 c 0.5273437,0 0.7734375,0.4570312 0.8554687,0.6328125 0.1523438,0.375 0.1757813,0.7617187 0.1757813,1.2539062 0,0.3515625 0,0.9492188 -0.234375,1.3710938 -0.2460938,0.38671875 -0.609375,0.64453125 -1.0664063,0.64453125 -0.7265625,0 -1.30078125,-0.52734375 -1.46484375,-1.11328125 0.0234375,0.011719 0.0585938,0.011719 0.1640625,0.011719 0.32812505,0 0.50390625,-0.2460937 0.50390625,-0.4804687 0,-0.2460938 -0.1757812,-0.4921875 -0.50390625,-0.4921875 -0.140625,0 -0.48046875,0.070312 -0.48046875,0.5273437 0,0.8554688 0.6796875,1.82812505 1.7929688,1.82812505 1.1601562,0 2.1796875,-0.9609375 2.1796875,-2.22656285 z m 0,0"
       style="fill:#ffffff;fill-opacity:1;fill-rule:nonzero;stroke:none"
       aria-label="5"
       transform="matrix(1.3333333,0,0,1.3333333,63.016,50.782667)" />
    <path
       id="path76"
       d="m 1.3126094,-3.2685781 v -0.234375 c 0,-2.5195313 1.2421875,-2.8828125 1.7460937,-2.8828125 0.234375,0 0.65625,0.058594 0.8789063,0.3984375 -0.1523438,0 -0.5507813,0 -0.5507813,0.4453125 0,0.3164062 0.234375,0.4570312 0.4570313,0.4570312 0.1640625,0 0.4570312,-0.082031 0.4570312,-0.46875 0,-0.5976562 -0.4335937,-1.078125 -1.265625,-1.078125 -1.2773437,0 -2.61328122,1.2890625 -2.61328122,3.4804688 0,2.66015622 1.14843752,3.37499997 2.07421872,3.37499997 1.1132813,0 2.0507813,-0.9375 2.0507813,-2.24999997 0,-1.265625 -0.8789063,-2.2265625 -1.9921875,-2.2265625 -0.6679688,0 -1.0429688,0.5039062 -1.2421875,0.984375 z m 1.1835937,3.21093747 c -0.6210937,0 -0.9257812,-0.59765625 -0.984375,-0.75 C 1.3360469,-1.2763906 1.3360469,-2.0732656 1.3360469,-2.2490469 c 0,-0.7734375 0.3164062,-1.7695312 1.21875,-1.7695312 0.1523437,0 0.609375,0 0.9257812,0.609375 0.1757813,0.375 0.1757813,0.8789062 0.1757813,1.3710937 0,0.4804688 0,0.9726563 -0.1640625,1.33593752 -0.3046875,0.59765625 -0.7617188,0.64453125 -0.9960938,0.64453125 z m 0,0"
       style="fill:#ffffff;fill-opacity:1;fill-rule:nonzero;stroke:none"
       aria-label="6"
       transform="matrix(1.3333333,0,0,1.3333333,79.382667,41.334667)" />
    <path
       id="path77"
       d="m 40.62135,205.51436 v -14.17339 l -12.27455,-7.08671 -12.27455,7.08671 v 14.17339 l 12.27455,7.0867 z"
       style="fill:none;stroke:#ffffff;stroke-width:0.3985;stroke-linecap:butt;stroke-linejoin:miter;stroke-miterlimit:10;stroke-dasharray:none;stroke-opacity:1"
       transform="matrix(1.3333333,0,0,-1.3333333,28.541333,292.172)" />
    <path
       id="path78"
       d="M 40.62135,205.51436 28.3468,184.25426"
       style="fill:none;stroke:#ffffff;stroke-width:0.3985;stroke-linecap:butt;stroke-linejoin:miter;stroke-miterlimit:10;stroke-dasharray:none;stroke-opacity:1"
       transform="matrix(1.3333333,0,0,-1.3333333,28.541333,292.172)" />
    <path
       id="path79"
       d="m 28.3468,184.25426 -12.27455,21.2601"
       style="fill:none;stroke:#ffffff;stroke-width:0.3985;stroke-linecap:butt;stroke-linejoin:miter;stroke-miterlimit:10;stroke-dasharray:none;stroke-opacity:1"
       transform="matrix(1.3333333,0,0,-1.3333333,28.541333,292.172)" />
    <path
       id="path80"
       d="M 40.62135,205.51436 H 16.07225"
       style="fill:none;stroke:#ffffff;stroke-width:0.3985;stroke-linecap:butt;stroke-linejoin:miter;stroke-miterlimit:10;stroke-dasharray:none;stroke-opacity:1"
       transform="matrix(1.3333333,0,0,-1.3333333,28.541333,292.172)" />
  </g>
</svg>
