<?xml version="1.0" encoding="UTF-8" standalone="no"?>
<!-- Created with Inkscape (http://www.inkscape.org/) -->

<svg
   version="1.1"
   id="svg1"
   width="283.85199"
   height="134.08"
   viewBox="0 0 283.85199 134.08"
   xmlns="http://www.w3.org/2000/svg"
   xmlns:svg="http://www.w3.org/2000/svg">
  <defs
     id="defs1" />
  <g
     id="g1">
    <path
       id="path1"
       d="m 1.9796484,-3.1644062 c 0,-0.1523438 -0.011719,-0.1523438 -0.1757812,-0.1523438 -0.3515625,0.3164063 -0.90234376,0.3164063 -1.00781251,0.3164063 h -0.0820313 v 0.2226562 h 0.0820313 c 0.1171875,0 0.43359371,-0.011719 0.72656251,-0.140625 v 2.484375 c 0,0.1640625 0,0.2109375 -0.52734376,0.2109375 H 0.74917969 v 0.22265625 c 0.26953121,-0.0234375 0.71484371,-0.0234375 1.00781251,-0.0234375 0.28125,0 0.7265625,0 0.9960937,0.0234375 V -0.223 H 2.5069922 c -0.5273438,0 -0.5273438,-0.046875 -0.5273438,-0.2109375 z m 0,0"
       style="fill:#ffffff;fill-opacity:1;fill-rule:nonzero;stroke:none"
       aria-label="1"
       transform="matrix(1.3333333,0,0,1.3333333,141.88,84.297333)" />
    <path
       id="path2"
       d="M 2.9303359,-0.96039844 H 2.7193984 c -0.011719,0.09375 -0.058594,0.3984375 -0.140625,0.45703125 -0.035156,0.0234375 -0.4570312,0.0234375 -0.5273437,0.0234375 h -0.984375 c 0.328125,-0.24609375 0.703125,-0.515625 0.9960937,-0.71484371 0.4570313,-0.3164063 0.8671875,-0.5976563 0.8671875,-1.125 0,-0.6445313 -0.5976562,-0.9960938 -1.3125,-0.9960938 -0.66796871,0 -1.16015621,0.3867188 -1.16015621,0.8789063 0,0.2578125 0.2109375,0.3046875 0.28125,0.3046875 0.140625,0 0.29296871,-0.09375 0.29296871,-0.2929688 0,-0.1875 -0.12890621,-0.28125 -0.28124996,-0.2929687 0.140625,-0.234375 0.43359376,-0.375 0.76171876,-0.375 0.4804687,0 0.890625,0.28125 0.890625,0.7734375 0,0.421875 -0.2929688,0.7382812 -0.6796875,1.0546875 l -1.20703126,1.03124996 c -0.046875,0.046875 -0.0585938,0.046875 -0.0585938,0.0820313 V 5.390625e-4 H 2.7662734 Z m 0,0"
       style="fill:#ffffff;fill-opacity:1;fill-rule:nonzero;stroke:none"
       aria-label="2"
       transform="matrix(1.3333333,0,0,1.3333333,161.51867,95.636)" />
    <path
       id="path3"
       d="m 1.6412734,-1.6529687 c 0.4570313,0 0.7617188,0.2929687 0.7617188,0.7851562 0,0.50390625 -0.3046875,0.7734375 -0.75,0.7734375 -0.058594,0 -0.65625001,0 -0.90234376,-0.2578125 0.19921875,-0.0351563 0.25781246,-0.1875 0.25781246,-0.3046875 0,-0.1875 -0.14062496,-0.3046875 -0.30468746,-0.3046875 -0.15234375,0 -0.3046875,0.10546875 -0.3046875,0.31640625 0,0.515625 0.5859375,0.75 1.26562496,0.75 0.8203125,0 1.3242188,-0.4921875 1.3242188,-0.97265625 0,-0.4101562 -0.3632813,-0.7617187 -0.9257813,-0.890625 0.5976563,-0.1875 0.75,-0.5625 0.75,-0.84375 0,-0.4101562 -0.5039062,-0.7148437 -1.1367187,-0.7148437 -0.609375,0 -1.10156251,0.2578125 -1.10156251,0.703125 0,0.234375 0.1875,0.2929687 0.28125,0.2929687 0.140625,0 0.28125001,-0.1054687 0.28125001,-0.28125 0,-0.1171875 -0.058594,-0.2578125 -0.23437501,-0.28125 0.21093751,-0.234375 0.65625001,-0.2460937 0.76171871,-0.2460937 0.3632813,0 0.6210938,0.1875 0.6210938,0.5273437 0,0.28125 -0.1875,0.7382813 -0.7148438,0.7734375 -0.140625,0 -0.1523437,0 -0.28125,0.011719 -0.058594,0 -0.1171875,0.011719 -0.1171875,0.082031 0,0.082031 0.058594,0.082031 0.140625,0.082031 z m 0,0"
       style="fill:#ffffff;fill-opacity:1;fill-rule:nonzero;stroke:none"
       aria-label="3"
       transform="matrix(1.3333333,0,0,1.3333333,161.51867,118.31333)" />
    <path
       id="path4"
       d="M 3.0694922,-0.80833594 V -1.0309922 H 2.4483984 v -2.1914062 c 0,-0.1171875 0,-0.1523438 -0.1289062,-0.1523438 -0.1054688,0 -0.1054688,0.011719 -0.1640625,0.082031 l -1.83984376,2.2617187 v 0.22265626 H 1.9679297 v 0.38671875 c 0,0.15234375 0,0.19921875 -0.4335938,0.19921875 H 1.3585547 V 2.578125e-4 c 0.234375,-0.0117187525 0.5625,-0.0234375025 0.8554687,-0.0234375025 0.28125,0 0.609375,0.01171875 0.84375,0.0234375025 V -0.22239844 H 2.8819922 c -0.4335938,0 -0.4335938,-0.046875 -0.4335938,-0.19921875 V -0.80833594 Z M 2.0148047,-2.8356797 v 1.8046875 H 0.54996094 Z m 0,0"
       style="fill:#ffffff;fill-opacity:1;fill-rule:nonzero;stroke:none"
       aria-label="4"
       transform="matrix(1.3333333,0,0,1.3333333,141.88,129.652)" />
    <path
       id="path5"
       d="m 0.97329688,-2.7428125 c 0.26953122,0.058594 0.49218752,0.058594 0.55078122,0.058594 0.3398438,0 0.5859375,-0.09375 0.7148438,-0.1640625 0.1171875,-0.058594 0.4570312,-0.2695313 0.4570312,-0.3867188 0,-0.070312 -0.058594,-0.082031 -0.070312,-0.082031 -0.011719,0 -0.023437,0 -0.070312,0.023437 -0.1992187,0.070312 -0.5039062,0.140625 -0.8320312,0.140625 -0.28125,0 -0.5625,-0.058594 -0.82031252,-0.140625 -0.0585938,-0.023437 -0.0703125,-0.023437 -0.0703125,-0.023437 -0.0703125,0 -0.0703125,0.058594 -0.0703125,0.140625 v 1.4882812 c 0,0.09375 0,0.1523438 0.09375,0.1523438 0.046875,0 0.0585938,-0.011719 0.10546875,-0.058594 C 1.1490781,-1.8170312 1.4068906,-1.9225 1.7467344,-1.9225 c 0.2929687,0 0.4453125,0.1640625 0.515625,0.2695313 0.1171875,0.1640625 0.140625,0.3867187 0.140625,0.6328125 0,0.21093745 -0.011719,0.49218745 -0.2109375,0.67968745 -0.2226563,0.234375 -0.5039063,0.24609375 -0.6210938,0.24609375 -0.3164062,0 -0.67968747,-0.140625 -0.84374997,-0.43359375 0.2109375,-0.0117188 0.28124997,-0.1640625 0.28124997,-0.28125 0,-0.15234375 -0.11718747,-0.28124995 -0.28124997,-0.28124995 -0.10546875,0 -0.26953125,0.070312 -0.26953125,0.2929687 0,0.4921875 0.46875,0.90234375 1.12500002,0.90234375 0.7382812,0 1.3476562,-0.4921875 1.3476562,-1.11328125 0,-0.5625 -0.4804687,-1.0898437 -1.171875,-1.0898437 -0.3164062,0 -0.5625,0.082031 -0.78515622,0.2460937 z m 0,0"
       style="fill:#ffffff;fill-opacity:1;fill-rule:nonzero;stroke:none"
       aria-label="5"
       transform="matrix(1.3333333,0,0,1.3333333,122.24133,118.31333)" />
    <path
       id="path6"
       d="m 0.92642188,-1.6283672 c 0,-0.234375 0.0117188,-0.6328125 0.18750002,-0.9492187 0.1523437,-0.2695313 0.46875,-0.5507813 0.9375,-0.5507813 0.09375,0 0.3164062,0.011719 0.46875,0.1289063 -0.082031,0.023437 -0.2109375,0.09375 -0.2109375,0.2695312 0,0.1523438 0.1171875,0.2578125 0.2578125,0.2578125 0.09375,0 0.2695312,-0.046875 0.2695312,-0.28125 0,-0.2695312 -0.1875,-0.5625 -0.796875,-0.5625 -0.8554687,0 -1.64062497,0.703125 -1.64062497,1.734375 0,1.18359376 0.5859375,1.68750001 1.31249997,1.68750001 0.4921875,0 0.7265625,-0.17578125 0.890625,-0.31640625 0.3164063,-0.26953125 0.3867188,-0.5625 0.3867188,-0.80859376 0,-0.3046875 -0.09375,-0.5507812 -0.3632813,-0.7734375 -0.2109375,-0.1992187 -0.4453125,-0.3398437 -0.8789062,-0.3398437 -0.28125,0 -0.609375,0.140625 -0.82031252,0.5039062 z m 0.78515622,1.53515626 c -0.77343747,0 -0.77343747,-0.83203125 -0.77343747,-1.03124996 0,-0.3867188 0.28124997,-0.8320313 0.79687497,-0.8320313 0.2578125,0 0.421875,0.058594 0.5742188,0.2578125 0.1523437,0.1875 0.1523437,0.3984375 0.1523437,0.6679688 0,0.29296871 0,0.48046871 -0.1640625,0.67968746 -0.140625,0.1640625 -0.3046875,0.2578125 -0.5859375,0.2578125 z m 0,0"
       style="fill:#ffffff;fill-opacity:1;fill-rule:nonzero;stroke:none"
       aria-label="6"
       transform="matrix(1.3333333,0,0,1.3333333,122.24133,95.636)" />
    <path
       id="path7"
       d="M 0,14.17339 12.27454,7.08669 V -7.08669 L 0,-14.17339 -12.27454,-7.08669 V 7.08669 Z"
       style="fill:none;stroke:#ffffff;stroke-width:0.3985;stroke-linecap:butt;stroke-linejoin:miter;stroke-miterlimit:10;stroke-dasharray:none;stroke-opacity:1"
       transform="matrix(1.3333333,0,0,-1.3333333,144.14,104.83467)" />
    <path
       id="path8"
       d="M 0,14.17339 12.27454,-7.08669"
       style="fill:none;stroke:#ffffff;stroke-width:0.3985;stroke-linecap:butt;stroke-linejoin:miter;stroke-miterlimit:10;stroke-dasharray:none;stroke-opacity:1"
       transform="matrix(1.3333333,0,0,-1.3333333,144.14,104.83467)" />
    <path
       id="path9"
       d="M 12.27454,-7.08669 H -12.27454"
       style="fill:none;stroke:#ffffff;stroke-width:0.3985;stroke-linecap:butt;stroke-linejoin:miter;stroke-miterlimit:10;stroke-dasharray:none;stroke-opacity:1"
       transform="matrix(1.3333333,0,0,-1.3333333,144.14,104.83467)" />
    <path
       id="path10"
       d="M 0,14.17339 -12.27454,-7.08669"
       style="fill:none;stroke:#ffffff;stroke-width:0.3985;stroke-linecap:butt;stroke-linejoin:miter;stroke-miterlimit:10;stroke-dasharray:none;stroke-opacity:1"
       transform="matrix(1.3333333,0,0,-1.3333333,144.14,104.83467)" />
    <path
       id="path11"
       d="m 1.9796484,-3.1637891 c 0,-0.1523437 -0.011719,-0.1523437 -0.1757812,-0.1523437 -0.3515625,0.3164062 -0.90234376,0.3164062 -1.00781251,0.3164062 h -0.0820313 v 0.2226563 h 0.0820313 c 0.1171875,0 0.43359371,-0.011719 0.72656251,-0.140625 v 2.48437499 c 0,0.1640625 0,0.2109375 -0.52734376,0.2109375 H 0.74917969 V 2.734375e-4 C 1.0187109,-0.02316406 1.4640234,-0.02316406 1.7569922,-0.02316406 c 0.28125,0 0.7265625,0 0.9960937,0.0234374975 V -0.22238281 H 2.5069922 c -0.5273438,0 -0.5273438,-0.046875 -0.5273438,-0.2109375 z m 0,0"
       style="fill:#ffffff;fill-opacity:1;fill-rule:nonzero;stroke:none"
       aria-label="1"
       transform="matrix(1.3333333,0,0,1.3333333,141.88,8.7066667)" />
    <path
       id="path12"
       d="M 2.9303359,-0.95978125 H 2.7193984 c -0.011719,0.09375 -0.058594,0.3984375 -0.140625,0.45703125 -0.035156,0.0234375 -0.4570312,0.0234375 -0.5273437,0.0234375 h -0.984375 c 0.328125,-0.24609375 0.703125,-0.515625 0.9960937,-0.7148437 0.4570313,-0.3164063 0.8671875,-0.5976563 0.8671875,-1.125 0,-0.6445313 -0.5976562,-0.9960938 -1.3125,-0.9960938 -0.66796871,0 -1.16015621,0.3867188 -1.16015621,0.8789063 0,0.2578125 0.2109375,0.3046875 0.28125,0.3046875 0.140625,0 0.29296871,-0.09375 0.29296871,-0.2929688 0,-0.1875 -0.12890621,-0.28125 -0.28124996,-0.2929687 0.140625,-0.234375 0.43359376,-0.375 0.76171876,-0.375 0.4804687,0 0.890625,0.28125 0.890625,0.7734375 0,0.421875 -0.2929688,0.7382812 -0.6796875,1.0546875 l -1.20703126,1.03124995 c -0.046875,0.046875 -0.0585938,0.046875 -0.0585938,0.0820313 v 0.1523437 H 2.7662734 Z m 0,0"
       style="fill:#ffffff;fill-opacity:1;fill-rule:nonzero;stroke:none"
       aria-label="2"
       transform="matrix(1.3333333,0,0,1.3333333,161.51867,20.045333)" />
    <path
       id="path13"
       d="m 1.6412734,-1.6523516 c 0.4570313,0 0.7617188,0.2929688 0.7617188,0.78515629 0,0.50390625 -0.3046875,0.7734375 -0.75,0.7734375 -0.058594,0 -0.65625001,0 -0.90234376,-0.2578125 0.19921875,-0.0351563 0.25781246,-0.1875 0.25781246,-0.3046875 0,-0.1875 -0.14062496,-0.3046875 -0.30468746,-0.3046875 -0.15234375,0 -0.3046875,0.10546875 -0.3046875,0.31640625 0,0.515625 0.5859375,0.75 1.26562496,0.75 0.8203125,0 1.3242188,-0.4921875 1.3242188,-0.97265625 0,-0.41015629 -0.3632813,-0.76171879 -0.9257813,-0.89062499 0.5976563,-0.1875 0.75,-0.5625 0.75,-0.84375 0,-0.4101563 -0.5039062,-0.7148438 -1.1367187,-0.7148438 -0.609375,0 -1.10156251,0.2578125 -1.10156251,0.703125 0,0.234375 0.1875,0.2929688 0.28125,0.2929688 0.140625,0 0.28125001,-0.1054688 0.28125001,-0.28125 0,-0.1171875 -0.058594,-0.2578125 -0.23437501,-0.28125 0.21093751,-0.234375 0.65625001,-0.2460938 0.76171871,-0.2460938 0.3632813,0 0.6210938,0.1875 0.6210938,0.5273438 0,0.28125 -0.1875,0.7382812 -0.7148438,0.7734375 -0.140625,0 -0.1523437,0 -0.28125,0.011719 -0.058594,0 -0.1171875,0.011719 -0.1171875,0.082031 0,0.082031 0.058594,0.082031 0.140625,0.082031 z m 0,0"
       style="fill:#ffffff;fill-opacity:1;fill-rule:nonzero;stroke:none"
       aria-label="3"
       transform="matrix(1.3333333,0,0,1.3333333,161.51867,42.722667)" />
    <path
       id="path14"
       d="M 3.0694922,-0.80771875 V -1.030375 H 2.4483984 v -2.1914062 c 0,-0.1171875 0,-0.1523438 -0.1289062,-0.1523438 -0.1054688,0 -0.1054688,0.011719 -0.1640625,0.082031 l -1.83984376,2.261719 v 0.22265625 H 1.9679297 V -0.421 c 0,0.15234375 0,0.19921875 -0.4335938,0.19921875 H 1.3585547 V 8.75e-4 c 0.234375,-0.01171875 0.5625,-0.0234375 0.8554687,-0.0234375 0.28125,0 0.609375,0.01171875 0.84375,0.0234375 V -0.22178125 H 2.8819922 c -0.4335938,0 -0.4335938,-0.046875 -0.4335938,-0.19921875 V -0.80771875 Z M 2.0148047,-2.8350625 V -1.030375 H 0.54996094 Z m 0,0"
       style="fill:#ffffff;fill-opacity:1;fill-rule:nonzero;stroke:none"
       aria-label="4"
       transform="matrix(1.3333333,0,0,1.3333333,141.88,54.061333)" />
    <path
       id="path15"
       d="m 0.97329688,-2.7421953 c 0.26953122,0.058594 0.49218752,0.058594 0.55078122,0.058594 0.3398438,0 0.5859375,-0.09375 0.7148438,-0.1640625 0.1171875,-0.058594 0.4570312,-0.2695312 0.4570312,-0.3867187 0,-0.070312 -0.058594,-0.082031 -0.070312,-0.082031 -0.011719,0 -0.023437,0 -0.070312,0.023437 -0.1992187,0.070312 -0.5039062,0.140625 -0.8320312,0.140625 -0.28125,0 -0.5625,-0.058594 -0.82031252,-0.140625 -0.0585938,-0.023437 -0.0703125,-0.023437 -0.0703125,-0.023437 -0.0703125,0 -0.0703125,0.058594 -0.0703125,0.140625 v 1.4882813 c 0,0.09375 0,0.1523437 0.09375,0.1523437 0.046875,0 0.0585938,-0.011719 0.10546875,-0.058594 0.18749997,-0.2226563 0.44531247,-0.328125 0.78515627,-0.328125 0.2929687,0 0.4453125,0.1640625 0.515625,0.2695312 0.1171875,0.1640625 0.140625,0.3867188 0.140625,0.6328125 0,0.21093754 -0.011719,0.49218754 -0.2109375,0.67968754 -0.2226563,0.234375 -0.5039063,0.24609375 -0.6210938,0.24609375 -0.3164062,0 -0.67968747,-0.140625 -0.84374997,-0.43359375 0.2109375,-0.0117188 0.28124997,-0.1640625 0.28124997,-0.28125 0,-0.15234375 -0.11718747,-0.28125004 -0.28124997,-0.28125004 -0.10546875,0 -0.26953125,0.070312 -0.26953125,0.29296879 0,0.4921875 0.46875,0.90234375 1.12500002,0.90234375 0.7382812,0 1.3476562,-0.4921875 1.3476562,-1.11328124 0,-0.5625 -0.4804687,-1.0898438 -1.171875,-1.0898438 -0.3164062,0 -0.5625,0.082031 -0.78515622,0.2460938 z m 0,0"
       style="fill:#ffffff;fill-opacity:1;fill-rule:nonzero;stroke:none"
       aria-label="5"
       transform="matrix(1.3333333,0,0,1.3333333,122.24133,42.722667)" />
    <path
       id="path16"
       d="m 0.92642188,-1.62775 c 0,-0.234375 0.0117188,-0.6328125 0.18750002,-0.9492187 0.1523437,-0.2695313 0.46875,-0.5507813 0.9375,-0.5507813 0.09375,0 0.3164062,0.011719 0.46875,0.1289063 -0.082031,0.023437 -0.2109375,0.09375 -0.2109375,0.2695312 0,0.1523438 0.1171875,0.2578125 0.2578125,0.2578125 0.09375,0 0.2695312,-0.046875 0.2695312,-0.28125 0,-0.2695312 -0.1875,-0.5625 -0.796875,-0.5625 -0.8554687,0 -1.64062497,0.703125 -1.64062497,1.734375 0,1.18359375 0.5859375,1.6875 1.31249997,1.6875 0.4921875,0 0.7265625,-0.17578125 0.890625,-0.31640625 0.3164063,-0.26953125 0.3867188,-0.5625 0.3867188,-0.80859375 0,-0.3046875 -0.09375,-0.5507812 -0.3632813,-0.7734375 -0.2109375,-0.1992187 -0.4453125,-0.3398437 -0.8789062,-0.3398437 -0.28125,0 -0.609375,0.140625 -0.82031252,0.5039062 z m 0.78515622,1.53515625 c -0.77343747,0 -0.77343747,-0.83203125 -0.77343747,-1.03124995 0,-0.3867188 0.28124997,-0.8320313 0.79687497,-0.8320313 0.2578125,0 0.421875,0.058594 0.5742188,0.2578125 0.1523437,0.1875 0.1523437,0.3984375 0.1523437,0.6679688 0,0.2929687 0,0.4804687 -0.1640625,0.67968745 -0.140625,0.1640625 -0.3046875,0.2578125 -0.5859375,0.2578125 z m 0,0"
       style="fill:#ffffff;fill-opacity:1;fill-rule:nonzero;stroke:none"
       aria-label="6"
       transform="matrix(1.3333333,0,0,1.3333333,122.24133,20.045333)" />
    <path
       id="path17"
       d="M 0,70.867 12.27454,63.7803 V 49.60692 L 0,42.52022 -12.27454,49.60692 V 63.7803 Z"
       style="fill:none;stroke:#ffffff;stroke-width:0.3985;stroke-linecap:butt;stroke-linejoin:miter;stroke-miterlimit:10;stroke-dasharray:none;stroke-opacity:1"
       transform="matrix(1.3333333,0,0,-1.3333333,144.14,104.83467)" />
    <path
       id="path18"
       d="M 0,70.867 12.27454,49.60692"
       style="fill:none;stroke:#ffffff;stroke-width:0.3985;stroke-linecap:butt;stroke-linejoin:miter;stroke-miterlimit:10;stroke-dasharray:none;stroke-opacity:1"
       transform="matrix(1.3333333,0,0,-1.3333333,144.14,104.83467)" />
    <path
       id="path19"
       d="M 0,70.867 V 42.52022"
       style="fill:none;stroke:#ffffff;stroke-width:0.3985;stroke-linecap:butt;stroke-linejoin:miter;stroke-miterlimit:10;stroke-dasharray:none;stroke-opacity:1"
       transform="matrix(1.3333333,0,0,-1.3333333,144.14,104.83467)" />
    <path
       id="path20"
       d="M 0,70.867 -12.27454,49.60692"
       style="fill:none;stroke:#ffffff;stroke-width:0.3985;stroke-linecap:butt;stroke-linejoin:miter;stroke-miterlimit:10;stroke-dasharray:none;stroke-opacity:1"
       transform="matrix(1.3333333,0,0,-1.3333333,144.14,104.83467)" />
    <path
       id="path21"
       d="m 1.9815391,-3.1639609 c 0,-0.1523438 -0.011719,-0.1523438 -0.1757813,-0.1523438 -0.3515625,0.3164063 -0.90234374,0.3164063 -1.00781249,0.3164063 h -0.0820313 v 0.2226562 h 0.0820313 c 0.1171875,0 0.43359379,-0.011719 0.72656249,-0.140625 v 2.48437501 c 0,0.1640625 0,0.2109375 -0.52734374,0.2109375 H 0.75107031 V 1.015625e-4 C 1.0206016,-0.02333594 1.4659141,-0.02333594 1.7588828,-0.02333594 c 0.28125,0 0.7265625,0 0.9960938,0.0234375025 V -0.22255469 H 2.5088828 c -0.5273437,0 -0.5273437,-0.046875 -0.5273437,-0.2109375 z m 0,0"
       style="fill:#ffffff;fill-opacity:1;fill-rule:nonzero;stroke:none"
       aria-label="1"
       transform="matrix(1.3333333,0,0,1.3333333,28.494667,27.605333)" />
    <path
       id="path22"
       d="M 2.9292969,-0.95995313 H 2.7183594 c -0.011719,0.09375 -0.058594,0.3984375 -0.140625,0.45703125 -0.035156,0.0234375 -0.4570313,0.0234375 -0.5273438,0.0234375 h -0.984375 c 0.328125,-0.24609375 0.703125,-0.515625 0.9960938,-0.71484372 0.4570312,-0.3164063 0.8671875,-0.5976563 0.8671875,-1.125 0,-0.6445313 -0.5976563,-0.9960938 -1.3125,-0.9960938 -0.66796877,0 -1.16015627,0.3867188 -1.16015627,0.8789063 0,0.2578125 0.2109375,0.3046875 0.28125,0.3046875 0.140625,0 0.29296877,-0.09375 0.29296877,-0.2929688 0,-0.1875 -0.12890627,-0.28125 -0.28125002,-0.2929687 0.140625,-0.234375 0.43359372,-0.375 0.76171872,-0.375 0.4804688,0 0.890625,0.28125 0.890625,0.7734375 0,0.421875 -0.2929687,0.7382812 -0.6796875,1.0546875 l -1.20703122,1.03124997 c -0.046875,0.046875 -0.0585938,0.046875 -0.0585938,0.0820313 V 9.84375e-4 H 2.7652344 Z m 0,0"
       style="fill:#ffffff;fill-opacity:1;fill-rule:nonzero;stroke:none"
       aria-label="2"
       transform="matrix(1.3333333,0,0,1.3333333,48.133333,38.944)" />
    <path
       id="path23"
       d="m 1.6402344,-1.6525234 c 0.4570312,0 0.7617187,0.2929687 0.7617187,0.78515621 0,0.50390625 -0.3046875,0.7734375 -0.75,0.7734375 -0.058594,0 -0.65624997,0 -0.90234372,-0.2578125 0.19921875,-0.0351563 0.25781252,-0.1875 0.25781252,-0.3046875 0,-0.1875 -0.14062502,-0.3046875 -0.30468752,-0.3046875 -0.15234375,0 -0.3046875,0.10546875 -0.3046875,0.31640625 0,0.515625 0.5859375,0.75 1.26562502,0.75 0.8203125,0 1.3242187,-0.4921875 1.3242187,-0.97265625 0,-0.41015621 -0.3632812,-0.76171871 -0.9257812,-0.89062501 0.5976562,-0.1875 0.75,-0.5625 0.75,-0.84375 0,-0.4101562 -0.5039063,-0.7148437 -1.1367188,-0.7148437 -0.609375,0 -1.10156247,0.2578125 -1.10156247,0.703125 0,0.234375 0.1875,0.2929687 0.28125,0.2929687 0.140625,0 0.28124997,-0.1054687 0.28124997,-0.28125 0,-0.1171875 -0.058594,-0.2578125 -0.23437497,-0.28125 0.21093747,-0.234375 0.65624997,-0.2460937 0.76171877,-0.2460937 0.3632812,0 0.6210937,0.1875 0.6210937,0.5273437 0,0.28125 -0.1875,0.7382813 -0.7148437,0.7734375 -0.140625,0 -0.1523438,0 -0.28125,0.011719 -0.058594,0 -0.1171875,0.011719 -0.1171875,0.082031 0,0.082031 0.058594,0.082031 0.140625,0.082031 z m 0,0"
       style="fill:#ffffff;fill-opacity:1;fill-rule:nonzero;stroke:none"
       aria-label="3"
       transform="matrix(1.3333333,0,0,1.3333333,48.133333,61.621333)" />
    <path
       id="path24"
       d="M 3.0713828,-0.80789062 V -1.0305469 H 2.4502891 v -2.1914062 c 0,-0.1171875 0,-0.1523438 -0.1289063,-0.1523438 -0.1054687,0 -0.1054687,0.011719 -0.1640625,0.082031 l -1.83984374,2.2617187 v 0.22265628 H 1.9698203 v 0.38671875 c 0,0.15234375 0,0.19921875 -0.4335937,0.19921875 H 1.3604453 V 7.03125e-4 c 0.234375,-0.011718745 0.5625,-0.023437495 0.8554688,-0.023437495 0.28125,0 0.609375,0.01171875 0.84375,0.023437495 V -0.22195312 H 2.8838828 c -0.4335937,0 -0.4335937,-0.046875 -0.4335937,-0.19921875 V -0.80789062 Z M 2.0166953,-2.8352344 v 1.8046875 H 0.55185156 Z m 0,0"
       style="fill:#ffffff;fill-opacity:1;fill-rule:nonzero;stroke:none"
       aria-label="4"
       transform="matrix(1.3333333,0,0,1.3333333,28.494667,72.96)" />
    <path
       id="path25"
       d="m 0.97225781,-2.7423672 c 0.26953129,0.058594 0.49218749,0.058594 0.55078129,0.058594 0.3398437,0 0.5859375,-0.09375 0.7148437,-0.1640625 0.1171875,-0.058594 0.4570313,-0.2695313 0.4570313,-0.3867188 0,-0.070312 -0.058594,-0.082031 -0.070312,-0.082031 -0.011719,0 -0.023437,0 -0.070312,0.023437 -0.1992188,0.070312 -0.5039063,0.140625 -0.8320313,0.140625 -0.28125,0 -0.5625,-0.058594 -0.82031249,-0.140625 -0.0585938,-0.023437 -0.0703125,-0.023437 -0.0703125,-0.023437 -0.0703125,0 -0.0703125,0.058594 -0.0703125,0.140625 v 1.4882812 c 0,0.09375 0,0.1523438 0.09375,0.1523438 0.046875,0 0.0585938,-0.011719 0.10546875,-0.058594 0.18750004,-0.2226562 0.44531254,-0.328125 0.78515624,-0.328125 0.2929688,0 0.4453125,0.1640625 0.515625,0.2695313 0.1171875,0.1640625 0.140625,0.3867187 0.140625,0.6328125 0,0.21093746 -0.011719,0.49218746 -0.2109375,0.67968746 -0.2226562,0.234375 -0.5039062,0.24609375 -0.6210937,0.24609375 -0.3164063,0 -0.67968754,-0.140625 -0.84375004,-0.43359375 0.2109375,-0.0117188 0.28125004,-0.1640625 0.28125004,-0.28125 0,-0.15234375 -0.11718754,-0.28124996 -0.28125004,-0.28124996 -0.10546875,0 -0.26953125,0.070312 -0.26953125,0.29296871 0,0.4921875 0.46875,0.90234375 1.12499999,0.90234375 0.7382813,0 1.3476563,-0.4921875 1.3476563,-1.11328126 0,-0.5625 -0.4804688,-1.0898437 -1.171875,-1.0898437 -0.3164063,0 -0.5625,0.082031 -0.78515629,0.2460937 z m 0,0"
       style="fill:#ffffff;fill-opacity:1;fill-rule:nonzero;stroke:none"
       aria-label="5"
       transform="matrix(1.3333333,0,0,1.3333333,8.856,61.621333)" />
    <path
       id="path26"
       d="m 0.92538281,-1.6279219 c 0,-0.234375 0.0117188,-0.6328125 0.18749999,-0.9492187 0.1523438,-0.2695313 0.46875,-0.5507813 0.9375,-0.5507813 0.09375,0 0.3164063,0.011719 0.46875,0.1289063 -0.082031,0.023437 -0.2109375,0.09375 -0.2109375,0.2695312 0,0.1523438 0.1171875,0.2578125 0.2578125,0.2578125 0.09375,0 0.2695313,-0.046875 0.2695313,-0.28125 0,-0.2695312 -0.1875,-0.5625 -0.796875,-0.5625 -0.8554688,0 -1.64062504,0.703125 -1.64062504,1.734375 0,1.18359377 0.5859375,1.68750002 1.31250004,1.68750002 0.4921875,0 0.7265625,-0.17578125 0.890625,-0.31640625 0.3164062,-0.26953125 0.3867187,-0.5625 0.3867187,-0.80859377 0,-0.3046875 -0.09375,-0.5507812 -0.3632812,-0.7734375 -0.2109375,-0.1992187 -0.4453125,-0.3398437 -0.8789063,-0.3398437 -0.28125,0 -0.609375,0.140625 -0.82031249,0.5039062 z m 0.78515629,1.53515627 c -0.77343754,0 -0.77343754,-0.83203125 -0.77343754,-1.03124997 0,-0.3867188 0.28125004,-0.8320313 0.79687504,-0.8320313 0.2578125,0 0.421875,0.058594 0.5742187,0.2578125 0.1523438,0.1875 0.1523438,0.3984375 0.1523438,0.6679688 0,0.29296872 0,0.48046872 -0.1640625,0.67968747 -0.140625,0.1640625 -0.3046875,0.2578125 -0.5859375,0.2578125 z m 0,0"
       style="fill:#ffffff;fill-opacity:1;fill-rule:nonzero;stroke:none"
       aria-label="6"
       transform="matrix(1.3333333,0,0,1.3333333,8.856,38.944)" />
    <path
       id="path27"
       d="m -85.04042,56.6936 12.27455,-7.08671 V 35.4335 l -12.27455,-7.0867 -12.27455,7.0867 v 14.17339 z"
       style="fill:none;stroke:#ffffff;stroke-width:0.3985;stroke-linecap:butt;stroke-linejoin:miter;stroke-miterlimit:10;stroke-dasharray:none;stroke-opacity:1"
       transform="matrix(1.3333333,0,0,-1.3333333,144.14,104.83467)" />
    <path
       id="path28"
       d="M -85.04042,56.6936 -97.31497,35.4335"
       style="fill:none;stroke:#ffffff;stroke-width:0.3985;stroke-linecap:butt;stroke-linejoin:miter;stroke-miterlimit:10;stroke-dasharray:none;stroke-opacity:1"
       transform="matrix(1.3333333,0,0,-1.3333333,144.14,104.83467)" />
    <path
       id="path29"
       d="M -72.76587,49.60689 -97.31497,35.4335"
       style="fill:none;stroke:#ffffff;stroke-width:0.3985;stroke-linecap:butt;stroke-linejoin:miter;stroke-miterlimit:10;stroke-dasharray:none;stroke-opacity:1"
       transform="matrix(1.3333333,0,0,-1.3333333,144.14,104.83467)" />
    <path
       id="path30"
       d="m -72.76587,35.4335 h -24.5491"
       style="fill:none;stroke:#ffffff;stroke-width:0.3985;stroke-linecap:butt;stroke-linejoin:miter;stroke-miterlimit:10;stroke-dasharray:none;stroke-opacity:1"
       transform="matrix(1.3333333,0,0,-1.3333333,144.14,104.83467)" />
    <path
       id="path31"
       d="m 1.9806875,-3.1639609 c 0,-0.1523438 -0.011719,-0.1523438 -0.1757813,-0.1523438 -0.3515625,0.3164063 -0.9023437,0.3164063 -1.00781245,0.3164063 H 0.7150625 v 0.2226562 h 0.0820313 c 0.1171875,0 0.4335937,-0.011719 0.7265625,-0.140625 v 2.48437501 c 0,0.1640625 0,0.2109375 -0.52734375,0.2109375 H 0.75021875 V 1.015625e-4 C 1.01975,-0.02333594 1.4650625,-0.02333594 1.7580312,-0.02333594 c 0.28125,0 0.7265625,0 0.9960938,0.0234375025 V -0.22255469 H 2.5080312 c -0.5273437,0 -0.5273437,-0.046875 -0.5273437,-0.2109375 z m 0,0"
       style="fill:#ffffff;fill-opacity:1;fill-rule:nonzero;stroke:none"
       aria-label="1"
       transform="matrix(1.3333333,0,0,1.3333333,255.26533,27.605333)" />
    <path
       id="path32"
       d="M 2.9284453,-0.95995313 H 2.7175078 c -0.011719,0.09375 -0.058594,0.3984375 -0.140625,0.45703125 -0.035156,0.0234375 -0.4570312,0.0234375 -0.5273437,0.0234375 h -0.984375 c 0.328125,-0.24609375 0.703125,-0.515625 0.9960937,-0.71484372 0.4570313,-0.3164063 0.8671875,-0.5976563 0.8671875,-1.125 0,-0.6445313 -0.5976562,-0.9960938 -1.3125,-0.9960938 -0.66796874,0 -1.16015624,0.3867188 -1.16015624,0.8789063 0,0.2578125 0.2109375,0.3046875 0.28125,0.3046875 0.140625,0 0.29296874,-0.09375 0.29296874,-0.2929688 0,-0.1875 -0.12890624,-0.28125 -0.28124999,-0.2929687 0.140625,-0.234375 0.43359379,-0.375 0.76171879,-0.375 0.4804687,0 0.890625,0.28125 0.890625,0.7734375 0,0.421875 -0.2929688,0.7382812 -0.6796875,1.0546875 l -1.20703129,1.03124997 c -0.046875,0.046875 -0.0585937,0.046875 -0.0585937,0.0820313 V 9.84375e-4 H 2.7643828 Z m 0,0"
       style="fill:#ffffff;fill-opacity:1;fill-rule:nonzero;stroke:none"
       aria-label="2"
       transform="matrix(1.3333333,0,0,1.3333333,274.904,38.944)" />
    <path
       id="path33"
       d="m 1.6393828,-1.6525234 c 0.4570313,0 0.7617188,0.2929687 0.7617188,0.78515621 0,0.50390625 -0.3046875,0.7734375 -0.75,0.7734375 -0.058594,0 -0.65625004,0 -0.90234379,-0.2578125 0.19921875,-0.0351563 0.25781249,-0.1875 0.25781249,-0.3046875 0,-0.1875 -0.14062499,-0.3046875 -0.30468749,-0.3046875 -0.15234375,0 -0.3046875,0.10546875 -0.3046875,0.31640625 0,0.515625 0.5859375,0.75 1.26562499,0.75 0.8203125,0 1.3242188,-0.4921875 1.3242188,-0.97265625 0,-0.41015621 -0.3632813,-0.76171871 -0.9257813,-0.89062501 0.5976563,-0.1875 0.75,-0.5625 0.75,-0.84375 0,-0.4101562 -0.5039062,-0.7148437 -1.1367187,-0.7148437 -0.609375,0 -1.10156254,0.2578125 -1.10156254,0.703125 0,0.234375 0.1875,0.2929687 0.28125,0.2929687 0.140625,0 0.28125004,-0.1054687 0.28125004,-0.28125 0,-0.1171875 -0.058594,-0.2578125 -0.23437504,-0.28125 0.21093754,-0.234375 0.65625004,-0.2460937 0.76171874,-0.2460937 0.3632813,0 0.6210938,0.1875 0.6210938,0.5273437 0,0.28125 -0.1875,0.7382813 -0.7148438,0.7734375 -0.140625,0 -0.1523437,0 -0.28125,0.011719 -0.058594,0 -0.1171875,0.011719 -0.1171875,0.082031 0,0.082031 0.058594,0.082031 0.140625,0.082031 z m 0,0"
       style="fill:#ffffff;fill-opacity:1;fill-rule:nonzero;stroke:none"
       aria-label="3"
       transform="matrix(1.3333333,0,0,1.3333333,274.904,61.621333)" />
    <path
       id="path34"
       d="M 3.0705312,-0.80789062 V -1.0305469 H 2.4494375 v -2.1914062 c 0,-0.1171875 0,-0.1523438 -0.1289063,-0.1523438 -0.1054687,0 -0.1054687,0.011719 -0.1640625,0.082031 l -1.8398437,2.261719 v 0.22265628 h 1.6523437 v 0.38671875 c 0,0.15234375 0,0.19921875 -0.4335937,0.19921875 H 1.3595937 V 7.03125e-4 c 0.234375,-0.011718745 0.5625,-0.023437495 0.8554688,-0.023437495 0.28125,0 0.609375,0.01171875 0.84375,0.023437495 V -0.22195312 H 2.8830312 c -0.4335937,0 -0.4335937,-0.046875 -0.4335937,-0.19921875 V -0.80789062 Z M 2.0158437,-2.8352344 v 1.8046875 H 0.551 Z m 0,0"
       style="fill:#ffffff;fill-opacity:1;fill-rule:nonzero;stroke:none"
       aria-label="4"
       transform="matrix(1.3333333,0,0,1.3333333,255.26533,72.96)" />
    <path
       id="path35"
       d="m 0.97140625,-2.7423672 c 0.26953125,0.058594 0.49218755,0.058594 0.55078125,0.058594 0.3398438,0 0.5859375,-0.09375 0.7148438,-0.1640625 0.1171875,-0.058594 0.4570312,-0.2695313 0.4570312,-0.3867188 0,-0.070312 -0.058594,-0.082031 -0.070312,-0.082031 -0.011719,0 -0.023437,0 -0.070312,0.023437 -0.1992187,0.070312 -0.5039062,0.140625 -0.8320312,0.140625 -0.28125,0 -0.5625,-0.058594 -0.82031255,-0.140625 -0.0585938,-0.023437 -0.0703125,-0.023437 -0.0703125,-0.023437 -0.0703125,0 -0.0703125,0.058594 -0.0703125,0.140625 v 1.4882812 c 0,0.09375 0,0.1523438 0.09375,0.1523438 0.046875,0 0.0585938,-0.011719 0.10546875,-0.058594 0.1875,-0.2226562 0.4453125,-0.328125 0.7851563,-0.328125 0.2929687,0 0.4453125,0.1640625 0.515625,0.2695313 0.1171875,0.1640625 0.140625,0.3867187 0.140625,0.6328125 0,0.21093746 -0.011719,0.49218746 -0.2109375,0.67968746 -0.2226563,0.234375 -0.5039063,0.24609375 -0.6210938,0.24609375 -0.3164062,0 -0.6796875,-0.140625 -0.84375,-0.43359375 0.2109375,-0.0117188 0.28125,-0.1640625 0.28125,-0.28125 0,-0.15234375 -0.1171875,-0.28124996 -0.28125,-0.28124996 -0.10546875,0 -0.26953125,0.070312 -0.26953125,0.29296871 0,0.4921875 0.46875,0.90234375 1.12500005,0.90234375 0.7382812,0 1.3476562,-0.4921875 1.3476562,-1.11328126 0,-0.5625 -0.4804687,-1.0898437 -1.171875,-1.0898437 -0.3164062,0 -0.5625,0.082031 -0.78515625,0.2460937 z m 0,0"
       style="fill:#ffffff;fill-opacity:1;fill-rule:nonzero;stroke:none"
       aria-label="5"
       transform="matrix(1.3333333,0,0,1.3333333,235.62667,61.621333)" />
    <path
       id="path36"
       d="m 0.92453125,-1.6279219 c 0,-0.234375 0.0117188,-0.6328125 0.18750005,-0.9492187 0.1523437,-0.2695313 0.46875,-0.5507813 0.9375,-0.5507813 0.09375,0 0.3164062,0.011719 0.46875,0.1289063 -0.082031,0.023437 -0.2109375,0.09375 -0.2109375,0.2695312 0,0.1523438 0.1171875,0.2578125 0.2578125,0.2578125 0.09375,0 0.2695312,-0.046875 0.2695312,-0.28125 0,-0.2695312 -0.1875,-0.5625 -0.796875,-0.5625 -0.8554687,0 -1.640625,0.703125 -1.640625,1.734375 0,1.18359377 0.5859375,1.68750002 1.3125,1.68750002 0.4921875,0 0.7265625,-0.17578125 0.890625,-0.31640625 0.3164063,-0.26953125 0.3867188,-0.5625 0.3867188,-0.80859377 0,-0.3046875 -0.09375,-0.5507812 -0.3632813,-0.7734375 -0.2109375,-0.1992187 -0.4453125,-0.3398437 -0.8789062,-0.3398437 -0.28125,0 -0.609375,0.140625 -0.82031255,0.5039062 z m 0.78515625,1.53515627 c -0.7734375,0 -0.7734375,-0.83203125 -0.7734375,-1.03124997 0,-0.3867188 0.28125,-0.8320313 0.796875,-0.8320313 0.2578125,0 0.421875,0.058594 0.5742188,0.2578125 0.1523437,0.1875 0.1523437,0.3984375 0.1523437,0.6679688 0,0.29296872 0,0.48046872 -0.1640625,0.67968747 -0.140625,0.1640625 -0.3046875,0.2578125 -0.5859375,0.2578125 z m 0,0"
       style="fill:#ffffff;fill-opacity:1;fill-rule:nonzero;stroke:none"
       aria-label="6"
       transform="matrix(1.3333333,0,0,1.3333333,235.62667,38.944)" />
    <path
       id="path37"
       d="M 85.04042,56.6936 97.31497,49.60689 V 35.4335 L 85.04042,28.3468 72.76587,35.4335 v 14.17339 z"
       style="fill:none;stroke:#ffffff;stroke-width:0.3985;stroke-linecap:butt;stroke-linejoin:miter;stroke-miterlimit:10;stroke-dasharray:none;stroke-opacity:1"
       transform="matrix(1.3333333,0,0,-1.3333333,144.14,104.83467)" />
    <path
       id="path38"
       d="M 85.04042,56.6936 97.31497,35.4335"
       style="fill:none;stroke:#ffffff;stroke-width:0.3985;stroke-linecap:butt;stroke-linejoin:miter;stroke-miterlimit:10;stroke-dasharray:none;stroke-opacity:1"
       transform="matrix(1.3333333,0,0,-1.3333333,144.14,104.83467)" />
    <path
       id="path39"
       d="M 97.31497,35.4335 H 72.76587"
       style="fill:none;stroke:#ffffff;stroke-width:0.3985;stroke-linecap:butt;stroke-linejoin:miter;stroke-miterlimit:10;stroke-dasharray:none;stroke-opacity:1"
       transform="matrix(1.3333333,0,0,-1.3333333,144.14,104.83467)" />
    <path
       id="path40"
       d="M 97.31497,35.4335 72.76587,49.60689"
       style="fill:none;stroke:#ffffff;stroke-width:0.3985;stroke-linecap:butt;stroke-linejoin:miter;stroke-miterlimit:10;stroke-dasharray:none;stroke-opacity:1"
       transform="matrix(1.3333333,0,0,-1.3333333,144.14,104.83467)" />
  </g>
</svg>
