<?xml version="1.0" encoding="UTF-8" standalone="no"?>
<!-- Created with Inkscape (http://www.inkscape.org/) -->

<svg
   version="1.1"
   id="svg1"
   width="183.63867"
   height="87.307999"
   viewBox="0 0 183.63867 87.307999"
   xmlns="http://www.w3.org/2000/svg"
   xmlns:svg="http://www.w3.org/2000/svg">
  <defs
     id="defs1" />
  <g
     id="g1">
    <path
       id="path1"
       d="m 2.9324844,-6.3728594 c 0,-0.234375 0,-0.2578125 -0.234375,-0.2578125 -0.609375,0.6328125 -1.5,0.6328125 -1.80468752,0.6328125 v 0.3046875 c 0.18750002,0 0.77343752,0 1.31250002,-0.2578125 v 5.15625002 c 0,0.375 -0.046875,0.4921875 -0.9375,0.4921875 H 0.94029688 v 0.3046875 c 0.35156252,-0.0234375 1.21875002,-0.0234375 1.61718752,-0.0234375 0.3984375,0 1.265625,0 1.6171875,0.0234375 v -0.3046875 h -0.328125 c -0.890625,0 -0.9140625,-0.1171875 -0.9140625,-0.4921875 z m 0,0"
       style="fill:#ffffff;fill-opacity:1;fill-rule:nonzero;stroke:none"
       aria-label="1"
       transform="matrix(0.66666667,0,0,0.66666667,43.142667,6.4946667)" />
    <path
       id="path2"
       d="m 4.4738125,-1.9897031 c 0,-1.1953125 -0.8203125,-2.203125 -1.8984375,-2.203125 -0.46875,0 -0.9140625,0.1640625 -1.265625,0.515625 v -1.9453125 c 0.2109375,0.070312 0.5390625,0.140625 0.84375,0.140625 1.2421875,0 1.921875,-0.9140625 1.921875,-1.03125 0,-0.070312 -0.023437,-0.1171875 -0.09375,-0.1171875 0,0 -0.023437,0 -0.070312,0.023437 -0.2109375,0.09375 -0.703125,0.3046875 -1.359375,0.3046875 -0.3984375,0 -0.8671875,-0.070312 -1.3359375,-0.28125 -0.070312,-0.046875 -0.09375,-0.046875 -0.1171875,-0.046875 -0.09375,0 -0.09375,0.09375 -0.09375,0.2578125 v 2.9296875 c 0,0.1875 0,0.2578125 0.140625,0.2578125 0.070312,0 0.09375,-0.023437 0.1171875,-0.070312 0.1171875,-0.1640625 0.4921875,-0.703125 1.2890625,-0.703125 0.515625,0 0.7734375,0.4453125 0.84375,0.6328125 0.1640625,0.375 0.1875,0.75 0.1875,1.265625 0,0.328125 0,0.9375 -0.234375,1.35937497 -0.234375,0.375 -0.609375,0.6328125 -1.078125,0.6328125 -0.7265625,0 -1.2890625,-0.515625 -1.453125,-1.10156247 0.0234375,0 0.046875,0.023437 0.1640625,0.023437 0.328125,0 0.4921875,-0.2578125 0.4921875,-0.4921875 0,-0.234375 -0.1640625,-0.4921875 -0.4921875,-0.4921875 -0.140625,0 -0.4921875,0.070312 -0.4921875,0.5390625 0,0.84374997 0.703125,1.80468747 1.8046875,1.80468747 1.1484375,0 2.1796875,-0.9375 2.179687,-2.20312447 z m 0,0"
       style="fill:#ffffff;fill-opacity:1;fill-rule:nonzero;stroke:none"
       aria-label="5"
       transform="matrix(0.66666667,0,0,0.66666667,3.1893333,37.096)" />
    <path
       id="path3"
       d="m 2.9325,-1.6408594 v 0.86718752 c 0,0.3515625 -0.023437,0.46875 -0.75,0.46875 H 1.9715625 V -2.34375e-4 C 2.37,-0.02367188 2.885625,-0.02367188 3.3075,-0.02367188 c 0.421875,0 0.9375,0 1.359375,0.023437505 V -0.30492188 H 4.4559375 c -0.7265625,0 -0.75,-0.1171875 -0.75,-0.46875 V -1.6408594 h 0.984375 v -0.3046875 h -0.984375 v -4.546875 c 0,-0.1875 0,-0.2578125 -0.1640625,-0.2578125 -0.09375,0 -0.1171875,0 -0.2109375,0.1171875 l -3.046875,4.6875 v 0.3046875 z m 0.070312,-0.3046875 h -2.4375 l 2.4375,-3.7265625 z m 0,0"
       style="fill:#ffffff;fill-opacity:1;fill-rule:nonzero;stroke:none"
       aria-label="4"
       transform="matrix(0.66666667,0,0,0.66666667,16.92,83.84)" />
    <path
       id="path4"
       d="m 2.8817344,-3.5158594 c 0.8203125,-0.2578125 1.40625,-0.9609375 1.40625,-1.734375 0,-0.8203125 -0.890625,-1.3828125 -1.828125,-1.3828125 -1.0078125,0 -1.78125003,0.5859375 -1.78125003,1.359375 0,0.328125 0.234375,0.515625 0.51562503,0.515625 0.3046875,0 0.515625,-0.234375 0.515625,-0.515625 0,-0.4921875 -0.46875,-0.4921875 -0.6328125,-0.4921875 0.328125,-0.4921875 0.984375,-0.609375 1.3359375,-0.609375 0.3984375,0 0.9609375,0.2109375 0.9609375,1.1015625 0,0.1171875 -0.023437,0.703125 -0.28125,1.1484375 -0.3046875,0.46875 -0.6328125,0.4921875 -0.890625,0.515625 -0.070312,0 -0.328125,0.023437 -0.3984375,0.023437 -0.070312,0 -0.140625,0.023437 -0.140625,0.1171875 0,0.1171875 0.070312,0.1171875 0.234375,0.1171875 h 0.4453125 c 0.8203125,0 1.171875,0.6796875 1.171875,1.640625 0,1.35937502 -0.6796875,1.64062502 -1.125,1.64062502 -0.421875,0 -1.171875,-0.1640625 -1.52343753,-0.75 0.35156253,0.046875 0.65625003,-0.1640625 0.65625003,-0.53906252 0,-0.375 -0.2578125,-0.5625 -0.53906253,-0.5625 -0.2578125,0 -0.5625,0.140625 -0.5625,0.5859375 0,0.89062502 0.91406253,1.54687502 2.01562503,1.54687502 1.21875,0 2.109375,-0.890625 2.109375,-1.92187502 0,-0.8203125 -0.6328125,-1.59375 -1.6640625,-1.804687 z m 0,0"
       style="fill:#ffffff;fill-opacity:1;fill-rule:nonzero;stroke:none"
       aria-label="3"
       transform="matrix(0.66666667,0,0,0.66666667,69.364,83.84)" />
    <path
       id="path5"
       d="M 1.26425,-0.77095313 2.3189375,-1.8022031 c 1.546875,-1.359375 2.15625,-1.8984375 2.15625,-2.90625 0,-1.125 -0.890625,-1.921875 -2.109375,-1.921875 -1.125,0 -1.875,0.9140625 -1.875,1.8046875 0,0.5625 0.515625,0.5625 0.5390625,0.5625 0.1640625,0 0.515625,-0.1171875 0.515625,-0.5390625 0,-0.2578125 -0.1875,-0.515625 -0.5390625,-0.515625 -0.0703125,0 -0.09375,0 -0.1171875,0 0.234375,-0.6328125 0.7734375,-1.0078125 1.3359375,-1.0078125 0.9140625,0 1.3359375,0.8203125 1.3359375,1.6171875 0,0.796875 -0.4921875,1.59375 -1.03125,2.203125 L 0.608,-0.37251563 c -0.1171875,0.1171875 -0.1171875,0.140625 -0.1171875,0.375 h 3.703125 l 0.28125,-1.73437497 H 4.217375 C 4.1705,-1.4272031 4.1001875,-1.0053281 4.0064375,-0.84126563 3.936125,-0.77095313 3.279875,-0.77095313 3.0455,-0.77095313 Z m 0,0"
       style="fill:#ffffff;fill-opacity:1;fill-rule:nonzero;stroke:none"
       aria-label="2"
       transform="matrix(0.66666667,0,0,0.66666667,83.094667,37.096)" />
    <path
       id="path6"
       d="M 0,28.3468 26.95966,8.75974 16.66179,-22.93315 H -16.66179 L -26.95966,8.75974 Z"
       style="fill:none;stroke:#ffffff;stroke-width:0.3985;stroke-linecap:butt;stroke-linejoin:miter;stroke-miterlimit:10;stroke-dasharray:none;stroke-opacity:1"
       transform="matrix(1.3333333,0,0,-1.3333333,44.802667,46.636)" />
    <path
       id="path7"
       d="M 0,28.3468 16.66179,-22.93315"
       style="fill:none;stroke:#fdde2a;stroke-width:0.3985;stroke-linecap:butt;stroke-linejoin:miter;stroke-miterlimit:10;stroke-dasharray:none;stroke-opacity:1"
       transform="matrix(1.3333333,0,0,-1.3333333,44.802667,46.636)" />
    <g
       id="g7"
       aria-label="∆&#10;13"
       transform="matrix(0.66666667,0,0,0.66666667,56.708,41.233333)">
      <path
         id="path8"
         d="m 4.4047969,-6.959375 c -0.070312,-0.1171875 -0.09375,-0.1640625 -0.2578125,-0.1640625 -0.1640625,0 -0.1875,0.046875 -0.2578125,0.1640625 l -3.37500002,6.75 c -0.046875,0.09375 -0.046875,0.1171875 -0.046875,0.140625 0,0.0703125 0.0703125,0.0703125 0.2109375,0.0703125 H 7.5922969 c 0.1640625,0 0.234375,0 0.234375,-0.0703125 0,-0.0234375 0,-0.046875 -0.046875,-0.140625 z m -0.5859375,0.8203125 2.6953125,5.390625 h -5.390625 z m 0,0"
         style="fill:#ffffff;fill-opacity:1;fill-rule:nonzero;stroke:none" />
      <path
         id="path9"
         d="m 10.645031,-2.9574219 c 0,-0.1875 -0.02344,-0.1875 -0.210937,-0.1875 -0.4453127,0.4453125 -1.0781252,0.4453125 -1.3828127,0.4453125 v 0.2578125 c 0.1875,0 0.6328125,0 1.0312497,-0.1875 v 3.56250002 c 0,0.21093748 0,0.30468748 -0.7031247,0.30468748 H 9.1215938 v 0.2578125 c 0.1171875,0 0.9843752,-0.023437 1.2421872,-0.023437 0.210938,0 1.078125,0.023437 1.242188,0.023437 V 1.2378906 h -0.257813 c -0.703125,0 -0.703125,-0.09375 -0.703125,-0.30468748 z m 3.527344,2.10937502 c 0.5625,0 0.9375,0.3984375 0.9375,1.125 0,0.86718748 -0.492187,1.12499998 -0.890625,1.12499998 -0.28125,0 -0.914062,-0.070312 -1.195312,-0.46874998 0.328125,-0.0234375 0.398437,-0.2578125 0.398437,-0.3984375 0,-0.234375 -0.164062,-0.3984375 -0.375,-0.3984375 -0.210937,0 -0.398437,0.140625 -0.398437,0.421875 0,0.65624998 0.726562,1.07812498 1.570312,1.07812498 0.984375,0 1.640625,-0.65624998 1.640625,-1.35937498 0,-0.5390625 -0.445312,-1.078125 -1.21875,-1.2421875 0.75,-0.25781252 1.007813,-0.79687502 1.007813,-1.21875002 0,-0.5390625 -0.632813,-0.9609375 -1.40625,-0.9609375 -0.773438,0 -1.382813,0.375 -1.382813,0.9375 0,0.234375 0.164063,0.375 0.375,0.375 0.210938,0 0.351563,-0.1640625 0.351563,-0.3515625 0,-0.2109375 -0.140625,-0.3515625 -0.351563,-0.375 0.234375,-0.3046875 0.726563,-0.375 0.984375,-0.375 0.304688,0 0.75,0.140625 0.75,0.75 0,0.3046875 -0.09375,0.609375 -0.28125,0.84375 -0.234375,0.2578125 -0.421875,0.28125 -0.773437,0.3046875 -0.164063,0 -0.1875,0 -0.234375,0 0,0 -0.04687,0.023437 -0.04687,0.09375 0,0.09375 0.04687,0.09375 0.164062,0.09375 z m 0,0"
         style="fill:#ffffff;fill-opacity:1;fill-rule:nonzero;stroke:none" />
    </g>
    <path
       id="path10"
       d="M 0,28.3468 -16.66179,-22.93315"
       style="fill:none;stroke:#ffffff;stroke-width:0.3985;stroke-linecap:butt;stroke-linejoin:miter;stroke-miterlimit:10;stroke-dasharray:none;stroke-opacity:1"
       transform="matrix(1.3333333,0,0,-1.3333333,44.802667,46.636)" />
    <g
       id="g10"
       aria-label="∆&#10;14"
       transform="matrix(0.66666667,0,0,0.66666667,21.736,41.233333)">
      <path
         id="path11"
         d="M 4.4038125,-6.959375 C 4.3335,-7.0765625 4.3100625,-7.1234375 4.146,-7.1234375 c -0.1640625,0 -0.1875,0.046875 -0.2578125,0.1640625 l -3.375,6.75 c -0.046875,0.09375 -0.046875,0.1171875 -0.046875,0.140625 0,0.0703125 0.0703125,0.0703125 0.2109375,0.0703125 h 6.9140625 c 0.1640625,0 0.234375,0 0.234375,-0.0703125 0,-0.0234375 0,-0.046875 -0.046875,-0.140625 z m -0.5859375,0.8203125 2.6953125,5.390625 h -5.390625 z m 0,0"
         style="fill:#ffffff;fill-opacity:1;fill-rule:nonzero;stroke:none" />
      <path
         id="path12"
         d="m 10.644047,-2.9574219 c 0,-0.1875 -0.02344,-0.1875 -0.210938,-0.1875 -0.4453121,0.4453125 -1.0781246,0.4453125 -1.3828121,0.4453125 v 0.2578125 c 0.1875,0 0.6328125,0 1.0312501,-0.1875 v 3.56250002 c 0,0.21093748 0,0.30468748 -0.7031251,0.30468748 H 9.1206094 v 0.2578125 c 0.1171875,0 0.9843746,-0.023437 1.2421876,-0.023437 0.210937,0 1.078125,0.023437 1.242187,0.023437 V 1.2378906 h -0.257812 c -0.703125,0 -0.703125,-0.09375 -0.703125,-0.30468748 z m 5.332031,3.30468752 V 0.08945312 H 15.202641 V -3.0277344 c 0,-0.140625 0,-0.1875 -0.164063,-0.1875 -0.09375,0 -0.117187,0 -0.1875,0.09375 l -2.296875,3.21093752 v 0.2578125 h 2.039063 v 0.5859375 c 0,0.23437498 0,0.30468748 -0.5625,0.30468748 h -0.1875 v 0.2578125 c 0.351562,-0.023437 0.796875,-0.023437 1.054687,-0.023437 0.257813,0 0.703125,0 1.054688,0.023437 V 1.2378906 h -0.1875 c -0.5625,0 -0.5625,-0.070312 -0.5625,-0.30468748 V 0.34726562 Z M 14.640141,-2.4652344 v 2.55468752 h -1.828125 z m 0,0"
         style="fill:#ffffff;fill-opacity:1;fill-rule:nonzero;stroke:none" />
    </g>
    <path
       id="path13"
       d="M 0,28.3468 -16.66179,-22.93315"
       style="fill:none;stroke:#ffffff;stroke-width:0.3985;stroke-linecap:butt;stroke-linejoin:miter;stroke-miterlimit:10;stroke-dasharray:none;stroke-opacity:1"
       transform="matrix(1.3333333,0,0,-1.3333333,44.802667,46.636)" />
    <path
       id="path14"
       d="M 0,28.3468 26.95966,8.75974"
       style="fill:none;stroke:#ffffff;stroke-width:0.3985;stroke-linecap:butt;stroke-linejoin:miter;stroke-miterlimit:10;stroke-dasharray:none;stroke-opacity:1"
       transform="matrix(1.3333333,0,0,-1.3333333,44.802667,46.636)" />
    <g
       id="g14"
       aria-label="∆&#10;12"
       transform="matrix(0.66666667,0,0,0.66666667,65.121333,18.556)">
      <path
         id="path15"
         d="m 4.4058906,-6.9629063 c -0.070312,-0.1171875 -0.09375,-0.1640625 -0.2578125,-0.1640625 -0.1640625,0 -0.1875,0.046875 -0.2578125,0.1640625 l -3.37499997,6.75000005 c -0.046875,0.09375 -0.046875,0.1171875 -0.046875,0.140625 0,0.0703125 0.0703125,0.0703125 0.2109375,0.0703125 H 7.5933906 c 0.1640625,0 0.234375,0 0.234375,-0.0703125 0,-0.0234375 0,-0.046875 -0.046875,-0.140625 z m -0.5859375,0.8203125 2.6953125,5.39062505 h -5.390625 z m 0,0"
         style="fill:#ffffff;fill-opacity:1;fill-rule:nonzero;stroke:none" />
      <path
         id="path16"
         d="m 10.646125,-2.9609531 c 0,-0.1875 -0.02344,-0.1875 -0.210937,-0.1875 -0.445313,0.4453125 -1.0781255,0.4453125 -1.382813,0.4453125 v 0.2578125 c 0.1875,0 0.6328125,0 1.03125,-0.1875 v 3.56249997 c 0,0.21093753 0,0.30468753 -0.703125,0.30468753 H 9.1226875 v 0.2578125 c 0.1171875,0 0.9843755,-0.023437 1.2421875,-0.023437 0.210938,0 1.078125,0.023437 1.242188,0.023437 V 1.2343594 H 11.34925 c -0.703125,0 -0.703125,-0.09375 -0.703125,-0.30468753 z m 5.144531,3.18749997 h -0.234375 c -0.02344,0.140625 -0.09375,0.5625 -0.164062,0.6328125 -0.07031,0.046875 -0.609375,0.046875 -0.703125,0.046875 h -1.289063 c 0.75,-0.65625 0.984375,-0.84375 1.40625,-1.171875 0.515625,-0.421875 0.984375,-0.84374997 0.984375,-1.52343747 0,-0.84375 -0.726562,-1.359375 -1.617187,-1.359375 -0.867188,0 -1.453125,0.609375 -1.453125,1.2421875 0,0.375 0.304687,0.3984375 0.375,0.3984375 0.164062,0 0.351562,-0.1171875 0.351562,-0.375 0,-0.1171875 -0.04687,-0.3515625 -0.398437,-0.3515625 0.210937,-0.515625 0.679687,-0.65625 1.007812,-0.65625 0.703125,0 1.078125,0.5390625 1.078125,1.1015625 0,0.609375 -0.445312,1.10156247 -0.65625,1.33593747 l -1.6875,1.66406253 c -0.07031,0.070312 -0.07031,0.09375 -0.07031,0.28125 h 2.882812 z m 0,0"
         style="fill:#ffffff;fill-opacity:1;fill-rule:nonzero;stroke:none" />
    </g>
    <path
       id="path17"
       d="M 26.95966,8.75974 16.66179,-22.93315"
       style="fill:none;stroke:#ffffff;stroke-width:0.3985;stroke-linecap:butt;stroke-linejoin:miter;stroke-miterlimit:10;stroke-dasharray:none;stroke-opacity:1"
       transform="matrix(1.3333333,0,0,-1.3333333,44.802667,46.636)" />
    <g
       id="g17"
       aria-label="∆&#10;23"
       transform="matrix(0.66666667,0,0,0.66666667,76.229333,62.969333)">
      <path
         id="path18"
         d="M 4.4079531,-6.9618125 C 4.3376406,-7.079 4.3142031,-7.125875 4.1501406,-7.125875 c -0.1640625,0 -0.1875,0.046875 -0.2578125,0.1640625 l -3.37499997,6.75 c -0.046875,0.09375 -0.046875,0.1171875 -0.046875,0.140625 0,0.0703125 0.0703125,0.0703125 0.2109375,0.0703125 H 7.5954531 c 0.1640625,0 0.234375,0 0.234375,-0.0703125 0,-0.0234375 0,-0.046875 -0.046875,-0.140625 z M 3.8220156,-6.1415 6.5173281,-0.750875 h -5.390625 z m 0,0"
         style="fill:#ffffff;fill-opacity:1;fill-rule:nonzero;stroke:none" />
      <path
         id="path19"
         d="m 11.820063,0.22764063 h -0.234375 c -0.02344,0.140625 -0.09375,0.5625 -0.164063,0.6328125 -0.07031,0.046875 -0.609375,0.046875 -0.703125,0.046875 H 9.4294375 c 0.7500005,-0.65625 0.9843755,-0.84375 1.4062505,-1.171875 0.515625,-0.421875 0.984375,-0.84375003 0.984375,-1.52343753 0,-0.84375 -0.726563,-1.359375 -1.617188,-1.359375 -0.8671875,0 -1.453125,0.609375 -1.453125,1.2421875 0,0.375 0.3046875,0.3984375 0.375,0.3984375 0.1640625,0 0.3515625,-0.1171875 0.3515625,-0.375 0,-0.1171875 -0.046875,-0.3515625 -0.3984375,-0.3515625 0.2109375,-0.515625 0.6796875,-0.65625 1.007813,-0.65625 0.703125,0 1.078125,0.5390625 1.078125,1.1015625 0,0.609375 -0.445313,1.10156253 -0.65625,1.33593753 L 8.8200625,1.2120156 C 8.74975,1.2823281 8.74975,1.3057656 8.74975,1.4932656 h 2.882813 z m 2.355468,-1.078125 c 0.5625,0 0.9375,0.3984375 0.9375,1.125 0,0.86718747 -0.492187,1.12499997 -0.890625,1.12499997 -0.28125,0 -0.914062,-0.070312 -1.195312,-0.46874997 0.328125,-0.0234375 0.398437,-0.2578125 0.398437,-0.3984375 0,-0.234375 -0.164062,-0.3984375 -0.375,-0.3984375 -0.210937,0 -0.398437,0.140625 -0.398437,0.421875 0,0.65624997 0.726562,1.07812497 1.570312,1.07812497 0.984375,0 1.640625,-0.65624997 1.640625,-1.35937497 0,-0.5390625 -0.445312,-1.078125 -1.21875,-1.2421875 0.75,-0.25781253 1.007813,-0.79687503 1.007813,-1.21875003 0,-0.5390625 -0.632813,-0.9609375 -1.40625,-0.9609375 -0.773438,0 -1.382813,0.375 -1.382813,0.9375 0,0.234375 0.164063,0.375 0.375,0.375 0.210938,0 0.351563,-0.1640625 0.351563,-0.3515625 0,-0.2109375 -0.140625,-0.3515625 -0.351563,-0.375 0.234375,-0.3046875 0.726563,-0.375 0.984375,-0.375 0.304688,0 0.75,0.140625 0.75,0.75 0,0.3046875 -0.09375,0.609375 -0.28125,0.84375 -0.234375,0.2578125 -0.421875,0.28125 -0.773437,0.3046875 -0.164063,0 -0.1875,0 -0.234375,0 0,0 -0.04687,0.023437 -0.04687,0.09375 0,0.09375 0.04687,0.09375 0.164062,0.09375 z m 0,0"
         style="fill:#ffffff;fill-opacity:1;fill-rule:nonzero;stroke:none" />
    </g>
    <path
       id="path20"
       d="M 16.66179,-22.93315 H -16.66179"
       style="fill:none;stroke:#ffffff;stroke-width:0.3985;stroke-linecap:butt;stroke-linejoin:miter;stroke-miterlimit:10;stroke-dasharray:none;stroke-opacity:1"
       transform="matrix(1.3333333,0,0,-1.3333333,44.802667,46.636)" />
    <g
       id="g20"
       aria-label="∆&#10;34"
       transform="matrix(0.66666667,0,0,0.66666667,39.221333,84.098667)">
      <path
         id="path21"
         d="m 4.4082344,-6.9624531 c -0.070312,-0.1171875 -0.09375,-0.1640625 -0.2578125,-0.1640625 -0.1640625,0 -0.1875,0.046875 -0.2578125,0.1640625 l -3.37500003,6.74999997 c -0.046875,0.09375 -0.046875,0.1171875 -0.046875,0.140625 0,0.0703125 0.0703125,0.0703125 0.2109375,0.0703125 H 7.5957344 c 0.1640625,0 0.234375,0 0.234375,-0.0703125 0,-0.0234375 0,-0.046875 -0.046875,-0.140625 z m -0.5859375,0.8203125 2.6953125,5.39062497 h -5.390625 z m 0,0"
         style="fill:#ffffff;fill-opacity:1;fill-rule:nonzero;stroke:none" />
      <path
         id="path22"
         d="m 10.203156,-0.851125 c 0.5625,0 0.9375,0.3984375 0.9375,1.125 0,0.8671875 -0.492187,1.125 -0.890625,1.125 -0.2812498,0 -0.9140623,-0.070312 -1.1953123,-0.46875 0.328125,-0.0234375 0.3984375,-0.2578125 0.3984375,-0.3984375 0,-0.234375 -0.1640625,-0.3984375 -0.375,-0.3984375 -0.2109375,0 -0.3984375,0.140625 -0.3984375,0.421875 0,0.65625 0.7265625,1.078125 1.5703123,1.078125 0.984375,0 1.640625,-0.65625 1.640625,-1.359375 0,-0.5390625 -0.445312,-1.078125 -1.21875,-1.2421875 0.75,-0.2578125 1.007813,-0.796875 1.007813,-1.21875 0,-0.5390625 -0.632813,-0.9609375 -1.40625,-0.9609375 -0.7734378,0 -1.3828128,0.375 -1.3828128,0.9375 0,0.234375 0.1640625,0.375 0.375,0.375 0.2109375,0 0.3515625,-0.1640625 0.3515625,-0.3515625 0,-0.2109375 -0.140625,-0.3515625 -0.3515625,-0.375 0.234375,-0.3046875 0.7265625,-0.375 0.9843748,-0.375 0.304688,0 0.75,0.140625 0.75,0.75 0,0.3046875 -0.09375,0.609375 -0.28125,0.84375 -0.234375,0.2578125 -0.421875,0.28125 -0.7734373,0.3046875 -0.1640625,0 -0.1875,0 -0.234375,0 0,0 -0.046875,0.023437 -0.046875,0.09375 0,0.09375 0.046875,0.09375 0.1640625,0.09375 z m 5.771485,1.1953125 V 0.086375 h -0.773438 v -3.1171875 c 0,-0.140625 0,-0.1875 -0.164062,-0.1875 -0.09375,0 -0.117188,0 -0.1875,0.09375 L 12.552766,0.086375 v 0.2578125 h 2.039062 V 0.930125 c 0,0.234375 0,0.3046875 -0.5625,0.3046875 h -0.1875 V 1.492625 c 0.351563,-0.023437 0.796875,-0.023437 1.054688,-0.023437 0.257812,0 0.703125,0 1.054687,0.023437 V 1.2348125 h -0.1875 c -0.5625,0 -0.5625,-0.070312 -0.5625,-0.3046875 V 0.3441875 Z m -1.335938,-2.8125 V 0.086375 h -1.828125 z m 0,0"
         style="fill:#ffffff;fill-opacity:1;fill-rule:nonzero;stroke:none" />
    </g>
    <path
       id="path23"
       d="M -16.66179,-22.93315 -26.95966,8.75974"
       style="fill:none;stroke:#ffffff;stroke-width:0.3985;stroke-linecap:butt;stroke-linejoin:miter;stroke-miterlimit:10;stroke-dasharray:none;stroke-opacity:1"
       transform="matrix(1.3333333,0,0,-1.3333333,44.802667,46.636)" />
    <g
       id="g23"
       aria-label="∆&#10;45"
       transform="matrix(0.66666667,0,0,0.66666667,2.2133333,62.969333)">
      <path
         id="path24"
         d="M 4.4085156,-6.9618125 C 4.3382031,-7.079 4.3147656,-7.125875 4.1507031,-7.125875 c -0.1640625,0 -0.1875,0.046875 -0.2578125,0.1640625 l -3.37499998,6.75 c -0.046875,0.09375 -0.046875,0.1171875 -0.046875,0.140625 0,0.0703125 0.0703125,0.0703125 0.2109375,0.0703125 H 7.5960156 c 0.1640625,0 0.234375,0 0.234375,-0.0703125 0,-0.0234375 0,-0.046875 -0.046875,-0.140625 z M 3.8225781,-6.1415 6.5178906,-0.750875 h -5.390625 z m 0,0"
         style="fill:#ffffff;fill-opacity:1;fill-rule:nonzero;stroke:none" />
      <path
         id="path25"
         d="M 12.002266,0.34482813 V 0.08701563 H 11.228828 V -3.0301719 c 0,-0.140625 0,-0.1875 -0.164062,-0.1875 -0.09375,0 -0.117188,0 -0.1875,0.09375 L 8.5803906,0.08701563 v 0.2578125 h 2.0390624 v 0.5859375 c 0,0.23437497 0,0.30468747 -0.5625,0.30468747 H 9.8694531 v 0.2578125 c 0.3515629,-0.023437 0.7968749,-0.023437 1.0546879,-0.023437 0.257812,0 0.703125,0 1.054687,0.023437 V 1.2354531 h -0.1875 c -0.5625,0 -0.5625,-0.070312 -0.5625,-0.30468747 V 0.34482813 Z M 10.666328,-2.4676719 V 0.08701563 H 8.8382031 Z m 2.683594,0.070312 c 0.351562,0.09375 0.5625,0.09375 0.679687,0.09375 0.914063,0 1.476563,-0.6328125 1.476563,-0.75 0,-0.070312 -0.04687,-0.09375 -0.09375,-0.09375 0,0 -0.02344,0 -0.04687,0.023437 -0.164063,0.070312 -0.539063,0.2109375 -1.054688,0.2109375 -0.210937,0 -0.5625,-0.023437 -1.03125,-0.1875 -0.07031,-0.046875 -0.07031,-0.046875 -0.09375,-0.046875 -0.09375,0 -0.09375,0.070312 -0.09375,0.1875 v 2.06250003 c 0,0.1171875 0,0.2109375 0.117188,0.2109375 0.07031,0 0.07031,-0.0234375 0.140625,-0.09375 0.304687,-0.39843753 0.726562,-0.44531253 0.984375,-0.44531253 0.398437,0 0.609375,0.32812503 0.632812,0.37500003 0.117188,0.234375 0.164063,0.515625 0.164063,0.9140625 0,0.2109375 0,0.609375 -0.210938,0.93749997 -0.164062,0.234375 -0.46875,0.3984375 -0.820312,0.3984375 -0.445313,0 -0.914063,-0.234375 -1.078125,-0.70312497 0.257812,0.0234375 0.398437,-0.1640625 0.398437,-0.3515625 0,-0.28125 -0.257812,-0.3515625 -0.351562,-0.3515625 -0.02344,0 -0.351563,0 -0.351563,0.375 0,0.63281247 0.5625,1.26562497 1.40625,1.26562497 0.890625,0 1.664063,-0.65624997 1.664063,-1.54687497 0,-0.796875 -0.585938,-1.52343753 -1.453125,-1.52343753 -0.304688,0 -0.679688,0.09375 -0.984375,0.3515625 z m 0,0"
         style="fill:#ffffff;fill-opacity:1;fill-rule:nonzero;stroke:none" />
    </g>
    <path
       id="path26"
       d="M -26.95966,8.75974 0,28.3468"
       style="fill:none;stroke:#ffffff;stroke-width:0.3985;stroke-linecap:butt;stroke-linejoin:miter;stroke-miterlimit:10;stroke-dasharray:none;stroke-opacity:1"
       transform="matrix(1.3333333,0,0,-1.3333333,44.802667,46.636)" />
    <g
       id="g26"
       aria-label="∆&#10;15"
       transform="matrix(0.66666667,0,0,0.66666667,13.321333,18.556)">
      <path
         id="path27"
         d="m 4.4047188,-6.9629063 c -0.070312,-0.1171875 -0.09375,-0.1640625 -0.2578125,-0.1640625 -0.1640625,0 -0.1875,0.046875 -0.2578125,0.1640625 l -3.37500005,6.75000005 c -0.046875,0.09375 -0.046875,0.1171875 -0.046875,0.140625 0,0.0703125 0.0703125,0.0703125 0.2109375,0.0703125 H 7.5922188 c 0.1640625,0 0.234375,0 0.234375,-0.0703125 0,-0.0234375 0,-0.046875 -0.046875,-0.140625 z m -0.5859375,0.8203125 2.6953125,5.39062505 h -5.390625 z m 0,0"
         style="fill:#ffffff;fill-opacity:1;fill-rule:nonzero;stroke:none" />
      <path
         id="path28"
         d="m 10.644953,-2.9609531 c 0,-0.1875 -0.02344,-0.1875 -0.210937,-0.1875 -0.4453129,0.4453125 -1.0781254,0.4453125 -1.3828129,0.4453125 v 0.2578125 c 0.1875,0 0.6328125,0 1.0312499,-0.1875 v 3.56249997 c 0,0.21093753 0,0.30468753 -0.7031249,0.30468753 H 9.1215156 v 0.2578125 c 0.1171875,0 0.9843754,-0.023437 1.2421874,-0.023437 0.210938,0 1.078125,0.023437 1.242188,0.023437 V 1.2343594 h -0.257813 c -0.703125,0 -0.703125,-0.09375 -0.703125,-0.30468753 z m 2.707031,0.5625 c 0.351563,0.09375 0.5625,0.09375 0.679688,0.09375 0.914062,0 1.476562,-0.6328125 1.476562,-0.75 0,-0.070312 -0.04687,-0.09375 -0.09375,-0.09375 0,0 -0.02344,0 -0.04687,0.023437 -0.164062,0.070312 -0.539062,0.2109375 -1.054687,0.2109375 -0.210938,0 -0.5625,-0.023437 -1.03125,-0.1875 -0.07031,-0.046875 -0.07031,-0.046875 -0.09375,-0.046875 -0.09375,0 -0.09375,0.070312 -0.09375,0.1875 v 2.06249997 c 0,0.1171875 0,0.2109375 0.117187,0.2109375 0.07031,0 0.07031,-0.0234375 0.140625,-0.09375 0.304688,-0.39843747 0.726563,-0.44531247 0.984375,-0.44531247 0.398438,0 0.609375,0.32812497 0.632813,0.37499997 0.117187,0.234375 0.164062,0.515625 0.164062,0.9140625 0,0.2109375 0,0.609375 -0.210937,0.9375 -0.164063,0.23437503 -0.46875,0.39843753 -0.820313,0.39843753 -0.445312,0 -0.914062,-0.234375 -1.078125,-0.70312503 0.257813,0.0234375 0.398438,-0.1640625 0.398438,-0.3515625 0,-0.28125 -0.257813,-0.3515625 -0.351563,-0.3515625 -0.02344,0 -0.351562,0 -0.351562,0.375 0,0.6328125 0.5625,1.26562503 1.40625,1.26562503 0.890625,0 1.664062,-0.65625003 1.664062,-1.54687503 0,-0.796875 -0.585937,-1.52343747 -1.453125,-1.52343747 -0.304687,0 -0.679687,0.09375 -0.984375,0.3515625 z m 0,0"
         style="fill:#ffffff;fill-opacity:1;fill-rule:nonzero;stroke:none" />
    </g>
    <path
       id="path29"
       d="m 2.9293594,-6.3728594 c 0,-0.234375 0,-0.2578125 -0.234375,-0.2578125 -0.609375,0.6328125 -1.5,0.6328125 -1.80468752,0.6328125 v 0.3046875 c 0.18750002,0 0.77343752,0 1.31250002,-0.2578125 v 5.15625002 c 0,0.375 -0.046875,0.4921875 -0.9375,0.4921875 H 0.93717188 v 0.3046875 c 0.35156252,-0.0234375 1.21875002,-0.0234375 1.61718752,-0.0234375 0.3984375,0 1.265625,0 1.6171875,0.0234375 v -0.3046875 h -0.328125 c -0.890625,0 -0.9140625,-0.1171875 -0.9140625,-0.4921875 z m 0,0"
       style="fill:#ffffff;fill-opacity:1;fill-rule:nonzero;stroke:none"
       aria-label="1"
       transform="matrix(0.66666667,0,0,0.66666667,137.176,6.4946667)" />
    <path
       id="path30"
       d="m 4.4765469,-1.9897031 c 0,-1.1953125 -0.8203125,-2.203125 -1.8984375,-2.203125 -0.46875,0 -0.9140625,0.1640625 -1.265625,0.515625 v -1.9453125 c 0.2109375,0.070312 0.5390625,0.140625 0.84375,0.140625 1.2421875,0 1.921875,-0.9140625 1.921875,-1.03125 0,-0.070312 -0.023437,-0.1171875 -0.09375,-0.1171875 0,0 -0.023437,0 -0.070312,0.023437 -0.2109375,0.09375 -0.703125,0.3046875 -1.359375,0.3046875 -0.3984375,0 -0.8671875,-0.070312 -1.3359375,-0.28125 -0.070312,-0.046875 -0.09375,-0.046875 -0.1171875,-0.046875 -0.09375,0 -0.09375,0.09375 -0.09375,0.2578125 v 2.9296875 c 0,0.1875 0,0.2578125 0.140625,0.2578125 0.070312,0 0.09375,-0.023437 0.1171875,-0.070312 0.1171875,-0.1640625 0.4921875,-0.703125 1.2890625,-0.703125 0.515625,0 0.7734375,0.4453125 0.84375,0.6328125 0.1640625,0.375 0.1875,0.75 0.1875,1.265625 0,0.328125 0,0.9375 -0.234375,1.35937497 -0.234375,0.375 -0.609375,0.6328125 -1.078125,0.6328125 -0.7265625,0 -1.28906252,-0.515625 -1.45312502,-1.10156247 0.0234375,0 0.046875,0.023437 0.1640625,0.023437 0.32812502,0 0.49218752,-0.2578125 0.49218752,-0.4921875 0,-0.234375 -0.1640625,-0.4921875 -0.49218752,-0.4921875 -0.140625,0 -0.4921875,0.070312 -0.4921875,0.5390625 0,0.84374997 0.70312502,1.80468747 1.80468752,1.80468747 1.1484375,0 2.1796875,-0.9375 2.179687,-2.20312447 z m 0,0"
       style="fill:#ffffff;fill-opacity:1;fill-rule:nonzero;stroke:none"
       aria-label="5"
       transform="matrix(0.66666667,0,0,0.66666667,97.222667,37.096)" />
    <path
       id="path31"
       d="m 2.929375,-1.6408594 v 0.86718752 c 0,0.3515625 -0.023437,0.46875 -0.75,0.46875 H 1.9684375 V -2.34375e-4 C 2.366875,-0.02367188 2.8825,-0.02367188 3.304375,-0.02367188 c 0.421875,0 0.9375,0 1.359375,0.023437505 V -0.30492188 H 4.4528125 c -0.7265625,0 -0.75,-0.1171875 -0.75,-0.46875 V -1.6408594 h 0.984375 v -0.3046875 h -0.984375 v -4.546875 c 0,-0.1875 0,-0.2578125 -0.1640625,-0.2578125 -0.09375,0 -0.1171875,0 -0.2109375,0.1171875 l -3.046875,4.6875 v 0.3046875 z m 0.070312,-0.3046875 h -2.4375 l 2.4375,-3.7265625 z m 0,0"
       style="fill:#ffffff;fill-opacity:1;fill-rule:nonzero;stroke:none"
       aria-label="4"
       transform="matrix(0.66666667,0,0,0.66666667,110.95333,83.84)" />
    <path
       id="path32"
       d="m 2.8844688,-3.5158594 c 0.8203125,-0.2578125 1.40625,-0.9609375 1.40625,-1.734375 0,-0.8203125 -0.890625,-1.3828125 -1.828125,-1.3828125 -1.0078125,0 -1.78125005,0.5859375 -1.78125005,1.359375 0,0.328125 0.234375,0.515625 0.51562505,0.515625 0.3046875,0 0.515625,-0.234375 0.515625,-0.515625 0,-0.4921875 -0.46875,-0.4921875 -0.6328125,-0.4921875 0.328125,-0.4921875 0.984375,-0.609375 1.3359375,-0.609375 0.3984375,0 0.9609375,0.2109375 0.9609375,1.1015625 0,0.1171875 -0.023437,0.703125 -0.28125,1.1484375 -0.3046875,0.46875 -0.6328125,0.4921875 -0.890625,0.515625 -0.070312,0 -0.328125,0.023437 -0.3984375,0.023437 -0.070312,0 -0.140625,0.023437 -0.140625,0.1171875 0,0.1171875 0.070312,0.1171875 0.234375,0.1171875 h 0.4453125 c 0.8203125,0 1.171875,0.6796875 1.171875,1.640625 0,1.35937502 -0.6796875,1.64062502 -1.125,1.64062502 -0.421875,0 -1.171875,-0.1640625 -1.52343755,-0.75 0.35156255,0.046875 0.65625005,-0.1640625 0.65625005,-0.53906252 0,-0.375 -0.2578125,-0.5625 -0.53906255,-0.5625 -0.2578125,0 -0.5625,0.140625 -0.5625,0.5859375 0,0.89062502 0.91406255,1.54687502 2.01562505,1.54687502 1.21875,0 2.109375,-0.890625 2.109375,-1.92187502 0,-0.8203125 -0.6328125,-1.59375 -1.6640625,-1.804687 z m 0,0"
       style="fill:#ffffff;fill-opacity:1;fill-rule:nonzero;stroke:none"
       aria-label="3"
       transform="matrix(0.66666667,0,0,0.66666667,163.39733,83.84)" />
    <path
       id="path33"
       d="M 1.2669844,-0.77095313 2.3216719,-1.8022031 c 1.546875,-1.359375 2.15625,-1.8984375 2.15625,-2.90625 0,-1.125 -0.890625,-1.921875 -2.109375,-1.921875 -1.125,0 -1.87500003,0.9140625 -1.87500003,1.8046875 0,0.5625 0.51562503,0.5625 0.53906253,0.5625 0.1640625,0 0.515625,-0.1171875 0.515625,-0.5390625 0,-0.2578125 -0.1875,-0.515625 -0.5390625,-0.515625 -0.0703125,0 -0.09375,0 -0.11718753,0 0.23437503,-0.6328125 0.77343753,-1.0078125 1.33593753,-1.0078125 0.9140625,0 1.3359375,0.8203125 1.3359375,1.6171875 0,0.796875 -0.4921875,1.59375 -1.03125,2.203125 l -1.92187503,2.13281247 c -0.1171875,0.1171875 -0.1171875,0.140625 -0.1171875,0.375 H 4.1966719 l 0.28125,-1.73437497 H 4.2201094 c -0.046875,0.3046875 -0.1171875,0.7265625 -0.2109375,0.89062497 -0.070312,0.0703125 -0.7265625,0.0703125 -0.9609375,0.0703125 z m 0,0"
       style="fill:#ffffff;fill-opacity:1;fill-rule:nonzero;stroke:none"
       aria-label="2"
       transform="matrix(0.66666667,0,0,0.66666667,177.128,37.096)" />
    <path
       id="path34"
       d="M 0,28.3468 26.95966,8.75974 16.66179,-22.93315 H -16.66179 L -26.95966,8.75974 Z"
       style="fill:none;stroke:#ffffff;stroke-width:0.3985;stroke-linecap:butt;stroke-linejoin:miter;stroke-miterlimit:10;stroke-dasharray:none;stroke-opacity:1"
       transform="matrix(1.3333333,0,0,-1.3333333,138.836,46.636)" />
    <path
       id="path35"
       d="M 0,28.3468 16.66179,-22.93315"
       style="fill:none;stroke:#ffffff;stroke-width:0.3985;stroke-linecap:butt;stroke-linejoin:miter;stroke-miterlimit:10;stroke-dasharray:none;stroke-opacity:1"
       transform="matrix(1.3333333,0,0,-1.3333333,138.836,46.636)" />
    <g
       id="g35"
       aria-label="∆&#10;13"
       transform="matrix(0.66666667,0,0,0.66666667,150.74,41.233333)">
      <path
         id="path36"
         d="m 4.4036719,-6.959375 c -0.070312,-0.1171875 -0.09375,-0.1640625 -0.2578125,-0.1640625 -0.1640625,0 -0.1875,0.046875 -0.2578125,0.1640625 l -3.37500002,6.75 c -0.046875,0.09375 -0.046875,0.1171875 -0.046875,0.140625 0,0.0703125 0.0703125,0.0703125 0.2109375,0.0703125 H 7.5911719 c 0.1640625,0 0.234375,0 0.234375,-0.0703125 0,-0.0234375 0,-0.046875 -0.046875,-0.140625 z m -0.5859375,0.8203125 2.6953125,5.390625 h -5.390625 z m 0,0"
         style="fill:#ffffff;fill-opacity:1;fill-rule:nonzero;stroke:none" />
      <path
         id="path37"
         d="m 10.643906,-2.9574219 c 0,-0.1875 -0.02344,-0.1875 -0.210937,-0.1875 -0.4453127,0.4453125 -1.0781252,0.4453125 -1.3828127,0.4453125 v 0.2578125 c 0.1875,0 0.6328125,0 1.0312497,-0.1875 v 3.56250002 c 0,0.21093748 0,0.30468748 -0.7031247,0.30468748 H 9.1204688 v 0.2578125 c 0.1171875,0 0.9843752,-0.023437 1.2421872,-0.023437 0.210938,0 1.078125,0.023437 1.242188,0.023437 V 1.2378906 h -0.257813 c -0.703125,0 -0.703125,-0.09375 -0.703125,-0.30468748 z m 3.527344,2.10937502 c 0.5625,0 0.9375,0.3984375 0.9375,1.125 0,0.86718748 -0.492187,1.12499998 -0.890625,1.12499998 -0.28125,0 -0.914062,-0.070312 -1.195312,-0.46874998 0.328125,-0.0234375 0.398437,-0.2578125 0.398437,-0.3984375 0,-0.234375 -0.164062,-0.3984375 -0.375,-0.3984375 -0.210937,0 -0.398437,0.140625 -0.398437,0.421875 0,0.65624998 0.726562,1.07812498 1.570312,1.07812498 0.984375,0 1.640625,-0.65624998 1.640625,-1.35937498 0,-0.5390625 -0.445312,-1.078125 -1.21875,-1.2421875 0.75,-0.25781252 1.007813,-0.79687502 1.007813,-1.21875002 0,-0.5390625 -0.632813,-0.9609375 -1.40625,-0.9609375 -0.773438,0 -1.382813,0.375 -1.382813,0.9375 0,0.234375 0.164063,0.375 0.375,0.375 0.210938,0 0.351563,-0.1640625 0.351563,-0.3515625 0,-0.2109375 -0.140625,-0.3515625 -0.351563,-0.375 0.234375,-0.3046875 0.726563,-0.375 0.984375,-0.375 0.304688,0 0.75,0.140625 0.75,0.75 0,0.3046875 -0.09375,0.609375 -0.28125,0.84375 -0.234375,0.2578125 -0.421875,0.28125 -0.773437,0.3046875 -0.164063,0 -0.1875,0 -0.234375,0 0,0 -0.04687,0.023437 -0.04687,0.09375 0,0.09375 0.04687,0.09375 0.164062,0.09375 z m 0,0"
         style="fill:#ffffff;fill-opacity:1;fill-rule:nonzero;stroke:none" />
    </g>
    <path
       id="path38"
       d="M 0,28.3468 -16.66179,-22.93315"
       style="fill:none;stroke:#ffffff;stroke-width:0.3985;stroke-linecap:butt;stroke-linejoin:miter;stroke-miterlimit:10;stroke-dasharray:none;stroke-opacity:1"
       transform="matrix(1.3333333,0,0,-1.3333333,138.836,46.636)" />
    <g
       id="g38"
       aria-label="∆&#10;14"
       transform="matrix(0.66666667,0,0,0.66666667,115.76933,41.233333)">
      <path
         id="path39"
         d="m 4.4065469,-6.959375 c -0.070312,-0.1171875 -0.09375,-0.1640625 -0.2578125,-0.1640625 -0.1640625,0 -0.1875,0.046875 -0.2578125,0.1640625 l -3.37500002,6.75 c -0.046875,0.09375 -0.046875,0.1171875 -0.046875,0.140625 0,0.0703125 0.0703125,0.0703125 0.2109375,0.0703125 H 7.5940469 c 0.1640625,0 0.234375,0 0.234375,-0.0703125 0,-0.0234375 0,-0.046875 -0.046875,-0.140625 z m -0.5859375,0.8203125 2.6953125,5.390625 h -5.390625 z m 0,0"
         style="fill:#ffffff;fill-opacity:1;fill-rule:nonzero;stroke:none" />
      <path
         id="path40"
         d="m 10.646781,-2.9574219 c 0,-0.1875 -0.02344,-0.1875 -0.210937,-0.1875 -0.4453127,0.4453125 -1.0781252,0.4453125 -1.3828127,0.4453125 v 0.2578125 c 0.1875,0 0.6328125,0 1.0312497,-0.1875 v 3.56250002 c 0,0.21093748 0,0.30468748 -0.7031247,0.30468748 H 9.1233438 v 0.2578125 c 0.1171875,0 0.9843752,-0.023437 1.2421872,-0.023437 0.210938,0 1.078125,0.023437 1.242188,0.023437 V 1.2378906 h -0.257813 c -0.703125,0 -0.703125,-0.09375 -0.703125,-0.30468748 z m 5.332032,3.30468752 V 0.08945312 H 15.205375 V -3.0277344 c 0,-0.140625 0,-0.1875 -0.164062,-0.1875 -0.09375,0 -0.117188,0 -0.1875,0.09375 l -2.296875,3.21093752 v 0.2578125 H 14.596 v 0.5859375 c 0,0.23437498 0,0.30468748 -0.5625,0.30468748 H 13.846 v 0.2578125 c 0.351563,-0.023437 0.796875,-0.023437 1.054688,-0.023437 0.257812,0 0.703125,0 1.054687,0.023437 V 1.2378906 h -0.1875 c -0.5625,0 -0.5625,-0.070312 -0.5625,-0.30468748 V 0.34726562 Z M 14.642875,-2.4652344 V 0.08945312 H 12.81475 Z m 0,0"
         style="fill:#ffffff;fill-opacity:1;fill-rule:nonzero;stroke:none" />
    </g>
    <path
       id="path41"
       d="M 0,28.3468 -16.66179,-22.93315"
       style="fill:none;stroke:#ffffff;stroke-width:0.3985;stroke-linecap:butt;stroke-linejoin:miter;stroke-miterlimit:10;stroke-dasharray:none;stroke-opacity:1"
       transform="matrix(1.3333333,0,0,-1.3333333,138.836,46.636)" />
    <path
       id="path42"
       d="M 0,28.3468 26.95966,8.75974"
       style="fill:none;stroke:#ffffff;stroke-width:0.3985;stroke-linecap:butt;stroke-linejoin:miter;stroke-miterlimit:10;stroke-dasharray:none;stroke-opacity:1"
       transform="matrix(1.3333333,0,0,-1.3333333,138.836,46.636)" />
    <g
       id="g42"
       aria-label="∆&#10;12"
       transform="matrix(0.66666667,0,0,0.66666667,159.15467,18.556)">
      <path
         id="path43"
         d="m 4.408625,-6.9629063 c -0.070312,-0.1171875 -0.09375,-0.1640625 -0.2578125,-0.1640625 -0.1640625,0 -0.1875,0.046875 -0.2578125,0.1640625 l -3.375,6.75000005 c -0.046875,0.09375 -0.046875,0.1171875 -0.046875,0.140625 0,0.0703125 0.0703125,0.0703125 0.2109375,0.0703125 H 7.596125 c 0.1640625,0 0.234375,0 0.234375,-0.0703125 0,-0.0234375 0,-0.046875 -0.046875,-0.140625 z M 3.8226875,-6.1425938 6.518,-0.75196875 H 1.127375 Z m 0,0"
         style="fill:#ffffff;fill-opacity:1;fill-rule:nonzero;stroke:none" />
      <path
         id="path44"
         d="m 10.648859,-2.9609531 c 0,-0.1875 -0.02344,-0.1875 -0.210937,-0.1875 -0.4453126,0.4453125 -1.0781251,0.4453125 -1.3828126,0.4453125 v 0.2578125 c 0.1875,0 0.6328125,0 1.0312496,-0.1875 v 3.56249997 c 0,0.21093753 0,0.30468753 -0.7031246,0.30468753 H 9.1254219 v 0.2578125 c 0.1171875,0 0.9843751,-0.023437 1.2421871,-0.023437 0.210938,0 1.078125,0.023437 1.242188,0.023437 V 1.2343594 h -0.257813 c -0.703125,0 -0.703125,-0.09375 -0.703125,-0.30468753 z m 5.138672,3.18749997 h -0.234375 c -0.02344,0.140625 -0.09375,0.5625 -0.164062,0.6328125 -0.07031,0.046875 -0.609375,0.046875 -0.703125,0.046875 h -1.289063 c 0.75,-0.65625 0.984375,-0.84375 1.40625,-1.171875 0.515625,-0.421875 0.984375,-0.84374997 0.984375,-1.52343747 0,-0.84375 -0.726562,-1.359375 -1.617187,-1.359375 -0.867188,0 -1.453125,0.609375 -1.453125,1.2421875 0,0.375 0.304687,0.3984375 0.375,0.3984375 0.164062,0 0.351562,-0.1171875 0.351562,-0.375 0,-0.1171875 -0.04687,-0.3515625 -0.398437,-0.3515625 0.210937,-0.515625 0.679687,-0.65625 1.007812,-0.65625 0.703125,0 1.078125,0.5390625 1.078125,1.1015625 0,0.609375 -0.445312,1.10156247 -0.65625,1.33593747 l -1.6875,1.66406253 c -0.07031,0.070312 -0.07031,0.09375 -0.07031,0.28125 h 2.882812 z m 0,0"
         style="fill:#ffffff;fill-opacity:1;fill-rule:nonzero;stroke:none" />
    </g>
    <path
       id="path45"
       d="M 26.95966,8.75974 16.66179,-22.93315"
       style="fill:none;stroke:#ffffff;stroke-width:0.3985;stroke-linecap:butt;stroke-linejoin:miter;stroke-miterlimit:10;stroke-dasharray:none;stroke-opacity:1"
       transform="matrix(1.3333333,0,0,-1.3333333,138.836,46.636)" />
    <g
       id="g45"
       aria-label="∆&#10;23"
       transform="matrix(0.66666667,0,0,0.66666667,170.26267,62.969333)">
      <path
         id="path46"
         d="M 4.4048281,-6.9618125 C 4.3345156,-7.079 4.3110781,-7.125875 4.1470156,-7.125875 c -0.1640625,0 -0.1875,0.046875 -0.2578125,0.1640625 l -3.37499998,6.75 c -0.046875,0.09375 -0.046875,0.1171875 -0.046875,0.140625 0,0.0703125 0.0703125,0.0703125 0.2109375,0.0703125 H 7.5923281 c 0.1640625,0 0.234375,0 0.234375,-0.0703125 0,-0.0234375 0,-0.046875 -0.046875,-0.140625 z M 3.8188906,-6.1415 6.5142031,-0.750875 h -5.390625 z m 0,0"
         style="fill:#ffffff;fill-opacity:1;fill-rule:nonzero;stroke:none" />
      <path
         id="path47"
         d="m 11.816937,0.22764063 h -0.234375 c -0.02344,0.140625 -0.09375,0.5625 -0.164062,0.6328125 -0.07031,0.046875 -0.609375,0.046875 -0.703125,0.046875 H 9.4263125 c 0.7499995,-0.65625 0.9843745,-0.84375 1.4062495,-1.171875 0.515625,-0.421875 0.984375,-0.84375003 0.984375,-1.52343753 0,-0.84375 -0.726562,-1.359375 -1.617187,-1.359375 -0.8671875,0 -1.453125,0.609375 -1.453125,1.2421875 0,0.375 0.3046875,0.3984375 0.375,0.3984375 0.1640625,0 0.3515625,-0.1171875 0.3515625,-0.375 0,-0.1171875 -0.046875,-0.3515625 -0.3984375,-0.3515625 0.2109375,-0.515625 0.6796875,-0.65625 1.007812,-0.65625 0.703125,0 1.078125,0.5390625 1.078125,1.1015625 0,0.609375 -0.445312,1.10156253 -0.65625,1.33593753 L 8.8169375,1.2120156 c -0.070312,0.070312 -0.070312,0.09375 -0.070312,0.28125 h 2.8828125 z m 2.355469,-1.078125 c 0.5625,0 0.9375,0.3984375 0.9375,1.125 0,0.86718747 -0.492187,1.12499997 -0.890625,1.12499997 -0.28125,0 -0.914062,-0.070312 -1.195312,-0.46874997 0.328125,-0.0234375 0.398437,-0.2578125 0.398437,-0.3984375 0,-0.234375 -0.164062,-0.3984375 -0.375,-0.3984375 -0.210937,0 -0.398437,0.140625 -0.398437,0.421875 0,0.65624997 0.726562,1.07812497 1.570312,1.07812497 0.984375,0 1.640625,-0.65624997 1.640625,-1.35937497 0,-0.5390625 -0.445312,-1.078125 -1.21875,-1.2421875 0.75,-0.25781253 1.007813,-0.79687503 1.007813,-1.21875003 0,-0.5390625 -0.632813,-0.9609375 -1.40625,-0.9609375 -0.773438,0 -1.382813,0.375 -1.382813,0.9375 0,0.234375 0.164063,0.375 0.375,0.375 0.210938,0 0.351563,-0.1640625 0.351563,-0.3515625 0,-0.2109375 -0.140625,-0.3515625 -0.351563,-0.375 0.234375,-0.3046875 0.726563,-0.375 0.984375,-0.375 0.304688,0 0.75,0.140625 0.75,0.75 0,0.3046875 -0.09375,0.609375 -0.28125,0.84375 -0.234375,0.2578125 -0.421875,0.28125 -0.773437,0.3046875 -0.164063,0 -0.1875,0 -0.234375,0 0,0 -0.04687,0.023437 -0.04687,0.09375 0,0.09375 0.04687,0.09375 0.164062,0.09375 z m 0,0"
         style="fill:#ffffff;fill-opacity:1;fill-rule:nonzero;stroke:none" />
    </g>
    <path
       id="path48"
       d="M 16.66179,-22.93315 H -16.66179"
       style="fill:none;stroke:#ffffff;stroke-width:0.3985;stroke-linecap:butt;stroke-linejoin:miter;stroke-miterlimit:10;stroke-dasharray:none;stroke-opacity:1"
       transform="matrix(1.3333333,0,0,-1.3333333,138.836,46.636)" />
    <g
       id="g48"
       aria-label="∆&#10;34"
       transform="matrix(0.66666667,0,0,0.66666667,133.25467,84.098667)">
      <path
         id="path49"
         d="m 4.4051094,-6.9624531 c -0.070312,-0.1171875 -0.09375,-0.1640625 -0.2578125,-0.1640625 -0.1640625,0 -0.1875,0.046875 -0.2578125,0.1640625 l -3.37500002,6.74999997 c -0.046875,0.09375 -0.046875,0.1171875 -0.046875,0.140625 0,0.0703125 0.0703125,0.0703125 0.2109375,0.0703125 H 7.5926094 c 0.1640625,0 0.234375,0 0.234375,-0.0703125 0,-0.0234375 0,-0.046875 -0.046875,-0.140625 z m -0.5859375,0.8203125 2.6953125,5.39062497 h -5.390625 z m 0,0"
         style="fill:#ffffff;fill-opacity:1;fill-rule:nonzero;stroke:none" />
      <path
         id="path50"
         d="m 10.200031,-0.851125 c 0.5625,0 0.9375,0.3984375 0.9375,1.125 0,0.8671875 -0.492187,1.125 -0.890625,1.125 -0.2812497,0 -0.9140622,-0.070312 -1.1953122,-0.46875 0.328125,-0.0234375 0.3984375,-0.2578125 0.3984375,-0.3984375 0,-0.234375 -0.1640625,-0.3984375 -0.375,-0.3984375 -0.2109375,0 -0.3984375,0.140625 -0.3984375,0.421875 0,0.65625 0.7265625,1.078125 1.5703122,1.078125 0.984375,0 1.640625,-0.65625 1.640625,-1.359375 0,-0.5390625 -0.445312,-1.078125 -1.21875,-1.2421875 0.75,-0.2578125 1.007813,-0.796875 1.007813,-1.21875 0,-0.5390625 -0.632813,-0.9609375 -1.40625,-0.9609375 -0.7734377,0 -1.3828127,0.375 -1.3828127,0.9375 0,0.234375 0.1640625,0.375 0.375,0.375 0.2109375,0 0.3515625,-0.1640625 0.3515625,-0.3515625 0,-0.2109375 -0.140625,-0.3515625 -0.3515625,-0.375 0.234375,-0.3046875 0.7265625,-0.375 0.9843747,-0.375 0.304688,0 0.75,0.140625 0.75,0.75 0,0.3046875 -0.09375,0.609375 -0.28125,0.84375 -0.234375,0.2578125 -0.421875,0.28125 -0.7734372,0.3046875 -0.1640625,0 -0.1875,0 -0.234375,0 0,0 -0.046875,0.023437 -0.046875,0.09375 0,0.09375 0.046875,0.09375 0.1640625,0.09375 z m 5.777344,1.1953125 V 0.086375 h -0.773437 v -3.1171875 c 0,-0.140625 0,-0.1875 -0.164063,-0.1875 -0.09375,0 -0.117187,0 -0.1875,0.09375 L 12.5555,0.086375 v 0.2578125 h 2.039063 V 0.930125 c 0,0.234375 0,0.3046875 -0.5625,0.3046875 h -0.1875 V 1.492625 c 0.351562,-0.023437 0.796875,-0.023437 1.054687,-0.023437 0.257813,0 0.703125,0 1.054688,0.023437 V 1.2348125 h -0.1875 c -0.5625,0 -0.5625,-0.070312 -0.5625,-0.3046875 V 0.3441875 Z m -1.335937,-2.8125 V 0.086375 h -1.828125 z m 0,0"
         style="fill:#ffffff;fill-opacity:1;fill-rule:nonzero;stroke:none" />
    </g>
    <path
       id="path51"
       d="M -16.66179,-22.93315 -26.95966,8.75974"
       style="fill:none;stroke:#ffffff;stroke-width:0.3985;stroke-linecap:butt;stroke-linejoin:miter;stroke-miterlimit:10;stroke-dasharray:none;stroke-opacity:1"
       transform="matrix(1.3333333,0,0,-1.3333333,138.836,46.636)" />
    <g
       id="g51"
       aria-label="∆&#10;45"
       transform="matrix(0.66666667,0,0,0.66666667,96.246667,62.969333)">
      <path
         id="path52"
         d="M 4.4053906,-6.9618125 C 4.3350781,-7.079 4.3116406,-7.125875 4.1475781,-7.125875 c -0.1640625,0 -0.1875,0.046875 -0.2578125,0.1640625 l -3.37499997,6.75 c -0.046875,0.09375 -0.046875,0.1171875 -0.046875,0.140625 0,0.0703125 0.0703125,0.0703125 0.2109375,0.0703125 H 7.5928906 c 0.1640625,0 0.234375,0 0.234375,-0.0703125 0,-0.0234375 0,-0.046875 -0.046875,-0.140625 z M 3.8194531,-6.1415 6.5147656,-0.750875 h -5.390625 z m 0,0"
         style="fill:#ffffff;fill-opacity:1;fill-rule:nonzero;stroke:none" />
      <path
         id="path53"
         d="M 12.005,0.34482813 V 0.08701563 H 11.231563 V -3.0301719 c 0,-0.140625 0,-0.1875 -0.164063,-0.1875 -0.09375,0 -0.117187,0 -0.1875,0.09375 L 8.583125,0.08701563 v 0.2578125 h 2.039063 v 0.5859375 c 0,0.23437497 0,0.30468747 -0.5625,0.30468747 H 9.8721875 v 0.2578125 c 0.3515625,-0.023437 0.7968755,-0.023437 1.0546875,-0.023437 0.257813,0 0.703125,0 1.054688,0.023437 V 1.2354531 h -0.1875 c -0.5625,0 -0.5625,-0.070312 -0.5625,-0.30468747 V 0.34482813 Z M 10.669063,-2.4676719 V 0.08701563 H 8.8409375 Z m 2.683593,0.070312 c 0.351563,0.09375 0.5625,0.09375 0.679688,0.09375 0.914062,0 1.476562,-0.6328125 1.476562,-0.75 0,-0.070312 -0.04687,-0.09375 -0.09375,-0.09375 0,0 -0.02344,0 -0.04687,0.023437 -0.164062,0.070312 -0.539062,0.2109375 -1.054687,0.2109375 -0.210938,0 -0.5625,-0.023437 -1.03125,-0.1875 -0.07031,-0.046875 -0.07031,-0.046875 -0.09375,-0.046875 -0.09375,0 -0.09375,0.070312 -0.09375,0.1875 v 2.06250003 c 0,0.1171875 0,0.2109375 0.117187,0.2109375 0.07031,0 0.07031,-0.0234375 0.140625,-0.09375 0.304688,-0.39843753 0.726563,-0.44531253 0.984375,-0.44531253 0.398438,0 0.609375,0.32812503 0.632813,0.37500003 0.117187,0.234375 0.164062,0.515625 0.164062,0.9140625 0,0.2109375 0,0.609375 -0.210937,0.93749997 -0.164063,0.234375 -0.46875,0.3984375 -0.820313,0.3984375 -0.445312,0 -0.914062,-0.234375 -1.078125,-0.70312497 0.257813,0.0234375 0.398438,-0.1640625 0.398438,-0.3515625 0,-0.28125 -0.257813,-0.3515625 -0.351563,-0.3515625 -0.02344,0 -0.351562,0 -0.351562,0.375 0,0.63281247 0.5625,1.26562497 1.40625,1.26562497 0.890625,0 1.664062,-0.65624997 1.664062,-1.54687497 0,-0.796875 -0.585937,-1.52343753 -1.453125,-1.52343753 -0.304687,0 -0.679687,0.09375 -0.984375,0.3515625 z m 0,0"
         style="fill:#ffffff;fill-opacity:1;fill-rule:nonzero;stroke:none" />
    </g>
    <path
       id="path54"
       d="M -26.95966,8.75974 0,28.3468"
       style="fill:none;stroke:#ffffff;stroke-width:0.3985;stroke-linecap:butt;stroke-linejoin:miter;stroke-miterlimit:10;stroke-dasharray:none;stroke-opacity:1"
       transform="matrix(1.3333333,0,0,-1.3333333,138.836,46.636)" />
    <g
       id="g54"
       aria-label="∆&#10;15"
       transform="matrix(0.66666667,0,0,0.66666667,107.35467,18.556)">
      <path
         id="path55"
         d="m 4.4074531,-6.9629063 c -0.070312,-0.1171875 -0.09375,-0.1640625 -0.2578125,-0.1640625 -0.1640625,0 -0.1875,0.046875 -0.2578125,0.1640625 l -3.37499997,6.75000005 c -0.046875,0.09375 -0.046875,0.1171875 -0.046875,0.140625 0,0.0703125 0.0703125,0.0703125 0.2109375,0.0703125 H 7.5949531 c 0.1640625,0 0.234375,0 0.234375,-0.0703125 0,-0.0234375 0,-0.046875 -0.046875,-0.140625 z m -0.5859375,0.8203125 2.6953125,5.39062505 h -5.390625 z m 0,0"
         style="fill:#ffffff;fill-opacity:1;fill-rule:nonzero;stroke:none" />
      <path
         id="path56"
         d="m 10.647688,-2.9609531 c 0,-0.1875 -0.02344,-0.1875 -0.210938,-0.1875 -0.4453125,0.4453125 -1.078125,0.4453125 -1.3828125,0.4453125 v 0.2578125 c 0.1875,0 0.6328125,0 1.0312505,-0.1875 v 3.56249997 c 0,0.21093753 0,0.30468753 -0.7031255,0.30468753 H 9.12425 v 0.2578125 c 0.1171875,0 0.984375,-0.023437 1.242188,-0.023437 0.210937,0 1.078125,0.023437 1.242187,0.023437 V 1.2343594 h -0.257812 c -0.703125,0 -0.703125,-0.09375 -0.703125,-0.30468753 z m 2.701171,0.5625 c 0.351563,0.09375 0.5625,0.09375 0.679688,0.09375 0.914062,0 1.476562,-0.6328125 1.476562,-0.75 0,-0.070312 -0.04687,-0.09375 -0.09375,-0.09375 0,0 -0.02344,0 -0.04687,0.023437 -0.164062,0.070312 -0.539062,0.2109375 -1.054687,0.2109375 -0.210938,0 -0.5625,-0.023437 -1.03125,-0.1875 -0.07031,-0.046875 -0.07031,-0.046875 -0.09375,-0.046875 -0.09375,0 -0.09375,0.070312 -0.09375,0.1875 v 2.06249997 c 0,0.1171875 0,0.2109375 0.117187,0.2109375 0.07031,0 0.07031,-0.0234375 0.140625,-0.09375 0.304688,-0.39843747 0.726563,-0.44531247 0.984375,-0.44531247 0.398438,0 0.609375,0.32812497 0.632813,0.37499997 0.117187,0.234375 0.164062,0.515625 0.164062,0.9140625 0,0.2109375 0,0.609375 -0.210937,0.9375 -0.164063,0.23437503 -0.46875,0.39843753 -0.820313,0.39843753 -0.445312,0 -0.914062,-0.234375 -1.078125,-0.70312503 0.257813,0.0234375 0.398438,-0.1640625 0.398438,-0.3515625 0,-0.28125 -0.257813,-0.3515625 -0.351563,-0.3515625 -0.02344,0 -0.351562,0 -0.351562,0.375 0,0.6328125 0.5625,1.26562503 1.40625,1.26562503 0.890625,0 1.664062,-0.65625003 1.664062,-1.54687503 0,-0.796875 -0.585937,-1.52343747 -1.453125,-1.52343747 -0.304687,0 -0.679687,0.09375 -0.984375,0.3515625 z m 0,0"
         style="fill:#ffffff;fill-opacity:1;fill-rule:nonzero;stroke:none" />
    </g>
  </g>
</svg>
