<?xml version="1.0" encoding="UTF-8" standalone="no"?>
<!-- Created with Inkscape (http://www.inkscape.org/) -->

<svg
   version="1.1"
   id="svg1"
   width="104.036"
   height="102.03733"
   viewBox="0 0 104.036 102.03733"
   xmlns="http://www.w3.org/2000/svg"
   xmlns:svg="http://www.w3.org/2000/svg">
  <defs
     id="defs1" />
  <g
     id="g1">
    <g
       id="g2"
       aria-label="v&#10;1"
       transform="matrix(1.3333333,0,0,1.3333333,51.265333,10.146667)">
      <path
         id="path2"
         d="m 4.6642812,-3.7017969 c 0,-0.5390625 -0.2578125,-0.703125 -0.4453125,-0.703125 -0.2460937,0 -0.4804687,0.2578125 -0.4804687,0.4804688 0,0.1289062 0.046875,0.1875 0.1523437,0.3046875 0.2109375,0.1992187 0.3398438,0.4570312 0.3398438,0.8085937 0,0.421875 -0.609375,2.70703127 -1.7695313,2.70703127 -0.5039062,0 -0.7382812,-0.3515625 -0.7382812,-0.8671875 0,-0.56249997 0.2695312,-1.28906247 0.5742187,-2.12109377 C 2.3674062,-3.2564844 2.426,-3.3971094 2.426,-3.5846094 c 0,-0.4453125 -0.328125,-0.8203125 -0.8203125,-0.8203125 -0.9375,0 -1.3125,1.453125 -1.3125,1.5351563 0,0.1054687 0.09375,0.1054687 0.1171875,0.1054687 0.09375,0 0.10546875,-0.023437 0.15234375,-0.1875 0.29296875,-0.9960937 0.72656245,-1.2304687 1.00781245,-1.2304687 0.082031,0 0.2578125,0 0.2578125,0.3164062 0,0.2460938 -0.1054687,0.515625 -0.1757812,0.703125 -0.4335938,1.1484375 -0.5625,1.6054688 -0.5625,2.0390625 0,1.07812502 0.8671875,1.23046877 1.3359375,1.23046877 1.6640625,0 2.2382812,-3.29296877 2.2382812,-3.80859377 z m 0,0"
         style="fill:#ffffff;fill-opacity:1;fill-rule:nonzero;stroke:none" />
      <path
         id="path3"
         d="m 7.160375,-2.9342188 c 0,-0.1875 -0.011719,-0.1992187 -0.2109375,-0.1992187 -0.4453125,0.4335937 -1.078125,0.4453125 -1.359375,0.4453125 v 0.2460937 c 0.1640625,0 0.6210937,0 1.0078125,-0.1875 V 0.92125 c 0,0.234375 0,0.328125 -0.6914063,0.328125 H 5.6369375 v 0.2460937 c 0.1289062,-0.011719 0.984375,-0.023437 1.2421875,-0.023437 0.2109375,0 1.0898437,0.011719 1.2421875,0.023437 V 1.249375 H 7.8635 c -0.703125,0 -0.703125,-0.09375 -0.703125,-0.328125 z m 0,0"
         style="fill:#ffffff;fill-opacity:1;fill-rule:nonzero;stroke:none" />
    </g>
    <g
       id="g3"
       aria-label="v&#10;2"
       transform="matrix(1.3333333,0,0,1.3333333,4.428,44.812)">
      <path
         id="path4"
         d="m 4.6653281,-3.70275 c 0,-0.5390625 -0.2578125,-0.703125 -0.4453125,-0.703125 -0.2460937,0 -0.4804687,0.2578125 -0.4804687,0.4804688 0,0.1289062 0.046875,0.1875 0.1523437,0.3046875 0.2109375,0.1992187 0.3398438,0.4570312 0.3398438,0.8085937 0,0.421875 -0.609375,2.70703125 -1.7695313,2.70703125 -0.5039062,0 -0.7382812,-0.3515625 -0.7382812,-0.8671875 0,-0.56249995 0.2695312,-1.28906245 0.5742187,-2.12109375 0.070312,-0.1640625 0.1289063,-0.3046875 0.1289063,-0.4921875 0,-0.4453125 -0.328125,-0.8203125 -0.8203125,-0.8203125 -0.93750003,0 -1.31250003,1.453125 -1.31250003,1.5351563 0,0.1054687 0.09375,0.1054687 0.1171875,0.1054687 0.09375,0 0.10546875,-0.023437 0.15234375,-0.1875 0.29296875,-0.9960937 0.72656248,-1.2304687 1.00781248,-1.2304687 0.082031,0 0.2578125,0 0.2578125,0.3164062 0,0.2460938 -0.1054687,0.515625 -0.1757812,0.703125 -0.4335938,1.1484375 -0.5625,1.6054688 -0.5625,2.0390625 0,1.078125 0.8671875,1.23046875 1.3359375,1.23046875 1.6640625,0 2.2382812,-3.29296875 2.2382812,-3.80859375 z m 0,0"
         style="fill:#ffffff;fill-opacity:1;fill-rule:nonzero;stroke:none" />
      <path
         id="path5"
         d="m 8.3450156,0.22889063 h -0.234375 c -0.023437,0.15234375 -0.082031,0.5625 -0.1757812,0.6328125 -0.058594,0.0351563 -0.5976563,0.0351563 -0.6914063,0.0351563 H 5.9543906 c 0.7382813,-0.64453125 0.984375,-0.84375 1.3945313,-1.171875 0.515625,-0.41015625 0.9960937,-0.84374993 0.9960937,-1.49999993 0,-0.8437501 -0.7382812,-1.3593751 -1.6289062,-1.3593751 -0.8671875,0 -1.453125,0.609375 -1.453125,1.2421876 0,0.3632812 0.3046875,0.3984375 0.375,0.3984375 0.1640625,0 0.375,-0.1171875 0.375,-0.375 0,-0.1289063 -0.058594,-0.3632814 -0.421875,-0.3632814 0.2226562,-0.5039062 0.6914062,-0.65625 1.0195312,-0.65625 0.703125,0 1.0664063,0.5507813 1.0664063,1.1132813 0,0.609375 -0.4335938,1.08984378 -0.65625,1.33593753 l -1.6875,1.66406247 c -0.070312,0.058594 -0.070312,0.070312 -0.070312,0.2695312 h 2.8828125 z m 0,0"
         style="fill:#ffffff;fill-opacity:1;fill-rule:nonzero;stroke:none" />
    </g>
    <g
       id="g5"
       aria-label="v&#10;3"
       transform="matrix(1.3333333,0,0,1.3333333,18.157333,95.617333)">
      <path
         id="path6"
         d="m 4.66325,-3.7032344 c 0,-0.5390625 -0.2578125,-0.703125 -0.4453125,-0.703125 -0.2460938,0 -0.4804688,0.2578125 -0.4804688,0.4804688 0,0.1289062 0.046875,0.1875 0.1523438,0.3046875 0.2109375,0.1992187 0.3398437,0.4570312 0.3398437,0.8085937 0,0.421875 -0.609375,2.70703128 -1.7695312,2.70703128 -0.5039063,0 -0.7382813,-0.3515625 -0.7382813,-0.8671875 0,-0.56249998 0.2695313,-1.28906248 0.5742188,-2.12109378 0.070312,-0.1640625 0.1289062,-0.3046875 0.1289062,-0.4921875 0,-0.4453125 -0.328125,-0.8203125 -0.8203125,-0.8203125 -0.93749995,0 -1.31249995,1.453125 -1.31249995,1.5351563 0,0.1054687 0.09375,0.1054687 0.1171875,0.1054687 0.09375,0 0.10546875,-0.023437 0.15234375,-0.1875 C 0.85465625,-3.9493281 1.28825,-4.1837031 1.5695,-4.1837031 c 0.082031,0 0.2578125,0 0.2578125,0.3164062 0,0.2460938 -0.1054688,0.515625 -0.1757813,0.703125 -0.4335937,1.1484375 -0.5625,1.6054688 -0.5625,2.0390625 0,1.07812503 0.8671875,1.23046878 1.3359375,1.23046878 1.6640625,0 2.2382813,-3.29296878 2.2382813,-3.80859378 z m 0,0"
         style="fill:#ffffff;fill-opacity:1;fill-rule:nonzero;stroke:none" />
      <path
         id="path7"
         d="m 6.7286797,-0.838 c 0.5507812,0 0.9375,0.375 0.9375,1.125 0,0.8671875 -0.5039063,1.125 -0.9023438,1.125 -0.28125,0 -0.890625,-0.082031 -1.1835937,-0.4921875 0.328125,-0.0117188 0.3984375,-0.24609375 0.3984375,-0.38671875 0,-0.22265625 -0.1640625,-0.38671875 -0.3867188,-0.38671875 -0.1875,0 -0.3867187,0.1171875 -0.3867187,0.41015625 0,0.65625005 0.7265625,1.07812505 1.5703125,1.07812505 0.9726562,0 1.640625,-0.6445313 1.640625,-1.3476563 0,-0.5390625 -0.4453125,-1.08984375 -1.21875,-1.2421875 0.7382812,-0.2695312 0.9960937,-0.796875 0.9960937,-1.21875 0,-0.5507812 -0.6328125,-0.9609375 -1.40625,-0.9609375 -0.7734375,0 -1.359375,0.375 -1.359375,0.9375 0,0.234375 0.1523438,0.3632813 0.3632813,0.3632813 0.2109375,0 0.3515625,-0.1640625 0.3515625,-0.3515625 0,-0.1992188 -0.140625,-0.3515625 -0.3515625,-0.3632813 0.234375,-0.3046875 0.7148437,-0.3867187 0.9726562,-0.3867187 0.3164063,0 0.7617188,0.1523437 0.7617188,0.7617187 0,0.2929688 -0.1054688,0.609375 -0.28125,0.8320313 -0.234375,0.2578125 -0.421875,0.28125 -0.7734375,0.2929687 -0.1757813,0.023437 -0.1875,0.023437 -0.2226563,0.023437 -0.011719,0 -0.070312,0.011719 -0.070312,0.09375 0,0.09375 0.058594,0.09375 0.1757813,0.09375 z m 0,0"
         style="fill:#ffffff;fill-opacity:1;fill-rule:nonzero;stroke:none" />
    </g>
    <g
       id="g7"
       aria-label="v&#10;4"
       transform="matrix(1.3333333,0,0,1.3333333,84.372,95.617333)">
      <path
         id="path8"
         d="m 4.6633828,-3.7032344 c 0,-0.5390625 -0.2578125,-0.703125 -0.4453125,-0.703125 -0.2460937,0 -0.4804687,0.2578125 -0.4804687,0.4804688 0,0.1289062 0.046875,0.1875 0.1523437,0.3046875 0.2109375,0.1992187 0.3398438,0.4570312 0.3398438,0.8085937 0,0.421875 -0.609375,2.70703128 -1.7695313,2.70703128 -0.5039062,0 -0.7382812,-0.3515625 -0.7382812,-0.8671875 0,-0.56249998 0.2695312,-1.28906248 0.5742187,-2.12109378 0.070312,-0.1640625 0.1289063,-0.3046875 0.1289063,-0.4921875 0,-0.4453125 -0.328125,-0.8203125 -0.8203125,-0.8203125 -0.93750004,0 -1.31250004,1.453125 -1.31250004,1.5351563 0,0.1054687 0.09375,0.1054687 0.1171875,0.1054687 0.09375,0 0.10546875,-0.023437 0.15234375,-0.1875 0.29296875,-0.9960937 0.72656249,-1.2304687 1.00781249,-1.2304687 0.082031,0 0.2578125,0 0.2578125,0.3164062 0,0.2460938 -0.1054687,0.515625 -0.1757812,0.703125 -0.4335938,1.1484375 -0.5625,1.6054688 -0.5625,2.0390625 0,1.07812503 0.8671875,1.23046878 1.3359375,1.23046878 1.6640625,0 2.2382812,-3.29296878 2.2382812,-3.80859378 z m 0,0"
         style="fill:#ffffff;fill-opacity:1;fill-rule:nonzero;stroke:none" />
      <path
         id="path9"
         d="M 8.5217812,0.34559375 V 0.0995 H 7.7483437 v -3.1054687 c 0,-0.1523438 0,-0.1992188 -0.1523437,-0.1992188 -0.09375,0 -0.1171875,0 -0.1875,0.09375 L 5.0999062,0.0995 V 0.34559375 H 7.1506875 V 0.9198125 c 0,0.234375 0,0.328125 -0.5625,0.328125 h -0.1875 v 0.2460938 c 0.3515625,-0.011719 0.796875,-0.023437 1.0429687,-0.023437 0.2578125,0 0.703125,0.011719 1.0546875,0.023437 V 1.2479375 h -0.1875 c -0.5625,0 -0.5625,-0.09375 -0.5625,-0.328125 V 0.34559375 Z M 7.1975625,-2.4551875 V 0.0995 H 5.3577187 Z m 0,0"
         style="fill:#ffffff;fill-opacity:1;fill-rule:nonzero;stroke:none" />
    </g>
    <g
       id="g9"
       aria-label="v&#10;5"
       transform="matrix(1.3333333,0,0,1.3333333,87.210667,44.812)">
      <path
         id="path10"
         d="m 4.6642656,-3.70275 c 0,-0.5390625 -0.2578125,-0.703125 -0.4453125,-0.703125 -0.2460937,0 -0.4804687,0.2578125 -0.4804687,0.4804688 0,0.1289062 0.046875,0.1875 0.1523437,0.3046875 0.2109375,0.1992187 0.3398438,0.4570312 0.3398438,0.8085937 0,0.421875 -0.609375,2.70703125 -1.7695313,2.70703125 -0.5039062,0 -0.7382812,-0.3515625 -0.7382812,-0.8671875 0,-0.56249995 0.2695312,-1.28906245 0.5742187,-2.12109375 0.070312,-0.1640625 0.1289063,-0.3046875 0.1289063,-0.4921875 0,-0.4453125 -0.328125,-0.8203125 -0.8203125,-0.8203125 -0.93750003,0 -1.31250003,1.453125 -1.31250003,1.5351563 0,0.1054687 0.09375,0.1054687 0.1171875,0.1054687 0.09375,0 0.10546875,-0.023437 0.15234375,-0.1875 0.29296875,-0.9960937 0.72656248,-1.2304687 1.00781248,-1.2304687 0.082031,0 0.2578125,0 0.2578125,0.3164062 0,0.2460938 -0.1054687,0.515625 -0.1757812,0.703125 -0.4335938,1.1484375 -0.5625,1.6054688 -0.5625,2.0390625 0,1.078125 0.8671875,1.23046875 1.3359375,1.23046875 1.6640625,0 2.2382812,-3.29296875 2.2382812,-3.80859375 z m 0,0"
         style="fill:#ffffff;fill-opacity:1;fill-rule:nonzero;stroke:none" />
      <path
         id="path11"
         d="m 5.9064531,-2.3961094 c 0.3632813,0.09375 0.5625,0.09375 0.6796875,0.09375 0.9140625,0 1.4648438,-0.6328125 1.4648438,-0.7382812 0,-0.070312 -0.046875,-0.09375 -0.082031,-0.09375 -0.011719,0 -0.035156,0 -0.058594,0.023437 -0.1640625,0.058594 -0.5390625,0.1992187 -1.0546875,0.1992187 -0.1992188,0 -0.5625,-0.011719 -1.0195313,-0.1875 -0.070312,-0.035156 -0.082031,-0.035156 -0.082031,-0.035156 -0.09375,0 -0.09375,0.070312 -0.09375,0.1875 v 2.06249998 c 0,0.1171875 0,0.19921875 0.1054687,0.19921875 0.070312,0 0.070312,-0.0117188 0.140625,-0.10546875 0.3046875,-0.37499998 0.7265625,-0.43359378 0.9726563,-0.43359378 0.421875,0 0.609375,0.33984378 0.6445312,0.38671878 0.1171875,0.234375 0.1640625,0.50390625 0.1640625,0.90234375 0,0.2109375 0,0.62109375 -0.2109375,0.92578125 -0.1757812,0.25781252 -0.46875,0.42187502 -0.8203125,0.42187502 -0.4453125,0 -0.9140625,-0.2578125 -1.0898437,-0.71484377 0.2695312,0.0234375 0.3984375,-0.15234375 0.3984375,-0.33984375 0,-0.3046875 -0.2578125,-0.3515625 -0.3515625,-0.3515625 -0.011719,0 -0.3515625,0 -0.3515625,0.375 0,0.62109372 0.5742187,1.25390622 1.4179687,1.25390622 0.890625,0 1.6640625,-0.66796872 1.6640625,-1.54687497 0,-0.78515625 -0.5976562,-1.51171873 -1.453125,-1.51171873 -0.3164062,0 -0.6796875,0.082031 -0.984375,0.3398437 z m 0,0"
         style="fill:#ffffff;fill-opacity:1;fill-rule:nonzero;stroke:none" />
    </g>
  </g>
</svg>
