<?xml version="1.0" encoding="UTF-8" standalone="no"?>
<!-- Created with Inkscape (http://www.inkscape.org/) -->

<svg
   version="1.1"
   id="svg1"
   width="340.58401"
   height="284.52667"
   viewBox="0 0 340.58401 284.52667"
   xmlns="http://www.w3.org/2000/svg"
   xmlns:svg="http://www.w3.org/2000/svg">
  <defs
     id="defs1" />
  <g
     id="g1">
    <path
       id="path1"
       d="M 0,-85.04042 12.27454,-106.3005"
       style="fill:none;stroke:#fdde2a;stroke-width:0.79701;stroke-linecap:butt;stroke-linejoin:miter;stroke-miterlimit:10;stroke-dasharray:none;stroke-opacity:1"
       transform="matrix(1.3333333,0,0,-1.3333333,172.50667,142.26267)" />
    <path
       id="path2"
       d="M 12.27454,-106.3005 H -12.27454"
       style="fill:none;stroke:#ec008c;stroke-width:0.79701;stroke-linecap:butt;stroke-linejoin:miter;stroke-miterlimit:10;stroke-dasharray:none;stroke-opacity:1"
       transform="matrix(1.3333333,0,0,-1.3333333,172.50667,142.26267)" />
    <path
       id="path3"
       d="M 0,-85.04042 -12.27454,-106.3005"
       style="fill:none;stroke:#00adef;stroke-width:0.79701;stroke-linecap:butt;stroke-linejoin:miter;stroke-miterlimit:10;stroke-dasharray:none;stroke-opacity:1"
       transform="matrix(1.3333333,0,0,-1.3333333,172.50667,142.26267)" />
    <path
       id="path4"
       d="M 0,-28.3468 12.27454,-49.60689"
       style="fill:none;stroke:#fdde2a;stroke-width:0.79701;stroke-linecap:butt;stroke-linejoin:miter;stroke-miterlimit:10;stroke-dasharray:none;stroke-opacity:1"
       transform="matrix(1.3333333,0,0,-1.3333333,172.50667,142.26267)" />
    <path
       id="path5"
       d="M 0,-28.3468 V -56.6936"
       style="fill:none;stroke:#ec008c;stroke-width:0.79701;stroke-linecap:butt;stroke-linejoin:miter;stroke-miterlimit:10;stroke-dasharray:none;stroke-opacity:1"
       transform="matrix(1.3333333,0,0,-1.3333333,172.50667,142.26267)" />
    <path
       id="path6"
       d="M 0,-28.3468 -12.27454,-49.60689"
       style="fill:none;stroke:#00adef;stroke-width:0.79701;stroke-linecap:butt;stroke-linejoin:miter;stroke-miterlimit:10;stroke-dasharray:none;stroke-opacity:1"
       transform="matrix(1.3333333,0,0,-1.3333333,172.50667,142.26267)" />
    <path
       id="path7"
       d="M -85.04042,-56.69362 -97.31497,-77.9537"
       style="fill:none;stroke:#00adef;stroke-width:0.79701;stroke-linecap:butt;stroke-linejoin:miter;stroke-miterlimit:10;stroke-dasharray:none;stroke-opacity:1"
       transform="matrix(1.3333333,0,0,-1.3333333,172.50667,142.26267)" />
    <path
       id="path8"
       d="M -72.76587,-63.78032 -97.31497,-77.9537"
       style="fill:none;stroke:#ec008c;stroke-width:0.79701;stroke-linecap:butt;stroke-linejoin:miter;stroke-miterlimit:10;stroke-dasharray:none;stroke-opacity:1"
       transform="matrix(1.3333333,0,0,-1.3333333,172.50667,142.26267)" />
    <path
       id="path9"
       d="m -72.76587,-77.9537 h -24.5491"
       style="fill:none;stroke:#fdde2a;stroke-width:0.79701;stroke-linecap:butt;stroke-linejoin:miter;stroke-miterlimit:10;stroke-dasharray:none;stroke-opacity:1"
       transform="matrix(1.3333333,0,0,-1.3333333,172.50667,142.26267)" />
    <path
       id="path10"
       d="M 85.04042,-56.69362 97.31497,-77.9537"
       style="fill:none;stroke:#fdde2a;stroke-width:0.79701;stroke-linecap:butt;stroke-linejoin:miter;stroke-miterlimit:10;stroke-dasharray:none;stroke-opacity:1"
       transform="matrix(1.3333333,0,0,-1.3333333,172.50667,142.26267)" />
    <path
       id="path11"
       d="M 97.31497,-77.9537 H 72.76587"
       style="fill:none;stroke:#00adef;stroke-width:0.79701;stroke-linecap:butt;stroke-linejoin:miter;stroke-miterlimit:10;stroke-dasharray:none;stroke-opacity:1"
       transform="matrix(1.3333333,0,0,-1.3333333,172.50667,142.26267)" />
    <path
       id="path12"
       d="m 97.31497,-77.9537 -24.5491,14.17338"
       style="fill:none;stroke:#ec008c;stroke-width:0.79701;stroke-linecap:butt;stroke-linejoin:miter;stroke-miterlimit:10;stroke-dasharray:none;stroke-opacity:1"
       transform="matrix(1.3333333,0,0,-1.3333333,172.50667,142.26267)" />
    <path
       id="path13"
       d="M -113.38724,21.26009 -125.66177,0"
       style="fill:none;stroke:#00adef;stroke-width:0.79701;stroke-linecap:butt;stroke-linejoin:miter;stroke-miterlimit:10;stroke-dasharray:none;stroke-opacity:1"
       transform="matrix(1.3333333,0,0,-1.3333333,172.50667,142.26267)" />
    <path
       id="path14"
       d="M -101.11269,14.17337 -125.66177,0"
       style="fill:none;stroke:#ec008c;stroke-width:0.79701;stroke-linecap:butt;stroke-linejoin:miter;stroke-miterlimit:10;stroke-dasharray:none;stroke-opacity:1"
       transform="matrix(1.3333333,0,0,-1.3333333,172.50667,142.26267)" />
    <path
       id="path15"
       d="M -101.11269,14.17337 -113.38724,-7.0867"
       style="fill:none;stroke:#fdde2a;stroke-width:0.79701;stroke-linecap:butt;stroke-linejoin:miter;stroke-miterlimit:10;stroke-dasharray:none;stroke-opacity:1"
       transform="matrix(1.3333333,0,0,-1.3333333,172.50667,142.26267)" />
    <path
       id="path16"
       d="M 113.38724,21.26009 125.66177,0"
       style="fill:none;stroke:#fdde2a;stroke-width:0.79701;stroke-linecap:butt;stroke-linejoin:miter;stroke-miterlimit:10;stroke-dasharray:none;stroke-opacity:1"
       transform="matrix(1.3333333,0,0,-1.3333333,172.50667,142.26267)" />
    <path
       id="path17"
       d="M 125.66177,0 101.11269,14.17337"
       style="fill:none;stroke:#ec008c;stroke-width:0.79701;stroke-linecap:butt;stroke-linejoin:miter;stroke-miterlimit:10;stroke-dasharray:none;stroke-opacity:1"
       transform="matrix(1.3333333,0,0,-1.3333333,172.50667,142.26267)" />
    <path
       id="path18"
       d="M 113.38724,-7.0867 101.11269,14.17337"
       style="fill:none;stroke:#00adef;stroke-width:0.79701;stroke-linecap:butt;stroke-linejoin:miter;stroke-miterlimit:10;stroke-dasharray:none;stroke-opacity:1"
       transform="matrix(1.3333333,0,0,-1.3333333,172.50667,142.26267)" />
    <path
       id="path19"
       d="m -16.07225,7.08669 h -24.5491"
       style="fill:none;stroke:#00adef;stroke-width:0.79701;stroke-linecap:butt;stroke-linejoin:miter;stroke-miterlimit:10;stroke-dasharray:none;stroke-opacity:1"
       transform="matrix(1.3333333,0,0,-1.3333333,172.50667,142.26267)" />
    <path
       id="path20"
       d="M -16.07225,7.08669 -40.62135,-7.08669"
       style="fill:none;stroke:#ec008c;stroke-width:0.79701;stroke-linecap:butt;stroke-linejoin:miter;stroke-miterlimit:10;stroke-dasharray:none;stroke-opacity:1"
       transform="matrix(1.3333333,0,0,-1.3333333,172.50667,142.26267)" />
    <path
       id="path21"
       d="m -16.07225,-7.08669 h -24.5491"
       style="fill:none;stroke:#fdde2a;stroke-width:0.79701;stroke-linecap:butt;stroke-linejoin:miter;stroke-miterlimit:10;stroke-dasharray:none;stroke-opacity:1"
       transform="matrix(1.3333333,0,0,-1.3333333,172.50667,142.26267)" />
    <path
       id="path22"
       d="M 40.62135,7.08669 H 16.07225"
       style="fill:none;stroke:#00adef;stroke-width:0.79701;stroke-linecap:butt;stroke-linejoin:miter;stroke-miterlimit:10;stroke-dasharray:none;stroke-opacity:1"
       transform="matrix(1.3333333,0,0,-1.3333333,172.50667,142.26267)" />
    <path
       id="path23"
       d="M 40.62135,-7.08669 16.07225,7.08669"
       style="fill:none;stroke:#ec008c;stroke-width:0.79701;stroke-linecap:butt;stroke-linejoin:miter;stroke-miterlimit:10;stroke-dasharray:none;stroke-opacity:1"
       transform="matrix(1.3333333,0,0,-1.3333333,172.50667,142.26267)" />
    <path
       id="path24"
       d="M 40.62135,-7.08669 H 16.07225"
       style="fill:none;stroke:#fdde2a;stroke-width:0.79701;stroke-linecap:butt;stroke-linejoin:miter;stroke-miterlimit:10;stroke-dasharray:none;stroke-opacity:1"
       transform="matrix(1.3333333,0,0,-1.3333333,172.50667,142.26267)" />
    <path
       id="path25"
       d="M -70.867,14.17339 -83.14156,-7.08669"
       style="fill:none;stroke:#00adef;stroke-width:0.79701;stroke-linecap:butt;stroke-linejoin:miter;stroke-miterlimit:10;stroke-dasharray:none;stroke-opacity:1"
       transform="matrix(1.3333333,0,0,-1.3333333,172.50667,142.26267)" />
    <path
       id="path26"
       d="M -70.867,14.17339 V -14.17339"
       style="fill:none;stroke:#ec008c;stroke-width:0.79701;stroke-linecap:butt;stroke-linejoin:miter;stroke-miterlimit:10;stroke-dasharray:none;stroke-opacity:1"
       transform="matrix(1.3333333,0,0,-1.3333333,172.50667,142.26267)" />
    <path
       id="path27"
       d="M -58.59247,7.08669 -70.867,-14.17339"
       style="fill:none;stroke:#fdde2a;stroke-width:0.79701;stroke-linecap:butt;stroke-linejoin:miter;stroke-miterlimit:10;stroke-dasharray:none;stroke-opacity:1"
       transform="matrix(1.3333333,0,0,-1.3333333,172.50667,142.26267)" />
    <path
       id="path28"
       d="M 70.867,14.17339 83.14156,-7.08669"
       style="fill:none;stroke:#fdde2a;stroke-width:0.79701;stroke-linecap:butt;stroke-linejoin:miter;stroke-miterlimit:10;stroke-dasharray:none;stroke-opacity:1"
       transform="matrix(1.3333333,0,0,-1.3333333,172.50667,142.26267)" />
    <path
       id="path29"
       d="M 70.867,14.17339 V -14.17339"
       style="fill:none;stroke:#ec008c;stroke-width:0.79701;stroke-linecap:butt;stroke-linejoin:miter;stroke-miterlimit:10;stroke-dasharray:none;stroke-opacity:1"
       transform="matrix(1.3333333,0,0,-1.3333333,172.50667,142.26267)" />
    <path
       id="path30"
       d="M 70.867,-14.17339 58.59247,7.08669"
       style="fill:none;stroke:#00adef;stroke-width:0.79701;stroke-linecap:butt;stroke-linejoin:miter;stroke-miterlimit:10;stroke-dasharray:none;stroke-opacity:1"
       transform="matrix(1.3333333,0,0,-1.3333333,172.50667,142.26267)" />
    <path
       id="path31"
       d="M 97.31497,77.9537 H 72.76587"
       style="fill:none;stroke:#fdde2a;stroke-width:0.79701;stroke-linecap:butt;stroke-linejoin:miter;stroke-miterlimit:10;stroke-dasharray:none;stroke-opacity:1"
       transform="matrix(1.3333333,0,0,-1.3333333,172.50667,142.26267)" />
    <path
       id="path32"
       d="M 97.31497,63.78032 72.76587,77.9537"
       style="fill:none;stroke:#ec008c;stroke-width:0.79701;stroke-linecap:butt;stroke-linejoin:miter;stroke-miterlimit:10;stroke-dasharray:none;stroke-opacity:1"
       transform="matrix(1.3333333,0,0,-1.3333333,172.50667,142.26267)" />
    <path
       id="path33"
       d="M 85.04042,56.69362 72.76587,77.9537"
       style="fill:none;stroke:#00adef;stroke-width:0.79701;stroke-linecap:butt;stroke-linejoin:miter;stroke-miterlimit:10;stroke-dasharray:none;stroke-opacity:1"
       transform="matrix(1.3333333,0,0,-1.3333333,172.50667,142.26267)" />
    <path
       id="path34"
       d="m -72.76587,77.9537 h -24.5491"
       style="fill:none;stroke:#00adef;stroke-width:0.79701;stroke-linecap:butt;stroke-linejoin:miter;stroke-miterlimit:10;stroke-dasharray:none;stroke-opacity:1"
       transform="matrix(1.3333333,0,0,-1.3333333,172.50667,142.26267)" />
    <path
       id="path35"
       d="M -72.76587,77.9537 -85.04042,56.69362"
       style="fill:none;stroke:#fdde2a;stroke-width:0.79701;stroke-linecap:butt;stroke-linejoin:miter;stroke-miterlimit:10;stroke-dasharray:none;stroke-opacity:1"
       transform="matrix(1.3333333,0,0,-1.3333333,172.50667,142.26267)" />
    <path
       id="path36"
       d="M -72.76587,77.9537 -97.31497,63.78032"
       style="fill:none;stroke:#ec008c;stroke-width:0.79701;stroke-linecap:butt;stroke-linejoin:miter;stroke-miterlimit:10;stroke-dasharray:none;stroke-opacity:1"
       transform="matrix(1.3333333,0,0,-1.3333333,172.50667,142.26267)" />
    <path
       id="path37"
       d="M 0,56.6936 V 28.3468"
       style="fill:none;stroke:#00adef;stroke-width:0.79701;stroke-linecap:butt;stroke-linejoin:miter;stroke-miterlimit:10;stroke-dasharray:none;stroke-opacity:1"
       transform="matrix(1.3333333,0,0,-1.3333333,172.50667,142.26267)" />
    <path
       id="path38"
       d="M 12.27454,49.60689 0,28.3468"
       style="fill:none;stroke:#fdde2a;stroke-width:0.79701;stroke-linecap:butt;stroke-linejoin:miter;stroke-miterlimit:10;stroke-dasharray:none;stroke-opacity:1"
       transform="matrix(1.3333333,0,0,-1.3333333,172.50667,142.26267)" />
    <path
       id="path39"
       d="M -12.27454,49.60689 0,28.3468"
       style="fill:none;stroke:#ec008c;stroke-width:0.79701;stroke-linecap:butt;stroke-linejoin:miter;stroke-miterlimit:10;stroke-dasharray:none;stroke-opacity:1"
       transform="matrix(1.3333333,0,0,-1.3333333,172.50667,142.26267)" />
    <path
       id="path40"
       d="M 12.27454,106.3005 H -12.27454"
       style="fill:none;stroke:#00adef;stroke-width:0.79701;stroke-linecap:butt;stroke-linejoin:miter;stroke-miterlimit:10;stroke-dasharray:none;stroke-opacity:1"
       transform="matrix(1.3333333,0,0,-1.3333333,172.50667,142.26267)" />
    <path
       id="path41"
       d="M 12.27454,106.3005 0,85.04042"
       style="fill:none;stroke:#fdde2a;stroke-width:0.79701;stroke-linecap:butt;stroke-linejoin:miter;stroke-miterlimit:10;stroke-dasharray:none;stroke-opacity:1"
       transform="matrix(1.3333333,0,0,-1.3333333,172.50667,142.26267)" />
    <path
       id="path42"
       d="M 0,85.04042 -12.27454,106.3005"
       style="fill:none;stroke:#ec008c;stroke-width:0.79701;stroke-linecap:butt;stroke-linejoin:miter;stroke-miterlimit:10;stroke-dasharray:none;stroke-opacity:1"
       transform="matrix(1.3333333,0,0,-1.3333333,172.50667,142.26267)" />
    <path
       id="path43"
       d="m -16.13469,-93.83568 -52.77104,17.59053"
       style="fill:none;stroke:#ffffff;stroke-width:0.79701;stroke-linecap:butt;stroke-linejoin:miter;stroke-miterlimit:10;stroke-dasharray:none;stroke-opacity:1"
       transform="matrix(1.3333333,0,0,-1.3333333,172.50667,142.26267)" />
    <path
       id="path44"
       d="m 16.13469,-93.83568 52.77104,17.59053"
       style="fill:none;stroke:#ffffff;stroke-width:0.79701;stroke-linecap:butt;stroke-linejoin:miter;stroke-miterlimit:10;stroke-dasharray:none;stroke-opacity:1"
       transform="matrix(1.3333333,0,0,-1.3333333,172.50667,142.26267)" />
    <path
       id="path45"
       d="m 0,-82.20555 v 22.67709"
       style="fill:none;stroke:#ec008c;stroke-width:1.19553;stroke-linecap:butt;stroke-linejoin:miter;stroke-miterlimit:10;stroke-dasharray:none;stroke-opacity:1"
       transform="matrix(1.3333333,0,0,-1.3333333,172.50667,142.26267)" />
    <path
       id="path46"
       d="m -90.85301,-54.88284 -16.72215,45.98538"
       style="fill:none;stroke:#fdde2a;stroke-width:1.19553;stroke-linecap:butt;stroke-linejoin:miter;stroke-miterlimit:10;stroke-dasharray:none;stroke-opacity:1"
       transform="matrix(1.3333333,0,0,-1.3333333,172.50667,142.26267)" />
    <path
       id="path47"
       d="m -74.41597,-57.58658 35.44472,44.30615"
       style="fill:none;stroke:#00adef;stroke-width:0.79701;stroke-linecap:butt;stroke-linejoin:miter;stroke-miterlimit:10;stroke-dasharray:0.79701, 1.99255;stroke-dashoffset:0;stroke-opacity:1"
       transform="matrix(1.3333333,0,0,-1.3333333,172.50667,142.26267)" />
    <path
       id="path48"
       d="M -14.58403,-33.76953 -56.28297,-8.7504"
       style="fill:none;stroke:#fdde2a;stroke-width:1.19553;stroke-linecap:butt;stroke-linejoin:miter;stroke-miterlimit:10;stroke-dasharray:none;stroke-opacity:1"
       transform="matrix(1.3333333,0,0,-1.3333333,172.50667,142.26267)" />
    <path
       id="path49"
       d="M 14.58403,-33.76953 56.28297,-8.7504"
       style="fill:none;stroke:#00adef;stroke-width:1.19553;stroke-linecap:butt;stroke-linejoin:miter;stroke-miterlimit:10;stroke-dasharray:none;stroke-opacity:1"
       transform="matrix(1.3333333,0,0,-1.3333333,172.50667,142.26267)" />
    <path
       id="path50"
       d="M 74.41597,-57.58658 38.97125,-13.28043"
       style="fill:none;stroke:#ffffff;stroke-width:0.79701;stroke-linecap:butt;stroke-linejoin:miter;stroke-miterlimit:10;stroke-dasharray:0.79701, 1.99255;stroke-dashoffset:0;stroke-opacity:1"
       transform="matrix(1.3333333,0,0,-1.3333333,172.50667,142.26267)" />
    <path
       id="path51"
       d="m 90.85301,-54.88284 16.72215,45.98538"
       style="fill:none;stroke:#00adef;stroke-width:1.19553;stroke-linecap:butt;stroke-linejoin:miter;stroke-miterlimit:10;stroke-dasharray:none;stroke-opacity:1"
       transform="matrix(1.3333333,0,0,-1.3333333,172.50667,142.26267)" />
    <path
       id="path52"
       d="m -96.61125,4.29083 8.96826,-1.49498"
       style="fill:none;stroke:#ec008c;stroke-width:1.19553;stroke-linecap:butt;stroke-linejoin:miter;stroke-miterlimit:10;stroke-dasharray:none;stroke-opacity:1"
       transform="matrix(1.3333333,0,0,-1.3333333,172.50667,142.26267)" />
    <path
       id="path53"
       d="m -106.4797,22.62862 14.53176,32.69645"
       style="fill:none;stroke:#ffffff;stroke-width:0.79701;stroke-linecap:butt;stroke-linejoin:miter;stroke-miterlimit:10;stroke-dasharray:none;stroke-opacity:1"
       transform="matrix(1.3333333,0,0,-1.3333333,172.50667,142.26267)" />
    <path
       id="path54"
       d="m -56.28297,8.75066 41.69894,25.01913"
       style="fill:none;stroke:#ffffff;stroke-width:0.79701;stroke-linecap:butt;stroke-linejoin:miter;stroke-miterlimit:10;stroke-dasharray:none;stroke-opacity:1"
       transform="matrix(1.3333333,0,0,-1.3333333,172.50667,142.26267)" />
    <path
       id="path55"
       d="m -11.33855,0 h 22.6771"
       style="fill:none;stroke:#ec008c;stroke-width:0.79701;stroke-linecap:butt;stroke-linejoin:miter;stroke-miterlimit:10;stroke-dasharray:0.79701, 1.99255;stroke-dashoffset:0;stroke-opacity:1"
       transform="matrix(1.3333333,0,0,-1.3333333,172.50667,142.26267)" />
    <path
       id="path56"
       d="M -38.97125,13.28043 -74.41597,57.58658"
       style="fill:none;stroke:#fdde2a;stroke-width:0.79701;stroke-linecap:butt;stroke-linejoin:miter;stroke-miterlimit:10;stroke-dasharray:0.79701, 1.99255;stroke-dashoffset:0;stroke-opacity:1"
       transform="matrix(1.3333333,0,0,-1.3333333,172.50667,142.26267)" />
    <path
       id="path57"
       d="M 38.97125,13.28043 74.41597,57.58658"
       style="fill:none;stroke:#ffffff;stroke-width:0.79701;stroke-linecap:butt;stroke-linejoin:miter;stroke-miterlimit:10;stroke-dasharray:0.79701, 1.99255;stroke-dashoffset:0;stroke-opacity:1"
       transform="matrix(1.3333333,0,0,-1.3333333,172.50667,142.26267)" />
    <path
       id="path58"
       d="M 56.28297,8.75066 14.58403,33.76979"
       style="fill:none;stroke:#ffffff;stroke-width:0.79701;stroke-linecap:butt;stroke-linejoin:miter;stroke-miterlimit:10;stroke-dasharray:none;stroke-opacity:1"
       transform="matrix(1.3333333,0,0,-1.3333333,172.50667,142.26267)" />
    <path
       id="path59"
       d="m 87.64299,2.79585 8.96826,1.49498"
       style="fill:none;stroke:#ec008c;stroke-width:1.19553;stroke-linecap:butt;stroke-linejoin:miter;stroke-miterlimit:10;stroke-dasharray:none;stroke-opacity:1"
       transform="matrix(1.3333333,0,0,-1.3333333,172.50667,142.26267)" />
    <path
       id="path60"
       d="M 106.4797,22.62862 91.94794,55.32507"
       style="fill:none;stroke:#fdde2a;stroke-width:1.19553;stroke-linecap:butt;stroke-linejoin:miter;stroke-miterlimit:10;stroke-dasharray:none;stroke-opacity:1"
       transform="matrix(1.3333333,0,0,-1.3333333,172.50667,142.26267)" />
    <path
       id="path61"
       d="M 0,59.52846 V 82.20555"
       style="fill:none;stroke:#00adef;stroke-width:1.19553;stroke-linecap:butt;stroke-linejoin:miter;stroke-miterlimit:10;stroke-dasharray:none;stroke-opacity:1"
       transform="matrix(1.3333333,0,0,-1.3333333,172.50667,142.26267)" />
    <path
       id="path62"
       d="m -68.90573,76.24515 52.77104,17.59053"
       style="fill:none;stroke:#ec008c;stroke-width:1.19553;stroke-linecap:butt;stroke-linejoin:miter;stroke-miterlimit:10;stroke-dasharray:none;stroke-opacity:1"
       transform="matrix(1.3333333,0,0,-1.3333333,172.50667,142.26267)" />
    <path
       id="path63"
       d="M 68.90573,76.24515 16.13469,93.83568"
       style="fill:none;stroke:#ffffff;stroke-width:0.79701;stroke-linecap:butt;stroke-linejoin:miter;stroke-miterlimit:10;stroke-dasharray:none;stroke-opacity:1"
       transform="matrix(1.3333333,0,0,-1.3333333,172.50667,142.26267)" />
  </g>
</svg>
