<?xml version="1.0" encoding="UTF-8" standalone="no"?>
<!-- Created with Inkscape (http://www.inkscape.org/) -->

<svg
   version="1.1"
   id="svg1"
   width="469.04001"
   height="210.47467"
   viewBox="0 0 469.04001 210.47467"
   xmlns="http://www.w3.org/2000/svg"
   xmlns:svg="http://www.w3.org/2000/svg">
  <defs
     id="defs1" />
  <g
     id="g1">
    <path
       id="path1"
       d="m 4.4192344,-2.4960703 c 0,-1.0546875 -0.8789063,-1.921875 -1.921875,-1.921875 -1.078125,0 -1.94531252,0.8789062 -1.94531252,1.921875 0,1.0664062 0.86718752,1.93359374 1.94531252,1.93359374 1.0429687,0 1.921875,-0.86718754 1.921875,-1.93359374 z m 0,0"
       style="fill:#ffffff;fill-opacity:1;fill-rule:nonzero;stroke:none"
       aria-label="•"
       transform="matrix(1.3333333,0,0,1.3333333,4.428,10.332)" />
    <path
       id="path2"
       d="m 4.4192344,-2.4973437 c 0,-1.0546875 -0.8789063,-1.921875 -1.921875,-1.921875 -1.078125,0 -1.94531252,0.8789062 -1.94531252,1.921875 0,1.0664062 0.86718752,1.9335937 1.94531252,1.9335937 1.0429687,0 1.921875,-0.8671875 1.921875,-1.9335937 z m 0,0"
       style="fill:#ffffff;fill-opacity:1;fill-rule:nonzero;stroke:none"
       aria-label="•"
       transform="matrix(1.3333333,0,0,1.3333333,4.428,48.126667)" />
    <path
       id="path3"
       d="m 4.4192344,-2.4956875 c 0,-1.0546875 -0.8789063,-1.921875 -1.921875,-1.921875 -1.078125,0 -1.94531252,0.8789062 -1.94531252,1.921875 0,1.0664062 0.86718752,1.93359375 1.94531252,1.93359375 1.0429687,0 1.921875,-0.86718755 1.921875,-1.93359375 z m 0,0"
       style="fill:#ffffff;fill-opacity:1;fill-rule:nonzero;stroke:none"
       aria-label="•"
       transform="matrix(1.3333333,0,0,1.3333333,4.428,85.921333)" />
    <path
       id="path4"
       d="m 4.4192344,-2.4950312 c 0,-1.0546875 -0.8789063,-1.921875 -1.921875,-1.921875 -1.078125,0 -1.94531252,0.8789062 -1.94531252,1.921875 0,1.0664062 0.86718752,1.9335937 1.94531252,1.9335937 1.0429687,0 1.921875,-0.8671875 1.921875,-1.9335937 z m 0,0"
       style="fill:#ffffff;fill-opacity:1;fill-rule:nonzero;stroke:none"
       aria-label="•"
       transform="matrix(1.3333333,0,0,1.3333333,4.428,123.71733)" />
    <path
       id="path5"
       d="m 4.4192344,-2.4963047 c 0,-1.0546875 -0.8789063,-1.921875 -1.921875,-1.921875 -1.078125,0 -1.94531252,0.8789063 -1.94531252,1.921875 0,1.0664063 0.86718752,1.93359376 1.94531252,1.93359376 1.0429687,0 1.921875,-0.86718746 1.921875,-1.93359376 z m 0,0"
       style="fill:#ffffff;fill-opacity:1;fill-rule:nonzero;stroke:none"
       aria-label="•"
       transform="matrix(1.3333333,0,0,1.3333333,4.428,161.512)" />
    <path
       id="path6"
       d="m 4.4192344,-2.4956484 c 0,-1.0546875 -0.8789063,-1.921875 -1.921875,-1.921875 -1.078125,0 -1.94531252,0.8789062 -1.94531252,1.921875 0,1.0664062 0.86718752,1.93359371 1.94531252,1.93359371 1.0429687,0 1.921875,-0.86718751 1.921875,-1.93359371 z m 0,0"
       style="fill:#ffffff;fill-opacity:1;fill-rule:nonzero;stroke:none"
       aria-label="•"
       transform="matrix(1.3333333,0,0,1.3333333,4.428,199.308)" />
    <path
       id="path7"
       d="m 4.4166875,-2.4960703 c 0,-1.0546875 -0.8789063,-1.921875 -1.921875,-1.921875 -1.078125,0 -1.9453125,0.8789062 -1.9453125,1.921875 0,1.0664062 0.8671875,1.93359374 1.9453125,1.93359374 1.0429687,0 1.921875,-0.86718754 1.921875,-1.93359374 z m 0,0"
       style="fill:#ffffff;fill-opacity:1;fill-rule:nonzero;stroke:none"
       aria-label="•"
       transform="matrix(1.3333333,0,0,1.3333333,80.017333,10.332)" />
    <path
       id="path8"
       d="m 4.4166875,-2.4973437 c 0,-1.0546875 -0.8789063,-1.921875 -1.921875,-1.921875 -1.078125,0 -1.9453125,0.8789062 -1.9453125,1.921875 0,1.0664062 0.8671875,1.9335937 1.9453125,1.9335937 1.0429687,0 1.921875,-0.8671875 1.921875,-1.9335937 z m 0,0"
       style="fill:#ffffff;fill-opacity:1;fill-rule:nonzero;stroke:none"
       aria-label="•"
       transform="matrix(1.3333333,0,0,1.3333333,80.017333,48.126667)" />
    <path
       id="path9"
       d="m 4.4166875,-2.4956875 c 0,-1.0546875 -0.8789063,-1.921875 -1.921875,-1.921875 -1.078125,0 -1.9453125,0.8789062 -1.9453125,1.921875 0,1.0664062 0.8671875,1.93359375 1.9453125,1.93359375 1.0429687,0 1.921875,-0.86718755 1.921875,-1.93359375 z m 0,0"
       style="fill:#ffffff;fill-opacity:1;fill-rule:nonzero;stroke:none"
       aria-label="•"
       transform="matrix(1.3333333,0,0,1.3333333,80.017333,85.921333)" />
    <path
       id="path10"
       d="m 4.4166875,-2.4950312 c 0,-1.0546875 -0.8789063,-1.921875 -1.921875,-1.921875 -1.078125,0 -1.9453125,0.8789062 -1.9453125,1.921875 0,1.0664062 0.8671875,1.9335937 1.9453125,1.9335937 1.0429687,0 1.921875,-0.8671875 1.921875,-1.9335937 z m 0,0"
       style="fill:#ffffff;fill-opacity:1;fill-rule:nonzero;stroke:none"
       aria-label="•"
       transform="matrix(1.3333333,0,0,1.3333333,80.017333,123.71733)" />
    <path
       id="path11"
       d="m 4.4166875,-2.4963047 c 0,-1.0546875 -0.8789063,-1.921875 -1.921875,-1.921875 -1.078125,0 -1.9453125,0.8789063 -1.9453125,1.921875 0,1.0664063 0.8671875,1.93359376 1.9453125,1.93359376 1.0429687,0 1.921875,-0.86718746 1.921875,-1.93359376 z m 0,0"
       style="fill:#ffffff;fill-opacity:1;fill-rule:nonzero;stroke:none"
       aria-label="•"
       transform="matrix(1.3333333,0,0,1.3333333,80.017333,161.512)" />
    <path
       id="path12"
       d="m 4.4166875,-2.4956484 c 0,-1.0546875 -0.8789063,-1.921875 -1.921875,-1.921875 -1.078125,0 -1.9453125,0.8789062 -1.9453125,1.921875 0,1.0664062 0.8671875,1.93359371 1.9453125,1.93359371 1.0429687,0 1.921875,-0.86718751 1.921875,-1.93359371 z m 0,0"
       style="fill:#ffffff;fill-opacity:1;fill-rule:nonzero;stroke:none"
       aria-label="•"
       transform="matrix(1.3333333,0,0,1.3333333,80.017333,199.308)" />
    <path
       id="path13"
       d="m 4.419,-2.4960703 c 0,-1.0546875 -0.8789062,-1.921875 -1.921875,-1.921875 -1.078125,0 -1.9453125,0.8789062 -1.9453125,1.921875 0,1.0664062 0.8671875,1.93359374 1.9453125,1.93359374 1.0429688,0 1.921875,-0.86718754 1.921875,-1.93359374 z m 0,0"
       style="fill:#ffffff;fill-opacity:1;fill-rule:nonzero;stroke:none"
       aria-label="•"
       transform="matrix(1.3333333,0,0,1.3333333,155.608,10.332)" />
    <path
       id="path14"
       d="m 4.419,-2.4973437 c 0,-1.0546875 -0.8789062,-1.921875 -1.921875,-1.921875 -1.078125,0 -1.9453125,0.8789062 -1.9453125,1.921875 0,1.0664062 0.8671875,1.9335937 1.9453125,1.9335937 1.0429688,0 1.921875,-0.8671875 1.921875,-1.9335937 z m 0,0"
       style="fill:#ffffff;fill-opacity:1;fill-rule:nonzero;stroke:none"
       aria-label="•"
       transform="matrix(1.3333333,0,0,1.3333333,155.608,48.126667)" />
    <path
       id="path15"
       d="m 4.419,-2.4956875 c 0,-1.0546875 -0.8789062,-1.921875 -1.921875,-1.921875 -1.078125,0 -1.9453125,0.8789062 -1.9453125,1.921875 0,1.0664062 0.8671875,1.93359375 1.9453125,1.93359375 1.0429688,0 1.921875,-0.86718755 1.921875,-1.93359375 z m 0,0"
       style="fill:#ffffff;fill-opacity:1;fill-rule:nonzero;stroke:none"
       aria-label="•"
       transform="matrix(1.3333333,0,0,1.3333333,155.608,85.921333)" />
    <path
       id="path16"
       d="m 4.419,-2.4950312 c 0,-1.0546875 -0.8789062,-1.921875 -1.921875,-1.921875 -1.078125,0 -1.9453125,0.8789062 -1.9453125,1.921875 0,1.0664062 0.8671875,1.9335937 1.9453125,1.9335937 1.0429688,0 1.921875,-0.8671875 1.921875,-1.9335937 z m 0,0"
       style="fill:#ffffff;fill-opacity:1;fill-rule:nonzero;stroke:none"
       aria-label="•"
       transform="matrix(1.3333333,0,0,1.3333333,155.608,123.71733)" />
    <path
       id="path17"
       d="m 4.419,-2.4963047 c 0,-1.0546875 -0.8789062,-1.921875 -1.921875,-1.921875 -1.078125,0 -1.9453125,0.8789063 -1.9453125,1.921875 0,1.0664063 0.8671875,1.93359376 1.9453125,1.93359376 1.0429688,0 1.921875,-0.86718746 1.921875,-1.93359376 z m 0,0"
       style="fill:#ffffff;fill-opacity:1;fill-rule:nonzero;stroke:none"
       aria-label="•"
       transform="matrix(1.3333333,0,0,1.3333333,155.608,161.512)" />
    <path
       id="path18"
       d="m 4.419,-2.4956484 c 0,-1.0546875 -0.8789062,-1.921875 -1.921875,-1.921875 -1.078125,0 -1.9453125,0.8789062 -1.9453125,1.921875 0,1.0664062 0.8671875,1.93359371 1.9453125,1.93359371 1.0429688,0 1.921875,-0.86718751 1.921875,-1.93359371 z m 0,0"
       style="fill:#ffffff;fill-opacity:1;fill-rule:nonzero;stroke:none"
       aria-label="•"
       transform="matrix(1.3333333,0,0,1.3333333,155.608,199.308)" />
    <path
       id="path19"
       d="m 4.4183828,-2.4960703 c 0,-1.0546875 -0.8789062,-1.921875 -1.921875,-1.921875 -1.078125,0 -1.94531249,0.8789062 -1.94531249,1.921875 0,1.0664062 0.86718749,1.93359374 1.94531249,1.93359374 1.0429688,0 1.921875,-0.86718754 1.921875,-1.93359374 z m 0,0"
       style="fill:#ffffff;fill-opacity:1;fill-rule:nonzero;stroke:none"
       aria-label="•"
       transform="matrix(1.3333333,0,0,1.3333333,231.19867,10.332)" />
    <path
       id="path20"
       d="m 4.4183828,-2.4973437 c 0,-1.0546875 -0.8789062,-1.921875 -1.921875,-1.921875 -1.078125,0 -1.94531249,0.8789062 -1.94531249,1.921875 0,1.0664062 0.86718749,1.9335937 1.94531249,1.9335937 1.0429688,0 1.921875,-0.8671875 1.921875,-1.9335937 z m 0,0"
       style="fill:#ffffff;fill-opacity:1;fill-rule:nonzero;stroke:none"
       aria-label="•"
       transform="matrix(1.3333333,0,0,1.3333333,231.19867,48.126667)" />
    <path
       id="path21"
       d="m 4.4183828,-2.4956875 c 0,-1.0546875 -0.8789062,-1.921875 -1.921875,-1.921875 -1.078125,0 -1.94531249,0.8789062 -1.94531249,1.921875 0,1.0664062 0.86718749,1.93359375 1.94531249,1.93359375 1.0429688,0 1.921875,-0.86718755 1.921875,-1.93359375 z m 0,0"
       style="fill:#ffffff;fill-opacity:1;fill-rule:nonzero;stroke:none"
       aria-label="•"
       transform="matrix(1.3333333,0,0,1.3333333,231.19867,85.921333)" />
    <path
       id="path22"
       d="m 4.4183828,-2.4950312 c 0,-1.0546875 -0.8789062,-1.921875 -1.921875,-1.921875 -1.078125,0 -1.94531249,0.8789062 -1.94531249,1.921875 0,1.0664062 0.86718749,1.9335937 1.94531249,1.9335937 1.0429688,0 1.921875,-0.8671875 1.921875,-1.9335937 z m 0,0"
       style="fill:#ffffff;fill-opacity:1;fill-rule:nonzero;stroke:none"
       aria-label="•"
       transform="matrix(1.3333333,0,0,1.3333333,231.19867,123.71733)" />
    <path
       id="path23"
       d="m 4.4183828,-2.4963047 c 0,-1.0546875 -0.8789062,-1.921875 -1.921875,-1.921875 -1.078125,0 -1.94531249,0.8789063 -1.94531249,1.921875 0,1.0664063 0.86718749,1.93359376 1.94531249,1.93359376 1.0429688,0 1.921875,-0.86718746 1.921875,-1.93359376 z m 0,0"
       style="fill:#ffffff;fill-opacity:1;fill-rule:nonzero;stroke:none"
       aria-label="•"
       transform="matrix(1.3333333,0,0,1.3333333,231.19867,161.512)" />
    <path
       id="path24"
       d="m 4.4183828,-2.4956484 c 0,-1.0546875 -0.8789062,-1.921875 -1.921875,-1.921875 -1.078125,0 -1.94531249,0.8789062 -1.94531249,1.921875 0,1.0664062 0.86718749,1.93359371 1.94531249,1.93359371 1.0429688,0 1.921875,-0.86718751 1.921875,-1.93359371 z m 0,0"
       style="fill:#ffffff;fill-opacity:1;fill-rule:nonzero;stroke:none"
       aria-label="•"
       transform="matrix(1.3333333,0,0,1.3333333,231.19867,199.308)" />
    <path
       id="path25"
       d="m 4.4177656,-2.4960703 c 0,-1.0546875 -0.8789062,-1.921875 -1.921875,-1.921875 -1.078125,0 -1.94531247,0.8789062 -1.94531247,1.921875 0,1.0664062 0.86718747,1.93359374 1.94531247,1.93359374 1.0429688,0 1.921875,-0.86718754 1.921875,-1.93359374 z m 0,0"
       style="fill:#ffffff;fill-opacity:1;fill-rule:nonzero;stroke:none"
       aria-label="•"
       transform="matrix(1.3333333,0,0,1.3333333,306.78933,10.332)" />
    <path
       id="path26"
       d="m 4.4177656,-2.4973437 c 0,-1.0546875 -0.8789062,-1.921875 -1.921875,-1.921875 -1.078125,0 -1.94531247,0.8789062 -1.94531247,1.921875 0,1.0664062 0.86718747,1.9335937 1.94531247,1.9335937 1.0429688,0 1.921875,-0.8671875 1.921875,-1.9335937 z m 0,0"
       style="fill:#ffffff;fill-opacity:1;fill-rule:nonzero;stroke:none"
       aria-label="•"
       transform="matrix(1.3333333,0,0,1.3333333,306.78933,48.126667)" />
    <path
       id="path27"
       d="m 4.4177656,-2.4956875 c 0,-1.0546875 -0.8789062,-1.921875 -1.921875,-1.921875 -1.078125,0 -1.94531247,0.8789062 -1.94531247,1.921875 0,1.0664062 0.86718747,1.93359375 1.94531247,1.93359375 1.0429688,0 1.921875,-0.86718755 1.921875,-1.93359375 z m 0,0"
       style="fill:#ffffff;fill-opacity:1;fill-rule:nonzero;stroke:none"
       aria-label="•"
       transform="matrix(1.3333333,0,0,1.3333333,306.78933,85.921333)" />
    <path
       id="path28"
       d="m 4.4177656,-2.4950312 c 0,-1.0546875 -0.8789062,-1.921875 -1.921875,-1.921875 -1.078125,0 -1.94531247,0.8789062 -1.94531247,1.921875 0,1.0664062 0.86718747,1.9335937 1.94531247,1.9335937 1.0429688,0 1.921875,-0.8671875 1.921875,-1.9335937 z m 0,0"
       style="fill:#ffffff;fill-opacity:1;fill-rule:nonzero;stroke:none"
       aria-label="•"
       transform="matrix(1.3333333,0,0,1.3333333,306.78933,123.71733)" />
    <path
       id="path29"
       d="m 4.4177656,-2.4963047 c 0,-1.0546875 -0.8789062,-1.921875 -1.921875,-1.921875 -1.078125,0 -1.94531247,0.8789063 -1.94531247,1.921875 0,1.0664063 0.86718747,1.93359376 1.94531247,1.93359376 1.0429688,0 1.921875,-0.86718746 1.921875,-1.93359376 z m 0,0"
       style="fill:#ffffff;fill-opacity:1;fill-rule:nonzero;stroke:none"
       aria-label="•"
       transform="matrix(1.3333333,0,0,1.3333333,306.78933,161.512)" />
    <path
       id="path30"
       d="m 4.4177656,-2.4956484 c 0,-1.0546875 -0.8789062,-1.921875 -1.921875,-1.921875 -1.078125,0 -1.94531247,0.8789062 -1.94531247,1.921875 0,1.0664062 0.86718747,1.93359371 1.94531247,1.93359371 1.0429688,0 1.921875,-0.86718751 1.921875,-1.93359371 z m 0,0"
       style="fill:#ffffff;fill-opacity:1;fill-rule:nonzero;stroke:none"
       aria-label="•"
       transform="matrix(1.3333333,0,0,1.3333333,306.78933,199.308)" />
    <path
       id="path31"
       d="m 4.4171484,-2.4960703 c 0,-1.0546875 -0.8789062,-1.921875 -1.921875,-1.921875 -1.078125,0 -1.94531246,0.8789062 -1.94531246,1.921875 0,1.0664062 0.86718746,1.93359374 1.94531246,1.93359374 1.0429688,0 1.921875,-0.86718754 1.921875,-1.93359374 z m 0,0"
       style="fill:#ffffff;fill-opacity:1;fill-rule:nonzero;stroke:none"
       aria-label="•"
       transform="matrix(1.3333333,0,0,1.3333333,382.38,10.332)" />
    <path
       id="path32"
       d="m 4.4171484,-2.4973437 c 0,-1.0546875 -0.8789062,-1.921875 -1.921875,-1.921875 -1.078125,0 -1.94531246,0.8789062 -1.94531246,1.921875 0,1.0664062 0.86718746,1.9335937 1.94531246,1.9335937 1.0429688,0 1.921875,-0.8671875 1.921875,-1.9335937 z m 0,0"
       style="fill:#ffffff;fill-opacity:1;fill-rule:nonzero;stroke:none"
       aria-label="•"
       transform="matrix(1.3333333,0,0,1.3333333,382.38,48.126667)" />
    <path
       id="path33"
       d="m 4.4171484,-2.4956875 c 0,-1.0546875 -0.8789062,-1.921875 -1.921875,-1.921875 -1.078125,0 -1.94531246,0.8789062 -1.94531246,1.921875 0,1.0664062 0.86718746,1.93359375 1.94531246,1.93359375 1.0429688,0 1.921875,-0.86718755 1.921875,-1.93359375 z m 0,0"
       style="fill:#ffffff;fill-opacity:1;fill-rule:nonzero;stroke:none"
       aria-label="•"
       transform="matrix(1.3333333,0,0,1.3333333,382.38,85.921333)" />
    <path
       id="path34"
       d="m 4.4171484,-2.4950312 c 0,-1.0546875 -0.8789062,-1.921875 -1.921875,-1.921875 -1.078125,0 -1.94531246,0.8789062 -1.94531246,1.921875 0,1.0664062 0.86718746,1.9335937 1.94531246,1.9335937 1.0429688,0 1.921875,-0.8671875 1.921875,-1.9335937 z m 0,0"
       style="fill:#ffffff;fill-opacity:1;fill-rule:nonzero;stroke:none"
       aria-label="•"
       transform="matrix(1.3333333,0,0,1.3333333,382.38,123.71733)" />
    <path
       id="path35"
       d="m 4.4171484,-2.4963047 c 0,-1.0546875 -0.8789062,-1.921875 -1.921875,-1.921875 -1.078125,0 -1.94531246,0.8789063 -1.94531246,1.921875 0,1.0664063 0.86718746,1.93359376 1.94531246,1.93359376 1.0429688,0 1.921875,-0.86718746 1.921875,-1.93359376 z m 0,0"
       style="fill:#ffffff;fill-opacity:1;fill-rule:nonzero;stroke:none"
       aria-label="•"
       transform="matrix(1.3333333,0,0,1.3333333,382.38,161.512)" />
    <path
       id="path36"
       d="m 4.4171484,-2.4956484 c 0,-1.0546875 -0.8789062,-1.921875 -1.921875,-1.921875 -1.078125,0 -1.94531246,0.8789062 -1.94531246,1.921875 0,1.0664062 0.86718746,1.93359371 1.94531246,1.93359371 1.0429688,0 1.921875,-0.86718751 1.921875,-1.93359371 z m 0,0"
       style="fill:#ffffff;fill-opacity:1;fill-rule:nonzero;stroke:none"
       aria-label="•"
       transform="matrix(1.3333333,0,0,1.3333333,382.38,199.308)" />
    <path
       id="path37"
       d="m 4.4165312,-2.4960703 c 0,-1.0546875 -0.8789062,-1.921875 -1.921875,-1.921875 -1.078125,0 -1.94531245,0.8789062 -1.94531245,1.921875 0,1.0664062 0.86718745,1.93359374 1.94531245,1.93359374 1.0429688,0 1.921875,-0.86718754 1.921875,-1.93359374 z m 0,0"
       style="fill:#ffffff;fill-opacity:1;fill-rule:nonzero;stroke:none"
       aria-label="•"
       transform="matrix(1.3333333,0,0,1.3333333,457.97067,10.332)" />
    <path
       id="path38"
       d="m 4.4165312,-2.4973437 c 0,-1.0546875 -0.8789062,-1.921875 -1.921875,-1.921875 -1.078125,0 -1.94531245,0.8789062 -1.94531245,1.921875 0,1.0664062 0.86718745,1.9335937 1.94531245,1.9335937 1.0429688,0 1.921875,-0.8671875 1.921875,-1.9335937 z m 0,0"
       style="fill:#ffffff;fill-opacity:1;fill-rule:nonzero;stroke:none"
       aria-label="•"
       transform="matrix(1.3333333,0,0,1.3333333,457.97067,48.126667)" />
    <path
       id="path39"
       d="m 4.4165312,-2.4956875 c 0,-1.0546875 -0.8789062,-1.921875 -1.921875,-1.921875 -1.078125,0 -1.94531245,0.8789062 -1.94531245,1.921875 0,1.0664062 0.86718745,1.93359375 1.94531245,1.93359375 1.0429688,0 1.921875,-0.86718755 1.921875,-1.93359375 z m 0,0"
       style="fill:#ffffff;fill-opacity:1;fill-rule:nonzero;stroke:none"
       aria-label="•"
       transform="matrix(1.3333333,0,0,1.3333333,457.97067,85.921333)" />
    <path
       id="path40"
       d="m 4.4165312,-2.4950312 c 0,-1.0546875 -0.8789062,-1.921875 -1.921875,-1.921875 -1.078125,0 -1.94531245,0.8789062 -1.94531245,1.921875 0,1.0664062 0.86718745,1.9335937 1.94531245,1.9335937 1.0429688,0 1.921875,-0.8671875 1.921875,-1.9335937 z m 0,0"
       style="fill:#ffffff;fill-opacity:1;fill-rule:nonzero;stroke:none"
       aria-label="•"
       transform="matrix(1.3333333,0,0,1.3333333,457.97067,123.71733)" />
    <path
       id="path41"
       d="m 4.4165312,-2.4963047 c 0,-1.0546875 -0.8789062,-1.921875 -1.921875,-1.921875 -1.078125,0 -1.94531245,0.8789063 -1.94531245,1.921875 0,1.0664063 0.86718745,1.93359376 1.94531245,1.93359376 1.0429688,0 1.921875,-0.86718746 1.921875,-1.93359376 z m 0,0"
       style="fill:#ffffff;fill-opacity:1;fill-rule:nonzero;stroke:none"
       aria-label="•"
       transform="matrix(1.3333333,0,0,1.3333333,457.97067,161.512)" />
    <path
       id="path42"
       d="m 4.4165312,-2.4956484 c 0,-1.0546875 -0.8789062,-1.921875 -1.921875,-1.921875 -1.078125,0 -1.94531245,0.8789062 -1.94531245,1.921875 0,1.0664062 0.86718745,1.93359371 1.94531245,1.93359371 1.0429688,0 1.921875,-0.86718751 1.921875,-1.93359371 z m 0,0"
       style="fill:#ffffff;fill-opacity:1;fill-rule:nonzero;stroke:none"
       aria-label="•"
       transform="matrix(1.3333333,0,0,1.3333333,457.97067,199.308)" />
    <path
       id="path43"
       d="m 6.20976,-167.18689 c 15.648,7.29681 28.62609,7.29681 43.55176,0.33681"
       style="fill:none;stroke:#fdde2a;stroke-width:0.79701;stroke-linecap:butt;stroke-linejoin:miter;stroke-miterlimit:10;stroke-dasharray:none;stroke-opacity:1"
       transform="matrix(1.3333333,0,0,-1.3333333,7.748,-30.416)" />
    <path
       id="path44"
       d="M -2.55046,3.11095 C -2.0845,1.24435 -1.04614,0.36295 0,0 -1.04614,-0.36295 -2.0845,-1.24435 -2.55046,-3.11095"
       style="fill:none;stroke:#fdde2a;stroke-width:0.79701;stroke-linecap:round;stroke-linejoin:round;stroke-miterlimit:10;stroke-dasharray:none;stroke-opacity:1"
       transform="matrix(1.2084,0.56346667,0.56346667,-1.2084,74.57824,192.27531)" />
    <path
       id="path45"
       d="m 50.48384,-172.97481 c -15.64799,-7.29683 -28.62608,-7.29683 -43.55176,-0.3368"
       style="fill:none;stroke:#ffffff;stroke-width:0.79701;stroke-linecap:butt;stroke-linejoin:miter;stroke-miterlimit:10;stroke-dasharray:none;stroke-opacity:1"
       transform="matrix(1.3333333,0,0,-1.3333333,7.748,-30.416)" />
    <path
       id="path46"
       d="M -2.55046,3.11095 C -2.0845,1.24435 -1.04614,0.36295 0,0 -1.04614,-0.36295 -2.0845,-1.24435 -2.55046,-3.11095"
       style="fill:none;stroke:#ffffff;stroke-width:0.79701;stroke-linecap:round;stroke-linejoin:round;stroke-miterlimit:10;stroke-dasharray:none;stroke-opacity:1"
       transform="matrix(-1.2084,-0.56346667,-0.56346667,1.2084,16.509227,200.44164)" />
    <path
       id="path47"
       d="m 62.90338,-167.18689 c 15.648,7.29681 28.62608,7.29681 43.55176,0.33681"
       style="fill:none;stroke:#fdde2a;stroke-width:0.79701;stroke-linecap:butt;stroke-linejoin:miter;stroke-miterlimit:10;stroke-dasharray:none;stroke-opacity:1"
       transform="matrix(1.3333333,0,0,-1.3333333,7.748,-30.416)" />
    <path
       id="path48"
       d="M -2.55046,3.11095 C -2.0845,1.24435 -1.04614,0.36295 0,0 -1.04614,-0.36295 -2.0845,-1.24435 -2.55046,-3.11095"
       style="fill:none;stroke:#fdde2a;stroke-width:0.79701;stroke-linecap:round;stroke-linejoin:round;stroke-miterlimit:10;stroke-dasharray:none;stroke-opacity:1"
       transform="matrix(1.2084,0.56346667,0.56346667,-1.2084,150.16973,192.27531)" />
    <path
       id="path49"
       d="m 107.17746,-172.97481 c -15.648,-7.29683 -28.62608,-7.29683 -43.55176,-0.3368"
       style="fill:none;stroke:#ffffff;stroke-width:0.79701;stroke-linecap:butt;stroke-linejoin:miter;stroke-miterlimit:10;stroke-dasharray:none;stroke-opacity:1"
       transform="matrix(1.3333333,0,0,-1.3333333,7.748,-30.416)" />
    <path
       id="path50"
       d="M -2.55046,3.11095 C -2.0845,1.24435 -1.04614,0.36295 0,0 -1.04614,-0.36295 -2.0845,-1.24435 -2.55046,-3.11095"
       style="fill:none;stroke:#ffffff;stroke-width:0.79701;stroke-linecap:round;stroke-linejoin:round;stroke-miterlimit:10;stroke-dasharray:none;stroke-opacity:1"
       transform="matrix(-1.2084,-0.56346667,-0.56346667,1.2084,92.10072,200.44164)" />
    <path
       id="path51"
       d="m 119.597,-167.18689 c 15.648,7.29681 28.62608,7.29681 43.55176,0.33681"
       style="fill:none;stroke:#ffffff;stroke-width:0.79701;stroke-linecap:butt;stroke-linejoin:miter;stroke-miterlimit:10;stroke-dasharray:none;stroke-opacity:1"
       transform="matrix(1.3333333,0,0,-1.3333333,7.748,-30.416)" />
    <path
       id="path52"
       d="M -2.55046,3.11095 C -2.0845,1.24435 -1.04614,0.36295 0,0 -1.04614,-0.36295 -2.0845,-1.24435 -2.55046,-3.11095"
       style="fill:none;stroke:#ffffff;stroke-width:0.79701;stroke-linecap:round;stroke-linejoin:round;stroke-miterlimit:10;stroke-dasharray:none;stroke-opacity:1"
       transform="matrix(1.2084,0.56346667,0.56346667,-1.2084,225.76123,192.27531)" />
    <path
       id="path53"
       d="m 163.8711,-172.97481 c -15.64802,-7.29683 -28.6261,-7.29683 -43.55178,-0.3368"
       style="fill:none;stroke:#fdde2a;stroke-width:0.79701;stroke-linecap:butt;stroke-linejoin:miter;stroke-miterlimit:10;stroke-dasharray:none;stroke-opacity:1"
       transform="matrix(1.3333333,0,0,-1.3333333,7.748,-30.416)" />
    <path
       id="path54"
       d="M -2.55046,3.11095 C -2.0845,1.24435 -1.04614,0.36295 0,0 -1.04614,-0.36295 -2.0845,-1.24435 -2.55046,-3.11095"
       style="fill:none;stroke:#fdde2a;stroke-width:0.79701;stroke-linecap:round;stroke-linejoin:round;stroke-miterlimit:10;stroke-dasharray:none;stroke-opacity:1"
       transform="matrix(-1.2084,-0.56346667,-0.56346667,1.2084,167.69221,200.44164)" />
    <path
       id="path55"
       d="m 176.29062,-167.18689 c 15.64799,7.29681 28.62608,7.29681 43.55176,0.33681"
       style="fill:none;stroke:#fdde2a;stroke-width:0.79701;stroke-linecap:butt;stroke-linejoin:miter;stroke-miterlimit:10;stroke-dasharray:none;stroke-opacity:1"
       transform="matrix(1.3333333,0,0,-1.3333333,7.748,-30.416)" />
    <path
       id="path56"
       d="M -2.55046,3.11095 C -2.0845,1.24435 -1.04614,0.36295 0,0 -1.04614,-0.36295 -2.0845,-1.24435 -2.55046,-3.11095"
       style="fill:none;stroke:#fdde2a;stroke-width:0.79701;stroke-linecap:round;stroke-linejoin:round;stroke-miterlimit:10;stroke-dasharray:none;stroke-opacity:1"
       transform="matrix(1.2084,0.56346667,0.56346667,-1.2084,301.35272,192.27531)" />
    <path
       id="path57"
       d="m 220.56471,-172.97481 c -15.64801,-7.29683 -28.6261,-7.29683 -43.55177,-0.3368"
       style="fill:none;stroke:#ffffff;stroke-width:0.79701;stroke-linecap:butt;stroke-linejoin:miter;stroke-miterlimit:10;stroke-dasharray:none;stroke-opacity:1"
       transform="matrix(1.3333333,0,0,-1.3333333,7.748,-30.416)" />
    <path
       id="path58"
       d="M -2.55046,3.11095 C -2.0845,1.24435 -1.04614,0.36295 0,0 -1.04614,-0.36295 -2.0845,-1.24435 -2.55046,-3.11095"
       style="fill:none;stroke:#ffffff;stroke-width:0.79701;stroke-linecap:round;stroke-linejoin:round;stroke-miterlimit:10;stroke-dasharray:none;stroke-opacity:1"
       transform="matrix(-1.2084,-0.56346667,-0.56346667,1.2084,243.28371,200.44164)" />
    <path
       id="path59"
       d="m 232.98424,-167.18689 c 15.64801,7.29681 28.62608,7.29681 43.55177,0.33681"
       style="fill:none;stroke:#ffffff;stroke-width:0.79701;stroke-linecap:butt;stroke-linejoin:miter;stroke-miterlimit:10;stroke-dasharray:none;stroke-opacity:1"
       transform="matrix(1.3333333,0,0,-1.3333333,7.748,-30.416)" />
    <path
       id="path60"
       d="M -2.55046,3.11095 C -2.0845,1.24435 -1.04614,0.36295 0,0 -1.04614,-0.36295 -2.0845,-1.24435 -2.55046,-3.11095"
       style="fill:none;stroke:#ffffff;stroke-width:0.79701;stroke-linecap:round;stroke-linejoin:round;stroke-miterlimit:10;stroke-dasharray:none;stroke-opacity:1"
       transform="matrix(1.2084,0.56346667,0.56346667,-1.2084,376.94421,192.27531)" />
    <path
       id="path61"
       d="m 277.25833,-172.97481 c -15.64801,-7.29683 -28.62608,-7.29683 -43.55177,-0.3368"
       style="fill:none;stroke:#fdde2a;stroke-width:0.79701;stroke-linecap:butt;stroke-linejoin:miter;stroke-miterlimit:10;stroke-dasharray:none;stroke-opacity:1"
       transform="matrix(1.3333333,0,0,-1.3333333,7.748,-30.416)" />
    <path
       id="path62"
       d="M -2.55046,3.11095 C -2.0845,1.24435 -1.04614,0.36295 0,0 -1.04614,-0.36295 -2.0845,-1.24435 -2.55046,-3.11095"
       style="fill:none;stroke:#fdde2a;stroke-width:0.79701;stroke-linecap:round;stroke-linejoin:round;stroke-miterlimit:10;stroke-dasharray:none;stroke-opacity:1"
       transform="matrix(-1.2084,-0.56346667,-0.56346667,1.2084,318.8752,200.44164)" />
    <path
       id="path63"
       d="m 289.67786,-167.18689 c 15.64801,7.29681 28.62608,7.29681 43.55177,0.33681"
       style="fill:none;stroke:#ffffff;stroke-width:0.79701;stroke-linecap:butt;stroke-linejoin:miter;stroke-miterlimit:10;stroke-dasharray:none;stroke-opacity:1"
       transform="matrix(1.3333333,0,0,-1.3333333,7.748,-30.416)" />
    <path
       id="path64"
       d="M -2.55046,3.11095 C -2.0845,1.24435 -1.04614,0.36295 0,0 -1.04614,-0.36295 -2.0845,-1.24435 -2.55046,-3.11095"
       style="fill:none;stroke:#ffffff;stroke-width:0.79701;stroke-linecap:round;stroke-linejoin:round;stroke-miterlimit:10;stroke-dasharray:none;stroke-opacity:1"
       transform="matrix(1.2084,0.56346667,0.56346667,-1.2084,452.53569,192.27531)" />
    <path
       id="path65"
       d="m 333.95195,-172.97481 c -15.64801,-7.29683 -28.62608,-7.29683 -43.55177,-0.3368"
       style="fill:none;stroke:#fdde2a;stroke-width:0.79701;stroke-linecap:butt;stroke-linejoin:miter;stroke-miterlimit:10;stroke-dasharray:none;stroke-opacity:1"
       transform="matrix(1.3333333,0,0,-1.3333333,7.748,-30.416)" />
    <path
       id="path66"
       d="M -2.55046,3.11095 C -2.0845,1.24435 -1.04614,0.36295 0,0 -1.04614,-0.36295 -2.0845,-1.24435 -2.55046,-3.11095"
       style="fill:none;stroke:#fdde2a;stroke-width:0.79701;stroke-linecap:round;stroke-linejoin:round;stroke-miterlimit:10;stroke-dasharray:none;stroke-opacity:1"
       transform="matrix(-1.2084,-0.56346667,-0.56346667,1.2084,394.46671,200.44164)" />
  </g>
</svg>
