<?xml version="1.0" encoding="UTF-8" standalone="no"?>
<!-- Created with Inkscape (http://www.inkscape.org/) -->

<svg
   version="1.1"
   id="svg1"
   width="415.95734"
   height="30.704"
   viewBox="0 0 415.95734 30.704"
   xmlns="http://www.w3.org/2000/svg"
   xmlns:svg="http://www.w3.org/2000/svg">
  <defs
     id="defs1" />
  <g
     id="g1">
    <g
       id="g2"
       aria-label="C[[t]]"
       transform="matrix(1.3333333,0,0,1.3333333,4.428,18.673333)">
      <path
         id="path2"
         d="m 6.5403281,-6.6807812 c 0,-0.1757813 0,-0.328125 -0.1640625,-0.328125 -0.011719,0 -0.1640625,0 -0.1757812,0.1757812 -0.035156,0.28125 -0.2578125,0.28125 -0.328125,0.28125 -0.3515625,0 -0.703125,-0.1523437 -0.9023438,-0.2460937 -0.5039062,-0.2109375 -0.9375,-0.2109375 -1.0898437,-0.2109375 -1.6640625,0 -3.51562503,1.0429687 -3.51562503,3.5859375 0,2.5429687 1.80468753,3.60937495 3.52734373,3.60937495 0.5273438,0 1.2421875,-0.10546875 1.96875,-0.55078125 0.4570313,-0.28125 0.9609375,-0.7851562 0.9609375,-0.9257812 0,-0.140625 -0.140625,-0.1992188 -0.2109375,-0.1992188 -0.070312,0 -0.1054687,0.035156 -0.1992187,0.140625 -0.5859375,0.65625 -1.4648438,1.0546875 -2.3554688,1.0546875 -1.546875,0 -1.9335937,-1.5585937 -1.9335937,-3.1054687 0,-1.9570313 0.7148437,-3.2695313 1.78125,-3.2695313 0.75,0 1.9453125,0.7265625 2.2851562,1.78125 0.023437,0.09375 0.058594,0.1992188 0.1875,0.1992188 0.1640625,0 0.1640625,-0.1640625 0.1640625,-0.328125 z M 6.2004844,-5.66125 C 6.0832969,-5.8253125 5.9426719,-5.9542187 5.6965781,-6.2120312 c 0.046875,0 0.1289063,0 0.1875,0 0.1054688,0 0.234375,-0.011719 0.3164063,-0.070312 z M 2.6614219,-6.4346875 c -0.234375,0.2226563 -0.890625,1.0898438 -0.890625,3.0351563 0,0.984375 0.1523437,2.3671875 1.0546875,3.0820312 -1.640625,-0.52734375 -2.10937503,-1.875 -2.10937503,-3.09375 0,-1.828125 1.00781253,-2.71875 1.94531253,-3.0351562 z m 0,0"
         style="fill:#ffffff;fill-opacity:1;fill-rule:nonzero;stroke:none" />
      <path
         id="path3"
         d="M 9.7366172,2.495 V 2.0965625 H 8.7639609 V -7.0792187 H 9.7366172 V -7.4776562 H 8.3655234 V 2.495 Z m 2.7685548,0 V 2.0965625 h -0.972656 v -9.1757812 h 0.972656 V -7.4776562 H 11.134078 V 2.495 Z m 0,0"
         style="fill:#ffffff;fill-opacity:1;fill-rule:nonzero;stroke:none" />
      <path
         id="path4"
         d="m 14.781539,-3.9854687 h 0.9375 c 0.199219,0 0.304688,0 0.304688,-0.1992188 0,-0.1054687 -0.105469,-0.1054687 -0.28125,-0.1054687 H 14.86357 c 0.363282,-1.4179688 0.410157,-1.6171875 0.410157,-1.6757813 0,-0.1757812 -0.117188,-0.2695312 -0.292969,-0.2695312 -0.02344,0 -0.304688,0.011719 -0.398438,0.3515625 l -0.386718,1.59375 h -0.9375 c -0.199219,0 -0.292969,0 -0.292969,0.1875 0,0.1171875 0.07031,0.1171875 0.269531,0.1171875 h 0.878906 c -0.714843,2.8242187 -0.75,2.99999995 -0.75,3.1757812 0,0.5390625 0.375,0.9140625 0.914063,0.9140625 1.007812,0 1.582031,-1.453125 1.582031,-1.5351562 0,-0.09375 -0.08203,-0.09375 -0.117187,-0.09375 -0.09375,0 -0.105469,0.023437 -0.152344,0.140625 -0.433594,1.03124995 -0.960938,1.2773437 -1.300781,1.2773437 -0.199219,0 -0.304688,-0.12890625 -0.304688,-0.45703125 0,-0.24609375 0.02344,-0.31640625 0.05859,-0.48046875 z m 0,0"
         style="fill:#ffffff;fill-opacity:1;fill-rule:nonzero;stroke:none" />
      <path
         id="path5"
         d="M 17.910445,-7.4776562 H 16.55107 v 0.3984375 h 0.960938 V 2.0965625 H 16.55107 V 2.495 h 1.359375 z m 2.765625,0 h -1.359375 v 0.3984375 h 0.960938 V 2.0965625 H 19.316695 V 2.495 h 1.359375 z m 0,0"
         style="fill:#ffffff;fill-opacity:1;fill-rule:nonzero;stroke:none" />
    </g>
    <g
       id="g5"
       aria-label="C[[t]]"
       transform="matrix(1.3333333,0,0,1.3333333,80.017333,18.673333)">
      <path
         id="path6"
         d="m 6.5377812,-6.6807812 c 0,-0.1757813 0,-0.328125 -0.1640625,-0.328125 -0.011719,0 -0.1640625,0 -0.1757812,0.1757812 -0.035156,0.28125 -0.2578125,0.28125 -0.328125,0.28125 -0.3515625,0 -0.703125,-0.1523437 -0.9023438,-0.2460937 -0.5039062,-0.2109375 -0.9375,-0.2109375 -1.0898437,-0.2109375 -1.6640625,0 -3.515625,1.0429687 -3.515625,3.5859375 0,2.5429687 1.8046875,3.60937495 3.5273437,3.60937495 0.5273438,0 1.2421875,-0.10546875 1.96875,-0.55078125 0.4570313,-0.28125 0.9609375,-0.7851562 0.9609375,-0.9257812 0,-0.140625 -0.140625,-0.1992188 -0.2109375,-0.1992188 -0.070312,0 -0.1054687,0.035156 -0.1992187,0.140625 -0.5859375,0.65625 -1.4648438,1.0546875 -2.3554688,1.0546875 -1.546875,0 -1.9335937,-1.5585937 -1.9335937,-3.1054687 0,-1.9570313 0.7148437,-3.2695313 1.78125,-3.2695313 0.75,0 1.9453125,0.7265625 2.2851562,1.78125 0.023437,0.09375 0.058594,0.1992188 0.1875,0.1992188 0.1640625,0 0.1640625,-0.1640625 0.1640625,-0.328125 z M 6.1979375,-5.66125 C 6.08075,-5.8253125 5.940125,-5.9542187 5.6940312,-6.2120312 c 0.046875,0 0.1289063,0 0.1875,0 0.1054688,0 0.234375,-0.011719 0.3164063,-0.070312 z M 2.658875,-6.4346875 C 2.4245,-6.2120312 1.76825,-5.3448437 1.76825,-3.3995312 c 0,0.984375 0.1523437,2.3671875 1.0546875,3.0820312 -1.640625,-0.52734375 -2.109375,-1.875 -2.109375,-3.09375 0,-1.828125 1.0078125,-2.71875 1.9453125,-3.0351562 z m 0,0"
         style="fill:#ffffff;fill-opacity:1;fill-rule:nonzero;stroke:none" />
      <path
         id="path7"
         d="M 9.7399297,2.495 V 2.0965625 H 8.7672734 V -7.0792187 H 9.7399297 V -7.4776562 H 8.3688359 V 2.495 Z m 2.7656253,0 V 2.0965625 h -0.972657 v -9.1757812 h 0.972657 V -7.4776562 H 11.134461 V 2.495 Z m 0,0"
         style="fill:#ffffff;fill-opacity:1;fill-rule:nonzero;stroke:none" />
      <path
         id="path8"
         d="m 14.781922,-3.9854687 h 0.9375 c 0.199219,0 0.304687,0 0.304687,-0.1992188 0,-0.1054687 -0.105468,-0.1054687 -0.28125,-0.1054687 h -0.878906 c 0.363281,-1.4179688 0.410156,-1.6171875 0.410156,-1.6757813 0,-0.1757812 -0.117187,-0.2695312 -0.292968,-0.2695312 -0.02344,0 -0.304688,0.011719 -0.398438,0.3515625 l -0.386719,1.59375 h -0.9375 c -0.199218,0 -0.292968,0 -0.292968,0.1875 0,0.1171875 0.07031,0.1171875 0.269531,0.1171875 h 0.878906 c -0.714844,2.8242187 -0.75,2.99999995 -0.75,3.1757812 0,0.5390625 0.375,0.9140625 0.914063,0.9140625 1.007812,0 1.582031,-1.453125 1.582031,-1.5351562 0,-0.09375 -0.08203,-0.09375 -0.117188,-0.09375 -0.09375,0 -0.105468,0.023437 -0.152343,0.140625 -0.433594,1.03124995 -0.960938,1.2773437 -1.300782,1.2773437 -0.199218,0 -0.304687,-0.12890625 -0.304687,-0.45703125 0,-0.24609375 0.02344,-0.31640625 0.05859,-0.48046875 z m 0,0"
         style="fill:#ffffff;fill-opacity:1;fill-rule:nonzero;stroke:none" />
      <path
         id="path9"
         d="m 17.910828,-7.4776562 h -1.359375 v 0.3984375 h 0.960938 V 2.0965625 H 16.551453 V 2.495 h 1.359375 z m 2.765625,0 h -1.359375 v 0.3984375 h 0.960938 V 2.0965625 H 19.317078 V 2.495 h 1.359375 z m 0,0"
         style="fill:#ffffff;fill-opacity:1;fill-rule:nonzero;stroke:none" />
    </g>
    <g
       id="g9"
       aria-label="C[[t]]"
       transform="matrix(1.3333333,0,0,1.3333333,155.608,18.673333)">
      <path
         id="path10"
         d="m 6.5400937,-6.6807812 c 0,-0.1757813 0,-0.328125 -0.1640625,-0.328125 -0.011719,0 -0.1640625,0 -0.1757812,0.1757812 -0.035156,0.28125 -0.2578125,0.28125 -0.328125,0.28125 -0.3515625,0 -0.703125,-0.1523437 -0.9023438,-0.2460937 -0.5039062,-0.2109375 -0.9375,-0.2109375 -1.0898437,-0.2109375 -1.6640625,0 -3.515625,1.0429687 -3.515625,3.5859375 0,2.5429687 1.8046875,3.60937495 3.5273437,3.60937495 0.5273438,0 1.2421875,-0.10546875 1.96875,-0.55078125 0.4570313,-0.28125 0.9609375,-0.7851562 0.9609375,-0.9257812 0,-0.140625 -0.140625,-0.1992188 -0.2109375,-0.1992188 -0.070312,0 -0.1054687,0.035156 -0.1992187,0.140625 -0.5859375,0.65625 -1.4648438,1.0546875 -2.3554688,1.0546875 -1.546875,0 -1.9335937,-1.5585937 -1.9335937,-3.1054687 0,-1.9570313 0.7148437,-3.2695313 1.78125,-3.2695313 0.75,0 1.9453125,0.7265625 2.2851562,1.78125 0.023437,0.09375 0.058594,0.1992188 0.1875,0.1992188 0.1640625,0 0.1640625,-0.1640625 0.1640625,-0.328125 z M 6.20025,-5.66125 C 6.0830625,-5.8253125 5.9424375,-5.9542187 5.6963437,-6.2120312 c 0.046875,0 0.1289063,0 0.1875,0 0.1054688,0 0.234375,-0.011719 0.3164063,-0.070312 z M 2.6611875,-6.4346875 c -0.234375,0.2226563 -0.890625,1.0898438 -0.890625,3.0351563 0,0.984375 0.1523437,2.3671875 1.0546875,3.0820312 -1.640625,-0.52734375 -2.109375,-1.875 -2.109375,-3.09375 0,-1.828125 1.0078125,-2.71875 1.9453125,-3.0351562 z m 0,0"
         style="fill:#ffffff;fill-opacity:1;fill-rule:nonzero;stroke:none" />
      <path
         id="path11"
         d="M 9.7393125,2.495 V 2.0965625 H 8.7666562 V -7.0792187 H 9.7393125 V -7.4776562 H 8.3682187 V 2.495 Z m 2.7685545,0 V 2.0965625 h -0.972656 v -9.1757812 h 0.972656 V -7.4776562 H 11.136773 V 2.495 Z m 0,0"
         style="fill:#ffffff;fill-opacity:1;fill-rule:nonzero;stroke:none" />
      <path
         id="path12"
         d="m 14.781305,-3.9854687 h 0.9375 c 0.199218,0 0.304687,0 0.304687,-0.1992188 0,-0.1054687 -0.105469,-0.1054687 -0.28125,-0.1054687 h -0.878906 c 0.363281,-1.4179688 0.410156,-1.6171875 0.410156,-1.6757813 0,-0.1757812 -0.117187,-0.2695312 -0.292969,-0.2695312 -0.02344,0 -0.304687,0.011719 -0.398437,0.3515625 l -0.386719,1.59375 h -0.9375 c -0.199219,0 -0.292969,0 -0.292969,0.1875 0,0.1171875 0.07031,0.1171875 0.269532,0.1171875 h 0.878906 c -0.714844,2.8242187 -0.75,2.99999995 -0.75,3.1757812 0,0.5390625 0.375,0.9140625 0.914062,0.9140625 1.007813,0 1.582032,-1.453125 1.582032,-1.5351562 0,-0.09375 -0.08203,-0.09375 -0.117188,-0.09375 -0.09375,0 -0.105469,0.023437 -0.152344,0.140625 -0.433593,1.03124995 -0.960937,1.2773437 -1.300781,1.2773437 -0.199219,0 -0.304687,-0.12890625 -0.304687,-0.45703125 0,-0.24609375 0.02344,-0.31640625 0.05859,-0.48046875 z m 0,0"
         style="fill:#ffffff;fill-opacity:1;fill-rule:nonzero;stroke:none" />
      <path
         id="path13"
         d="m 17.910211,-7.4776562 h -1.359375 v 0.3984375 h 0.960937 V 2.0965625 H 16.550836 V 2.495 h 1.359375 z m 2.768555,0 h -1.359375 v 0.3984375 h 0.960937 V 2.0965625 H 19.319391 V 2.495 h 1.359375 z m 0,0"
         style="fill:#ffffff;fill-opacity:1;fill-rule:nonzero;stroke:none" />
    </g>
    <g
       id="g13"
       aria-label="C[[t]]"
       transform="matrix(1.3333333,0,0,1.3333333,231.19867,18.673333)">
      <path
         id="path14"
         d="m 6.5394766,-6.6807812 c 0,-0.1757813 0,-0.328125 -0.1640625,-0.328125 -0.011719,0 -0.1640625,0 -0.1757813,0.1757812 -0.035156,0.28125 -0.2578125,0.28125 -0.328125,0.28125 -0.3515625,0 -0.703125,-0.1523437 -0.9023437,-0.2460937 -0.5039063,-0.2109375 -0.9375,-0.2109375 -1.0898438,-0.2109375 -1.6640625,0 -3.51562499,1.0429687 -3.51562499,3.5859375 0,2.5429687 1.80468749,3.60937495 3.52734379,3.60937495 0.5273437,0 1.2421875,-0.10546875 1.96875,-0.55078125 0.4570312,-0.28125 0.9609375,-0.7851562 0.9609375,-0.9257812 0,-0.140625 -0.140625,-0.1992188 -0.2109375,-0.1992188 -0.070312,0 -0.1054688,0.035156 -0.1992188,0.140625 -0.5859375,0.65625 -1.4648437,1.0546875 -2.3554687,1.0546875 -1.546875,0 -1.9335938,-1.5585937 -1.9335938,-3.1054687 0,-1.9570313 0.7148438,-3.2695313 1.78125,-3.2695313 0.75,0 1.9453125,0.7265625 2.2851563,1.78125 0.023437,0.09375 0.058594,0.1992188 0.1875,0.1992188 0.1640625,0 0.1640625,-0.1640625 0.1640625,-0.328125 z M 6.1996328,-5.66125 C 6.0824453,-5.8253125 5.9418203,-5.9542187 5.6957266,-6.2120312 c 0.046875,0 0.1289062,0 0.1875,0 0.1054687,0 0.234375,-0.011719 0.3164062,-0.070312 z M 2.6605703,-6.4346875 c -0.234375,0.2226563 -0.890625,1.0898438 -0.890625,3.0351563 0,0.984375 0.1523438,2.3671875 1.0546875,3.0820312 -1.640625,-0.52734375 -2.10937499,-1.875 -2.10937499,-3.09375 0,-1.828125 1.00781249,-2.71875 1.94531249,-3.0351562 z m 0,0"
         style="fill:#ffffff;fill-opacity:1;fill-rule:nonzero;stroke:none" />
      <path
         id="path15"
         d="M 9.7386953,2.495 V 2.0965625 H 8.7660391 V -7.0792187 H 9.7386953 V -7.4776562 H 8.3676016 V 2.495 Z m 2.7656247,0 V 2.0965625 H 11.531664 V -7.0792187 H 12.50432 V -7.4776562 H 11.133227 V 2.495 Z m 0,0"
         style="fill:#ffffff;fill-opacity:1;fill-rule:nonzero;stroke:none" />
      <path
         id="path16"
         d="m 14.780688,-3.9854687 h 0.9375 c 0.199218,0 0.304687,0 0.304687,-0.1992188 0,-0.1054687 -0.105469,-0.1054687 -0.28125,-0.1054687 h -0.878906 c 0.363281,-1.4179688 0.410156,-1.6171875 0.410156,-1.6757813 0,-0.1757812 -0.117187,-0.2695312 -0.292969,-0.2695312 -0.02344,0 -0.304687,0.011719 -0.398437,0.3515625 l -0.386719,1.59375 h -0.9375 c -0.199219,0 -0.292969,0 -0.292969,0.1875 0,0.1171875 0.07031,0.1171875 0.269532,0.1171875 h 0.878906 c -0.714844,2.8242187 -0.75,2.99999995 -0.75,3.1757812 0,0.5390625 0.375,0.9140625 0.914062,0.9140625 1.007813,0 1.582032,-1.453125 1.582032,-1.5351562 0,-0.09375 -0.08203,-0.09375 -0.117188,-0.09375 -0.09375,0 -0.105469,0.023437 -0.152344,0.140625 -0.433593,1.03124995 -0.960937,1.2773437 -1.300781,1.2773437 -0.199219,0 -0.304687,-0.12890625 -0.304687,-0.45703125 0,-0.24609375 0.02344,-0.31640625 0.05859,-0.48046875 z m 0,0"
         style="fill:#ffffff;fill-opacity:1;fill-rule:nonzero;stroke:none" />
      <path
         id="path17"
         d="m 17.909594,-7.4776562 h -1.359375 v 0.3984375 h 0.960937 V 2.0965625 H 16.550219 V 2.495 h 1.359375 z m 2.768554,0 h -1.359375 v 0.3984375 h 0.960938 V 2.0965625 H 19.318773 V 2.495 h 1.359375 z m 0,0"
         style="fill:#ffffff;fill-opacity:1;fill-rule:nonzero;stroke:none" />
    </g>
    <g
       id="g17"
       aria-label="C[[t]]"
       transform="matrix(1.3333333,0,0,1.3333333,306.78933,18.673333)">
      <path
         id="path18"
         d="m 6.5388594,-6.6807812 c 0,-0.1757813 0,-0.328125 -0.1640625,-0.328125 -0.011719,0 -0.1640625,0 -0.1757813,0.1757812 -0.035156,0.28125 -0.2578125,0.28125 -0.328125,0.28125 -0.3515625,0 -0.703125,-0.1523437 -0.9023437,-0.2460937 -0.5039063,-0.2109375 -0.9375,-0.2109375 -1.0898438,-0.2109375 -1.6640625,0 -3.51562497,1.0429687 -3.51562497,3.5859375 0,2.5429687 1.80468747,3.60937495 3.52734377,3.60937495 0.5273437,0 1.2421875,-0.10546875 1.96875,-0.55078125 0.4570312,-0.28125 0.9609375,-0.7851562 0.9609375,-0.9257812 0,-0.140625 -0.140625,-0.1992188 -0.2109375,-0.1992188 -0.070312,0 -0.1054688,0.035156 -0.1992188,0.140625 -0.5859375,0.65625 -1.4648437,1.0546875 -2.3554687,1.0546875 -1.546875,0 -1.9335938,-1.5585937 -1.9335938,-3.1054687 0,-1.9570313 0.7148438,-3.2695313 1.78125,-3.2695313 0.75,0 1.9453125,0.7265625 2.2851563,1.78125 0.023437,0.09375 0.058594,0.1992188 0.1875,0.1992188 0.1640625,0 0.1640625,-0.1640625 0.1640625,-0.328125 z M 6.1990156,-5.66125 C 6.0818281,-5.8253125 5.9412031,-5.9542187 5.6951094,-6.2120312 c 0.046875,0 0.1289062,0 0.1875,0 0.1054687,0 0.234375,-0.011719 0.3164062,-0.070312 z M 2.6599531,-6.4346875 c -0.234375,0.2226563 -0.890625,1.0898438 -0.890625,3.0351563 0,0.984375 0.1523438,2.3671875 1.0546875,3.0820312 -1.640625,-0.52734375 -2.10937497,-1.875 -2.10937497,-3.09375 0,-1.828125 1.00781247,-2.71875 1.94531247,-3.0351562 z m 0,0"
         style="fill:#ffffff;fill-opacity:1;fill-rule:nonzero;stroke:none" />
      <path
         id="path19"
         d="M 9.7380781,2.495 V 2.0965625 H 8.7654219 V -7.0792187 H 9.7380781 V -7.4776562 H 8.3669844 V 2.495 Z m 2.7685549,0 V 2.0965625 h -0.972656 v -9.1757812 h 0.972656 V -7.4776562 H 11.135539 V 2.495 Z m 0,0"
         style="fill:#ffffff;fill-opacity:1;fill-rule:nonzero;stroke:none" />
      <path
         id="path20"
         d="m 14.78007,-3.9854687 h 0.9375 c 0.199219,0 0.304688,0 0.304688,-0.1992188 0,-0.1054687 -0.105469,-0.1054687 -0.28125,-0.1054687 h -0.878906 c 0.363281,-1.4179688 0.410156,-1.6171875 0.410156,-1.6757813 0,-0.1757812 -0.117188,-0.2695312 -0.292969,-0.2695312 -0.02344,0 -0.304687,0.011719 -0.398437,0.3515625 l -0.386719,1.59375 h -0.9375 c -0.199219,0 -0.292969,0 -0.292969,0.1875 0,0.1171875 0.07031,0.1171875 0.269531,0.1171875 h 0.878907 c -0.714844,2.8242187 -0.75,2.99999995 -0.75,3.1757812 0,0.5390625 0.375,0.9140625 0.914062,0.9140625 1.007813,0 1.582031,-1.453125 1.582031,-1.5351562 0,-0.09375 -0.08203,-0.09375 -0.117187,-0.09375 -0.09375,0 -0.105469,0.023437 -0.152344,0.140625 -0.433594,1.03124995 -0.960937,1.2773437 -1.300781,1.2773437 -0.199219,0 -0.304688,-0.12890625 -0.304688,-0.45703125 0,-0.24609375 0.02344,-0.31640625 0.05859,-0.48046875 z m 0,0"
         style="fill:#ffffff;fill-opacity:1;fill-rule:nonzero;stroke:none" />
      <path
         id="path21"
         d="m 17.908977,-7.4776562 h -1.359375 v 0.3984375 h 0.960937 V 2.0965625 H 16.549602 V 2.495 h 1.359375 z m 2.768554,0 h -1.359375 v 0.3984375 h 0.960938 V 2.0965625 H 19.318156 V 2.495 h 1.359375 z m 0,0"
         style="fill:#ffffff;fill-opacity:1;fill-rule:nonzero;stroke:none" />
    </g>
    <g
       id="g21"
       aria-label="C[[t]]"
       transform="matrix(1.3333333,0,0,1.3333333,382.38,18.673333)">
      <path
         id="path22"
         d="m 6.5382422,-6.6807812 c 0,-0.1757813 0,-0.328125 -0.1640625,-0.328125 -0.011719,0 -0.1640625,0 -0.1757813,0.1757812 -0.035156,0.28125 -0.2578125,0.28125 -0.328125,0.28125 -0.3515625,0 -0.703125,-0.1523437 -0.9023437,-0.2460937 -0.5039063,-0.2109375 -0.9375,-0.2109375 -1.0898438,-0.2109375 -1.6640625,0 -3.51562496,1.0429687 -3.51562496,3.5859375 0,2.5429687 1.80468746,3.60937495 3.52734376,3.60937495 0.5273437,0 1.2421875,-0.10546875 1.96875,-0.55078125 0.4570312,-0.28125 0.9609375,-0.7851562 0.9609375,-0.9257812 0,-0.140625 -0.140625,-0.1992188 -0.2109375,-0.1992188 -0.070312,0 -0.1054688,0.035156 -0.1992188,0.140625 -0.5859375,0.65625 -1.4648437,1.0546875 -2.3554687,1.0546875 -1.546875,0 -1.9335938,-1.5585937 -1.9335938,-3.1054687 0,-1.9570313 0.7148438,-3.2695313 1.78125,-3.2695313 0.75,0 1.9453125,0.7265625 2.2851563,1.78125 0.023437,0.09375 0.058594,0.1992188 0.1875,0.1992188 0.1640625,0 0.1640625,-0.1640625 0.1640625,-0.328125 z M 6.1983984,-5.66125 C 6.0812109,-5.8253125 5.9405859,-5.9542187 5.6944922,-6.2120312 c 0.046875,0 0.1289062,0 0.1875,0 0.1054687,0 0.234375,-0.011719 0.3164062,-0.070312 z M 2.6593359,-6.4346875 c -0.234375,0.2226563 -0.890625,1.0898438 -0.890625,3.0351563 0,0.984375 0.1523438,2.3671875 1.0546875,3.0820312 -1.640625,-0.52734375 -2.10937496,-1.875 -2.10937496,-3.09375 0,-1.828125 1.00781246,-2.71875 1.94531246,-3.0351562 z m 0,0"
         style="fill:#ffffff;fill-opacity:1;fill-rule:nonzero;stroke:none" />
      <path
         id="path23"
         d="M 9.7374609,2.495 V 2.0965625 H 8.7648047 V -7.0792187 H 9.7374609 V -7.4776562 H 8.3663672 V 2.495 Z m 2.7685551,0 V 2.0965625 h -0.972657 v -9.1757812 h 0.972657 V -7.4776562 H 11.134922 V 2.495 Z m 0,0"
         style="fill:#ffffff;fill-opacity:1;fill-rule:nonzero;stroke:none" />
      <path
         id="path24"
         d="m 14.779453,-3.9854687 h 0.9375 c 0.199219,0 0.304688,0 0.304688,-0.1992188 0,-0.1054687 -0.105469,-0.1054687 -0.28125,-0.1054687 h -0.878907 c 0.363282,-1.4179688 0.410157,-1.6171875 0.410157,-1.6757813 0,-0.1757812 -0.117188,-0.2695312 -0.292969,-0.2695312 -0.02344,0 -0.304688,0.011719 -0.398438,0.3515625 l -0.386718,1.59375 h -0.9375 c -0.199219,0 -0.292969,0 -0.292969,0.1875 0,0.1171875 0.07031,0.1171875 0.269531,0.1171875 h 0.878906 c -0.714843,2.8242187 -0.75,2.99999995 -0.75,3.1757812 0,0.5390625 0.375,0.9140625 0.914063,0.9140625 1.007812,0 1.582031,-1.453125 1.582031,-1.5351562 0,-0.09375 -0.08203,-0.09375 -0.117187,-0.09375 -0.09375,0 -0.105469,0.023437 -0.152344,0.140625 -0.433594,1.03124995 -0.960938,1.2773437 -1.300781,1.2773437 -0.199219,0 -0.304688,-0.12890625 -0.304688,-0.45703125 0,-0.24609375 0.02344,-0.31640625 0.05859,-0.48046875 z m 0,0"
         style="fill:#ffffff;fill-opacity:1;fill-rule:nonzero;stroke:none" />
      <path
         id="path25"
         d="m 17.911289,-7.4776562 h -1.359375 v 0.3984375 h 0.960938 V 2.0965625 H 16.551914 V 2.495 h 1.359375 z m 2.765625,0 h -1.359375 v 0.3984375 h 0.960938 V 2.0965625 H 19.317539 V 2.495 h 1.359375 z m 0,0"
         style="fill:#ffffff;fill-opacity:1;fill-rule:nonzero;stroke:none" />
    </g>
    <path
       id="path26"
       d="M 14.4512,6.73474 C 24.27354,11.315 32.42006,11.315 41.88124,6.90315"
       style="fill:none;stroke:#ffffff;stroke-width:0.3985;stroke-linecap:butt;stroke-linejoin:miter;stroke-miterlimit:10;stroke-dasharray:none;stroke-opacity:1"
       transform="matrix(1.3333333,0,0,-1.3333333,19.002667,15.352)" />
    <path
       id="path27"
       d="M -2.07224,2.39104 C -1.69365,0.95639 -0.84999,0.27895 0,0 -0.84999,-0.27895 -1.69365,-0.95639 -2.07224,-2.39104"
       style="fill:none;stroke:#ffffff;stroke-width:0.3985;stroke-linecap:round;stroke-linejoin:round;stroke-miterlimit:10;stroke-dasharray:none;stroke-opacity:1"
       transform="matrix(1.2084,0.56346667,0.56346667,-1.2084,75.08508,6.26008)" />
    <path
       id="path28"
       d="M 42.2424,-6.73474 C 32.42006,-11.315 24.27354,-11.315 14.81236,-6.90315"
       style="fill:none;stroke:#ffffff;stroke-width:0.3985;stroke-linecap:butt;stroke-linejoin:miter;stroke-miterlimit:10;stroke-dasharray:none;stroke-opacity:1"
       transform="matrix(1.3333333,0,0,-1.3333333,19.002667,15.352)" />
    <path
       id="path29"
       d="M -2.07224,2.39104 C -1.69365,0.95639 -0.84999,0.27895 0,0 -0.84999,-0.27895 -1.69365,-0.95639 -2.07224,-2.39104"
       style="fill:none;stroke:#ffffff;stroke-width:0.3985;stroke-linecap:round;stroke-linejoin:round;stroke-miterlimit:10;stroke-dasharray:none;stroke-opacity:1"
       transform="matrix(-1.2084,-0.56346667,-0.56346667,1.2084,38.51172,24.44392)" />
    <path
       id="path30"
       d="M 71.14482,6.73474 C 80.96716,11.315 89.1137,11.315 98.57486,6.90315"
       style="fill:none;stroke:#ffffff;stroke-width:0.3985;stroke-linecap:butt;stroke-linejoin:miter;stroke-miterlimit:10;stroke-dasharray:none;stroke-opacity:1"
       transform="matrix(1.3333333,0,0,-1.3333333,19.002667,15.352)" />
    <path
       id="path31"
       d="M -2.07224,2.39104 C -1.69365,0.95639 -0.84999,0.27895 0,0 -0.84999,-0.27895 -1.69365,-0.95639 -2.07224,-2.39104"
       style="fill:none;stroke:#ffffff;stroke-width:0.3985;stroke-linecap:round;stroke-linejoin:round;stroke-miterlimit:10;stroke-dasharray:none;stroke-opacity:1"
       transform="matrix(1.2084,0.56346667,0.56346667,-1.2084,150.67657,6.26008)" />
    <path
       id="path32"
       d="M 98.93602,-6.73474 C 89.1137,-11.315 80.96716,-11.315 71.50598,-6.90315"
       style="fill:none;stroke:#ffffff;stroke-width:0.3985;stroke-linecap:butt;stroke-linejoin:miter;stroke-miterlimit:10;stroke-dasharray:none;stroke-opacity:1"
       transform="matrix(1.3333333,0,0,-1.3333333,19.002667,15.352)" />
    <path
       id="path33"
       d="M -2.07224,2.39104 C -1.69365,0.95639 -0.84999,0.27895 0,0 -0.84999,-0.27895 -1.69365,-0.95639 -2.07224,-2.39104"
       style="fill:none;stroke:#ffffff;stroke-width:0.3985;stroke-linecap:round;stroke-linejoin:round;stroke-miterlimit:10;stroke-dasharray:none;stroke-opacity:1"
       transform="matrix(-1.2084,-0.56346667,-0.56346667,1.2084,114.10321,24.44392)" />
    <path
       id="path34"
       d="m 127.83844,6.73474 c 9.82234,4.58026 17.96887,4.58026 27.43004,0.16841"
       style="fill:none;stroke:#ffffff;stroke-width:0.3985;stroke-linecap:butt;stroke-linejoin:miter;stroke-miterlimit:10;stroke-dasharray:none;stroke-opacity:1"
       transform="matrix(1.3333333,0,0,-1.3333333,19.002667,15.352)" />
    <path
       id="path35"
       d="M -2.07224,2.39104 C -1.69365,0.95639 -0.84999,0.27895 0,0 -0.84999,-0.27895 -1.69365,-0.95639 -2.07224,-2.39104"
       style="fill:none;stroke:#ffffff;stroke-width:0.3985;stroke-linecap:round;stroke-linejoin:round;stroke-miterlimit:10;stroke-dasharray:none;stroke-opacity:1"
       transform="matrix(1.2084,0.56346667,0.56346667,-1.2084,226.26807,6.26008)" />
    <path
       id="path36"
       d="M 155.62964,-6.73474 C 145.80731,-11.315 137.66078,-11.315 128.1996,-6.90315"
       style="fill:none;stroke:#ffffff;stroke-width:0.3985;stroke-linecap:butt;stroke-linejoin:miter;stroke-miterlimit:10;stroke-dasharray:none;stroke-opacity:1"
       transform="matrix(1.3333333,0,0,-1.3333333,19.002667,15.352)" />
    <path
       id="path37"
       d="M -2.07224,2.39104 C -1.69365,0.95639 -0.84999,0.27895 0,0 -0.84999,-0.27895 -1.69365,-0.95639 -2.07224,-2.39104"
       style="fill:none;stroke:#ffffff;stroke-width:0.3985;stroke-linecap:round;stroke-linejoin:round;stroke-miterlimit:10;stroke-dasharray:none;stroke-opacity:1"
       transform="matrix(-1.2084,-0.56346667,-0.56346667,1.2084,189.69471,24.44392)" />
    <path
       id="path38"
       d="M 184.53206,6.73474 C 194.3544,11.315 202.50093,11.315 211.9621,6.90315"
       style="fill:none;stroke:#ffffff;stroke-width:0.3985;stroke-linecap:butt;stroke-linejoin:miter;stroke-miterlimit:10;stroke-dasharray:none;stroke-opacity:1"
       transform="matrix(1.3333333,0,0,-1.3333333,19.002667,15.352)" />
    <path
       id="path39"
       d="M -2.07224,2.39104 C -1.69365,0.95639 -0.84999,0.27895 0,0 -0.84999,-0.27895 -1.69365,-0.95639 -2.07224,-2.39104"
       style="fill:none;stroke:#ffffff;stroke-width:0.3985;stroke-linecap:round;stroke-linejoin:round;stroke-miterlimit:10;stroke-dasharray:none;stroke-opacity:1"
       transform="matrix(1.2084,0.56346667,0.56346667,-1.2084,301.85956,6.26008)" />
    <path
       id="path40"
       d="M 212.32326,-6.73474 C 202.50093,-11.315 194.3544,-11.315 184.89322,-6.90315"
       style="fill:none;stroke:#ffffff;stroke-width:0.3985;stroke-linecap:butt;stroke-linejoin:miter;stroke-miterlimit:10;stroke-dasharray:none;stroke-opacity:1"
       transform="matrix(1.3333333,0,0,-1.3333333,19.002667,15.352)" />
    <path
       id="path41"
       d="M -2.07224,2.39104 C -1.69365,0.95639 -0.84999,0.27895 0,0 -0.84999,-0.27895 -1.69365,-0.95639 -2.07224,-2.39104"
       style="fill:none;stroke:#ffffff;stroke-width:0.3985;stroke-linecap:round;stroke-linejoin:round;stroke-miterlimit:10;stroke-dasharray:none;stroke-opacity:1"
       transform="matrix(-1.2084,-0.56346667,-0.56346667,1.2084,265.2862,24.44392)" />
    <path
       id="path42"
       d="m 241.22568,6.73474 c 9.82234,4.58026 17.96887,4.58026 27.43005,0.16841"
       style="fill:none;stroke:#ffffff;stroke-width:0.3985;stroke-linecap:butt;stroke-linejoin:miter;stroke-miterlimit:10;stroke-dasharray:none;stroke-opacity:1"
       transform="matrix(1.3333333,0,0,-1.3333333,19.002667,15.352)" />
    <path
       id="path43"
       d="M -2.07224,2.39104 C -1.69365,0.95639 -0.84999,0.27895 0,0 -0.84999,-0.27895 -1.69365,-0.95639 -2.07224,-2.39104"
       style="fill:none;stroke:#ffffff;stroke-width:0.3985;stroke-linecap:round;stroke-linejoin:round;stroke-miterlimit:10;stroke-dasharray:none;stroke-opacity:1"
       transform="matrix(1.2084,0.56346667,0.56346667,-1.2084,377.45105,6.26008)" />
    <path
       id="path44"
       d="M 269.01688,-6.73474 C 259.19455,-11.315 251.04802,-11.315 241.58684,-6.90315"
       style="fill:none;stroke:#ffffff;stroke-width:0.3985;stroke-linecap:butt;stroke-linejoin:miter;stroke-miterlimit:10;stroke-dasharray:none;stroke-opacity:1"
       transform="matrix(1.3333333,0,0,-1.3333333,19.002667,15.352)" />
    <path
       id="path45"
       d="M -2.07224,2.39104 C -1.69365,0.95639 -0.84999,0.27895 0,0 -0.84999,-0.27895 -1.69365,-0.95639 -2.07224,-2.39104"
       style="fill:none;stroke:#ffffff;stroke-width:0.3985;stroke-linecap:round;stroke-linejoin:round;stroke-miterlimit:10;stroke-dasharray:none;stroke-opacity:1"
       transform="matrix(-1.2084,-0.56346667,-0.56346667,1.2084,340.87769,24.44392)" />
  </g>
</svg>
