<?xml version="1.0" encoding="UTF-8" standalone="no"?>
<!-- Created with Inkscape (http://www.inkscape.org/) -->

<svg
   version="1.1"
   id="svg1"
   width="424.26001"
   height="20.662666"
   viewBox="0 0 424.26001 20.662666"
   xmlns="http://www.w3.org/2000/svg"
   xmlns:svg="http://www.w3.org/2000/svg">
  <defs
     id="defs1" />
  <g
     id="g1">
    <path
       id="path1"
       d="m 1.1028281,-0.76073437 c 0,0.45703125 -0.11718748,0.45703125 -0.78515623,0.45703125 V 9.84375e-4 C 0.66923437,-0.01073437 1.1731406,-0.03417187 1.4426719,-0.03417187 c 0.2578125,0 0.7851562,0.0234375 1.1132812,0.035156245 V -0.30370312 c -0.65625,0 -0.7734375,0 -0.7734375,-0.45703125 V -2.5888594 c 0,-1.03125 0.7148438,-1.59375 1.3476563,-1.59375 0.6210937,0 0.7382812,0.5390625 0.7382812,1.1015625 v 2.32031253 c 0,0.45703125 -0.1171875,0.45703125 -0.7734375,0.45703125 V 9.84375e-4 c 0.3398438,-0.011718745 0.8554688,-0.035156245 1.125,-0.035156245 0.2578125,0 0.7734375,0.0234375 1.1132813,0.035156245 V -0.30370312 c -0.515625,0 -0.7734375,0 -0.7851563,-0.3046875 V -2.5068281 c 0,-0.8554688 0,-1.171875 -0.3046875,-1.5234375 -0.140625,-0.1757813 -0.46875,-0.375 -1.0429687,-0.375 -0.84375,0 -1.2773438,0.5976562 -1.4414063,0.984375 v -3.4921875 l -1.44140623,0.1054687 v 0.3164063 c 0.70312503,0 0.78515623,0.070312 0.78515623,0.5507812 z M 6.6487266,-2.5068281 c 0.058594,-1.4882813 0.9023437,-1.734375 1.2421875,-1.734375 1.0195312,0 1.125,1.3476562 1.125,1.734375 z m -0.011719,0.2109375 h 2.7890625 c 0.2109375,0 0.2460938,0 0.2460938,-0.2109375 0,-0.984375 -0.5390625,-1.9570313 -1.78125,-1.9570313 -1.1601563,0 -2.0742188,1.03125 -2.0742188,2.2734375 0,1.33593753 1.0429688,2.29687503 2.1914063,2.29687503 1.21875,0 1.6640625,-1.1015625 1.6640625,-1.28906253 0,-0.1054687 -0.082031,-0.1171875 -0.1289063,-0.1171875 -0.09375,0 -0.1171875,0.058594 -0.1289062,0.140625 -0.3515625,1.01953128 -1.2539063,1.01953128 -1.3476563,1.01953128 -0.5039062,0 -0.9023437,-0.29296875 -1.125,-0.66796875 C 6.6370078,-1.2880781 6.6370078,-1.9443281 6.6370076,-2.2958906 Z m 5.0830084,-4.6171875 -1.429688,0.1054687 v 0.3164063 c 0.703125,0 0.773438,0.070312 0.773438,0.5507812 v 5.17968753 c 0,0.45703125 -0.105469,0.45703125 -0.773438,0.45703125 V 9.84375e-4 c 0.328125,-0.011718745 0.855469,-0.035156245 1.101563,-0.035156245 0.257812,0 0.738281,0.0234375 1.113281,0.035156245 V -0.30370312 c -0.667969,0 -0.785156,0 -0.785156,-0.45703125 z m 2.768554,0 -1.429687,0.1054687 v 0.3164063 c 0.703125,0 0.773437,0.070312 0.773437,0.5507812 v 5.17968753 c 0,0.45703125 -0.105468,0.45703125 -0.773437,0.45703125 V 9.84375e-4 c 0.328125,-0.011718745 0.855469,-0.035156245 1.101562,-0.035156245 0.257813,0 0.738282,0.0234375 1.113282,0.035156245 V -0.30370312 c -0.667969,0 -0.785157,0 -0.785157,-0.45703125 z m 5.695313,4.78125 c 0,-1.2773438 -0.996094,-2.3320313 -2.191406,-2.3320313 -1.253907,0 -2.214844,1.0898438 -2.214844,2.3320313 0,1.28906248 1.03125,2.23828123 2.203125,2.23828123 1.207031,0 2.203125,-0.97265625 2.203125,-2.23828123 z m -2.191406,1.99218748 c -0.433594,0 -0.867188,-0.2109375 -1.136719,-0.66796875 -0.257813,-0.43359373 -0.257813,-1.04296873 -0.257813,-1.40625003 0,-0.3867187 0,-0.9257812 0.246094,-1.359375 0.269531,-0.4570312 0.738281,-0.6679687 1.136719,-0.6679687 0.433594,0 0.867187,0.2226562 1.125,0.6445312 0.257812,0.4335938 0.257812,1.0078125 0.257812,1.3828125 0,0.3632813 0,0.9023438 -0.222656,1.33593753 -0.222656,0.4453125 -0.65625,0.73828125 -1.148437,0.73828125 z m 0,0"
       style="fill:#ffffff;fill-opacity:1;fill-rule:nonzero;stroke:none"
       aria-label="hello"
       transform="matrix(1.3333333,0,0,1.3333333,4.428,14.944)" />
    <path
       id="path2"
       d="m 2.215625,-1.7106797 c -0.8671875,0 -0.8671875,-0.9960937 -0.8671875,-1.2304687 0,-0.2695313 0.011719,-0.5859375 0.1523438,-0.8320313 0.082031,-0.1171875 0.3164062,-0.3984375 0.7148437,-0.3984375 0.8671875,0 0.8671875,0.9960938 0.8671875,1.21875 0,0.2695313 -0.011719,0.5976563 -0.1640625,0.84375 -0.082031,0.1171875 -0.3046875,0.3984375 -0.703125,0.3984375 z m -1.1601562,0.3867188 c 0,-0.035156 0,-0.2695313 0.1757812,-0.46875 0.3867188,0.28125 0.796875,0.3046875 0.984375,0.3046875 0.9257813,0 1.6054688,-0.6796875 1.6054688,-1.453125 0,-0.3632813 -0.1523438,-0.7382813 -0.3984375,-0.9609375 0.3515625,-0.3398438 0.7148437,-0.3867188 0.890625,-0.3867188 0.023437,0 0.070312,0 0.1054687,0 -0.1171875,0.046875 -0.1640625,0.1523438 -0.1640625,0.2695313 0,0.1757812 0.1289063,0.2929687 0.2929688,0.2929687 0.09375,0 0.28125,-0.070312 0.28125,-0.2929687 0,-0.1757813 -0.1171875,-0.4921875 -0.5039063,-0.4921875 -0.1992187,0 -0.6328125,0.058594 -1.0546875,0.46875 -0.421875,-0.328125 -0.84375,-0.3632813 -1.0546875,-0.3632813 -0.9257812,0 -1.6171875,0.6914063 -1.6171875,1.453125 0,0.4453125 0.22265625,0.8203125 0.46875,1.03125 C 0.93828125,-1.7692734 0.7625,-1.4411484 0.7625,-1.1013047 c 0,0.31640626 0.12890625,0.69140626 0.4335938,0.89062501 -0.5976563,0.17578125 -0.91406255,0.59765625 -0.91406255,0.99609375 0,0.71484374 0.98437505,1.26562504 2.20312505,1.26562504 1.171875,0 2.203125,-0.5039063 2.203125,-1.28906254 0,-0.33984375 -0.140625,-0.85546875 -0.6445313,-1.125 -0.5273437,-0.28125 -1.1015625,-0.28125 -1.7109375,-0.28125 -0.2460937,0 -0.6796875,0 -0.75,-0.0117188 C 1.2664063,-0.70286719 1.0554688,-1.0075547 1.0554688,-1.3239609 Z M 2.496875,1.8283828 c -1.0078125,0 -1.69921875,-0.515625 -1.69921875,-1.04296874 0,-0.45703125 0.37500005,-0.8203125 0.82031255,-0.85546875 h 0.5859375 c 0.8554687,0 1.96875,0 1.96875,0.85546875 0,0.53906254 -0.703125,1.04296874 -1.6757813,1.04296874 z M 9.66875,-2.1325547 c 0,-1.2773437 -0.9960937,-2.3320312 -2.1914062,-2.3320312 -1.2539063,0 -2.2148438,1.0898437 -2.2148438,2.3320312 0,1.28906251 1.03125,2.23828126 2.203125,2.23828126 1.2070313,0 2.203125,-0.97265625 2.203125,-2.23828126 z m -2.1914062,1.99218751 c -0.4335938,0 -0.8671875,-0.2109375 -1.1367188,-0.66796875 C 6.0828125,-1.2419297 6.0828125,-1.8513047 6.0828125,-2.2145859 c 0,-0.3867188 0,-0.9257813 0.2460938,-1.359375 0.2695312,-0.4570313 0.7382812,-0.6679688 1.1367187,-0.6679688 0.4335938,0 0.8671875,0.2226563 1.125,0.6445313 0.2578125,0.4335937 0.2578125,1.0078125 0.2578125,1.3828125 0,0.3632812 0,0.9023437 -0.2226562,1.33593746 -0.2226563,0.4453125 -0.65625,0.73828125 -1.1484375,0.73828125 z M 14.930469,-2.1325547 c 0,-1.2773437 -0.996094,-2.3320312 -2.191406,-2.3320312 -1.253907,0 -2.214844,1.0898437 -2.214844,2.3320312 0,1.28906251 1.03125,2.23828126 2.203125,2.23828126 1.207031,0 2.203125,-0.97265625 2.203125,-2.23828126 z m -2.191406,1.99218751 c -0.433594,0 -0.867188,-0.2109375 -1.136719,-0.66796875 -0.257813,-0.43359376 -0.257813,-1.04296876 -0.257813,-1.40624996 0,-0.3867188 0,-0.9257813 0.246094,-1.359375 0.269531,-0.4570313 0.738281,-0.6679688 1.136719,-0.6679688 0.433594,0 0.867187,0.2226563 1.125,0.6445313 0.257812,0.4335937 0.257812,1.0078125 0.257812,1.3828125 0,0.3632812 0,0.9023437 -0.222656,1.33593746 -0.222656,0.4453125 -0.65625,0.73828125 -1.148437,0.73828125 z m 6.547851,-0.41015625 v 0.65625 L 20.751758,2.578125e-4 V -0.30442969 c -0.703125,0 -0.773438,-0.0703125 -0.773438,-0.5625 V -6.9138047 l -1.441406,0.1054688 v 0.3164062 c 0.703125,0 0.785156,0.070312 0.785156,0.5507813 v 2.15625 c -0.292968,-0.3632813 -0.726562,-0.6210938 -1.265625,-0.6210938 -1.171875,0 -2.214843,0.984375 -2.214843,2.2617188 0,1.26562496 0.972656,2.24999996 2.109375,2.24999996 0.644531,0 1.089843,-0.33984375 1.335937,-0.65625 z m 0,-2.67187496 v 2.0507812 c 0,0.17578126 0,0.19921876 -0.105469,0.36328126 -0.304687,0.48046875 -0.75,0.703125 -1.183593,0.703125 -0.445313,0 -0.796875,-0.2578125 -1.042969,-0.64453125 -0.257813,-0.41015621 -0.292969,-0.97265621 -0.292969,-1.38281251 0,-0.3632812 0.02344,-0.9609375 0.316406,-1.4179687 0.210938,-0.3046875 0.585938,-0.6328125 1.125,-0.6328125 0.351563,0 0.761719,0.1523437 1.078125,0.5976562 0.105469,0.1640625 0.105469,0.1875 0.105469,0.3632813 z m 3.451172,-0.5273438 v -3.1640625 l -1.429688,0.1054688 v 0.3164062 c 0.691407,0 0.773438,0.070312 0.773438,0.5507813 V 2.578125e-4 H 22.32793 C 22.33965,-0.01146094 22.42168,-0.15208594 22.691211,-0.62083594 c 0.152344,0.234375 0.5625,0.7265625 1.300781,0.7265625 1.183594,0 2.226563,-0.97265625 2.226563,-2.26171876 0,-1.265625 -0.972657,-2.25 -2.109375,-2.25 -0.785157,0 -1.207032,0.46875 -1.371094,0.65625 z m 0.03516,2.6132813 v -2.0507813 c 0,-0.1875 0,-0.1992187 0.105469,-0.3632812 0.386719,-0.5507813 0.9375,-0.6328125 1.171875,-0.6328125 0.457031,0 0.808594,0.2578125 1.054687,0.6328125 0.257813,0.4101562 0.28125,0.984375 0.28125,1.3945312 0,0.3632813 -0.01172,0.9609375 -0.304687,1.40625001 -0.210938,0.31640625 -0.585938,0.64453125 -1.125,0.64453125 -0.445313,0 -0.808594,-0.24609375 -1.042969,-0.609375 -0.140625,-0.2109375 -0.140625,-0.24609375 -0.140625,-0.42187496 z m 7.658203,-2.2148438 c 0.257813,-0.6210937 0.761719,-0.6328125 0.925782,-0.6328125 v -0.3046875 c -0.234375,0.011719 -0.515625,0.023437 -0.75,0.023437 -0.175782,0 -0.644532,-0.023437 -0.867188,-0.023437 v 0.3046875 c 0.304688,0.011719 0.46875,0.1757813 0.46875,0.4335938 0,0.09375 -0.01172,0.1171875 -0.05859,0.234375 l -1.00782,2.44921871 -1.101563,-2.68359371 c -0.04687,-0.09375 -0.05859,-0.140625 -0.05859,-0.1757813 0,-0.2578125 0.363281,-0.2578125 0.550781,-0.2578125 v -0.3046875 c -0.257813,0 -0.914063,0.023437 -1.078125,0.023437 -0.269531,0 -0.667969,-0.011719 -0.972656,-0.023437 v 0.3046875 c 0.480468,0 0.667968,0 0.808593,0.3515625 l 1.5,3.6328125125 C 28.732227,0.12916406 28.591602,0.45728906 28.533008,0.58619531 28.32207,1.1369766 28.04082,1.8283828 27.396289,1.8283828 c -0.04687,0 -0.269531,0 -0.46875,-0.1875 0.316406,-0.035156 0.398438,-0.2578125 0.398438,-0.4101562 0,-0.26953129 -0.199219,-0.42187504 -0.421875,-0.42187504 -0.199219,0 -0.421875,0.12890625 -0.421875,0.42187504 0,0.4570312 0.421875,0.8085937 0.914062,0.8085937 0.632813,0 1.042969,-0.5625 1.277344,-1.13671874 z m 1.954102,0.84375 c 0.05859,-1.4882812 0.902344,-1.734375 1.242187,-1.734375 1.019532,0 1.125,1.3476563 1.125,1.734375 z m -0.01172,0.2109375 h 2.789063 c 0.210937,0 0.246093,0 0.246093,-0.2109375 0,-0.984375 -0.539062,-1.9570312 -1.78125,-1.9570312 -1.160156,0 -2.074218,1.03125 -2.074218,2.2734375 0,1.33593746 1.042968,2.29687496 2.191406,2.29687496 1.21875,0 1.664062,-1.1015625 1.664062,-1.28906246 0,-0.1054688 -0.08203,-0.1171875 -0.128906,-0.1171875 -0.09375,0 -0.117187,0.058594 -0.128906,0.140625 -0.351563,1.01953121 -1.253906,1.01953121 -1.347656,1.01953121 -0.503907,0 -0.902344,-0.29296875 -1.125,-0.66796875 C 32.373828,-1.2888047 32.373828,-1.9450547 32.373828,-2.2966172 Z m 0,0"
       style="fill:#ffffff;fill-opacity:1;fill-rule:nonzero;stroke:none"
       aria-label="goodbye"
       transform="matrix(1.3333333,0,0,1.3333333,372.23333,13.652)" />
  </g>
</svg>
