<?xml version="1.0" encoding="UTF-8" standalone="no"?>
<!-- Created with Inkscape (http://www.inkscape.org/) -->

<svg
   version="1.1"
   id="svg1"
   width="89.017334"
   height="89.473335"
   viewBox="0 0 89.017334 89.473335"
   xmlns="http://www.w3.org/2000/svg"
   xmlns:svg="http://www.w3.org/2000/svg">
  <defs
     id="defs1" />
  <g
     id="g1">
    <path
       id="path1"
       d="m -22.26334,8.75974 c 0,2.59373 -2.10258,4.69631 -4.69632,4.69631 -2.59373,0 -4.69632,-2.10258 -4.69632,-4.69631 0,-2.59374 2.10259,-4.69632 4.69632,-4.69632 2.59374,0 4.69632,2.10258 4.69632,4.69632 z"
       style="fill:#ffffff;fill-opacity:1;fill-rule:nonzero;stroke:#ffffff;stroke-width:0.3985;stroke-linecap:butt;stroke-linejoin:miter;stroke-miterlimit:10;stroke-dasharray:none;stroke-opacity:1"
       transform="matrix(1.3333333,0,0,-1.3333333,43.901333,44.056)" />
    <path
       id="path2"
       d="m -11.96547,-22.93315 c 0,2.59373 -2.10258,4.69632 -4.69632,4.69632 -2.59373,0 -4.69632,-2.10259 -4.69632,-4.69632 0,-2.59374 2.10259,-4.69632 4.69632,-4.69632 2.59374,0 4.69632,2.10258 4.69632,4.69632 z"
       style="fill:#ffffff;fill-opacity:1;fill-rule:nonzero;stroke:#ffffff;stroke-width:0.3985;stroke-linecap:butt;stroke-linejoin:miter;stroke-miterlimit:10;stroke-dasharray:none;stroke-opacity:1"
       transform="matrix(1.3333333,0,0,-1.3333333,43.901333,44.056)" />
    <path
       id="path3"
       d="m 21.35811,-22.93315 c 0,2.59373 -2.10259,4.69632 -4.69632,4.69632 -2.59374,0 -4.69632,-2.10259 -4.69632,-4.69632 0,-2.59374 2.10258,-4.69632 4.69632,-4.69632 2.59373,0 4.69632,2.10258 4.69632,4.69632 z"
       style="fill:#ffffff;fill-opacity:1;fill-rule:nonzero;stroke:#ffffff;stroke-width:0.3985;stroke-linecap:butt;stroke-linejoin:miter;stroke-miterlimit:10;stroke-dasharray:none;stroke-opacity:1"
       transform="matrix(1.3333333,0,0,-1.3333333,43.901333,44.056)" />
    <path
       id="path4"
       d="m 31.65598,8.75974 c 0,2.59373 -2.10259,4.69631 -4.69632,4.69631 -2.59374,0 -4.69632,-2.10258 -4.69632,-4.69631 0,-2.59374 2.10258,-4.69632 4.69632,-4.69632 2.59373,0 4.69632,2.10258 4.69632,4.69632 z"
       style="fill:#ffffff;fill-opacity:1;fill-rule:nonzero;stroke:#ffffff;stroke-width:0.3985;stroke-linecap:butt;stroke-linejoin:miter;stroke-miterlimit:10;stroke-dasharray:none;stroke-opacity:1"
       transform="matrix(1.3333333,0,0,-1.3333333,43.901333,44.056)" />
    <path
       id="path5"
       d="M -3.9606,25.46935 -22.99904,11.63719"
       style="fill:none;stroke:#ffffff;stroke-width:0.3985;stroke-linecap:butt;stroke-linejoin:miter;stroke-miterlimit:10;stroke-dasharray:none;stroke-opacity:1"
       transform="matrix(1.3333333,0,0,-1.3333333,43.901333,44.056)" />
    <path
       id="path6"
       d="M 3.7149766,-3.7629687 C 3.5391953,-4.1379687 3.2462266,-4.4075 2.8009141,-4.4075 c -1.171875,0 -2.40234379,1.4648438 -2.40234379,2.9179688 0,0.93749995 0.55078125,1.59374995 1.32421879,1.59374995 0.1992187,0 0.703125,-0.03515625 1.3007812,-0.73828125 0.070312,0.41015625 0.421875,0.73828125 0.9023438,0.73828125 0.3515625,0 0.5742187,-0.22265625 0.7382812,-0.5390625 C 4.8282578,-0.798125 4.9571641,-1.4075 4.9571641,-1.4309375 c 0,-0.09375 -0.082031,-0.09375 -0.1171875,-0.09375 -0.09375,0 -0.1054688,0.035156 -0.140625,0.1757813 -0.1640625,0.6445312 -0.3515625,1.24218745 -0.75,1.24218745 -0.2695313,0 -0.3046875,-0.2578125 -0.3046875,-0.45703125 0,-0.22265625 0.023437,-0.3046875 0.1289062,-0.7382812 0.1171875,-0.421875 0.1289063,-0.5273438 0.2226563,-0.9023438 l 0.3515625,-1.3945312 c 0.070312,-0.28125 0.070312,-0.2929688 0.070312,-0.3398438 0,-0.1640625 -0.1171875,-0.2695312 -0.28125,-0.2695312 -0.2460938,0 -0.3867188,0.2226562 -0.4218745,0.4453125 z m -0.6445313,2.578125 c -0.046875,0.1757812 -0.046875,0.1992187 -0.1992187,0.3632812 -0.4453125,0.55078125 -0.84375,0.71484375 -1.125,0.71484375 -0.5039063,0 -0.6445313,-0.55078125 -0.6445313,-0.93749995 0,-0.5039063 0.328125,-1.7226563 0.5507813,-2.1796875 0.3046875,-0.5976563 0.7617187,-0.9609375 1.1601562,-0.9609375 0.6445313,0 0.7851563,0.8203125 0.7851563,0.8789062 0,0.058594 -0.023437,0.1171875 -0.035156,0.1640625 z m 0,0"
       style="fill:#ffffff;fill-opacity:1;fill-rule:nonzero;stroke:none"
       aria-label="a"
       transform="matrix(1.3333333,0,0,1.3333333,14.214667,14.626667)" />
    <path
       id="path7"
       d="m -25.4469,4.1038 7.27237,-22.38102"
       style="fill:none;stroke:#ffffff;stroke-width:0.3985;stroke-linecap:butt;stroke-linejoin:miter;stroke-miterlimit:10;stroke-dasharray:none;stroke-opacity:1"
       transform="matrix(1.3333333,0,0,-1.3333333,43.901333,44.056)" />
    <path
       id="path8"
       d="m 2.3782422,-6.8091875 c 0,0 0,-0.1054687 -0.1289063,-0.1054687 -0.2226562,0 -0.9492187,0.082031 -1.21875,0.1054687 -0.0703125,0 -0.18749996,0.011719 -0.18749996,0.1992188 0,0.1171875 0.09375,0.1171875 0.24609376,0.1171875 0.46875,0 0.4921875,0.070312 0.4921875,0.1640625 0,0.070312 -0.082031,0.4101562 -0.140625,0.6210937 l -0.80859376,3.2460938 c -0.12890625,0.5039062 -0.1640625,0.65625 -0.1640625,1.0078125 0,0.9492187 0.52734375,1.5585937 1.26562496,1.5585937 1.171875,0 2.4023438,-1.4765625 2.4023438,-2.9179687 0,-0.9023438 -0.5273438,-1.59375 -1.3242188,-1.59375 -0.4570312,0 -0.8671875,0.2929687 -1.171875,0.5976562 z m -0.9375,3.7734375 c 0.058594,-0.2226562 0.058594,-0.2460937 0.1523437,-0.3515625 0.4921875,-0.6445312 0.9375,-0.796875 1.1953125,-0.796875 0.3632813,0 0.6328125,0.2929688 0.6328125,0.9375 0,0.5859375 -0.328125,1.734375 -0.515625,2.109375 -0.328125,0.66796875 -0.7851562,1.03125 -1.171875,1.03125 -0.3398437,0 -0.6679687,-0.26953125 -0.6679687,-1.0078125 0,-0.1875 0,-0.3867187 0.1640625,-1.0078125 z m 0,0"
       style="fill:#ffffff;fill-opacity:1;fill-rule:nonzero;stroke:none"
       aria-label="b"
       transform="matrix(1.3333333,0,0,1.3333333,4.4266667,67.422667)" />
    <path
       id="path9"
       d="M -11.76622,-22.93315 H 11.76622"
       style="fill:none;stroke:#ffffff;stroke-width:0.3985;stroke-linecap:butt;stroke-linejoin:miter;stroke-miterlimit:10;stroke-dasharray:none;stroke-opacity:1"
       transform="matrix(1.3333333,0,0,-1.3333333,43.901333,44.056)" />
    <path
       id="path10"
       d="m 3.9487266,-3.784 c -0.1640625,0 -0.3046875,0 -0.4453125,0.140625 -0.1523438,0.1523438 -0.1757813,0.3164063 -0.1757813,0.3867188 0,0.234375 0.1757813,0.3515625 0.3632813,0.3515625 0.2929687,0 0.5625,-0.2460938 0.5625,-0.6445313 0,-0.4804687 -0.46875,-0.8554687 -1.171875,-0.8554687 -1.3476563,0 -2.67187504,1.4296875 -2.67187504,2.8359375 0,0.89062495 0.57421875,1.6757812 1.61718754,1.6757812 1.4179687,0 2.2617187,-1.0546875 2.2617187,-1.171875 0,-0.058594 -0.070312,-0.1289062 -0.1289062,-0.1289062 -0.046875,0 -0.070312,0.023437 -0.1289063,0.09375 -0.7851562,0.9960937 -1.875,0.9960937 -1.9921875,0.9960937 -0.6210937,0 -0.890625,-0.4921875 -0.890625,-1.0898437 0,-0.4101563 0.1992188,-1.3710938 0.5390625,-1.9921875 0.3046875,-0.5625 0.8554688,-0.9960938 1.40625,-0.9960938 0.328125,0 0.7148438,0.1289063 0.8554688,0.3984375 z m 0,0"
       style="fill:#ffffff;fill-opacity:1;fill-rule:nonzero;stroke:none"
       aria-label="c"
       transform="matrix(1.3333333,0,0,1.3333333,41.028,85.045333)" />
    <path
       id="path11"
       d="M 18.17453,-18.27722 25.4469,4.1038"
       style="fill:none;stroke:#ffffff;stroke-width:0.3985;stroke-linecap:butt;stroke-linejoin:miter;stroke-miterlimit:10;stroke-dasharray:none;stroke-opacity:1"
       transform="matrix(1.3333333,0,0,-1.3333333,43.901333,44.056)" />
    <path
       id="path12"
       d="m 5.1443672,-6.8091875 c 0,0 0,-0.1054687 -0.1289063,-0.1054687 -0.1523437,0 -1.1015625,0.09375 -1.265625,0.1054687 -0.082031,0.011719 -0.140625,0.070312 -0.140625,0.1992188 0,0.1171875 0.082031,0.1171875 0.234375,0.1171875 0.4804688,0 0.5039063,0.070312 0.5039063,0.1640625 L 4.3123359,-6.1295 3.7146797,-3.7623125 c -0.1757813,-0.375 -0.46875,-0.6445312 -0.9140625,-0.6445312 -1.171875,0 -2.40234376,1.4648437 -2.40234376,2.9179687 0,0.9375 0.55078125,1.59375 1.32421876,1.59375 0.1992187,0 0.703125,-0.03515625 1.3007812,-0.73828125 0.070312,0.41015625 0.421875,0.73828125 0.9023438,0.73828125 0.3515625,0 0.5742187,-0.22265625 0.7382812,-0.5390625 0.1640625,-0.36328125 0.2929688,-0.9726562 0.2929688,-0.9960937 0,-0.09375 -0.082031,-0.09375 -0.1171875,-0.09375 -0.09375,0 -0.1054688,0.035156 -0.140625,0.1757812 -0.1640625,0.64453125 -0.3515625,1.2421875 -0.75,1.2421875 -0.2695313,0 -0.3046875,-0.2578125 -0.3046875,-0.45703125 0,-0.24609375 0.023437,-0.31640625 0.058594,-0.48046875 z m -2.0742188,5.625 c -0.046875,0.1757813 -0.046875,0.19921875 -0.1992187,0.36328125 -0.4453125,0.55078125 -0.84375,0.71484375 -1.125,0.71484375 -0.5039063,0 -0.6445313,-0.55078125 -0.6445313,-0.9375 0,-0.5039062 0.328125,-1.7226562 0.5507813,-2.1796875 0.3046875,-0.5976562 0.7617187,-0.9609375 1.1601562,-0.9609375 0.6445313,0 0.7851563,0.8203125 0.7851563,0.8789063 0,0.058594 -0.023437,0.1171875 -0.035156,0.1640625 z m 0,0"
       style="fill:#ffffff;fill-opacity:1;fill-rule:nonzero;stroke:none"
       aria-label="d"
       transform="matrix(1.3333333,0,0,1.3333333,77.676,67.422667)" />
    <path
       id="path13"
       d="M 22.99904,11.63719 3.9606,25.46935"
       style="fill:none;stroke:#ffffff;stroke-width:0.3985;stroke-linecap:butt;stroke-linejoin:miter;stroke-miterlimit:10;stroke-dasharray:none;stroke-opacity:1"
       transform="matrix(1.3333333,0,0,-1.3333333,43.901333,44.056)" />
    <path
       id="path14"
       d="m 1.8620859,-2.297125 c 0.2929688,0 1.03125,-0.023437 1.5234375,-0.234375 0.703125,-0.2929687 0.75,-0.890625 0.75,-1.0195312 0,-0.4453125 -0.3867187,-0.8554688 -1.0664062,-0.8554688 -1.1132813,0 -2.61328126,0.9726563 -2.61328126,2.7070313 0,1.0195312 0.58593746,1.80468745 1.57031246,1.80468745 1.4179688,0 2.2617188,-1.0546875 2.2617188,-1.17187495 0,-0.058594 -0.070312,-0.1289063 -0.1289063,-0.1289063 -0.046875,0 -0.070312,0.023437 -0.1289062,0.09375 -0.7851563,0.99609375 -1.875,0.99609375 -1.9921875,0.99609375 -0.7734375,0 -0.8671875,-0.84375 -0.8671875,-1.16015625 0,-0.1171875 0.011719,-0.4335937 0.1640625,-1.03125 z m -0.46875,-0.2226562 C 1.7800547,-4.0315 2.8113047,-4.1838437 3.0691172,-4.1838437 c 0.46875,0 0.7382812,0.2929687 0.7382812,0.6328125 0,1.03125 -1.59375,1.03125 -2.0039062,1.03125 z m 0,0"
       style="fill:#ffffff;fill-opacity:1;fill-rule:nonzero;stroke:none"
       aria-label="e"
       transform="matrix(1.3333333,0,0,1.3333333,66.568,14.625333)" />
    <path
       id="path15"
       d="M -1.51274,23.69087 -15.14903,-18.27722"
       style="fill:none;stroke:#ffffff;stroke-width:0.3985;stroke-linecap:butt;stroke-linejoin:miter;stroke-miterlimit:10;stroke-dasharray:none;stroke-opacity:1"
       transform="matrix(1.3333333,0,0,-1.3333333,43.901333,44.056)" />
    <path
       id="path16"
       d="m 3.6562266,-3.9832266 h 0.8554687 c 0.1992188,0 0.3046875,0 0.3046875,-0.1992187 0,-0.1054688 -0.1054687,-0.1054688 -0.2695312,-0.1054688 H 3.7148203 l 0.2109375,-1.1367187 c 0.035156,-0.2109375 0.1757813,-0.9140625 0.234375,-1.0429688 0.09375,-0.1875 0.2578125,-0.3398437 0.46875,-0.3398437 0.046875,0 0.3046875,0 0.4921875,0.1875 -0.4335937,0.035156 -0.5390625,0.3867187 -0.5390625,0.5390625 0,0.2226562 0.1757813,0.3398437 0.3632813,0.3398437 0.2695312,0 0.5507812,-0.2109375 0.5507812,-0.5976562 0,-0.4570313 -0.4570312,-0.6796875 -0.8671875,-0.6796875 -0.3398437,0 -0.9609375,0.1757812 -1.265625,1.1601562 -0.058594,0.2109375 -0.082031,0.3164063 -0.328125,1.5703125 H 2.3554453 c -0.1992187,0 -0.3046875,0 -0.3046875,0.1875 0,0.1171875 0.09375,0.1171875 0.28125,0.1171875 h 0.65625 l -0.75,3.93750004 C 2.0624766,0.91521094 1.8984141,1.8292734 1.3710703,1.8292734 c -0.035156,0 -0.28125,0 -0.46874999,-0.1875 C 1.3593516,1.6183359 1.4413828,1.2550547 1.4413828,1.1027109 c 0,-0.22265621 -0.1757812,-0.33984371 -0.3632812,-0.33984371 -0.25781254,0 -0.55078129,0.2109375 -0.55078129,0.59765621 0,0.4453125 0.43359375,0.6796875 0.84374999,0.6796875 0.5507813,0 0.9492188,-0.5859375 1.125,-0.9609375 0.328125,-0.63281246 0.5507813,-1.83984371 0.5625,-1.91015621 z m 0,0"
       style="fill:#ffffff;fill-opacity:1;fill-rule:nonzero;stroke:none"
       aria-label="f"
       transform="matrix(1.3333333,0,0,1.3333333,20.168,43.768)" />
    <path
       id="path17"
       d="M 1.51274,23.69087 15.14903,-18.27722"
       style="fill:none;stroke:#ffffff;stroke-width:0.3985;stroke-linecap:butt;stroke-linejoin:miter;stroke-miterlimit:10;stroke-dasharray:none;stroke-opacity:1"
       transform="matrix(1.3333333,0,0,-1.3333333,43.901333,44.056)" />
    <path
       id="path18"
       d="m 4.6878437,-3.7502812 c 0.011719,-0.070312 0.035156,-0.1171875 0.035156,-0.1875 0,-0.1640625 -0.1171875,-0.2695313 -0.2929688,-0.2695313 -0.09375,0 -0.3632812,0.070312 -0.4101562,0.4335938 -0.1757813,-0.375 -0.5273438,-0.6328125 -0.9257813,-0.6328125 -1.1367187,0 -2.36718745,1.3945312 -2.36718745,2.8359375 0,0.98437495 0.60937495,1.57031245 1.32421875,1.57031245 0.5859375,0 1.0546875,-0.46875 1.1601562,-0.57421875 L 3.223,-0.56278125 C 3.0120625,0.316125 2.894875,0.72628125 2.894875,0.74971875 2.848,0.83175 2.5081562,1.8278438 1.4534687,1.8278438 c -0.1875,0 -0.51562495,-0.011719 -0.79687495,-0.1054688 C 0.96128125,1.628625 1.06675,1.3708125 1.06675,1.20675 c 0,-0.1640625 -0.10546875,-0.3515625 -0.375,-0.3515625 -0.22265625,0 -0.5390625,0.1757813 -0.5390625,0.5742188 0,0.4101562 0.36328125,0.609375 1.3242187,0.609375 1.2421875,0 1.9570313,-0.7734375 2.109375,-1.3710938 z M 3.3987812,-1.277625 C 3.3401875,-1.0198125 3.1058125,-0.762 2.894875,-0.5745 c -0.2109375,0.17578125 -0.5273438,0.3515625 -0.8085938,0.3515625 -0.5039062,0 -0.65625,-0.515625 -0.65625,-0.9140625 0,-0.4804687 0.2929688,-1.6523437 0.5625,-2.15625 0.2695313,-0.4921875 0.703125,-0.890625 1.1132813,-0.890625 0.65625,0 0.796875,0.8085938 0.796875,0.8554688 0,0.046875 -0.011719,0.1054687 -0.023437,0.1523437 z m 0,0"
       style="fill:#ffffff;fill-opacity:1;fill-rule:nonzero;stroke:none"
       aria-label="g"
       transform="matrix(1.3333333,0,0,1.3333333,59.702667,42.016)" />
  </g>
</svg>
