<?xml version="1.0" encoding="UTF-8" standalone="no"?>
<!-- Created with Inkscape (http://www.inkscape.org/) -->

<svg
   version="1.1"
   id="svg1"
   width="421.29868"
   height="132.088"
   viewBox="0 0 421.29868 132.088"
   xmlns="http://www.w3.org/2000/svg"
   xmlns:svg="http://www.w3.org/2000/svg">
  <defs
     id="defs1" />
  <g
     id="g1">
    <g
       id="g2"
       aria-label="C[[t]]"
       transform="matrix(1.3333333,0,0,1.3333333,4.428,70.029333)">
      <path
         id="path2"
         d="m 7.8528281,-8.0141875 c 0,-0.2109375 0,-0.3984375 -0.1992187,-0.3984375 -0.011719,0 -0.1992188,0 -0.2226563,0.2109375 -0.035156,0.3398437 -0.3046875,0.3398437 -0.3867187,0.3398437 -0.421875,0 -0.84375,-0.1757812 -1.078125,-0.2929687 -0.609375,-0.2578125 -1.125,-0.2578125 -1.3125,-0.2578125 -2.0039063,0 -4.20703128,1.2539062 -4.20703128,4.3125 0,3.046875 2.15624998,4.32421875 4.23046878,4.32421875 0.6328125,0 1.4765625,-0.12890625 2.3554687,-0.65625 C 7.5832969,-0.772 8.1926719,-1.3696563 8.1926719,-1.5454375 c 0,-0.1640625 -0.1875,-0.234375 -0.2578125,-0.234375 -0.082031,0 -0.1289063,0.035156 -0.2460938,0.1640625 -0.6914062,0.796875 -1.7578125,1.265625 -2.8242187,1.265625 -1.8515625,0 -2.3203125,-1.875 -2.3203125,-3.7265625 0,-2.3554688 0.8671875,-3.9140625 2.1445312,-3.9140625 0.890625,0 2.3320313,0.8671875 2.7304688,2.1328125 0.035156,0.1054687 0.082031,0.234375 0.234375,0.234375 0.1992187,0 0.1992187,-0.1992188 0.1992187,-0.3984375 z m -0.421875,1.2304687 C 7.2903281,-6.9946563 7.1379844,-7.147 6.8332969,-7.4516875 c 0.070312,0.011719 0.1640625,0.011719 0.2226562,0.011719 0.1289063,0 0.28125,-0.035156 0.375,-0.09375 z m -4.2421875,-0.9375 c -0.2695312,0.28125 -1.0546875,1.3007813 -1.0546875,3.6445313 0,1.1835937 0.1757813,2.8359375 1.2539063,3.69140625 -1.96875,-0.63281255 -2.53125003,-2.23828125 -2.53125003,-3.70312505 0,-2.203125 1.20703123,-3.2578125 2.33203123,-3.6445312 z m 0,0"
         style="fill:#ffffff;fill-opacity:1;fill-rule:nonzero;stroke:none" />
      <path
         id="path3"
         d="M 11.623336,2.9897187 V 2.5444062 H 10.46318 v -11.0625 h 1.160156 v -0.4453125 h -1.605469 v 11.953125 z m 3.251953,0 V 2.5444062 h -1.160156 v -11.0625 h 1.160156 V -8.9634063 H 13.26982 v 11.953125 z m 0,0"
         style="fill:#ffffff;fill-opacity:1;fill-rule:nonzero;stroke:none" />
      <path
         id="path4"
         d="m 17.538375,-4.80325 h 1.101562 c 0.222657,0 0.339844,0 0.339844,-0.2109375 0,-0.140625 -0.07031,-0.140625 -0.304687,-0.140625 h -1.054688 l 0.445313,-1.7460938 c 0.04687,-0.1640625 0.04687,-0.1875 0.04687,-0.2695312 0,-0.1875 -0.152344,-0.3046875 -0.316407,-0.3046875 -0.09375,0 -0.363281,0.046875 -0.457031,0.421875 l -0.46875,1.8984375 h -1.125 c -0.234375,0 -0.351562,0 -0.351562,0.234375 0,0.1171875 0.09375,0.1171875 0.316406,0.1171875 h 1.066406 l -0.796875,3.1523437 c -0.09375,0.421875 -0.128906,0.5390625 -0.128906,0.6914063 0,0.5625 0.398437,1.078125 1.066406,1.078125 1.207031,0 1.851563,-1.7460938 1.851563,-1.828125 0,-0.070312 -0.04687,-0.1054688 -0.117188,-0.1054688 -0.02344,0 -0.07031,0 -0.09375,0.046875 -0.01172,0.011719 -0.02344,0.023437 -0.105469,0.2109375 -0.257812,0.5976563 -0.808593,1.4414063 -1.5,1.4414063 -0.363281,0 -0.386718,-0.3046875 -0.386718,-0.5625 0,-0.0117188 0,-0.24609375 0.03516,-0.3867188 z m 0,0"
         style="fill:#ffffff;fill-opacity:1;fill-rule:nonzero;stroke:none" />
      <path
         id="path5"
         d="m 21.215133,-8.9634063 h -1.605469 v 0.4453125 h 1.160156 v 11.0625 h -1.160156 v 0.4453125 h 1.605469 z m 3.251953,0 h -1.605469 v 0.4453125 h 1.160156 v 11.0625 h -1.160156 v 0.4453125 h 1.605469 z m 0,0"
         style="fill:#ffffff;fill-opacity:1;fill-rule:nonzero;stroke:none" />
    </g>
    <g
       id="g5"
       aria-label="C[[t]]"
       transform="matrix(1.3333333,0,0,1.3333333,80.017333,70.029333)">
      <path
         id="path6"
         d="m 7.8502812,-8.0141875 c 0,-0.2109375 0,-0.3984375 -0.1992187,-0.3984375 -0.011719,0 -0.1992188,0 -0.2226563,0.2109375 -0.035156,0.3398437 -0.3046875,0.3398437 -0.3867187,0.3398437 -0.421875,0 -0.84375,-0.1757812 -1.078125,-0.2929687 -0.609375,-0.2578125 -1.125,-0.2578125 -1.3125,-0.2578125 -2.0039063,0 -4.20703125,1.2539062 -4.20703125,4.3125 0,3.046875 2.15624995,4.32421875 4.23046875,4.32421875 0.6328125,0 1.4765625,-0.12890625 2.3554687,-0.65625 C 7.58075,-0.772 8.190125,-1.3696563 8.190125,-1.5454375 c 0,-0.1640625 -0.1875,-0.234375 -0.2578125,-0.234375 -0.082031,0 -0.1289063,0.035156 -0.2460938,0.1640625 -0.6914062,0.796875 -1.7578125,1.265625 -2.8242187,1.265625 -1.8515625,0 -2.3203125,-1.875 -2.3203125,-3.7265625 0,-2.3554688 0.8671875,-3.9140625 2.1445312,-3.9140625 0.890625,0 2.3320313,0.8671875 2.7304688,2.1328125 0.035156,0.1054687 0.082031,0.234375 0.234375,0.234375 0.1992187,0 0.1992187,-0.1992188 0.1992187,-0.3984375 z m -0.421875,1.2304687 C 7.2877812,-6.9946563 7.1354375,-7.147 6.83075,-7.4516875 c 0.070312,0.011719 0.1640625,0.011719 0.2226562,0.011719 0.1289063,0 0.28125,-0.035156 0.375,-0.09375 z m -4.2421875,-0.9375 c -0.2695312,0.28125 -1.0546875,1.3007813 -1.0546875,3.6445313 0,1.1835937 0.1757813,2.8359375 1.2539063,3.69140625 -1.96875,-0.63281255 -2.53125,-2.23828125 -2.53125,-3.70312505 0,-2.203125 1.2070312,-3.2578125 2.3320312,-3.6445312 z m 0,0"
         style="fill:#ffffff;fill-opacity:1;fill-rule:nonzero;stroke:none" />
      <path
         id="path7"
         d="M 11.623719,2.9897187 V 2.5444062 h -1.160157 v -11.0625 h 1.160157 V -8.9634063 H 10.01825 v 11.953125 z m 3.251953,0 V 2.5444062 h -1.160156 v -11.0625 h 1.160156 v -0.4453125 h -1.605469 v 11.953125 z m 0,0"
         style="fill:#ffffff;fill-opacity:1;fill-rule:nonzero;stroke:none" />
      <path
         id="path8"
         d="m 17.541687,-4.80325 h 1.101563 c 0.222656,0 0.339844,0 0.339844,-0.2109375 0,-0.140625 -0.07031,-0.140625 -0.304688,-0.140625 h -1.054687 l 0.445312,-1.7460938 c 0.04687,-0.1640625 0.04687,-0.1875 0.04687,-0.2695312 0,-0.1875 -0.152344,-0.3046875 -0.316406,-0.3046875 -0.09375,0 -0.363281,0.046875 -0.457031,0.421875 l -0.46875,1.8984375 h -1.125 c -0.234375,0 -0.351563,0 -0.351563,0.234375 0,0.1171875 0.09375,0.1171875 0.316406,0.1171875 h 1.066407 l -0.796875,3.1523437 c -0.09375,0.421875 -0.128907,0.5390625 -0.128907,0.6914063 0,0.5625 0.398438,1.078125 1.066407,1.078125 1.207031,0 1.851562,-1.7460938 1.851562,-1.828125 0,-0.070312 -0.04687,-0.1054688 -0.117187,-0.1054688 -0.02344,0 -0.07031,0 -0.09375,0.046875 -0.01172,0.011719 -0.02344,0.023437 -0.105469,0.2109375 -0.257813,0.5976563 -0.808594,1.4414063 -1.5,1.4414063 -0.363281,0 -0.386719,-0.3046875 -0.386719,-0.5625 0,-0.0117188 0,-0.24609375 0.03516,-0.3867188 z m 0,0"
         style="fill:#ffffff;fill-opacity:1;fill-rule:nonzero;stroke:none" />
      <path
         id="path9"
         d="m 21.215516,-8.9634063 h -1.605469 v 0.4453125 h 1.160156 v 11.0625 h -1.160156 v 0.4453125 h 1.605469 z m 3.251953,0 H 22.862 v 0.4453125 h 1.160156 v 11.0625 H 22.862 v 0.4453125 h 1.605469 z m 0,0"
         style="fill:#ffffff;fill-opacity:1;fill-rule:nonzero;stroke:none" />
    </g>
    <g
       id="g9"
       aria-label="C[[t]]"
       transform="matrix(1.3333333,0,0,1.3333333,155.608,70.029333)">
      <path
         id="path10"
         d="m 7.8525937,-8.0141875 c 0,-0.2109375 0,-0.3984375 -0.1992187,-0.3984375 -0.011719,0 -0.1992188,0 -0.2226563,0.2109375 -0.035156,0.3398437 -0.3046875,0.3398437 -0.3867187,0.3398437 -0.421875,0 -0.84375,-0.1757812 -1.078125,-0.2929687 -0.609375,-0.2578125 -1.125,-0.2578125 -1.3125,-0.2578125 -2.0039063,0 -4.20703125,1.2539062 -4.20703125,4.3125 0,3.046875 2.15624995,4.32421875 4.23046875,4.32421875 0.6328125,0 1.4765625,-0.12890625 2.3554687,-0.65625 C 7.5830625,-0.772 8.1924375,-1.3696563 8.1924375,-1.5454375 c 0,-0.1640625 -0.1875,-0.234375 -0.2578125,-0.234375 -0.082031,0 -0.1289063,0.035156 -0.2460938,0.1640625 -0.6914062,0.796875 -1.7578125,1.265625 -2.8242187,1.265625 -1.8515625,0 -2.3203125,-1.875 -2.3203125,-3.7265625 0,-2.3554688 0.8671875,-3.9140625 2.1445312,-3.9140625 0.890625,0 2.3320313,0.8671875 2.7304688,2.1328125 0.035156,0.1054687 0.082031,0.234375 0.234375,0.234375 0.1992187,0 0.1992187,-0.1992188 0.1992187,-0.3984375 z m -0.421875,1.2304687 C 7.2900937,-6.9946563 7.13775,-7.147 6.8330625,-7.4516875 c 0.070312,0.011719 0.1640625,0.011719 0.2226562,0.011719 0.1289063,0 0.28125,-0.035156 0.375,-0.09375 z m -4.2421875,-0.9375 c -0.2695312,0.28125 -1.0546875,1.3007813 -1.0546875,3.6445313 0,1.1835937 0.1757813,2.8359375 1.2539063,3.69140625 C 1.419,-1.0180938 0.8565,-2.6235625 0.8565,-4.0884063 c 0,-2.203125 1.2070312,-3.2578125 2.3320312,-3.6445312 z m 0,0"
         style="fill:#ffffff;fill-opacity:1;fill-rule:nonzero;stroke:none" />
      <path
         id="path11"
         d="M 11.623102,2.9897187 V 2.5444062 h -1.160157 v -11.0625 h 1.160157 v -0.4453125 h -1.605469 v 11.953125 z m 3.251953,0 V 2.5444062 h -1.160157 v -11.0625 h 1.160157 v -0.4453125 h -1.605469 v 11.953125 z m 0,0"
         style="fill:#ffffff;fill-opacity:1;fill-rule:nonzero;stroke:none" />
      <path
         id="path12"
         d="m 17.54107,-4.80325 h 1.101563 c 0.222656,0 0.339844,0 0.339844,-0.2109375 0,-0.140625 -0.07031,-0.140625 -0.304688,-0.140625 h -1.054687 l 0.445312,-1.7460938 c 0.04687,-0.1640625 0.04687,-0.1875 0.04687,-0.2695312 0,-0.1875 -0.152344,-0.3046875 -0.316406,-0.3046875 -0.09375,0 -0.363281,0.046875 -0.457031,0.421875 l -0.46875,1.8984375 h -1.125 c -0.234375,0 -0.351563,0 -0.351563,0.234375 0,0.1171875 0.09375,0.1171875 0.316406,0.1171875 h 1.066407 l -0.796875,3.1523437 c -0.09375,0.421875 -0.128907,0.5390625 -0.128907,0.6914063 0,0.5625 0.398438,1.078125 1.066407,1.078125 1.207031,0 1.851562,-1.7460938 1.851562,-1.828125 0,-0.070312 -0.04687,-0.1054688 -0.117187,-0.1054688 -0.02344,0 -0.07031,0 -0.09375,0.046875 -0.01172,0.011719 -0.02344,0.023437 -0.105469,0.2109375 -0.257813,0.5976563 -0.808594,1.4414063 -1.5,1.4414063 -0.363281,0 -0.386719,-0.3046875 -0.386719,-0.5625 0,-0.0117188 0,-0.24609375 0.03516,-0.3867188 z m 0,0"
         style="fill:#ffffff;fill-opacity:1;fill-rule:nonzero;stroke:none" />
      <path
         id="path13"
         d="m 21.217828,-8.9634063 h -1.605469 v 0.4453125 h 1.160157 v 11.0625 h -1.160157 v 0.4453125 h 1.605469 z m 3.251953,0 h -1.605469 v 0.4453125 h 1.160157 v 11.0625 h -1.160157 v 0.4453125 h 1.605469 z m 0,0"
         style="fill:#ffffff;fill-opacity:1;fill-rule:nonzero;stroke:none" />
    </g>
    <g
       id="g13"
       aria-label="C[[t]]"
       transform="matrix(1.3333333,0,0,1.3333333,231.19867,70.029333)">
      <path
         id="path14"
         d="m 7.8519766,-8.0141875 c 0,-0.2109375 0,-0.3984375 -0.1992188,-0.3984375 -0.011719,0 -0.1992187,0 -0.2226562,0.2109375 -0.035156,0.3398437 -0.3046875,0.3398437 -0.3867188,0.3398437 -0.421875,0 -0.84375,-0.1757812 -1.078125,-0.2929687 -0.609375,-0.2578125 -1.125,-0.2578125 -1.3125,-0.2578125 -2.0039062,0 -4.20703124,1.2539062 -4.20703124,4.3125 0,3.046875 2.15625004,4.32421875 4.23046874,4.32421875 0.6328125,0 1.4765625,-0.12890625 2.3554688,-0.65625 C 7.5824453,-0.772 8.1918203,-1.3696563 8.1918203,-1.5454375 c 0,-0.1640625 -0.1875,-0.234375 -0.2578125,-0.234375 -0.082031,0 -0.1289062,0.035156 -0.2460937,0.1640625 -0.6914063,0.796875 -1.7578125,1.265625 -2.8242188,1.265625 -1.8515625,0 -2.3203125,-1.875 -2.3203125,-3.7265625 0,-2.3554688 0.8671875,-3.9140625 2.1445313,-3.9140625 0.890625,0 2.3320312,0.8671875 2.7304687,2.1328125 0.035156,0.1054687 0.082031,0.234375 0.234375,0.234375 0.1992188,0 0.1992188,-0.1992188 0.1992188,-0.3984375 z m -0.421875,1.2304687 C 7.2894766,-6.9946563 7.1371328,-7.147 6.8324453,-7.4516875 c 0.070312,0.011719 0.1640625,0.011719 0.2226563,0.011719 0.1289062,0 0.28125,-0.035156 0.375,-0.09375 z m -4.2421875,-0.9375 c -0.2695313,0.28125 -1.0546875,1.3007813 -1.0546875,3.6445313 0,1.1835937 0.1757812,2.8359375 1.2539062,3.69140625 -1.96875,-0.63281255 -2.53124999,-2.23828125 -2.53124999,-3.70312505 0,-2.203125 1.20703129,-3.2578125 2.33203129,-3.6445312 z m 0,0"
         style="fill:#ffffff;fill-opacity:1;fill-rule:nonzero;stroke:none" />
      <path
         id="path15"
         d="M 11.622484,2.9897187 V 2.5444062 h -1.160156 v -11.0625 h 1.160156 v -0.4453125 h -1.605468 v 11.953125 z m 3.251954,0 V 2.5444062 h -1.160157 v -11.0625 h 1.160157 v -0.4453125 h -1.605469 v 11.953125 z m 0,0"
         style="fill:#ffffff;fill-opacity:1;fill-rule:nonzero;stroke:none" />
      <path
         id="path16"
         d="m 17.540453,-4.80325 h 1.101563 c 0.222656,0 0.339843,0 0.339843,-0.2109375 0,-0.140625 -0.07031,-0.140625 -0.304687,-0.140625 h -1.054688 l 0.445313,-1.7460938 c 0.04687,-0.1640625 0.04687,-0.1875 0.04687,-0.2695312 0,-0.1875 -0.152344,-0.3046875 -0.316406,-0.3046875 -0.09375,0 -0.363282,0.046875 -0.457032,0.421875 l -0.46875,1.8984375 h -1.125 c -0.234375,0 -0.351562,0 -0.351562,0.234375 0,0.1171875 0.09375,0.1171875 0.316406,0.1171875 h 1.066406 l -0.796875,3.1523437 c -0.09375,0.421875 -0.128906,0.5390625 -0.128906,0.6914063 0,0.5625 0.398438,1.078125 1.066406,1.078125 1.207032,0 1.851563,-1.7460938 1.851563,-1.828125 0,-0.070312 -0.04687,-0.1054688 -0.117188,-0.1054688 -0.02344,0 -0.07031,0 -0.09375,0.046875 -0.01172,0.011719 -0.02344,0.023437 -0.105468,0.2109375 -0.257813,0.5976563 -0.808594,1.4414063 -1.5,1.4414063 -0.363282,0 -0.386719,-0.3046875 -0.386719,-0.5625 0,-0.0117188 0,-0.24609375 0.03516,-0.3867188 z m 0,0"
         style="fill:#ffffff;fill-opacity:1;fill-rule:nonzero;stroke:none" />
      <path
         id="path17"
         d="m 21.217211,-8.9634063 h -1.605469 v 0.4453125 h 1.160156 v 11.0625 h -1.160156 v 0.4453125 h 1.605469 z m 3.251953,0 h -1.605469 v 0.4453125 h 1.160157 v 11.0625 h -1.160157 v 0.4453125 h 1.605469 z m 0,0"
         style="fill:#ffffff;fill-opacity:1;fill-rule:nonzero;stroke:none" />
    </g>
    <g
       id="g17"
       aria-label="C[[t]]"
       transform="matrix(1.3333333,0,0,1.3333333,306.78933,70.029333)">
      <path
         id="path18"
         d="m 7.8513594,-8.0141875 c 0,-0.2109375 0,-0.3984375 -0.1992188,-0.3984375 -0.011719,0 -0.1992187,0 -0.2226562,0.2109375 -0.035156,0.3398437 -0.3046875,0.3398437 -0.3867188,0.3398437 -0.421875,0 -0.84375,-0.1757812 -1.078125,-0.2929687 -0.609375,-0.2578125 -1.125,-0.2578125 -1.3125,-0.2578125 -2.0039062,0 -4.20703122,1.2539062 -4.20703122,4.3125 0,3.046875 2.15625002,4.32421875 4.23046872,4.32421875 0.6328125,0 1.4765625,-0.12890625 2.3554688,-0.65625 C 7.5818281,-0.772 8.1912031,-1.3696563 8.1912031,-1.5454375 c 0,-0.1640625 -0.1875,-0.234375 -0.2578125,-0.234375 -0.082031,0 -0.1289062,0.035156 -0.2460937,0.1640625 -0.6914063,0.796875 -1.7578125,1.265625 -2.8242188,1.265625 -1.8515625,0 -2.3203125,-1.875 -2.3203125,-3.7265625 0,-2.3554688 0.8671875,-3.9140625 2.1445313,-3.9140625 0.890625,0 2.3320312,0.8671875 2.7304687,2.1328125 0.035156,0.1054687 0.082031,0.234375 0.234375,0.234375 0.1992188,0 0.1992188,-0.1992188 0.1992188,-0.3984375 z m -0.421875,1.2304687 C 7.2888594,-6.9946563 7.1365156,-7.147 6.8318281,-7.4516875 c 0.070312,0.011719 0.1640625,0.011719 0.2226563,0.011719 0.1289062,0 0.28125,-0.035156 0.375,-0.09375 z m -4.2421875,-0.9375 c -0.2695313,0.28125 -1.0546875,1.3007813 -1.0546875,3.6445313 0,1.1835937 0.1757812,2.8359375 1.2539062,3.69140625 -1.96875,-0.63281255 -2.53124997,-2.23828125 -2.53124997,-3.70312505 0,-2.203125 1.20703127,-3.2578125 2.33203127,-3.6445312 z m 0,0"
         style="fill:#ffffff;fill-opacity:1;fill-rule:nonzero;stroke:none" />
      <path
         id="path19"
         d="M 11.621867,2.9897187 V 2.5444062 h -1.160156 v -11.0625 h 1.160156 v -0.4453125 h -1.605469 v 11.953125 z m 3.251953,0 V 2.5444062 h -1.160156 v -11.0625 h 1.160156 v -0.4453125 h -1.605468 v 11.953125 z m 0,0"
         style="fill:#ffffff;fill-opacity:1;fill-rule:nonzero;stroke:none" />
      <path
         id="path20"
         d="m 17.539836,-4.80325 h 1.101562 c 0.222657,0 0.339844,0 0.339844,-0.2109375 0,-0.140625 -0.07031,-0.140625 -0.304687,-0.140625 h -1.054688 l 0.445313,-1.7460938 c 0.04687,-0.1640625 0.04687,-0.1875 0.04687,-0.2695312 0,-0.1875 -0.152344,-0.3046875 -0.316407,-0.3046875 -0.09375,0 -0.363281,0.046875 -0.457031,0.421875 l -0.46875,1.8984375 h -1.125 c -0.234375,0 -0.351562,0 -0.351562,0.234375 0,0.1171875 0.09375,0.1171875 0.316406,0.1171875 h 1.066406 l -0.796875,3.1523437 c -0.09375,0.421875 -0.128906,0.5390625 -0.128906,0.6914063 0,0.5625 0.398437,1.078125 1.066406,1.078125 1.207031,0 1.851563,-1.7460938 1.851563,-1.828125 0,-0.070312 -0.04687,-0.1054688 -0.117188,-0.1054688 -0.02344,0 -0.07031,0 -0.09375,0.046875 -0.01172,0.011719 -0.02344,0.023437 -0.105469,0.2109375 -0.257812,0.5976563 -0.808593,1.4414063 -1.5,1.4414063 -0.363281,0 -0.386718,-0.3046875 -0.386718,-0.5625 0,-0.0117188 0,-0.24609375 0.03516,-0.3867188 z m 0,0"
         style="fill:#ffffff;fill-opacity:1;fill-rule:nonzero;stroke:none" />
      <path
         id="path21"
         d="m 21.216594,-8.9634063 h -1.605469 v 0.4453125 h 1.160156 v 11.0625 h -1.160156 v 0.4453125 h 1.605469 z m 3.251953,0 h -1.605469 v 0.4453125 h 1.160156 v 11.0625 h -1.160156 v 0.4453125 h 1.605469 z m 0,0"
         style="fill:#ffffff;fill-opacity:1;fill-rule:nonzero;stroke:none" />
    </g>
    <g
       id="g21"
       aria-label="C[[t]]"
       transform="matrix(1.3333333,0,0,1.3333333,382.38,70.029333)">
      <path
         id="path22"
         d="m 7.8507422,-8.0141875 c 0,-0.2109375 0,-0.3984375 -0.1992188,-0.3984375 -0.011719,0 -0.1992187,0 -0.2226562,0.2109375 -0.035156,0.3398437 -0.3046875,0.3398437 -0.3867188,0.3398437 -0.421875,0 -0.84375,-0.1757812 -1.078125,-0.2929687 -0.609375,-0.2578125 -1.125,-0.2578125 -1.3125,-0.2578125 -2.0039062,0 -4.20703121,1.2539062 -4.20703121,4.3125 0,3.046875 2.15625001,4.32421875 4.23046871,4.32421875 0.6328125,0 1.4765625,-0.12890625 2.3554688,-0.65625 C 7.5812109,-0.772 8.1905859,-1.3696563 8.1905859,-1.5454375 c 0,-0.1640625 -0.1875,-0.234375 -0.2578125,-0.234375 -0.082031,0 -0.1289062,0.035156 -0.2460937,0.1640625 -0.6914063,0.796875 -1.7578125,1.265625 -2.8242188,1.265625 -1.8515625,0 -2.3203125,-1.875 -2.3203125,-3.7265625 0,-2.3554688 0.8671875,-3.9140625 2.1445313,-3.9140625 0.890625,0 2.3320312,0.8671875 2.7304687,2.1328125 0.035156,0.1054687 0.082031,0.234375 0.234375,0.234375 0.1992188,0 0.1992188,-0.1992188 0.1992188,-0.3984375 z m -0.421875,1.2304687 C 7.2882422,-6.9946563 7.1358984,-7.147 6.8312109,-7.4516875 c 0.070312,0.011719 0.1640625,0.011719 0.2226563,0.011719 0.1289062,0 0.28125,-0.035156 0.375,-0.09375 z m -4.2421875,-0.9375 c -0.2695313,0.28125 -1.0546875,1.3007813 -1.0546875,3.6445313 0,1.1835937 0.1757812,2.8359375 1.2539062,3.69140625 -1.96875,-0.63281255 -2.53124996,-2.23828125 -2.53124996,-3.70312505 0,-2.203125 1.20703126,-3.2578125 2.33203126,-3.6445312 z m 0,0"
         style="fill:#ffffff;fill-opacity:1;fill-rule:nonzero;stroke:none" />
      <path
         id="path23"
         d="M 11.62125,2.9897187 V 2.5444062 h -1.160156 v -11.0625 h 1.160156 v -0.4453125 h -1.605469 v 11.953125 z m 3.251953,0 V 2.5444062 h -1.160156 v -11.0625 h 1.160156 v -0.4453125 h -1.605469 v 11.953125 z m 0,0"
         style="fill:#ffffff;fill-opacity:1;fill-rule:nonzero;stroke:none" />
      <path
         id="path24"
         d="m 17.539219,-4.80325 h 1.101562 c 0.222657,0 0.339844,0 0.339844,-0.2109375 0,-0.140625 -0.07031,-0.140625 -0.304687,-0.140625 H 17.62125 l 0.445313,-1.7460938 c 0.04687,-0.1640625 0.04687,-0.1875 0.04687,-0.2695312 0,-0.1875 -0.152344,-0.3046875 -0.316407,-0.3046875 -0.09375,0 -0.363281,0.046875 -0.457031,0.421875 l -0.46875,1.8984375 h -1.125 c -0.234375,0 -0.351562,0 -0.351562,0.234375 0,0.1171875 0.09375,0.1171875 0.316406,0.1171875 H 16.7775 l -0.796875,3.1523437 c -0.09375,0.421875 -0.128906,0.5390625 -0.128906,0.6914063 0,0.5625 0.398437,1.078125 1.066406,1.078125 1.207031,0 1.851563,-1.7460938 1.851563,-1.828125 0,-0.070312 -0.04687,-0.1054688 -0.117188,-0.1054688 -0.02344,0 -0.07031,0 -0.09375,0.046875 -0.01172,0.011719 -0.02344,0.023437 -0.105469,0.2109375 -0.257812,0.5976563 -0.808593,1.4414063 -1.5,1.4414063 -0.363281,0 -0.386718,-0.3046875 -0.386718,-0.5625 0,-0.0117188 0,-0.24609375 0.03516,-0.3867188 z m 0,0"
         style="fill:#ffffff;fill-opacity:1;fill-rule:nonzero;stroke:none" />
      <path
         id="path25"
         d="m 21.215977,-8.9634063 h -1.605469 v 0.4453125 h 1.160156 v 11.0625 h -1.160156 v 0.4453125 h 1.605469 z m 3.251953,0 h -1.605469 v 0.4453125 h 1.160156 v 11.0625 h -1.160156 v 0.4453125 h 1.605469 z m 0,0"
         style="fill:#ffffff;fill-opacity:1;fill-rule:nonzero;stroke:none" />
    </g>
    <path
       id="path26"
       d="M 16.65329,7.76099 C 24.91908,11.6154 31.77454,11.6154 39.318,8.0978"
       style="fill:none;stroke:#fdde2a;stroke-width:0.79701;stroke-linecap:butt;stroke-linejoin:miter;stroke-miterlimit:10;stroke-dasharray:none;stroke-opacity:1"
       transform="matrix(1.3333333,0,0,-1.3333333,21.673333,66.044)" />
    <path
       id="path27"
       d="M -2.55046,3.11095 C -2.0845,1.24435 -1.04614,0.36295 0,0 -1.04614,-0.36295 -2.0845,-1.24435 -2.55046,-3.11095"
       style="fill:none;stroke:#fdde2a;stroke-width:0.79701;stroke-linecap:round;stroke-linejoin:round;stroke-miterlimit:10;stroke-dasharray:none;stroke-opacity:1"
       transform="matrix(1.2084,0.56346667,0.56346667,-1.2084,74.578867,55.471467)" />
    <path
       id="path28"
       d="M 40.04031,-7.76099 C 31.77454,-11.6154 24.91908,-11.6154 17.37561,-8.0978"
       style="fill:none;stroke:#ffffff;stroke-width:0.79701;stroke-linecap:butt;stroke-linejoin:miter;stroke-miterlimit:10;stroke-dasharray:none;stroke-opacity:1"
       transform="matrix(1.3333333,0,0,-1.3333333,21.673333,66.044)" />
    <path
       id="path29"
       d="M -2.55046,3.11095 C -2.0845,1.24435 -1.04614,0.36295 0,0 -1.04614,-0.36295 -2.0845,-1.24435 -2.55046,-3.11095"
       style="fill:none;stroke:#ffffff;stroke-width:0.79701;stroke-linecap:round;stroke-linejoin:round;stroke-miterlimit:10;stroke-dasharray:none;stroke-opacity:1"
       transform="matrix(-1.2084,-0.56346667,-0.56346667,1.2084,44.359267,76.616533)" />
    <path
       id="path30"
       d="M 73.34691,7.76099 C 81.6127,11.6154 88.46815,11.6154 96.01161,8.0978"
       style="fill:none;stroke:#000000;stroke-width:0.79701;stroke-linecap:butt;stroke-linejoin:miter;stroke-miterlimit:10;stroke-dasharray:none;stroke-opacity:1"
       transform="matrix(1.3333333,0,0,-1.3333333,21.673333,66.044)" />
    <path
       id="path31"
       d="M -2.55046,3.11095 C -2.0845,1.24435 -1.04614,0.36295 0,0 -1.04614,-0.36295 -2.0845,-1.24435 -2.55046,-3.11095"
       style="fill:none;stroke:#000000;stroke-width:0.79701;stroke-linecap:round;stroke-linejoin:round;stroke-miterlimit:10;stroke-dasharray:none;stroke-opacity:1"
       transform="matrix(1.2084,0.56346667,0.56346667,-1.2084,150.17036,55.471467)" />
    <path
       id="path32"
       d="M 96.73393,-7.76099 C 88.46815,-11.6154 81.6127,-11.6154 74.06923,-8.0978"
       style="fill:none;stroke:#ffffff;stroke-width:0.79701;stroke-linecap:butt;stroke-linejoin:miter;stroke-miterlimit:10;stroke-dasharray:none;stroke-opacity:1"
       transform="matrix(1.3333333,0,0,-1.3333333,21.673333,66.044)" />
    <path
       id="path33"
       d="M -2.55046,3.11095 C -2.0845,1.24435 -1.04614,0.36295 0,0 -1.04614,-0.36295 -2.0845,-1.24435 -2.55046,-3.11095"
       style="fill:none;stroke:#ffffff;stroke-width:0.79701;stroke-linecap:round;stroke-linejoin:round;stroke-miterlimit:10;stroke-dasharray:none;stroke-opacity:1"
       transform="matrix(-1.2084,-0.56346667,-0.56346667,1.2084,119.95077,76.616533)" />
    <path
       id="path34"
       d="m 130.04053,7.76099 c 8.26579,3.85441 15.12124,3.85441 22.6647,0.33681"
       style="fill:none;stroke:#000000;stroke-width:0.79701;stroke-linecap:butt;stroke-linejoin:miter;stroke-miterlimit:10;stroke-dasharray:none;stroke-opacity:1"
       transform="matrix(1.3333333,0,0,-1.3333333,21.673333,66.044)" />
    <path
       id="path35"
       d="M -2.55046,3.11095 C -2.0845,1.24435 -1.04614,0.36295 0,0 -1.04614,-0.36295 -2.0845,-1.24435 -2.55046,-3.11095"
       style="fill:none;stroke:#000000;stroke-width:0.79701;stroke-linecap:round;stroke-linejoin:round;stroke-miterlimit:10;stroke-dasharray:none;stroke-opacity:1"
       transform="matrix(1.2084,0.56346667,0.56346667,-1.2084,225.76185,55.471467)" />
    <path
       id="path36"
       d="m 153.42755,-7.76099 c -8.26578,-3.85441 -15.12123,-3.85441 -22.6647,-0.33681"
       style="fill:none;stroke:#ffffff;stroke-width:0.79701;stroke-linecap:butt;stroke-linejoin:miter;stroke-miterlimit:10;stroke-dasharray:none;stroke-opacity:1"
       transform="matrix(1.3333333,0,0,-1.3333333,21.673333,66.044)" />
    <path
       id="path37"
       d="M -2.55046,3.11095 C -2.0845,1.24435 -1.04614,0.36295 0,0 -1.04614,-0.36295 -2.0845,-1.24435 -2.55046,-3.11095"
       style="fill:none;stroke:#ffffff;stroke-width:0.79701;stroke-linecap:round;stroke-linejoin:round;stroke-miterlimit:10;stroke-dasharray:none;stroke-opacity:1"
       transform="matrix(-1.2084,-0.56346667,-0.56346667,1.2084,195.54227,76.616533)" />
    <path
       id="path38"
       d="m 186.73415,7.76099 c 8.26579,3.85441 15.12125,3.85441 22.6647,0.33681"
       style="fill:none;stroke:#000000;stroke-width:0.79701;stroke-linecap:butt;stroke-linejoin:miter;stroke-miterlimit:10;stroke-dasharray:none;stroke-opacity:1"
       transform="matrix(1.3333333,0,0,-1.3333333,21.673333,66.044)" />
    <path
       id="path39"
       d="M -2.55046,3.11095 C -2.0845,1.24435 -1.04614,0.36295 0,0 -1.04614,-0.36295 -2.0845,-1.24435 -2.55046,-3.11095"
       style="fill:none;stroke:#000000;stroke-width:0.79701;stroke-linecap:round;stroke-linejoin:round;stroke-miterlimit:10;stroke-dasharray:none;stroke-opacity:1"
       transform="matrix(1.2084,0.56346667,0.56346667,-1.2084,301.35335,55.471467)" />
    <path
       id="path40"
       d="M 210.12117,-7.76099 C 201.8554,-11.6154 194.99994,-11.6154 187.45647,-8.0978"
       style="fill:none;stroke:#ffffff;stroke-width:0.79701;stroke-linecap:butt;stroke-linejoin:miter;stroke-miterlimit:10;stroke-dasharray:none;stroke-opacity:1"
       transform="matrix(1.3333333,0,0,-1.3333333,21.673333,66.044)" />
    <path
       id="path41"
       d="M -2.55046,3.11095 C -2.0845,1.24435 -1.04614,0.36295 0,0 -1.04614,-0.36295 -2.0845,-1.24435 -2.55046,-3.11095"
       style="fill:none;stroke:#ffffff;stroke-width:0.79701;stroke-linecap:round;stroke-linejoin:round;stroke-miterlimit:10;stroke-dasharray:none;stroke-opacity:1"
       transform="matrix(-1.2084,-0.56346667,-0.56346667,1.2084,271.13376,76.616533)" />
    <path
       id="path42"
       d="m 243.42776,7.76099 c 8.2658,3.85441 15.12125,3.85441 22.66471,0.33681"
       style="fill:none;stroke:#000000;stroke-width:0.79701;stroke-linecap:butt;stroke-linejoin:miter;stroke-miterlimit:10;stroke-dasharray:none;stroke-opacity:1"
       transform="matrix(1.3333333,0,0,-1.3333333,21.673333,66.044)" />
    <path
       id="path43"
       d="M -2.55046,3.11095 C -2.0845,1.24435 -1.04614,0.36295 0,0 -1.04614,-0.36295 -2.0845,-1.24435 -2.55046,-3.11095"
       style="fill:none;stroke:#000000;stroke-width:0.79701;stroke-linecap:round;stroke-linejoin:round;stroke-miterlimit:10;stroke-dasharray:none;stroke-opacity:1"
       transform="matrix(1.2084,0.56346667,0.56346667,-1.2084,376.94484,55.471467)" />
    <path
       id="path44"
       d="m 266.81479,-7.76099 c -8.26578,-3.85441 -15.12123,-3.85441 -22.6647,-0.33681"
       style="fill:none;stroke:#ffffff;stroke-width:0.79701;stroke-linecap:butt;stroke-linejoin:miter;stroke-miterlimit:10;stroke-dasharray:none;stroke-opacity:1"
       transform="matrix(1.3333333,0,0,-1.3333333,21.673333,66.044)" />
    <path
       id="path45"
       d="M -2.55046,3.11095 C -2.0845,1.24435 -1.04614,0.36295 0,0 -1.04614,-0.36295 -2.0845,-1.24435 -2.55046,-3.11095"
       style="fill:none;stroke:#ffffff;stroke-width:0.79701;stroke-linecap:round;stroke-linejoin:round;stroke-miterlimit:10;stroke-dasharray:none;stroke-opacity:1"
       transform="matrix(-1.2084,-0.56346667,-0.56346667,1.2084,346.72525,76.616533)" />
    <path
       id="path46"
       d="M 266.81479,-7.76099 C 170.90692,-49.13538 93.34277,-46.87521 0.71219,-0.35764"
       style="fill:none;stroke:#000000;stroke-width:0.79701;stroke-linecap:butt;stroke-linejoin:miter;stroke-miterlimit:10;stroke-dasharray:none;stroke-opacity:1"
       transform="matrix(1.3333333,0,0,-1.3333333,21.673333,66.044)" />
    <path
       id="path47"
       d="M -2.55046,3.11095 C -2.0845,1.24435 -1.04614,0.36295 0,0 -1.04614,-0.36295 -2.0845,-1.24435 -2.55046,-3.11095"
       style="fill:none;stroke:#000000;stroke-width:0.79701;stroke-linecap:round;stroke-linejoin:round;stroke-miterlimit:10;stroke-dasharray:none;stroke-opacity:1"
       transform="matrix(-1.1914667,-0.59830667,-0.59830667,1.1914667,22.148133,66.282427)" />
    <path
       id="path48"
       d="M 0,0 C 93.34277,46.87521 170.90692,49.13538 266.08304,8.07664"
       style="fill:none;stroke:#ffffff;stroke-width:0.79701;stroke-linecap:butt;stroke-linejoin:miter;stroke-miterlimit:10;stroke-dasharray:none;stroke-opacity:1"
       transform="matrix(1.3333333,0,0,-1.3333333,21.673333,66.044)" />
    <path
       id="path49"
       d="M -2.55046,3.11095 C -2.0845,1.24435 -1.04614,0.36295 0,0 -1.04614,-0.36295 -2.0845,-1.24435 -2.55046,-3.11095"
       style="fill:none;stroke:#ffffff;stroke-width:0.79701;stroke-linecap:round;stroke-linejoin:round;stroke-miterlimit:10;stroke-dasharray:none;stroke-opacity:1"
       transform="matrix(1.2242,0.52809333,0.52809333,-1.2242,376.93853,55.485573)" />
  </g>
</svg>
